<svg xmlns="http://www.w3.org/2000/svg" width="219.707" height="17.207" viewBox="0 0 219.707 17.207">
  <g id="グループ_720" data-name="グループ 720" transform="translate(-798.146 -4663.146)">
    <path id="パス_415" data-name="パス 415"
      d="M5.6-10.736c-.992,0-1.7,0-2.48-.064a6.2,6.2,0,0,0,.1,1.024c.032.128.048.176.192.176.72-.048,1.408-.1,2.3-.1h4.816a20.113,20.113,0,0,1-3.04,4.288A20.687,20.687,0,0,1,1.6-1.072,2.737,2.737,0,0,1,2.432-.5c.128.144.224.128.4.032A24.462,24.462,0,0,0,8.544-4.928,29.239,29.239,0,0,1,12.96-.864c.112.128.176.128.288.032a6.523,6.523,0,0,0,.576-.576c.128-.16.128-.208-.016-.336A32.771,32.771,0,0,0,9.216-5.76,29.066,29.066,0,0,0,11.584-9.2a2.113,2.113,0,0,1,.464-.592c.144-.128.176-.24.08-.368a4.238,4.238,0,0,0-.656-.656.274.274,0,0,0-.32-.048,1.673,1.673,0,0,1-.912.128ZM24.24-8.848H21.648c-.88,0-1.84-.016-2.976-.112,0,.3.048.8.064.992.016.16.064.24.208.224.848-.064,1.84-.112,2.736-.112h2.56V-2c0,.592-.1.8-.432.928a5.85,5.85,0,0,1-1.984.288,2.144,2.144,0,0,1,.672.9A.242.242,0,0,0,22.768.3a5.192,5.192,0,0,0,1.84-.464,1.482,1.482,0,0,0,.8-1.472c0-1.024-.048-2.08-.048-3.44V-7.856h2.032c1.024,0,2.272.016,3.312.064.16,0,.192-.064.192-.224.016-.224.016-.5.016-.72,0-.144-.048-.208-.192-.192-.944.048-2.128.08-3.28.08H25.36v-.976a4.262,4.262,0,0,1,.16-1.664c.128-.208.1-.384-.128-.448a7.9,7.9,0,0,0-1.328-.176A10.306,10.306,0,0,1,24.24-9.9ZM20.384-6.032a3.842,3.842,0,0,1-.368,1.168A9.475,9.475,0,0,1,18.128-2.24a2.715,2.715,0,0,1,.832.352c.192.112.288.064.432-.1A13.5,13.5,0,0,0,21.04-4.448a2.265,2.265,0,0,1,.432-.624c.192-.192.24-.288-.016-.448A5.114,5.114,0,0,0,20.384-6.032Zm7.408.688a11.846,11.846,0,0,1,2.3,3.2c.064.144.144.144.272.064a4.665,4.665,0,0,0,.608-.464c.128-.128.16-.192.064-.368a11.607,11.607,0,0,0-2.24-2.9c-.112-.1-.192-.128-.3-.048C28.272-5.7,28.048-5.536,27.792-5.344Zm2.192-7.664a1.612,1.612,0,0,0-1.616,1.616,1.612,1.612,0,0,0,1.616,1.616A1.612,1.612,0,0,0,31.6-11.392,1.612,1.612,0,0,0,29.984-13.008Zm0,.608a1,1,0,0,1,1.008,1.008,1,1,0,0,1-1.008,1.008,1,1,0,0,1-1.008-1.008A1,1,0,0,1,29.984-12.4Zm6.3,2.32a16.612,16.612,0,0,1,3.04,2.368c.112.112.16.1.256-.016a6.455,6.455,0,0,0,.544-.688c.08-.128.064-.192-.048-.3a14.761,14.761,0,0,0-2.88-2.128.193.193,0,0,0-.288.032C36.736-10.624,36.5-10.336,36.288-10.08Zm.384,8.4a6.007,6.007,0,0,0,.784,1.088.262.262,0,0,0,.432.016,5.964,5.964,0,0,1,.88-.624,33.228,33.228,0,0,0,4.8-3.12A29.537,29.537,0,0,0,47.456-8c.192-.224.208-.352.112-.56A4.789,4.789,0,0,1,47.3-9.616a24.97,24.97,0,0,1-4.32,4.3,27.159,27.159,0,0,1-4.624,2.976A8.926,8.926,0,0,1,36.672-1.68Zm24.9-6.976.016-1.472a5.1,5.1,0,0,1,.128-1.712c.1-.224.08-.368-.16-.432a9.219,9.219,0,0,0-1.2-.208,13.552,13.552,0,0,1,.144,2.4L60.48-8.656H56.4V-9.968a5.819,5.819,0,0,1,.128-1.6c.1-.208.16-.384-.08-.448a6.818,6.818,0,0,0-1.3-.192,10.663,10.663,0,0,1,.176,2.24v1.312h-.816c-1.024,0-1.872-.016-2.7-.064.016.352.032.688.064.912.032.176.032.24.176.224.688-.032,1.616-.064,2.464-.064h.816v.816c0,.912-.032,1.728-.064,2.544,0,.16.048.192.192.192a6.671,6.671,0,0,0,.8,0c.144,0,.192-.032.192-.176-.032-.848-.048-1.7-.048-2.592v-.784h4.08A8.977,8.977,0,0,1,59.5-3.12,7.019,7.019,0,0,1,55.216-.144a2.242,2.242,0,0,1,.832.608c.144.144.192.112.432.016a7.377,7.377,0,0,0,3.936-3.072,9.982,9.982,0,0,0,1.136-5.056h.608c.9,0,1.744-.016,2.56.016.176.016.208-.032.208-.192a4.936,4.936,0,0,0,0-.688c0-.144-.016-.192-.192-.192-.88.048-1.7.048-2.592.048Zm16.016,3.3c1.072,0,2.256,0,3.456.032.192.016.24-.016.24-.192a7.216,7.216,0,0,0,0-.832c0-.176-.048-.208-.24-.192-1.216.032-2.4.048-3.5.048H72.624a29.223,29.223,0,0,1-3.536-.144,9.458,9.458,0,0,0,.16,1.216c.048.16.128.224.272.224a13.089,13.089,0,0,1,2.16-.16Zm14.144-4.1a26.781,26.781,0,0,1-3.136.368,13.08,13.08,0,0,1-1.584,0,4.863,4.863,0,0,0,.176.832c.048.128.08.192.192.192.4.016.88-.016,1.36-.048,1.1-.08,2.208-.192,3.44-.4a14.071,14.071,0,0,0,2.464,3.7,7.926,7.926,0,0,0-3.392-.72c-2.208,0-3.968.928-3.968,2.784,0,2.144,2.464,3.088,5.392,3.088.7,0,1.552-.048,1.84-.08.128-.032.16-.048.208-.16a5.417,5.417,0,0,0,.208-1.04,12.648,12.648,0,0,1-2.3.192c-2.336,0-4.32-.608-4.32-2.08,0-1.136,1.056-1.824,2.976-1.824a7.6,7.6,0,0,1,3.632.864c.192.112.368.208.576.352.1.064.128.1.192.1s.128-.064.208-.16c.112-.16.3-.448.416-.64a.323.323,0,0,0,.048-.176c0-.048-.032-.1-.112-.144a2.614,2.614,0,0,1-.432-.352,15.233,15.233,0,0,1-2.656-3.9c1.3-.3,2.464-.624,3.456-.96.08-.032.1-.1.08-.208a3.361,3.361,0,0,0-.208-.7c-.048-.112-.128-.112-.224-.08a27.933,27.933,0,0,1-3.5,1.024c-.208-.5-.352-.864-.528-1.344a5.46,5.46,0,0,1-.288-1.072,1.936,1.936,0,0,1-.016-.416c0-.144-.112-.24-.336-.24a9.791,9.791,0,0,0-1.264.144,3.851,3.851,0,0,1,.672,1.248C91.28-10.576,91.456-10.128,91.728-9.456ZM108.5-3.136a10.119,10.119,0,0,0-1.68-.128c-1.856,0-2.944.912-2.944,1.952,0,1.184.96,1.9,2.832,1.9,1.936,0,2.88-.7,2.864-2.5A11.793,11.793,0,0,1,113.216.128c.1.064.16.048.24-.048a2.149,2.149,0,0,0,.4-.688c.048-.144.016-.208-.064-.272a13,13,0,0,0-4.272-2.064c-.064-.96-.112-1.792-.112-2.784a29.275,29.275,0,0,0,3.536-.432c.112-.016.16-.064.16-.16,0-.272-.016-.576-.016-.768-.016-.08-.064-.112-.176-.08a26.754,26.754,0,0,1-3.536.464c-.016-.752-.016-1.584-.016-2.368a39.74,39.74,0,0,0,4.016-.464c.048,0,.112-.032.112-.16a6,6,0,0,0-.048-.7c-.016-.112-.048-.144-.176-.112a37.382,37.382,0,0,1-3.9.528c.016-.544.016-.9.048-1.408a1.5,1.5,0,0,1,.192-.736.247.247,0,0,0-.144-.368,6.447,6.447,0,0,0-1.264-.208,3.821,3.821,0,0,1,.144,1.056c0,.592.016,1.04.016,1.7a27.131,27.131,0,0,1-4.448-.128,5.685,5.685,0,0,0,.064.832c.016.112.048.144.144.16a30.492,30.492,0,0,0,4.24.08c0,.768.016,1.6.016,2.384a23.881,23.881,0,0,1-3.872-.112,6.777,6.777,0,0,0,.048.816c.016.144.048.192.176.192a31.15,31.15,0,0,0,3.68.048C108.416-4.752,108.448-4.048,108.5-3.136Zm.016.96a1.8,1.8,0,0,1-.288,1.3,2.19,2.19,0,0,1-1.632.5c-1.168,0-1.792-.32-1.792-.992,0-.576.672-1.008,2.016-1.008A7.569,7.569,0,0,1,108.512-2.176Zm21.9-2.064c1.5,0,2,.032,2.08.032.112,0,.128-.016.128-.128v-.576c0-.112-.016-.128-.128-.128-.08,0-.576.032-2.08.032H124.48a2.609,2.609,0,0,1,.56-.544c.112-.064.192-.128.192-.224,0-.08-.064-.128-.208-.192-.176-.064-.336-.112-.512-.16h3.344c1.568,0,2.1.032,2.192.032.112,0,.128-.016.128-.128,0-.1-.032-.384-.032-1.248v-1.3c0-.88.032-1.168.032-1.264s-.016-.112-.128-.112c-.1,0-.624.032-2.192.032h-4.48c-1.584,0-2.112-.032-2.208-.032-.112,0-.128.016-.128.112s.032.384.032,1.264v1.3c0,.864-.032,1.152-.032,1.248,0,.112.016.128.128.128.1,0,.624-.032,2.208-.032h.832a3.59,3.59,0,0,1-.784,1.12h-2.656c-1.5,0-1.984-.032-2.08-.032s-.112.016-.112.128v.576c0,.112.016.128.112.128s.576-.032,2.08-.032h1.824a12.358,12.358,0,0,1-4.3,2.064,1.555,1.555,0,0,1,.448.464c.112.176.16.256.24.256a.982.982,0,0,0,.24-.08,16.285,16.285,0,0,0,2.352-1.072V-2c0,.1.016.112.128.112.08,0,.56-.016,2.1-.016h.672a3.183,3.183,0,0,1-.9,1.008,8.035,8.035,0,0,1-3.9,1.216,1.824,1.824,0,0,1,.384.56c.112.256.128.256.448.208a8.351,8.351,0,0,0,3.52-1.312,4.128,4.128,0,0,0,1.392-1.68h3.344A5.833,5.833,0,0,1,128.4-.3c-.128.336-.384.416-.768.416a9.072,9.072,0,0,1-1.568-.144,2.571,2.571,0,0,1,.256.608c.08.3.08.3.336.32a11.232,11.232,0,0,0,1.136.048,1.381,1.381,0,0,0,1.36-.688,4.778,4.778,0,0,0,.416-1.424c.08-.48.128-.96.192-1.376v-.048a11.334,11.334,0,0,0,2.432.944c.32.1.32.08.448-.192a2.176,2.176,0,0,1,.432-.56,10.059,10.059,0,0,1-4.416-1.84ZM125.68-2.656l.048-.128a2.624,2.624,0,0,1,.24-.688.412.412,0,0,0,.112-.24c0-.08-.1-.112-.24-.144-.24-.048-.528-.08-.864-.112a3.8,3.8,0,0,1-.16,1.216l-.032.1h-.992c-1.52,0-2-.032-2.1-.032a9.769,9.769,0,0,0,2.08-1.552h3.84A8.913,8.913,0,0,0,129.6-2.688c-.08,0-.608.032-2.1.032Zm3.552-4.16h-7.248v-.976h7.248Zm0-1.648h-7.248v-.944h7.248Zm3.344-3.52c0-.112-.016-.128-.128-.128-.1,0-.592.032-2.1.032H128.24a1.942,1.942,0,0,1,.1-.768.521.521,0,0,0,.064-.208c0-.08-.064-.128-.176-.144-.256-.032-.576-.064-.96-.08a6.953,6.953,0,0,1,.112,1.2H123.7a1.985,1.985,0,0,1,.1-.784.521.521,0,0,0,.064-.208c0-.08-.064-.128-.176-.144-.256-.032-.576-.064-.96-.08a6.994,6.994,0,0,1,.112,1.216h-1.968c-1.5,0-2-.032-2.1-.032-.112,0-.128.016-.128.128v.592c0,.128.016.144.128.144.1,0,.592-.032,2.1-.032h1.968c-.016.4-.032.592-.032.672,0,.112.016.128.128.128h.672c.112,0,.128-.016.128-.128,0-.08-.032-.272-.032-.672h3.68c-.016.416-.032.608-.032.688,0,.112.016.128.128.128h.672c.112,0,.128-.016.128-.128,0-.08-.032-.272-.032-.688h2.112c1.5,0,2,.032,2.1.032.112,0,.128-.016.128-.144Zm15.9,6.464c0-.1-.016-.112-.128-.112-.08,0-.624.032-2.256.032h-3.1V-6.816h2.256c1.6,0,2.144.032,2.224.032.128,0,.144-.016.144-.128v-.56c0-.112-.016-.128-.144-.128-.08,0-.624.032-2.224.032h-2.256v-1.2h2.256c1.6,0,2.144.032,2.224.032.128,0,.144-.016.144-.128v-.56c0-.112-.016-.128-.144-.128-.08,0-.624.032-2.224.032h-2.256V-10.7H146c1.616,0,2.128.032,2.224.032.112,0,.128-.016.128-.144v-.576c0-.1-.016-.112-.128-.112-.1,0-.608.032-2.224.032h-2.848c.192-.272.336-.512.512-.816a1.61,1.61,0,0,1,.288-.4c.08-.048.16-.112.16-.192,0-.064-.048-.128-.16-.176a9.177,9.177,0,0,0-.928-.288,3.226,3.226,0,0,1-.288.864,5.64,5.64,0,0,1-.576,1.008h-3.552c.176-.224.32-.448.448-.64a3.542,3.542,0,0,1,.48-.576c.112-.08.16-.144.16-.208a.224.224,0,0,0-.144-.176,6.352,6.352,0,0,0-.928-.288,3.82,3.82,0,0,1-.432.96A10.5,10.5,0,0,1,135.1-9.152a1.933,1.933,0,0,1,.432.512c.08.128.128.192.192.192s.128-.048.24-.144c.528-.48,1.008-.96,1.44-1.424-.016.432-.032.944-.032,1.424V-6.7c0,1.216-.032,1.68-.032,1.776,0,.112.016.128.128.128.08,0,.672-.032,2.288-.032H146.1c1.632,0,2.176.032,2.256.032.112,0,.128-.016.128-.128Zm-6.352-.08h-3.856V-6.816h3.856Zm0-1.968h-3.856v-1.2h3.856Zm0-1.952h-3.856V-10.7h3.856Zm4.864,6.8c1.52,0,2.048.032,2.128.032.112,0,.128-.016.128-.128v-.656c0-.1-.016-.112-.128-.112-.08,0-.608.032-2.128.032h-4.16a2.177,2.177,0,0,1,.048-.656c.048-.08.1-.128.1-.208,0-.064-.032-.112-.176-.144-.224-.032-.576-.064-.96-.1a6.77,6.77,0,0,1,.064,1.1H137.92c-1.52,0-2.032-.032-2.128-.032-.112,0-.128.016-.128.112v.656c0,.112.016.128.128.128.1,0,.608-.032,2.128-.032H141.1A14.8,14.8,0,0,1,135.28-.128a1.815,1.815,0,0,1,.368.544c.144.3.176.3.48.224a13.537,13.537,0,0,0,5.808-3.1c-.016,2.192-.08,3.216-.08,3.52,0,.1.016.112.128.112h.768c.112,0,.128-.016.128-.112,0-.3-.08-1.328-.08-3.52A13.157,13.157,0,0,0,148.72.7c.32.1.336.08.48-.224a1.832,1.832,0,0,1,.432-.608,14.03,14.03,0,0,1-6.048-2.592Zm18.064-5.328c0-1.3.032-1.728.032-1.808,0-.112-.016-.128-.128-.128-.08,0-.64.032-2.256.032h-3.136v-1.36a6.238,6.238,0,0,1,.1-1.456.714.714,0,0,0,.08-.288c0-.064-.1-.128-.192-.144-.32-.032-.7-.064-1.1-.08a10.963,10.963,0,0,1,.112,2.048v1.28h-2.848c-1.6,0-2.176-.032-2.256-.032-.112,0-.128.016-.128.128,0,.08.032.528.032,2.032v1.5c0,2.512-.032,2.912-.032,3.008,0,.112.016.128.128.128h.752c.112,0,.128-.016.128-.128v-.9h4.224v2.336c0,1.936-.032,2.784-.032,2.864,0,.112.016.128.128.128h.816c.112,0,.128-.016.128-.128,0-.08-.032-.944-.032-2.88v-2.32h4.512v.832c0,.112.016.128.128.128h.752c.112,0,.128-.016.128-.128,0-.1-.032-.48-.032-2.992ZM164.08-5.1h-4.512V-9.056h4.512Zm-5.52,0h-4.224V-9.056h4.224Z"
      transform="translate(824.5 4677.5)" fill="#efefef" />
    <line id="線_81" data-name="線 81" x2="16" y2="16" transform="translate(798.5 4664)" fill="none"
      stroke="#efefef" strokeWidth="1" />
    <line id="線_82" data-name="線 82" x1="16" y2="16" transform="translate(1001.5 4663.5)"
      fill="none" stroke="#efefef" strokeWidth="1" />
  </g>
</svg>