<svg xmlns="http://www.w3.org/2000/svg" width="273.707" height="17.207" viewBox="0 0 273.707 17.207">
  <g id="グループ_719" data-name="グループ 719" transform="translate(-321.146 -4663.646)">
    <path id="パス_414" data-name="パス 414"
      d="M14.48-5.3c0-.336.032-.512.032-.608,0-.112-.016-.128-.128-.128-.08,0-.64.032-2.208.032H3.84c-1.568,0-2.128-.032-2.224-.032-.112,0-.128.016-.128.128,0,.1.032.272.032.672v.384c0,1.152-.032,1.3-.032,1.392,0,.112.016.128.128.128h.7c.112,0,.128-.016.128-.128V-5.2H6.784a10.048,10.048,0,0,1-4.56,3.072,1.827,1.827,0,0,1,.464.464c.1.144.144.192.224.192a.863.863,0,0,0,.256-.08A13.059,13.059,0,0,0,6.016-3.28h4.432A10.028,10.028,0,0,1,8.064-1.3,13.776,13.776,0,0,0,6-2.528c-.1-.048-.128-.032-.24.064l-.3.272c-.16.128-.16.176-.032.24A11.293,11.293,0,0,1,7.2-.832,16.577,16.577,0,0,1,2.416.432a1.858,1.858,0,0,1,.4.56c.128.272.16.272.448.224C7.456.448,9.28-.7,11.328-2.9a1.309,1.309,0,0,1,.432-.336c.112-.048.16-.112.16-.192s-.048-.144-.288-.384c-.256-.256-.352-.32-.48-.32a.417.417,0,0,0-.176.048.938.938,0,0,1-.32.032H6.864A11.8,11.8,0,0,0,7.872-5.2h5.664v1.76c0,.112.016.128.128.128h.72c.112,0,.128-.016.128-.128,0-.08-.032-.24-.032-1.408Zm-1.3-3.456c0-.688.032-.9.032-.976,0-.112-.016-.128-.128-.128-.08,0-.656.032-2.272.032H5.168c-1.616,0-2.192-.032-2.272-.032-.112,0-.128.016-.128.128,0,.08.032.288.032.976v.816c0,.7-.032.9-.032.992s.016.112.128.112c.08,0,.656-.032,2.272-.032h5.648c1.616,0,2.192.032,2.272.032.112,0,.128-.016.128-.112s-.032-.288-.032-.992Zm-.928,1.184H9.92V-9.12h2.336Zm-3.232,0H6.784V-9.12h2.24Zm-3.136,0H3.728V-9.12h2.16Zm9.088-4.352c0-.112-.016-.128-.128-.128-.1,0-.592.032-2.1.032H10.608a2.306,2.306,0,0,1,.08-.8.535.535,0,0,0,.064-.224c0-.1-.064-.128-.16-.144-.256-.032-.624-.064-.976-.08a7.464,7.464,0,0,1,.1,1.248H6.224a1.932,1.932,0,0,1,.1-.816.543.543,0,0,0,.08-.224c0-.08-.08-.128-.192-.144-.256-.032-.624-.064-.976-.08a6.153,6.153,0,0,1,.1,1.264H3.264c-1.5,0-2.016-.032-2.1-.032-.112,0-.128.016-.128.128v.608c0,.112.016.128.128.128.08,0,.592-.032,2.1-.032H5.328c0,.5-.016.752-.016.832,0,.112.016.128.112.128h.7c.112,0,.128-.016.128-.128,0-.08-.032-.32-.032-.832H9.712c-.016.528-.032.768-.032.832,0,.112.016.128.128.128H10.5c.128,0,.144-.016.144-.128,0-.064-.032-.3-.032-.832h2.144c1.5,0,2,.032,2.1.032.112,0,.128-.016.128-.128ZM26.208-5.008c1.168-.5,2.176-.864,3.392-1.376a4.679,4.679,0,0,1,.88-.256c.16-.032.288-.128.16-.368a3.843,3.843,0,0,0-.784-.928,4.379,4.379,0,0,1-1.216.816c-.8.384-1.712.8-2.5,1.152A1.851,1.851,0,0,0,24.128-7.84a3.468,3.468,0,0,0-2,.688l-.016-.032a13.415,13.415,0,0,0,1.632-2.384c1.28-.128,2.64-.3,3.9-.528.176-.032.208-.08.208-.192-.016-.256-.064-.48-.1-.7-.032-.1-.064-.1-.192-.064a30.21,30.21,0,0,1-3.376.528c.208-.48.352-.816.544-1.216a1.485,1.485,0,0,1,.288-.448.2.2,0,0,0-.032-.352,5.172,5.172,0,0,0-1.2-.352,2.4,2.4,0,0,1-.128.864,14.154,14.154,0,0,1-.576,1.6,32.025,32.025,0,0,1-3.712.016c.016.256.064.608.1.8.016.112.048.16.176.16,1.008.032,1.984.032,2.976-.032A17.568,17.568,0,0,1,18.912-5.04c-.1.1-.08.128-.032.224a5.194,5.194,0,0,0,.56.624c.08.08.144.08.24-.032.56-.592.944-1.008,1.52-1.552a4.546,4.546,0,0,1,2.624-1.3c.944-.016,1.312.416,1.344,1.5-2.656,1.3-3.536,2.384-3.536,3.728,0,1.712,1.456,2.288,3.7,2.288A31.616,31.616,0,0,0,29.28.224c.064-.016.128-.08.128-.224a4.557,4.557,0,0,0-.1-.784A.133.133,0,0,0,29.136-.9a28.173,28.173,0,0,1-3.808.32c-1.856,0-2.736-.384-2.736-1.328,0-.96.864-1.776,2.624-2.656-.016.816-.016,1.6-.016,2.3,0,.112.048.192.144.192a4.38,4.38,0,0,0,.688-.064c.144-.016.176-.064.176-.192Zm13.1-4.176c0-1.76.032-2.272.032-2.352,0-.112-.016-.128-.128-.128-.08,0-.368.032-1.344.032H36.64c-.96,0-1.248-.032-1.344-.032-.112,0-.128.016-.128.128,0,.08.032.624.032,2.832v2.192c0,3.184-.032,3.7-.032,3.792,0,.112.016.128.128.128H36c.112,0,.128-.016.128-.128V-4.368H38.4v.976c0,.112.016.128.128.128h.688c.112,0,.128-.016.128-.128,0-.08-.032-.56-.032-3.552ZM38.4-5.248H36.128v-5.5H38.4Zm10.448-2.4c0-.112-.016-.128-.128-.128-.08,0-.608.032-2.176.032H44.736V-11.1a7.617,7.617,0,0,1,.1-1.648,1.628,1.628,0,0,0,.08-.288c0-.064-.08-.128-.192-.144-.272-.032-.672-.064-1.088-.08a12.792,12.792,0,0,1,.112,2.192v3.328H42.288c-1.568,0-2.08-.032-2.176-.032-.112,0-.128.016-.128.128V-6.9c0,.112.016.128.128.128.1,0,.608-.032,2.176-.032h1.456v5.008c0,1.888-.032,2.72-.032,2.8,0,.112.016.128.128.128h.8c.112,0,.128-.016.128-.128,0-.08-.032-.912-.032-2.816V-6.8h1.808c1.568,0,2.1.032,2.176.032.112,0,.128-.016.128-.128Zm7.568-5.232a8.732,8.732,0,0,0-.32.864.154.154,0,0,0,.1.208A22.409,22.409,0,0,0,60.256-10.5a.183.183,0,0,0,.208-.112,5.689,5.689,0,0,0,.24-.736c.032-.16.016-.208-.128-.24A25.934,25.934,0,0,1,56.416-12.88Zm-3.04,4.928a6.777,6.777,0,0,0,.416,1.1c.064.128.128.192.208.192a.6.6,0,0,0,.288-.08,4.127,4.127,0,0,1,.656-.224c1.36-.288,2.7-.56,4.416-.912-1.568,1.7-2.752,3.008-3.76,4.064-.72.736-1.872,1.92-3.056,3.12a.206.206,0,0,0-.032.288,7.308,7.308,0,0,0,.624.56.193.193,0,0,0,.256-.016c.72-.848,1.664-1.968,2.48-2.752a2.775,2.775,0,0,1,1.808-.928c.736,0,1.008.608,1.232,1.744C59.232-.192,59.936.32,62.24.32A13.671,13.671,0,0,0,64.528.112c.144-.016.208-.064.208-.176a5.349,5.349,0,0,0-.064-.784c-.016-.144-.064-.192-.192-.16a13.207,13.207,0,0,1-2.368.24c-1.728,0-2.032-.24-2.336-1.744-.224-1.152-.864-1.776-1.7-1.776a2.155,2.155,0,0,0-.944.224c1.136-1.2,2.224-2.368,3.376-3.536a2.4,2.4,0,0,1,.56-.416.291.291,0,0,0,.176-.256.4.4,0,0,0-.112-.24,4.373,4.373,0,0,0-.592-.512c-.08-.048-.112-.08-.176-.08a.279.279,0,0,0-.192.064,1.681,1.681,0,0,1-.5.192c-.736.176-1.7.368-2.976.576A18.574,18.574,0,0,1,53.376-7.952Zm19.744,1.9c1.6-1.632,2.672-2.752,4.1-4.256a1.735,1.735,0,0,1,.752-.56.331.331,0,0,0,.24-.3.432.432,0,0,0-.112-.272,3.942,3.942,0,0,0-.688-.672.48.48,0,0,0-.288-.128.493.493,0,0,0-.224.112,1.67,1.67,0,0,1-.5.144c-1.408.272-2.72.448-3.984.576a5.964,5.964,0,0,1-1.408-.016,5.061,5.061,0,0,0,.384,1.1.283.283,0,0,0,.256.192.951.951,0,0,0,.3-.08,2.6,2.6,0,0,1,.56-.144c1.424-.272,2.672-.512,4-.72-1.232,1.456-2.192,2.48-3.12,3.488a43.568,43.568,0,0,1-3.616,3.568c-.112.1-.128.16-.064.24a7.38,7.38,0,0,0,.592.64c.112.112.192.1.32-.032A15.379,15.379,0,0,1,72.032-4.48a7.371,7.371,0,0,1,4.4-1.808A2.592,2.592,0,0,1,79.2-3.664,2.951,2.951,0,0,1,76.864-.752a2.709,2.709,0,0,0-2.72-2.288,1.745,1.745,0,0,0-1.872,1.632c0,1.024.864,1.888,2.784,1.888,3.392,0,5.28-1.728,5.28-4.112a3.4,3.4,0,0,0-3.728-3.5A6.246,6.246,0,0,0,73.168-6Zm2.768,5.52a5.805,5.805,0,0,1-1.04.08C73.776-.448,73.2-.9,73.2-1.424c0-.5.464-.752.976-.752A1.856,1.856,0,0,1,75.888-.528ZM88.8-7.2c-.96,0-1.952-.016-3.072-.1.016.32.064.688.1.912.032.208.08.272.256.272.88-.064,1.824-.1,2.672-.1h2.96a7.489,7.489,0,0,1-.656,3.04A6.455,6.455,0,0,1,88.208-.144a2.543,2.543,0,0,1,.976.416.253.253,0,0,0,.368,0,7.306,7.306,0,0,0,2.576-3.088,9.38,9.38,0,0,0,.72-3.392h2.128c1.056,0,2.032.016,3.04.048.176,0,.192-.032.192-.224a5.163,5.163,0,0,0,0-.7c0-.16-.016-.208-.176-.192-.9.048-2.032.08-3.024.08H92.88c0-.368.016-.624.016-1.04,0-.224.016-.432.032-.64a1.317,1.317,0,0,1,.112-.448c.08-.16.048-.272-.144-.32a10.154,10.154,0,0,0-1.328-.208,4.65,4.65,0,0,1,.176,1.232c.016.4.016,1.008,0,1.424Zm6.416-5.088a3.033,3.033,0,0,1-1.072.576,19.766,19.766,0,0,1-2.864.784,33.475,33.475,0,0,1-4.656.608,2.142,2.142,0,0,1,.56.688.265.265,0,0,0,.288.208,38.266,38.266,0,0,0,4.16-.592c1.136-.208,2.208-.5,3.344-.816.272-.08.656-.208.912-.256.256-.032.368-.112.368-.224a.535.535,0,0,0-.192-.32A5.433,5.433,0,0,0,95.216-12.288Zm12.192,6.8.848,3.28c.224.864.4,1.68.624,2.608.048.192.128.192.272.16a3.558,3.558,0,0,0,.624-.192c.144-.048.176-.112.128-.272-.256-.912-.48-1.712-.7-2.592l-.832-3.264,4.064-1.072a9.341,9.341,0,0,1-2,2.9,2.223,2.223,0,0,1,.768.256c.16.08.24.064.384-.1A13.43,13.43,0,0,0,113.44-6.72a.986.986,0,0,1,.288-.368.258.258,0,0,0,.032-.4,3.853,3.853,0,0,0-.672-.5c-.144-.08-.256-.112-.368,0a2.071,2.071,0,0,1-.8.352l-3.792.992-.352-1.472a2.176,2.176,0,0,1-.08-1.008c.048-.144,0-.256-.208-.272a9.7,9.7,0,0,0-1.3.064,4.982,4.982,0,0,1,.592,1.5l.384,1.472L105.808-6a20.337,20.337,0,0,1-2.192.432,7.492,7.492,0,0,0,.368.912c.1.176.16.16.368.08.432-.16,1.088-.384,1.744-.56Zm12.88-4.592a16.613,16.613,0,0,1,3.04,2.368c.112.112.16.1.256-.016a6.455,6.455,0,0,0,.544-.688c.08-.128.064-.192-.048-.3a14.761,14.761,0,0,0-2.88-2.128.193.193,0,0,0-.288.032C120.736-10.624,120.5-10.336,120.288-10.08Zm.384,8.4a6.006,6.006,0,0,0,.784,1.088.262.262,0,0,0,.432.016,5.964,5.964,0,0,1,.88-.624,33.228,33.228,0,0,0,4.8-3.12A29.537,29.537,0,0,0,131.456-8c.192-.224.208-.352.112-.56a4.789,4.789,0,0,1-.272-1.056,24.97,24.97,0,0,1-4.32,4.3,27.159,27.159,0,0,1-4.624,2.976A8.925,8.925,0,0,1,120.672-1.68ZM140-10.736c-.992,0-1.7,0-2.48-.064a6.2,6.2,0,0,0,.1,1.024c.032.128.048.176.192.176.72-.048,1.408-.1,2.3-.1h4.816a20.113,20.113,0,0,1-3.04,4.288A20.687,20.687,0,0,1,136-1.072a2.737,2.737,0,0,1,.832.576c.128.144.224.128.4.032a24.462,24.462,0,0,0,5.712-4.464A29.24,29.24,0,0,1,147.36-.864c.112.128.176.128.288.032a6.524,6.524,0,0,0,.576-.576c.128-.16.128-.208-.016-.336a32.771,32.771,0,0,0-4.592-4.016,29.067,29.067,0,0,0,2.368-3.44,2.113,2.113,0,0,1,.464-.592c.144-.128.176-.24.08-.368a4.238,4.238,0,0,0-.656-.656.274.274,0,0,0-.32-.048,1.673,1.673,0,0,1-.912.128Zm20.608,5.728c1.168-.5,2.176-.864,3.392-1.376a4.678,4.678,0,0,1,.88-.256c.16-.032.288-.128.16-.368a3.843,3.843,0,0,0-.784-.928,4.379,4.379,0,0,1-1.216.816c-.8.384-1.712.8-2.5,1.152a1.851,1.851,0,0,0-2.016-1.872,3.468,3.468,0,0,0-2,.688l-.016-.032a13.415,13.415,0,0,0,1.632-2.384c1.28-.128,2.64-.3,3.9-.528.176-.032.208-.08.208-.192-.016-.256-.064-.48-.1-.7-.032-.1-.064-.1-.192-.064a30.211,30.211,0,0,1-3.376.528c.208-.48.352-.816.544-1.216a1.485,1.485,0,0,1,.288-.448.2.2,0,0,0-.032-.352,5.172,5.172,0,0,0-1.2-.352,2.4,2.4,0,0,1-.128.864,14.155,14.155,0,0,1-.576,1.6,32.024,32.024,0,0,1-3.712.016c.016.256.064.608.1.8.016.112.048.16.176.16,1.008.032,1.984.032,2.976-.032a17.569,17.569,0,0,1-3.712,4.448c-.1.1-.08.128-.032.224a5.193,5.193,0,0,0,.56.624c.08.08.144.08.24-.032.56-.592.944-1.008,1.52-1.552a4.546,4.546,0,0,1,2.624-1.3c.944-.016,1.312.416,1.344,1.5-2.656,1.3-3.536,2.384-3.536,3.728,0,1.712,1.456,2.288,3.7,2.288A31.616,31.616,0,0,0,163.68.224c.064-.016.128-.08.128-.224a4.557,4.557,0,0,0-.1-.784.133.133,0,0,0-.176-.112,28.173,28.173,0,0,1-3.808.32c-1.856,0-2.736-.384-2.736-1.328,0-.96.864-1.776,2.624-2.656-.016.816-.016,1.6-.016,2.3,0,.112.048.192.144.192a4.379,4.379,0,0,0,.688-.064c.144-.016.176-.064.176-.192Zm20.5,1.76c0-.1-.016-.112-.128-.112-.08,0-.5.032-1.808.032h-.848V-6.112h.528c1.152,0,1.488.032,1.584.032.112,0,.128-.016.128-.128v-.608c0-.112-.016-.128-.128-.128-.1,0-.432.032-1.584.032h-.528v-2.32h.784c1.28,0,1.664.032,1.76.032.112,0,.128-.016.128-.128v-.64c0-.1-.016-.112-.128-.112-.1,0-.48.032-1.76.032h-2.272c-1.264,0-1.648-.032-1.744-.032-.112,0-.128.016-.128.112v.64c0,.112.016.128.128.128.1,0,.48-.032,1.744-.032h.624v2.32h-.4c-1.136,0-1.488-.032-1.568-.032-.128,0-.144.016-.144.128v.608c0,.112.016.128.144.128.08,0,.432-.032,1.568-.032h.4v2.784h-.688c-1.3,0-1.7-.032-1.792-.032-.112,0-.128.016-.128.112v.64c0,.112.016.128.128.128.1,0,.5-.032,1.792-.032h2.4c1.312,0,1.728.032,1.808.032.112,0,.128-.016.128-.128Zm-1.824-2.24c-.16.08-.176.112-.112.208a6.6,6.6,0,0,1,.8,1.408c.064.128.1.128.288.032l.272-.144c.16-.08.16-.112.112-.224a6.236,6.236,0,0,0-.864-1.392c-.064-.08-.1-.08-.24-.016Zm3.376-3.1c0-2.768.032-3.68.032-3.776,0-.112-.016-.128-.128-.128-.1,0-.64.032-2.24.032H175.7c-1.6,0-2.144-.032-2.24-.032-.112,0-.128.016-.128.128,0,.1.032,1.008.032,4.224v3.216c0,4.912-.032,5.824-.032,5.9,0,.112.016.128.128.128h.688c.112,0,.128-.016.128-.128V-.064h7.456V.976c0,.112.016.128.128.128h.7c.112,0,.128-.016.128-.128,0-.08-.032-.992-.032-5.92Zm-.928,7.68h-7.456V-11.584h7.456ZM171.6-9.12c.832,0,1.088.032,1.168.032.112,0,.128-.016.128-.128v-.672c0-.112-.016-.128-.128-.128-.08,0-.336.032-1.168.032V-11.3a4.177,4.177,0,0,1,.1-1.392.748.748,0,0,0,.1-.3c0-.064-.08-.112-.208-.128a8.945,8.945,0,0,0-1.024-.1,10.022,10.022,0,0,1,.112,1.936v1.3h-.448c-.976,0-1.248-.032-1.328-.032-.112,0-.128.016-.128.128v.672c0,.112.016.128.128.128.08,0,.352-.032,1.328-.032h.448v3.664c-.208.08-.4.144-.56.192A10.317,10.317,0,0,1,168.7-4.9c.1.384.176.656.272.928a.181.181,0,0,0,.16.144.3.3,0,0,0,.224-.112,1.6,1.6,0,0,1,.592-.3l.72-.272V-.784c0,.592-.144.768-.624.768a7.325,7.325,0,0,1-1.1-.064,1.854,1.854,0,0,1,.288.672c.08.32.1.336.416.336.96.016,1.28-.048,1.568-.272.3-.24.416-.512.416-1.28,0-.608-.032-1.376-.032-2.416V-4.9l1.04-.464c.3-.144.3-.192.3-.48a3.808,3.808,0,0,1,.016-.608c-.5.24-.96.448-1.36.624Zm19.616,4.528a25.9,25.9,0,0,0,2.736-.016c.08,0,.128-.032.144-.176.016-.192.032-.528.032-.7,0-.1-.048-.128-.192-.112a19.912,19.912,0,0,1-2.592.032c.144-.976.288-1.952.416-2.736A22.869,22.869,0,0,0,194.1-8.32c.1,0,.16-.032.16-.16.016-.224.016-.5.016-.736,0-.1-.032-.128-.1-.128a14.989,14.989,0,0,1-2.24.032c.1-.672.176-1.136.288-1.76a1.413,1.413,0,0,1,.288-.752.373.373,0,0,0,.112-.224c0-.1-.1-.192-.24-.256a5.52,5.52,0,0,0-1.248-.384,4.849,4.849,0,0,1-.016,1.36c-.064.688-.112,1.072-.24,1.936a12.939,12.939,0,0,1-3.072-.624c0,.32.016.656.032.9.016.16.032.176.144.208a12.856,12.856,0,0,0,2.72.512c-.1.832-.224,1.76-.368,2.752a11.169,11.169,0,0,1-2.832-.608,5.588,5.588,0,0,0,.016.9c.016.144.064.192.144.208a15.592,15.592,0,0,0,2.544.5c-.064.672-.16,1.408-.16,1.984,0,2.112,1.168,3.2,3.664,3.2,2.32,0,4.144-1.312,4.144-3.472a3.973,3.973,0,0,0-1.328-2.9.317.317,0,0,0-.272-.048,4.036,4.036,0,0,1-.992.064,3.843,3.843,0,0,1,1.472,2.864c0,1.68-1.472,2.464-3.2,2.464-1.616,0-2.48-.56-2.48-2.192C191.056-3.184,191.152-3.952,191.216-4.592Zm16.672-8.224a4.567,4.567,0,0,0-.256.88c-.016.144,0,.208.048.224a18.676,18.676,0,0,0,4.368,1.2c.112.016.128-.048.176-.176a4.683,4.683,0,0,0,.192-.752c.016-.128-.032-.192-.16-.208A16.6,16.6,0,0,1,207.888-12.816ZM205.1-7.76a7.53,7.53,0,0,0,.512,1.024c.08.128.192.256.3.256.16,0,.288-.112.512-.24a12.747,12.747,0,0,1,1.44-.656,7.636,7.636,0,0,1,2.336-.56c.976,0,1.984.544,1.984,2.464a4.738,4.738,0,0,1-.912,2.912A8.523,8.523,0,0,1,207.872.048a2.033,2.033,0,0,1,.8.544c.112.144.224.176.544,0a9.288,9.288,0,0,0,2.832-2.256,5.7,5.7,0,0,0,1.312-3.7c0-2.5-1.376-3.584-2.96-3.584a11.163,11.163,0,0,0-3.472.768A7.507,7.507,0,0,1,205.1-7.76Z"
      transform="translate(349 4678)" fill="#efefef" />
    <line id="線_72" data-name="線 72" x2="16" y2="16" transform="translate(321.5 4664.5)" fill="none"
      stroke="#efefef" strokeWidth="1" />
    <line id="線_73" data-name="線 73" x1="16" y2="16" transform="translate(578.5 4664)" fill="none"
      stroke="#efefef" strokeWidth="1" />
  </g>
</svg>