<svg xmlns="http://www.w3.org/2000/svg" xmlns:xlink="http://www.w3.org/1999/xlink" width="850"
  height="318" viewBox="0 0 850 318">
  <defs>
    <clipPath id="clip-path">
      <rect id="長方形_232" data-name="長方形 232" width="848" height="317"
        transform="translate(258.213 2472)" fill="#fff" />
    </clipPath>
    <pattern id="pattern" preserveAspectRatio="xMidYMid slice" width="100%" height="100%"
      viewBox="0 0 400 400">
    </pattern>
  </defs>
  <g id="グループ_714" data-name="グループ 714" transform="translate(-3223 -1247)">
    <g id="グループ_396" data-name="グループ 396" transform="translate(10465 -1631)">
      <g id="長方形_230" data-name="長方形 230" transform="translate(-7242 2878)" fill="#fff"
        stroke="#485757" strokeWidth="1">
        <rect width="850" height="318" stroke="none" />
        <rect x="0.5" y="0.5" width="849" height="317" fill="none" />
      </g>
      <g id="マスクグループ_23" data-name="マスクグループ 23" transform="translate(-7499.212 407)"
        clip-path="url(#clip-path)">
        <g id="グループ_389" data-name="グループ 389" transform="translate(207.107 2472)">
          <rect id="bg" width="316" height="316" transform="translate(632.105)" fill="url(#pattern)" />
          <rect id="bg-2" data-name="bg" width="317" height="316" transform="translate(316.105)"
            fill="url(#pattern)" />
          <rect id="bg-3" data-name="bg" width="316" height="316" transform="translate(0.105)"
            fill="url(#pattern)" />
        </g>
      </g>
    </g>
    <path id="パス_329" data-name="パス 329"
      d="M-79.314-2.579l-.369,4.6a8.314,8.314,0,0,1-2.282,2.315,11,11,0,0,1-3.188,1.493,13.324,13.324,0,0,1-3.758.52A13.1,13.1,0,0,1-94.8,5.038a9.049,9.049,0,0,1-3.842-3.624,11.112,11.112,0,0,1-1.342-5.6,11.183,11.183,0,0,1,1.342-5.637A9.049,9.049,0,0,1-94.8-13.451a12.8,12.8,0,0,1,5.889-1.275,16.987,16.987,0,0,1,4.194.537,12.66,12.66,0,0,1,3.658,1.51l.738,4.731h-.3a6.685,6.685,0,0,0-2.97-4.429,10.194,10.194,0,0,0-5.352-1.342,8.736,8.736,0,0,0-4.58,1.158,7.75,7.75,0,0,0-2.986,3.288A11.328,11.328,0,0,0-97.568-4.19,11.165,11.165,0,0,0-96.511.826a7.716,7.716,0,0,0,3,3.288,9.057,9.057,0,0,0,4.6,1.191,12.016,12.016,0,0,0,4.547-.822,7.5,7.5,0,0,0,3.305-2.567,8.323,8.323,0,0,0,1.443-4.5Zm15.972-12.147a12.742,12.742,0,0,1,4.412.755,10.967,10.967,0,0,1,3.624,2.164,10,10,0,0,1,2.433,3.339A10.266,10.266,0,0,1-52-4.19,10.266,10.266,0,0,1-52.872.088a10,10,0,0,1-2.433,3.339,10.967,10.967,0,0,1-3.624,2.164,12.742,12.742,0,0,1-4.412.755,12.6,12.6,0,0,1-4.4-.755,11,11,0,0,1-3.607-2.164A10,10,0,0,1-73.777.088,10.265,10.265,0,0,1-74.65-4.19a10.265,10.265,0,0,1,.872-4.278,10,10,0,0,1,2.433-3.339,11,11,0,0,1,3.607-2.164A12.6,12.6,0,0,1-63.342-14.726Zm0,20.066a8.571,8.571,0,0,0,4.5-1.208A8.688,8.688,0,0,0-55.658.776,10.185,10.185,0,0,0-54.483-4.19a10.16,10.16,0,0,0-1.174-4.983,8.72,8.72,0,0,0-3.188-3.339,8.571,8.571,0,0,0-4.5-1.208A8.509,8.509,0,0,0-67.8-12.512a8.719,8.719,0,0,0-3.188,3.339A10.16,10.16,0,0,0-72.167-4.19,10.185,10.185,0,0,0-70.992.776,8.688,8.688,0,0,0-67.8,4.132,8.509,8.509,0,0,0-63.342,5.34Zm37.078-20.066.3,2.181L-33.813,2.924l-.252.57q-.252.57-.52,1.359a11.1,11.1,0,0,0-.4,1.493h-.336l-.47-2.114ZM-45.927,3.628V5.876h-3.49V5.541h.5a2.433,2.433,0,0,0,1.527-.5,1.968,1.968,0,0,0,.755-1.409Zm1.007.5a1.626,1.626,0,0,0,.235.956,1.136,1.136,0,0,0,1.007.487h.47v.3h-1.913V4.132Zm.906-18.858h.336l.671,1.98-2.08,18.623h-1.846Zm.336,0,9.127,17.549-.772,3.523-8.993-17.382Zm17.717,0,3.02,20.6h-2.55L-27.673-11l1.409-3.725Zm2.013,18.355h.671a2.06,2.06,0,0,0,.805,1.409,2.454,2.454,0,0,0,1.51.5h.5v.336h-3.49Zm-1.778.5h.235V5.876h-1.946v-.3h.5a1.112,1.112,0,0,0,1.023-.5A1.5,1.5,0,0,0-25.726,4.132Zm13.221-18.388V5.876H-14.62V-14.257ZM-14.519,3.729V5.876h-2.852V5.541h.47A2.431,2.431,0,0,0-15.307,5a1.713,1.713,0,0,0,.688-1.275Zm1.913,0h.1A1.713,1.713,0,0,0-11.818,5a2.431,2.431,0,0,0,1.594.537h.436l.034.336h-2.852Zm0-15.838v-2.148h2.852l-.034.336h-.436a2.481,2.481,0,0,0-1.594.52,1.69,1.69,0,0,0-.688,1.292Zm-1.913,0h-.1a1.69,1.69,0,0,0-.688-1.292,2.482,2.482,0,0,0-1.594-.52h-.47v-.336h2.852ZM-3.311-14.76,15.278,2.756l.336,3.59L-2.976-11.27ZM-3.244,3.8v2.08H-5.761V5.541h.57a1.843,1.843,0,0,0,1.309-.5A1.634,1.634,0,0,0-3.345,3.8Zm1.409,0a1.612,1.612,0,0,0,.554,1.242,1.86,1.86,0,0,0,1.292.5h.57v.336H-1.936V3.8ZM-3.311-14.76l1.443,1.879.034,18.757h-1.51V-10.566A24.877,24.877,0,0,0-3.5-13.518l-.151-1.242Zm18.925.5V2.051q0,1.074.067,2.064t.151,1.611l.084.621h-.3L14.137,4.568V-14.257Zm-.1,2.08v-2.08H18.03v.336h-.57a1.86,1.86,0,0,0-1.292.5,1.612,1.612,0,0,0-.554,1.242Zm-1.376,0a1.75,1.75,0,0,0-.57-1.242,1.843,1.843,0,0,0-1.309-.5h-.57v-.336H14.2v2.08Zm18.59-2.55a18.326,18.326,0,0,1,2.9.218,13.677,13.677,0,0,1,2.584.671,12.242,12.242,0,0,1,2.332,1.158l.738,4.731h-.3A7.86,7.86,0,0,0,39.455-11.2a6.32,6.32,0,0,0-2.735-1.9,11.629,11.629,0,0,0-4.027-.621,8.538,8.538,0,0,0-4.48,1.158,7.858,7.858,0,0,0-3,3.288A11.178,11.178,0,0,0,24.137-4.19,11.2,11.2,0,0,0,25.21.877a7.8,7.8,0,0,0,3.02,3.305,8.627,8.627,0,0,0,4.5,1.158,11.614,11.614,0,0,0,2.684-.3,9.794,9.794,0,0,0,2.466-.956A10.423,10.423,0,0,0,40.109,2.42l.034-4.463a1.093,1.093,0,0,0-.386-.973A1.806,1.806,0,0,0,38.6-3.351h-.47v-.336H44.27v.336H43.8q-1.51,0-1.51,1.342V2.018A11.457,11.457,0,0,1,40.176,4a12.194,12.194,0,0,1-3.2,1.678,12.475,12.475,0,0,1-4.245.671,12.728,12.728,0,0,1-5.788-1.309A9.31,9.31,0,0,1,23.1,1.414a10.9,10.9,0,0,1-1.376-5.6A10.965,10.965,0,0,1,23.1-9.827a9.286,9.286,0,0,1,3.859-3.624A12.467,12.467,0,0,1,32.727-14.726Zm30.468,0q.94,0,1.644.067t1.225.151a6.937,6.937,0,0,1,.906.2q.386.117.688.218l.034,3.322h-.4a2.675,2.675,0,0,0-.94-2.164,4.484,4.484,0,0,0-2.919-.789,4.545,4.545,0,0,0-2.869.923A2.682,2.682,0,0,0,59.4-10.532a3.534,3.534,0,0,0,.117.889,3,3,0,0,0,.4.889,4.277,4.277,0,0,0,.789.872L67.49-2.647a3.779,3.779,0,0,1,1.141,1.627,6.209,6.209,0,0,1,.4,1.963,4.691,4.691,0,0,1-.772,2.718A5.732,5.732,0,0,1,66.1,5.625a6.3,6.3,0,0,1-3,.721A14.258,14.258,0,0,1,61,6.178a10.854,10.854,0,0,1-2.1-.52,5.252,5.252,0,0,1-1.611-.889,5.837,5.837,0,0,1-.1-1.191,10.6,10.6,0,0,1,.117-1.527A9.237,9.237,0,0,1,57.625.608h.4a4.554,4.554,0,0,0,.436,2.584,3.75,3.75,0,0,0,1.678,1.627,5.425,5.425,0,0,0,2.584.52A5.244,5.244,0,0,0,66,4.283a3.252,3.252,0,0,0,1.191-2.634A3.616,3.616,0,0,0,66.9.189a3.576,3.576,0,0,0-.923-1.225L59.269-6.2a4.132,4.132,0,0,1-1.275-1.778,5.665,5.665,0,0,1-.336-1.846A4.377,4.377,0,0,1,58.4-12.31a5.268,5.268,0,0,1,2-1.762A5.981,5.981,0,0,1,63.195-14.726Zm4.429.3.034.6H65.275v-.6Zm17.214-.3a12.742,12.742,0,0,1,4.413.755,10.967,10.967,0,0,1,3.624,2.164,10,10,0,0,1,2.433,3.339A10.265,10.265,0,0,1,96.18-4.19,10.265,10.265,0,0,1,95.307.088a10,10,0,0,1-2.433,3.339,10.967,10.967,0,0,1-3.624,2.164,12.743,12.743,0,0,1-4.413.755,12.6,12.6,0,0,1-4.4-.755,11,11,0,0,1-3.607-2.164A10,10,0,0,1,74.4.088,10.265,10.265,0,0,1,73.53-4.19,10.265,10.265,0,0,1,74.4-8.468a10,10,0,0,1,2.433-3.339,11,11,0,0,1,3.607-2.164A12.6,12.6,0,0,1,84.838-14.726Zm0,20.066a8.571,8.571,0,0,0,4.5-1.208A8.688,8.688,0,0,0,92.522.776,10.185,10.185,0,0,0,93.7-4.19a10.16,10.16,0,0,0-1.174-4.983,8.72,8.72,0,0,0-3.188-3.339,8.571,8.571,0,0,0-4.5-1.208,8.509,8.509,0,0,0-4.463,1.208,8.72,8.72,0,0,0-3.188,3.339A10.16,10.16,0,0,0,76.013-4.19,10.185,10.185,0,0,0,77.187.776a8.688,8.688,0,0,0,3.188,3.356A8.509,8.509,0,0,0,84.838,5.34Zm26.978-20.066a12.743,12.743,0,0,1,4.413.755,10.967,10.967,0,0,1,3.624,2.164,10,10,0,0,1,2.433,3.339,10.265,10.265,0,0,1,.872,4.278,10.265,10.265,0,0,1-.872,4.278,10,10,0,0,1-2.433,3.339,10.967,10.967,0,0,1-3.624,2.164,12.743,12.743,0,0,1-4.413.755,12.6,12.6,0,0,1-4.4-.755,11.005,11.005,0,0,1-3.607-2.164A10,10,0,0,1,101.381.088a10.266,10.266,0,0,1-.872-4.278,10.266,10.266,0,0,1,.872-4.278,10,10,0,0,1,2.433-3.339,11.005,11.005,0,0,1,3.607-2.164A12.6,12.6,0,0,1,111.816-14.726Zm0,20.066a8.571,8.571,0,0,0,4.5-1.208A8.688,8.688,0,0,0,119.5.776a10.185,10.185,0,0,0,1.174-4.966A10.16,10.16,0,0,0,119.5-9.173a8.72,8.72,0,0,0-3.188-3.339,8.571,8.571,0,0,0-4.5-1.208,8.509,8.509,0,0,0-4.463,1.208,8.72,8.72,0,0,0-3.188,3.339,10.16,10.16,0,0,0-1.174,4.983A10.185,10.185,0,0,0,104.166.776a8.688,8.688,0,0,0,3.188,3.356A8.509,8.509,0,0,0,111.816,5.34Zm17.449-20.1,18.59,17.516.336,3.59L129.6-11.27ZM129.332,3.8v2.08h-2.517V5.541h.57a1.843,1.843,0,0,0,1.309-.5,1.634,1.634,0,0,0,.537-1.242Zm1.409,0a1.612,1.612,0,0,0,.554,1.242,1.86,1.86,0,0,0,1.292.5h.57v.336h-2.517V3.8ZM129.265-14.76l1.443,1.879.034,18.757h-1.51V-10.566a24.878,24.878,0,0,0-.151-2.953l-.151-1.242Zm18.925.5V2.051q0,1.074.067,2.064t.151,1.611l.084.621h-.3l-1.476-1.778V-14.257Zm-.1,2.08v-2.08h2.517v.336h-.57a1.86,1.86,0,0,0-1.292.5,1.612,1.612,0,0,0-.554,1.242Zm-1.376,0a1.75,1.75,0,0,0-.57-1.242,1.843,1.843,0,0,0-1.309-.5h-.57v-.336h2.517v2.08Zm25.2,18.187A1.49,1.49,0,0,1,170.4,4.5a1.51,1.51,0,1,1,3.02,0,1.49,1.49,0,0,1-1.51,1.51Zm6.375,0a1.49,1.49,0,0,1-1.51-1.51,1.51,1.51,0,1,1,3.02,0,1.49,1.49,0,0,1-1.51,1.51Zm-13.087,0a1.49,1.49,0,0,1-1.51-1.51,1.51,1.51,0,1,1,3.02,0,1.49,1.49,0,0,1-1.51,1.51Z"
      transform="translate(3608.092 1410.207)" fill="#485757" />
  </g>
</svg>