<svg xmlns="http://www.w3.org/2000/svg" xmlns:xlink="http://www.w3.org/1999/xlink" width="261.346"
  height="158.311" viewBox="0 0 261.346 158.311">
  <defs>
    <linearGradient id="linear-gradient" x1="0.5" x2="0.5" y2="1" gradientUnits="objectBoundingBox">
      <stop offset="0" stop-color="#876d0e" />
      <stop offset="0.315" stop-color="#78610c" />
      <stop offset="0.724" stop-color="#d1b757" />
      <stop offset="1" stop-color="#443707" />
    </linearGradient>
    <clipPath id="clip-path">
      <path id="パス_826" data-name="パス 826"
        d="M21.909,12.777a23.621,23.621,0,0,0-2.96,2.182,25.425,25.425,0,0,0-4.983,5.855,29.294,29.294,0,0,0-3.234,7.494,39.405,39.405,0,0,0-.794,16.829,32.461,32.461,0,0,0,1.035,4.095,29.349,29.349,0,0,0,1.573,3.833A28.556,28.556,0,0,0,17.014,59.6a22.858,22.858,0,0,0,5.768,4.668l.041-.1q-.465-.338-.917-.7a25.234,25.234,0,0,1-1.89-1.682A32.347,32.347,0,0,1,17.479,59a31.68,31.68,0,0,1-4.107-6.536,33.517,33.517,0,0,1-2.508-7.6,35.221,35.221,0,0,1-.67-8.182,36.964,36.964,0,0,1,1.132-8.145,28.786,28.786,0,0,1,3.028-7.385,25.439,25.439,0,0,1,4.764-5.917c.452-.415.916-.807,1.392-1.181.021-.016.042-.031.06-.046.121-.092.24-.184.362-.271.35-.263.7-.519,1.065-.76a17.843,17.843,0,0,1,3.131-1.693l-.027-.113a17.668,17.668,0,0,0-3.193,1.6"
        transform="translate(-9.376 -11.179)" fill="url(#linear-gradient)" />
    </clipPath>
    <clipPath id="clip-path-2">
      <path id="パス_827" data-name="パス 827"
        d="M39.333,5.756l-.006,0-.052.037.058-.042m0,0h0m1.544-1.629c-.006.022-.017.044-.024.065-.24.433-1.243.426-1.243.426a3.66,3.66,0,0,0-1.119.093,3.2,3.2,0,0,0-.34.1c-2.192.784-2.965,3.629-2.965,3.629a5.567,5.567,0,0,0,2.928-.325,4.745,4.745,0,0,0,2.474-2.545,2.618,2.618,0,0,0,.331-1.488c-.011,0-.025.013-.041.042"
        transform="translate(-35.189 -4.083)" fill="url(#linear-gradient)" />
    </clipPath>
    <clipPath id="clip-path-3">
      <path id="パス_828" data-name="パス 828"
        d="M31.957,2.385c0,.021-.007.04-.011.06-.02.107-.045.22-.068.331.028-.133.055-.264.08-.391M32.093.068c.008.019.012.044.02.065.076.49-.6,1.306-.6,1.306a4.931,4.931,0,0,0-.7.978c-.064.116-.121.232-.174.349a6.867,6.867,0,0,0,0,4.879,7.663,7.663,0,0,0,1.8-2.617,6.089,6.089,0,0,0,.269-3.746A2.569,2.569,0,0,0,32.11,0c-.017,0-.024.022-.017.068"
        transform="translate(-30.164)" fill="url(#linear-gradient)" />
    </clipPath>
    <clipPath id="clip-path-4">
      <path id="パス_829" data-name="パス 829"
        d="M26.3,6.312l0,.017c-.006.035-.016.073-.022.109.008-.042.017-.085.026-.126m.145-2.36c.008.019.012.044.019.065.075.489-.605,1.306-.605,1.306a5,5,0,0,0-.7.979c-.063.115-.12.232-.174.348a6.868,6.868,0,0,0,0,4.88,7.675,7.675,0,0,0,1.8-2.619,6.08,6.08,0,0,0,.268-3.745,2.559,2.559,0,0,0-.583-1.282c-.017,0-.023.022-.016.068"
        transform="translate(-24.513 -3.884)" fill="url(#linear-gradient)" />
    </clipPath>
    <clipPath id="clip-path-5">
      <path id="パス_830" data-name="パス 830"
        d="M20.627,11.663c0,.012,0,.023-.006.035-.01.05-.022.1-.033.156.014-.064.027-.129.039-.191m.141-2.342c.009.02.013.045.021.068.071.49-.605,1.3-.605,1.3a5.019,5.019,0,0,0-.7.979c-.064.116-.122.232-.174.348a6.863,6.863,0,0,0,0,4.879,7.643,7.643,0,0,0,1.8-2.617,6.079,6.079,0,0,0,.268-3.746,2.555,2.555,0,0,0-.583-1.281c-.017,0-.024.022-.017.068"
        transform="translate(-18.838 -9.253)" fill="url(#linear-gradient)" />
    </clipPath>
    <clipPath id="clip-path-6">
      <path id="パス_831" data-name="パス 831"
        d="M14.451,17.707v.009c.06.586.1,1.228.13,1.858-.034-.643-.075-1.285-.131-1.867m-.532-2.284c.013.016.025.037.038.055.207.429-.2,1.479-.2,1.479a5.978,5.978,0,0,0-.384,1.215q-.04.2-.065.4a6.389,6.389,0,0,0,1.377,4.582,8.95,8.95,0,0,0,.949-3.214,5.878,5.878,0,0,0-.808-3.628,2.326,2.326,0,0,0-.9-.96c-.027,0-.033.024-.009.073"
        transform="translate(-13.267 -15.35)" fill="url(#linear-gradient)" />
    </clipPath>
    <clipPath id="clip-path-7">
      <path id="パス_832" data-name="パス 832"
        d="M10.558,25.552c0,.012,0,.023,0,.035.062.6.1,1.261.134,1.908-.036-.669-.08-1.339-.139-1.943m-.53-2.259c.014.015.025.037.038.055.206.429-.2,1.478-.2,1.478a5.884,5.884,0,0,0-.385,1.215c-.027.134-.049.268-.064.4A6.381,6.381,0,0,0,10.8,31.022a8.961,8.961,0,0,0,.946-3.213,5.875,5.875,0,0,0-.806-3.629c-.392-.631-.8-.96-.9-.96-.027,0-.032.024-.009.073"
        transform="translate(-9.376 -23.22)" fill="url(#linear-gradient)" />
    </clipPath>
    <clipPath id="clip-path-8">
      <path id="パス_833" data-name="パス 833"
        d="M4.4,35.874l.017.021c.026.032.054.067.08.1l-.1-.123M2.836,34.49a.444.444,0,0,1,.055.014c.381.18.592,1.315.592,1.315a6.033,6.033,0,0,0,.31,1.246c.047.126.1.248.151.364A4.572,4.572,0,0,0,7.343,40a9,9,0,0,0-.877-3.242A4.307,4.307,0,0,0,4,34.508a2.826,2.826,0,0,0-.845-.146c-.294,0-.435.071-.317.128"
        transform="translate(-2.794 -34.362)" fill="url(#linear-gradient)" />
    </clipPath>
    <clipPath id="clip-path-9">
      <path id="パス_834" data-name="パス 834"
        d="M2.618,43.985l.023.027c.036.044.073.093.11.139-.044-.056-.089-.113-.133-.166M.864,42.43c.019,0,.041.011.062.016.427.2.665,1.48.665,1.48a6.825,6.825,0,0,0,.351,1.4c.053.143.109.28.168.409a5.151,5.151,0,0,0,3.827,2.9,10.087,10.087,0,0,0-.987-3.65,4.849,4.849,0,0,0-2.779-2.536,3.2,3.2,0,0,0-.949-.163c-.332,0-.491.08-.358.144"
        transform="translate(-0.817 -42.286)" fill="url(#linear-gradient)" />
    </clipPath>
    <clipPath id="clip-path-10">
      <path id="パス_835" data-name="パス 835"
        d="M2.188,54.026l.014.017.017.021-.031-.038M.244,52.3c.022,0,.045.012.068.017.474.223.735,1.632.735,1.632A7.475,7.475,0,0,0,1.433,55.5c.057.157.121.308.187.451a5.673,5.673,0,0,0,4.218,3.195A11.13,11.13,0,0,0,4.75,55.116a5.34,5.34,0,0,0-3.064-2.8A3.51,3.51,0,0,0,.638,52.14c-.365,0-.541.088-.395.159"
        transform="translate(-0.192 -52.14)" fill="url(#linear-gradient)" />
    </clipPath>
    <clipPath id="clip-path-11">
      <path id="パス_836" data-name="パス 836"
        d="M2.334,65.372l.037.022c.06.037.123.08.186.121-.075-.049-.149-.1-.222-.143m-.895-1.42A2.134,2.134,0,0,0,0,64.438v.006c0,.019.022.032.063.034a.637.637,0,0,1,.07-.009c.507.033,1.114,1.273,1.114,1.273a6.658,6.658,0,0,0,.761,1.324c.1.126.193.246.293.357a5.014,5.014,0,0,0,4.824,1.437,9.724,9.724,0,0,0-2.061-3.413,4.634,4.634,0,0,0-3.337-1.505c-.1,0-.2,0-.288.01"
        transform="translate(0 -63.942)" fill="url(#linear-gradient)" />
    </clipPath>
    <clipPath id="clip-path-12">
      <path id="パス_837" data-name="パス 837"
        d="M7.213,76.267c.125.3.214.516.227.547-.014-.032-.1-.251-.227-.547M3.159,74.89l.049.017c.682.253,1.414.573,2.125.9-.742-.336-1.489-.66-2.173-.919m-1.248-1.4c-1.154.329-1.8.974-1.485.933A.67.67,0,0,1,.5,74.391c.585-.082,1.478,1.186,1.478,1.186A6.909,6.909,0,0,0,3.065,76.9c.129.121.26.235.392.338A5.678,5.678,0,0,0,9.2,77.72a10.28,10.28,0,0,0-2.906-3.4A5.259,5.259,0,0,0,3.24,73.3a4.873,4.873,0,0,0-1.329.186"
        transform="translate(-0.347 -73.3)" fill="url(#linear-gradient)" />
    </clipPath>
    <clipPath id="clip-path-13">
      <path id="パス_838" data-name="パス 838"
        d="M5.623,87.058c.85-.2,1.788-.365,2.7-.5-.951.152-1.905.323-2.759.519l.055-.014m-1.981-.6C2.6,87.566,2.22,88.664,2.524,88.412a1.085,1.085,0,0,1,.07-.083c.569-.472,2.06.242,2.06.242a6.208,6.208,0,0,0,1.718.648,5.152,5.152,0,0,0,.557.088c3.652.369,6.156-3.344,6.156-3.344a9.321,9.321,0,0,0-4.536-1.576c-.092,0-.182-.006-.272-.006a6.315,6.315,0,0,0-4.635,2.072"
        transform="translate(-2.422 -84.381)" fill="url(#linear-gradient)" />
    </clipPath>
    <clipPath id="clip-path-14">
      <path id="パス_839" data-name="パス 839"
        d="M11.664,95.291c1-.236,2.1-.43,3.169-.593-1.1.176-2.2.374-3.192.6l.023-.006m-2.325-.71c-1.228,1.307-1.668,2.595-1.312,2.3.022-.035.057-.065.083-.1.666-.555,2.418.283,2.418.283a7.324,7.324,0,0,0,2.016.761,6.042,6.042,0,0,0,.654.1c4.285.433,7.222-3.924,7.222-3.924A10.923,10.923,0,0,0,15.1,92.158c-.107,0-.213-.007-.318-.007a7.415,7.415,0,0,0-5.44,2.431"
        transform="translate(-7.907 -92.151)" fill="url(#linear-gradient)" />
    </clipPath>
    <clipPath id="clip-path-15">
      <path id="パス_840" data-name="パス 840"
        d="M35.865,15.178c-.034-.016-.07-.036-.1-.054l.121.062-.016-.008m-4.024-2.354A7.488,7.488,0,0,0,33.7,15.378a3.576,3.576,0,0,0,3,.874c.815-.149,1.29-.553,1.073-.545a.553.553,0,0,1-.055.014c-.409.018-.971-.921-.971-.921a4.993,4.993,0,0,0-.69-.994c-.084-.093-.17-.18-.257-.26a3.608,3.608,0,0,0-2.513-.964,4.292,4.292,0,0,0-1.444.243"
        transform="translate(-31.841 -12.581)" fill="url(#linear-gradient)" />
    </clipPath>
    <clipPath id="clip-path-16">
      <path id="パス_841" data-name="パス 841"
        d="M29.9,19.721l-.048-.024.055.027-.007,0m-4.026-2.354a7.509,7.509,0,0,0,1.859,2.553,3.583,3.583,0,0,0,3,.874c.816-.15,1.291-.553,1.073-.546a.554.554,0,0,1-.055.014c-.409.018-.969-.921-.969-.921a5,5,0,0,0-.692-.993c-.083-.094-.169-.181-.255-.261a3.612,3.612,0,0,0-2.513-.964,4.29,4.29,0,0,0-1.445.244"
        transform="translate(-25.874 -17.123)" fill="url(#linear-gradient)" />
    </clipPath>
    <clipPath id="clip-path-17">
      <path id="パス_842" data-name="パス 842"
        d="M25.322,24.816c-.036-.017-.073-.037-.111-.057l.131.066-.02-.009M21.3,22.461a7.462,7.462,0,0,0,1.859,2.553,3.573,3.573,0,0,0,3,.874c.816-.15,1.29-.553,1.072-.545a.469.469,0,0,1-.055.014c-.41.018-.971-.921-.971-.921a4.96,4.96,0,0,0-.69-.993,3.524,3.524,0,0,0-.258-.261,3.61,3.61,0,0,0-2.513-.964,4.286,4.286,0,0,0-1.443.243"
        transform="translate(-21.299 -22.218)" fill="url(#linear-gradient)" />
    </clipPath>
    <clipPath id="clip-path-18">
      <path id="パス_843" data-name="パス 843"
        d="M20.624,29.275l-.036,0c-.05,0-.1,0-.154,0,.065,0,.129,0,.191-.006m-3.171-.07h0c.011.013.171.205.376.44-.2-.235-.366-.428-.376-.44m-1.327-.1a5.938,5.938,0,0,0,2.546,1.423,3.555,3.555,0,0,0,3.033-.674c.7-.539,1-1.141.8-1.027-.013.015-.032.026-.046.04-.369.217-1.192-.367-1.192-.367a3.955,3.955,0,0,0-.961-.57,3.381,3.381,0,0,0-.32-.112,3.066,3.066,0,0,0-.86-.123,4.6,4.6,0,0,0-3,1.41"
        transform="translate(-16.126 -27.69)" fill="url(#linear-gradient)" />
    </clipPath>
    <clipPath id="clip-path-19">
      <path id="パス_844" data-name="パス 844"
        d="M17.848,34.766l-.024.008c-.035.011-.072.019-.108.029.044-.012.09-.024.133-.037m-4.426.914a5.452,5.452,0,0,0,2.727.778,3.82,3.82,0,0,0,2.863-1.393c.6-.7.793-1.36.619-1.2-.01.017-.027.033-.039.05-.326.3-1.228-.07-1.228-.07a3.632,3.632,0,0,0-1.035-.327A3.266,3.266,0,0,0,17,33.485c-.044,0-.088,0-.131,0-2.1,0-3.444,2.2-3.444,2.2"
        transform="translate(-13.422 -33.483)" fill="url(#linear-gradient)" />
    </clipPath>
    <clipPath id="clip-path-20">
      <path id="パス_845" data-name="パス 845"
        d="M14.19,44.273l.021.011-.021-.011M12.841,43.3h0c.024.019.685.544,1.118.829-.433-.285-1.1-.811-1.118-.829m3.1-.694-.021.006c-.033.01-.069.018-.1.027l.125-.034m-4.421.911a5.456,5.456,0,0,0,2.726.779l-.007,0,.007,0a3.818,3.818,0,0,0,2.863-1.394c.6-.7.792-1.36.618-1.2-.011.018-.027.034-.04.052-.326.3-1.227-.072-1.227-.072a3.634,3.634,0,0,0-1.034-.326,3.284,3.284,0,0,0-.332-.032c-.044,0-.087,0-.13,0-2.1,0-3.445,2.2-3.445,2.2"
        transform="translate(-11.525 -41.325)" fill="url(#linear-gradient)" />
    </clipPath>
    <clipPath id="clip-path-21">
      <path id="パス_846" data-name="パス 846"
        d="M15.724,48.62c-.128.094-.259.189-.4.286-.1.07-.21.14-.317.21.254-.167.494-.333.715-.5m1.251-1.314c-.006.022-.019.044-.027.066-.262.432-1.291.374-1.291.374a3.724,3.724,0,0,0-1.151.037,3.547,3.547,0,0,0-.354.087c-2.276.694-3.167,3.573-3.167,3.573A5.694,5.694,0,0,0,14,51.26a11.342,11.342,0,0,1-1.705-.52A11.411,11.411,0,0,0,14,51.26a4.769,4.769,0,0,0,2.626-2.486,2.662,2.662,0,0,0,.392-1.509c-.012,0-.026.013-.044.041"
        transform="translate(-10.985 -47.265)" fill="url(#linear-gradient)" />
    </clipPath>
    <clipPath id="clip-path-22">
      <path id="パス_847" data-name="パス 847"
        d="M14.526,58.353h0m-1.6-.142h0c.032,0,1.049.143,1.56.143-.512,0-1.53-.138-1.561-.143m2.757-2.544-.027.028c-.034.036-.072.072-.109.108.046-.045.092-.092.136-.136m1.368-1.94c0,.024-.012.049-.017.073-.2.489-1.225.666-1.225.666a3.888,3.888,0,0,0-1.139.3c-.117.05-.23.107-.338.167-2.157,1.21-2.6,4.278-2.6,4.278a6,6,0,0,0,2.972-.872,5.362,5.362,0,0,0,2.229-3.072,2.858,2.858,0,0,0,.16-1.591c-.012,0-.026.016-.04.051"
        transform="translate(-11.726 -53.676)" fill="url(#linear-gradient)" />
    </clipPath>
    <clipPath id="clip-path-23">
      <path id="パス_848" data-name="パス 848"
        d="M17.02,62.559l-.015.045c-.233.672-.517,1.388-.8,2.085.3-.726.582-1.456.819-2.131m.58-2.825c.007.026.007.058.012.086,0,.619-.969,1.439-.969,1.439a5.658,5.658,0,0,0-1.031,1.015c-.1.125-.19.252-.273.38a8.476,8.476,0,0,0-.855,5.969,8.621,8.621,0,0,0,2.657-2.737,7.366,7.366,0,0,0,.981-4.512,3.3,3.3,0,0,0-.494-1.72c-.018,0-.028.026-.028.079"
        transform="translate(-14.279 -59.655)" fill="url(#linear-gradient)" />
    </clipPath>
    <clipPath id="clip-path-24">
      <path id="パス_849" data-name="パス 849"
        d="M21.087,70.534c-.126.763-.3,1.581-.475,2.384.177-.815.346-1.632.475-2.384m0-.014v0m.121-3.18c.012.027.019.062.029.09.111.653-.768,1.773-.768,1.773a6.736,6.736,0,0,0-.913,1.342c-.082.158-.154.316-.222.474a9.183,9.183,0,0,0,.149,6.532,10.4,10.4,0,0,0,2.325-3.589,8.172,8.172,0,0,0,.241-5.026,3.4,3.4,0,0,0-.821-1.688c-.023,0-.032.03-.021.092"
        transform="translate(-18.783 -67.249)" fill="url(#linear-gradient)" />
    </clipPath>
    <clipPath id="clip-path-25">
      <path id="パス_850" data-name="パス 850"
        d="M27.511,77.378c-.039.382-.082.762-.129,1.152q.069-.585.129-1.152m.1-1.081v.027l0-.027m-.186-3.8c.017.029.028.067.043.1.2.757-.73,2.232-.73,2.232a8.514,8.514,0,0,0-.946,1.739c-.081.2-.151.4-.214.6a10.835,10.835,0,0,0,.857,7.748,13.2,13.2,0,0,0,2.393-4.63,9.772,9.772,0,0,0-.236-6.017,3.958,3.958,0,0,0-1.147-1.883c-.031,0-.04.037-.021.113"
        transform="translate(-25.183 -72.379)" fill="url(#linear-gradient)" />
    </clipPath>
    <clipPath id="clip-path-26">
      <path id="パス_851" data-name="パス 851"
        d="M21.47,101.985c.938-.488,1.983-.961,3.008-1.4-1.055.459-2.111.939-3.049,1.42l.04-.022m2.815-3.945a8.2,8.2,0,0,0-5.211,3.849c-.974,1.593-1.182,2.964-.885,2.584.016-.039.043-.076.062-.114.555-.717,2.414-.348,2.414-.348a6.844,6.844,0,0,0,2.1.227,5.919,5.919,0,0,0,.657-.068c4.264-.676,6.383-5.689,6.383-5.689a11.85,11.85,0,0,0-3.678-.636,8.558,8.558,0,0,0-1.844.195"
        transform="translate(-18.064 -97.845)" fill="url(#linear-gradient)" />
    </clipPath>
    <clipPath id="clip-path-27">
      <path id="パス_852" data-name="パス 852"
        d="M33.977,80.123c0,.029.006.056.009.086.1,1,.161,2.093.205,3.16-.053-1.117-.12-2.239-.214-3.246m-.831-3.594c.022.024.04.06.061.088.327.689-.331,2.367-.331,2.367a9.369,9.369,0,0,0-.625,1.943c-.044.216-.079.428-.106.639a10.247,10.247,0,0,0,2.177,7.354,14.31,14.31,0,0,0,1.539-5.14,9.44,9.44,0,0,0-1.269-5.821,3.727,3.727,0,0,0-1.433-1.547c-.043,0-.051.039-.014.117"
        transform="translate(-32.075 -76.412)" fill="url(#linear-gradient)" />
    </clipPath>
    <clipPath id="clip-path-28">
      <path id="パス_826-2" data-name="パス 826"
        d="M12.6,12.777a23.621,23.621,0,0,1,2.96,2.182,25.425,25.425,0,0,1,4.983,5.855,29.294,29.294,0,0,1,3.234,7.494,37.941,37.941,0,0,1,1.3,8.333,37.584,37.584,0,0,1-.511,8.5,32.461,32.461,0,0,1-1.035,4.095,29.349,29.349,0,0,1-1.573,3.833A28.556,28.556,0,0,1,17.49,59.6a22.858,22.858,0,0,1-5.768,4.668l-.041-.1q.465-.338.917-.7a25.234,25.234,0,0,0,1.89-1.682A32.347,32.347,0,0,0,17.026,59a31.68,31.68,0,0,0,4.107-6.536A32.508,32.508,0,0,0,22.6,48.777a32.4,32.4,0,0,0,1.037-3.9,35.22,35.22,0,0,0,.67-8.182,36.963,36.963,0,0,0-1.132-8.145,28.786,28.786,0,0,0-3.028-7.385,25.439,25.439,0,0,0-4.764-5.917c-.452-.415-.916-.807-1.392-1.181-.021-.016-.042-.031-.06-.046-.121-.092-.24-.184-.362-.271-.35-.263-.7-.519-1.065-.76a17.843,17.843,0,0,0-3.131-1.693l.027-.113a17.668,17.668,0,0,1,3.193,1.6"
        transform="translate(-9.376 -11.179)" fill="url(#linear-gradient)" />
    </clipPath>
    <clipPath id="clip-path-29">
      <path id="パス_827-2" data-name="パス 827"
        d="M36.809,5.756l.006,0,.052.037-.058-.042m0,0h0M35.262,4.125c.006.022.017.044.024.065.24.433,1.243.426,1.243.426a3.66,3.66,0,0,1,1.119.093,3.2,3.2,0,0,1,.34.1c2.192.784,2.965,3.629,2.965,3.629a5.567,5.567,0,0,1-2.928-.325,4.745,4.745,0,0,1-2.474-2.545,2.618,2.618,0,0,1-.331-1.488c.011,0,.025.013.041.042"
        transform="translate(-35.189 -4.083)" fill="url(#linear-gradient)" />
    </clipPath>
    <clipPath id="clip-path-30">
      <path id="パス_828-2" data-name="パス 828"
        d="M31.078,2.385c0,.021.007.04.011.06.02.107.045.22.068.331-.028-.133-.055-.264-.08-.391M30.942.068c-.008.019-.012.044-.02.065-.076.49.6,1.306.6,1.306a4.931,4.931,0,0,1,.7.978c.064.116.121.232.174.349a6.867,6.867,0,0,1,0,4.879,7.663,7.663,0,0,1-1.8-2.617,6.089,6.089,0,0,1-.269-3.746A2.569,2.569,0,0,1,30.925,0c.017,0,.024.022.017.068"
        transform="translate(-30.164)" fill="url(#linear-gradient)" />
    </clipPath>
    <clipPath id="clip-path-31">
      <path id="パス_829-2" data-name="パス 829"
        d="M25.435,6.312l0,.017c.006.035.016.073.022.109-.008-.042-.017-.085-.026-.126m-.145-2.36c-.008.019-.012.044-.019.065-.075.489.605,1.306.605,1.306a5,5,0,0,1,.7.979c.063.115.12.232.174.348a6.868,6.868,0,0,1,0,4.88,7.675,7.675,0,0,1-1.8-2.619,6.08,6.08,0,0,1-.268-3.745,2.559,2.559,0,0,1,.583-1.282c.017,0,.023.022.016.068"
        transform="translate(-24.513 -3.884)" fill="url(#linear-gradient)" />
    </clipPath>
    <clipPath id="clip-path-32">
      <path id="パス_830-2" data-name="パス 830"
        d="M19.757,11.663c0,.012,0,.023.006.035.01.05.022.1.033.156-.014-.064-.027-.129-.039-.191m-.141-2.342c-.009.02-.013.045-.021.068-.071.49.605,1.3.605,1.3a5.019,5.019,0,0,1,.7.979c.064.116.122.232.174.348a6.863,6.863,0,0,1,0,4.879,7.643,7.643,0,0,1-1.8-2.617,6.079,6.079,0,0,1-.268-3.746A2.555,2.555,0,0,1,19.6,9.253c.017,0,.024.022.017.068"
        transform="translate(-18.838 -9.253)" fill="url(#linear-gradient)" />
    </clipPath>
    <clipPath id="clip-path-33">
      <path id="パス_831-2" data-name="パス 831"
        d="M14.473,17.707v.009c-.06.586-.1,1.228-.13,1.858.034-.643.075-1.285.131-1.867m.532-2.284c-.013.016-.025.037-.038.055-.207.429.2,1.479.2,1.479a5.978,5.978,0,0,1,.384,1.215q.04.2.065.4a6.389,6.389,0,0,1-1.377,4.582,8.949,8.949,0,0,1-.949-3.214A5.878,5.878,0,0,1,14.1,16.31a2.326,2.326,0,0,1,.9-.96c.027,0,.033.024.009.073"
        transform="translate(-13.267 -15.35)" fill="url(#linear-gradient)" />
    </clipPath>
    <clipPath id="clip-path-34">
      <path id="パス_832-2" data-name="パス 832"
        d="M10.584,25.552c0,.012,0,.023,0,.035-.062.6-.1,1.261-.134,1.908.036-.669.08-1.339.139-1.943m.53-2.259c-.014.015-.025.037-.038.055-.206.429.2,1.478.2,1.478a5.884,5.884,0,0,1,.385,1.215c.027.134.049.268.064.4a6.381,6.381,0,0,1-1.378,4.582A8.961,8.961,0,0,1,9.4,27.809a5.875,5.875,0,0,1,.806-3.629c.392-.631.8-.96.9-.96.027,0,.032.024.009.073"
        transform="translate(-9.376 -23.22)" fill="url(#linear-gradient)" />
    </clipPath>
    <clipPath id="clip-path-35">
      <path id="パス_833-2" data-name="パス 833"
        d="M5.741,35.874l-.017.021c-.026.032-.054.067-.08.1l.1-.123M7.3,34.49a.444.444,0,0,0-.055.014c-.381.18-.592,1.315-.592,1.315a6.033,6.033,0,0,1-.31,1.246c-.047.126-.1.248-.151.364A4.572,4.572,0,0,1,2.794,40a9,9,0,0,1,.877-3.242A4.307,4.307,0,0,1,6.14,34.508a2.826,2.826,0,0,1,.845-.146c.294,0,.435.071.317.128"
        transform="translate(-2.794 -34.362)" fill="url(#linear-gradient)" />
    </clipPath>
    <clipPath id="clip-path-36">
      <path id="パス_834-2" data-name="パス 834"
        d="M4.136,43.985l-.023.027c-.036.044-.073.093-.11.139.044-.056.089-.113.133-.166M5.89,42.43c-.019,0-.041.011-.062.016-.427.2-.665,1.48-.665,1.48a6.825,6.825,0,0,1-.351,1.4c-.053.143-.109.28-.168.409a5.151,5.151,0,0,1-3.827,2.9,10.087,10.087,0,0,1,.987-3.65,4.849,4.849,0,0,1,2.779-2.536,3.2,3.2,0,0,1,.949-.163c.332,0,.491.08.358.144"
        transform="translate(-0.817 -42.286)" fill="url(#linear-gradient)" />
    </clipPath>
    <clipPath id="clip-path-37">
      <path id="パス_835-2" data-name="パス 835"
        d="M3.843,54.026l-.014.017-.017.021.031-.038M5.787,52.3c-.022,0-.045.012-.068.017-.474.223-.735,1.632-.735,1.632A7.475,7.475,0,0,1,4.6,55.5c-.057.157-.121.308-.187.451A5.673,5.673,0,0,1,.192,59.14a11.13,11.13,0,0,1,1.088-4.024,5.34,5.34,0,0,1,3.064-2.8,3.51,3.51,0,0,1,1.047-.181c.365,0,.541.088.395.159"
        transform="translate(-0.192 -52.14)" fill="url(#linear-gradient)" />
    </clipPath>
    <clipPath id="clip-path-38">
      <path id="パス_836-2" data-name="パス 836"
        d="M4.791,65.372l-.037.022c-.06.037-.123.08-.186.121.075-.049.149-.1.222-.143m.895-1.42a2.134,2.134,0,0,1,1.439.486v.006c0,.019-.022.032-.063.034a.637.637,0,0,0-.07-.009c-.507.033-1.114,1.273-1.114,1.273a6.658,6.658,0,0,1-.761,1.324c-.1.126-.193.246-.293.357A5.014,5.014,0,0,1,0,68.861a9.724,9.724,0,0,1,2.061-3.413A4.634,4.634,0,0,1,5.4,63.942c.1,0,.2,0,.288.01"
        transform="translate(0 -63.942)" fill="url(#linear-gradient)" />
    </clipPath>
    <clipPath id="clip-path-39">
      <path id="パス_837-2" data-name="パス 837"
        d="M2.332,76.267c-.125.3-.214.516-.227.547.014-.032.1-.251.227-.547M6.387,74.89l-.049.017c-.682.253-1.414.573-2.125.9.742-.336,1.489-.66,2.173-.919m1.248-1.4c1.154.329,1.8.974,1.485.933a.67.67,0,0,0-.078-.027c-.585-.082-1.478,1.186-1.478,1.186A6.909,6.909,0,0,1,6.481,76.9c-.129.121-.26.235-.392.338a5.678,5.678,0,0,1-5.742.478,10.28,10.28,0,0,1,2.906-3.4A5.259,5.259,0,0,1,6.306,73.3a4.873,4.873,0,0,1,1.329.186"
        transform="translate(-0.347 -73.3)" fill="url(#linear-gradient)" />
    </clipPath>
    <clipPath id="clip-path-40">
      <path id="パス_838-2" data-name="パス 838"
        d="M9.883,87.058c-.85-.2-1.788-.365-2.7-.5.951.152,1.905.323,2.759.519l-.055-.014m1.981-.6c1.047,1.113,1.423,2.211,1.118,1.959a1.085,1.085,0,0,0-.07-.083c-.569-.472-2.06.242-2.06.242a6.208,6.208,0,0,1-1.718.648,5.152,5.152,0,0,1-.557.088c-3.652.369-6.156-3.344-6.156-3.344a9.321,9.321,0,0,1,4.536-1.576c.092,0,.182-.006.272-.006a6.315,6.315,0,0,1,4.635,2.072"
        transform="translate(-2.422 -84.381)" fill="url(#linear-gradient)" />
    </clipPath>
    <clipPath id="clip-path-41">
      <path id="パス_839-2" data-name="パス 839"
        d="M16.662,95.291c-1-.236-2.1-.43-3.169-.593,1.1.176,2.2.374,3.192.6l-.023-.006m2.325-.71c1.228,1.307,1.668,2.595,1.312,2.3-.022-.035-.057-.065-.083-.1-.666-.555-2.418.283-2.418.283a7.324,7.324,0,0,1-2.016.761,6.042,6.042,0,0,1-.654.1c-4.285.433-7.222-3.924-7.222-3.924a10.923,10.923,0,0,1,5.323-1.848c.107,0,.213-.007.318-.007a7.415,7.415,0,0,1,5.44,2.431"
        transform="translate(-7.907 -92.151)" fill="url(#linear-gradient)" />
    </clipPath>
    <clipPath id="clip-path-42">
      <path id="パス_840-2" data-name="パス 840"
        d="M33.8,15.178c.034-.016.07-.036.1-.054l-.121.062.016-.008m4.024-2.354a7.488,7.488,0,0,1-1.859,2.554,3.576,3.576,0,0,1-3,.874c-.815-.149-1.29-.553-1.073-.545a.553.553,0,0,0,.055.014c.409.018.971-.921.971-.921a4.993,4.993,0,0,1,.69-.994c.084-.093.17-.18.257-.26a3.608,3.608,0,0,1,2.513-.964,4.292,4.292,0,0,1,1.444.243"
        transform="translate(-31.841 -12.581)" fill="url(#linear-gradient)" />
    </clipPath>
    <clipPath id="clip-path-43">
      <path id="パス_841-2" data-name="パス 841"
        d="M27.832,19.721l.048-.024-.055.027.007,0m4.026-2.354A7.509,7.509,0,0,1,30,19.92a3.583,3.583,0,0,1-3,.874c-.816-.15-1.291-.553-1.073-.546a.554.554,0,0,0,.055.014c.409.018.969-.921.969-.921a5,5,0,0,1,.692-.993c.083-.094.169-.181.255-.261a3.612,3.612,0,0,1,2.513-.964,4.29,4.29,0,0,1,1.445.244"
        transform="translate(-25.874 -17.123)" fill="url(#linear-gradient)" />
    </clipPath>
    <clipPath id="clip-path-44">
      <path id="パス_842-2" data-name="パス 842"
        d="M23.258,24.816c.036-.017.073-.037.111-.057l-.131.066.02-.009m4.023-2.355a7.462,7.462,0,0,1-1.859,2.553,3.573,3.573,0,0,1-3,.874c-.816-.15-1.29-.553-1.072-.545a.469.469,0,0,0,.055.014c.41.018.971-.921.971-.921a4.96,4.96,0,0,1,.69-.993,3.525,3.525,0,0,1,.258-.261,3.61,3.61,0,0,1,2.513-.964,4.286,4.286,0,0,1,1.443.243"
        transform="translate(-21.299 -22.218)" fill="url(#linear-gradient)" />
    </clipPath>
    <clipPath id="clip-path-45">
      <path id="パス_843-2" data-name="パス 843"
        d="M18.068,29.275l.036,0c.05,0,.1,0,.154,0-.065,0-.129,0-.191-.006m3.171-.07h0c-.011.013-.171.205-.376.44.2-.235.366-.428.376-.44m1.327-.1a5.938,5.938,0,0,1-2.546,1.423,3.556,3.556,0,0,1-3.033-.674c-.7-.539-1-1.141-.8-1.027.013.015.032.026.046.04.369.217,1.192-.367,1.192-.367a3.955,3.955,0,0,1,.961-.57,3.381,3.381,0,0,1,.32-.112,3.066,3.066,0,0,1,.86-.123,4.6,4.6,0,0,1,3,1.41"
        transform="translate(-16.126 -27.69)" fill="url(#linear-gradient)" />
    </clipPath>
    <clipPath id="clip-path-46">
      <path id="パス_844-2" data-name="パス 844"
        d="M15.265,34.766l.024.008c.035.011.072.019.108.029-.044-.012-.09-.024-.133-.037m4.426.914a5.452,5.452,0,0,1-2.727.778A3.82,3.82,0,0,1,14.1,35.065c-.6-.7-.793-1.36-.619-1.2.01.017.027.033.039.05.326.3,1.228-.07,1.228-.07a3.632,3.632,0,0,1,1.035-.327,3.266,3.266,0,0,1,.332-.032c.044,0,.088,0,.131,0,2.1,0,3.444,2.2,3.444,2.2"
        transform="translate(-13.422 -33.483)" fill="url(#linear-gradient)" />
    </clipPath>
    <clipPath id="clip-path-47">
      <path id="パス_845-2" data-name="パス 845"
        d="M15.128,44.273l-.021.011.021-.011m1.349-.969h0c-.024.019-.685.544-1.118.829.433-.285,1.1-.811,1.118-.829m-3.1-.694.021.006c.033.01.069.018.1.027l-.125-.034m4.421.911a5.456,5.456,0,0,1-2.726.779l.007,0-.007,0A3.818,3.818,0,0,1,12.2,42.907c-.6-.7-.792-1.36-.618-1.2.011.018.027.034.04.052.326.3,1.227-.072,1.227-.072a3.634,3.634,0,0,1,1.034-.326,3.284,3.284,0,0,1,.332-.032c.044,0,.087,0,.13,0,2.1,0,3.445,2.2,3.445,2.2"
        transform="translate(-11.525 -41.325)" fill="url(#linear-gradient)" />
    </clipPath>
    <clipPath id="clip-path-48">
      <path id="パス_846-2" data-name="パス 846"
        d="M12.308,48.62c.128.094.259.189.4.286.1.07.21.14.317.21-.254-.167-.494-.333-.715-.5m-1.251-1.314c.006.022.019.044.027.066.262.432,1.291.374,1.291.374a3.724,3.724,0,0,1,1.151.037,3.547,3.547,0,0,1,.354.087c2.276.694,3.167,3.573,3.167,3.573a5.694,5.694,0,0,1-3.016-.184,11.342,11.342,0,0,0,1.705-.52,11.411,11.411,0,0,1-1.705.52,4.769,4.769,0,0,1-2.626-2.486,2.662,2.662,0,0,1-.392-1.509c.012,0,.026.013.044.041"
        transform="translate(-10.985 -47.265)" fill="url(#linear-gradient)" />
    </clipPath>
    <clipPath id="clip-path-49">
      <path id="パス_847-2" data-name="パス 847"
        d="M14.34,58.353h0m1.6-.142h0c-.032,0-1.049.143-1.56.143.512,0,1.53-.138,1.561-.143m-2.757-2.544.027.028c.034.036.072.072.109.108-.046-.045-.092-.092-.136-.136m-1.368-1.94c0,.024.012.049.017.073.2.489,1.225.666,1.225.666a3.888,3.888,0,0,1,1.139.3c.117.05.23.107.338.167,2.157,1.21,2.6,4.278,2.6,4.278a6,6,0,0,1-2.972-.872,5.362,5.362,0,0,1-2.229-3.072,2.858,2.858,0,0,1-.16-1.591c.012,0,.026.016.04.051"
        transform="translate(-11.726 -53.676)" fill="url(#linear-gradient)" />
    </clipPath>
    <clipPath id="clip-path-50">
      <path id="パス_848-2" data-name="パス 848"
        d="M15.42,62.559l.015.045c.233.672.517,1.388.8,2.085-.3-.726-.582-1.456-.819-2.131m-.58-2.825c-.007.026-.007.058-.012.086,0,.619.969,1.439.969,1.439a5.658,5.658,0,0,1,1.031,1.015c.1.125.19.252.273.38a8.476,8.476,0,0,1,.855,5.969A8.621,8.621,0,0,1,15.3,65.887a7.366,7.366,0,0,1-.981-4.512,3.3,3.3,0,0,1,.494-1.72c.018,0,.028.026.028.079"
        transform="translate(-14.279 -59.655)" fill="url(#linear-gradient)" />
    </clipPath>
    <clipPath id="clip-path-51">
      <path id="パス_849-2" data-name="パス 849"
        d="M20.034,70.534c.126.763.3,1.581.475,2.384-.177-.815-.346-1.632-.475-2.384m0-.014v0m-.121-3.18c-.012.027-.019.062-.029.09-.111.653.768,1.773.768,1.773a6.736,6.736,0,0,1,.913,1.342c.082.158.154.316.222.474a9.183,9.183,0,0,1-.149,6.532,10.4,10.4,0,0,1-2.325-3.589,8.172,8.172,0,0,1-.241-5.026,3.4,3.4,0,0,1,.821-1.688c.023,0,.032.03.021.092"
        transform="translate(-18.783 -67.249)" fill="url(#linear-gradient)" />
    </clipPath>
    <clipPath id="clip-path-52">
      <path id="パス_850-2" data-name="パス 850"
        d="M26.865,77.378c.039.382.082.762.129,1.152q-.069-.585-.129-1.152m-.1-1.081v.027l0-.027m.186-3.8c-.017.029-.028.067-.043.1-.2.757.73,2.232.73,2.232a8.514,8.514,0,0,1,.946,1.739c.081.2.151.4.214.6a10.835,10.835,0,0,1-.857,7.748,13.2,13.2,0,0,1-2.393-4.63,9.772,9.772,0,0,1,.236-6.017,3.958,3.958,0,0,1,1.147-1.883c.031,0,.04.037.021.113"
        transform="translate(-25.183 -72.379)" fill="url(#linear-gradient)" />
    </clipPath>
    <clipPath id="clip-path-53">
      <path id="パス_851-2" data-name="パス 851"
        d="M26.4,101.985c-.938-.488-1.983-.961-3.008-1.4,1.055.459,2.111.939,3.049,1.42l-.04-.022M23.586,98.04a8.2,8.2,0,0,1,5.211,3.849c.974,1.593,1.182,2.964.885,2.584-.016-.039-.043-.076-.062-.114-.555-.717-2.414-.348-2.414-.348a6.844,6.844,0,0,1-2.1.227,5.919,5.919,0,0,1-.657-.068c-4.264-.676-6.383-5.689-6.383-5.689a11.85,11.85,0,0,1,3.678-.636,8.558,8.558,0,0,1,1.844.195"
        transform="translate(-18.064 -97.845)" fill="url(#linear-gradient)" />
    </clipPath>
    <clipPath id="clip-path-54">
      <path id="パス_852-2" data-name="パス 852"
        d="M34,80.123c0,.029-.006.056-.009.086-.1,1-.161,2.093-.205,3.16.053-1.117.12-2.239.214-3.246m.831-3.594c-.022.024-.04.06-.061.088-.327.689.331,2.367.331,2.367a9.369,9.369,0,0,1,.625,1.943c.044.216.079.428.106.639a10.247,10.247,0,0,1-2.177,7.354,14.31,14.31,0,0,1-1.539-5.14,9.44,9.44,0,0,1,1.269-5.821,3.727,3.727,0,0,1,1.433-1.547c.043,0,.051.039.014.117"
        transform="translate(-32.075 -76.412)" fill="url(#linear-gradient)" />
    </clipPath>
  </defs>
  <g id="グループ_1708" data-name="グループ 1708" transform="translate(-747.327 -2762.195)">
    <g id="グループ_1700" data-name="グループ 1700" transform="translate(21 2)">
      <path id="パス_897" data-name="パス 897"
        d="M-30.32-14.5v-1.08l.34-.22c.1-.06.16-.12.16-.2,0-.16-.38-.38-1.7-.78-.14-.04-.2.02-.2.14a18.661,18.661,0,0,1,.12,2.14h-5.3c-.82-.02-1.62-.06-2.44-.14-.12,0-.18.08-.12.18l.34.7a.149.149,0,0,0,.2.1,22.023,22.023,0,0,1,2.86-.26h13.3a.522.522,0,0,0,.48-.2.182.182,0,0,0,0-.2A5.276,5.276,0,0,0-24-15.76c-.16,0-.36.32-.6.64l-.46.62Zm-3.9,2.12-1.28-.6c-.12-.06-.18,0-.16.12a23.732,23.732,0,0,1,.12,2.44v.86c-.04.66-.04.88-.1,1.3,0,.2.1.4.28.4.5,0,1.04-.3,1.04-.42v-.58h6.82v.72a.147.147,0,0,0,.16.16h.04a1.989,1.989,0,0,0,1.08-.42.233.233,0,0,0,.04-.2c-.04-.52-.04-.88-.08-1.88v-1.06a1.676,1.676,0,0,0,.76-.32.155.155,0,0,0,.04-.2,3.945,3.945,0,0,0-1.44-1.22c-.16,0-.3.24-.48.46l-.32.44Zm-.1.6h6.82v2.34h-6.82Zm-2.82,5.3h12.5V-.4c0,.3-.1.42-.44.42-.32,0-1.62-.1-2.08-.12-.1-.02-.16.04-.16.14s.06.14.16.16a3.2,3.2,0,0,1,1.4.46,1.107,1.107,0,0,1,.38.74c.02.1.08.16.18.14,1.6-.2,1.8-.84,1.8-1.8V-6.24a1.677,1.677,0,0,0,.76-.3c.06-.06.08-.12.04-.18a4.108,4.108,0,0,0-1.54-1.16c-.16,0-.26.2-.42.4l-.28.4H-37l-1.42-.64c-.12-.06-.18,0-.16.12a29.83,29.83,0,0,1,.22,3.88v1.76C-38.4-.42-38.42.1-38.5,1.12a.378.378,0,0,0,.34.4,1.747,1.747,0,0,0,1.12-.46.338.338,0,0,0,.06-.2c-.08-1.42-.12-2.24-.16-4.58Zm3.86,1.56-1.26-.58c-.12-.06-.18,0-.16.12a21.707,21.707,0,0,1,.14,2.6v.92c-.04.7-.04.94-.1,1.4,0,.2.1.4.28.4a1.432,1.432,0,0,0,1.02-.4v-.78h4.86v.7a.147.147,0,0,0,.16.16h.04a1.621,1.621,0,0,0,1.04-.46.2.2,0,0,0,.06-.18c-.06-.58-.06-.96-.1-2.02V-4.16a1.191,1.191,0,0,0,.64-.26c.06-.06.08-.12.04-.18a3.331,3.331,0,0,0-1.32-1.16c-.16,0-.28.22-.44.42l-.28.42Zm-.08.6h4.86v2.5h-4.86Zm15.8-8.56a4.949,4.949,0,0,0-1.26-.56c-.12-.04-.2-.04-.26.02-.06.04-.06.12.02.2a6.015,6.015,0,0,1,1.62,2.42.232.232,0,0,0,.12.16.6.6,0,0,0,.34.1c.34,0,.58-.28.58-.7a1.874,1.874,0,0,0-.76-1.34,29.353,29.353,0,0,0,2.14-3.12l.36-.12c.1-.04.18-.08.18-.14,0-.14-.4-.4-1.76-.92-.12-.06-.18-.02-.2.1A17.732,17.732,0,0,1-17.52-13C-17.54-12.96-17.54-12.92-17.56-12.88Zm7.76-2.64c-.82-.02-1.62-.06-2.44-.14-.12,0-.18.08-.12.18l.36.7c.04.1.12.12.22.06a1.669,1.669,0,0,1,.7-.2h.56c-.02,5.52,0,11.42-2.8,15.88a.143.143,0,0,0,.02.22l.14.12a.142.142,0,0,0,.22-.02c2.66-3.4,3.3-7.74,3.5-12.28A20.388,20.388,0,0,0-6.78-2.44a13.143,13.143,0,0,1-4.24,3.6.15.15,0,0,0-.06.22V1.4a.162.162,0,0,0,.22.08A14.245,14.245,0,0,0-6.24-1.66,12.064,12.064,0,0,0-2.7,1.52c.1.06.16.02.22-.06A1.533,1.533,0,0,1-1.34.68c.1,0,.16-.04.18-.1.02-.08,0-.12-.1-.16a11.9,11.9,0,0,1-4.1-3.1,17.409,17.409,0,0,0,3-6.8c.36-.04.58-.06.7-.2a.171.171,0,0,0,.06-.18,3.323,3.323,0,0,0-1.28-1.18c-.16,0-.3.2-.5.4l-.36.38H-5.58c.4-1.6.8-3.36,1.02-4.42a1.709,1.709,0,0,0,.78-.24c.06-.06.08-.12.04-.18a3.751,3.751,0,0,0-1.4-1.28c-.16,0-.28.22-.44.44l-.28.42Zm3.78,12c-2-2.74-3.02-6.5-3.34-11.3l.02-.1h3.58c-.36,1.68-.9,4.1-1.42,5.98a.153.153,0,0,0,.12.2,1.859,1.859,0,0,0,.54.08,1.076,1.076,0,0,0,.44-.08.229.229,0,0,0,.14-.16l.2-.76h2.08A18.083,18.083,0,0,1-6.02-3.52ZM-16.62-8.1a52.012,52.012,0,0,0,3.66-5.28l.36-.1c.12-.04.2-.08.2-.14,0-.16-.4-.42-1.66-.96-.12-.06-.2-.02-.22.08a20.516,20.516,0,0,1-1.42,3.62c-.48.98-1,1.96-1.48,2.8-.68.04-1.28.06-1.7.06-.12,0-.18.08-.14.18l.44,1.18c.04.08.12.14.2.1a.669.669,0,0,0,.34-.36L-16-7.3v3.24c-.04,2.6-.1,3.48-.22,5.2a.447.447,0,0,0,.4.4,1.547,1.547,0,0,0,1.08-.42.257.257,0,0,0,.08-.2c-.08-1.42-.12-2.24-.16-4.58V-7.54l1.32-.26a8.656,8.656,0,0,1,.26,1.1.257.257,0,0,0,.08.2.7.7,0,0,0,.44.16c.36,0,.62-.34.62-.86,0-.72-.52-1.78-2.02-2.74a.216.216,0,0,0-.22,0,.13.13,0,0,0-.04.2,13.177,13.177,0,0,1,.72,1.5C-14.72-8.18-15.74-8.14-16.62-8.1Zm2.5,2.62a9.732,9.732,0,0,1,.86,3.2.257.257,0,0,0,.08.2.74.74,0,0,0,.44.18c.36,0,.64-.38.64-.96a3.885,3.885,0,0,0-1.74-2.78.218.218,0,0,0-.22-.04C-14.14-5.66-14.18-5.58-14.12-5.48Zm-4.12.1a15.781,15.781,0,0,1-.54,4.02c-.1.34-.2.68-.32.98-.02.1-.02.16.08.22l.06.02a.166.166,0,0,0,.22-.06,15.2,15.2,0,0,0,1.8-4.36l.32-.16c.14-.06.22-.14.22-.22,0-.1-.22-.2-.74-.28l-.92-.28A.123.123,0,0,0-18.24-5.38ZM11.2-6.98a28.191,28.191,0,0,0,2.5-3.5c.22-.38,1.04-.68,1.04-1.04,0-.5-1.22-1.4-1.64-1.4-.2,0-.66.3-1.12.44a49.47,49.47,0,0,1-5.46.88,1.976,1.976,0,0,1-.74-.12c-.42-.14-.54-.34-.68-.34-.08,0-.14.08-.14.26,0,.46.72,1.8,1.82,1.8a1.379,1.379,0,0,0,.64-.24,29.608,29.608,0,0,1,4.78-1.28c.1,0,.2.02.2.12a.618.618,0,0,1-.04.16C11.54-9.06,7.26-3.2,2.5-.68c-.14.08-.2.14-.2.2s.04.1.12.1a.344.344,0,0,0,.16-.04,23.241,23.241,0,0,0,8.4-6.32A10.959,10.959,0,0,1,14.8-2.48c.32.62.76.96,1.12.96a.871.871,0,0,0,.72-.92C16.64-4.18,13.18-6.16,11.2-6.98Zm25.96-3.24a1.9,1.9,0,0,0,1.9-1.9,1.9,1.9,0,0,0-1.9-1.9,1.9,1.9,0,0,0-1.92,1.9A1.9,1.9,0,0,0,37.16-10.22Zm0-.52a1.387,1.387,0,0,1-1.4-1.38,1.4,1.4,0,0,1,1.4-1.4,1.4,1.4,0,0,1,1.38,1.4A1.383,1.383,0,0,1,37.16-10.74ZM37.7-3.9c.44,0,.96-.5.96-1.34,0-1.54-3.74-4.5-5.78-5.36a.521.521,0,0,0-.22-.06c-.08,0-.12.04-.12.1,0,.08.08.16.18.24a12.974,12.974,0,0,1,4.24,5.56C37.2-4.14,37.38-3.9,37.7-3.9ZM21.24-2.72a.859.859,0,0,0,.28-.08,22.923,22.923,0,0,0,7.96-5.72.852.852,0,0,0,.18-.5,1.368,1.368,0,0,0-.64-1.04,2.252,2.252,0,0,0-1.4-.4c-.36,0-.98,0-.98.22,0,.14.22.18.46.3a.665.665,0,0,1,.44.54c0,1.02-2.5,4.1-6.14,6.26-.26.16-.3.26-.3.34C21.1-2.74,21.18-2.72,21.24-2.72Z"
        transform="translate(778 2861)" fill="#485757" />
      <path id="パス_898" data-name="パス 898"
        d="M-66.828,0c.12,0,.168-.12.168-.336,0-.24-.024-.36-.168-.36h-.36C-68.6-.7-69.8-1.008-69.8-2.184V-17.328c0-.168-.12-.216-.24-.1a6.7,6.7,0,0,1-4.68,1.656c-.12,0-.168.144-.168.336,0,.216.048.36.168.36h.408c2.52,0,2.592.1,2.592,1.392v11.5C-71.724-1.08-72.9-.7-74.34-.7h-.384c-.12,0-.168.12-.168.36,0,.216.048.336.168.336Zm4.44,2.568c.024,0,.024,0,.072-.024a4.08,4.08,0,0,0,2.16-3.36,1.334,1.334,0,0,0-1.32-1.392A1.307,1.307,0,0,0-62.8-.864,1.217,1.217,0,0,0-61.932.288.55.55,0,0,1-61.62.84a2.2,2.2,0,0,1-.888,1.44c-.048.048-.048.072-.048.1C-62.556,2.424-62.484,2.568-62.388,2.568ZM-51.54.336c2.616,0,5.136-2.88,5.136-8.952s-2.5-9.024-5.088-9.024c-2.616,0-5.136,2.952-5.136,9.024S-54.132.336-51.54.336Zm.048-.816c-1.8,0-3.048-2.52-3.048-8.136s1.248-8.184,3.048-8.184,3,2.568,3,8.184S-49.692-.48-51.492-.48ZM-38.34.336c2.616,0,5.136-2.88,5.136-8.952s-2.5-9.024-5.088-9.024c-2.616,0-5.136,2.952-5.136,9.024S-40.932.336-38.34.336Zm.048-.816c-1.8,0-3.048-2.52-3.048-8.136s1.248-8.184,3.048-8.184,3,2.568,3,8.184S-36.492-.48-38.292-.48ZM-25.14.336C-22.524.336-20-2.544-20-8.616s-2.5-9.024-5.088-9.024c-2.616,0-5.136,2.952-5.136,9.024S-27.732.336-25.14.336Zm.048-.816c-1.8,0-3.048-2.52-3.048-8.136s1.248-8.184,3.048-8.184,3,2.568,3,8.184S-23.292-.48-25.092-.48Zm9.024,3.048c.024,0,.024,0,.072-.024a4.08,4.08,0,0,0,2.16-3.36,1.334,1.334,0,0,0-1.32-1.392,1.307,1.307,0,0,0-1.32,1.344A1.217,1.217,0,0,0-15.612.288.55.55,0,0,1-15.3.84a2.2,2.2,0,0,1-.888,1.44c-.048.048-.048.072-.048.1C-16.236,2.424-16.164,2.568-16.068,2.568ZM-5.22.336C-2.6.336-.084-2.544-.084-8.616s-2.5-9.024-5.088-9.024c-2.616,0-5.136,2.952-5.136,9.024S-7.812.336-5.22.336Zm.048-.816C-6.972-.48-8.22-3-8.22-8.616S-6.972-16.8-5.172-16.8s3,2.568,3,8.184S-3.372-.48-5.172-.48ZM7.98.336c2.616,0,5.136-2.88,5.136-8.952s-2.5-9.024-5.088-9.024c-2.616,0-5.136,2.952-5.136,9.024S5.388.336,7.98.336ZM8.028-.48C6.228-.48,4.98-3,4.98-8.616S6.228-16.8,8.028-16.8s3,2.568,3,8.184S9.828-.48,8.028-.48ZM21.18.336c2.616,0,5.136-2.88,5.136-8.952s-2.5-9.024-5.088-9.024c-2.616,0-5.136,2.952-5.136,9.024S18.588.336,21.18.336Zm.048-.816c-1.8,0-3.048-2.52-3.048-8.136S19.428-16.8,21.228-16.8s3,2.568,3,8.184S23.028-.48,21.228-.48Zm11.64-8.208H47.58v7.9c0,.432-.168.624-.7.624-.48,0-2.712-.168-3.408-.216-.12-.024-.192.048-.192.168v.024c0,.12.072.168.192.192a6.15,6.15,0,0,1,2.232.6,1.241,1.241,0,0,1,.624.912c.024.12.1.192.216.168C48.8,1.416,49.092.624,49.092-.6V-16.968A1.781,1.781,0,0,0,50-17.352c.072-.072.1-.144.048-.216a4.861,4.861,0,0,0-1.848-1.44c-.192,0-.312.264-.5.5l-.336.5H32.988l-1.68-.816c-.144-.072-.24,0-.216.144a35.8,35.8,0,0,1,.264,4.656V-4.9c-.048,3.12-.12,4.176-.264,6.24a.55.55,0,0,0,.552.48,1.765,1.765,0,0,0,1.344-.648A.387.387,0,0,0,33.06.96c-.1-1.728-.144-2.712-.192-5.52Zm6.5-8.592v7.92h-6.5v-7.92Zm1.536,0H47.58v7.92H40.908Zm27.408-.936a2.429,2.429,0,0,0,1.44-.432c.048-.048,0-.12-.1-.192l-1.68-1.2a.16.16,0,0,0-.264.048l-.624.96H65.316c-.984-.024-1.944-.072-2.9-.168-.168,0-.216.1-.144.216l.432.84a.179.179,0,0,0,.24.12,17.4,17.4,0,0,1,3-.312h1.7A18.229,18.229,0,0,0,74.2-9.36a.143.143,0,0,0,.24-.072,1.908,1.908,0,0,1,1.2-1.032c.1-.048.144-.072.168-.168s-.024-.144-.12-.192A16.333,16.333,0,0,1,68.316-18.216Zm-8.616.048a15.466,15.466,0,0,1-1.7,4.2A22.251,22.251,0,0,1,54.372-9.24a.17.17,0,0,0-.024.264.173.173,0,0,0,.264.048,22.577,22.577,0,0,0,6.744-7.92l.432-.1c.168-.048.288-.1.288-.168,0-.144-.264-.312-.96-.552l-1.176-.624C59.82-18.336,59.724-18.312,59.7-18.168Zm2.52,8.5C62-6.336,61.14-2.208,55.6,1.272c-.192.12-.288.24-.216.36l.072.1c.072.12.144.12.264.072,6.576-3.312,7.752-7.68,8.16-11.472h5.76c-.216,4.944-.7,8.592-1.416,9.264a.98.98,0,0,1-.864.288c-.5,0-2.208-.144-3.312-.264a.168.168,0,0,0-.216.168v.048a.21.21,0,0,0,.192.216A6.867,6.867,0,0,1,66.252.72a1.117,1.117,0,0,1,.456.936.177.177,0,0,0,.192.192A3.551,3.551,0,0,0,69.3.936C70.356-.12,70.932-3.984,71.148-9.48a1.789,1.789,0,0,0,.792-.264.171.171,0,0,0,.072-.24,4.26,4.26,0,0,0-1.632-1.392c-.192,0-.36.264-.576.5l-.384.48H60.468c-.984-.024-1.944-.072-2.9-.168-.168,0-.24.1-.168.216l.456.864a.179.179,0,0,0,.24.12,13.443,13.443,0,0,1,2.616-.312Z"
        transform="translate(900 2862)" fill="#485757" />
    </g>
    <path id="パス_895" data-name="パス 895"
      d="M-71.45.28c3.04,0,4.6-2.3,5.36-3.68a.284.284,0,0,0,.04-.12c0-.1-.04-.14-.14-.22s-.14-.1-.2-.1a.242.242,0,0,0-.18.12c-1.08,1.62-2.4,3.04-4.58,3.04-2.22,0-5.26-1.8-5.26-6.64,0-1.08.36-6.62,4.8-6.62,3.04,0,4.08,2.22,4.66,3.06a.309.309,0,0,0,.24.14h.06a.344.344,0,0,0,.14-.08c.06-.04.08-.08.08-.18a1.782,1.782,0,0,0-.04-.22c-.14-.58-.6-2.42-.74-3.04-.04-.12-.12-.14-.2-.06a1.641,1.641,0,0,1-1.04.4c-.64,0-1.66-.78-3.3-.78-3.06,0-6.48,3.06-6.48,7.82A6.937,6.937,0,0,0-71.45.28ZM-58.31,0c.08,0,.12-.12.12-.3,0-.16-.04-.26-.12-.26h-.32a1.749,1.749,0,0,1-1.72-1.6v-10.5l5.3,12.54a.167.167,0,0,0,.18.12.167.167,0,0,0,.18-.12l5.44-12.52V-1.82c0,.92-.52,1.26-1.72,1.26h-.34c-.08,0-.12.1-.12.26,0,.18.04.3.12.3h5.62c.12,0,.14-.12.14-.3,0-.16-.02-.26-.14-.26h-.3c-1.18,0-1.7-.3-1.7-1.26v-10.9c0-.92.46-1.24,1.7-1.24h.3c.12,0,.16-.1.16-.28s-.02-.28-.16-.28h-3.42a.19.19,0,0,0-.2.12L-54.45-2.7l-4.9-11.7a.19.19,0,0,0-.2-.12h-3.6c-.1,0-.14.1-.14.28s.04.28.14.28h.28c1.18,0,1.74.28,1.74,1.24V-2.16a1.727,1.727,0,0,1-1.74,1.6h-.28c-.12,0-.16.1-.16.26,0,.18.04.3.16.3Zm24.7-5.96A1.652,1.652,0,0,0-31.95-7.6a1.652,1.652,0,0,0-1.66-1.64A1.647,1.647,0,0,0-35.25-7.6,1.647,1.647,0,0,0-33.61-5.96Zm29.38.12a.477.477,0,0,0,.46-.22.276.276,0,0,0,0-.18c-.14-.38-.98-1.34-1.2-1.34-.16,0-.28.3-.46.58l-.32.58h-.36v-5.7a1.755,1.755,0,0,0,.7-.3.143.143,0,0,0,.06-.2,3.606,3.606,0,0,0-1.4-1.1c-.16,0-.28.2-.46.4l-.3.4H-9.83v-2.5l.34-.22c.1-.06.18-.14.18-.22,0-.18-.4-.38-1.74-.78-.14-.04-.2.02-.2.14a28.918,28.918,0,0,1,.22,3.58h-2.24l-1.46-.64c-.12-.04-.18,0-.16.12a29.625,29.625,0,0,1,.22,3.88v3.14h-.54a5.59,5.59,0,0,1-1.16-.16V-13.7a1.676,1.676,0,0,0,.76-.32c.06-.06.08-.12.04-.18a3.607,3.607,0,0,0-1.4-1.24c-.16,0-.28.24-.46.46l-.3.46h-2.02l-1.46-.64c-.12-.04-.18,0-.16.12a29.625,29.625,0,0,1,.22,3.88v4.74c-.04,2.6-.1,3.48-.22,5.2a.45.45,0,0,0,.42.4,1.238,1.238,0,0,0,1-.42.191.191,0,0,0,.04-.2c-.02-.18-.02-.36-.06-.76v-.5h2.42v.44c-.04.18-.04.28-.06.36a.68.68,0,0,0-.02.2c.02.16.12.3.26.3a1.853,1.853,0,0,0,1.08-.48.257.257,0,0,0,.08-.2c-.08-1.4-.12-2.22-.16-4.5l.44.9a.149.149,0,0,0,.2.1,22.056,22.056,0,0,1,2.82-.26h1.6c-.56,3.02-2.22,5.38-6.02,7.02-.1.04-.14.12-.08.2l.04.06a.149.149,0,0,0,.2.1C-12.69,0-10.79-2.52-10.13-5.7A9.545,9.545,0,0,0-5.19,1.42c.1.06.18.02.2-.1a1.191,1.191,0,0,1,1-.92c.1-.02.14-.04.16-.12C-3.81.22-3.85.14-3.95.1c-3.68-1.46-5.2-3.7-5.82-5.94ZM-19.97-8.98v-4.96h2.42v4.96Zm8.94.06a19.951,19.951,0,0,1-.16,2.5h-2.34v-5.94h2.5Zm1.2-3.44h2.48v5.94H-9.99a20.2,20.2,0,0,0,.16-2.5ZM-19.97-3.3V-8.38h2.42V-3.3ZM8.21-12.14v-2.68h7.68a.5.5,0,0,0,.46-.22.182.182,0,0,0,0-.2,5.107,5.107,0,0,0-1.72-1.4c-.16,0-.36.32-.6.62l-.44.62H1.39c-.82-.02-1.62-.06-2.44-.14-.12,0-.18.08-.12.18l.36.7a.149.149,0,0,0,.2.1,22.023,22.023,0,0,1,2.86-.26H6.97v2.68H4.31l-1.32-.62c-.12-.06-.2,0-.18.12a29.83,29.83,0,0,1,.22,3.88v2.28c-.04,2.08-.08,2.76-.18,4.14a.412.412,0,0,0,.38.4c.48,0,.96-.3.96-.44v-.98h6.8v.44c-.04.16-.04.26-.06.34a.68.68,0,0,0-.02.2c.02.16.12.3.26.3a1.83,1.83,0,0,0,1.06-.46.257.257,0,0,0,.08-.2c-.08-1.42-.12-2.24-.16-4.58v-4a1.59,1.59,0,0,0,.74-.32.155.155,0,0,0,.04-.2,3.551,3.551,0,0,0-1.36-1.2c-.16,0-.28.24-.46.46l-.32.44ZM.97-.72V-11.3l.34-.2c.1-.06.16-.12.16-.2,0-.16-.4-.38-1.76-.78-.14-.04-.2.02-.18.14a33.918,33.918,0,0,1,.22,3.9v4.36c-.04,2.6-.1,3.48-.22,5.2a.458.458,0,0,0,.46.4,1.3,1.3,0,0,0,1-.48c.04-.06.02-.12.02-.2C.99.72,1.01.56.97.28v-.4H14.15V.4c-.04.24-.04.36-.06.5a.68.68,0,0,0-.02.2.331.331,0,0,0,.34.3A1.572,1.572,0,0,0,15.49.9a.323.323,0,0,0,.06-.18c-.08-1.44-.12-2.26-.16-4.6V-11.3l.34-.22c.1-.06.16-.12.16-.2,0-.16-.4-.38-1.78-.78-.14-.04-.2.02-.18.14a33.918,33.918,0,0,1,.22,3.9V-.72Zm6-7.52H4.19v-3.32H6.97Zm4.02,0H8.21v-3.32h2.78Zm-4.02.58v3.7H4.19v-3.7Zm1.24,0h2.78v3.7H8.21ZM34.31-.82H28.77V-8.54h4.6v.36a1.275,1.275,0,0,1-.04.18c0,.08-.02.12-.02.2.02.16.1.3.3.3a1.658,1.658,0,0,0,1.08-.42.338.338,0,0,0,.06-.2c-.08-1.2-.1-1.92-.14-3.94v-1.7l.34-.2c.1-.06.16-.12.16-.2,0-.16-.4-.38-1.78-.78-.14-.04-.2.02-.18.14a33.918,33.918,0,0,1,.22,3.9v1.76h-4.6v-6.34l.32-.22a.286.286,0,0,0,.16-.2c0-.18-.4-.4-1.82-.8-.14-.04-.2.02-.18.14a33.918,33.918,0,0,1,.22,3.9v3.52H22.99v-4.62l.34-.2c.1-.06.16-.12.16-.2,0-.16-.38-.38-1.74-.78-.14-.04-.2.02-.2.14a29.67,29.67,0,0,1,.22,3.64V-9.9c-.04,1.06-.06,1.4-.12,2.1a.368.368,0,0,0,.36.4c.46,0,.98-.26.98-.42v-.72h4.48V-.82h-5.4V-5.66l.34-.22c.1-.06.16-.12.16-.2,0-.16-.4-.38-1.76-.78-.14-.04-.2.02-.18.14a33.918,33.918,0,0,1,.22,3.9v1.46c-.04,1.26-.06,1.68-.14,2.5a.384.384,0,0,0,.38.4,1.335,1.335,0,0,0,1-.42.237.237,0,0,0,.02-.2c-.02-.16,0-.32-.04-.68V-.22H34.31V.32c-.04.26-.04.4-.06.54a.68.68,0,0,0-.02.2c.04.16.12.3.32.3A1.638,1.638,0,0,0,35.65.9a.338.338,0,0,0,.06-.2c-.08-1.36-.12-2.16-.16-4.42V-5.66l.34-.22c.1-.06.16-.12.16-.2,0-.16-.4-.38-1.78-.78-.14-.04-.2.02-.18.14a34.45,34.45,0,0,1,.22,3.9ZM56.45-15.16c-.16,0-.32.24-.52.46l-.38.44h-3.9v-1.28l.34-.22c.1-.06.18-.12.18-.2,0-.18-.4-.38-1.68-.78-.14-.04-.2.02-.18.14a21.791,21.791,0,0,1,.12,2.34H46.75c-.04-.32-.08-.68-.16-1.06a.191.191,0,0,0-.16-.16c-.08,0-.14.06-.16.16a3.525,3.525,0,0,1-1.22,2.54.467.467,0,0,0-.14.14,1.03,1.03,0,0,0-.16.54.646.646,0,0,0,.68.66c.58,0,1.32-.62,1.34-2.26h8.84c-.12.42-.28.92-.38,1.24a1.493,1.493,0,0,0-.54-.3c-.16,0-.32.28-.54.54l-.38.52H48.91c-.82-.02-1.62-.06-2.44-.14-.12,0-.18.08-.12.18l.34.72a.149.149,0,0,0,.2.1,11.806,11.806,0,0,1,2.22-.26h1.3v1.9H47.49l-1.46-.62c-.12-.04-.18,0-.16.12a29.625,29.625,0,0,1,.22,3.88v1.36c-.04,1.16-.06,1.56-.12,2.32,0,.2.12.4.3.4.6,0,.98-.28.98-.4v-.7h7.68v.7a.147.147,0,0,0,.16.16h.04a1.7,1.7,0,0,0,1.1-.38.257.257,0,0,0,.08-.2c-.08-1.18-.1-1.9-.14-3.9V-8.54a1.118,1.118,0,0,0,.62-.24.155.155,0,0,0,.04-.2,3.164,3.164,0,0,0-1.26-1.1c-.16,0-.26.22-.42.44l-.28.44H51.61v-1.9h4.16a.5.5,0,0,0,.46-.22.341.341,0,0,0,0-.2,4.462,4.462,0,0,0-.7-.72c.46-.3,1.22-.86,1.66-1.18a1.179,1.179,0,0,0,.62-.14.155.155,0,0,0,.04-.2A4.22,4.22,0,0,0,56.45-15.16Zm-12.8,1.38a.928.928,0,0,0,.38.08.651.651,0,0,0,.62-.72c0-.7-.76-1.72-2.94-2.14a.226.226,0,0,0-.22.06c-.06.06-.04.14.04.2a7.1,7.1,0,0,1,1.98,2.36A.277.277,0,0,0,43.65-13.78ZM41.93-9.5a.978.978,0,0,0,.38.1.687.687,0,0,0,.66-.74c0-.66-.72-1.62-2.76-1.94a.192.192,0,0,0-.2.06c-.06.06-.04.14.04.2a5.2,5.2,0,0,1,1.74,2.14C41.83-9.6,41.85-9.54,41.93-9.5Zm2.86-1.62h-.02c-.08-.04-.16,0-.22.1-2.66,5.88-2.66,5.88-2.96,6.5-.2.38-.28.38-.5.38h-.68a.147.147,0,0,0-.16.16v.12a.175.175,0,0,0,.16.18,1.412,1.412,0,0,1,.78.28c.26.18.38.86.38,1.86A18.632,18.632,0,0,1,41.45.44a.68.68,0,0,0-.02.2c.06.58.28.88.58.88.62,0,1.02-.5,1.06-1.36a18.049,18.049,0,0,0-.48-3.46,7.6,7.6,0,0,1,.24-1.56l2.06-6.06A.134.134,0,0,0,44.79-11.12ZM47.25-6.4V-8.62h3.16V-6.4Zm7.68,0H51.61V-8.62h3.32ZM47.25-3.44v-2.4h3.16v2.4Zm4.36,0v-2.4h3.32v2.4ZM48.67-2.18A8.29,8.29,0,0,1,45.85.28a11.952,11.952,0,0,1-1.86.86.156.156,0,0,0-.1.22l.02.04c.04.08.1.14.2.1a15.331,15.331,0,0,0,5.6-2.4h.44q.3,0,.3-.12c0-.1-.2-.28-.7-.52l-.86-.68C48.79-2.3,48.73-2.26,48.67-2.18Zm3.86.74a9.936,9.936,0,0,1,3.6,2.66.925.925,0,0,0,.66.28.672.672,0,0,0,.72-.68c0-.74-1.1-1.9-4.86-2.62a.166.166,0,0,0-.2.12l-.02.04A.149.149,0,0,0,52.53-1.44ZM77.67-8.76A.453.453,0,0,0,78.13-9a.276.276,0,0,0,0-.18,5.019,5.019,0,0,0-1.62-1.38c-.16,0-.34.32-.58.62l-.42.6H72.85a9.732,9.732,0,0,1-1.72-2.68h5.74a.509.509,0,0,0,.48-.22.341.341,0,0,0,0-.2,4.619,4.619,0,0,0-1.56-1.32c-.16,0-.32.3-.54.6l-.4.58H71.39a20.6,20.6,0,0,0,2.92-2.74l.36-.08c.12-.02.2-.06.2-.14,0-.14-.38-.46-1.6-1.14-.1-.06-.18-.04-.22.06a15,15,0,0,1-1.82,3.56,2.94,2.94,0,0,1-.2.26.144.144,0,0,0,.04.22H68.71a25.417,25.417,0,0,0,.84-3.28l.34-.18c.1-.06.18-.12.18-.18,0-.16-.44-.34-1.96-.66-.1-.02-.18.02-.18.14a14.2,14.2,0,0,1-.6,3.88,2.053,2.053,0,0,1-.08.28H63.97c-.82-.02-1.62-.06-2.42-.14-.14,0-.2.08-.14.18l.36.68a.149.149,0,0,0,.2.1,22.023,22.023,0,0,1,2.86-.26h2.24a16.985,16.985,0,0,1-1.22,2.68H63.19c-.82-.02-1.62-.06-2.44-.14-.12,0-.18.08-.12.18l.36.7a.149.149,0,0,0,.2.1,20.2,20.2,0,0,1,2.74-.26h1.58a13.507,13.507,0,0,1-4.88,4.72.121.121,0,0,0-.06.2.161.161,0,0,0,.22.06,13.9,13.9,0,0,0,3.5-2.1l.04.14a.17.17,0,0,0,.16.14h3.3c-.58,3.22-2.26,5.3-5.76,6.8a.146.146,0,0,0-.08.2v.02a.153.153,0,0,0,.2.12c4.18-1.26,6.3-3.4,7.12-7.14h3.52c-.18,2.98-.52,4.9-.98,5.32a.844.844,0,0,1-.68.2c-.38,0-1.5-.08-2.3-.16-.1-.02-.16.04-.16.14v.04a.155.155,0,0,0,.14.16,3.934,3.934,0,0,1,1.56.5,1.032,1.032,0,0,1,.32.76.147.147,0,0,0,.16.16A2.7,2.7,0,0,0,72.63.9c.78-.7,1.24-2.84,1.42-6.34a1.59,1.59,0,0,0,.68-.22.2.2,0,0,0,.04-.2v-.02A12.254,12.254,0,0,0,77.05-4.3a.139.139,0,0,0,.22-.08,1.538,1.538,0,0,1,1.02-.86c.08-.04.12-.06.14-.16q.03-.12-.12-.18a14.236,14.236,0,0,1-4.92-3.18ZM65.51-12.78c.36,0,.64-.36.64-.86,0-.8-.68-1.96-2.7-2.72a.218.218,0,0,0-.22.04.121.121,0,0,0,0,.2,6.7,6.7,0,0,1,1.72,3,.381.381,0,0,0,.1.2A.822.822,0,0,0,65.51-12.78Zm5.14.76a14.9,14.9,0,0,0,1.24,2.68H67.23a14.288,14.288,0,0,0,1.28-2.68Zm1.96,5.84H64.63a12.887,12.887,0,0,0,2.24-2.58h5.38a12.879,12.879,0,0,0,1.58,2,.925.925,0,0,0-.42-.22c-.16,0-.3.2-.48.4Z"
      transform="translate(878 2892)" fill="#485757" />
    <path id="パス_896" data-name="パス 896"
      d="M-93.82-1.96c-1.1.26-2.14.54-3.16.78V-7.16h2.9a.5.5,0,0,0,.46-.22.237.237,0,0,0,.02-.2,3.9,3.9,0,0,0-1.42-1.26c-.16,0-.3.28-.5.56l-.36.56h-1.1V-10.4h2.34a.5.5,0,0,0,.46-.22.341.341,0,0,0,0-.2,3.847,3.847,0,0,0-1.38-1.22c-.16,0-.3.28-.5.54l-.36.54h-1.2c-.8-.02-1.58-.06-2.34-.14a22.147,22.147,0,0,0,2.74-4.26,10.72,10.72,0,0,1,2.36,3.04.248.248,0,0,0,.12.16.722.722,0,0,0,.38.1.654.654,0,0,0,.64-.72c0-.74-.78-1.92-3.32-2.94.36,0,.56-.06.66-.2.08-.08.02-.16-.08-.2l-1.76-.72a.143.143,0,0,0-.2.12,12.8,12.8,0,0,1-1.22,3.64,18.678,18.678,0,0,1-2.16,3.32.143.143,0,0,0,.02.22l.02.02a.163.163,0,0,0,.24,0,13.746,13.746,0,0,0,1.44-1.42l.34.68c.04.1.12.12.22.06a2.8,2.8,0,0,1,.78-.2h.56v2.68h-1.1c-.68-.02-1.36-.06-2.04-.14-.14,0-.2.08-.14.18l.36.68c.04.1.1.1.2.08a7.92,7.92,0,0,1,1.7-.24h1.02V-.9c-1.32.32-2.44.56-3.18.7-.1.02-.14.1-.08.2l.74,1.36a.146.146,0,0,0,.22.06A.916.916,0,0,0-100.2,1c2.86-1.08,4.96-1.96,6.48-2.64a.156.156,0,0,0,.1-.2v-.02C-93.64-1.96-93.72-1.98-93.82-1.96Zm5.78-1.8A19.277,19.277,0,0,0-84.5-5.88l.34.02c.1,0,.18,0,.18-.08,0-.14-.32-.52-1.34-1.4a.87.87,0,0,0,.14-.12.257.257,0,0,0,.08-.2c-.08-1.42-.12-2.24-.16-4.58v-2.5A1.2,1.2,0,0,0-84.6-15a.155.155,0,0,0,.04-.2,3.859,3.859,0,0,0-1.4-1.22c-.16,0-.26.22-.42.44l-.26.44H-91.5l-1.48-.62c-.12-.06-.18.02-.16.14a29.624,29.624,0,0,1,.22,3.88V-.56c-.82.22-1.48.38-1.96.46-.12.02-.14.1-.1.2l.64,1.34a.153.153,0,0,0,.22.08.663.663,0,0,0,.26-.42c2.44-1.04,4.28-1.94,5.62-2.56a.175.175,0,0,0,.1-.2v-.02a.156.156,0,0,0-.2-.1c-1.2.32-2.36.66-3.42.92V-7.9h1.66c.72,4.34,2.4,7.38,5.26,9.26.08.06.16.04.22-.06a1.4,1.4,0,0,1,.96-.8c.1-.02.14-.04.16-.12s-.02-.12-.1-.16A10.646,10.646,0,0,1-88.04-3.76Zm1.58-11.18v2.86h-5.3v-2.86Zm-5.3,3.46h5.3V-8.5h-5.3Zm3.5,7.32A13.475,13.475,0,0,1-89.7-7.9h3.24v.72a.147.147,0,0,0,.16.16h.04a1.619,1.619,0,0,0,.78-.22,14.759,14.759,0,0,1-2.6,2.94ZM-96-2.14a19.319,19.319,0,0,0,1.5-3.1l.34-.16c.12-.06.2-.12.2-.2,0-.1-.2-.22-.76-.32l-.94-.36c-.1-.04-.18.02-.18.14a16.854,16.854,0,0,1-.52,3.88c-.02.06.02.1.1.14l.04.02A.142.142,0,0,0-96-2.14Zm-3.6.44c.36,0,.64-.44.64-1.14a4.735,4.735,0,0,0-1.46-3.06c-.08-.08-.12-.1-.22-.06a.135.135,0,0,0-.08.2,11.1,11.1,0,0,1,.62,3.68.257.257,0,0,0,.08.2A.648.648,0,0,0-99.6-1.7Zm33.66-12.28h-5.1v-1.58l.34-.22c.1-.06.18-.12.18-.2,0-.18-.4-.38-1.72-.78-.14-.04-.2.02-.2.14a22.028,22.028,0,0,1,.16,2.64h-5.4l-1.46-.68c-.12-.06-.18,0-.16.12a23.676,23.676,0,0,1,.14,2.7v2.82c0,3.46-.12,7.22-1.7,10.26a.142.142,0,0,0,.04.22l.06.04a.142.142,0,0,0,.22-.02c2.46-3.04,2.62-7.32,2.62-10.52v-4.34h14.14a.5.5,0,0,0,.46-.22.341.341,0,0,0,0-.2,5.107,5.107,0,0,0-1.62-1.4c-.16,0-.34.32-.58.62Zm-.8,10.08h-3.54v-7.62l.32-.22c.1-.06.16-.12.16-.2,0-.16-.38-.38-1.74-.78-.14-.04-.2.02-.18.14a33.918,33.918,0,0,1,.22,3.9V-3.9h-3.14c-.82-.02-1.62-.06-2.44-.14-.12,0-.18.08-.12.18l.34.72a.149.149,0,0,0,.2.1A22.023,22.023,0,0,1-73.8-3.3h2.3V.26h-4.62C-76.94.24-77.74.2-78.56.12c-.12,0-.18.08-.12.18l.34.7a.149.149,0,0,0,.2.1A22.023,22.023,0,0,1-75.28.84h11.56a.485.485,0,0,0,.46-.2.237.237,0,0,0,.02-.2A4.517,4.517,0,0,0-64.78-.92c-.16,0-.32.3-.54.6l-.38.58h-4.58V-3.3h5.46a.5.5,0,0,0,.46-.22.237.237,0,0,0,.02-.2A4.315,4.315,0,0,0-65.84-5c-.16,0-.32.28-.52.56Zm-8.04-4.84a7.6,7.6,0,0,1,1.4,2.7.2.2,0,0,0,.12.16.681.681,0,0,0,.4.16c.32,0,.56-.3.56-.76,0-.7-.58-1.78-2.32-2.72a16.675,16.675,0,0,0,.56-1.92l.36-.16c.1-.06.18-.1.18-.16,0-.16-.4-.34-1.78-.66-.1-.02-.18.02-.18.14a14.887,14.887,0,0,1-.76,4.18,12.766,12.766,0,0,1-1.34,2.72.142.142,0,0,0,.02.22l.04.02a.157.157,0,0,0,.22,0A10.877,10.877,0,0,0-74.78-8.74Zm7.6.1a9.079,9.079,0,0,1,2.34,3.1.2.2,0,0,0,.12.14.722.722,0,0,0,.38.1c.32,0,.54-.26.54-.68,0-.78-.8-2.08-3.22-3.04a14.729,14.729,0,0,0,.72-2l.34-.16c.1-.04.18-.1.18-.16,0-.14-.4-.34-1.74-.7-.1-.02-.18.02-.18.14a12.851,12.851,0,0,1-.96,4.1A11.779,11.779,0,0,1-70-5.46a.179.179,0,0,0,.02.22l.04.04a.163.163,0,0,0,.24,0A10.378,10.378,0,0,0-67.18-8.64Zm13.22-1.24H-55.2v-2.16h2.94a.518.518,0,0,0,.46-.22.341.341,0,0,0,0-.2,3.291,3.291,0,0,0-1.32-1.14c-.16,0-.28.26-.46.5l-.3.48H-55.2v-2.12h3.24a.5.5,0,0,0,.46-.22.237.237,0,0,0,.02-.2,3.837,3.837,0,0,0-1.46-1.22c-.16,0-.32.26-.52.52l-.38.52h-4.08l-1.42-.6c-.12-.04-.18,0-.16.12a29.625,29.625,0,0,1,.22,3.88v2.18c-.04,1.96-.08,2.62-.18,3.92a.411.411,0,0,0,.36.4,1.019,1.019,0,0,0,.94-.42V-6.5h4.82c-.2,3.44-.58,5.3-1.06,5.74a.876.876,0,0,1-.64.18c-.3,0-1.08-.06-1.66-.1-.1-.02-.16.04-.16.14V-.5a.152.152,0,0,0,.14.16,2.839,2.839,0,0,1,1.08.4,1.092,1.092,0,0,1,.24.66.147.147,0,0,0,.16.16A2.382,2.382,0,0,0-53.68.3c.76-.68,1.26-2.72,1.46-6.66a1.4,1.4,0,0,0,.66-.22.155.155,0,0,0,.04-.2,2.969,2.969,0,0,0-1.26-1.04c-.16,0-.28.2-.44.38l-.3.36H-55.2v-2.2h2.88a.483.483,0,0,0,.44-.22.237.237,0,0,0,.02-.2,3.249,3.249,0,0,0-1.3-1.14c-.16,0-.3.24-.48.48Zm4.82-5.42-1.44-.64c-.12-.04-.2,0-.18.12a27.063,27.063,0,0,1,.18,3.2v3.34c0,3.76-.26,7.52-2.4,10.5a.163.163,0,0,0,.04.24l.04.02a.179.179,0,0,0,.22-.02c2.78-2.68,3.24-6.48,3.32-9.84h1.2c.64,4.46,1.9,7.8,4.44,9.8a.127.127,0,0,0,.22-.06,1.412,1.412,0,0,1,.9-.94c.08-.04.12-.06.14-.14a.162.162,0,0,0-.1-.18c-2.7-1.44-4.42-4.82-5.22-8.48h3.04V-8a1.929,1.929,0,0,0-.04.24.711.711,0,0,0-.04.2c.04.16.12.3.26.3a2.141,2.141,0,0,0,1.1-.44.257.257,0,0,0,.08-.2c-.08-1.32-.12-2.1-.16-4.3v-2.28a1.268,1.268,0,0,0,.72-.3c.06-.06.08-.12.04-.18a3.778,3.778,0,0,0-1.4-1.24c-.16,0-.28.24-.46.46l-.3.44Zm-7.16,2.68h-1.86v-2.12h1.86Zm6.94-2.1h4.62v5.74h-4.62Zm-8.8,4.84v-2.16h1.86v2.16Zm1.86.6v2.2h-1.86v-2.2Zm.5,3.84a4.907,4.907,0,0,1,1.06,1.88.2.2,0,0,0,.12.16.531.531,0,0,0,.28.1c.28,0,.48-.26.48-.62,0-.52-.44-1.26-1.7-1.76a.219.219,0,0,0-.22.02l-.02.02C-55.86-5.6-55.88-5.52-55.8-5.44Zm-1.26.42a7.948,7.948,0,0,1,.8,2.7.257.257,0,0,0,.08.2.621.621,0,0,0,.34.14c.28,0,.5-.32.5-.8A3.492,3.492,0,0,0-56.8-5.2a.179.179,0,0,0-.22-.02C-57.1-5.18-57.12-5.12-57.06-5.02Zm-1.22.32a10.482,10.482,0,0,1,.24,2.22,9.833,9.833,0,0,1-.08,1.12.192.192,0,0,0,.06.2.534.534,0,0,0,.34.16c.36,0,.68-.5.68-1.3a4.544,4.544,0,0,0-.9-2.52.2.2,0,0,0-.22-.08A.153.153,0,0,0-58.28-4.7Zm-1.18.12a5.94,5.94,0,0,1-.88,3.4,1.076,1.076,0,0,0-.18.52.489.489,0,0,0,.5.52c.46,0,1.12-.62,1.12-2.4a11.041,11.041,0,0,0-.24-2.06.152.152,0,0,0-.16-.14A.158.158,0,0,0-59.46-4.58Zm35.3-6.44c-.54,0-.94.48-1.66.54-.92.08-1.72.12-2.52.16v-1.42a10.643,10.643,0,0,1,.06-1.46c.08-.54.34-.64.34-1.06,0-.66-1.78-1.26-2.38-1.26a1.46,1.46,0,0,0-.82.24c-.1.06-.14.12-.14.16,0,.06.06.1.2.16a1.971,1.971,0,0,1,1.36,1.86,26.206,26.206,0,0,1,.1,2.84l-1.1.06c-.5.04-1.2.1-1.96.18V-11.7c0-.26.22-.54.22-.78,0-.48-.96-.86-1.98-.86-.4,0-.98.16-.98.34,0,.12.24.16.4.2a1.337,1.337,0,0,1,1.08,1.1c.04.24.1.96.14,1.8-1.5.18-3,.34-3.42.34a4.357,4.357,0,0,1-1.86-.32,1.389,1.389,0,0,0-.52-.22c-.06,0-.12,0-.12.12,0,.38.52.98,1.1,1.3a1.679,1.679,0,0,0,.76.24,2.7,2.7,0,0,0,.74-.12c.46-.12,1.82-.36,3.34-.58.02.32.02.62.02.92,0,.76-.12,2.02-.12,2.12,0,.92.54,1.48.76,1.48.44,0,.54-.5.54-1.04,0-.44-.08-.76-.1-3.62.64-.08,1.28-.14,1.86-.2.38-.04.78-.06,1.2-.08C-29.72-4.68-31-1.3-34.14.8c-.26.16-.34.26-.34.34,0,.06.04.1.14.1a.631.631,0,0,0,.3-.1c3.58-1.8,5.46-4.7,5.68-10.74.36-.02.7-.02,1.06-.02a32.541,32.541,0,0,1,3.72.16,4.583,4.583,0,0,0,.82.06c.28,0,.56-.02.56-.36C-22.2-10.38-23.5-11.02-24.16-11.02Zm16.88-4.12a3.048,3.048,0,0,0-1.38-.34c-.18,0-.3.04-.3.16,0,.08.12.1.28.28a.925.925,0,0,1,.2.62c0,1.06-2.88,5.32-8.42,9.32-.24.16-.4.3-.4.4,0,.06.06.08.16.08a.988.988,0,0,0,.38-.12,23.587,23.587,0,0,0,6.44-4.72A2.418,2.418,0,0,1-10-8.04c0,.98.02,2.1.02,3.28,0,1.26-.1,2.6-.1,3.96,0,.78.3,1.24.92,1.24.46,0,.6-.4.6-1a6.92,6.92,0,0,0-.06-.86c-.08-.68-.1-2.34-.1-3.82,0-1.32.02-2.32.02-2.64,0-.52.24-1.16.24-1.46a.58.58,0,0,0-.3-.52,7.816,7.816,0,0,0-.82-.4,27.556,27.556,0,0,0,2.5-3.16c.3-.44.66-.32.66-.68S-6.9-14.94-7.28-15.14ZM8.04-16.22a4.86,4.86,0,0,1,2.3,1.86c.26.4.54.64.88.64a.8.8,0,0,0,.74-.82c0-1.18-2.42-1.98-3.68-1.98-.2,0-.52.02-.52.14C7.76-16.3,7.9-16.28,8.04-16.22Zm5.18,5.54c0-.32-1.3-1.26-1.68-1.26-.26,0-.44.24-.86.42a32.349,32.349,0,0,1-4.84.94A2.387,2.387,0,0,1,4.7-10.8c-.16-.08-.34-.22-.44-.22-.06,0-.06.06-.06.1a.584.584,0,0,0,.04.18C4.62-9.72,5.28-9.3,5.86-9.3c.8,0,3.46-1.46,4.64-1.46q.18,0,.18.12c-.02.62-3.2,5.12-9.08,8.76-.18.1-.24.18-.24.24s.06.08.12.08a.691.691,0,0,0,.24-.06A28.508,28.508,0,0,0,10.1-7.64a1.587,1.587,0,0,1,.24.64,12.171,12.171,0,0,1,.12,1.76,19.8,19.8,0,0,1-.42,4,1.324,1.324,0,0,0-.02.3c0,.72.36,1.86.94,1.86.46,0,.56-.48.56-1.04,0-.46-.06-1-.06-1.42,0-.2.02-.56.02-2.48,0-.88.04-1.78.08-2.32.04-.5.1-.78.1-.98,0-.34-.5-.62-.98-.92a16.825,16.825,0,0,0,1.22-1.4,3.194,3.194,0,0,1,.74-.52C13.06-10.38,13.22-10.52,13.22-10.68Zm.18,3.54c-.18,0-.32.02-.32.1,0,.06.1.1.3.18a4.422,4.422,0,0,1,2.36,2.08c.22.34.5.98.98.98a.724.724,0,0,0,.7-.8C17.42-5.58,16.04-7.14,13.4-7.14Zm11.24,1a4.348,4.348,0,0,0,.8-.1c.82-.18,4.4-.32,5.7-.36.5-.02,5.58-.14,5.8-.14.44,0,.9-.02,1.1-.04.44-.04.82-.18.82-.56,0-.72-.86-.76-1.66-.76-1.28,0-1.28.08-6.02.26-.94.04-5.34.16-5.62.16a5.606,5.606,0,0,1-1.8-.26,1.657,1.657,0,0,1-.42-.24c-.08-.06-.12-.1-.18-.1-.12,0-.28.36-.28.66a1.715,1.715,0,0,0,.94,1.28A1.393,1.393,0,0,0,24.64-6.14ZM59.08-14.3a.62.62,0,0,0,.62-.64c0-1.38-2.24-1.84-3.04-1.84-.2,0-.34.02-.34.14,0,.14.3.22.62.4a3.4,3.4,0,0,1,1.42,1.44A.881.881,0,0,0,59.08-14.3Zm-2.04,1.66a.637.637,0,0,0,.66-.72c0-1.6-2.86-2.1-3.02-2.1-.14,0-.26.02-.26.14,0,.14.24.26.48.4a3.078,3.078,0,0,1,1.36,1.72A.827.827,0,0,0,57.04-12.64Zm-6.78,1.86a.7.7,0,0,0,.64-.78c0-1.28-2.14-1.92-3.64-1.92-.2,0-.68.02-.68.18,0,.08.1.12.22.18a8.4,8.4,0,0,1,.92.44,5.881,5.881,0,0,1,1.8,1.56A1.035,1.035,0,0,0,50.26-10.78ZM47.14-.3c.38,0,.72-.62,1.28-.92A34.094,34.094,0,0,0,59.4-11.08a.74.74,0,0,0,.14-.38.105.105,0,0,0-.12-.12c-.12,0-.24.12-.34.26A30.722,30.722,0,0,1,48.48-2.9a2.492,2.492,0,0,1-1.1.26,1.416,1.416,0,0,1-1.1-.44c-.3-.34-.38-.54-.5-.54-.16,0-.2.16-.2.34a6.252,6.252,0,0,0,1.1,2.7A.587.587,0,0,0,47.14-.3Zm1.02-6.36a.616.616,0,0,0,.6-.66c0-1.18-1.56-1.82-3.04-1.82-.34,0-1.26.04-1.26.22,0,.06.06.1.16.14a8.123,8.123,0,0,1,1.32.58,5.7,5.7,0,0,1,1.54,1.22A1,1,0,0,0,48.16-6.66ZM73.2-13.58v-2.04l.34-.22c.1-.06.18-.12.18-.2,0-.18-.4-.38-1.76-.78-.14-.04-.2.02-.2.14a25.363,25.363,0,0,1,.18,3.1h-5l-1.42-.66c-.12-.06-.18,0-.16.12.06.6.1,1.36.1,2v2.14c0,3.66-.28,7.74-2.2,11.2a.183.183,0,0,0,.04.22l.02.02a.142.142,0,0,0,.22-.02C66.48-1.96,66.7-6.7,66.7-9.98v-3H80.38a.5.5,0,0,0,.46-.22.237.237,0,0,0,.02-.2,5,5,0,0,0-1.64-1.42c-.16,0-.34.32-.56.62l-.42.62ZM70.02-1.22a52.88,52.88,0,0,0,3.56-9.4l.34-.18c.1-.06.18-.1.18-.16,0-.16-.46-.34-2.04-.66-.12-.02-.18.02-.18.14a22.021,22.021,0,0,1-.56,3.74c-.52,2.24-1.14,4.6-1.8,6.58-1.28.12-2.32.18-3.1.22-.1.02-.14.08-.1.2L66.9.74c.04.08.12.14.2.08a.814.814,0,0,0,.38-.36C72.04-.34,75.44-1,78-1.56A10.524,10.524,0,0,1,78.98.96a.23.23,0,0,0,.12.18.9.9,0,0,0,.48.18c.4,0,.66-.38.66-1.02,0-1.38-1.22-3.92-5.02-6.34a.21.21,0,0,0-.24,0,.131.131,0,0,0-.02.22,23.25,23.25,0,0,1,2.82,3.84C74.92-1.68,72.22-1.4,70.02-1.22Zm27.2-12.14H93.36v-2.22l.34-.22a.286.286,0,0,0,.16-.2c0-.18-.4-.4-1.8-.8-.14-.04-.2.02-.18.14a28.564,28.564,0,0,1,.18,3.3h-3.8a17.463,17.463,0,0,0,.9-2.24l.34-.14c.1-.04.16-.08.16-.14,0-.14-.4-.36-1.84-.76-.1-.04-.18,0-.18.12a15,15,0,0,1-.94,4.02,14.771,14.771,0,0,1-1.26,2.58.144.144,0,0,0,.04.22l.04.02a.157.157,0,0,0,.22-.02,13.39,13.39,0,0,0,2.22-3.06h4.1v3.84H86.48c-.82-.02-1.62-.06-2.44-.14-.12,0-.18.08-.12.18l.34.72a.149.149,0,0,0,.2.1,22.023,22.023,0,0,1,2.86-.26h13.66a.461.461,0,0,0,.44-.22.237.237,0,0,0,.02-.2,5.342,5.342,0,0,0-1.66-1.44c-.16,0-.36.32-.6.64l-.44.62H93.36v-3.84h6.08a.509.509,0,0,0,.48-.22.341.341,0,0,0,0-.2,5.043,5.043,0,0,0-1.66-1.42c-.16,0-.36.32-.6.62ZM88.34.08h8.7V.54c-.04.2-.04.32-.06.42a.68.68,0,0,0-.02.2.3.3,0,0,0,.28.3,2.011,2.011,0,0,0,1.1-.44.257.257,0,0,0,.08-.2c-.08-1.18-.1-1.88-.14-3.86V-5.1a1.583,1.583,0,0,0,.76-.34c.06-.06.08-.12.04-.18a3.7,3.7,0,0,0-1.46-1.14c-.16,0-.3.22-.48.42l-.32.4H88.46l-1.38-.64c-.12-.06-.2,0-.18.12a29.83,29.83,0,0,1,.22,3.88V-1.2C87.08-.02,87.06.38,87,1.16c0,.2.12.4.28.4a1.459,1.459,0,0,0,1.06-.44c.06-.06.04-.12.04-.2-.02-.1-.02-.24-.04-.48Zm0-5.44h8.7V-.52h-8.7Z"
      transform="translate(878.358 2918.946)" fill="#485757" />
    <g id="グループ_1699" data-name="グループ 1699" transform="translate(6)">
      <path id="パス_893" data-name="パス 893"
        d="M-78.648-20.04c-.48,0-.888,0-.888.192s.312.24.72.432a3.879,3.879,0,0,1,1.776,1.608,1.114,1.114,0,0,0,.84.552.694.694,0,0,0,.744-.672C-75.456-19.608-77.808-20.04-78.648-20.04Zm-2.664,1.584c-.192,0-.336.048-.336.192,0,.168.288.288.576.432a3.615,3.615,0,0,1,1.7,1.944,1.066,1.066,0,0,0,.936.6.743.743,0,0,0,.768-.816C-77.664-18.048-81.144-18.456-81.312-18.456Zm-.144,3.288c-.312,0-.552.216-1.08.528a9.916,9.916,0,0,1-3.528.552h-.36a10.086,10.086,0,0,0,.84-1.2,1.279,1.279,0,0,0,.24-.624,2.449,2.449,0,0,0-2.3-1.752,2.153,2.153,0,0,0-.816.144c-.12.048-.216.144-.216.24,0,.072.048.144.24.216.552.24.864.576.864,1.056,0,1.7-4.656,6.624-6.816,8.088-.24.168-.336.24-.336.336,0,.048.048.072.1.072a1.1,1.1,0,0,0,.312-.1,27.189,27.189,0,0,0,7.272-5.736,4.043,4.043,0,0,0,1.3.192A13.234,13.234,0,0,0-82.68-13.7a1.167,1.167,0,0,1,.336-.048c.192,0,.288.072.288.24a.87.87,0,0,1-.144.432C-86.448-5.832-90.984-2.64-96.24-.456c-.24.1-.336.168-.336.24s.048.12.216.12A1.178,1.178,0,0,0-96.1-.12c5.592-1.32,11.256-5.544,15.144-11.5.528-.816,1.656-.912,1.656-1.68C-79.3-14.04-80.952-15.168-81.456-15.168Zm15.936-.456a2.552,2.552,0,0,0,.984-.192,19.56,19.56,0,0,1,4.68-.624c1.056,0,1.8.072,2.232.072.624,0,.768-.1.768-.384,0-.48-1.008-1.392-2.232-1.392-.912,0-.912.408-1.512.528-.576.12-2.448.456-3.576.624a6.18,6.18,0,0,1-1.08.1,4.423,4.423,0,0,1-1.176-.144,4.89,4.89,0,0,0-.72-.24.16.16,0,0,0-.144.168.553.553,0,0,0,.072.216,2.459,2.459,0,0,0,.7.864A1.447,1.447,0,0,0-65.52-15.624ZM-70.032.528A.321.321,0,0,0-69.912.5C-62.28-1.68-58.824-5.352-56.064-10.008c.528-.888,1.608-1.416,1.608-1.872,0-.552-1.584-1.848-2.232-1.848-.264,0-.744.528-1.3.648-.7.144-6.36,1.008-7.2,1.1-.288.024-.552.048-.816.048a7.169,7.169,0,0,1-2.232-.312,2.91,2.91,0,0,0-.552-.24c-.144,0-.192.216-.192.408a1.387,1.387,0,0,0,.24.768,3.272,3.272,0,0,0,2.16,1.224.865.865,0,0,0,.48-.12,2.541,2.541,0,0,1,1.2-.6c1.536-.432,7.1-1.392,7.392-1.392.216,0,.312.072.312.216a1.215,1.215,0,0,1-.12.408C-60.168-5.592-64.3-2.232-69.96.264c-.1.048-.192.1-.192.168S-70.08.528-70.032.528Zm30.36-12.936a.879.879,0,0,0,.864-.984,2.057,2.057,0,0,0-.912-1.584,6.982,6.982,0,0,0-3.912-1.056c-.36,0-1.1.024-1.1.216,0,.1.168.144.432.216a5.781,5.781,0,0,1,3.336,2.232C-40.56-12.744-40.152-12.408-39.672-12.408Zm-4.584,9.072a2.84,2.84,0,0,0,2.448,2.208A1.5,1.5,0,0,0-40.656-1.7a5.265,5.265,0,0,1,1.392-1.08A59.973,59.973,0,0,0-27.7-14.3a1.142,1.142,0,0,0,.24-.5.088.088,0,0,0-.1-.1.691.691,0,0,0-.384.264C-34.416-7.68-40.848-3.528-42.48-3.528a1.319,1.319,0,0,1-1.032-.5c-.456-.456-.432-.768-.6-.768-.1,0-.24.264-.24.72A3.149,3.149,0,0,0-44.256-3.336ZM-3.12-15.408a2.279,2.279,0,0,0,2.28-2.28,2.279,2.279,0,0,0-2.28-2.28,2.284,2.284,0,0,0-2.3,2.28A2.284,2.284,0,0,0-3.12-15.408Zm0-.624A1.665,1.665,0,0,1-4.8-17.688a1.685,1.685,0,0,1,1.68-1.68,1.68,1.68,0,0,1,1.656,1.68A1.659,1.659,0,0,1-3.12-16.032ZM-20.28.216A1.215,1.215,0,0,0-19.872.1C-13.9-2.544-9.408-5.448-6.024-11.952c.6-1.128,1.512-1.56,1.512-2.256,0-.72-1.728-1.992-2.28-1.992a12.955,12.955,0,0,0-1.992.672c-1.032.288-8.328.768-8.664.768a3.878,3.878,0,0,1-1.56-.312,1.527,1.527,0,0,0-.576-.168.221.221,0,0,0-.24.24,2.9,2.9,0,0,0,.888,1.68,1.987,1.987,0,0,0,1.3.408,3.728,3.728,0,0,0,.96-.144A63.114,63.114,0,0,1-7.224-14.64c.12,0,.24.024.24.216-.072,1.32-3.84,9.7-12.984,14.112-.384.192-.48.312-.48.408C-20.448.168-20.376.216-20.28.216ZM6.912,1.08a1.153,1.153,0,0,0,.36-.1C13.992-1.8,16.08-5.232,16.344-12.84c.024-.7.048-1.752.048-2.424,0-.7.408-1.128.408-1.512,0-.528-1.176-1.44-1.944-1.632a5.179,5.179,0,0,0-.672-.048c-.456,0-.936.072-.936.336,0,.288.336.192.912.7a2.057,2.057,0,0,1,.5,1.464c.048.768.1,1.656.1,2.544C14.76-7.416,13.728-3,7.2.672c-.264.144-.408.24-.408.312C6.792,1.032,6.816,1.08,6.912,1.08ZM9.72-7.152c.528,0,.816-.672.816-1.272,0-.456-.1-1.128-.1-1.872,0-.456-.024-1.128-.024-1.872a17.576,17.576,0,0,1,.12-2.5,3.337,3.337,0,0,0,.072-.648c0-.528-.264-.936-1.392-1.344a1.408,1.408,0,0,0-.552-.1c-.528,0-1.008.216-1.008.432,0,.168.192.264.5.432a1.386,1.386,0,0,1,.648,1.152A22.961,22.961,0,0,1,9-11.256c0,.84-.144,2.4-.144,2.472C8.856-7.824,9.384-7.152,9.72-7.152Zm33.72-13.2a16.4,16.4,0,0,1-3.84,1.224,107.514,107.514,0,0,1-11.448,1.8c-.12.024-.192.072-.168.216l.024.1a.21.21,0,0,0,.216.168A121.936,121.936,0,0,0,44.016-18.48l.624.1c.288.048.432.024.432-.1,0-.144-.192-.384-.648-.768L43.7-20.28A.193.193,0,0,0,43.44-20.352Zm-2.4,7.872a22.313,22.313,0,0,0,3.36-3.7l.456-.144c.144-.048.216-.1.216-.192,0-.168-.48-.456-2.208-1.056-.144-.048-.24,0-.264.12a17.168,17.168,0,0,1-1.848,4.368c-.12.216-.24.408-.36.6H29.5c-.072-.312-.144-.648-.24-.984-.024-.12-.12-.144-.216-.144h-.048c-.12,0-.168.072-.168.192v.264a3.444,3.444,0,0,1-1.464,2.976,1.212,1.212,0,0,0-.648.96.742.742,0,0,0,.816.768,1.491,1.491,0,0,0,.864-.288,3.3,3.3,0,0,0,1.2-3.024H45.216a25.376,25.376,0,0,1-1.032,2.424c-.048.12-.024.216.072.264A.215.215,0,0,0,44.52-9.1a17.606,17.606,0,0,0,2.592-2.352,2.111,2.111,0,0,0,.72-.168.171.171,0,0,0,.072-.24,5.311,5.311,0,0,0-1.656-1.8c-.192,0-.384.312-.624.6l-.432.576Zm-5.64-4.3a8.038,8.038,0,0,1,1.3,3.5.266.266,0,0,0,.12.24.9.9,0,0,0,.552.216c.456,0,.816-.456.816-1.1,0-.864-.624-2.112-2.5-3.1a.259.259,0,0,0-.264,0C35.352-16.968,35.328-16.9,35.4-16.776Zm-5.16.48A7.883,7.883,0,0,1,31.848-13.1a.491.491,0,0,0,.12.216,1.044,1.044,0,0,0,.552.168c.432,0,.768-.384.768-.96,0-.84-.7-2.04-2.76-2.9a.33.33,0,0,0-.264.024H30.24C30.168-16.512,30.144-16.416,30.24-16.3Zm8.448,13.7a17.147,17.147,0,0,0,4.536-5.04,1.663,1.663,0,0,0,.936-.216.186.186,0,0,0,.048-.24,4.412,4.412,0,0,0-1.584-1.56c-.192,0-.408.264-.7.528l-.5.5h-8.9c-.984-.024-1.944-.072-2.9-.168-.168,0-.24.1-.168.216l.432.816a.194.194,0,0,0,.264.1,5.31,5.31,0,0,1,1.368-.264h.936a14.36,14.36,0,0,0,3.984,5.4A27.456,27.456,0,0,1,27,1.416a.16.16,0,0,0-.12.24V1.68a.213.213,0,0,0,.24.144A26.949,26.949,0,0,0,37.44-1.728a22.645,22.645,0,0,0,8.5,3.552.187.187,0,0,0,.24-.12,1.862,1.862,0,0,1,1.3-1.272c.1-.048.144-.072.168-.168C47.664.192,47.592.12,47.472.1A27.475,27.475,0,0,1,38.688-2.592ZM41.376-7.92a15.526,15.526,0,0,1-3.912,4.608A13.087,13.087,0,0,1,32.976-7.92Zm29.256-9.768c-.192,0-.36.264-.6.5l-.432.5H65.832a25.468,25.468,0,0,0,2.424-2.112l.456-.12c.144-.024.24-.072.24-.144,0-.192-.48-.48-2.112-1.08a.16.16,0,0,0-.24.12,20.5,20.5,0,0,1-1.656,3.336h-2.4v-2.16l.384-.24c.12-.072.192-.144.192-.24,0-.192-.456-.456-2.064-.936-.168-.048-.24.024-.24.168a31.029,31.029,0,0,1,.192,3.408H58.056a.886.886,0,0,0,.384-.792c0-.792-.744-1.92-2.928-2.5a.211.211,0,0,0-.24.048c-.072.048-.072.144.024.24a5.889,5.889,0,0,1,1.776,2.736.349.349,0,0,0,.144.216l.072.048H54.432c-.048-.264-.1-.528-.168-.816a.205.205,0,0,0-.216-.168h-.024a.177.177,0,0,0-.192.192,4,4,0,0,1-1.536,3.1,1.2,1.2,0,0,0-.648.984.942.942,0,0,0,.072.336.733.733,0,0,0,.7.384,1.508,1.508,0,0,0,.888-.288,3.527,3.527,0,0,0,1.2-3h15.12a12.868,12.868,0,0,1-.888,2.28.193.193,0,0,0,.072.264l.024.024c.1.048.192.072.264,0a18.02,18.02,0,0,0,2.376-2.28,1.516,1.516,0,0,0,.768-.168.186.186,0,0,0,.048-.24A4.728,4.728,0,0,0,70.632-17.688ZM67.92-14.16a4.046,4.046,0,0,0-1.608-1.392c-.192,0-.336.264-.528.5l-.336.5H58.08l-1.488-.72c-.12-.072-.216,0-.216.144.072.7.12,1.584.12,2.3v.84c-.048.576-.048.768-.1,1.152,0,.24.1.48.312.48.576,0,1.272-.336,1.272-.48v-.336H65.64v.456a.177.177,0,0,0,.192.192h.048a2.24,2.24,0,0,0,1.272-.5.191.191,0,0,0,.048-.216c-.024-.408-.024-.72-.072-1.488v-.888a1.787,1.787,0,0,0,.744-.336C67.944-14.016,67.968-14.088,67.92-14.16Zm-9.936,2.3v-1.992H65.64v1.992Zm.96,9.864h8.184v.5a.177.177,0,0,0,.192.192h.024a2.2,2.2,0,0,0,1.32-.552.308.308,0,0,0,.1-.24c-.1-1.32-.12-2.112-.168-4.368V-8.784a1.817,1.817,0,0,0,.816-.312.186.186,0,0,0,.048-.24,4.177,4.177,0,0,0-1.632-1.416c-.192,0-.336.264-.552.528l-.36.528h-10.3l-1.656-.768c-.144-.072-.24,0-.216.144a34.674,34.674,0,0,1,.264,4.584v1.584c-.048,1.344-.072,1.8-.144,2.688,0,.24.144.48.36.48.6,0,1.248-.336,1.248-.48v-.528h2.376A11.315,11.315,0,0,1,55.032.432a22.219,22.219,0,0,1-3.192.984.183.183,0,0,0-.144.24V1.7a.187.187,0,0,0,.216.144A23.121,23.121,0,0,0,59.784-.216l.528.024c.24,0,.384-.048.384-.144,0-.12-.24-.336-.768-.672ZM67.128-9v1.632H56.472V-9Zm0,2.3v1.632H56.472V-6.7Zm0,2.352v1.656H56.472V-4.344ZM63.6-.744a21.905,21.905,0,0,1,6.144,2.376,1.561,1.561,0,0,0,.816.264c.5,0,.888-.264.888-.648,0-.792-1.7-2.064-7.752-2.424a.238.238,0,0,0-.24.168v.024A.183.183,0,0,0,63.6-.744Zm15.672-4.1c-.048,3.12-.12,4.176-.264,6.24a.544.544,0,0,0,.528.48,2.36,2.36,0,0,0,1.32-.552.308.308,0,0,0,.1-.24c-.1-1.7-.144-2.688-.192-5.5v-7.752l.336-.144c.144-.072.216-.144.216-.24,0-.168-.24-.456-.864-.912a36.868,36.868,0,0,0,2.52-5.376l.456-.144c.144-.048.24-.1.24-.168,0-.192-.5-.48-2.16-1.1-.144-.048-.216,0-.24.144a24.274,24.274,0,0,1-1.488,4.9A36.786,36.786,0,0,1,75.888-8.16a.171.171,0,0,0,.024.264l.024.024a.169.169,0,0,0,.264,0,22.833,22.833,0,0,0,3.072-3.7Zm14.3-.312h-3.84V-9.6h5.9a.611.611,0,0,0,.576-.264.284.284,0,0,0,.024-.24,5.387,5.387,0,0,0-1.848-1.56c-.192,0-.384.36-.648.7l-.456.672H89.736v-4.32h6.936a.582.582,0,0,0,.552-.24.284.284,0,0,0,.024-.24A5.737,5.737,0,0,0,95.3-16.752c-.192,0-.408.384-.672.744l-.5.72h-7.32c.576-1.1,1.152-2.28,1.656-3.5l.432-.144c.144-.048.24-.1.24-.168,0-.192-.5-.48-2.16-1.128-.144-.048-.216,0-.24.144A23.813,23.813,0,0,1,85.2-15.216a33.311,33.311,0,0,1-3.264,5.688.17.17,0,0,0,.024.264l.048.024a.188.188,0,0,0,.264,0,23.246,23.246,0,0,0,4.152-5.376h1.8v9.768c-.048,3.12-.12,4.176-.264,6.24a.539.539,0,0,0,.5.48,1.8,1.8,0,0,0,1.344-.528.405.405,0,0,0,.072-.24c-.072-1.08-.1-1.752-.144-3.624V-4.464h6.336a.6.6,0,0,0,.552-.264.284.284,0,0,0,.024-.24A5.86,5.86,0,0,0,94.728-6.6c-.192,0-.408.36-.672.72Z"
        transform="translate(872 2816)" fill="#a0882e" />
      <path id="パス_894" data-name="パス 894"
        d="M-37.192-11.84H-39.72v-.672l.272-.176c.08-.048.128-.1.128-.16,0-.128-.3-.3-1.328-.608-.1-.032-.144.016-.144.112.048.448.08,1.04.08,1.5h-3.056v-.672l.272-.176c.08-.048.144-.1.144-.16,0-.144-.3-.3-1.312-.608-.1-.032-.144.016-.144.112.048.448.08,1.04.08,1.5h-2.48c-.656-.016-1.312-.048-1.952-.112-.1,0-.144.064-.112.144l.256.56a.12.12,0,0,0,.16.08,17.619,17.619,0,0,1,2.288-.208h1.84v.416c-.032.192-.032.288-.048.4a.544.544,0,0,0-.016.16c.016.128.08.24.208.24a1.173,1.173,0,0,0,.832-.272.183.183,0,0,0,.016-.16c-.016-.1,0-.208-.032-.464v-.32h3.056v.4c-.032.176-.032.272-.048.368a.544.544,0,0,0-.016.16.246.246,0,0,0,.24.24A1.166,1.166,0,0,0-39.7-10.5c.032-.048.016-.1.016-.16-.016-.1-.016-.208-.032-.416v-.3h4.144a.4.4,0,0,0,.368-.176.273.273,0,0,0,0-.16,3.657,3.657,0,0,0-1.232-1.056c-.128,0-.256.24-.432.464ZM-46.1-9.952l-.976-.48c-.1-.048-.16,0-.144.1a19.95,19.95,0,0,1,.1,2v.7c-.032.544-.032.736-.08,1.088,0,.16.08.32.208.32a1.146,1.146,0,0,0,.816-.32v-.464h8.048v.464a.118.118,0,0,0,.128.128h.032a1.447,1.447,0,0,0,.848-.352.186.186,0,0,0,.032-.16c-.032-.416-.032-.7-.064-1.5V-9.28a1.353,1.353,0,0,0,.592-.256.124.124,0,0,0,.032-.16,3,3,0,0,0-1.136-.944c-.128,0-.224.176-.368.352l-.24.336Zm1.952.48v2h-2.032v-2Zm2.992,2h-2.064v-2h2.064Zm.928-2h2.1v2h-2.1Zm-3.12,5.408c.3-.256.592-.512.848-.768l.336-.08c.128-.032.208-.08.208-.128,0-.1-.24-.192-.9-.32h6c-.192.48-.464,1.056-.656,1.456-.032.08,0,.128.064.176a.143.143,0,0,0,.176-.016A11.412,11.412,0,0,0-35.7-5.2a1.256,1.256,0,0,0,.512-.1.114.114,0,0,0,.048-.16A2.881,2.881,0,0,0-36.2-6.48c-.128,0-.24.16-.384.32l-.272.32h-10.56a5.03,5.03,0,0,0-.128-.64.137.137,0,0,0-.144-.112H-47.7a.118.118,0,0,0-.128.128,2.339,2.339,0,0,1-.96,1.9.789.789,0,0,0-.416.64.552.552,0,0,0,.048.208.539.539,0,0,0,.5.256.913.913,0,0,0,.56-.192,2.233,2.233,0,0,0,.72-1.712h3.872a13.405,13.405,0,0,1-4.7,3.68.107.107,0,0,0-.064.16l.016.032a.144.144,0,0,0,.176.064,13.316,13.316,0,0,0,2.816-1.3,5.994,5.994,0,0,1,1.92,1.584.179.179,0,0,0,.128.112.8.8,0,0,0,.192.032.4.4,0,0,0,.416-.432c0-.48-.576-1.232-2.24-1.536.32-.208.624-.432.928-.64h4.1C-41.736-1.136-44.5.08-48.44.912c-.1.016-.128.064-.1.16l.016.048a.117.117,0,0,0,.144.1c4.72-.656,7.664-1.968,9.792-4.656a1.35,1.35,0,0,0,.624-.128.114.114,0,0,0,.048-.16,2.825,2.825,0,0,0-1.024-1.024c-.128,0-.24.176-.4.352l-.272.336ZM-31,.144a.81.81,0,0,0,.272-.08c3.984-1.76,6.976-3.7,9.232-8.032.4-.752,1.008-1.04,1.008-1.5,0-.48-1.152-1.328-1.52-1.328a8.637,8.637,0,0,0-1.328.448c-.688.192-5.552.512-5.776.512a2.585,2.585,0,0,1-1.04-.208,1.018,1.018,0,0,0-.384-.112.147.147,0,0,0-.16.16A1.93,1.93,0,0,0-30.1-8.88a1.325,1.325,0,0,0,.864.272,2.485,2.485,0,0,0,.64-.1A42.076,42.076,0,0,1-22.3-9.76c.08,0,.16.016.16.144-.048.88-2.56,6.464-8.656,9.408-.256.128-.32.208-.32.272C-31.112.112-31.064.144-31,.144ZM-6.136-6.608a6.954,6.954,0,0,0-.912.208c-.16.032-.48.08-.9.128-.016-.448-.016-.8-.016-.976a1.1,1.1,0,0,1,.1-.592.493.493,0,0,0,.048-.208c0-.16-.1-.336-.368-.512a1.7,1.7,0,0,0-.928-.224.673.673,0,0,0-.528.16c-.048.048-.064.08-.032.144a.666.666,0,0,0,.24.16,1.209,1.209,0,0,1,.4.3,2.357,2.357,0,0,1,.352,1.5v.336c-1.424.176-3.248.368-3.552.368a3.774,3.774,0,0,1-.784-.08,2.627,2.627,0,0,0-.3-.064c-.08,0-.112.048-.112.1a.577.577,0,0,0,.128.24,1.365,1.365,0,0,0,1.216.656,1.917,1.917,0,0,0,.576-.08A16.718,16.718,0,0,1-9.1-5.552,13.815,13.815,0,0,1-14.12-.336c-.128.08-.16.128-.16.192a.114.114,0,0,0,.128.112.317.317,0,0,0,.176-.048A15.079,15.079,0,0,0-8.616-4.5c.064,1.312.144,2.656.144,2.944,0,.336-.048.512-.368.512a1.945,1.945,0,0,1-.8-.192.553.553,0,0,0-.192-.048.073.073,0,0,0-.08.064c0,.032.048.1.128.176a5.4,5.4,0,0,1,.72.592c.432.448.4.944.544,1.2a.26.26,0,0,0,.256.16c.368,0,.688-.672.688-1.52,0-1.088-.272-2.752-.352-4.8v-.224l-.016-.048c.432-.032.848-.048,1.232-.048.512,0,.848.048,1.072.048.384,0,.544-.08.544-.32C-5.1-6.416-5.832-6.608-6.136-6.608Zm12.592-1.1c0-1.264.032-2.272.032-2.464a8.119,8.119,0,0,1,.128-1.264,2.427,2.427,0,0,0,.048-.336.57.57,0,0,0-.176-.416,1.187,1.187,0,0,0-.9-.352c-.176,0-.88.032-.88.32,0,.064.064.112.128.16a1.288,1.288,0,0,1,.656.944c.048.416.064,1.28.064,2.32,0,1.008,0,2.192-.048,3.264-.064,1.408-.1,2.64-.128,3.088-.064.816-.16.928-.16,1.168,0,.288.368,1.808.88,1.808A.831.831,0,0,0,6.7-.288a6.971,6.971,0,0,0-.176-1.12c-.064-.336-.08-1.616-.08-3.12,0-.848.016-1.776.016-2.624v-.272A7.2,7.2,0,0,1,9.128-5.312c.4.5.784.864,1.136.864.272,0,.48-.272.48-.624C10.744-6.464,8.152-7.36,6.456-7.712Zm16.7,4.96.016-.08c0-.08-.048-.112-.192-.16a.594.594,0,0,0-.144-.032.117.117,0,0,0-.112.1c-.544,1.472-.912,1.76-3.2,1.76h-1.9a11.859,11.859,0,0,1,2.4-3.344c1.872-1.84,3.056-2.464,3.056-4.24a2.856,2.856,0,0,0-3.152-3.008A3.046,3.046,0,0,0,16.7-8.944c0,.768.464,1.168.848,1.168a.794.794,0,0,0,.832-.848c0-.576-.464-.72-.464-1.312,0-.736.8-1.3,1.808-1.3A1.96,1.96,0,0,1,21.7-9.056c0,1.344-.88,2.5-2.224,4.064a15.575,15.575,0,0,0-2.944,4.56.273.273,0,0,0,0,.16l.08.176a.176.176,0,0,0,.16.1h5.6a.137.137,0,0,0,.144-.112C22.632-.576,23.048-2.336,23.16-2.752ZM28.52.224c1.744,0,3.424-1.92,3.424-5.968S30.28-11.76,28.552-11.76c-1.744,0-3.424,1.968-3.424,6.016S26.792.224,28.52.224Zm.032-.544c-1.2,0-2.032-1.68-2.032-5.424s.832-5.456,2.032-5.456,2,1.712,2,5.456S29.752-.32,28.552-.32ZM40.616-2.752l.016-.08c0-.08-.048-.112-.192-.16a.594.594,0,0,0-.144-.032.117.117,0,0,0-.112.1c-.544,1.472-.912,1.76-3.2,1.76h-1.9a11.859,11.859,0,0,1,2.4-3.344c1.872-1.84,3.056-2.464,3.056-4.24a2.856,2.856,0,0,0-3.152-3.008,3.046,3.046,0,0,0-3.232,2.816c0,.768.464,1.168.848,1.168a.794.794,0,0,0,.832-.848c0-.576-.464-.72-.464-1.312,0-.736.8-1.3,1.808-1.3A1.96,1.96,0,0,1,39.16-9.056c0,1.344-.88,2.5-2.224,4.064a15.575,15.575,0,0,0-2.944,4.56.273.273,0,0,0,0,.16l.08.176a.176.176,0,0,0,.16.1h5.6a.137.137,0,0,0,.144-.112C40.088-.576,40.5-2.336,40.616-2.752Zm5.808-3.392A2.767,2.767,0,0,0,49-8.928a2.865,2.865,0,0,0-3.056-2.832,2.781,2.781,0,0,0-2.88,2.208.909.909,0,0,0,.928,1.008.644.644,0,0,0,.64-.688c0-.384-.24-.48-.24-.96,0-.912.96-1.024,1.344-1.024.816,0,1.888.48,1.888,2.432,0,2.3-1.5,2.368-1.92,2.368-.288,0-.512-.08-.816-.08a.371.371,0,0,0-.416.336c0,.208.176.336.416.336.288,0,.5-.064.72-.064A2.355,2.355,0,0,1,48.024-3.28c0,1.744-1.04,2.976-2.464,2.976-1.344,0-1.6-.768-1.6-1.232,0-.4.368-.544.368-.944a.812.812,0,0,0-.88-.768c-.352,0-.816.256-.816,1.008,0,.9.7,2.464,3.072,2.464a3.35,3.35,0,0,0,3.712-3.392C49.416-4.784,48.12-5.84,46.424-6.144Z"
        transform="translate(872 2787)" fill="#a0882e" />
      <g id="グループ_1697" data-name="グループ 1697" transform="translate(741.327 2762.195)">
        <g id="グループ_1589" data-name="グループ 1589" transform="translate(5.838 6.96)">
          <g id="グループ_1588" data-name="グループ 1588" transform="translate(0 0)"
            clip-path="url(#clip-path)">
            <rect id="長方形_887" data-name="長方形 887" width="15.845" height="53.089"
              transform="translate(-0.092 0)" fill="url(#linear-gradient)" />
          </g>
        </g>
        <g id="グループ_1591" data-name="グループ 1591" transform="translate(21.909 2.542)">
          <g id="グループ_1590" data-name="グループ 1590" transform="translate(0 0)"
            clip-path="url(#clip-path-2)">
            <rect id="長方形_888" data-name="長方形 888" width="5.812" height="4.512"
              transform="translate(0 0)" fill="url(#linear-gradient)" />
          </g>
        </g>
        <g id="グループ_1593" data-name="グループ 1593" transform="translate(18.78 0)">
          <g id="グループ_1592" data-name="グループ 1592" transform="translate(0)"
            clip-path="url(#clip-path-3)">
            <rect id="長方形_889" data-name="長方形 889" width="3.432" height="7.645"
              transform="translate(-0.581 0)" fill="url(#linear-gradient)" />
          </g>
        </g>
        <g id="グループ_1595" data-name="グループ 1595" transform="translate(15.262 2.418)">
          <g id="グループ_1594" data-name="グループ 1594" transform="translate(0 0)"
            clip-path="url(#clip-path-4)">
            <rect id="長方形_890" data-name="長方形 890" width="3.432" height="7.646"
              transform="translate(-0.581 0)" fill="url(#linear-gradient)" />
          </g>
        </g>
        <g id="グループ_1597" data-name="グループ 1597" transform="translate(11.729 5.761)">
          <g id="グループ_1596" data-name="グループ 1596" transform="translate(0 0)"
            clip-path="url(#clip-path-5)">
            <rect id="長方形_891" data-name="長方形 891" width="3.431" height="7.644"
              transform="translate(-0.582 0)" fill="url(#linear-gradient)" />
          </g>
        </g>
        <g id="グループ_1599" data-name="グループ 1599" transform="translate(8.26 9.557)">
          <g id="グループ_1598" data-name="グループ 1598" transform="translate(0 0)"
            clip-path="url(#clip-path-6)">
            <rect id="長方形_892" data-name="長方形 892" width="2.787" height="7.802"
              transform="translate(-0.284 0)" fill="url(#linear-gradient)" />
          </g>
        </g>
        <g id="グループ_1601" data-name="グループ 1601" transform="translate(5.838 14.457)">
          <g id="グループ_1600" data-name="グループ 1600" transform="translate(0 0)"
            clip-path="url(#clip-path-7)">
            <rect id="長方形_893" data-name="長方形 893" width="2.787" height="7.802"
              transform="translate(-0.285 0)" fill="url(#linear-gradient)" />
          </g>
        </g>
        <g id="グループ_1603" data-name="グループ 1603" transform="translate(1.74 21.394)">
          <g id="グループ_1602" data-name="グループ 1602" transform="translate(0 0)"
            clip-path="url(#clip-path-8)">
            <rect id="長方形_894" data-name="長方形 894" width="4.625" height="5.64"
              transform="translate(-0.076)" fill="url(#linear-gradient)" />
          </g>
        </g>
        <g id="グループ_1605" data-name="グループ 1605" transform="translate(0.509 26.327)">
          <g id="グループ_1604" data-name="グループ 1604" transform="translate(0 0)"
            clip-path="url(#clip-path-9)">
            <rect id="長方形_895" data-name="長方形 895" width="5.206" height="6.349"
              transform="translate(-0.086 0)" fill="url(#linear-gradient)" />
          </g>
        </g>
        <g id="グループ_1607" data-name="グループ 1607" transform="translate(0.12 32.462)">
          <g id="グループ_1606" data-name="グループ 1606" transform="translate(0 0)"
            clip-path="url(#clip-path-10)">
            <rect id="長方形_896" data-name="長方形 896" width="5.741" height="7.001"
              transform="translate(-0.095 0)" fill="url(#linear-gradient)" />
          </g>
        </g>
        <g id="グループ_1609" data-name="グループ 1609" transform="translate(0 39.81)">
          <g id="グループ_1608" data-name="グループ 1608" transform="translate(0 0)"
            clip-path="url(#clip-path-11)">
            <rect id="長方形_897" data-name="長方形 897" width="7.125" height="5.705"
              fill="url(#linear-gradient)" />
          </g>
        </g>
        <g id="グループ_1611" data-name="グループ 1611" transform="translate(0.216 45.637)">
          <g id="グループ_1610" data-name="グループ 1610" transform="translate(0 0)"
            clip-path="url(#clip-path-12)">
            <rect id="長方形_898" data-name="長方形 898" width="9.085" height="6.001"
              transform="translate(-0.233)" fill="url(#linear-gradient)" />
          </g>
        </g>
        <g id="グループ_1613" data-name="グループ 1613" transform="translate(1.508 52.536)">
          <g id="グループ_1612" data-name="グループ 1612" transform="translate(0 0)"
            clip-path="url(#clip-path-13)">
            <rect id="長方形_899" data-name="長方形 899" width="10.865" height="5.294"
              transform="translate(-0.202 0)" fill="url(#linear-gradient)" />
          </g>
        </g>
        <g id="グループ_1615" data-name="グループ 1615" transform="translate(4.923 57.373)">
          <g id="グループ_1614" data-name="グループ 1614" transform="translate(0 0)"
            clip-path="url(#clip-path-14)">
            <rect id="長方形_900" data-name="長方形 900" width="12.748" height="6.211"
              transform="translate(-0.237)" fill="url(#linear-gradient)" />
          </g>
        </g>
        <g id="グループ_1617" data-name="グループ 1617" transform="translate(19.824 7.833)">
          <g id="グループ_1616" data-name="グループ 1616" transform="translate(0 0)"
            clip-path="url(#clip-path-15)">
            <rect id="長方形_901" data-name="長方形 901" width="6.148" height="3.815"
              transform="translate(0 0)" fill="url(#linear-gradient)" />
          </g>
        </g>
        <g id="グループ_1619" data-name="グループ 1619" transform="translate(16.109 10.661)">
          <g id="グループ_1618" data-name="グループ 1618" transform="translate(0 0)"
            clip-path="url(#clip-path-16)">
            <rect id="長方形_902" data-name="長方形 902" width="6.149" height="3.815"
              transform="translate(0 0)" fill="url(#linear-gradient)" />
          </g>
        </g>
        <g id="グループ_1621" data-name="グループ 1621" transform="translate(13.261 13.833)">
          <g id="グループ_1620" data-name="グループ 1620" transform="translate(0 0)"
            clip-path="url(#clip-path-17)">
            <rect id="長方形_903" data-name="長方形 903" width="6.148" height="3.815"
              transform="translate(0 0)" fill="url(#linear-gradient)" />
          </g>
        </g>
        <g id="グループ_1623" data-name="グループ 1623" transform="translate(10.04 17.24)">
          <g id="グループ_1622" data-name="グループ 1622" transform="translate(0 0)"
            clip-path="url(#clip-path-18)">
            <rect id="長方形_904" data-name="長方形 904" width="6.577" height="3.136"
              transform="translate(0 0)" fill="url(#linear-gradient)" />
          </g>
        </g>
        <g id="グループ_1625" data-name="グループ 1625" transform="translate(8.357 20.846)">
          <g id="グループ_1624" data-name="グループ 1624" transform="translate(0 0)"
            clip-path="url(#clip-path-19)">
            <rect id="長方形_905" data-name="長方形 905" width="6.383" height="2.988"
              transform="translate(0)" fill="url(#linear-gradient)" />
          </g>
        </g>
        <g id="グループ_1627" data-name="グループ 1627" transform="translate(7.175 25.729)">
          <g id="グループ_1626" data-name="グループ 1626" transform="translate(0 0)"
            clip-path="url(#clip-path-20)">
            <rect id="長方形_906" data-name="長方形 906" width="6.382" height="2.988"
              transform="translate(0 0)" fill="url(#linear-gradient)" />
          </g>
        </g>
        <g id="グループ_1629" data-name="グループ 1629" transform="translate(6.839 29.427)">
          <g id="グループ_1628" data-name="グループ 1628" transform="translate(0 0)"
            clip-path="url(#clip-path-21)">
            <rect id="長方形_907" data-name="長方形 907" width="6.115" height="4.398"
              transform="translate(0 0)" fill="url(#linear-gradient)" />
          </g>
        </g>
        <g id="グループ_1631" data-name="グループ 1631" transform="translate(7.301 33.419)">
          <g id="グループ_1630" data-name="グループ 1630" transform="translate(0 0)"
            clip-path="url(#clip-path-22)">
            <rect id="長方形_908" data-name="長方形 908" width="5.461" height="5.535"
              transform="translate(0 0)" fill="url(#linear-gradient)" />
          </g>
        </g>
        <g id="グループ_1633" data-name="グループ 1633" transform="translate(8.89 37.141)">
          <g id="グループ_1632" data-name="グループ 1632" transform="translate(0 0)"
            clip-path="url(#clip-path-23)">
            <rect id="長方形_909" data-name="長方形 909" width="4.594" height="8.969"
              transform="translate(-0.627 0)" fill="url(#linear-gradient)" />
          </g>
        </g>
        <g id="グループ_1635" data-name="グループ 1635" transform="translate(11.694 41.869)">
          <g id="グループ_1634" data-name="グループ 1634" transform="translate(0 0)"
            clip-path="url(#clip-path-24)">
            <rect id="長方形_910" data-name="長方形 910" width="4.544" height="10.303"
              transform="translate(-0.775)" fill="url(#linear-gradient)" />
          </g>
        </g>
        <g id="グループ_1637" data-name="グループ 1637" transform="translate(15.679 45.063)">
          <g id="グループ_1636" data-name="グループ 1636" transform="translate(0 0)"
            clip-path="url(#clip-path-25)">
            <rect id="長方形_911" data-name="長方形 911" width="5.178" height="12.529"
              transform="translate(-0.856 0)" fill="url(#linear-gradient)" />
          </g>
        </g>
        <g id="グループ_1639" data-name="グループ 1639" transform="translate(11.247 60.918)">
          <g id="グループ_1638" data-name="グループ 1638" transform="translate(0 0)"
            clip-path="url(#clip-path-26)">
            <rect id="長方形_912" data-name="長方形 912" width="11.915" height="7.007"
              transform="translate(-0.172)" fill="url(#linear-gradient)" />
          </g>
        </g>
        <g id="グループ_1641" data-name="グループ 1641" transform="translate(19.97 47.574)">
          <g id="グループ_1640" data-name="グループ 1640" transform="translate(0 0)"
            clip-path="url(#clip-path-27)">
            <rect id="長方形_913" data-name="長方形 913" width="4.485" height="12.508"
              transform="translate(-0.469)" fill="url(#linear-gradient)" />
          </g>
        </g>
      </g>
      <g id="グループ_1698" data-name="グループ 1698" transform="translate(975 2762.195)">
        <g id="グループ_1589-2" data-name="グループ 1589" transform="translate(6.083 6.96)">
          <g id="グループ_1588-2" data-name="グループ 1588" transform="translate(0 0)"
            clip-path="url(#clip-path-28)">
            <rect id="長方形_887-2" data-name="長方形 887" width="15.845" height="53.089"
              transform="translate(0 0)" fill="url(#linear-gradient)" />
          </g>
        </g>
        <g id="グループ_1591-2" data-name="グループ 1591" transform="translate(0 2.542)">
          <g id="グループ_1590-2" data-name="グループ 1590" transform="translate(0 0)"
            clip-path="url(#clip-path-29)">
            <rect id="長方形_888-2" data-name="長方形 888" width="5.812" height="4.512"
              transform="translate(-0.048 0)" fill="url(#linear-gradient)" />
          </g>
        </g>
        <g id="グループ_1593-2" data-name="グループ 1593" transform="translate(6.185 0)">
          <g id="グループ_1592-2" data-name="グループ 1592" clip-path="url(#clip-path-30)">
            <rect id="長方形_889-2" data-name="長方形 889" width="3.432" height="7.645"
              transform="translate(-0.143 0)" fill="url(#linear-gradient)" />
          </g>
        </g>
        <g id="グループ_1595-2" data-name="グループ 1595" transform="translate(9.703 2.418)">
          <g id="グループ_1594-2" data-name="グループ 1594" transform="translate(0 0)"
            clip-path="url(#clip-path-31)">
            <rect id="長方形_890-2" data-name="長方形 890" width="3.432" height="7.646"
              transform="translate(-0.143 0)" fill="url(#linear-gradient)" />
          </g>
        </g>
        <g id="グループ_1597-2" data-name="グループ 1597" transform="translate(13.237 5.761)">
          <g id="グループ_1596-2" data-name="グループ 1596" transform="translate(0 0)"
            clip-path="url(#clip-path-32)">
            <rect id="長方形_891-2" data-name="長方形 891" width="3.431" height="7.644"
              transform="translate(-0.142 0)" fill="url(#linear-gradient)" />
          </g>
        </g>
        <g id="グループ_1599-2" data-name="グループ 1599" transform="translate(17.022 9.557)">
          <g id="グループ_1598-2" data-name="グループ 1598" transform="translate(0 0)"
            clip-path="url(#clip-path-33)">
            <rect id="長方形_892-2" data-name="長方形 892" width="2.787" height="7.802"
              transform="translate(-0.112 0)" fill="url(#linear-gradient)" />
          </g>
        </g>
        <g id="グループ_1601-2" data-name="グループ 1601" transform="translate(19.446 14.457)">
          <g id="グループ_1600-2" data-name="グループ 1600" transform="translate(0 0)"
            clip-path="url(#clip-path-34)">
            <rect id="長方形_893-2" data-name="長方形 893" width="2.787" height="7.802"
              transform="translate(-0.113 0)" fill="url(#linear-gradient)" />
          </g>
        </g>
        <g id="グループ_1603-2" data-name="グループ 1603" transform="translate(21.384 21.394)">
          <g id="グループ_1602-2" data-name="グループ 1602" transform="translate(0 0)"
            clip-path="url(#clip-path-35)">
            <rect id="長方形_894-2" data-name="長方形 894" width="4.625" height="5.64"
              transform="translate(0)" fill="url(#linear-gradient)" />
          </g>
        </g>
        <g id="グループ_1605-2" data-name="グループ 1605" transform="translate(22.045 26.327)">
          <g id="グループ_1604-2" data-name="グループ 1604" transform="translate(0 0)"
            clip-path="url(#clip-path-36)">
            <rect id="長方形_895-2" data-name="長方形 895" width="5.206" height="6.349"
              transform="translate(0 0)" fill="url(#linear-gradient)" />
          </g>
        </g>
        <g id="グループ_1607-2" data-name="グループ 1607" transform="translate(21.907 32.462)">
          <g id="グループ_1606-2" data-name="グループ 1606" transform="translate(0 0)"
            clip-path="url(#clip-path-37)">
            <rect id="長方形_896-2" data-name="長方形 896" width="5.741" height="7"
              transform="translate(0 0)" fill="url(#linear-gradient)" />
          </g>
        </g>
        <g id="グループ_1609-2" data-name="グループ 1609" transform="translate(20.548 39.81)">
          <g id="グループ_1608-2" data-name="グループ 1608" transform="translate(0 0)"
            clip-path="url(#clip-path-38)">
            <rect id="長方形_897-2" data-name="長方形 897" width="7.125" height="5.705"
              fill="url(#linear-gradient)" />
          </g>
        </g>
        <g id="グループ_1611-2" data-name="グループ 1611" transform="translate(18.605 45.636)">
          <g id="グループ_1610-2" data-name="グループ 1610" transform="translate(0 0)"
            clip-path="url(#clip-path-39)">
            <rect id="長方形_898-2" data-name="長方形 898" width="9.085" height="6.001"
              transform="translate(0)" fill="url(#linear-gradient)" />
          </g>
        </g>
        <g id="グループ_1613-2" data-name="グループ 1613" transform="translate(15.502 52.535)">
          <g id="グループ_1612-2" data-name="グループ 1612" transform="translate(0 0)"
            clip-path="url(#clip-path-40)">
            <rect id="長方形_899-2" data-name="長方形 899" width="10.865" height="5.294"
              transform="translate(0 0)" fill="url(#linear-gradient)" />
          </g>
        </g>
        <g id="グループ_1615-2" data-name="グループ 1615" transform="translate(10.238 57.373)">
          <g id="グループ_1614-2" data-name="グループ 1614" transform="translate(0 0)"
            clip-path="url(#clip-path-41)">
            <rect id="長方形_900-2" data-name="長方形 900" width="12.748" height="6.211"
              transform="translate(0)" fill="url(#linear-gradient)" />
          </g>
        </g>
        <g id="グループ_1617-2" data-name="グループ 1617" transform="translate(1.865 7.833)">
          <g id="グループ_1616-2" data-name="グループ 1616" transform="translate(0 0)"
            clip-path="url(#clip-path-42)">
            <rect id="長方形_901-2" data-name="長方形 901" width="6.148" height="3.815"
              transform="translate(-0.165 0)" fill="url(#linear-gradient)" />
          </g>
        </g>
        <g id="グループ_1619-2" data-name="グループ 1619" transform="translate(5.58 10.661)">
          <g id="グループ_1618-2" data-name="グループ 1618" transform="translate(0 0)"
            clip-path="url(#clip-path-43)">
            <rect id="長方形_902-2" data-name="長方形 902" width="6.149" height="3.815"
              transform="translate(-0.165 0)" fill="url(#linear-gradient)" />
          </g>
        </g>
        <g id="グループ_1621-2" data-name="グループ 1621" transform="translate(8.43 13.833)">
          <g id="グループ_1620-2" data-name="グループ 1620" transform="translate(0 0)"
            clip-path="url(#clip-path-44)">
            <rect id="長方形_903-2" data-name="長方形 903" width="6.148" height="3.815"
              transform="translate(-0.165 0)" fill="url(#linear-gradient)" />
          </g>
        </g>
        <g id="グループ_1623-2" data-name="グループ 1623" transform="translate(11.193 17.24)">
          <g id="グループ_1622-2" data-name="グループ 1622" transform="translate(0 0)"
            clip-path="url(#clip-path-45)">
            <rect id="長方形_904-2" data-name="長方形 904" width="6.577" height="3.136"
              transform="translate(-0.138 0)" fill="url(#linear-gradient)" />
          </g>
        </g>
        <g id="グループ_1625-2" data-name="グループ 1625" transform="translate(13.047 20.846)">
          <g id="グループ_1624-2" data-name="グループ 1624" transform="translate(0 0)"
            clip-path="url(#clip-path-46)">
            <rect id="長方形_905-2" data-name="長方形 905" width="6.383" height="2.988"
              transform="translate(-0.113)" fill="url(#linear-gradient)" />
          </g>
        </g>
        <g id="グループ_1627-2" data-name="グループ 1627" transform="translate(14.229 25.729)">
          <g id="グループ_1626-2" data-name="グループ 1626" transform="translate(0 0)"
            clip-path="url(#clip-path-47)">
            <rect id="長方形_906-2" data-name="長方形 906" width="6.382" height="2.988"
              transform="translate(-0.113 0)" fill="url(#linear-gradient)" />
          </g>
        </g>
        <g id="グループ_1629-2" data-name="グループ 1629" transform="translate(14.771 29.427)">
          <g id="グループ_1628-2" data-name="グループ 1628" transform="translate(0 0)"
            clip-path="url(#clip-path-48)">
            <rect id="長方形_907-2" data-name="長方形 907" width="6.115" height="4.398"
              transform="translate(-0.053 0)" fill="url(#linear-gradient)" />
          </g>
        </g>
        <g id="グループ_1631-2" data-name="グループ 1631" transform="translate(14.958 33.419)">
          <g id="グループ_1630-2" data-name="グループ 1630" transform="translate(0 0)"
            clip-path="url(#clip-path-49)">
            <rect id="長方形_908-2" data-name="長方形 908" width="5.461" height="5.535"
              transform="translate(-0.047 0)" fill="url(#linear-gradient)" />
          </g>
        </g>
        <g id="グループ_1633-2" data-name="グループ 1633" transform="translate(14.901 37.141)">
          <g id="グループ_1632-2" data-name="グループ 1632" transform="translate(0 0)"
            clip-path="url(#clip-path-50)">
            <rect id="長方形_909-2" data-name="長方形 909" width="4.594" height="8.969"
              transform="translate(-0.084 0)" fill="url(#linear-gradient)" />
          </g>
        </g>
        <g id="グループ_1635-2" data-name="グループ 1635" transform="translate(12.423 41.869)">
          <g id="グループ_1634-2" data-name="グループ 1634" transform="translate(0 0)"
            clip-path="url(#clip-path-51)">
            <rect id="長方形_910-2" data-name="長方形 910" width="4.544" height="10.303"
              transform="translate(-0.214)" fill="url(#linear-gradient)" />
          </g>
        </g>
        <g id="グループ_1637-2" data-name="グループ 1637" transform="translate(7.984 45.063)">
          <g id="グループ_1636-2" data-name="グループ 1636" transform="translate(0 0)"
            clip-path="url(#clip-path-52)">
            <rect id="長方形_911-2" data-name="長方形 911" width="5.178" height="12.529"
              transform="translate(-0.312 0)" fill="url(#linear-gradient)" />
          </g>
        </g>
        <g id="グループ_1639-2" data-name="グループ 1639" transform="translate(4.683 60.918)">
          <g id="グループ_1638-2" data-name="グループ 1638" transform="translate(0 0)"
            clip-path="url(#clip-path-53)">
            <rect id="長方形_912-2" data-name="長方形 912" width="11.915" height="7.007"
              transform="translate(0)" fill="url(#linear-gradient)" />
          </g>
        </g>
        <g id="グループ_1641-2" data-name="グループ 1641" transform="translate(3.874 47.574)">
          <g id="グループ_1640-2" data-name="グループ 1640" transform="translate(0 0)"
            clip-path="url(#clip-path-54)">
            <rect id="長方形_913-2" data-name="長方形 913" width="4.485" height="12.508"
              transform="translate(-0.186)" fill="url(#linear-gradient)" />
          </g>
        </g>
      </g>
    </g>
  </g>
</svg>