<svg xmlns="http://www.w3.org/2000/svg" width="16.086" height="17.758" viewBox="0 0 16.086 17.758">
  <g id="noun-menu-5832884" transform="translate(-16.61 -13.139)">
    <g id="グループ_1727" data-name="グループ 1727" transform="translate(16.61 13.139)">
      <path id="パス_904" data-name="パス 904" d="M24.682,28.425l3.955,1.212a.324.324,0,0,0,.084.012.3.3,0,0,0,.171-.055.287.287,0,0,0,.116-.231V26.447a.289.289,0,0,0-.2-.275l-3.955-1.212A.293.293,0,0,0,24.6,25a.287.287,0,0,0-.116.231V28.15A.285.285,0,0,0,24.682,28.425Zm.371-2.8,3.382,1.036v2.315l-3.382-1.036Z" transform="translate(-22.584 -22.104)" fill="#cbd6d0"/>
      <path id="パス_905" data-name="パス 905" d="M28.8,47.022,24.85,45.811a.287.287,0,1,0-.169.549l3.955,1.212a.255.255,0,0,0,.084.012.287.287,0,0,0,.084-.561Z" transform="translate(-22.583 -37.931)" fill="#cbd6d0"/>
      <path id="パス_906" data-name="パス 906" d="M28.8,53.652,24.85,52.441a.287.287,0,1,0-.169.549L28.636,54.2a.255.255,0,0,0,.084.012.287.287,0,0,0,.084-.561Z" transform="translate(-22.583 -42.964)" fill="#cbd6d0"/>
      <path id="パス_907" data-name="パス 907" d="M28.8,60.272,24.85,59.061a.287.287,0,1,0-.169.549l3.955,1.212a.255.255,0,0,0,.084.012.287.287,0,0,0,.084-.561Z" transform="translate(-22.583 -47.99)" fill="#cbd6d0"/>
      <path id="パス_908" data-name="パス 908" d="M28.8,66.9,24.85,65.691a.287.287,0,1,0-.169.549l3.955,1.212a.255.255,0,0,0,.084.012A.287.287,0,0,0,28.8,66.9Z" transform="translate(-22.583 -53.023)" fill="#cbd6d0"/>
      <path id="パス_909" data-name="パス 909" d="M32.58,13.194a.292.292,0,0,0-.255-.043L24.653,15.5l-7.672-2.351a.293.293,0,0,0-.255.043.287.287,0,0,0-.116.231V28.237a.289.289,0,0,0,.2.275l7.747,2.373a.292.292,0,0,0,.181,0s0,0,.007,0l7.747-2.373a.285.285,0,0,0,.2-.275V13.426A.291.291,0,0,0,32.58,13.194ZM24.357,30.222l-7.173-2.2V13.813l7.173,2.2Zm7.766-2.2-7.192,2.2V16.017l7.192-2.2Z" transform="translate(-16.61 -13.139)" fill="#cbd6d0"/>
      <path id="パス_910" data-name="パス 910" d="M57.005,47.584a.339.339,0,0,0,.084-.012l3.955-1.212a.287.287,0,1,0-.169-.549l-3.955,1.212a.287.287,0,0,0,.084.561Z" transform="translate(-47.057 -37.931)" fill="#cbd6d0"/>
      <path id="パス_911" data-name="パス 911" d="M57.005,54.214a.339.339,0,0,0,.084-.012l3.955-1.212a.287.287,0,1,0-.169-.549l-3.955,1.212a.287.287,0,0,0,.084.561Z" transform="translate(-47.057 -42.964)" fill="#cbd6d0"/>
      <path id="パス_912" data-name="パス 912" d="M57.005,60.834a.339.339,0,0,0,.084-.012l3.955-1.212a.287.287,0,0,0-.169-.549l-3.955,1.212a.287.287,0,0,0,.084.561Z" transform="translate(-47.057 -47.99)" fill="#cbd6d0"/>
      <path id="パス_913" data-name="パス 913" d="M60.876,65.688,56.921,66.9a.287.287,0,0,0,.084.561.339.339,0,0,0,.084-.012l3.955-1.214a.286.286,0,1,0-.169-.547Z" transform="translate(-47.057 -53.02)" fill="#cbd6d0"/>
    </g>
  </g>
</svg>
