<svg xmlns="http://www.w3.org/2000/svg" xmlns:xlink="http://www.w3.org/1999/xlink" width="15.361" height="21.903" viewBox="0 0 15.361 21.903">
  <defs>
    <linearGradient id="linear-gradient" x1="0.5" x2="0.5" y2="1" gradientUnits="objectBoundingBox">
      <stop offset="0" stop-color="#254db1"/>
      <stop offset="1" stop-color="#bc2ef9"/>
      <stop offset="1" stop-color="#c52cfd"/>
    </linearGradient>
  </defs>
  <g id="noun-lamp-5736088" transform="translate(-20.033 -7.276)">
    <g id="グループ_1733" data-name="グループ 1733" transform="translate(20.033 7.276)">
      <path id="パス_941" data-name="パス 941" d="M39.519,28.059a7.681,7.681,0,1,0-11.977,0,9.181,9.181,0,0,1,1.969,5.75.326.326,0,0,0,.324.324h7.391a.326.326,0,0,0,.324-.324A9.181,9.181,0,0,1,39.519,28.059Zm-2.611,5.426H34.765V28.326l1.53-1.692a.324.324,0,0,0-.48-.436L34.2,27.983a.323.323,0,0,0-.083.216v5.286H32.942V28.2a.323.323,0,0,0-.083-.216L31.247,26.2a.324.324,0,0,0-.48.436L32.3,28.33v5.155H30.153a9.777,9.777,0,0,0-2.105-5.833,6.945,6.945,0,0,1-1.549-4.4,7.035,7.035,0,1,1,14.07,0,6.945,6.945,0,0,1-1.549,4.4A9.777,9.777,0,0,0,36.908,33.485Z" transform="translate(-25.85 -15.57)" fill="url(#linear-gradient)"/>
      <path id="パス_942" data-name="パス 942" d="M63.882,30.244a.326.326,0,0,0,.324-.324,6.131,6.131,0,0,0-1.921-4.481.324.324,0,0,0-.448.468,5.5,5.5,0,0,1,1.721,4.017A.325.325,0,0,0,63.882,30.244Z" transform="translate(-50.325 -22.239)" fill="url(#linear-gradient)"/>
      <path id="パス_943" data-name="パス 943" d="M45.082,78.04H37.694a.324.324,0,1,0,0,.649h2.179a1.523,1.523,0,0,0,3.034,0h2.179a.324.324,0,1,0,0-.649Zm-3.7,1.387a.882.882,0,0,1-.868-.738h1.733A.876.876,0,0,1,41.387,79.427Z" transform="translate(-33.706 -58.172)" fill="url(#linear-gradient)"/>
    </g>
  </g>
</svg>
