<svg xmlns="http://www.w3.org/2000/svg" width="18.643" height="18.56" viewBox="0 0 18.643 18.56">
  <g id="noun-party-5832919" transform="translate(-10.391 -10.569)">
    <g id="グループ_1739" data-name="グループ 1739" transform="translate(10.391 10.569)">
      <path id="パス_962" data-name="パス 962" d="M54.124,50.01a.182.182,0,0,0-.016-.038l-1.381-3.224a.28.28,0,0,0-.365-.148.277.277,0,0,0-.026.012l-.028.014a.293.293,0,0,0-.047.024,12.6,12.6,0,0,0-1.45.828.306.306,0,0,0-.035.024,11.428,11.428,0,0,0-1.706,1.4,11.748,11.748,0,0,0-2.3,3.28.279.279,0,0,0,.132.372l.012,0h0l3.9,1.673a.182.182,0,0,0,.038.016l.824.353.6.254a.182.182,0,0,0,.038.016l1.419.607a.182.182,0,0,0,.038.016l2.676,1.146a.276.276,0,0,0,.365-.148.282.282,0,0,0,0-.219l-2.043-4.765Zm-6.37,2.3-.351-.151c.111-.219.228-.435.351-.642Zm1.457.624-.9-.386V50.657a11.315,11.315,0,0,1,.9-1.1Zm1.457.626-.9-.386v-4.17a10.541,10.541,0,0,1,.9-.744Zm1.457.624-.226-.1-.673-.287V47.873c.287-.188.588-.365.9-.529v6.841Zm1.457.624-.9-.384V48.061l.9,2.094Zm2.014.047.428,1-.428-.184Zm-.558.577-.9-.386V51.46l.115.271.784,1.826Z" transform="translate(-38.19 -38.105)" fill="#cbd6d0"/>
      <path id="パス_963" data-name="パス 963" d="M40.907,41.472a.28.28,0,0,0,.4-.4l-.791-.791a.28.28,0,0,0-.4.4Z" transform="translate(-33.059 -33.231)" fill="#cbd6d0"/>
      <path id="パス_964" data-name="パス 964" d="M53.35,13.489a.276.276,0,0,0,.393.012.3.3,0,0,0,.061-.085l.3-.645.647-.306A.28.28,0,0,0,54.823,12l-.515-.485-.089-.708a.275.275,0,0,0-.311-.24.288.288,0,0,0-.1.033h0l-.628.344-.7-.134a.282.282,0,0,0-.325.332l.132.7-.344.628a.282.282,0,0,0,.111.379.269.269,0,0,0,.118.033l.428.054a5.751,5.751,0,0,0,1.038,6.175.28.28,0,0,0,.4-.4,5.16,5.16,0,0,1-.944-5.5Zm-.725-1.111.2-.358h0a.279.279,0,0,0,.031-.186l-.075-.4.391.073a.273.273,0,0,0,.2-.028l.358-.2.049.388a.276.276,0,0,0,.087.184l.3.278-.367.172a.275.275,0,0,0-.134.134l-.174.367-.275-.292,0,0,0,0a.313.313,0,0,0-.082-.061.268.268,0,0,0-.1-.026Z" transform="translate(-42.137 -10.569)" fill="#cbd6d0"/>
      <path id="パス_965" data-name="パス 965" d="M49.3,49.862a.28.28,0,0,0,.4-.4l-.791-.791a.28.28,0,0,0-.4.4Z" transform="translate(-39.475 -39.647)" fill="#cbd6d0"/>
      <path id="パス_966" data-name="パス 966" d="M13.24,53.974a.269.269,0,0,0,.085-.061.276.276,0,0,0-.012-.393l-.28-.264a5.16,5.16,0,0,1,5.5.944.28.28,0,0,0,.4-.4,5.742,5.742,0,0,0-6.175-1.038l-.054-.428a.3.3,0,0,0-.033-.118.281.281,0,0,0-.379-.111l-.628.344-.7-.132a.282.282,0,0,0-.332.325l.136.7-.344.628h0a.288.288,0,0,0-.033.1.278.278,0,0,0,.24.311l.708.089.485.515a.253.253,0,0,0,.089.066.278.278,0,0,0,.372-.134l.306-.647Zm-.974-.155a.275.275,0,0,0-.134.134l-.172.367-.278-.3a.281.281,0,0,0-.184-.087l-.388-.049.2-.358a.285.285,0,0,0,.028-.2l-.073-.391.4.075a.279.279,0,0,0,.186-.031h0l.358-.2.049.388a.306.306,0,0,0,.026.1.26.26,0,0,0,.061.082l0,0,0,0,.292.275Z" transform="translate(-10.391 -42.309)" fill="#cbd6d0"/>
      <path id="パス_967" data-name="パス 967" d="M23.734,21.974a.276.276,0,0,0-.012-.393l-.981-.925-.169-1.318a.3.3,0,0,0-.033-.118.281.281,0,0,0-.379-.111l-1.184.649-1.32-.249a.282.282,0,0,0-.332.325l.252,1.325-.649,1.184h0a.288.288,0,0,0-.033.1.278.278,0,0,0,.24.311l1.337.169.92.977a.253.253,0,0,0,.089.066.278.278,0,0,0,.372-.134l.449-.951.459.459a.28.28,0,1,0,.4-.4l-.459-.459.951-.447A.331.331,0,0,0,23.734,21.974Zm-1.614.167a.287.287,0,0,0-.1.064.3.3,0,0,0-.064.094l-.435.922-.713-.758a.281.281,0,0,0-.184-.087l-1.017-.129.5-.913a.285.285,0,0,0,.028-.2l-.193-1.012,1.021.193a.279.279,0,0,0,.186-.031h0l.911-.5.132,1.031a.285.285,0,0,0,.085.167h0l.758.713Z" transform="translate(-16.891 -17.075)" fill="#cbd6d0"/>
    </g>
  </g>
</svg>
