<svg xmlns="http://www.w3.org/2000/svg" width="15.221" height="23.057" viewBox="0 0 15.221 23.057">
  <g id="noun-medal-5674851" transform="translate(-2.588 21.822)">
    <path id="パス_940" data-name="パス 940" d="M28.159,26.585v0s0,0,0,.005a7.637,7.637,0,0,0,1.6,2.372c0,.005.006.012.012.018a.2.2,0,0,0,.018.012,7.646,7.646,0,0,0,2,1.429v8.284a.341.341,0,0,0,.526.286L35.1,37.186,38.007,39a.341.341,0,0,0,.521-.29V30.53a.333.333,0,0,0-.019-.1,7.644,7.644,0,0,0,2.016-1.439c.005,0,.012-.007.018-.012a.172.172,0,0,0,.012-.018,7.634,7.634,0,0,0,1.654-2.494.059.059,0,0,0,0-.008s0-.005,0-.008a7.6,7.6,0,0,0-.053-5.836v0s0,0,0,0a7.638,7.638,0,0,0-1.6-2.373c0-.006-.007-.013-.012-.018s-.012-.007-.018-.012a7.635,7.635,0,0,0-2.5-1.654l-.007,0s-.006,0-.009,0a7.6,7.6,0,0,0-5.834.053h0l0,0a7.638,7.638,0,0,0-2.372,1.6c-.006,0-.013.007-.018.012s-.007.012-.012.018a7.633,7.633,0,0,0-1.654,2.5s0,0,0,.007,0,.007,0,.01a7.594,7.594,0,0,0,.054,5.835Zm.466-5.266,1.473.6a5.3,5.3,0,0,0-.26,1.345h-1.59A6.881,6.881,0,0,1,28.625,21.32Zm1.408-2.362,1.124,1.124a5.347,5.347,0,0,0-.8,1.2l-1.475-.6a6.941,6.941,0,0,1,1.151-1.731Zm2.1-1.579.624,1.463a5.352,5.352,0,0,0-1.119.759l-1.124-1.124a6.941,6.941,0,0,1,1.619-1.1Zm7.671,1.1L38.681,19.6a5.349,5.349,0,0,0-1.2-.8l.6-1.475a6.942,6.942,0,0,1,1.73,1.151Zm1.58,2.1-1.464.623a5.348,5.348,0,0,0-.758-1.119l1.124-1.124A6.942,6.942,0,0,1,41.385,20.576Zm.311,5.309-1.473-.6a5.3,5.3,0,0,0,.26-1.345h1.591a6.876,6.876,0,0,1-.378,1.942Zm-1.409,2.362-1.124-1.124a5.351,5.351,0,0,0,.8-1.2l1.475.6A6.943,6.943,0,0,1,40.287,28.247ZM28.935,26.627,30.4,26a5.352,5.352,0,0,0,.758,1.119l-1.124,1.124A6.945,6.945,0,0,1,28.935,26.627Zm6.225-7.683A4.656,4.656,0,1,1,30.5,23.6,4.656,4.656,0,0,1,35.16,18.945ZM31.639,27.6a5.343,5.343,0,0,0,1.2.8l-.6,1.475a6.945,6.945,0,0,1-1.731-1.151Zm1.835,1.059a5.3,5.3,0,0,0,1.345.26v1.59a6.88,6.88,0,0,1-1.942-.377Zm2.027.26a5.3,5.3,0,0,0,1.434-.293l.624,1.463a6.879,6.879,0,0,1-2.059.42Zm2.685.9-.624-1.462a5.35,5.35,0,0,0,1.119-.759l1.124,1.124a6.945,6.945,0,0,1-1.619,1.1Zm3.885-6.564H40.481a5.3,5.3,0,0,0-.293-1.435l1.463-.624A6.874,6.874,0,0,1,42.072,23.261ZM36.845,18.54A5.3,5.3,0,0,0,35.5,18.28V16.69a6.879,6.879,0,0,1,1.942.377Zm-2.027-.26a5.294,5.294,0,0,0-1.434.293L32.76,17.11a6.876,6.876,0,0,1,2.059-.42Zm-4.98,5.662a5.3,5.3,0,0,0,.293,1.435L28.668,26a6.873,6.873,0,0,1-.42-2.059Zm2.635,6.78a7.557,7.557,0,0,0,2.284.48V36.6L32.474,38.08Zm2.965,5.869V31.205a7.565,7.565,0,0,0,2.407-.484v7.373Z" transform="translate(-24.962 -37.814)" fill="#cbd6d0"/>
  </g>
</svg>
