<svg xmlns="http://www.w3.org/2000/svg" width="11.235" height="18.882" viewBox="0 0 11.235 18.882">
  <g id="noun-brush-5628194" transform="translate(-28.265 -13.471)">
    <path id="パス_939" data-name="パス 939"
      d="M32.931,24.674h0a2.428,2.428,0,0,0-.718-.274l-.012,0h0l-.01,0-.012,0h0l-.009,0-.013,0h-.013l-.013,0h-.013l-.013,0h-.013l-.013,0h-.013l-.013,0h-.013l-.022,0h0l-.023,0h-.005a2.478,2.478,0,0,0-.708.023,2.437,2.437,0,0,0-1.45.838,3.9,3.9,0,0,0-.842,2.874,6.581,6.581,0,0,0,1.3,3.367,3.624,3.624,0,0,1,1.376-1.511l0,0a6.449,6.449,0,0,0,2.167-1.941,2.454,2.454,0,0,0-.2-2.748h0l-.037-.045,0,0-.008-.009-.008-.01h0l-.02-.023,0,0-.016-.018h0l-.008-.009-.008-.009,0-.005,0-.005-.008-.009-.007-.008h0l-.009-.009-.01-.008,0,0-.006-.006-.009-.009-.006-.007,0,0-.009-.009-.009-.009,0,0-.007-.007-.009-.009-.006-.005,0,0-.009-.009-.009-.009h0L33.369,25l-.009-.008-.009-.008-.009-.008-.009-.008h0l-.009-.008-.009-.008,0,0L33.3,24.94l-.01-.008-.009-.008,0,0-.01-.008-.01-.008-.01-.008-.01-.008-.01-.008-.01-.008-.01-.008h0l-.009-.007-.01-.008-.006,0,0,0-.01-.008-.01-.007-.01-.008-.009-.009,0,0-.006,0-.01-.007-.009-.005h0l-.01-.007-.01-.007,0,0-.007,0-.01-.007-.008-.006,0,0-.011-.007-.013-.009-.008-.005-.011-.007-.007,0,0,0L33,24.714l-.011-.007h0l-.01-.006-.011-.007-.006,0-.005,0-.011-.007Zm.714-.353.06.047m.978-4.459,1.415.813,1.958-4.493a13.8,13.8,0,0,0,.681-1.8A13.43,13.43,0,0,0,37.473,16Zm1.136,1.452-1.542-.885L32,23.666l.105.012h.033l.038.006H32.3l.016,0,.014,0h0l.016,0,.016,0h0a3.126,3.126,0,0,1,.909.35h0l.029.017.005,0,.023.014.012.007,0,0,.014.009.014.009,0,0,.034.022,0,0,.1.064h0l.052.038.012.009h0l.013.01.013.01,0,0,.008.006.013.01.01.008,0,0,.06.047,0,0,.025.02,0,0,.01.009.012.01.007.006.017.015.012.011h0l.011.01.012.011.006.005.006.005.012.011.011.01h0l.012.011.012.011,0,0,.007.007.011.011.01.009,0,0,.011.011.011.011,0,0,.008.008.011.011.008.008,0,0,.011.011.011.011.011.011.011.012.069.077,0,0q.091.1.172.217Zm-1.9,10.963a.347.347,0,0,1-.005-.694l1.2-.01a.347.347,0,1,1,.005.694h0Zm2.243,0a.347.347,0,1,1-.005-.694l.725-.006a.347.347,0,1,1,0,.694Zm-6.872-7.544a3.133,3.133,0,0,1,1.822-1.072L36.9,15.6a9.98,9.98,0,0,1,1.66-1.947A.648.648,0,0,1,39.2,13.5c.218.089.322.294.3.625a9.254,9.254,0,0,1-.8,2.383l-4.024,9.235q.042.118.074.24a3.134,3.134,0,0,1-.315,2.384A6.958,6.958,0,0,1,32.04,30.54h0a3.064,3.064,0,0,0-1.056,1.085l1.871-.016a.347.347,0,1,1,.005.694h0l-2.379.02c-.191.086-.375-.007-.643-.3a7.26,7.26,0,0,1-1.547-3.863A4.568,4.568,0,0,1,29.294,24.781Z"
      fill="#cbd6d0" />
  </g>
</svg>