<svg xmlns="http://www.w3.org/2000/svg" xmlns:xlink="http://www.w3.org/1999/xlink" width="16.712" height="16.708" viewBox="0 0 16.712 16.708">
  <defs>
    <linearGradient id="linear-gradient" x1="0.5" x2="0.5" y2="1" gradientUnits="objectBoundingBox">
      <stop offset="0" stop-color="#254db1"/>
      <stop offset="1" stop-color="#bc2ef9"/>
      <stop offset="1" stop-color="#c52cfd"/>
    </linearGradient>
  </defs>
  <g id="noun-celebration-5832917" transform="translate(-9.563 -9.583)">
    <g id="グループ_1735" data-name="グループ 1735" transform="translate(9.563 9.583)">
      <path id="パス_944" data-name="パス 944" d="M45.136,12.286l-.023-.765.467-.6h0a.23.23,0,0,0,.041-.081.246.246,0,0,0-.167-.3l-.732-.213-.428-.628a.251.251,0,0,0-.066-.066.246.246,0,0,0-.341.064l-.43.632-.723.211a.254.254,0,0,0-.089.043.244.244,0,0,0-.043.343l.467.6-.023.765h0a.267.267,0,0,0,.014.089.245.245,0,0,0,.312.147l.717-.26.711.254a.224.224,0,0,0,.1.017A.241.241,0,0,0,45.136,12.286Zm-.463-.994a.242.242,0,0,0-.05.163l.014.486-.463-.165a.239.239,0,0,0-.165,0h0l-.463.165.014-.494a.248.248,0,0,0-.052-.157h0l-.3-.391.471-.138a.248.248,0,0,0,.134-.1h0l.277-.4.277.407a.239.239,0,0,0,.147.1l.461.134Z" transform="translate(-35.733 -9.583)" fill="url(#linear-gradient)"/>
      <path id="パス_945" data-name="パス 945" d="M34.937,34.929a.841.841,0,0,0,.014-1.178.048.048,0,0,0-.014-.014h0a.84.84,0,0,0-.992-.149l-1.112-1.112a.246.246,0,0,0-.347.347L33.6,33.935a.841.841,0,0,0,.134.978.1.1,0,0,0,.014.017.841.841,0,0,0,1.178.014A.028.028,0,0,1,34.937,34.929Zm-.347-.347-.01.01a.354.354,0,0,1-.24.093.357.357,0,0,1-.25-.1l-.01-.01a.35.35,0,0,1-.093-.24.357.357,0,0,1,.1-.25h0a.354.354,0,0,1,.5,0h0l.01.01a.355.355,0,0,1-.01.49Z" transform="translate(-27.692 -27.688)" fill="url(#linear-gradient)"/>
      <path id="パス_946" data-name="パス 946" d="M54.438,34.927a.841.841,0,0,0,1.192,0h0a.84.84,0,0,0,.149-.992l1.112-1.112a.246.246,0,0,0-.347-.347l-1.112,1.112a.846.846,0,0,0-1.242.746.831.831,0,0,0,.248.593Zm.345-.845a.354.354,0,0,1,.25-.1.35.35,0,0,1,.24.093l.01.01h0a.354.354,0,0,1,0,.5h0a.354.354,0,0,1-.5,0h0a.354.354,0,0,1-.1-.25A.357.357,0,0,1,54.783,34.082Z" transform="translate(-44.967 -27.688)" fill="url(#linear-gradient)"/>
      <path id="パス_947" data-name="パス 947" d="M78.354,43.45l-.211-.723a.282.282,0,0,0-.043-.091.244.244,0,0,0-.343-.043l-.6.467-.765-.023h0a.267.267,0,0,0-.089.014.245.245,0,0,0-.147.312l.256.719-.254.711a.224.224,0,0,0-.017.1.245.245,0,0,0,.252.238l.763-.023.6.467h0a.23.23,0,0,0,.081.041.246.246,0,0,0,.3-.167l.213-.732.628-.428a.251.251,0,0,0,.066-.066.246.246,0,0,0-.064-.341ZM78,44.359a.24.24,0,0,0-.1.147l-.134.461-.391-.3a.242.242,0,0,0-.163-.05l-.486.014.165-.463a.239.239,0,0,0,0-.165h0l-.165-.463.494.014a.248.248,0,0,0,.157-.052h0l.389-.3.138.471a.248.248,0,0,0,.1.134h0l.405.277Z" transform="translate(-62.379 -35.73)" fill="url(#linear-gradient)"/>
      <path id="パス_948" data-name="パス 948" d="M46.747,61.078a.244.244,0,0,0,.244-.244V59.261a.846.846,0,0,0,.6-.808.833.833,0,0,0-.248-.6.845.845,0,0,0-1.443.6h0a.842.842,0,0,0,.6.806v1.573A.254.254,0,0,0,46.747,61.078ZM46.5,58.7a.353.353,0,0,1-.1-.25h0a.354.354,0,1,1,.353.353h0A.353.353,0,0,1,46.5,58.7Z" transform="translate(-38.39 -47.684)" fill="url(#linear-gradient)"/>
      <path id="パス_949" data-name="パス 949" d="M12.27,45.13a.267.267,0,0,0,.089-.014.245.245,0,0,0,.147-.312l-.258-.719.254-.711a.224.224,0,0,0,.017-.1.245.245,0,0,0-.252-.238l-.765.023-.6-.467h0a.23.23,0,0,0-.081-.041.246.246,0,0,0-.3.167l-.213.732-.628.428a.251.251,0,0,0-.066.066.246.246,0,0,0,.064.341l.632.43.211.723a.254.254,0,0,0,.043.089.244.244,0,0,0,.343.043l.6-.467.767.025Zm-.51-.963h0l.165.463-.494-.014a.248.248,0,0,0-.157.052h0l-.389.3-.138-.471a.248.248,0,0,0-.1-.134h0l-.405-.279.407-.277a.239.239,0,0,0,.1-.147l.134-.461.391.3a.242.242,0,0,0,.163.05l.486-.014L11.759,44A.245.245,0,0,0,11.759,44.167Z" transform="translate(-9.563 -35.732)" fill="url(#linear-gradient)"/>
      <path id="パス_950" data-name="パス 950" d="M58.445,47.606h0a.846.846,0,0,0,.808-.6h1.573a.244.244,0,0,0,0-.488H59.253a.845.845,0,1,0-1.405.843A.863.863,0,0,0,58.445,47.606ZM58.2,46.513a.353.353,0,0,1,.6.25h0a.353.353,0,0,1-.353.353h0a.354.354,0,0,1-.25-.6Z" transform="translate(-47.672 -38.41)" fill="url(#linear-gradient)"/>
      <path id="パス_951" data-name="パス 951" d="M46.763,25.61a.244.244,0,0,0-.244.244v1.573a.843.843,0,1,0,1.091.806.833.833,0,0,0-.248-.6.848.848,0,0,0-.351-.211V25.854A.251.251,0,0,0,46.763,25.61Zm.25,2.375a.354.354,0,1,1-.25-.1A.353.353,0,0,1,47.013,27.985Z" transform="translate(-38.406 -22.298)" fill="url(#linear-gradient)"/>
      <path id="パス_952" data-name="パス 952" d="M45.108,77.145l.023-.765h0a.267.267,0,0,0-.014-.089.245.245,0,0,0-.312-.147l-.719.258-.711-.254a.224.224,0,0,0-.1-.017.244.244,0,0,0-.238.25l.023.765-.467.6h0a.23.23,0,0,0-.041.081.246.246,0,0,0,.167.3l.732.213.428.628a.251.251,0,0,0,.066.066.246.246,0,0,0,.341-.064l.43-.632.723-.211a.282.282,0,0,0,.091-.043.244.244,0,0,0,.043-.343ZM44.5,77.9a.248.248,0,0,0-.134.1h0l-.277.407L43.808,78a.24.24,0,0,0-.147-.1l-.461-.134.3-.391a.242.242,0,0,0,.05-.163l-.014-.486.463.165a.239.239,0,0,0,.165,0h0l.463-.165-.014.494a.248.248,0,0,0,.052.157h0l.3.389Z" transform="translate(-35.728 -62.377)" fill="url(#linear-gradient)"/>
      <path id="パス_953" data-name="パス 953" d="M22.083,66.225l-.324-.688a.236.236,0,0,0-.054-.074.243.243,0,0,0-.345.01l-.523.556-.74.1a.267.267,0,0,0-.1.029.247.247,0,0,0-.1.333l.368.67-.141.746a.248.248,0,0,0,.285.291l.75-.143.665.364h0a.253.253,0,0,0,.087.029.244.244,0,0,0,.273-.211l.1-.756.552-.519a.222.222,0,0,0,.058-.079.244.244,0,0,0-.118-.327Zm-.2.951a.247.247,0,0,0-.076.161l-.06.475-.432-.236a.251.251,0,0,0-.172-.025l-.475.091.091-.484A.245.245,0,0,0,20.731,67h0l-.236-.432.488-.062a.251.251,0,0,0,.147-.074h0l.337-.358.211.444a.242.242,0,0,0,.118.118l.444.209Z" transform="translate(-17.737 -53.861)" fill="url(#linear-gradient)"/>
      <path id="パス_954" data-name="パス 954" d="M56.873,56.889a.247.247,0,0,0,0-.347L55.761,55.43a.841.841,0,0,0-.134-.978.048.048,0,0,0-.014-.014A.844.844,0,0,0,54.4,55.616a.1.1,0,0,0,.014.017h0a.84.84,0,0,0,.992.149l1.112,1.112A.252.252,0,0,0,56.873,56.889Zm-1.606-1.606h0a.354.354,0,0,1-.5,0h0l-.01-.01a.35.35,0,0,1-.093-.24.357.357,0,0,1,.1-.25.354.354,0,0,1,.25-.1.357.357,0,0,1,.25.1l.01.01a.354.354,0,0,1,.093.24A.357.357,0,0,1,55.267,55.283Z" transform="translate(-44.951 -44.971)" fill="url(#linear-gradient)"/>
      <path id="パス_955" data-name="パス 955" d="M35.167,55.033a.839.839,0,0,0-.248-.6h0a.841.841,0,0,0-1.192,0h0a.84.84,0,0,0-.149.992l-1.112,1.112a.246.246,0,0,0,.347.347l1.112-1.112a.846.846,0,0,0,1.242-.744Zm-.593.25a.354.354,0,0,1-.25.1.35.35,0,0,1-.24-.093l-.01-.01h0a.354.354,0,0,1,0-.5h0a.353.353,0,0,1,.6.25A.357.357,0,0,1,34.574,55.283Z" transform="translate(-27.676 -44.971)" fill="url(#linear-gradient)"/>
      <path id="パス_956" data-name="パス 956" d="M68.205,22.174a.268.268,0,0,0,.1-.029.247.247,0,0,0,.1-.333l-.368-.67.141-.746a.248.248,0,0,0-.285-.291l-.75.143-.668-.366h0a.253.253,0,0,0-.087-.029.244.244,0,0,0-.273.211l-.1.756-.552.519a.222.222,0,0,0-.058.079.244.244,0,0,0,.118.327l.69.327.324.688a.236.236,0,0,0,.054.074.245.245,0,0,0,.345-.01l.523-.556Zm-1.035-.3h0l-.337.358-.211-.444a.242.242,0,0,0-.118-.118l-.444-.209.358-.337a.247.247,0,0,0,.076-.161l.06-.475.432.236a.251.251,0,0,0,.172.025l.475-.091-.091.484a.245.245,0,0,0,.027.163h0l.236.432-.488.062A.247.247,0,0,0,67.17,21.87Z" transform="translate(-53.849 -17.729)" fill="url(#linear-gradient)"/>
      <path id="パス_957" data-name="パス 957" d="M68.225,66.116l-.756-.1-.519-.552a.222.222,0,0,0-.079-.058.244.244,0,0,0-.327.118l-.327.69-.688.324a.236.236,0,0,0-.074.054.245.245,0,0,0,.01.345l.556.523.1.74a.268.268,0,0,0,.029.1.247.247,0,0,0,.333.1l.67-.368.746.141a.248.248,0,0,0,.291-.285l-.143-.75.366-.665h0a.253.253,0,0,0,.029-.087A.244.244,0,0,0,68.225,66.116Zm-.589,1.517-.484-.091a.245.245,0,0,0-.163.027h0l-.432.236-.062-.488a.251.251,0,0,0-.074-.147h0l-.358-.337.444-.211a.242.242,0,0,0,.118-.118l.209-.444.337.358a.247.247,0,0,0,.161.076l.475.06-.236.432a.251.251,0,0,0-.025.172Z" transform="translate(-53.852 -53.853)" fill="url(#linear-gradient)"/>
      <path id="パス_958" data-name="パス 958" d="M20.066,22.184l.756.1.519.552a.222.222,0,0,0,.079.058.244.244,0,0,0,.327-.118l.327-.69.688-.324a.236.236,0,0,0,.074-.054.245.245,0,0,0-.01-.345l-.556-.523-.1-.74a.268.268,0,0,0-.029-.1.247.247,0,0,0-.333-.1l-.67.368-.746-.141a.248.248,0,0,0-.291.285l.143.75-.366.665h0a.253.253,0,0,0-.029.087A.244.244,0,0,0,20.066,22.184Zm.589-1.517.484.091a.245.245,0,0,0,.163-.027h0l.432-.236.062.488a.251.251,0,0,0,.074.147h0l.358.337-.444.211a.242.242,0,0,0-.118.118l-.209.444-.337-.358a.247.247,0,0,0-.161-.076l-.475-.06.236-.432a.251.251,0,0,0,.025-.172Z" transform="translate(-17.725 -17.742)" fill="url(#linear-gradient)"/>
      <path id="パス_959" data-name="パス 959" d="M25.846,46.991h1.573a.846.846,0,0,0,.808.6.833.833,0,0,0,.6-.248.845.845,0,0,0-.6-1.443h0a.842.842,0,0,0-.808.6H25.844a.244.244,0,0,0-.244.244A.251.251,0,0,0,25.846,46.991Zm2.027-.244a.353.353,0,0,1,.353-.353h0a.354.354,0,1,1-.353.353Z" transform="translate(-22.286 -38.394)" fill="url(#linear-gradient)"/>
    </g>
  </g>
</svg>
