<svg xmlns="http://www.w3.org/2000/svg" xmlns:xlink="http://www.w3.org/1999/xlink" width="16.456" height="21.799" viewBox="0 0 16.456 21.799">
  <defs>
    <linearGradient id="linear-gradient" x1="0.5" x2="0.5" y2="1" gradientUnits="objectBoundingBox">
      <stop offset="0" stop-color="#254db1"/>
      <stop offset="1" stop-color="#bc2ef9"/>
      <stop offset="1" stop-color="#c52cfd"/>
    </linearGradient>
  </defs>
  <g id="noun-search-5832932" transform="translate(-19.2 -9.2)">
    <g id="グループ_1737" data-name="グループ 1737" transform="translate(19.2 9.2)">
      <path id="パス_960" data-name="パス 960" d="M19.646,30.555A1.511,1.511,0,0,0,20.715,31H34.144a1.514,1.514,0,0,0,1.512-1.512v-15.7a.475.475,0,0,0-.051-.214h0l0-.005h0l0-.005h0l0-.005h0l-.005-.011h0l0-.005h0l-.013-.016h0l0-.005h0l0-.005h0l0,0h0l0,0h0l0,0h0l0,0h0l0-.005,0,0v0l0,0,0,0,0,0,0,0,0,0,0,0,0,0,0,0,0,0,0,0,0,0,0,0,0,0,0,0-.005-.005-.005-.005-4.1-4.1a.32.32,0,0,0-.032-.029l0,0L31.355,9.3h0l-.005,0,0,0-.005-.005,0,0h0l-.011-.005-.005,0h0a.067.067,0,0,0-.019-.011h0l-.011-.005h0l-.005,0,0-.005h0a.474.474,0,0,0-.219-.053H20.712a1.515,1.515,0,0,0-1.069.443h0a1.509,1.509,0,0,0-.443,1.066V29.487a1.492,1.492,0,0,0,.417,1.036A.174.174,0,0,0,19.646,30.555ZM31.539,10.819l2.5,2.5H32.2a.662.662,0,0,1-.47-.2l0,0a.662.662,0,0,1-.2-.47V10.819Zm-11.388-.11a.564.564,0,0,1,.166-.4h0a.564.564,0,0,1,.4-.166h9.876v2.5a1.61,1.61,0,0,0,.476,1.141h0a1.617,1.617,0,0,0,1.138.473h2.5V29.484a.565.565,0,0,1-.564.564H20.712a.568.568,0,0,1-.4-.166.123.123,0,0,1-.019-.019.564.564,0,0,1-.147-.379V10.709Z" transform="translate(-19.2 -9.2)" fill="url(#linear-gradient)"/>
      <path id="パス_961" data-name="パス 961" d="M36.763,40.1a3.339,3.339,0,0,0,1.386-.3l2.169,2.169a1.154,1.154,0,0,0,1.63,0h0a1.154,1.154,0,0,0,0-1.63h0l-2.169-2.169a3.321,3.321,0,1,0-5.367.962A3.338,3.338,0,0,0,36.763,40.1Zm2.38-1.007h0l.005-.005,0,0,0,0c.032-.035.067-.069.1-.107L41.281,41h0a.2.2,0,0,1,.059.144.206.206,0,0,1-.059.147h0a.215.215,0,0,1-.147.059.2.2,0,0,1-.144-.059l-2.028-2.028c.035-.029.069-.061.1-.093l0,0,0,0,0,0,0,0,0,0,0,0,0,0,0,0h0l.005-.005,0,0,0,0,0,0,0,0,0,0,0,0,0,0,0,0,0,0,0,0h0l0,0,0,0,0,0,0,0,0,0,0,0,0,0,0,0,0,0,0,0ZM35.086,35.1A2.372,2.372,0,0,1,38.5,38.394l0,0-.005.008-.013.008v0l-.005.005-.005.005-.005.005h0l-.011.008-.005.005-.005.005h0l-.005.005-.005.005-.005.005,0,0-.005,0-.005.005-.005.005-.008.011,0,0-.005.005-.005.005-.005.005h0a2.275,2.275,0,0,1-.385.291h0a2.373,2.373,0,0,1-3.6-2.03A2.348,2.348,0,0,1,35.086,35.1Z" transform="translate(-29.636 -26.979)" fill="url(#linear-gradient)"/>
    </g>
  </g>
</svg>
