<svg xmlns="http://www.w3.org/2000/svg" xmlns:xlink="http://www.w3.org/1999/xlink" width="17.63" height="17.63" viewBox="0 0 17.63 17.63">
  <defs>
    <linearGradient id="linear-gradient" x1="0.5" x2="0.5" y2="1" gradientUnits="objectBoundingBox">
      <stop offset="0" stop-color="#254db1"/>
      <stop offset="1" stop-color="#bc2ef9"/>
      <stop offset="1" stop-color="#c52cfd"/>
    </linearGradient>
  </defs>
  <g id="noun-party-5832908" transform="translate(-10.4 -10.4)">
    <g id="グループ_1729" data-name="グループ 1729" transform="translate(10.4 10.4)">
      <path id="パス_914" data-name="パス 914" d="M82.31,49.083a.263.263,0,0,0,.263.263h1.1a.263.263,0,0,0,0-.525h-1.1A.263.263,0,0,0,82.31,49.083Z" transform="translate(-66.303 -40.268)" fill="url(#linear-gradient)"/>
      <path id="パス_915" data-name="パス 915" d="M35.19,63.883a.265.265,0,0,0,.361-.1l1.531-2.651a.264.264,0,0,0-.456-.265l-1.531,2.651A.263.263,0,0,0,35.19,63.883Z" transform="translate(-29.569 -49.535)" fill="url(#linear-gradient)"/>
      <path id="パス_916" data-name="パス 916" d="M27.769,55.736l-2.651,1.531a.263.263,0,0,0,.26.456l2.651-1.531a.263.263,0,0,0,.1-.358A.26.26,0,0,0,27.769,55.736Z" transform="translate(-21.739 -45.617)" fill="url(#linear-gradient)"/>
      <path id="パス_917" data-name="パス 917" d="M30.193,77.955l-.548.95a.264.264,0,1,0,.456.265l.548-.95a.264.264,0,1,0-.456-.265Z" transform="translate(-25.334 -62.816)" fill="url(#linear-gradient)"/>
      <path id="パス_918" data-name="パス 918" d="M36.621,28.039a.263.263,0,1,0,.456-.26l-1.531-2.651a.263.263,0,1,0-.456.26Z" transform="translate(-29.567 -21.746)" fill="url(#linear-gradient)"/>
      <path id="パス_919" data-name="パス 919" d="M79.263,66.5a.265.265,0,0,0-.1-.361l-.95-.548a.264.264,0,1,0-.265.456l.95.548A.263.263,0,0,0,79.263,66.5Z" transform="translate(-62.813 -53.282)" fill="url(#linear-gradient)"/>
      <path id="パス_920" data-name="パス 920" d="M49.083,12.023a.263.263,0,0,0,.263-.263v-1.1a.263.263,0,1,0-.525,0v1.1A.263.263,0,0,0,49.083,12.023Z" transform="translate(-40.268 -10.4)" fill="url(#linear-gradient)"/>
      <path id="パス_921" data-name="パス 921" d="M78.228,30.654l.95-.548a.263.263,0,1,0-.26-.456l-.95.548a.263.263,0,0,0,.26.456Z" transform="translate(-62.824 -25.338)" fill="url(#linear-gradient)"/>
      <path id="パス_922" data-name="パス 922" d="M62.58,49.083a.263.263,0,0,0,.263.263h3.063a.263.263,0,0,0,0-.525H62.843A.263.263,0,0,0,62.58,49.083Z" transform="translate(-50.965 -40.268)" fill="url(#linear-gradient)"/>
      <path id="パス_923" data-name="パス 923" d="M60.776,36.989a.263.263,0,0,0,.358.1l2.651-1.531a.263.263,0,1,0-.26-.456l-2.651,1.531A.26.26,0,0,0,60.776,36.989Z" transform="translate(-49.535 -29.575)" fill="url(#linear-gradient)"/>
      <path id="パス_924" data-name="パス 924" d="M16.618,65.6l-.95.548a.263.263,0,0,0,.26.456l.95-.548a.263.263,0,1,0-.26-.456Z" transform="translate(-14.392 -53.285)" fill="url(#linear-gradient)"/>
      <path id="パス_925" data-name="パス 925" d="M16.622,30.65a.264.264,0,1,0,.265-.456l-.95-.548a.264.264,0,1,0-.265.456Z" transform="translate(-14.396 -25.334)" fill="url(#linear-gradient)"/>
      <path id="パス_926" data-name="パス 926" d="M10.663,49.345h1.1a.263.263,0,1,0,0-.525h-1.1a.263.263,0,1,0,0,.525Z" transform="translate(-10.4 -40.268)" fill="url(#linear-gradient)"/>
      <path id="パス_927" data-name="パス 927" d="M30.2,16.888a.263.263,0,1,0,.456-.26l-.548-.95a.263.263,0,1,0-.456.26Z" transform="translate(-25.338 -14.4)" fill="url(#linear-gradient)"/>
      <path id="パス_928" data-name="パス 928" d="M21.3,49.083a.263.263,0,0,0,.263.263h3.063a.263.263,0,0,0,0-.525H21.563A.263.263,0,0,0,21.3,49.083Z" transform="translate(-18.874 -40.268)" fill="url(#linear-gradient)"/>
      <path id="パス_929" data-name="パス 929" d="M27.763,37.074a.264.264,0,0,0,.265-.456l-2.651-1.531a.264.264,0,0,0-.265.456Z" transform="translate(-21.735 -29.563)" fill="url(#linear-gradient)"/>
      <path id="パス_930" data-name="パス 930" d="M49.083,24.888a.263.263,0,0,0,.263-.263V21.563a.263.263,0,1,0-.525,0v3.063A.263.263,0,0,0,49.083,24.888Z" transform="translate(-40.268 -18.874)" fill="url(#linear-gradient)"/>
      <path id="パス_931" data-name="パス 931" d="M55.828,60.776a.263.263,0,0,0-.1.358l1.531,2.651a.263.263,0,0,0,.456-.26l-1.531-2.651A.26.26,0,0,0,55.828,60.776Z" transform="translate(-45.613 -49.535)" fill="url(#linear-gradient)"/>
      <path id="パス_932" data-name="パス 932" d="M48.82,83.67a.263.263,0,1,0,.525,0v-1.1a.263.263,0,1,0-.525,0Z" transform="translate(-40.268 -66.303)" fill="url(#linear-gradient)"/>
      <path id="パス_933" data-name="パス 933" d="M66.614,78.908l-.548-.95a.263.263,0,1,0-.456.26l.548.95a.263.263,0,1,0,.456-.26Z" transform="translate(-53.293 -62.816)" fill="url(#linear-gradient)"/>
      <path id="パス_934" data-name="パス 934" d="M66.052,16.887l.548-.95a.264.264,0,0,0-.456-.265l-.548.95a.264.264,0,0,0,.456.265Z" transform="translate(-53.282 -14.396)" fill="url(#linear-gradient)"/>
      <path id="パス_935" data-name="パス 935" d="M56.192,28.028l1.531-2.651a.264.264,0,1,0-.456-.265l-1.531,2.651a.264.264,0,0,0,.456.265Z" transform="translate(-45.617 -21.735)" fill="url(#linear-gradient)"/>
      <path id="パス_936" data-name="パス 936" d="M63.883,57.618a.265.265,0,0,0-.1-.361l-2.651-1.531a.264.264,0,0,0-.265.456l2.651,1.531A.263.263,0,0,0,63.883,57.618Z" transform="translate(-49.535 -45.609)" fill="url(#linear-gradient)"/>
      <path id="パス_937" data-name="パス 937" d="M40.733,42.4a.263.263,0,0,0-.047.37l.674.873-.033,1.1h0a.287.287,0,0,0,.016.1.264.264,0,0,0,.336.158l1.037-.372,1.028.37a.242.242,0,0,0,.1.018.264.264,0,0,0,.256-.272l-.033-1.1.674-.873h0a.247.247,0,0,0,.045-.087.265.265,0,0,0-.18-.327l-1.057-.309-.619-.908a.271.271,0,0,0-.071-.071.265.265,0,0,0-.367.069l-.621.91-1.048.3A.3.3,0,0,0,40.733,42.4Zm1.382.125a.267.267,0,0,0,.145-.1h0l.456-.668.456.67a.258.258,0,0,0,.158.107l.764.223-.5.641a.261.261,0,0,0-.053.176l.024.8-.764-.274a.258.258,0,0,0-.178,0h0l-.764.274.024-.81a.254.254,0,0,0-.056-.169h0l-.5-.641Z" transform="translate(-33.902 -34.206)" fill="url(#linear-gradient)"/>
      <path id="パス_938" data-name="パス 938" d="M49.083,66.168a.263.263,0,0,0,.263-.263V62.843a.263.263,0,1,0-.525,0v3.063A.263.263,0,0,0,49.083,66.168Z" transform="translate(-40.268 -50.965)" fill="url(#linear-gradient)"/>
    </g>
  </g>
</svg>
