<svg xmlns="http://www.w3.org/2000/svg" width="16.721" height="22.068" viewBox="0 0 16.721 22.068">
  <g id="noun-prize-5674860" transform="translate(-69.977 -25.766)">
    <g id="グループ_1725" data-name="グループ 1725">
      <path id="合体_1" data-name="合体 1" d="M-429.792-1319.167a.341.341,0,0,1-.3-.216l-.9-2.372a.323.323,0,0,1-.046-.016.324.324,0,0,1-.086-.067l-2.433.722a.345.345,0,0,1-.359-.105.329.329,0,0,1-.043-.367l3.138-6.055a1.78,1.78,0,0,1-.924-1.546v-.449a3.69,3.69,0,0,0-.937-2.239l-.321-.318a1.767,1.767,0,0,1,.009-2.52l.323-.317a3.687,3.687,0,0,0,.95-2.231l0-.449a1.811,1.811,0,0,1,1.823-1.776h.458a3.84,3.84,0,0,0,2.283-.918l.324-.315a1.855,1.855,0,0,1,2.57.009l.323.317a3.837,3.837,0,0,0,2.276.933l.458,0a1.809,1.809,0,0,1,1.811,1.788v.449a3.689,3.689,0,0,0,.937,2.239l.321.318a1.768,1.768,0,0,1-.008,2.519l-.324.317a3.692,3.692,0,0,0-.951,2.232l0,.449a1.781,1.781,0,0,1-.993,1.569l3.1,5.992a.327.327,0,0,1,.022.248.342.342,0,0,1-.424.223l-2.433-.722a.251.251,0,0,1-.132.083l-.9,2.372a.339.339,0,0,1-.3.217h-.019a.341.341,0,0,1-.3-.182l-3.285-6.354a1.717,1.717,0,0,1-1.08-.023l-3.3,6.377a.342.342,0,0,1-.3.183Zm5.8-7.289-.325.315a1.859,1.859,0,0,1-.172.136l2.933,5.675.712-1.871-2.451-4.732A2.974,2.974,0,0,0-423.989-1326.456Zm-6.45,4.256.712,1.87,2.961-5.726c-.038-.033-.081-.059-.117-.095l-.323-.317a3.056,3.056,0,0,0-.757-.514Zm7.774-5,2.395,4.624,1.986.589-2.8-5.408c-.056.005-.109.016-.166.016h-.458A3.173,3.173,0,0,0-422.665-1327.2Zm-10.33,5.212,1.986-.589,2.418-4.666a3.1,3.1,0,0,0-.89-.162l-.458,0a1.824,1.824,0,0,1-.236-.025Zm1.955-15.725,0,.449a4.323,4.323,0,0,1-1.151,2.7l-.323.317a1.107,1.107,0,0,0-.006,1.579l.321.319a4.321,4.321,0,0,1,1.131,2.706v.449a1.134,1.134,0,0,0,1.135,1.12l.458,0a4.492,4.492,0,0,1,2.753,1.13l.323.317a1.193,1.193,0,0,0,1.61.005l.325-.314a3.967,3.967,0,0,1,1.172-.74l0,0h0a4.217,4.217,0,0,1,1.581-.369h.458a1.135,1.135,0,0,0,1.143-1.112l0-.449a4.321,4.321,0,0,1,1.151-2.7l.324-.317a1.108,1.108,0,0,0,0-1.579l-.321-.318a4.321,4.321,0,0,1-1.132-2.708v-.449a1.134,1.134,0,0,0-1.135-1.12l-.458,0a4.5,4.5,0,0,1-2.753-1.128l-.323-.317a1.193,1.193,0,0,0-1.61-.006l-.325.315a4.493,4.493,0,0,1-2.759,1.111h-.458A1.135,1.135,0,0,0-431.04-1337.709Zm7.143,7.074-1.74-.705-1.741.7a.237.237,0,0,1-.109.017.236.236,0,0,1-.22-.252l.145-1.841-1.221-1.405a.228.228,0,0,1-.05-.1.234.234,0,0,1,.176-.282l1.83-.433.986-1.574a.243.243,0,0,1,.061-.06.252.252,0,0,1,.346.06l.987,1.574,1.831.433a.24.24,0,0,1,.1.049.231.231,0,0,1,.027.33l-1.221,1.406.144,1.842c0,.006,0,.012,0,.017a.237.237,0,0,1-.238.235A.244.244,0,0,1-423.9-1330.635Zm-1.65-1.176,1.473.6-.123-1.558a.233.233,0,0,1,.056-.17l1.034-1.19-1.549-.367a.237.237,0,0,1-.147-.1l-.834-1.332-.835,1.332a.236.236,0,0,1-.147.1l-1.549.367,1.033,1.19a.232.232,0,0,1,.056.17l-.123,1.558,1.473-.6a.246.246,0,0,1,.091-.018A.246.246,0,0,1-425.547-1331.81Z" transform="translate(503.977 1367)" fill="#cbd6d0"/>
    </g>
  </g>
</svg>
