<svg xmlns="http://www.w3.org/2000/svg" xmlns:xlink="http://www.w3.org/1999/xlink" width="17.116"
  height="20.015" viewBox="0 0 17.116 20.015">
  <defs>
    <linearGradient id="linear-gradient" x1="0.745" y1="-0.038" x2="0.202" y2="1"
      gradientUnits="objectBoundingBox">
      <stop offset="0" stop-color="#254db1" />
      <stop offset="1" stop-color="#bc2ef9" />
      <stop offset="1" stop-color="#c52cfd" />
    </linearGradient>
  </defs>
  <g id="noun-my-account-3831420" transform="translate(-4.89 -3.009)">
    <g id="my_account" data-name="my account" transform="translate(4.89 3.009)">
      <path id="パス_372" data-name="パス 372"
        d="M22.006,7.809a.77.77,0,0,0-.678-.77c-3.69-.424-5.716-1.464-7.241-3.705a.77.77,0,0,0-1.256,0c-1.695,2.218-3.782,3.3-7.264,3.713a.77.77,0,0,0-.678.77v2.889a12.833,12.833,0,0,0,3.852,9.244,25.813,25.813,0,0,0,4.283,2.958.77.77,0,0,0,.817,0,26.842,26.842,0,0,0,4.252-2.927,12.81,12.81,0,0,0,3.9-9.244ZM15.4,20.134l-1.949,1.217a25.342,25.342,0,0,1-3.328-2.234,2.48,2.48,0,0,1,1.787-2.01.77.77,0,0,0,.555-.57c.169-.67-.77-.963-.67-1.618V12.508a1.155,1.155,0,0,1,1.14-1.14H13.98a1.148,1.148,0,0,1,1.125,1.14v2.411c.085.662-.832.94-.662,1.61a.77.77,0,0,0,.547.578,2.45,2.45,0,0,1,1.779,2.026A9.729,9.729,0,0,1,15.4,20.149Zm5.069-9.429a11.377,11.377,0,0,1-2.488,7.141,4.013,4.013,0,0,0-1.6-1.81c.431-.709.2-2.742.254-3.543a2.673,2.673,0,0,0-2.665-2.681H12.917a2.681,2.681,0,0,0-2.681,2.681c.062.809-.177,2.819.262,3.543A4.044,4.044,0,0,0,8.9,17.831a11.377,11.377,0,0,1-2.473-7.125V8.471A10.963,10.963,0,0,0,13.425,5c1.618,1.949,3.751,3,7.041,3.466Z"
        transform="translate(-4.89 -3.009)" fill="url(#linear-gradient)" />
    </g>
  </g>
</svg>