<svg xmlns="http://www.w3.org/2000/svg" xmlns:xlink="http://www.w3.org/1999/xlink" width="19.511"
  height="19.507" viewBox="0 0 19.511 19.507">
  <defs>
    <linearGradient id="linear-gradient" x1="0.5" x2="0.5" y2="1" gradientUnits="objectBoundingBox">
      <stop offset="0" stop-color="#254db1" />
      <stop offset="1" stop-color="#bc2ef9" />
      <stop offset="1" stop-color="#c52cfd" />
    </linearGradient>
  </defs>
  <path id="合体_2" data-name="合体 2"
    d="M9487.715,51.508a1.254,1.254,0,0,1-1.276-1.277v-1.7a1.255,1.255,0,0,1,1.276-1.278h.256a2.77,2.77,0,1,1,4.771-1.917,2.859,2.859,0,0,1-.768,1.917h.3a1.221,1.221,0,0,1,1.235,1.278v1.7a1.255,1.255,0,0,1-1.278,1.277Zm-.425-2.981v1.7a.426.426,0,0,0,.425.425h4.559a.426.426,0,0,0,.426-.425h-.043v-1.7a.427.427,0,0,0-.426-.426h-4.516A.426.426,0,0,0,9487.29,48.527Zm.767-3.2a1.936,1.936,0,0,0,1.917,1.917,1.917,1.917,0,1,0-1.917-1.917Zm-5.58,6.176a.42.42,0,0,1-.426-.383l-.81-10.265h-.256a1.28,1.28,0,0,1-1.276-1.278v-.213a1.28,1.28,0,0,1,1.276-1.278h2.343V36.26a1.255,1.255,0,0,1-1.277-1.277v-1.7A1.255,1.255,0,0,1,9483.328,32h.895a1.255,1.255,0,0,1,1.278,1.277v1.7a1.255,1.255,0,0,1-1.278,1.277h-.043v1.832h2.343a1.255,1.255,0,0,1,1.278,1.278v.213a1.255,1.255,0,0,1-1.278,1.278h-.255l-.81,10.265a.419.419,0,0,1-.425.383Zm.384-.852h1.789l.766-9.839h-3.322Zm-2.3-11.287v.213a.427.427,0,0,0,.425.426h5.537a.4.4,0,0,0,.427-.426v-.213a.4.4,0,0,0-.427-.426h-5.537A.427.427,0,0,0,9480.561,39.369Zm2.343-6.092v1.7a.426.426,0,0,0,.425.425h.895a.427.427,0,0,0,.427-.425v-1.7a.427.427,0,0,0-.427-.425h-.895A.426.426,0,0,0,9482.9,33.278Zm-7.626,18.23A1.255,1.255,0,0,1,9474,50.231v-1.7a1.255,1.255,0,0,1,1.277-1.278h.257a2.769,2.769,0,1,1,4.77-1.917,2.853,2.853,0,0,1-.767,1.917h.3a1.22,1.22,0,0,1,1.235,1.278v1.7a1.282,1.282,0,0,1-1.278,1.277Zm-.425-2.981v1.7a.4.4,0,0,0,.425.425h4.559a.426.426,0,0,0,.426-.425h-.043v-1.7a.426.426,0,0,0-.426-.426h-4.516A.4.4,0,0,0,9474.853,48.527Zm.809-3.2a1.917,1.917,0,1,0,1.917-1.916A1.909,1.909,0,0,0,9475.661,45.332Z"
    transform="translate(-9474 -32.001)" fill="url(#linear-gradient)" />
</svg>