<svg xmlns="http://www.w3.org/2000/svg" xmlns:xlink="http://www.w3.org/1999/xlink" width="16.454" height="20.014" viewBox="0 0 16.454 20.014">
  <defs>
    <linearGradient id="linear-gradient" x1="0.83" y1="-0.123" x2="0.183" y2="1.051" gradientUnits="objectBoundingBox">
      <stop offset="0" stop-color="#254db1"/>
      <stop offset="1" stop-color="#bc2ef9"/>
      <stop offset="1" stop-color="#c52cfd"/>
    </linearGradient>
  </defs>
  <g id="noun-category-3831802" transform="translate(-6.15 -4)">
    <g id="グループ_528" data-name="グループ 528" transform="translate(6.15 4)">
      <path id="パス_370" data-name="パス 370" d="M13.389,10.913A3.336,3.336,0,0,0,16.616,13.5h2.644A3.336,3.336,0,0,0,22.6,9.929a3.336,3.336,0,0,0-3.336-3.336H16.616A3.336,3.336,0,0,0,13.38,9.22a8.473,8.473,0,0,0-5.546,2.31v-6.7a.834.834,0,0,0-1.668,0V14.841c-.275,3.544,2.927,6.421,7.214,6.671a3.336,3.336,0,0,0,3.236,2.5h2.644A3.336,3.336,0,0,0,22.6,20.679,3.336,3.336,0,0,0,19.259,17.1H16.616a3.336,3.336,0,0,0-3.227,2.6C6.025,19.178,6.025,11.505,13.389,10.913Zm1.584-.984a1.668,1.668,0,0,1,1.668-1.668h2.644c2.193,0,2.193,3.553,0,3.544H16.616a1.668,1.668,0,0,1-1.643-1.876Zm0,10.541A1.668,1.668,0,0,1,16.641,18.8h2.644c2.193,0,2.193,3.553,0,3.553H16.616a1.668,1.668,0,0,1-1.643-1.885Z" transform="translate(-6.15 -4)" fill="url(#linear-gradient)"/>
    </g>
  </g>
</svg>
