<?xml version="1.0" standalone="no"?>
<!DOCTYPE svg PUBLIC "-//W3C//DTD SVG 20010904//EN"
 "http://www.w3.org/TR/2001/REC-SVG-20010904/DTD/svg10.dtd">
<svg version="1.0" xmlns="http://www.w3.org/2000/svg"
 width="927.000000pt" height="1280.000000pt" viewBox="0 0 927.000000 1280.000000"
 preserveAspectRatio="xMidYMid meet">
<metadata>
Created by potrace 1.15, written by Peter Selinger 2001-2017
</metadata>
<g transform="translate(0.000000,1280.000000) scale(0.100000,-0.100000)"
fill="#000000" stroke="none">
<path d="M4639 12791 c-43 -9 -184 -84 -299 -160 -105 -69 -220 -183 -283
-279 -77 -117 -228 -423 -252 -508 0 -1 -31 5 -70 13 -104 21 -615 14 -700
-11 -154 -44 -480 -301 -685 -540 -196 -228 -311 -423 -499 -841 l-72 -160
-211 -125 c-414 -246 -455 -278 -590 -456 -93 -123 -121 -147 -225 -195 -44
-21 -97 -52 -117 -70 -31 -27 -36 -37 -36 -74 0 -35 8 -53 36 -91 72 -93 79
-141 38 -256 -41 -117 -149 -328 -198 -390 -58 -73 -100 -94 -204 -103 l-82
-8 0 -57 c0 -45 5 -65 26 -96 23 -34 27 -48 26 -111 -1 -40 -11 -135 -22 -212
l-19 -140 -101 -152 -102 -151 52 -261 c29 -144 54 -278 57 -298 5 -34 11 -39
119 -98 93 -51 115 -67 120 -89 22 -95 42 -141 104 -234 38 -56 96 -134 130
-173 90 -103 332 -326 520 -479 169 -137 398 -362 383 -377 -4 -4 -55 -29
-113 -55 -221 -98 -404 -143 -760 -189 -112 -14 -210 -31 -217 -36 -6 -6 -20
-30 -29 -55 -37 -97 1 -384 141 -1049 l46 -220 121 -200 c205 -340 243 -387
355 -444 98 -49 158 -62 248 -56 44 3 91 8 104 11 l24 5 -7 157 c-3 86 -13
220 -21 297 -26 234 -30 494 -11 605 23 132 68 222 160 315 108 110 356 263
522 324 l79 29 230 -233 c165 -167 251 -246 305 -280 117 -75 199 -146 296
-254 49 -56 96 -101 105 -101 8 0 82 16 165 34 l149 35 150 -150 151 -150 63
-307 c35 -169 67 -313 71 -320 5 -10 17 2 39 36 40 62 56 76 75 65 37 -21 209
-276 271 -402 50 -101 202 -574 299 -926 142 -515 206 -1014 210 -1620 1 -170
-3 -244 -17 -324 -10 -57 -17 -105 -15 -106 2 -1 71 -10 153 -19 307 -35 553
-32 1050 15 314 29 835 88 873 99 19 5 54 25 78 45 45 37 45 38 42 93 -5 90
-12 92 -314 95 -285 3 -270 0 -545 118 -305 131 -413 196 -479 290 -127 182
-181 379 -305 1129 -121 731 -321 1698 -485 2350 -69 273 -79 306 -148 470
-33 80 -72 175 -87 212 -24 60 -31 68 -63 79 -109 35 -181 91 -277 214 l-65
83 0 203 0 204 98 39 c168 69 321 151 507 273 99 65 198 128 219 141 l39 23
-7 112 c-7 118 -23 200 -58 307 -32 98 -143 353 -200 459 l-50 94 11 161 c6
89 11 218 11 287 0 172 -1 174 -147 182 -228 14 -422 28 -513 38 -108 12 -107
11 -342 181 -128 92 -138 102 -138 131 0 18 11 126 25 242 l25 209 86 80 c48
44 122 126 166 183 82 106 119 135 188 148 34 6 37 4 125 -101 168 -200 198
-248 210 -327 l7 -47 62 0 c75 0 101 -16 258 -156 60 -55 117 -102 126 -105
10 -3 59 -9 111 -13 126 -9 201 -36 281 -100 60 -48 72 -53 158 -69 88 -17
237 -64 429 -136 59 -21 105 -48 160 -92 114 -91 183 -133 286 -175 82 -34
100 -46 169 -116 l77 -78 268 16 c306 18 655 14 768 -10 39 -8 125 -30 191
-49 117 -34 124 -37 175 -89 38 -39 100 -81 209 -143 85 -48 228 -134 318
-192 219 -140 335 -193 429 -193 34 0 83 18 83 31 0 4 -54 50 -119 103 -105
84 -171 149 -171 169 0 19 136 -1 339 -48 126 -29 166 -27 183 11 24 51 -29
93 -237 187 -177 80 -194 90 -140 81 98 -15 179 -36 293 -73 167 -55 202 -54
202 4 0 85 -135 160 -435 240 -55 15 -104 31 -108 35 -5 4 20 11 55 15 178 19
293 37 324 50 27 11 74 65 74 85 0 3 -105 18 -232 34 -451 54 -576 80 -610
126 l-19 26 -127 -32 c-107 -28 -145 -33 -242 -34 -246 0 -492 59 -854 207
-175 71 -240 102 -641 305 -385 194 -484 233 -760 302 -166 41 -206 55 -303
104 -74 36 -74 37 -69 72 2 19 20 58 39 86 19 28 40 72 47 97 l13 46 -92 158
c-115 196 -181 293 -229 336 -30 27 -40 46 -49 89 -11 59 -48 144 -205 473
-100 211 -140 318 -151 400 l-7 50 74 38 c92 46 140 88 170 147 20 39 34 50
98 81 40 20 151 94 244 163 94 69 202 142 240 161 91 45 242 74 630 120 165
19 334 42 376 49 82 15 431 151 562 219 84 43 101 61 111 120 l7 37 -53 0
c-29 0 -125 -5 -212 -11 -87 -5 -161 -8 -164 -5 -9 10 31 47 148 136 154 117
198 166 259 290 28 57 49 105 48 107 -2 1 -26 -6 -54 -17 -46 -17 -64 -18
-224 -10 -96 5 -190 13 -209 18 -34 9 -37 7 -125 -78 -70 -67 -117 -102 -210
-154 -66 -37 -187 -114 -270 -171 l-150 -105 -209 3 -208 2 -5 50 c-9 117 -76
462 -96 500 -27 52 -168 245 -216 298 -96 104 -243 194 -363 222 -65 15 -186
18 -249 6z"/>
</g>
</svg>
