<svg xmlns="http://www.w3.org/2000/svg" width="330.576" height="75.314" viewBox="0 0 330.576 75.314">
  <g id="グループ_590" data-name="グループ 590" transform="translate(-517.688 -8237.792)">
    <path id="パス_900" data-name="パス 900" d="M-143.688-17.928c0-.576-.24-.792-.7-.792h-4.248v-.408c0-.528-.24-.816-.936-.816-.72,0-.936.288-.936.816v.408H-158.5v-.408c0-.528-.24-.816-.936-.816-.72,0-.936.288-.936.816v.408h-4.272c-.456,0-.672.216-.672.792,0,.6.216.792.672.792h4.272v.432c0,.528.216.792.936.792.7,0,.936-.264.936-.792v-.432h7.992v.432c0,.528.216.792.936.792.7,0,.936-.264.936-.792v-.432h4.248C-143.928-17.136-143.688-17.328-143.688-17.928Zm-.672,5.808v-1.944a1.254,1.254,0,0,0-1.392-1.392h-17.5a1.254,1.254,0,0,0-1.392,1.392v1.944a1.254,1.254,0,0,0,1.392,1.392h17.5A1.254,1.254,0,0,0-144.36-12.12Zm.672,5.688V-7.92a1.461,1.461,0,0,0-1.656-1.536h-18.312a1.461,1.461,0,0,0-1.656,1.536v1.464c0,.552.216.816.936.816s.96-.264.96-.816V-7.9h6.5a1.414,1.414,0,0,0-.192.1l-7.512,4.7a.641.641,0,0,0-.384.528c0,.384.48,1.056.888,1.056a.971.971,0,0,0,.456-.168l4.44-2.808h9.5L-153.48-1.44l-4.008-2.04a.974.974,0,0,0-.408-.12c-.408,0-.864.624-.864,1.008,0,.216.12.36.384.5l3.48,1.8L-155.88.5a.663.663,0,0,0-.312.528,1.32,1.32,0,0,0,1.008.984.935.935,0,0,0,.552-.24l7.176-5.856a.964.964,0,0,0,.384-.768,1.344,1.344,0,0,0-1.416-1.224h-8.232l.72-.456c.216-.144.336-.288.336-.48a1.278,1.278,0,0,0-.72-.888h10.824v1.464c0,.528.216.792.936.792C-143.928-5.64-143.688-5.9-143.688-6.432Zm-2.544-5.688h-4.3v-1.944h4.3Zm-6.12,0h-4.32v-1.944h4.32Zm-6.12,0h-4.32v-1.944h4.32Zm39.5,1.224c0-.792-.312-1.08-.936-1.08h-4.2v-7.08c0-.576-.264-.888-1.032-.888s-1.008.312-1.008.888v7.08h-4.128c-.624,0-.912.288-.912,1.08s.288,1.056.912,1.056h4.128V.816c0,.576.24.864,1.008.864s1.032-.288,1.032-.864V-9.84h4.2C-119.28-9.84-118.968-10.1-118.968-10.9ZM-132.5-1.752v-14.76a1.667,1.667,0,0,0-1.656-1.8h-4.1a1.667,1.667,0,0,0-1.656,1.8v14.76a1.667,1.667,0,0,0,1.656,1.8h4.1A1.667,1.667,0,0,0-132.5-1.752Zm-1.848-.1h-3.72V-16.416h3.72Zm37.8-16.056c0-.744-.216-.96-.7-.96H-112.9c-.5,0-.72.216-.72.96s.24.96.72.96h15.648C-96.768-16.944-96.552-17.16-96.552-17.9ZM-94.68.384c0-.84-.12-.96-.7-.96h-1.68a1.8,1.8,0,0,1-1.344-.6l-4.56-4.968,5.808-5.208a1.022,1.022,0,0,0,.36-.84v-.576a1.144,1.144,0,0,0-1.2-1.128h-16.68c-.5,0-.7.216-.7.984s.216.984.7.984h14.3c.312,0,.456.072.456.192,0,.1-.072.216-.24.36L-111.48-1.1a2.091,2.091,0,0,1-1.392.528h-2.088c-.48,0-.624.144-.624.96s.168.984.576.984h2.376A3.162,3.162,0,0,0-110.424.5l6-5.352,4.9,5.256a2.776,2.776,0,0,0,2.112.96h2.04C-94.824,1.368-94.68,1.2-94.68.384Zm24.336-3.72V-7.8c0-2.664-1.56-4.536-4.872-4.536h-4.656l2.184-4.584a1.261,1.261,0,0,0,.144-.552c0-.6-.528-1.032-1.344-1.032h-8.184c-.5,0-.7.216-.7.984,0,.792.216.984.7.984h6.864c.216,0,.336.1.336.24a.383.383,0,0,1-.072.192l-2.5,4.8a.656.656,0,0,0-.1.336c0,.336.264.6.864.6h6.12c2.184,0,3.216,1.032,3.216,3.168v3.48A2.717,2.717,0,0,1-75.36-.792H-85.8c-1.8,0-2.592-.744-2.592-2.208V-4.2A1.683,1.683,0,0,1-86.52-6.072h1.008a1.32,1.32,0,0,1,1.2.5l2.832,3.5a.478.478,0,0,0,.432.264c.312,0,1.1-.48,1.1-.84a.537.537,0,0,0-.072-.24L-83.04-6.72A2.615,2.615,0,0,0-85.584-7.8H-87a3.027,3.027,0,0,0-3.288,3.1v2.376c0,2.28,1.512,3.48,3.84,3.48h11.52C-71.736,1.152-70.344-.6-70.344-3.336Zm25.872-14.3v-1.7a.876.876,0,0,0-.864-.864h-2.328a.86.86,0,0,0-.864.864v1.7a.906.906,0,0,0,.192.552,4.761,4.761,0,0,0-1.272-.144H-64.392c-.576,0-.744.264-.744.96,0,.744.168.984.72.984h14.544a.717.717,0,0,1,.792.816v6.288a2.332,2.332,0,0,1-.528,1.752l-3.6,4.824a1.272,1.272,0,0,1-1.2.552h-9.1c-.5,0-.72.192-.72.984,0,.744.24.96.72.96h9.576A2.28,2.28,0,0,0-51.6-.24l3.744-5.04a3.262,3.262,0,0,0,.768-2.5v-7.416a1.9,1.9,0,0,0-.576-1.584h2.328A.876.876,0,0,0-44.472-17.64Zm-1.176-.336a.18.18,0,0,1-.168.168h-1.368a.164.164,0,0,1-.168-.168v-1.032a.164.164,0,0,1,.168-.168h1.368a.18.18,0,0,1,.168.168Zm24,16.92V-15.168a1.726,1.726,0,0,0-1.968-1.944H-38.184a1.718,1.718,0,0,0-1.944,1.944V-1.056A1.718,1.718,0,0,0-38.184.888h14.568A1.726,1.726,0,0,0-21.648-1.056Zm-1.992-.816a.715.715,0,0,1-.816.816H-37.32a.715.715,0,0,1-.816-.816V-14.328a.715.715,0,0,1,.816-.816h12.864a.715.715,0,0,1,.816.816ZM4.464-18.48v-.84a.481.481,0,0,0-.48-.48H3.1a.467.467,0,0,0-.48.48v.84A.467.467,0,0,0,3.1-18h.888A.481.481,0,0,0,4.464-18.48Zm-3.144,0v-.84a.467.467,0,0,0-.48-.48H-.048a.481.481,0,0,0-.48.48v.84a.481.481,0,0,0,.48.48H.84A.467.467,0,0,0,1.32-18.48ZM-6.5-15.912c0-.768-.24-.984-.72-.984H-14.88c-.5,0-.7.216-.7.984s.216.984.7.984h7.656C-6.72-14.928-6.5-15.144-6.5-15.912ZM2.88-8.184v-8.064c0-.528-.288-.72-.984-.72-.816,0-1.008.264-1.008.744V-8.5A2.332,2.332,0,0,1,.36-6.744L-3.408-1.656a1.338,1.338,0,0,1-1.248.6H-14.9c-.48,0-.7.192-.7.984,0,.744.24.96.7.96H-4.248a2.423,2.423,0,0,0,2.4-1.152l3.984-5.4A3.267,3.267,0,0,0,2.88-8.184ZM-6.5-9.456c0-.768-.24-.984-.72-.984H-14.88c-.5,0-.7.216-.7.984s.216.984.7.984h7.656C-6.72-8.472-6.5-8.688-6.5-9.456ZM26.352-.48c0-.624-.168-.864-.552-.864H19.3v-10.44h5.712c.408,0,.576-.24.576-.864s-.192-.864-.576-.864H12c-.384,0-.552.24-.552.864s.168.864.552.864h5.544v10.44H11.208c-.384,0-.552.24-.552.864,0,.6.192.84.552.84H25.8C26.184.36,26.352.12,26.352-.48Zm26.112-7.8v-7.68a1.733,1.733,0,0,0-1.944-1.992H40.368a1.541,1.541,0,0,0-1.2.5L35.5-12.864c-.264.336-.36.36-.624.36h-1.1c-.528,0-.7.168-.7.984s.216.984.7.984h1.656a1.408,1.408,0,0,0,1.032-.528l3.72-4.608a.845.845,0,0,1,.768-.312h8.712a.734.734,0,0,1,.816.816v6.576a2.292,2.292,0,0,1-.5,1.752L45.984-1.632a1.329,1.329,0,0,1-1.224.576H36.744c-.48,0-.7.192-.7.984,0,.744.24.96.7.96h8.4a2.532,2.532,0,0,0,2.4-1.152L51.72-5.712A3.407,3.407,0,0,0,52.464-8.28ZM77.712-6.624c0-.816-.24-1.008-.72-1.008h-2.64a1.86,1.86,0,0,1-.72-.168l-10.8-4.7v-5.232c0-.5-.216-.7-1.008-.7-.768,0-.984.216-.984.7V.384c0,.5.216.7.984.7.792,0,1.008-.216,1.008-.7V-10.392L73.056-5.9a2.6,2.6,0,0,0,1.2.216h2.736C77.5-5.688,77.712-5.832,77.712-6.624ZM107.064.36c0-.768-.24-.96-.7-.96H94.248c-.288,0-.336-.1-.336-.288v-.336a.276.276,0,0,1,.168-.288l11.136-7.92c1.128-.792,1.632-1.176,1.632-2.5v-3.024a3.672,3.672,0,0,0-3.912-3.936h-8.5a3.653,3.653,0,0,0-3.888,3.936v1.224c0,.5.192.7,1.008.7s1.008-.192,1.008-.672V-14.5a2.252,2.252,0,0,1,2.4-2.424h7.488a2.286,2.286,0,0,1,2.4,2.4v2.064c0,.888-.384,1.08-1.2,1.656L91.608-2.112a1.261,1.261,0,0,0-.7,1.2V0a1.234,1.234,0,0,0,1.3,1.344h14.28C106.848,1.344,107.064,1.128,107.064.36Zm19.368-3.72V-14.136a4.441,4.441,0,0,0-4.728-4.752h-6.768a4.447,4.447,0,0,0-4.752,4.752V-3.36a4.435,4.435,0,0,0,4.752,4.7h6.672A4.479,4.479,0,0,0,126.432-3.36Zm-1.992-.384A3.057,3.057,0,0,1,121.176-.6h-5.832a3,3,0,0,1-3.168-3.144V-13.752a3,3,0,0,1,3.168-3.168h5.928a3.01,3.01,0,0,1,3.168,3.168ZM146.064.36c0-.768-.24-.96-.7-.96h-12.12c-.288,0-.336-.1-.336-.288v-.336a.276.276,0,0,1,.168-.288l11.136-7.92c1.128-.792,1.632-1.176,1.632-2.5v-3.024a3.672,3.672,0,0,0-3.912-3.936h-8.5a3.653,3.653,0,0,0-3.888,3.936v1.224c0,.5.192.7,1.008.7s1.008-.192,1.008-.672V-14.5a2.252,2.252,0,0,1,2.4-2.424h7.488a2.286,2.286,0,0,1,2.4,2.4v2.064c0,.888-.384,1.08-1.2,1.656L130.608-2.112a1.261,1.261,0,0,0-.7,1.2V0a1.234,1.234,0,0,0,1.3,1.344h14.28C145.848,1.344,146.064,1.128,146.064.36Zm19.2-12.528v-2.784a3.66,3.66,0,0,0-3.912-3.936H153a3.66,3.66,0,0,0-3.912,3.936v1.2c0,.456.168.624,1.008.624s1.008-.144,1.008-.576V-14.5a2.275,2.275,0,0,1,2.424-2.424h7.32a2.272,2.272,0,0,1,2.4,2.4l-.024,2.328a2.286,2.286,0,0,1-2.4,2.4h-5.4c-.48,0-.7.24-.7.984s.216.984.7.984H160.8a2.306,2.306,0,0,1,2.424,2.4v2.28A2.271,2.271,0,0,1,160.632-.6H153.72c-1.8,0-2.616-.576-2.616-2.568v-.624c0-.432-.168-.576-1.008-.576s-1.008.192-1.008.624v1.008c0,2.64.984,4.08,4.08,4.08h8.016c2.784,0,4.056-1.7,4.056-4.08V-5.472a3.711,3.711,0,0,0-1.68-3.336A3.689,3.689,0,0,0,165.264-12.168Z" transform="translate(683 8258)" fill="#efefef"/>
    <g id="グループ_589" data-name="グループ 589" transform="translate(-346 -107)">
      <path id="パス_901" data-name="パス 901" d="M-80.682-6.86a4.549,4.549,0,0,1,.532.616c.126.168.2.252.252.252s.14-.07.252-.224a12.051,12.051,0,0,0,1.19-1.862h.476v6.846c0,1.4-.028,2.1-.028,2.184,0,.14.014.154.154.154h1.176c.14,0,.154-.014.154-.154,0-.07-.028-.784-.028-2.184v-.98h1.4c1.106,0,1.456.028,1.54.028.154,0,.168-.014.168-.154V-3.374c0-.154-.014-.168-.168-.168-.084,0-.434.028-1.54.028h-1.4V-5.18h1.386c1.106,0,1.456.028,1.54.028.14,0,.154-.014.154-.154v-1.05c0-.14-.014-.154-.154-.154-.084,0-.434.028-1.54.028h-1.386v-1.6h1.708c1.274,0,1.694.028,1.778.028.154,0,.168-.014.168-.154V-9.282c0-.14-.014-.154-.168-.154-.084,0-.5.028-1.778.028h-2.982l.35-.868a1.924,1.924,0,0,1,.364-.7.3.3,0,0,0,.126-.252c0-.1-.126-.168-.266-.21a8.937,8.937,0,0,0-1.33-.308,4.659,4.659,0,0,1-.252,1.064A10.706,10.706,0,0,1-80.682-7.35v-.42c0-2.156.028-2.884.028-2.968,0-.14-.014-.154-.154-.154-.1,0-.378.028-1.33.028h-1.414c-.938,0-1.232-.028-1.33-.028-.14,0-.154.014-.154.154,0,.1.028.854.028,3.43v2.59c0,3.7-.028,4.438-.028,4.522,0,.14.014.154.154.154H-83.8c.14,0,.154-.014.154-.154V-1.218h1.638V-.6c0,.14.014.154.168.154h1.036c.14,0,.154-.014.154-.154,0-.084-.028-.784-.028-4.326ZM-83.65-2.492V-5.5h1.638v3.01Zm1.638-7.1v2.814H-83.65V-9.59Zm16.926,7.574v.686c0,1.47-.028,2.2-.028,2.282,0,.14.014.154.168.154H-63.7c.14,0,.154-.014.154-.154,0-.07-.028-.812-.028-2.282v-.686h2.968c1.232,0,1.666.028,1.75.028.14,0,.154-.014.154-.154V-3.248c0-.126-.014-.14-.154-.14-.084,0-.518.028-1.75.028h-2.968V-5.4h1.5c1.372,0,1.834.028,1.918.028.126,0,.14-.014.14-.154V-6.58c0-.14-.014-.154-.14-.154-.084,0-.546.028-1.918.028h-1.5V-8.568h2.156c1.358,0,1.834.028,1.918.028.14,0,.154-.014.154-.154V-9.73c0-.14-.014-.154-.154-.154-.084,0-.56.028-1.918.028H-67.2l.28-.6a1.366,1.366,0,0,1,.35-.5c.1-.1.168-.154.168-.266s-.084-.182-.252-.238c-.378-.112-.84-.21-1.344-.308a4.489,4.489,0,0,1-.364,1.022,10.294,10.294,0,0,1-2.59,3.388,2.8,2.8,0,0,1,.784.756c.14.182.21.266.28.266s.154-.07.294-.224a12.822,12.822,0,0,0,1.638-2h2.87v1.862h-1.792c-1.358,0-1.834-.028-1.918-.028-.154,0-.168.014-.168.154,0,.084.028.462.028,1.26v1.96h-.336c-1.232,0-1.666-.028-1.75-.028-.14,0-.154.014-.154.14v1.106c0,.14.014.154.154.154.084,0,.518-.028,1.75-.028ZM-67.452-3.36V-5.4h2.366V-3.36ZM-44.6-9.3c0-1.232.028-1.82.028-1.918,0-.14-.014-.154-.154-.154-.084,0-.462.028-1.554.028h-2.058c-1.092,0-1.456-.028-1.54-.028-.154,0-.168.014-.168.154,0,.1.028.42.028,1.232v1.876c0,.826-.028,1.134-.028,1.218,0,.14.014.154.168.154.084,0,.448-.028,1.54-.028h2.3V-.994c0,.42-.112.546-.574.546a6.959,6.959,0,0,1-1.022-.07A3.516,3.516,0,0,1-47.32.5c.07.434.084.434.518.434,1.12,0,1.526-.1,1.848-.378s.406-.616.406-1.288S-44.6-2.31-44.6-3.29Zm-1.442,1.54h-2.6v-.812h2.6Zm0-2.548v.8h-2.6v-.8Zm-8.47-1.036c-1.036,0-1.568-.028-1.666-.028-.14,0-.154.014-.154.154,0,.1.028,1.092.028,3.052v6.076c0,1.96-.028,2.926-.028,3.024,0,.14.014.154.154.154h1.19c.14,0,.154-.014.154-.154,0-.1-.028-1.064-.028-3.024V-6.762h2.3c.924,0,1.33.028,1.414.028.126,0,.14-.014.14-.154,0-.084-.028-.476-.028-1.33V-9.87c0-.854.028-1.246.028-1.344,0-.14-.014-.154-.14-.154-.084,0-.49.028-1.414.028Zm2.1,3.584h-2.45v-.812h2.45Zm0-2.548v.8h-2.45v-.8Zm2.632,7.98v1.3c0,.966-.028,1.428-.028,1.512,0,.154.014.168.154.168h1.036c.14,0,.154-.014.154-.168,0-.084-.028-.546-.028-1.512v-1.3c1.106,0,1.526.028,1.6.028.14,0,.154-.014.154-.168V-3.3c0-.14-.014-.154-.154-.154-.07,0-.49.028-1.6.028V-4.7c.868.014,1.218.028,1.288.028.14,0,.154-.014.154-.154v-.854c0-.14-.014-.154-.154-.154-.084,0-.5.028-1.75.028h-3c-1.246,0-1.666-.028-1.75-.028-.154,0-.168.014-.168.154v.854c0,.14.014.154.168.154.07,0,.392-.014,1.232-.028,0,.49-.014.924-.028,1.274-1.12,0-1.526-.028-1.6-.028-.14,0-.154.014-.154.154v.84c0,.154.014.168.154.168.07,0,.462-.014,1.526-.028l-.028.252A3.265,3.265,0,0,1-54.1-.014a3.71,3.71,0,0,1,.826.588c.168.168.238.252.322.252.056,0,.126-.07.266-.2a4.565,4.565,0,0,0,1.33-2.352,6.019,6.019,0,0,0,.1-.6ZM-51.17-3.43c.014-.364.028-.8.028-1.274h1.358V-3.43Zm13.132-1.008V-.476c0,.994-.028,1.344-.028,1.414,0,.14.014.154.154.154h1.036c.14,0,.154-.014.154-.154V.448h4.942c1.274,0,1.708.028,1.778.028.14,0,.154-.014.154-.168V-.56c0-.154-.014-.168-.154-.168-.07,0-.5.028-1.778.028h-1.372v-.924h.8c1.2,0,1.61.028,1.694.028.14,0,.154-.014.154-.168v-.784c0-.14-.014-.154-.154-.154-.084,0-.49.028-1.694.028h-.8v-.91h.8c1.2,0,1.61.028,1.694.028.14,0,.154-.014.154-.168v-.8c0-.126-.014-.14-.154-.14-.084,0-.49.014-1.694.014h-.8V-5.53h1.232c1.232,0,1.652.028,1.736.028.126,0,.14-.014.14-.154v-.882c0-.14-.014-.154-.14-.154-.084,0-.5.028-1.736.028h-1.106A3.019,3.019,0,0,0-32.8-7.14a.881.881,0,0,1,.224-.336c.1-.084.14-.126.14-.224,0-.07-.07-.126-.224-.168-.266-.084-.8-.2-1.232-.28a3.429,3.429,0,0,1-.21.742c-.1.224-.21.49-.35.742h-2.03a2.609,2.609,0,0,1,.532-.756.271.271,0,0,0,.154-.224c0-.07-.07-.14-.224-.2a9.452,9.452,0,0,0-1.19-.364,3.863,3.863,0,0,1-.448,1.036A10.572,10.572,0,0,1-39.7-4.648a2.593,2.593,0,0,1,.574.728c.112.21.168.308.252.308s.154-.07.294-.224ZM-36.722-.7v-.924h2.254V-.7Zm0-1.974v-.91h2.254v.91Zm0-1.974V-5.53h2.254v.882ZM-41.146-1.19c0,1.372-.014,2.044-.014,2.128,0,.14,0,.154.14.154h1.162c.126,0,.14-.014.14-.154,0-.07-.028-.756-.028-2.128V-8.6c.252-.56.49-1.134.714-1.75.126-.364.182-.49.266-.56a.334.334,0,0,0,.154-.252c0-.1-.07-.154-.21-.21-.448-.168-.854-.28-1.316-.406a5.963,5.963,0,0,1-.21.966A13.18,13.18,0,0,1-42.77-6.3a5.121,5.121,0,0,1,.434,1.2c.042.154.084.224.14.224s.154-.07.252-.21c.294-.364.56-.728.812-1.092-.014.616-.014,1.246-.014,1.75Zm9.464-8.218H-33.74v-.9a2.656,2.656,0,0,1,.07-.868.6.6,0,0,0,.084-.252c0-.07-.07-.112-.2-.126-.448-.028-.882-.056-1.386-.07A6.829,6.829,0,0,1-35.1-10.3v.9h-1.89v-.6a1.33,1.33,0,0,1,.07-.546.524.524,0,0,0,.07-.252c0-.07-.056-.126-.168-.14-.476-.042-.9-.07-1.386-.084a9.263,9.263,0,0,1,.056,1.008v.6c0,.616-.028.882-.028.98,0,.14.014.154.154.154.084,0,.56-.028,1.9-.028h3.962c1.344,0,1.82.028,1.9.028.154,0,.168-.014.168-.154,0-.084-.028-.364-.028-.98v-.616a1.545,1.545,0,0,1,.07-.588c.028-.084.07-.126.07-.21s-.07-.126-.2-.14c-.448-.042-.91-.07-1.4-.084a5.344,5.344,0,0,1,.084,1.036Zm11,.826a3.18,3.18,0,0,1,3.136,3.248c0,2.646-1.862,3.626-4.228,4.186a2.969,2.969,0,0,1,.98.882c.182.28.308.336.6.252,2.842-.854,4.312-2.492,4.312-5.1,0-2.786-1.974-4.858-5.334-4.858a6.127,6.127,0,0,0-4.55,1.792,5.158,5.158,0,0,0-1.582,3.64c0,2.282,1.246,3.6,2.478,3.6a2.659,2.659,0,0,0,2.38-1.61,17.53,17.53,0,0,0,1.75-6.034Zm-1.68.084a16,16,0,0,1-1.484,5.012c-.378.672-.686.854-1.05.854-.434,0-.952-.714-.952-2a4.031,4.031,0,0,1,1.092-2.59A4.216,4.216,0,0,1-22.358-8.5Zm9,4.116a16.1,16.1,0,0,0,1.3,1.232.289.289,0,0,0,.2.1.318.318,0,0,0,.252-.182,4.593,4.593,0,0,1,.56-.714c.966-1.064,1.6-1.82,2.282-2.534a.292.292,0,0,1,.224-.112.346.346,0,0,1,.224.1,63.431,63.431,0,0,0,6.2,4.886.233.233,0,0,0,.154.056c.07,0,.14-.056.21-.154a8.2,8.2,0,0,0,.728-1.218A.244.244,0,0,0-1.148-3.3,44.461,44.461,0,0,1-7.42-7.854a1.62,1.62,0,0,0-1.218-.574c-.434,0-.7.154-1.26.742-.658.7-1.344,1.414-2.03,2.114A6.446,6.446,0,0,1-13.356-4.382ZM-3.542-10.3a1.477,1.477,0,0,0-1.512,1.5,1.494,1.494,0,0,0,1.512,1.5,1.494,1.494,0,0,0,1.512-1.5A1.494,1.494,0,0,0-3.542-10.3Zm0,.672a.8.8,0,0,1,.826.826.8.8,0,0,1-.826.826.8.8,0,0,1-.826-.826A.8.8,0,0,1-3.542-9.632ZM9.31-4.326c1.036,0,2.072.014,3.122.028.2.014.252-.042.252-.21a10.319,10.319,0,0,0,0-1.316c0-.168-.042-.21-.252-.2-1.078.014-2.156.042-3.22.042H4.7A17.986,17.986,0,0,1,1.68-6.146a15.2,15.2,0,0,0,.21,1.694c.042.21.154.294.322.294A11.2,11.2,0,0,1,4.27-4.326ZM16.016-5.95a12.276,12.276,0,0,1,2.828,1.526.271.271,0,0,0,.168.084c.056,0,.112-.056.182-.14a5.7,5.7,0,0,0,.616-1.064.415.415,0,0,0,.056-.154c0-.084-.056-.14-.154-.21A9.716,9.716,0,0,0,17.024-7.28c-.126-.028-.2.042-.266.14C16.59-6.916,16.366-6.51,16.016-5.95ZM17.71-9.24a13.54,13.54,0,0,1,2.716,1.722.36.36,0,0,0,.21.1.156.156,0,0,0,.14-.084,5.992,5.992,0,0,0,.714-1.05.339.339,0,0,0,.056-.182.222.222,0,0,0-.112-.182A9.518,9.518,0,0,0,18.8-10.472c-.168-.084-.252-.056-.35.112C18.214-10,17.948-9.6,17.71-9.24Zm-.588,7.98A8.841,8.841,0,0,0,18.158.168a.36.36,0,0,0,.28.168.31.31,0,0,0,.224-.112,4.6,4.6,0,0,1,.812-.476A32.5,32.5,0,0,0,23.66-2.884a26.083,26.083,0,0,0,3.556-3.234.435.435,0,0,0,.154-.322.685.685,0,0,0-.07-.266,6.992,6.992,0,0,1-.406-1.568,25.476,25.476,0,0,1-4.032,3.906,23.452,23.452,0,0,1-3.836,2.422A6.473,6.473,0,0,1,17.122-1.26Zm7-9.016a6.947,6.947,0,0,1,1.414,1.624.146.146,0,0,0,.238.042l.588-.434a.141.141,0,0,0,.042-.224,6.443,6.443,0,0,0-1.33-1.5c-.084-.07-.14-.084-.21-.028ZM25.41-11.2a6.623,6.623,0,0,1,1.4,1.61.144.144,0,0,0,.238.042l.56-.434a.162.162,0,0,0,.042-.252,5.847,5.847,0,0,0-1.33-1.442c-.084-.07-.126-.084-.21-.028ZM38.038-3.486a5.842,5.842,0,0,0-1.12-.112c-1.414,0-2.45.826-2.45,1.974,0,1.2.9,1.96,2.506,1.96,1.652,0,2.45-.644,2.562-1.82a8.314,8.314,0,0,1,1.512,1.12.194.194,0,0,0,.126.07A.169.169,0,0,0,41.3-.378a7.564,7.564,0,0,0,.644-1.078c.07-.154.056-.2-.07-.28A9.162,9.162,0,0,0,39.55-3.08c-.07-1.2-.1-2.184-.1-3.752a15.776,15.776,0,0,0,2.156-.294c.1-.014.154-.084.154-.21a5.6,5.6,0,0,0-.084-.994c-.028-.154-.056-.21-.224-.168-.6.1-1.33.2-1.988.252,0-.644,0-1.008.028-1.484a1.579,1.579,0,0,1,.112-.49.6.6,0,0,0,.084-.238c0-.126-.1-.2-.252-.238a7.794,7.794,0,0,0-1.694-.266,5.771,5.771,0,0,1,.182,1.372c0,.518.014.966.014,1.47a20.253,20.253,0,0,1-3.192-.042,8.576,8.576,0,0,0,.1,1.274c.014.14.07.182.252.182a28.31,28.31,0,0,0,2.884.014C38-5.586,38.01-4.564,38.038-3.486Zm.028,1.33a1.972,1.972,0,0,1,.014.28c0,.5-.448.91-1.148.91-.826,0-1.134-.266-1.134-.7s.392-.672,1.05-.672A3.9,3.9,0,0,1,38.066-2.156Zm-6.5-8.778a7.045,7.045,0,0,1-.1,1.652A30.41,30.41,0,0,0,30.9-3.976a13.041,13.041,0,0,0,.6,4.27c.07.2.126.21.28.168A5.863,5.863,0,0,0,32.83.224c.126-.042.182-.084.168-.182A2.644,2.644,0,0,1,33.012-.7a8.3,8.3,0,0,1,.714-2.128.406.406,0,0,0,.084-.224.3.3,0,0,0-.084-.2,3.723,3.723,0,0,1-.49-.882c-.294.7-.588,1.3-.868,1.946-.042-.588-.042-1.232-.042-1.792a27.8,27.8,0,0,1,.7-5.1,2.841,2.841,0,0,1,.252-.77.715.715,0,0,0,.1-.308c0-.112-.056-.2-.21-.28A10.932,10.932,0,0,0,31.57-10.934ZM46.69-4.858a3.694,3.694,0,0,0-.742,2c0,1.82,1.61,2.828,4.746,2.828a21.111,21.111,0,0,0,4.172-.336c.168-.028.252-.084.238-.21a11.706,11.706,0,0,0-.224-1.372c-.028-.126-.1-.168-.294-.126a17.811,17.811,0,0,1-3.794.406c-2.408,0-3.318-.434-3.318-1.316a2.3,2.3,0,0,1,.364-1.064c.07-.112.056-.182-.07-.252C47.4-4.494,47.054-4.676,46.69-4.858ZM47-10.15c-.028.5-.056.91-.056,1.246,0,.168.056.224.182.252a17.474,17.474,0,0,0,2.45.238,9.627,9.627,0,0,0,1.148-.042c-.49.294-1.106.686-1.834,1.162a3.345,3.345,0,0,1,.98.448.588.588,0,0,0,.294.084.6.6,0,0,0,.35-.126,8.156,8.156,0,0,1,3.43-1.386c.168-.014.238-.1.238-.294a9.219,9.219,0,0,0-.07-1.19c-.014-.112-.07-.168-.21-.154-.9.056-1.946.126-2.968.126A17.662,17.662,0,0,1,47-10.15ZM62.3-8.736c-1.078.084-1.946.126-3.038.126.056.462.154,1.05.2,1.218a.239.239,0,0,0,.266.2c.714,0,1.6-.07,2.352-.126-.238,1.4-.434,2.436-.742,3.668-.056.21-.112.42-.182.658a.955.955,0,0,0-.056.28c0,.126.084.182.308.28a3.935,3.935,0,0,0,1.05.308c.126.014.168-.042.266-.21.126-.182.266-.35.392-.532a4.655,4.655,0,0,1,3.682-1.736c1.064,0,1.6.6,1.6,1.33,0,.882-.518,1.526-1.6,1.974a10.906,10.906,0,0,1-4.018.77,2.672,2.672,0,0,1,.756.994c.112.266.21.336.35.336A6.485,6.485,0,0,0,64.918.7a9.325,9.325,0,0,0,3.57-1.12,3.138,3.138,0,0,0,1.6-2.828,2.842,2.842,0,0,0-3.122-2.646A6.056,6.056,0,0,0,62.944-4.41c.252-.98.448-1.918.644-3.08,1.176-.154,1.932-.308,3.136-.574.126-.028.168-.07.168-.224a6.336,6.336,0,0,0-.1-1.036c-.028-.182-.1-.2-.294-.14a25.6,25.6,0,0,1-2.632.518c.07-.49.126-.77.2-1.148a1.453,1.453,0,0,1,.238-.518.46.46,0,0,0,.1-.224c0-.112-.1-.2-.28-.252a9.163,9.163,0,0,0-1.68-.294,4.645,4.645,0,0,1,.028,1.358C62.426-9.688,62.37-9.226,62.3-8.736ZM76.454-10.3a11.167,11.167,0,0,1,2.828,1.82c.07.07.112.1.168.1s.1-.042.154-.112a9.168,9.168,0,0,0,.714-.98.388.388,0,0,0,.07-.168c0-.056-.028-.1-.1-.154a9.183,9.183,0,0,0-2.744-1.666.234.234,0,0,0-.266.07A7.668,7.668,0,0,0,76.454-10.3Zm-.98,1.946a8.724,8.724,0,0,1-.126,1.26c-.168,1.246-.35,2.9-.434,4.522,0,.2.056.224.2.28a9.625,9.625,0,0,0,.952.378c.182.042.238.042.322-.1a3.831,3.831,0,0,1,.6-.77,6.232,6.232,0,0,1,4.032-2.128c1.2,0,1.68.686,1.68,1.442a2.294,2.294,0,0,1-1.652,2.114,11.617,11.617,0,0,1-3.85.784,3.582,3.582,0,0,1,.952,1.19c.126.21.252.224.56.182a12.139,12.139,0,0,0,3.584-.966A3.431,3.431,0,0,0,84.406-3.3c0-1.806-1.218-3-3.262-3a6.825,6.825,0,0,0-4.676,2.212A23.365,23.365,0,0,1,76.8-6.636a2.625,2.625,0,0,1,.28-.742.417.417,0,0,0,.07-.21c0-.112-.07-.2-.224-.266A7.876,7.876,0,0,0,75.474-8.358Z" transform="translate(1013 8419)" fill="#efefef"/>
      <g id="グループ_592" data-name="グループ 592" transform="translate(1121.547 8406.773)">
        <path id="パス_293" data-name="パス 293" d="M38.3,35.76c-.549-.926-.334-1.2.478-.613l7.306,5.279a.74.74,0,0,1,0,1.276l-7.306,5.279c-.813.588-1.026.31-.478-.613l.361-.609a10.137,10.137,0,0,0,0-9.391Z" transform="translate(-38 -34.838)" fill="#fff" fill-rule="evenodd"/>
      </g>
    </g>
  </g>
</svg>
