<svg id="グループ_506" data-name="グループ 506" xmlns="http://www.w3.org/2000/svg" xmlns:xlink="http://www.w3.org/1999/xlink" width="74.689" height="80.254" viewBox="0 0 74.689 80.254">
  <defs>
    <clipPath id="clip-path">
      <rect id="長方形_3" data-name="長方形 3" width="74.689" height="80.254" fill="#7052ac"/>
    </clipPath>
  </defs>
  <g id="グループ_1" data-name="グループ 1" transform="translate(0)" clip-path="url(#clip-path)">
    <path id="パス_1" data-name="パス 1" d="M.52.027l.1.1a1.331,1.331,0,0,1-.6.457C-.047.426.067.234.338.008.411-.031.438.1.52.027" transform="translate(61.585 61.37)" fill="#7052ac"/>
    <path id="パス_2" data-name="パス 2" d="M.258,0C.313.023.379.019.434.041.387.132.074.4,0,.319A.417.417,0,0,1,.258,0" transform="translate(58.296 63.924)" fill="#7052ac"/>
    <path id="パス_3" data-name="パス 3" d="M.523.013C.466.094.5.176.444.257.259.392.2.307.028.4-.118.236.346-.066.523.013" transform="translate(55.037 69.096)" fill="#7052ac"/>
    <path id="パス_4" data-name="パス 4" d="M.261,0C.53.1.315.383.039.369-.067.207.056.1.261,0" transform="translate(50.29 61.156)" fill="#7052ac"/>
    <path id="パス_5" data-name="パス 5" d="M.485,0C.668.217.124.42,0,.3-.012.18.311,0,.485,0" transform="translate(51.273 67.504)" fill="#7052ac"/>
    <path id="パス_6" data-name="パス 6" d="M.342.291A.5.5,0,0,1,0,.264.149.149,0,0,0,.02.075C.4-.1.593.058.342.291" transform="translate(47.939 61.265)" fill="#7052ac"/>
    <path id="パス_7" data-name="パス 7" d="M0,.176C.035.022.528-.1.523.122.443.246.026.341,0,.176" transform="translate(44.695 67.237)" fill="#7052ac"/>
    <path id="パス_8" data-name="パス 8" d="M0,.244A5.081,5.081,0,0,1,1.536,0,8.892,8.892,0,0,1,0,.244" transform="translate(43.372 68.211)" fill="#7052ac"/>
    <path id="パス_9" data-name="パス 9" d="M0,.109C.3.106.355.141.514,0,.581,0,.627.028.635.086a1.366,1.366,0,0,1-.5.178C.1.2-.024.224,0,.109" transform="translate(43.391 67.437)" fill="#7052ac"/>
    <path id="パス_10" data-name="パス 10" d="M4.524.135A16,16,0,0,1,0,0C1.507.193,3.118.062,4.524.135" transform="translate(37.293 68.4)" fill="#7052ac"/>
    <path id="パス_11" data-name="パス 11" d="M0,0C1.1.028,2.545.045,3.484.132A14.008,14.008,0,0,1,0,0" transform="translate(36.486 70.704)" fill="#7052ac"/>
    <path id="パス_12" data-name="パス 12" d="M1.471.1C1.011.14.358.456,0,.177A3.957,3.957,0,0,0,1.305,0c.007.065.18.016.166.1" transform="translate(38.283 69.164)" fill="#7052ac"/>
    <path id="パス_13" data-name="パス 13" d="M.637.085C.6.276-.171.205.035,0,.2.132.562-.047.637.085" transform="translate(38.374 62.696)" fill="#7052ac"/>
    <path id="パス_14" data-name="パス 14" d="M.761.093A3.711,3.711,0,0,1,0,.1C0-.085.66.03.761.093" transform="translate(38.181 71.543)" fill="#7052ac"/>
    <path id="パス_15" data-name="パス 15" d="M0,.042A2.84,2.84,0,0,1,1.251.1C.751-.005.259.307,0,.042" transform="translate(37.424 67.847)" fill="#7052ac"/>
    <path id="パス_16" data-name="パス 16" d="M.014.01c.218.053.23-.063.53.023C.647.26-.111.252.014.01" transform="translate(37.692 71.788)" fill="#7052ac"/>
    <path id="パス_17" data-name="パス 17" d="M.422.3C.3.191.038.157,0,0,.218-.029.582.346.923.15c.08.044.222.053.271.116C.849.216.752.338.422.3" transform="translate(36.812 69.236)" fill="#7052ac"/>
    <path id="パス_18" data-name="パス 18" d="M2.065.164A11.6,11.6,0,0,1,0,.08,4.528,4.528,0,0,1,2.065.164" transform="translate(35.523 71.663)" fill="#7052ac"/>
    <path id="パス_19" data-name="パス 19" d="M1.522.875C1.185,1.555-.289.811.05.18.2-.125.915,0,1.19.244a1.06,1.06,0,0,1,.333.632" transform="translate(35.833 57.462)" fill="#7052ac"/>
    <path id="パス_20" data-name="パス 20" d="M.748.237C.606.124.027.19,0,.029.174-.044.816.022.748.237" transform="translate(34.362 71.485)" fill="#7052ac"/>
    <path id="パス_21" data-name="パス 21" d="M0,0C.255.018.515.039.744.035c.043.247-.53,0-.649.118C.149.066-.009.068,0,0" transform="translate(34.386 70.474)" fill="#7052ac"/>
    <path id="パス_22" data-name="パス 22" d="M.982.2A2.6,2.6,0,0,1,0,.022,1.573,1.573,0,0,1,.982.2" transform="translate(33.867 71.211)" fill="#7052ac"/>
    <path id="パス_23" data-name="パス 23" d="M.042,0c.28.157.941.2,1.129.3A4,4,0,0,1,.006.2C.024.076-.038.1.042,0" transform="translate(33.347 69.214)" fill="#7052ac"/>
    <path id="パス_24" data-name="パス 24" d="M1.369.46A6.929,6.929,0,0,1,0,0C.48.046,1.217.294,1.677.33,1.434.321,1.522.47,1.369.46" transform="translate(32.549 70.051)" fill="#7052ac"/>
    <path id="パス_25" data-name="パス 25" d="M.976.1c.411.08.876.167,1.261.207L2.2.512C1.355.2,1.122.421,0,.054A1.726,1.726,0,0,1,.976.1" transform="translate(31.366 71.096)" fill="#7052ac"/>
    <path id="パス_26" data-name="パス 26" d="M7.285,1.869c-.061.121.079.11.044.215-.19-.077-.73-.237-.878.042-.086.132.277.252.069.262A10,10,0,0,0,3.4,2.031c-.116.036-.015.157-.1.182-.21.022-.562-.195-.714-.067-.114.237.447.225.413.435C2.166,2.145.667,1.87,0,1.171c.091-.083.147-.242.248-.3.167.007.259.151.427.234C.71,1.051.713.93.808,1.012a2.2,2.2,0,0,1,.544.366,5.524,5.524,0,0,1,1.591.02c.532-.369,1.575.3,2.375.269.1.092-.136.151-.051.2.193-.1.349.085.57.14-.034-.142.21-.11.121-.183-.168.015-.6.079-.594-.181.105-.044.334.091.43.034C5.4,1.579,5,1.5,4.584,1.419c-.4-.107-.806-.237-1.2-.358A5.691,5.691,0,0,1,1.286.019c.193.1.255-.1.455.021-.04.075-.076.149,0,.189A17.3,17.3,0,0,0,4.477,1.244l1.4.32.7.179.713.126" transform="translate(28.075 57.925)" fill="#7052ac"/>
    <path id="パス_27" data-name="パス 27" d="M0,0c.119-.014.71.008.7.142C.615.21-.05.177,0,0" transform="translate(32.585 71.7)" fill="#7052ac"/>
    <path id="パス_28" data-name="パス 28" d="M.01,0C.3.064.589.149.885.192.86.415-.107.258.01,0" transform="translate(31.644 71.502)" fill="#7052ac"/>
    <path id="パス_29" data-name="パス 29" d="M0,0C.421.137.91.046,1.185.269.74.176.184.338,0,0" transform="translate(31.823 68.887)" fill="#7052ac"/>
    <path id="パス_30" data-name="パス 30" d="M.088,0c.334.1.63.214.92.328A2.543,2.543,0,0,1,0,.12C.236.175.15.076.088,0" transform="translate(31.076 69.719)" fill="#7052ac"/>
    <path id="パス_31" data-name="パス 31" d="M0,0C.249.129.532-.075.613.113.554.073.42.137.515.16c.169-.032.356.178.637.19a.643.643,0,0,0,.1.308L.842.558C.854.44.989.488,1.046.431A.223.223,0,0,1,.933.368.911.911,0,0,1,0,0" transform="translate(32.132 60.847)" fill="#7052ac"/>
    <path id="パス_32" data-name="パス 32" d="M1.307.261A3.455,3.455,0,0,1,0,.044C.195-.089.957.109,1.307.261" transform="translate(29.691 71.155)" fill="#7052ac"/>
    <path id="パス_33" data-name="パス 33" d="M.042,0C.156.007.193.061.269.091.239.135.268.274.2.25.209.175.055.2,0,.167Z" transform="translate(34.005 57.307)" fill="#7052ac"/>
    <path id="パス_34" data-name="パス 34" d="M.568.065c.007.069.149.1.069.2C.4.144.305.2,0,.083.072-.039.283-.01.568.065" transform="translate(28.928 70.942)" fill="#7052ac"/>
    <path id="パス_35" data-name="パス 35" d="M.84.337A1.83,1.83,0,0,1,0,.029C.219-.1.547.233.84.337" transform="translate(28.519 70.494)" fill="#7052ac"/>
    <path id="パス_36" data-name="パス 36" d="M0,0C.193-.013.449.217.69.2.724.443-.061.131,0,0" transform="translate(27.626 70.177)" fill="#7052ac"/>
    <path id="パス_37" data-name="パス 37" d="M.01,0a2.25,2.25,0,0,1,.5.214C.473.27.546.308.517.363.208.267-.054.161.01,0" transform="translate(26.61 70.149)" fill="#7052ac"/>
    <path id="パス_38" data-name="パス 38" d="M.742.362A4.718,4.718,0,0,0,0,0C.162-.03.767.173.742.362" transform="translate(30.225 58.762)" fill="#7052ac"/>
    <path id="パス_39" data-name="パス 39" d="M.006,0c.27.086.879.244.788.455C.5.5-.066.214.006,0" transform="translate(25.744 69.739)" fill="#7052ac"/>
    <path id="パス_40" data-name="パス 40" d="M.919.343C.976.588.361.349,0,.188L.085,0C.41.2.763.22.919.343" transform="translate(24.709 69.378)" fill="#7052ac"/>
    <path id="パス_41" data-name="パス 41" d="M.256,0C.653.138.577.313.9.456.809.322.985.308,1.18.433c-.047.054.156.185.049.326C.833.56.115.392,0,.107A.344.344,0,0,0,.256,0" transform="translate(23.315 68.731)" fill="#7052ac"/>
    <path id="パス_42" data-name="パス 42" d="M0,0A3.107,3.107,0,0,1,.9.487C.618.411.1.213,0,0" transform="translate(29.224 56.634)" fill="#7052ac"/>
    <path id="パス_43" data-name="パス 43" d="M.134,0C.359.119.369.246.624.357L.688.235a2,2,0,0,1,.387.3C.988.55.88.534.833.61.509.434.309.392.018.212A.145.145,0,0,1,.134,0" transform="translate(22.341 68.238)" fill="#7052ac"/>
    <path id="パス_44" data-name="パス 44" d="M.076,0A3.364,3.364,0,0,0,.715.335C.795.445.752.556.67.666.446.558-.223.2.076,0" transform="translate(21.568 67.752)" fill="#7052ac"/>
    <path id="パス_45" data-name="パス 45" d="M0,0A18.709,18.709,0,0,1,1.709,1.1,4.594,4.594,0,0,1,0,0" transform="translate(26.273 56.562)" fill="#7052ac"/>
    <path id="パス_46" data-name="パス 46" d="M.583.129A.554.554,0,0,1,.412.547C.166.58-.231.383.173.017A.463.463,0,0,1,.583.129" transform="translate(32.019 48.619)" fill="#7052ac"/>
    <path id="パス_47" data-name="パス 47" d="M0,0C.253.029.694.439.431.456.4.306-.032.148,0,0" transform="translate(20.917 67.323)" fill="#7052ac"/>
    <path id="パス_48" data-name="パス 48" d="M.824.494A1.037,1.037,0,0,1,0,0,7.243,7.243,0,0,1,.824.494" transform="translate(26.715 56.462)" fill="#7052ac"/>
    <path id="パス_49" data-name="パス 49" d="M0,0C.63.442,1.228.955,1.764,1.345A4.646,4.646,0,0,1,0,0" transform="translate(26.206 54.546)" fill="#7052ac"/>
    <path id="パス_50" data-name="パス 50" d="M.561.579C.314.5.186.173,0,0,.354.089.8.51.561.579" transform="translate(20.127 66.887)" fill="#7052ac"/>
    <path id="パス_51" data-name="パス 51" d="M.959.733C.735.526-.046.367,0,0A6.711,6.711,0,0,1,.959.733" transform="translate(25.682 56.854)" fill="#7052ac"/>
    <path id="パス_52" data-name="パス 52" d="M.345.074A14.23,14.23,0,0,1,2.07,1.593c.671.589,1.461.81,1.773,1.449a.054.054,0,0,1-.007.081A7.845,7.845,0,0,1,1.954,1.778c-.164-.158-.33-.314-.492-.471l-.1.007a.28.28,0,0,1-.1-.035.725.725,0,0,1,.211.425A6.5,6.5,0,0,0,.6.882,2.262,2.262,0,0,1,0,0,11.417,11.417,0,0,0,1.156,1.161a.173.173,0,0,1,.006-.15A7.357,7.357,0,0,1,.345.074" transform="translate(21.463 54.131)" fill="#7052ac"/>
    <path id="パス_53" data-name="パス 53" d="M.6.484C.485.223.021.259,0,0,.192-.013.654.265.6.484" transform="translate(25.424 55.552)" fill="#7052ac"/>
    <path id="パス_54" data-name="パス 54" d="M1.32.951C1.066,1,.818.722.543.51.289.336-.095.136.021,0a6.387,6.387,0,0,1,1.3.951" transform="translate(24.097 55.792)" fill="#7052ac"/>
    <path id="パス_55" data-name="パス 55" d="M.424.516A.586.586,0,0,1,0,0C.154.17.486.351.424.516" transform="translate(24.626 54.766)" fill="#7052ac"/>
    <path id="パス_56" data-name="パス 56" d="M.008,0C.225.084.556.348.534.565.319.365-.058.255.008,0" transform="translate(23.65 53.89)" fill="#7052ac"/>
    <path id="パス_57" data-name="パス 57" d="M.793.878A3.635,3.635,0,0,1,0,0C.269.264.7.568.793.878" transform="translate(22.926 53.855)" fill="#7052ac"/>
    <path id="パス_58" data-name="パス 58" d="M.613.638C.41.473-.021.229,0,0,.133.222.577.373.613.638" transform="translate(24.079 52.978)" fill="#7052ac"/>
    <path id="パス_59" data-name="パス 59" d="M.069,0c.2.311.465.488.379.726C.291.493-.175.207.069,0" transform="translate(20.656 52.089)" fill="#7052ac"/>
    <path id="パス_60" data-name="パス 60" d="M0,.112.174,0c.038.074.1.156.091.215C.13.325.051.242,0,.112" transform="translate(24.865 47.066)" fill="#7052ac"/>
    <path id="パス_61" data-name="パス 61" d="M.2.517C.065.427-.093.115.069.013c.169-.054.287.075.4.213C.415.323.377.525.2.517" transform="translate(22.702 48.007)" fill="#7052ac"/>
    <path id="パス_62" data-name="パス 62" d="M.728.892a4.332,4.332,0,0,0,.058.5C.53.987.025.462,0,0,.246.267.447.853.728.892" transform="translate(17.551 49.341)" fill="#7052ac"/>
    <path id="パス_63" data-name="パス 63" d="M0,.209C.046.132.041.014.17,0,.317.263.233.349.252.514.171.37.079.382,0,.209" transform="translate(5.643 52.086)" fill="#7052ac"/>
    <path id="パス_64" data-name="パス 64" d="M0,.12C.034.1.033.072.04.04A.264.264,0,0,1,.3.029C.487.259.063.359,0,.12" transform="translate(23.257 44.436)" fill="#7052ac"/>
    <path id="パス_65" data-name="パス 65" d="M0,0A9.015,9.015,0,0,1,.433,1.207c.163.466.313.958.414,1.343A8.555,8.555,0,0,1,0,0" transform="translate(2.706 47.715)" fill="#7052ac"/>
    <path id="パス_66" data-name="パス 66" d="M.131.095c.107.6.253,1.126.052,1.368C.012.9.142.608,0,0,.023.111.069.134.131.095" transform="translate(4.197 47.714)" fill="#7052ac"/>
    <path id="パス_67" data-name="パス 67" d="M.095,0A1.024,1.024,0,0,1,.041.656C.01.4-.055.135.095,0" transform="translate(19.666 42.656)" fill="#7052ac"/>
    <path id="パス_68" data-name="パス 68" d="M1.08.55c.048.494-.04,1.244-.338,1.031,0,.242-.012.507-.095.533A1.339,1.339,0,0,1,.4,1.087a.477.477,0,0,1,.056-.043C.445.888.437.737.429.616A.872.872,0,0,1,0,.53C-.033-.3.652-.043.729.522A.214.214,0,0,0,.54.668C.548.784.558.9.567,1.02c.062.019.124.1.176.327,0,.049,0,.1,0,.164C.851,1.386.73.95.8.768.934.668.94.9,1.027.932,1.075.847.978.562,1.08.55" transform="translate(2.375 41.187)" fill="#7052ac"/>
    <path id="パス_69" data-name="パス 69" d="M.479,0c0,.1,0,.19.11.164C.574.516.338.658.083.815A.792.792,0,0,0,0,.5C.333.493.148.023.479,0" transform="translate(18.714 39.776)" fill="#7052ac"/>
    <path id="パス_70" data-name="パス 70" d="M0,.346C.076.312-.025-.025.085,0A2.1,2.1,0,0,1,.256.6C.141.582.075.454,0,.346" transform="translate(0.26 40.623)" fill="#7052ac"/>
    <path id="パス_71" data-name="パス 71" d="M.328,0C.232.142.182.327,0,.4.068.225.075,0,.328,0" transform="translate(19.395 39.259)" fill="#7052ac"/>
    <path id="パス_72" data-name="パス 72" d="M.307.616C.1.628.019.38,0,0,.166.074.246.325.307.616" transform="translate(2.656 39.969)" fill="#7052ac"/>
    <path id="パス_73" data-name="パス 73" d="M.359.336C.188.429.251.737,0,.764A1.738,1.738,0,0,1,.238,0C.194.2.368.171.359.336" transform="translate(19.281 38.623)" fill="#7052ac"/>
    <path id="パス_74" data-name="パス 74" d="M.3.47C.255.349.119.427.054.348.06.184-.016.2,0,.01.169-.058.5.224.3.47" transform="translate(0.067 39.95)" fill="#7052ac"/>
    <path id="パス_75" data-name="パス 75" d="M.137.324C.241.11.581.284.64,0,.706.77.393,1.415,0,1.082A1.164,1.164,0,0,0,.137.324" transform="translate(3.075 38.992)" fill="#7052ac"/>
    <path id="パス_76" data-name="パス 76" d="M.12,0C.1.254.257.337.321.5.073.631-.143.076.12,0" transform="translate(22.526 38.465)" fill="#7052ac"/>
    <path id="パス_77" data-name="パス 77" d="M.126.441C.024.362-.075.105.082,0,.085.14.3.335.126.441" transform="translate(23.123 37.765)" fill="#7052ac"/>
    <path id="パス_78" data-name="パス 78" d="M.248.063A.515.515,0,0,0,.223.442C-.024.457-.057.125.08,0c-.041.1.1.049.169.063" transform="translate(22.061 37.679)" fill="#7052ac"/>
    <path id="パス_79" data-name="パス 79" d="M0,.049c.1.01.122-.1.208-.02C.08.129.2.451.005.5-.019.4.051.194,0,.049" transform="translate(22.939 37.541)" fill="#7052ac"/>
    <path id="パス_80" data-name="パス 80" d="M.044,0c.482.032.748.215.8.531C.484.729.477.4.239.289.149.3.131.367.028.363.015.263-.036.085.044,0" transform="translate(22.985 37.118)" fill="#7052ac"/>
    <path id="パス_81" data-name="パス 81" d="M.33.009C.227.142.2.359,0,.4,0,.164.175-.047.33.009" transform="translate(22.484 35.375)" fill="#7052ac"/>
    <path id="パス_82" data-name="パス 82" d="M.254.388A.375.375,0,0,1,0,0C.123.1.472.049.445.255.314.21.285.3.254.388" transform="translate(19.998 34.421)" fill="#7052ac"/>
    <path id="パス_83" data-name="パス 83" d="M.121,1.077A6.408,6.408,0,0,0,0,0C.317.245.3.657.343,1.027Z" transform="translate(21.514 33.761)" fill="#7052ac"/>
    <path id="パス_84" data-name="パス 84" d="M.852.007C.526.223.286.709,0,.946.158.472.42-.066.852.007" transform="translate(21.839 30.729)" fill="#7052ac"/>
    <path id="パス_85" data-name="パス 85" d="M.286,0C.238.184.24.544,0,.534.14.357.083.034.286,0" transform="translate(22.802 31.183)" fill="#7052ac"/>
    <path id="パス_86" data-name="パス 86" d="M.279.918C.183.823.175.661,0,.624A4.034,4.034,0,0,1,.26,0,1.957,1.957,0,0,1,.279.918" transform="translate(4.814 19.902)" fill="#7052ac"/>
    <path id="パス_87" data-name="パス 87" d="M.345.472C.134.435-.1.215.048.022c.1-.045.22,0,.325-.016C.205.194.467.3.345.472" transform="translate(23.387 28.243)" fill="#7052ac"/>
    <path id="パス_88" data-name="パス 88" d="M0,1.338A3.544,3.544,0,0,1,.311,0,1.832,1.832,0,0,1,0,1.338" transform="translate(6.509 16.199)" fill="#7052ac"/>
    <path id="パス_89" data-name="パス 89" d="M1.185.482c-.147.295-.489.684-.46.9L1,1.011c.037.142.066.286.114.422l-.234.314C.523,1.276.4,2.141,0,2.479A14.23,14.23,0,0,1,1.326,0C1.168.2.992.419,1.185.482" transform="translate(8.408 13.934)" fill="#7052ac"/>
    <path id="パス_90" data-name="パス 90" d="M.133,0C.273.13.326.261.2.391A.175.175,0,0,0,.1.346C.092.2.2.142,0,.095A.2.2,0,0,1,.133,0" transform="translate(25.301 26.184)" fill="#7052ac"/>
    <path id="パス_91" data-name="パス 91" d="M.005.27C.236.1.354.251.615,0,.691.3-.071.533.005.27" transform="translate(14.493 10.869)" fill="#7052ac"/>
    <path id="パス_92" data-name="パス 92" d="M1.341.4l.083.109C1.14.478,1.04.91.807.881.89.838.813.78.759.724A.972.972,0,0,1,.435.991C.487.813.1.822.29.581.16.515.1.618.117.747.137.75.166.761.183.725L.216.759.17.8.138.769A.519.519,0,0,1,.159.851C.067.871.057.76,0,.753L.153.565.122.532a.057.057,0,0,0-.016,0,.977.977,0,0,0,.33-.24A.424.424,0,0,1,.778.359.348.348,0,0,1,.818.587,2.457,2.457,0,0,1,1.94,0c-.135.162-.385.2-.6.4" transform="translate(26.249 22.897)" fill="#7052ac"/>
    <path id="パス_93" data-name="パス 93" d="M.026.013C.207-.051.411.129.282.3A.2.2,0,0,1,.026.013" transform="translate(28.862 21.969)" fill="#7052ac"/>
    <path id="パス_94" data-name="パス 94" d="M.622,0C.7.126.417.143.509.27.522.215.589.176.661.138c.037.152-.018.3.167.3-.11.11-.262.053-.3.182C.656.6.729.845.84.915.954.876.948.8,1.038.754c.072.321.208.661-.039.867-.09-.252-.253-.134-.4-.127C.823,1.1.31.78,0,.69.412.556.209-.021.622,0" transform="translate(29.134 21.627)" fill="#7052ac"/>
    <path id="パス_95" data-name="パス 95" d="M0,.228C.08.084.314.151.4,0,.448.142.322.22.184.294.142.071.051.394,0,.228" transform="translate(30.551 19.472)" fill="#7052ac"/>
    <path id="パス_96" data-name="パス 96" d="M1.066.054A4.717,4.717,0,0,0,.473.265C.28.346.113.405,0,.282.315.208.823-.129,1.066.054" transform="translate(31.252 20.153)" fill="#7052ac"/>
    <path id="パス_97" data-name="パス 97" d="M0,.234A.9.9,0,0,1,.452,0L.545.259A.506.506,0,0,1,0,.234" transform="translate(26.163 4.362)" fill="#7052ac"/>
    <path id="パス_98" data-name="パス 98" d="M.165.332C.141.268-.01.347,0,.244.267.09.665-.111.8.074.525.149.454.259.165.332" transform="translate(26.801 4.454)" fill="#7052ac"/>
    <path id="パス_99" data-name="パス 99" d="M0,.179c.237.04.664-.333.809-.1C.587.039.029.441,0,.179" transform="translate(32.675 19.83)" fill="#7052ac"/>
    <path id="パス_100" data-name="パス 100" d="M0,.256A3.847,3.847,0,0,1,1.434.023,10.392,10.392,0,0,1,.077.484Z" transform="translate(26.888 2.552)" fill="#7052ac"/>
    <path id="パス_101" data-name="パス 101" d="M0,0C.237.012.487,0,.621.174.43.245.318.068.169.208.117.132.039.1,0,0" transform="translate(33.226 19.153)" fill="#7052ac"/>
    <path id="パス_102" data-name="パス 102" d="M0,.392A2.047,2.047,0,0,1,1.367.03C.841.093.308.474,0,.392" transform="translate(30.077 2.238)" fill="#7052ac"/>
    <path id="パス_103" data-name="パス 103" d="M.458.342A1.736,1.736,0,0,1,.015.376C-.047.211.1.1.258,0c.013.154.379.145.2.342" transform="translate(31.139 2.667)" fill="#7052ac"/>
    <path id="パス_104" data-name="パス 104" d="M1.2.1C.84.129.256.4,0,.122.4.048.886-.1,1.2.1" transform="translate(36.888 18.11)" fill="#7052ac"/>
    <path id="パス_105" data-name="パス 105" d="M1.207.2C.837.339.487.1.206.282.262.128-.014.18,0,.051L1.01,0c-.049.136.159.115.2.2" transform="translate(36.25 2.147)" fill="#7052ac"/>
    <path id="パス_106" data-name="パス 106" d="M.53.154C.331.16.09.2,0,.11l0-.1C.25-.006.5-.019.53.154" transform="translate(37.752 13.149)" fill="#7052ac"/>
    <path id="パス_107" data-name="パス 107" d="M0,.084C.075.051.117-.012.245,0L.25.209C.105.233.034.179,0,.084" transform="translate(38.115 18.054)" fill="#7052ac"/>
    <path id="パス_108" data-name="パス 108" d="M.183.305C.376.24.007.169,0,.09.224.119.16-.025.384,0c.2.079.156.483-.2.3" transform="translate(39.914 1.858)" fill="#7052ac"/>
    <path id="パス_109" data-name="パス 109" d="M2.389.4C1.581.241.661.348,0,.162.162.167.109.039.2,0A3.62,3.62,0,0,0,1.305.163,2.9,2.9,0,0,1,2.389.4" transform="translate(40.859 1.933)" fill="#7052ac"/>
    <path id="パス_110" data-name="パス 110" d="M0,.012C.264-.051.58.154.827.09.875.333.023.135,0,.012" transform="translate(42.721 1.903)" fill="#7052ac"/>
    <path id="パス_111" data-name="パス 111" d="M0,.272C.117-.284.886.192,1.328.152c.022.179-.185.07-.187.218.265.012.7-.188.835-.035-.035.052-.12.028-.165.065a6.8,6.8,0,0,1,2.9.779c-.393-.07-.839-.2-1.306-.258a3.6,3.6,0,0,1-1.274-.4A4.89,4.89,0,0,1,.76.419C.637.312.917.275.827.22.542.136.6.479.287.35.268.232.509.232.423.161.222-.072.231.321,0,.272" transform="translate(41.169 17.032)" fill="#7052ac"/>
    <path id="パス_112" data-name="パス 112" d="M0,0C.262.1.829.019.859.262.577.188.545.3.287.249.447.07,0,.119,0,0" transform="translate(43.391 2.215)" fill="#7052ac"/>
    <path id="パス_113" data-name="パス 113" d="M0,.123l.014-.1c.208.027.255-.063.516,0,0,.181-.337.167-.53.1" transform="translate(43.723 1.999)" fill="#7052ac"/>
    <path id="パス_114" data-name="パス 114" d="M0,0C.266.006.819.024.893.2.563.139.114.2,0,0" transform="translate(43.395 5.868)" fill="#7052ac"/>
    <path id="パス_115" data-name="パス 115" d="M0,0C.4.073.593-.013,1.025.085.931.267.077.247,0,0" transform="translate(44.443 2.053)" fill="#7052ac"/>
    <path id="パス_116" data-name="パス 116" d="M0,0C.36.167,1.126.086,1.3.359.9.319.151.232,0,0" transform="translate(45.658 2.167)" fill="#7052ac"/>
    <path id="パス_117" data-name="パス 117" d="M.384.167C.225.093,0,.2,0,0,.153.094.412-.047.384.167" transform="translate(43.048 19.045)" fill="#7052ac"/>
    <path id="パス_118" data-name="パス 118" d="M0,.014c.309-.078.627.207.953.2C.774.382.135.221,0,.014" transform="translate(46.76 6.504)" fill="#7052ac"/>
    <path id="パス_119" data-name="パス 119" d="M2.886.971A9.731,9.731,0,0,1,0,0,17.421,17.421,0,0,1,2.886.971" transform="translate(44.421 19.234)" fill="#7052ac"/>
    <path id="パス_120" data-name="パス 120" d="M.716.4A3.77,3.77,0,0,1,0,.2L.058,0C.192.212.785.158.716.4" transform="translate(48.082 6.685)" fill="#7052ac"/>
    <path id="パス_121" data-name="パス 121" d="M.04.119C.05.075-.025.048.008,0a.685.685,0,0,1,.58.3A1.1,1.1,0,0,1,.04.119" transform="translate(49.29 2.966)" fill="#7052ac"/>
    <path id="パス_122" data-name="パス 122" d="M1.669.912C1.028.614.765.677.578.782c-.257-.1.1-.3-.056-.42C.309.278.317.435.12.369-.01.272-.062.052.106,0c.149.186,1.13.6.964.334.46.112.421.3.792.428a.616.616,0,0,1-.193.15" transform="translate(49.99 3.635)" fill="#7052ac"/>
    <path id="パス_123" data-name="パス 123" d="M15.542,10.253c-.632-.691-1.245-1.4-1.909-2.04A30.483,30.483,0,0,0,9.415,4.83c-.066-.08.11-.128-.072-.223a6.045,6.045,0,0,1-1.45-.847,18.142,18.142,0,0,0-1.778-1.1A55.771,55.771,0,0,0,0,.1L.033,0C.427.212.49.057.683.046A3.146,3.146,0,0,0,1.6.3C1.5.213,1.4.126,1.507.01c.182.083.251.039.384.066L1.8.3c.61.56,1.807.8,2.573,1.352-.074-.2.3-.187.214-.432.4.141.212.31.481.458-.022.123-.321-.028-.208.129.376.295,1.086.7,1.39.614C5.988,2.21,5.742,2,5.725,1.8c.115.039.589.156.552.32.157.169-.234-.081-.271-.038.678.324.715.63,1.208.95.152-.04-.175-.3.09-.147.343.2.507.544.869.644.011-.109-.352-.238-.232-.342.808.283.856.856,1.574,1.293.058-.064-.018-.145,0-.215.52.32.345.446.8.63.1.146-.15.242.087.408.091.077.135.052.223.123.1-.055-.1-.156,0-.211.557.386.531.678,1.046,1.111.049-.07.1-.133.181-.116.237.189-.042.261.194.45.038-.074.011-.164.112-.224.428.339.41.574.588.855.369.385.816.755,1.26,1.16l1.317,1.28a14.388,14.388,0,0,1,1.209,1.324,6.483,6.483,0,0,1,.773,1.4,21.425,21.425,0,0,0-1.765-2.2" transform="translate(50.405 4.409)" fill="#7052ac"/>
    <path id="パス_124" data-name="パス 124" d="M1.013.537C.981.418.687.365.74.525.361.359-.012.2,0,0,.3.291,1.186.264,1.013.537" transform="translate(52.74 4.74)" fill="#7052ac"/>
    <path id="パス_125" data-name="パス 125" d="M.65.453C.379.411-.064.157.008,0c.3.146.71.288.642.453" transform="translate(54.381 4.812)" fill="#7052ac"/>
    <path id="パス_126" data-name="パス 126" d="M.014,0,.967.554C.844.618.959.828.83.793.738.577.29.364,0,.151A.147.147,0,0,0,.014,0" transform="translate(54.26 8.91)" fill="#7052ac"/>
    <path id="パス_127" data-name="パス 127" d="M.449.432C.255.307.223.1,0,.063.031-.178.73.34.449.432" transform="translate(57.4 10.737)" fill="#7052ac"/>
    <path id="パス_128" data-name="パス 128" d="M2.809,2.505C1.878,1.566.763.871,0,0A15.762,15.762,0,0,1,2.809,2.505" transform="translate(60.97 10.608)" fill="#7052ac"/>
    <path id="パス_129" data-name="パス 129" d="M0,0A.89.89,0,0,1,.441.535C.3.455-.035.158,0,0" transform="translate(55.109 19.887)" fill="#7052ac"/>
    <path id="パス_130" data-name="パス 130" d="M0,0C.325.159,1.106.849.758.925.871.7.159.287,0,0" transform="translate(61.76 13.038)" fill="#7052ac"/>
    <path id="パス_131" data-name="パス 131" d="M0,0C.416.65,1.019,1.329,1.47,2.111A19.1,19.1,0,0,1,2.7,4.347c-.411-.738-.954-1.513-1.445-2.263A12.273,12.273,0,0,1,0,0" transform="translate(67.879 16.742)" fill="#7052ac"/>
    <path id="パス_132" data-name="パス 132" d="M.926,1.067a3.8,3.8,0,0,1,.563,1.219C1.07,1.451.324.71,0,0A8.225,8.225,0,0,1,.926,1.067" transform="translate(66.868 17.867)" fill="#7052ac"/>
    <path id="パス_133" data-name="パス 133" d="M.949,1.3c-.011.1-.093.015-.177.106a.463.463,0,0,1,.086.349A4.815,4.815,0,0,1,0,0,8.435,8.435,0,0,1,.949,1.3" transform="translate(59.205 24.13)" fill="#7052ac"/>
    <path id="パス_134" data-name="パス 134" d="M.051.307C-.055.154.018.079.137,0A1.159,1.159,0,0,1,.252.175C.135.186.176.239.051.307" transform="translate(58.724 24.88)" fill="#7052ac"/>
    <path id="パス_135" data-name="パス 135" d="M.19,0C.261.138.177.189.273.341.076.506-.081.135.046.016.082.079.139.02.19,0" transform="translate(63.821 25.802)" fill="#7052ac"/>
    <path id="パス_136" data-name="パス 136" d="M.486,1.233A2.749,2.749,0,0,1,0,0C.18.409.455.48.627.939.724.891.78.995.885.921c.071.2.177.243.22.453.016-.019.089-.148.128-.05-.133.374.111.967-.147,1.252a7.6,7.6,0,0,0-.6-1.342" transform="translate(60.035 28.034)" fill="#7052ac"/>
    <path id="パス_137" data-name="パス 137" d="M0,.1C.12.108.084.051.217,0a1.161,1.161,0,0,0,.5.664C.606.678.619.753.544.785.487.647.436.485.311.61.192.481.32.322.2.289.187.412.252.571.185.666.055.564.205.242,0,.1" transform="translate(60.55 27.73)" fill="#7052ac"/>
    <path id="パス_138" data-name="パス 138" d="M.026.284A.3.3,0,0,1,.046,0C.181.192.553.576.322.759A5.642,5.642,0,0,1,.136.193C.081.242.127.335.026.284" transform="translate(61.166 28.603)" fill="#7052ac"/>
    <path id="パス_139" data-name="パス 139" d="M.109,0c.106.312.3.7.136.793L0,.1C.065.091.049.016.109,0" transform="translate(68.787 26.36)" fill="#7052ac"/>
    <path id="パス_140" data-name="パス 140" d="M0,.111A.164.164,0,0,1,.143,0C.228.23.312.46.178.515.133.314.044.311,0,.111" transform="translate(68.357 27.406)" fill="#7052ac"/>
    <path id="パス_141" data-name="パス 141" d="M.079,0C.171.1.339.526.2.556.105.523.071.225,0,.087.046.074.063.037.079,0" transform="translate(69.201 27.545)" fill="#7052ac"/>
    <path id="パス_142" data-name="パス 142" d="M.1,0A.285.285,0,0,1,.111.436C.073.3-.026.128.006.034Z" transform="translate(61.269 30.391)" fill="#7052ac"/>
    <path id="パス_143" data-name="パス 143" d="M.088,0A.719.719,0,0,1,.075.585C.031.361-.076.1.088,0" transform="translate(61.909 30.402)" fill="#7052ac"/>
    <path id="パス_144" data-name="パス 144" d="M.068,0c.064.275.21.263.257.565C.14.672-.127.088.068,0" transform="translate(69.215 28.61)" fill="#7052ac"/>
    <path id="パス_145" data-name="パス 145" d="M.332.834C.095.717-.184-.009.163,0,.015.249.406.555.332.834" transform="translate(64.72 31.127)" fill="#7052ac"/>
    <path id="パス_146" data-name="パス 146" d="M.19,0C.237.179.285.36.146.4.058.376.031.229,0,.091.109.095.081,0,.19,0" transform="translate(61.889 32.275)" fill="#7052ac"/>
    <path id="パス_147" data-name="パス 147" d="M.088,0c.029.206.3.483.1.559A1.187,1.187,0,0,1,0,.074C.042.061.03,0,.088,0" transform="translate(67.443 31.375)" fill="#7052ac"/>
    <path id="パス_148" data-name="パス 148" d="M.126.669C.113.362-.1.147.054,0c.053.209.26.585.072.669" transform="translate(67.648 32.078)" fill="#7052ac"/>
    <path id="パス_149" data-name="パス 149" d="M0,.033C.108.045.069.052.169,0,.207.206.434.289.351.538.241.631.308.384.23.417.189.5.2.622.127.671-.04.539.155.246,0,.033" transform="translate(64.944 33.101)" fill="#7052ac"/>
    <path id="パス_150" data-name="パス 150" d="M.017.018.118,0C.151.215.2.45.049.481.036.324-.031.115.017.018" transform="translate(64.824 33.605)" fill="#7052ac"/>
    <path id="パス_151" data-name="パス 151" d="M.2,0C.276.332.131.358.013.406A.318.318,0,0,1,.2,0" transform="translate(65.029 33.888)" fill="#7052ac"/>
    <path id="パス_152" data-name="パス 152" d="M.007,0A6.272,6.272,0,0,1,.072,3.18C.1,2.189-.03.865.007,0" transform="translate(69.507 34.673)" fill="#7052ac"/>
    <path id="パス_153" data-name="パス 153" d="M.016.479C-.051.325.1.1.195,0A.521.521,0,0,1,.284.318C.1.264.12.443.016.479" transform="translate(65.032 35.58)" fill="#7052ac"/>
    <path id="パス_154" data-name="パス 154" d="M.106,1.086C.028.81-.111.073.157,0,.146.369.283.942.106,1.086" transform="translate(68.097 36.061)" fill="#7052ac"/>
    <path id="パス_155" data-name="パス 155" d="M.062.627C.146.493-.022.313,0,.1.051.088.056.02.1,0,.113.252.3.716.062.627" transform="translate(66.134 36.35)" fill="#7052ac"/>
    <path id="パス_156" data-name="パス 156" d="M.28.343C.2.407.161.524.011.5-.047.324.134.121.229,0A1.128,1.128,0,0,1,.28.343" transform="translate(66.629 37.145)" fill="#7052ac"/>
    <path id="パス_157" data-name="パス 157" d="M.042,1.631A2.967,2.967,0,0,1,.2,0,3.226,3.226,0,0,1,.042,1.631" transform="translate(66.111 37.165)" fill="#7052ac"/>
    <path id="パス_158" data-name="パス 158" d="M.3,1.23c-.066.141-.03.442-.16.482C.19,1.322.035,1.2,0,.932.23.947.19.6.151.352.205.2.264.484.289.352.292.259.246.244.246.157.419.172.428-.032.618,0,.611.426.512.79.5,1.284.394,1.317.4,1.2.3,1.23" transform="translate(66.438 37.677)" fill="#7052ac"/>
    <path id="パス_159" data-name="パス 159" d="M0,.7C.036.364-.068.086.171,0,.18.241.258.711,0,.7" transform="translate(63.819 38.614)" fill="#7052ac"/>
    <path id="パス_160" data-name="パス 160" d="M.181,0C.173.32.149.614.008.72,0,.424-.048.044.181,0" transform="translate(66.455 39.538)" fill="#7052ac"/>
    <path id="パス_161" data-name="パス 161" d="M0,.527C.117.432.025-.03.215,0,.191.226.138.7,0,.527" transform="translate(64.574 40.908)" fill="#7052ac"/>
    <path id="パス_162" data-name="パス 162" d="M.192.012C.27.168.185.417,0,.386.024.246.027.065.089,0Z" transform="translate(66.685 41.365)" fill="#7052ac"/>
    <path id="パス_163" data-name="パス 163" d="M.066,0c.039.012.1.006.1.057C.054.115.232.412.1.493A.41.41,0,0,1,.066,0" transform="translate(63.587 41.539)" fill="#7052ac"/>
    <path id="パス_164" data-name="パス 164" d="M3.054,16.611l-.089.113c-.471.586-.908,1.025-1.2,1.069a2.323,2.323,0,0,0,.041-.248.535.535,0,0,1,0-.215c-.052-.379-.435-.154-.608-.34a4,4,0,0,1-.149.506c-.034-.423.26-1.431-.031-1.684C.612,15.924.3,17.182,0,17.721c.137-.827.9-1.831.98-2.831-.065-.035-.035-.791-.226-.341A4.684,4.684,0,0,0,1,13.088c-.13-.147-.29.033-.437.175l-.038.065L.5,13.32a.35.35,0,0,1-.12.076.893.893,0,0,0,.108-.08c-.122-.046-.285-.173-.131-.323a.14.14,0,0,0,.112.123q.05-.256.226-.2a.892.892,0,0,1-.11.31,5.881,5.881,0,0,0,.87-2.285c.109-.352-.1-.293-.155-.525.268-.085.4-.477.589-.77A.792.792,0,0,1,2.028,9.1l.01-.038c0,.007,0,.015,0,.022.18-.321.422-.638.149-1.038a2.9,2.9,0,0,0,1.361-.566c.1.18.175.5.281.677.029-.063.059-.122.09-.181.024-.091.05-.178.079-.262,0,.043-.007.087-.013.134a1.618,1.618,0,0,0,.169-.536c.08-.153.194.015.178.174.346-.165.276-1.009.405-1.358v.071a.9.9,0,0,0-.037.292c.019-.087.131-.037.093-.208C4.724,5.138,4.714,4.1,4.582,3.067c-.068-.015-.2.1-.186-.086-.067-.442.129-.574.06-1.02-.118,0-.017.252-.179.2a1.154,1.154,0,0,1-.014-.785c.126-.146.205.2.22.072A1.231,1.231,0,0,0,4.239.814a.351.351,0,0,1,0,.284C4.2.676,4.117.211,4.291,0a26.654,26.654,0,0,1,.517,3.937l.205-.022c-.429.6.047,1.819-.1,2.757,0,.02,0,.039,0,.057a.574.574,0,0,0,.127.2l.015-.006c.21-.055.349-.474.349-.837-.011.263,0,.527-.032.788.077.369.176.712.441.332.1.343-.172.723-.068.966l.107-.223c-.042.23-.18.448-.11.7.124.215.3-.206.454-.255l-.338.538.1.13c-.28.59-.39,1.253-.628,1.814a.75.75,0,0,0-.162.377c-.031-.006-.07-.048-.124.042-.006.255-.2.493-.356.494a21.625,21.625,0,0,1-.412,3l-.6.979c-.148.206-.3.409-.447.605a2.807,2.807,0,0,1-.339.6c.058-.115.109-.237.158-.363m1.692-9.8c-.014-.076-.027-.153-.044-.229a1.27,1.27,0,0,0,.044.229" transform="translate(65.72 30.789)" fill="#7052ac"/>
    <path id="パス_165" data-name="パス 165" d="M0,.4C.055.2.074-.018.218,0,.189.195.173.5,0,.4" transform="translate(66.003 43.262)" fill="#7052ac"/>
    <path id="パス_166" data-name="パス 166" d="M.168,0C.2.22.259.111.369.045.431.318.107.174.108.538-.12.566.068.037.168,0" transform="translate(65.821 44.31)" fill="#7052ac"/>
    <path id="パス_167" data-name="パス 167" d="M.491.007C.526.026.53.073.534.119.267.23.315,1.164,0,1.138A7.19,7.19,0,0,0,.267.052C.362.089.4-.029.491.007" transform="translate(65.505 44.857)" fill="#7052ac"/>
    <path id="パス_168" data-name="パス 168" d="M.6,0C.508.436.289,1.128,0,1.187.254.83.27.2.6,0" transform="translate(64.951 46.109)" fill="#7052ac"/>
    <path id="パス_169" data-name="パス 169" d="M.143,0l.1.033L.078.5C-.078.48.029.119.143,0" transform="translate(68.315 48.114)" fill="#7052ac"/>
    <path id="パス_170" data-name="パス 170" d="M.334.01C.314.16.142.62,0,.644L.219.026C.261.039.287-.024.334.01" transform="translate(67.885 48.891)" fill="#7052ac"/>
    <path id="パス_171" data-name="パス 171" d="M.331.01A2.381,2.381,0,0,0,.083.643C-.14.582.135-.09.331.01" transform="translate(64.38 48.179)" fill="#7052ac"/>
    <path id="パス_172" data-name="パス 172" d="M.654,0A3.036,3.036,0,0,1,0,1.074,3.149,3.149,0,0,1,.654,0" transform="translate(66.47 51.109)" fill="#7052ac"/>
    <path id="パス_173" data-name="パス 173" d="M0,.446A.788.788,0,0,1,.208,0L.3.046c-.093.167-.157.47-.3.4" transform="translate(61.467 49.597)" fill="#7052ac"/>
    <path id="パス_174" data-name="パス 174" d="M.334,0C.265.175.164.456,0,.365.041.235.2-.011.334,0" transform="translate(62.743 51.106)" fill="#7052ac"/>
    <path id="パス_175" data-name="パス 175" d="M11.453,56.817a6.647,6.647,0,0,1-.7-.837c-.018.078.032.214-.1.149a30.123,30.123,0,0,1-2.32-3.807c-.348-.653-.616-1.347-.918-2.02-.21-.5-.435-.992-.623-1.5a.209.209,0,0,1-.048-.024,1.263,1.263,0,0,1-.306-.956h.029l-.549-1.682c-.234-.7-.363-1.428-.549-2.143-.391-1.429-.583-2.9-.848-4.374.079-.074.188.164.206-.022a7.619,7.619,0,0,1-.186-1.554c-.252-.006-.254-.513-.477-.582.039.475-.082.7-.27.813a10.735,10.735,0,0,0-.015-2.89c-.023.165.009.747-.051.614-.028-.167.058-.487-.02-.553-.057.088-.039.32-.149.307-.03-.337-.109-.119-.2-.187,0-.247.091-.311.091-.557a6.335,6.335,0,0,0-.4.922,5.251,5.251,0,0,0-.172,1.206c-.386-.828-.206-2.727-.661-3.059a43.856,43.856,0,0,0-.066,5.473c.044-.018.145-.362.163-.081a2.48,2.48,0,0,1-.05,1.173c-.021.539.132.948.132,1.618.064.154.168.191.2.424.016.124-.15-.086-.115.153.049.125.117.238.179.361-.309-.051.013.875-.11.887a1.087,1.087,0,0,0-.135-.572,6.656,6.656,0,0,0,.031,1.608c-.2-.352-.479-.119-.716-.027-.134-.389.127-.321.01-.691-.115.109-.117-.432-.181-.165a3.437,3.437,0,0,1,.419-2.172,33.867,33.867,0,0,1-.472-6.846c-.121.08-.3.042-.386.191a5.189,5.189,0,0,0,.053-1.255.22.22,0,0,0,.285-.183A1.863,1.863,0,0,0,1.508,33q.132,0,.153-.25c.053-.847.207-1.687.319-2.529-.022-.845-.692-.451-1.006-.5.023-.383.166-.4.19-.785-.1-.248-.513-.077-.473-.5.2-.215.292.336.458.158.048-.843-.5-.163-.753-.566a1.444,1.444,0,0,0-.4.344l.031-.135c.451-.734.914-1.419,1.606-1.118a2.565,2.565,0,0,0-.122.66c.083-.175.259.02.312-.273.086-.347-.236-.424-.078-.7.157.131.152.448.326.557a3.416,3.416,0,0,0,.911-1.8c-.307-.587-.881-.7-1.018-1.353.262.062.539-.6.742-.256-.117.327-.239.448-.159.79a3.8,3.8,0,0,1,.606-.36c.069-.078.143-.154.217-.253a.788.788,0,0,0,.055-.148c.007-.264-.314.346-.217,0a1.33,1.33,0,0,0,0-.5l-.011.015.01-.018a1.271,1.271,0,0,1,.023-.4c.045-.213.28-.179.23-.34a1.451,1.451,0,0,1-.684.177c.073-.323.076-.579-.086-.681a4.72,4.72,0,0,1,.365-.8c.092.155.109.377.213.52.105.024.253-.362.284-.176a1.074,1.074,0,0,1-.182.5c.084-.063.168-.124.27-.038a2.276,2.276,0,0,1-.052.758c.054-.27-.133-.034-.2.14h.01l.008-.014v.013c.249-.028.016.3,0,.448l.074-.148-.038.1-.037.065a.044.044,0,0,0,.022.04c.207-.122.319-.924.525-1.068a1.767,1.767,0,0,1-.006-.883,1.975,1.975,0,0,0,.059-.881c.082-.008.175.193.245-.039.156.07-.068.441.062.531.161-.795-.03-1.317.088-2.082.128-.145.253-.412.381-.561-.084.412.535.293.476.684l-.033.043v0c-.087.134-.146.3-.212.309,0,0,0-.007,0-.011a1.967,1.967,0,0,0-.36,1.616,7.141,7.141,0,0,0,.432-1.025c-.157.117-.286.736-.454.658a8.616,8.616,0,0,0,.518-1.282c.152-.158.15.21.276.061a2.715,2.715,0,0,0,.125-1.786c-.188.211-.131.589-.316.584.1-.374.344-.787.242-1.006.16-.335.294-.134.453-.435.164-.417-.086-.768.382-1.254.024.36.253.591.34.908-.1.169-.191.147-.29.289.231.156-.047.818.052.936a30.051,30.051,0,0,1,6.663-8.218,39.881,39.881,0,0,0-6.4,8.514c.1.1.206-.051.312-.195.161-.288.006-.383.209-.7a3.409,3.409,0,0,0,1.108-1.286A19.842,19.842,0,0,1,9.588,14.3c.112-.225-.239-.037-.079-.3s.239.039.383-.113a12.9,12.9,0,0,1,1.814-2.022,23.832,23.832,0,0,1,1.839-1.592c-.9.88-1.9,2.033-2.7,2.911-.177.225-.564.51-.477.75.283-.058.547-.524.881-.935s.661-.837.955-.883c-.282.382-.777.672-.847,1a2.322,2.322,0,0,0,.934-.84.377.377,0,0,1-.218.14c.4-.933,1.909-1.88,2.214-2.455-.442.372-.88.8-1.231,1.066a3.054,3.054,0,0,1,1.277-1.108c.119-.144.186-.435.323-.481,0,.116-.181.434-.044.413.425-.486,1.084-.81,1.529-1.372-.322.131-.549,0-.9.2a2.195,2.195,0,0,1,.217-1.021c.131-.008.162.249.367.044-.176-.209-.5-.018-.657-.293.057-.157.4-.207.5-.413.069.371.6.292.954.274-.043-.2.081-.418.087-.623-.077-.028-.3.246-.322.11.074-.063.2-.133.186-.182-.275.082-.63.337-.845.288.067-.154-.239-.245.069-.44.159-.067-.16.4.17.217-.053-.276.3-.752.865-1.027.193-.094.189.215.393.1-.058-.161-.425-.341-.773.054a.219.219,0,0,0-.226-.3c-.292.233.02.367,0,.555-.265.267-.751.52-.878.27.061-.2.4-.174.425-.319-.072-.046-.292.1-.212-.056.394-.2.357-.7,1-1.124-.168-.108-.024-.266-.111-.388-.043.306-.871.712-.988.942-.157-.024-.068-.114-.168-.219a5.241,5.241,0,0,0,1.53-1.376c.614-.406,1.349-.8,2.057-1.225.219.02.349.177.662.049-.191.13-.313.366-.169.379.328-.156.684-.353,1.063-.581.009.037,0,.335.364.108.1-.059-.17-.09-.04-.215.849-.526,1.078-.085,1.326.249.015.071-.206.134-.19.205.283.048.208.583.732.3-.164-.106.03-.435.2-.627.145.084.458-.1.68-.24.126-.032.065.182.2.134.34-.216.676-.027,1.063-.144a1.122,1.122,0,0,1,1.028-.913c-.245.115.018.391-.1.474.22-.09.164-.22.51-.292.039.208-.006.52.369.454-.377.2-.425.442-.772.641.191.09.662-.139.665.164-.021.137-.331-.011-.352.126,0,.113.137.058.133.172a10.9,10.9,0,0,1,1.515-.35c-.045-.055-.235.052-.219-.07.262-.045.12-.163.249-.232.184.145.615-.024,1.069-.2a2.2,2.2,0,0,1,1.2-.181c.025-.107-.107-.066-.1-.152A11.753,11.753,0,0,0,31.6,1.4c-1.376.168-2.9.711-3.974.765a13.417,13.417,0,0,0,1.286-.495c-.112-.154-.392-.126-.777.029.126.019.226.094.062.2-.4.02-.467-.318-.59-.6.352-.124.6-.145.98-.29a.231.231,0,0,0,.2.233A2.641,2.641,0,0,0,30.151.681c.04.188-.132.319-.206.476A21.558,21.558,0,0,0,32.417.7c-.072-.211-.667.014-.684-.223a1.9,1.9,0,0,1,.941-.13l.065.373c.569.062.662-.3,1.205-.421.211.269-.307.47-.222.658.388-.043.7-.059.768-.352-.143-.043-.3-.075-.283-.239.193-.045.252.04.373-.052-.017.233-.021.415.242.453.3.047.592-.221.724-.231.294-.022.272.132.5.04-.081-.1-.071-.267-.275-.294-.451.02-.865.1-1.014-.062C35.251.008,35.787.3,36.2.09c.058.174-.309.276-.093.419A9.985,9.985,0,0,0,38.587.152c.246.183.947.057,1.313.029C39.875.115,39.768.089,39.78,0c.379.064.891-.108,1,.114-.261.016-.769-.115-.756.069a4.343,4.343,0,0,1,1.748.122c.212-.073.668-.225.817,0-.111,0-.361-.089-.376-.008.466.2.688-.228,1.139-.027.239.065-.222.1-.017.137a2.694,2.694,0,0,1,.688.063c.14.033.063.148.161.2.962.021,1.4.251,2.166.312-.151-.073-.362-.129-.4-.235a.132.132,0,0,1-.088.121C45.506.8,45.658.6,45.282.557c-.039.06.048.217-.154.151a3.6,3.6,0,0,1-.914-.241,2.347,2.347,0,0,0,.639-.01C44.78.44,44.675.435,44.672.394c.427.008.539-.227.942-.239.125.093-.1.087-.1.193a1.318,1.318,0,0,1,.648-.011c-.024.111-.566-.016-.412.118.443.229.844.111,1.31.236.038.227.672.556.837.311-.063-.121-.342.009-.29-.143.4.019.776.182.745.4-.222.078-.356-.269-.489-.122a17.717,17.717,0,0,1,1.737.772c-.02-.256.4-.039.609-.046-.073.167.238.4.035.486-1.052-.895-3.282-.73-4.489-1.256-1.212.143-2.638.128-3.77.368a7.837,7.837,0,0,1,1.691.147c.041.229.635.6.927.345-.36-.074-.681-.162-.676-.378.615.112,1.281.1,1.9.2a4.728,4.728,0,0,1,1.675.517c-.05-.109-.208-.14-.068-.23a3.154,3.154,0,0,1,1.375.311.689.689,0,0,1,.2.393c.294.1.549.459.842.361-.471-.131-.765-.44-.508-.611.292.058.107.206.3.283.624-.243,1.594.475,2.357.687a1.989,1.989,0,0,1,.308.06c.683.334,1.208,1.233,1.855.968a1.871,1.871,0,0,1-1.029-.554c.78.288,1.969.6,2.292,1.183-.363-.19-.812-.46-.97-.529.009.089-.051.182.074.264a10.086,10.086,0,0,1,2.1,1.006c.242-.294-.827-.433-.783-.738a3.776,3.776,0,0,1,1.207.749A3.5,3.5,0,0,1,59,7.073c-.239-.182-.453-.309-.516-.118.613.174.821.934,1.342.765.059-.173-.53-.282-.487-.485a3.894,3.894,0,0,1,.838.531c-.032.125-.154.051-.195.156a9.972,9.972,0,0,0,.779.8c.063-.041-.16-.338.059-.171.6.362.961,1.226,1.615,1.32.252.678,1.58,1.438,1.993,2.249-.055.114-.2-.153-.249-.017-.668-.72-1.336-1.578-2.109-2.283a14.2,14.2,0,0,0-1.176-.924c-.439-.273-.89-.543-1.316-.84-.692-.462-1.325-.967-2.023-1.356s-1.376-.788-2.069-1.163c-.992-.539-2.094-.823-2.965-1.251-.49-.257-1.309-.777-1.688-.487.572.028,1.035.7,1.469.538-.092-.053-.337-.032-.261-.156.555.283,1.226.525,1.883.792.328.133.653.273.955.425a5.029,5.029,0,0,1,.788.562A7.014,7.014,0,0,1,57.98,7.124a19.071,19.071,0,0,0,2.274,1.644c-.17-.132-.406-.272-.326-.372.523.733,2.358,1.882,2.894,2.662a8.277,8.277,0,0,1,1.952,1.749l.971,1.118.882,1.192c-.078.175-.208-.064-.3,0,.134.179.235.344.141.422a30.045,30.045,0,0,0-3.348-3.991,32.307,32.307,0,0,0-4-3.279C58.5,7.847,57.73,7.162,57.161,7.2c.2.15.291.114.479.249.123.186-.276.065-.184.17.18.091.423.356.551.349.007-.108-.286-.345-.058-.339,1.083.777,1.393,1.8,2.549,2.35-.624-.558-1.484-1.044-1.271-1.461a13.829,13.829,0,0,0,1.1,1.139c.4.425.835.863,1.288,1.3s.94.867,1.354,1.338.819.927,1.178,1.358c.105-.028.011-.121.089-.158.3.222.077.438.225.509l.1-.09a2.119,2.119,0,0,0,.627,1.238c.1-.161-.46-.577-.406-.73.726.068.425,1.169.945,1.281a.571.571,0,0,1-.216-.58,25.608,25.608,0,0,1,2.2,3.3l.913,1.686c.271.57.494,1.155.727,1.725A31.64,31.64,0,0,0,61.325,11.7c-.17-.145-.007-.222-.207-.374-.062.067-.112.172-.224.076-.022-.6-1.532-1.109-1.591-1.707-.524-.372-1.092-.717-1.617-1.145a8.7,8.7,0,0,0-1.008-.911c-.363-.226-.858-.283-1.264-.51-.358-.2-.7-.5-1.057-.738a1.729,1.729,0,0,0-1.085-.317A24.462,24.462,0,0,0,42.5,3.354c.062.2.755.128.7.377a4.792,4.792,0,0,0-1.173-.169,7.322,7.322,0,0,1-1.092-.022c.06,0,.146-.009.059-.031-.259.071-1.017-.162-1.252.01.149.007.356-.016.28.116-.238.1-.494-.232-.733-.135.02.155-.441.231-.567.093.051-.052.46-.032.283-.1-.6.185-1.884-.055-2.429.236.363.05.858-.2.963.022a1.279,1.279,0,0,0-.782.142c.867.023,1.725-.019,2.578.062l2.55.221,2.532.4c.85.112,1.679.363,2.534.53a15.775,15.775,0,0,1,2.259.622,14.6,14.6,0,0,1,2.143.832c.825.422,1.4.972,2.157,1.308.707.37,1.485.652,2.315,1.114a28.109,28.109,0,0,1,2.378,1.663,15.969,15.969,0,0,1,1.762,1.373c.567.5,1.171.971,1.715,1.514a29.692,29.692,0,0,1,3.059,3.507A28.115,28.115,0,0,1,67.2,20.945c.324.685.613,1.378.895,2.058a13.2,13.2,0,0,1,.694,2.048c.084.159.1.414,0,.117l-.443-1.142a2.7,2.7,0,0,0-.569-.847c.181.62.79,1.465.532,1.869-.161-.28-.313-.588-.466-.913-.177-.316-.352-.652-.526-1-.19-.36-.361-.744-.54-1.13-.018.131-.037.252-.062.359l.709,1.446c.371.734.612,1.518.919,2.274a.918.918,0,0,0,.135.813q-.106-.234.061-.246a14.19,14.19,0,0,1,.777,3.5c.348.464.2,1.414.408,2.082a.492.492,0,0,0-.3.09,18.5,18.5,0,0,0-.53-3.377l-.419-1.573c-.15-.515-.367-1.007-.551-1.507l-.583-1.493-.713-1.465c-.029-.056-.055-.114-.083-.171a.41.41,0,0,1-.393.094,4.093,4.093,0,0,1-.655-1.043,2.622,2.622,0,0,1-.152-1.359l-.311-.559c-.154.018-.305-.046-.452-.287,0-.243.284.2.286.009-.184-.369-.376-.151-.563-.467-.031-.188.268.091.231-.088-.127-.072-.271-.339-.406-.5-.13-.092-.06.179-.176-.008-.488-.7-.96-1.216-1.461-1.913,0,.044-.016.173-.115.026a5.507,5.507,0,0,0-.8-.814.432.432,0,0,1-.39.227,36.4,36.4,0,0,1,4.857,7.721,17.153,17.153,0,0,1,1.053,2.58A16.439,16.439,0,0,1,67.821,29a16.763,16.763,0,0,1,.427,2.181,5.787,5.787,0,0,1-.025,2.009c-.076-.624-.15-1.256-.2-1.9l-.078-.961c-.041-.318-.1-.633-.156-.948-.112-.63-.238-1.257-.4-1.863a10.812,10.812,0,0,0-.736-1.7c.067.615.7,1.457.451,1.864a7.485,7.485,0,0,0-.458-1.259c.109.419.248.839.355,1.275l.288,1.335.3,1.355.184,1.381.163,1.368.018,1.345c0,.44-.009.871-.026,1.289a12.068,12.068,0,0,1-.175,1.209c.03-2.023.2-4.259-.447-5.89-.023.089-.136.078-.189.134a22.535,22.535,0,0,1,.2,3.231c0,.536.008,1.064-.019,1.575l-.158,1.474c-.023.2-.133,1.524-.14.735a1.492,1.492,0,0,1,.02-.4l.093-1.8c0-.579-.03-1.145-.041-1.721a33.429,33.429,0,0,0-.331-3.744,21.133,21.133,0,0,0-4.592-9.917,14.606,14.606,0,0,0,1.03,1.97,19.693,19.693,0,0,1,1.063,2.15c.126-.012.091-.119.2-.141.261.607.152.967.56,1.462.043-.063-.025-.2.112-.2.428.831.438,1.475.092,1.827-.129-.449.15-1.219-.3-1.279.072.209,0,.354.144.515-.37.068.033.686-.124.9-.016-.271-.242-.148-.277-.063-.1-.36-.129-.8-.426-.8-.108.2.081.292.187.534a1.934,1.934,0,0,0,.074,1.442c-.013-.216.053-.56.231-.5-.171.116-.055.465-.076.7-.108.047-.1-.187-.233-.083a.839.839,0,0,0-.046.394c.073-.039.041-.221.145-.132.027.242.4.347.289.457-.032.178-.174-.17-.212,0,.008.27.119.625-.116.687a16.032,16.032,0,0,0-.91-3.217,21.387,21.387,0,0,0-1.8-3.283l-.984-1.459-.486-.73-.531-.654c-.121-.007-.119.134-.289.017l-.066-.075c.012.213-.034.4-.191.468a.337.337,0,0,1-.267-.066,3.586,3.586,0,0,1,.242.282c-.184.15-.443-.275-.411-.444a1.816,1.816,0,0,0-.315-.316c.155.193.335.4.246.572a1.616,1.616,0,0,1-.336-.624c-.014-.007-.027-.014-.042-.019.068-.74-.724-.495-.831-1.15.159.037.035-.308.072-.249l.065.014c.031-.107-.045-.286.062-.33l.142.132c.242.013.339.41.57.316l-.039-.061c.172.021.309.432.41.325l-.147-.182L57.4,18.527c-.206-.205-.4-.419-.614-.615l-.671-.552c-.449-.364-.889-.735-1.343-1.082l-1.446-.915c-.243-.146-.476-.3-.725-.434l-.766-.356a.7.7,0,0,1,.268.557c-.131-.039-.275-.115-.37-.058.031.058.12.109.093.174-.183-.048-.162-.261-.314-.225.187.151-.121.009-.126.126.136.147.709.265.475.439-.059-.133-.283-.042-.419-.126-.075.056-.086.294-.216.192-.26-.068-.01-.2-.055-.232a.993.993,0,0,1-.376-.1c-.051-.133.094,0,.141-.076a1.882,1.882,0,0,0-.864-.683,9.663,9.663,0,0,1-1.19-.463c-.07-.056-.062-.132-.063-.207a5.587,5.587,0,0,0-.759-.308.18.18,0,0,1-.03.155c-.186-.115-.415-.322-.645-.312.5.29,1.083.66,1.673.983.293.166.584.33.852.5a5.939,5.939,0,0,1,.676.607c-.044-.02-.1-.065-.124-.033.293.2.526.4.8.571-.022-.087-.041-.176-.055-.268a1.962,1.962,0,0,1,.216.073l-.043-.189a2.624,2.624,0,0,1,1.75,1.034c-.008.3-.363.228-.581.08-.018.053.047.173-.052.216-.011.142-.344.157-.589.054a1.759,1.759,0,0,1-.273-.255c-.155.27-.258.612-.564.6.095.105-.088.24.1.334-.139.146-.337.018-.462.212.153.262.567.291.645.524-.082.189-.243-.02-.34.091,0,.086.192.148.049.251-.169.02-.046-.215-.257-.276-.086.03-.142.214-.244.161.049-.127-.072-.232-.12-.348-.1-.019-.182.053-.285.034.072-.156-.017-.28-.188-.388-.061.035-.152-.038-.186.091.07.031.365.062.285.166.085.16-.237.154-.179.214.181.157.312.1.449.106.2.525,1.279.923,1.115,1.464-.132.113-.289.073-.342.263-.428-.161-.993-.335-1.187-.789,0,.039-.007.154-.085.065s.17-.094.088-.193a1.055,1.055,0,0,0-.243-.079.521.521,0,0,1-.162.535,5.132,5.132,0,0,0-.847-.205c.225-.284-.531-.039-.45-.416a.548.548,0,0,1,.143-.743,7.565,7.565,0,0,0-.954-.347c.007-.064.154-.086.074-.155-.208-.167-.619-.263-.658-.5-.431-.1-.857-.372-1.182-.347-.1-.105-.173-.476-.386-.281.067.05.28.033.21.147-.12.091-.366-.079-.55-.122-.071-.072.082-.15.019-.176a16.627,16.627,0,0,0-3.516-.725.2.2,0,0,1-.1.1c-.092-.007-.179-.011-.259-.022h0c0-.031.018-.069.023-.1l-.273-.021a.661.661,0,0,0,.087.086.433.433,0,0,1-.145-.09c-.706-.048-1.413-.061-2.123-.05-.02-.042.106-.244.1-.385a3.024,3.024,0,0,0,.679.092c-.019.126-.07.173.065.21.1,0,.09-.158.042-.2.215.048.248-.1.434-.082.017.051-.051.176.026.174a.22.22,0,0,0,.045-.17c.715.245,1.408-.149,2.158.129a.162.162,0,0,1,.122-.087c-.044-.036-.066-.077-.037-.125a.528.528,0,0,1,.424-.01.71.71,0,0,1-.007.125c.057.081-.042.126-.049.229.225-.274.841.117,1.149-.013.056.035-.041.158.03.185.777-.187,1.941.564,2.619.306a5.755,5.755,0,0,0,.8.747c.084-.286.145-.006.259-.221.111.157.387.294.493.077-.034-.126-.286-.448-.5-.344.178.093.437.161.38.329a1.4,1.4,0,0,1-.617-.25c.1-.057.122-.291.151-.348-.234-.039-.4-.34-.561-.215-.012.1.266.12.176.261-.283-.138-.8-.1-.98-.355.168-.1.487.187.6.1a11.849,11.849,0,0,0-1.988-.732c-.728-.141-1.44-.373-2.106-.474-.545-.1-1.136-.251-1.513.023-.1.071.029.141.012.245-.366-.009-.1-.365-.105-.434-.037.093-.306-.045-.343.053.1,0,.222-.01.218.077a1.9,1.9,0,0,0-1.158.052c.15.041.241-.073.333.016-.007.057.107.224-.048.2-.11.133-.065-.139-.179-.112a4.948,4.948,0,0,1-.873.1l-.888.108a12.4,12.4,0,0,0-1.881.51c-.463.114-.962.147-1.426.283l-1.324.374a9.394,9.394,0,0,1-1.55.345c-.261.039-.53.065-.791.121a5.867,5.867,0,0,0-.755.274,1.906,1.906,0,0,0,.259.9c-.178-.063-.033.211-.054.291.291-.089.567-.144.756.026a1.476,1.476,0,0,0-1.038.254,1.222,1.222,0,0,0-1.358.437c.237-.127.484.179.425.389a2.809,2.809,0,0,0-.96.4c-.318.2-.614.407-.89.352-.589.753-1.91.981-2.189,1.869.15-.144.334-.372.528-.239-.119.13-.231.06-.353.222.09-.026.084.142,0,.095a3.024,3.024,0,0,0-.935,1.3c.052-.072.107-.1.168-.031a6.043,6.043,0,0,1-1.126,1.57c.052-.063.1-.125.091-.18-.071-.039-.124.037-.191.026-.038-.092.111-.338-.007-.339-.2.308-.43.608-.668.9-.2.323-.4.642-.612.959a9.157,9.157,0,0,0-1.036,1.981c-.241.5-.073,1.135-.444,1.564.035-.069.035-.122-.02-.149a2.83,2.83,0,0,0-.388.765,1.535,1.535,0,0,0-.005.805.254.254,0,0,0-.24.115c.085.439-.341.88-.251,1.372.316.029.169.222.143.468.213.024.29.145.5.171-.138-.212-.434-.315-.393-.665.178.137.283-.037.454-.023-.015.268.5.318.606.4a1.524,1.524,0,0,0,.1-.5c-.1-.018-.123-.092-.191-.134-.057.12.06.249-.066.248a1.26,1.26,0,0,1-.284-.817c.089.019.193.061.218-.018-.016-.233-.376-.418-.475-.518a.312.312,0,0,0,.129.339.32.32,0,0,0-.022.367c-.339-.074-.148-.343-.365-.526.207-.044.249-.294.32-.441-.021.117.113.286.187.254a1.064,1.064,0,0,0-.2-.5c-.086-.02-.077.115-.164.1a6.132,6.132,0,0,1,.163-.727c.131.26.05.7.288.916-.033-.054,0-.1.064-.119.017.064.087.1.184.118-.126.292.064.4.229.524.019.1-.154.131-.08.178.318.171.309.5.407.794-.091.017-.15-.125-.2-.038-.008.187-.112.436.075.49.117-.1.1-.351.38-.248.047.2-.165.081-.138.256.159.091.265.214.409.31.107-.14.127-.379.3-.433-.165.354-.471.848.141.97.071.344-.4.355-.32.762.094.007.165-.111.206.015-.089.336-.536.345-.52.8.1.025.071-.08.176-.055-.072.176-.039.484-.09.653-.052-.094-.039-.235-.141-.269-.088.14-.308.238-.416.182-.053.062.018.228-.051.278a2.25,2.25,0,0,0-1.48.029c.2-.189.148-.651.079-.935-.074.146-.24.2-.2.466-.362.15-.423.554-.761.731.14-.325-.289-.026-.228-.382.143-.186.29.142.417.064.077-.143-.048-.195-.052-.346a.7.7,0,0,1-.242.035c.031-.144.033-.539-.1-.636-.323.585.241,1.511-.1,1.989a2.547,2.547,0,0,0-.277-1.353c0,.91.038,1.963.124,2.847.165.014.092-.158.257-.144.136.269-.186.385-.225.615a3.77,3.77,0,0,0,.156,1.039c.108-.027-.029-.214.124-.21.1.179-.138.521.107.714.095.017.09-.195.134-.032a2.759,2.759,0,0,0,.392,1.526c-.046.1-.234.119-.291.21a3.539,3.539,0,0,1,.457,1.308c-.267-.347-.325-1.142-.7-1.266a4.284,4.284,0,0,0,.526,1.657,9.77,9.77,0,0,1,.781,1.634c-.319-.4-.536-1.057-.864-1.438a4.176,4.176,0,0,1,.551,1.519,4.981,4.981,0,0,1,1.424,2.112c-.377-.256-.581-.943-.936-1.092.123.3.219.584.315.877a8.575,8.575,0,0,0,.4.837,13.972,13.972,0,0,1-2.562-4.279.664.664,0,0,0-.533-.119c.242.619.535,1.205.81,1.812a18.284,18.284,0,0,0,1.064,1.771,16.76,16.76,0,0,0,1.171,1.523c.4.561.867,1.065,1.182,1.518.053.078.19.216-.026.023A8.154,8.154,0,0,1,21,49.577a18.672,18.672,0,0,1-2.527-3.687c-.128-.02-.22-.172-.337-.237L17.666,44.6l-.381-1.1a9.331,9.331,0,0,0-.434-1,4.4,4.4,0,0,0-.438-.851,5.25,5.25,0,0,0,.16.929l.357.918a11.131,11.131,0,0,1,.559,1.741c-.2-.4-.35-.82-.505-1.2a3.753,3.753,0,0,0-.56-.948,10.15,10.15,0,0,0,.415,2,9.349,9.349,0,0,1,.539,1.949c-.5-.834-.565-1.964-1.165-2.362a26.459,26.459,0,0,0,1.06,2.754,42.253,42.253,0,0,0,4.182,5.622c.547.588,1.173,1.084,1.742,1.608s1.216.922,1.74,1.444a11.9,11.9,0,0,0,1.508,1.513,7.014,7.014,0,0,0,1.972.958l.993.375c.328.117.66.209.971.343-.677-.934,1.145-1.271,1.683-.467-.113-.018-.3-.153-.365-.093a1.293,1.293,0,0,1,.66,1.085,22.631,22.631,0,0,0,2.793.462l1.432.177c.481.023.959.056,1.434.106a.314.314,0,0,0-.132.062.624.624,0,0,1,.474.161c.436-.008.89-.031,1.353-.065.034-.112-.267-.1-.4-.133.37-.114-.171-.167.062-.284-.1-.3.189-.374.586-.64a2.181,2.181,0,0,1,1.059.068.677.677,0,0,1,.171.3c.066.03.133.067.2.092-.058.028-.118.045-.178.069l.142.069-.239.22.072.027c-.107.021-.264-.007-.308.061,0,.017,0,.034,0,.05a46.866,46.866,0,0,0,4.633-.753c-.506.17-1.043.329-1.579.49s-1.09.23-1.605.371a10.406,10.406,0,0,0-2.311.792c.115.135.266.267.027.393.133.171.212.382.511.409a8.861,8.861,0,0,0,2.36-.194c.891-.107,1.766-.353,2.422-.446a2.053,2.053,0,0,0,1.625-.415,13.784,13.784,0,0,0,3.088-.912c.507-.221,1.029-.424,1.516-.691s.952-.572,1.413-.867c1.651-1.1,3.449-1.591,4.255-3.12.111.128.317-.453.561-.508a10.848,10.848,0,0,1-1.243,1.715,8.991,8.991,0,0,1-1.841,1.511,13.709,13.709,0,0,1-1.308.632c-.318.189-.67.527-1,.753a11.689,11.689,0,0,1-2.473,1.054,10.143,10.143,0,0,1-1.174.536c-.627.2-1.251.421-1.762.616-.95.335-1.965.284-2.773.5-.536.113-1.215.236-1.442.643a24.563,24.563,0,0,0,8.967-2.532c.073-.038.018.262.2.171a18.02,18.02,0,0,1,2.453-1.545A18.236,18.236,0,0,1,51.7,61.066c-.315.121-.657.119-.925.241-.428.195-.807.576-1.262.811a9.059,9.059,0,0,1-1.507.494c-1.009.211-2.558.682-3.884.943-.754.086-1.5.2-2.212.333s-1.408.164-2.041.256c.172-.07.544-.015.535-.2a1.164,1.164,0,0,0-.138-.048,5.887,5.887,0,0,0-1.522.614c-.09-.166-.508.01-.744-.074a.238.238,0,0,0-.017.022c.211.013.432.018.445.157a1.078,1.078,0,0,0-.465-.029c.033.075.112.119-.132.2l.1-.067a1.149,1.149,0,0,0-.13-.1,4.667,4.667,0,0,0-.441.154c-.939-.293-2.921-.032-3.412-.72.443.057.9.1,1.348.148l.084-.019.118.035-.111-.007c.535.055,1.06.113,1.542.2a.108.108,0,0,1,.01-.029c-.205-.024-.441-.05-.723-.1l.222-.021a1.591,1.591,0,0,0-1.022-.556,1.905,1.905,0,0,0,.18-.242c-.145-.026-.288-.054-.43-.082-.564-.113-1.11-.226-1.645-.359l-.164-.052a.249.249,0,0,0,.1.088c-.087.005-.423.047-.3.195.005.164.335.186.537.259l-.458.027s0,.006,0,.009c.034.008.068.019.1.026a.182.182,0,0,0-.109.026c.027.06.158.107.221.163l-.509-.06c-.1.107-.018.178.081.242.26.041.507.072.735.088a1.745,1.745,0,0,1-.618-.011l.026.02L32.891,64a.351.351,0,0,0-.157.029c.045,0,.093,0,.145,0a.752.752,0,0,0-.186.084c.013.069.088.138.007.107a.237.237,0,0,0-.061-.047c-.012.031,0,.064.041.1.42.293.55-.007.9.136l-.349.223a16.472,16.472,0,0,0,3.561.386c.124-.008-.039.155.146.11a17.961,17.961,0,0,0,2.842-.112c.943-.111,1.89-.155,2.864-.275a30.072,30.072,0,0,1-3.6.592c-1.209.071-2.413.187-3.545.227.341.257,1.143-.036,1.557.2-.6.049-1.257.034-1.8.049.509.31,1.007.069,1.469.141-.1.009-.228,0-.219.092.142.029.422-.022.473.059-.373.013-.748.034-1.071.077-.015-.062.087-.077.01-.1-.593,0-1.171-.262-1.676-.272-.162,0-.285.085-.442.074a3.252,3.252,0,0,1-.565-.081c-.1.035-.188.072-.279.111.257.053.5.1.7.159a.163.163,0,0,0-.171.044c.189.032.362.07.409.165-.389-.072-.807-.16-1.213-.253a3.356,3.356,0,0,1-1.824.236l.017-.033A6.052,6.052,0,0,1,30,66.019l-.182-.041a3.894,3.894,0,0,0-1.253-.2,14.019,14.019,0,0,0,1.483.429c.537.1,1.093.2,1.632.329-.014.167-.516.056-.441.176a15.016,15.016,0,0,0,1.437.47c.5.118,1.022.185,1.545.262l1.58.205,1.581.1a37.807,37.807,0,0,0,5.354.044.5.5,0,0,1,.291-.17A11.234,11.234,0,0,1,44.9,67.1c.01.049.02.1.126.108.338-.215.222.039.5.017.572-.247.54.216,1.11.063a.154.154,0,0,0,0,.022c.75-.139,1.489-.3,2.212-.5.938-.246-.6.214-.755.255q-.713.176-1.443.329c.084.142.464.163.527.283a.165.165,0,0,0-.123.072c.447.04,0,.406.668.3-.214.163-.491-.047-.73.158l.3.168c-.1.03-.2.058-.25.02l-.3.255c-.186.134.11.138.162.191-.243.067-.6,0-.764.208l.08.03-.316.067.018.078c-.246.086-.43-.095-.613.076.112.009.087.065.094.1a1.886,1.886,0,0,0-.9-.061c-.137.059-.02.1-.042.171l-.273-.08-.16.114c-.265-.036-.245-.339-.721-.155a.081.081,0,0,0-.05-.111,4.354,4.354,0,0,1-1.36.243c-.548.009-1.1-.012-1.475.014a7.322,7.322,0,0,1,1.433-.216c.271-.02.543-.047.8-.065a.483.483,0,0,1-.056-.008.891.891,0,0,0-.6-.462l.153-.213c-.4-.2.193-.337.331-.527a32.4,32.4,0,0,1-3.322.161,34.507,34.507,0,0,1-9.069-1.318c-.012.044.087.054.091.094-.774-.032-1.232-.584-2.109-.646-.146-.126.174-.012.035-.1-.779-.465-1.517-.151-1.872-.643.1-.011.462.29.595.189a35.446,35.446,0,0,1-8.445-4.91c.052.127.057.229-.005.283a35.5,35.5,0,0,0,10.474,5.7c.581.185.773.291.368.162l-2.613-.845a32,32,0,0,1-8.672-5.041,6.333,6.333,0,0,1-1.494-1.177c.106.055.163.066.192.053a30.915,30.915,0,0,1-3.563-3.848A28.774,28.774,0,0,1,10.8,52.845l-.877-1.537c-.267-.522-.491-1.073-.742-1.643a21.239,21.239,0,0,1-1.068-3.185c-.081.066-.166.163-.277.01A28.418,28.418,0,0,0,13.58,57.537c.7.8,1.339,1.664,2.1,2.415s1.508,1.535,2.339,2.22a25.828,25.828,0,0,0,3.529,2.465c.627.357,1.248.728,1.893,1.051l1.983.878a17.209,17.209,0,0,0,2.023.764c.685.225,1.364.467,2.052.675,1.4.325,2.771.77,4.186.99-.427-.04-.856-.073-1.284-.127l-1.279-.237c.055.066.047.1-.032.134a2.459,2.459,0,0,1-.584-.107c-.021-.2.461.086.5-.055a21.147,21.147,0,0,1-4.745-1.269c-.068.09.072.169-.077.192-1.09-.465-2.227-.96-3.333-1.475-1.068-.587-2.149-1.132-3.105-1.712-1.055-.7-2.288-1.86-2.916-2.118.4.44.92.8,1.288,1.185l.1-.137a10.532,10.532,0,0,1,2.048,1.7,4.775,4.775,0,0,1-1.86-1.347c-.04.083-.106.106-.228,0-1.321-.6-2.53-2.074-3.566-3.083.026.086-.031.146-.141.057-.983-1.319-2.866-2.535-3.024-3.78m-9.331-14.7.1-.017-.17-1.16c-.15.156.027.764.068,1.177m-.43-5.128c.051.934.037,2.029.152,2.927l.026.194c.042-.028.039-.12.085-.141-.138-1.391-.1-2.71-.162-4.151-.226.173-.116.743-.1,1.171m.136-2.078c.062.125.043-.519.066-.712-.062-.126-.045.519-.066.712M47.409,1.131A3.117,3.117,0,0,0,46.086.709a2.782,2.782,0,0,0,1.323.422M58.428,6.7a5.674,5.674,0,0,0-1.063-.624c-.013.108.452.235.438.344-.02.171-.354-.217-.424-.135.1.158.983.7,1.049.415m-1.26-.541c0-.06-.033-.121-.034-.181-.114,0-.166.115-.388-.07L56.694,6a.948.948,0,0,0,.475.162M51.321,3.531a7.57,7.57,0,0,0-1-.463c-.019.166.487.238.367.421.268.081.376-.026.633.042M56.7,7.044c.013-.235-.838-.789-1.371-.968.37.32,1.06.645,1.371.968M54.062,5.529c.22.082.074.192.191.281.261.127-.1-.16.132-.128.355.193.435.442.79.665.039-.195-.222-.444-.609-.659s-.89-.412-1.285-.6c-.075.224.586.569.781.442m8.494,10.477a.127.127,0,0,1-.043.107c.12.233.39.351.568.582.08-.178-.336-.632-.525-.689m4.023,4.841c-.346-.594-.708-1.192-1.035-1.676a1.756,1.756,0,0,0,.732,1.237c.025.044.049.088.073.132l.006-.071,0,.074c.378.68.7,1.4,1.068,2.012-.245-.481-.477-1.122-.841-1.707m-1.073-.667a1.656,1.656,0,0,1,.181-.172c-.23-.386-.461-.763-.694-1.118a10.3,10.3,0,0,0-1.4-1.562,29.442,29.442,0,0,1,1.913,2.852M59.415,13.86a.647.647,0,0,0-.144-.029l-.093.1c.068.063.134.129.2.192.077-.042.077-.138.036-.265m4.637,13.7-.131.043c.082.2.272.242.267.45.107-.082-.006-.437-.136-.493M16.095,6.379c.084.11.332-.128.535-.268-.117-.039-.318.1-.535.268m1.332-.724.08.112c.194-.309.351-.057.57-.2a.7.7,0,0,0-.65.088m3.408-.121L21.745,5c-.058-.05-.007-.1-.013-.152-.134-.086-.382.014-.6.073-.126.205-.446.416-.293.613M18.588,2.823c-.249.021-.318.289-.164.38.174-.124.253-.095.385-.151.047.079.138.154-.008.245.183,0,.252-.26.41-.364l-.124-.207c-.1-.036-.659.355-.5.1m3.081,1.385c-.095.242-.7.311-.643.534a7.968,7.968,0,0,1,.889-.477c-.066-.045-.167-.032-.246-.057m1.853-.236c.093.129.47-.169.437-.242-.106-.035-.457.168-.437.242m.383-1.43a3.266,3.266,0,0,1-.729.262c.031.158.54.08.639.311.025.072-.238.126-.331.191.1.087.3.04.488,0a.375.375,0,0,0,.1-.236c.055.027.224-.1.258-.043a.938.938,0,0,1,.079-.453c-.271.123-.439.113-.505-.034M36.377.838c-.165,0-.245-.132-.374-.048.078.107.347.09.623.07,0-.109-.171-.106-.139-.234-.123-.1.006.2-.109.213M37.419.683A2.054,2.054,0,0,0,38.529.6a4.8,4.8,0,0,0-1.11.081m4.8.862c.119.107.385.2.207.34.187.031.208-.064.424-.012.061-.112-.074-.144-.032-.247Zm4.87.642A.138.138,0,0,0,47,2.306a.789.789,0,0,1,.5.264c.121-.076-.177-.3-.4-.383m.8.057c-.046.074.089.1.014.181.239.11.6-.036.648.164.284-.126-.336-.279-.663-.345m2.3,1.182c-.038.129.205.205.409.29.052-.13-.16-.214-.409-.29m1.916,1.5c.007-.041.036-.051.081-.038.075-.109-.043-.2-.068-.3-.18-.044.027.113,0,.152-.071.053-.309-.125-.446-.164-.014.047-.028.094-.093.071a2.264,2.264,0,0,0,.526.276m-.692-.337c.006-.134-.306-.131-.445-.16.08-.107.242-.117.509,0C51.3,4.2,50.738,4.149,50.376,4a1.682,1.682,0,0,0,1.045.592m-1.126-.365c-.048-.188-.552-.432-.907-.461a1.892,1.892,0,0,0,.907.461m-2.342-.831a3.359,3.359,0,0,0-1.322-.327c.287.245.9.209,1.322.327m-1.934-.863c1.028.155,2.783.659,3.781.938a6.869,6.869,0,0,0-1.176-.549,13.84,13.84,0,0,0-1.37-.321,15.242,15.242,0,0,0-2.591-.291A10.286,10.286,0,0,0,46,2.633c-.012-.055-.7-.205.022-.1m-.6.249a10.454,10.454,0,0,1-1.173-.151c.1.285,1.369.291,1.173.151M43.3,2.144c.054-.129-.32-.086-.465-.134-.01.093.34.2.465.134m.112.5c-.137-.2-.483-.039-.757-.106.19.133.482.029.757.106m-1.4-.876c-.138-.143-.241-.5-.293-.086.113.021.1.1.293.086M41,2.577c-.187-.138-.463-.024-.817-.074A1.65,1.65,0,0,0,41,2.577m-6.015-.89c.125-.008.033.148.138.155.738-.089,1.3-.151,1.971-.213.028-.072.284-.022.115-.109.262-.039.473.071.663-.03.091-.126-.205-.012-.184-.1a14.159,14.159,0,0,0,4.066-.121c-.078-.072-.371-.039-.481-.1.985-.191,2.345.086,3.164-.122A14.67,14.67,0,0,0,41.67.82L39.9.829a15.039,15.039,0,0,0-1.935.082,15.358,15.358,0,0,0-2.954.426,1.2,1.2,0,0,0-.359.182.143.143,0,0,1,.037.1c.216-.052.146-.078.193.191.072-.025.118-.061.108-.119M36.3,3.7c-.163-.095-.364.069-.5.1.078.14.482.05.687.1.013-.121-.485-.094-.185-.2M49.92,14.384l.11-.214c-.214-.049-.117-.171-.265-.236-.057.1.1.139.133.213-.033.08-.108.069-.178.07-.163-.051-.115-.154-.279-.205-.095.245.364.214.479.373m-.746-.307c-.052-.124-.065-.259-.207-.362-.062.155.038.267.207.362M51.007,17c.091-.292-.354-.1-.354-.326-.073-.055-.089.063-.155.028,0,.173.377.273.509.3m-4.144-2.974c.244.1.5.188.751.271l.727.3a4.712,4.712,0,0,0-.732-.508c-.278-.138-.578-.269-.891-.4l-.972-.373c-.335-.116-.691-.177-1.04-.268a.051.051,0,0,0,.023.076.561.561,0,0,0,.356.15l.132-.054-.028-.043.28.121a.626.626,0,0,1,.482.2c-.1.051-.174-.045-.277-.1a1.168,1.168,0,0,1,.1.095,7.732,7.732,0,0,0,1.09.527m.588,3.543c-.086.161.176.2.152.336.166-.018-.159-.217.041-.247.019-.075-.16-.1-.193-.089m.942-.288A.573.573,0,0,0,47.957,17c.036.145.261.228.162.415a1.372,1.372,0,0,1,.706.289c.163.08-.034-.1.051-.17.051.028.112.086.142.045.017.289.407.58.775.7-.074-.152-.492-.228-.383-.425.07-.092.271.07.252.149.084.02-.016-.13.025-.185-.451-.224-.933-.682-1.3-.542M35.823,2.869A7.809,7.809,0,0,0,34.33,3.1a10.152,10.152,0,0,0,1.493-.231m-1.936-.784a.66.66,0,0,1,0-.085,2.22,2.22,0,0,0-.811.136l-.022-.146c-.449.131-.056-.173-.487-.111l.218-.1c-.448.1-.91.207-1.34.328.018.145.138.2.191.308a4.411,4.411,0,0,1-1.009-.076A33.2,33.2,0,0,0,26,3.8c-.216.084-.065.231-.258.33-.525.293-.8-.008-1.28.4.584.17,1.711-.4,2.542-.464.153-.036-.429.062-.512,0,.223-.132.537-.247.619-.4-.02-.1-.165-.054-.185-.154.933-.349,1.437-.24,2.364-.545a.992.992,0,0,0,.838.108c-.052-.122-.338-.176-.214-.337,0-.051.171-.055.157-.11.937.188,2.473-.5,3.818-.532m4.962,8.975c.115-.01.142.053.13.142.111-.142.422-.079.651-.037-.646-.465-1.969-.342-3.066-.237.007.161-.194.2-.184.365a12.872,12.872,0,0,0,2.469-.233m-3.447.445-.471.068.016.1c.157-.111.4.011.455-.17m-.625.194c-.026-.145-.272-.054-.445-.041.315-.379,1.378-.34,2.031-.536-.132-.245-.885.04-1.081.157a9.448,9.448,0,0,0-1.252.188c-.126.079.156-.005.221-.006.072.127-.051.144-.042.235a.419.419,0,0,1,.074-.011l-.065.027a1.312,1.312,0,0,0,.559-.013M23.391,5.366c0-.13-.194.033-.3.068a1.559,1.559,0,0,1,.514-.32c-.1-.382-.888.186-1.348.426a.135.135,0,0,1,.119.09,3.848,3.848,0,0,1-1.2.943c.089-.158.526-.388.223-.452-.059.366-.614.384-.81.763a11.441,11.441,0,0,0,2.805-1.519M17.735,4.244c.052-.039.019-.065.016-.1l-.038-.057c-.094.055-.076.094-.145.145l-.154-.229c-.34.174.038.245-.285.417.011.112.127.018.152.1.092-.159.3-.328.454-.283m.717,1.646c-.061-.106.062-.234,0-.34a1.441,1.441,0,0,1-.64.76l.06.084c.259-.187.3-.4.579-.5M28.925,18.312c.036-.034-.017-.09-.037-.138.224-.222.758-.339.686-.614-.566-.156-.971.417-1.407.8.206.168.5,0,.758-.049m-.83-.069c.1-.063.1-.148.215-.206-.094-.036-.246.13-.363.173.038.053.116-.04.148.033m.18.294c-.053-.09-.135-.076-.2-.122-.2.08-.194.207-.368.292a4.377,4.377,0,0,0,.568-.171m-.8.842a8.519,8.519,0,0,0-1.349.905c.451.03.971-.613,1.349-.905M9.327,15.594c.336-.229.276-.552.341-.762a3.357,3.357,0,0,0-.614.729c.125-.048.356-.243.273.034m-.466.293c-.149.055-.3.434-.436.623.194,0,.374-.077.6-.438-.113,0-.184-.044-.164-.185m-6.487,11.4c.122-.019.229-.089.276-.406-.126,0-.211.163-.276.406m.081,2.542c.167-.995.479-1.988.743-3.011-.528.37-.638,2.1-.743,3.011m16.321,5.325c.153-.039.048-.367.094-.525-.213-.02-.254.448-.094.525M4.009,26.7a4.8,4.8,0,0,1,.185-.868c0-.2-.1.258-.127.359-.071.088-.1-.2-.215.007-.071-.062.068-.291.112-.3-.147-.2-.392.895-.41,1.21.142-.178.253-.475.456-.408m-.148,3.743c-.017.1-.018.237-.07.241.037.2.143-.125.2-.158,0-.084-.078-.064-.127-.082m-.51-4.654a9.232,9.232,0,0,0-.32.988,10.539,10.539,0,0,0,.5-1,.146.146,0,0,1-.181.015m1.375-3.215a4.919,4.919,0,0,0,.638-1.829c-.357.411-.8,1.517-.638,1.829M5.82,18.725c.289-.139.144-.542.293-.809a1.051,1.051,0,0,0-.293.809M20.149,33.984c-.063-.26-.368-.348-.348-.681-.271.305-.025,1.11.348.681m-1.195,1.7c.2-.03.142-.338.266-.446-.008-.125-.147-.129-.16-.25a3.052,3.052,0,0,0,.34-.706c.124-.05.172.129.2.051-.054-.231.032-.526-.026-.72-.073.013-.047.155-.129.157-.055-.038-.059-.115-.037-.212-.154.195.018.374-.008.586-.226.012-.062-.288-.165-.363-.289.423-.2,1.246-.285,1.9M2.227,28.666c-.355.067-.409.882-.223,1.156a10.409,10.409,0,0,0,.223-1.156m37.7,35.173a1.151,1.151,0,0,0,.295.047,1.829,1.829,0,0,0-.295-.047m-15.473.014a1.847,1.847,0,0,0-.356-.384c-.017.06.045.117.158.171l-.032.061c-.264-.108-.248-.227-.379-.34-.02.084-.123.015-.13.123l.74.369M17.447,58.6a11.943,11.943,0,0,0-1.675-1.79.189.189,0,0,1-.084,0c.088.154.213.187.333.322-.2-.194-.328-.258-.415-.255A23.44,23.44,0,0,0,17.447,58.6m-.849.971a.055.055,0,0,1,.023-.015c.063.006.127.011.194.019q-.835-.725-1.617-1.483.67.77,1.4,1.479m5.964,2.63c-.167-.058-.37-.191-.382-.108l-4.253-2.966a7.093,7.093,0,0,0,1.152,1.231,9.357,9.357,0,0,0,1.464.935c.6.7,2.389,1.96,3.147,1.895l.05-.09c-.338-.056-.386-.3-.712-.3-.051-.058.07-.066.041-.176-.164-.039-.724-.368-.508-.422m5.525-1.295-.014,0,.01.015ZM4.414,37.693l.1-.005c.018-.21-.062-.229-.054-.42-.092.028-.129.294-.049.425m3.205,7.712c-.008-.013-.017-.025-.026-.042.005.028.012.057.017.085l.008-.043M25.6,67.081c-1.028-.613-2.306-.968-3.354-1.664.689.805,2.3,1.21,3.354,1.664m-4.414-2.21a4.634,4.634,0,0,0-.97-.583,2.989,2.989,0,0,0,.97.583m-4.776-2.984c.043-.134-.329-.355-.49-.533-.086.172.309.368.49.533m-.957-.911c-.049-.163-.674-.576-.93-.765.03.145.379.354.436.5a1.121,1.121,0,0,1,.494.265M11.77,57.184c-.08.119.037.324.193.543a.639.639,0,0,0-.193-.543" transform="translate(0 2.249)" fill="#7052ac"/>
    <path id="パス_176" data-name="パス 176" d="M.164,0c.131.067,0,.328.079.435C.123.39.031.523,0,.459.125.336-.111.013.164,0" transform="translate(22.337 37.401)" fill="#7052ac"/>
    <path id="パス_177" data-name="パス 177" d="M.587.283.061.589C.129.434.223.377,0,.345A1.443,1.443,0,0,0,.664,0,.357.357,0,0,0,.587.283" transform="translate(19.696 4.191)" fill="#7052ac"/>
    <path id="パス_178" data-name="パス 178" d="M0,.26C.173.182,0,.06.117.013A3.548,3.548,0,0,0,1.38,0C1.324.266.2.176,0,.26" transform="translate(37.52 2.082)" fill="#7052ac"/>
    <path id="パス_179" data-name="パス 179" d="M.086.244C.151.145-.095.024.042,0,.2.28.917-.141.915.245.553.165.45.3.086.244" transform="translate(41.728 1.799)" fill="#7052ac"/>
    <path id="パス_180" data-name="パス 180" d="M.313.461C-.137.412.021.061.052,0c.3.136.306.314.261.461" transform="translate(48.831 3.251)" fill="#7052ac"/>
    <path id="パス_181" data-name="パス 181" d="M.049,0C.161.355.245.885.1.905.12.632-.093.172.049,0" transform="translate(68.712 28.253)" fill="#7052ac"/>
    <path id="パス_182" data-name="パス 182" d="M.071,0c.093.024.2.021.259.108A.282.282,0,0,0,.2.406,1.018,1.018,0,0,1,.046,1.863C.219,1.5.5.7,0,.477.147.445-.056.055.071,0" transform="translate(65.093 34.652)" fill="#7052ac"/>
    <path id="パス_183" data-name="パス 183" d="M1.286,7.456c-.113-.491-.193-1.006-.323-1.484-.066,0-.068.061-.13.061C.844,5.349.6,4.456.623,3.8c-.04.209-.2.267-.29.07A1.779,1.779,0,0,1,.24,3.12l.216.213a.781.781,0,0,0-.063-.3.7.7,0,0,0,.169.113A.9.9,0,0,1,.6,3.486a.844.844,0,0,1,.028.175.943.943,0,0,1,.178-.513c.065.017.051.225.125.224-.02-.338-.171-.786-.386-.865a1.13,1.13,0,0,0-.03-.847c-.06.057-.082.228-.177.147A2.028,2.028,0,0,0,.262.767c.065.216-.045.287-.116.388A2.1,2.1,0,0,0,0,.643C.086.449.221.749.28.609A.732.732,0,0,1,.25,0a2.112,2.112,0,0,1,.3,1.348c.058-.038.058-.126.142-.141a13.656,13.656,0,0,1,.432,2.728c.268,0,.292.363.269.655-.332-.009-.338-.661-.5-1.012-.238,0-.185.476-.153.619.118.037.187-.182.272-.045-.087.277.2.552.119.822a.156.156,0,0,1-.144-.03c.087.138.2.219.294.356-.058-.2.138-.125.177-.221.023.285.168.708-.033.748-.019-.129-.021-.289-.11-.284a1.121,1.121,0,0,0,.014.343L1.5,5.868A1.781,1.781,0,0,0,1.6,6.9c-.124.117.026.587-.141.648.028-.29-.107-.158-.177-.09" transform="translate(65.355 29.453)" fill="#7052ac"/>
    <path id="パス_184" data-name="パス 184" d="M.134.841C-.054.645.059.318,0,.031L.288,0a.533.533,0,0,1,.26.64C.295.527.357.837.134.841" transform="translate(45.651 28.592)" fill="#7052ac"/>
    <path id="パス_185" data-name="パス 185" d="M1.077,1.034c-.139.006-.2.211-.451,0S-.117.461.025.186C.124.028.3-.1.624.11c.238.269.785.839.453.924" transform="translate(55.593 20.834)" fill="#7052ac"/>
    <path id="パス_186" data-name="パス 186" d="M1.27.612a.884.884,0,0,1,.275.624C1.53,2.109.868.8.881,1.785c-.34-.108-.669.23-.865-.536.026-.393-.1-.933.1-1.1C.244-.166.46.075.689.336s.4.559.581.276" transform="translate(57.956 30.886)" fill="#7052ac"/>
    <path id="パス_187" data-name="パス 187" d="M1.37.512c.017.008.032.018.048.027A.278.278,0,0,1,1.4.436c.1.1.46.427.34.544.06.167.1.352.149.522a.255.255,0,0,1-.186.1c.1.223.272.481.168.605-.027-.185-.169.092-.195-.093.134-.138-.149-.361-.054-.513a.615.615,0,0,1-.1-.021.116.116,0,0,1-.06.077.39.39,0,0,0-.044-.113l-.009,0a2.18,2.18,0,0,1-.32-.516C1.029.966.963.9.9.827a.268.268,0,0,1-.024.2c-.049.2-.339.155-.558-.089C.178.661-.027.454,0,.185c0-.257.3-.237.543,0l0,0A.392.392,0,0,1,.555.1c.053.121.15.084.16,0a1.838,1.838,0,0,0,.257.56C.971.644.967.631.965.619c.169-.061.177-.292.4-.107" transform="translate(58.741 25.503)" fill="#7052ac"/>
    <path id="パス_188" data-name="パス 188" d="M.438.179a1.115,1.115,0,0,1,.031.8C.324.962.154,1.2.047.775-.12.184.189-.264.438.179" transform="translate(61.014 35.524)" fill="#7052ac"/>
    <path id="パス_189" data-name="パス 189" d="M.021,0C.036.018.057-.02.061.016L0,.075C0,.04,0,0,.021,0" transform="translate(40.373 46.96)" fill="#7052ac"/>
    <path id="パス_190" data-name="パス 190" d="M3.284,29.68v-.187A16.017,16.017,0,0,0,1.5,30.823c0-.213.244-.166.258-.347a6.321,6.321,0,0,0-1.418-.31c.217-.575-.291-.847-.335-1.048a.554.554,0,0,0,.4-.184c.414-.362.457-.708.251-.766a2.965,2.965,0,0,0,.833-1.043,2.122,2.122,0,0,1,.937-.909c.653-.574,0-.869-.077-1.264.336.007.265.833.814.536l.054-.276c.381-.122.754-.317.978-.057l.046-.08.076-.368c.016.042.031.1.048.153.394-.672.831-1.348,1.181-2.043a.266.266,0,0,1,.029-.311.921.921,0,0,0,.453-.569c-.033-.092-.042-.015-.125-.057.114-.191.269-.235.373-.474a.146.146,0,0,1-.19-.081c.1-.176.25-.178.353-.348-.142-.054-.269-.117-.188-.3.122-.1.045.18.2.168a.921.921,0,0,0,.214-.409c-.033.022-.227.03-.147-.1.239-.055.193-.813.474-.938a1.938,1.938,0,0,1,.138-.662,1.956,1.956,0,0,1,.273-.611,5.838,5.838,0,0,1-.474,1.871c.016-.042.02-.106-.018-.051a2.064,2.064,0,0,0-.023.484,6.119,6.119,0,0,0,.682-2.26c.124-.12.349-.592.136-.7-.04.208.1.518-.163.523.094-.254.067-.5-.058-.489.861-1.386.934-3.5.884-5.51a.56.56,0,0,1-.222.251c-.36.131-.5.083-.753-.308.109-.255-.288-.506-.031-.771-.167-.653.313-.531.214-.947l.031.05c.035-.19.229-.137.232-.4.113.247.118-.216.164-.046.089.175.13.127.173.052-.247-.447.054-1.3-.3-1.785a1.1,1.1,0,0,0-.02-.636c-.08-.225-.207-.4-.3-.365C7.5,6.91,7.669,6.9,7.7,6.791l-.134.03c.055-.261.158-.828-.171-.991.063.192-.083.227-.175.3C7.144,5.62,6.9,5.15,6.821,4.74c.087.208.225.161.3.034.066.114-.016.134.051.247.315-.2.413.428.612.26-.007-.208-.273-.343-.146-.491.038.134.108.182.2.162a.816.816,0,0,1-.063-.386c.13.1.175.065.269.143.088.213-.066.272-.041.464.189.139.207.66.4.789.362-.271.316-.747.123-1.244-.168-.358-.4-.725-.583-1.054.048.273.06.5-.168.494-.152-.527-.575-.7-.682-1.254a.708.708,0,0,1,.06-.276.6.6,0,0,1-.053-.21l.1-.04c.018.045.044.094.067.141a.3.3,0,0,1,.167-.017,1.477,1.477,0,0,1,.433.58,1.115,1.115,0,0,0,.008.15c.06-.042.118-.085.1-.174A7.877,7.877,0,0,1,7.234,1.61a2.362,2.362,0,0,0-.057.583c-.024-.012-.048-.026-.072-.042a.258.258,0,0,1-.032.191.575.575,0,0,1-.135-.313c-.129-.106-.265-.239-.405-.378C6.279,1.32,6.209.825,6.385.733c.192-.06.454.219.686.47C7.014,1.054,6.962.91,6.916.777c-.082.075-.047.057-.155.077C6.82.551,6.349.172,6.684,0a6.413,6.413,0,0,1,.78,1.548c.465,1.09.957,1.638,1.372,2.591a4.073,4.073,0,0,1,.23,1.012c.13.673.385,1.324.56,1.924A2.427,2.427,0,0,1,9.558,8.66c-.065.022-.076-.051-.115-.074.047.273.037.49-.129.552-.086-.477.035-1.075-.236-1.391.057-.036.16.1.17-.029.006-.344-.329-.068-.279-.488.088-.05.08.074.148.062-.262-.2-.2-.6-.264-.983-.105.029-.28-.125-.3-.065-.022.387-.023.768-.066,1.144-.059.38-.126.749-.208,1.1.025.1.165,0,.161.149-.067.382.032.858,0,1.306A.075.075,0,0,0,8.5,9.874l.05.193c.053.019.1.033.119.075l.025-.01c.013.125-.038.3.043.429a.1.1,0,0,0,.115-.068,1.315,1.315,0,0,1-.11.547c.122.107.059.2-.014.281,0,.229,0,.472,0,.71a2.873,2.873,0,0,0,.029.869c.144-1.491.513-3.592-.262-4.834.226-.158.017-.732.252-.88.191.364.154,1.1.436,1.3A4.446,4.446,0,0,0,9.261,9.5c0,.806-.306,1.187.174,1.311-.1.322.015.9-.151,1.146-.185-.167.131-.671-.142-.783a9.521,9.521,0,0,0-.085,1.26,5.731,5.731,0,0,1-.438,1.231c.076.161.323-.166.309.021-.012.214-.205.17-.289.28.168.329-.11.866-.1,1.151.234-.114.184-.726.426-.82.095.792-.583,1.034-.554,1.711.011-.051.025-.1.08-.074-.066.209.043.257.007.438-.223-.144-.294.21-.144.279.02-.124.046-.237.165-.188-.274.759-.576,1.6-.891,2.3.076.04.09-.055.175.006a14.368,14.368,0,0,1-.872,1.819c-.152.252-.6.547-.434.736.081-.127.116-.39.249-.308-.077.439-.692,1.285-.831,1.807-.114.027.018-.2-.074-.084-.4.775-.934,1.541-1.372,2.356.084.088.218.079.454-.2.265-.091.325.17.354.436s.03.537.279.493c-.03.125-.185.384-.315.673-.075.452.366.056.531.164l-.535.255c-.48.566-.113.972-.184,1.124-.117.093-.252-.117-.471.148-.112.179-.244.4-.4.619-.006.018-.013.037-.018.055l-.045.033a2.441,2.441,0,0,1-.844.79M8.265,7.408c.076-.132-.018-.375-.069-.6-.212,0-.149.218-.374.21a.553.553,0,0,0,.442.387M6.346,21.573c-.149-.052-.143.244-.142.305.16.009.117-.207.142-.305" transform="translate(54.554 26.177)" fill="#7052ac"/>
    <path id="パス_191" data-name="パス 191" d="M.129.278.1.295C.085.191-.06.143.028,0Z" transform="translate(57.499 50.879)" fill="#7052ac"/>
    <path id="パス_192" data-name="パス 192" d="M.11.169C.012.224.027.1,0,.074c.141-.158.126-.032.11.1" transform="translate(59.757 50.72)" fill="#7052ac"/>
    <path id="パス_193" data-name="パス 193" d="M.49.839C.263.8.059.286,0,0,.2.244.6.5.49.839" transform="translate(68.688 20.623)" fill="#7052ac"/>
    <path id="パス_194" data-name="パス 194" d="M.128.006A1.47,1.47,0,0,1,0,.185L.018.1C.065.047.1-.02.128.006" transform="translate(60.022 51.52)" fill="#7052ac"/>
    <path id="パス_195" data-name="パス 195" d="M.207.013C.218.146.085.072,0,.123.051.078.131-.039.207.013" transform="translate(54.575 54.486)" fill="#7052ac"/>
    <path id="パス_196" data-name="パス 196" d="M.123.012.016.156c-.037,0,0-.066.018-.1C.088.017.106-.02.123.012" transform="translate(52.786 55.775)" fill="#7052ac"/>
    <path id="パス_197" data-name="パス 197" d="M.229,0,0,.164.039.092A.255.255,0,0,1,.229,0" transform="translate(54.091 56.767)" fill="#7052ac"/>
    <path id="パス_198" data-name="パス 198" d="M.055,0C.037,0,.019.009,0,.011A.1.1,0,0,1,.055,0" transform="translate(50.133 60.187)" fill="#7052ac"/>
    <path id="パス_199" data-name="パス 199" d="M2.569,0c-.21.457.447.218.062.757-.487.688-1.469.8-2.238,1.027l.4-.224c0-.137-.365-.327-.789-.109.217-.3.163.043.542-.213C.934,1.022.662.851.52.847,1.078.732,1.59.1,1.926.232,2.138-.018,2.3.39,2.569,0" transform="translate(49.668 59.339)" fill="#7052ac"/>
    <path id="パス_200" data-name="パス 200" d="M.139.178C.612-.236.644.159.2.488-.037.6-.071.391.139.178" transform="translate(59.785 58.069)" fill="#7052ac"/>
    <path id="パス_201" data-name="パス 201" d="M.263,0c.045.042.147.026.25.01C.512.143.338.316.052.3-.109.205.144.079.263,0" transform="translate(47.792 59.742)" fill="#7052ac"/>
    <path id="パス_202" data-name="パス 202" d="M.446.253C.186.338.03.238,0,.149A.958.958,0,0,1,.474,0C.633.064.623.171.446.253" transform="translate(41.135 66.6)" fill="#7052ac"/>
    <path id="パス_203" data-name="パス 203" d="M.55,0,.056.3,0,.3.493,0Z" transform="translate(50.748 75.488)" fill="#7052ac"/>
    <path id="パス_204" data-name="パス 204" d="M.011.013c.218-.035.655,0,.32.129C.114.142-.045.078.011.013" transform="translate(46.899 75.245)" fill="#7052ac"/>
    <path id="パス_205" data-name="パス 205" d="M.006.14C.653.106.762.04,1.26,0c.606.249,1.717.312,2.058.685,0,.129.31.311.122.415A5.478,5.478,0,0,1,.784.807C.868.55-.083.4.006.14" transform="translate(27.847 79.076)" fill="#7052ac"/>
    <path id="パス_206" data-name="パス 206" d="M.008,0c.24.091.359.067.655.177A8.082,8.082,0,0,1,2.2,1.384c.232.228-.062.279-.111.4-.306.062-.836-.366-1.167-.522C-.068.556-.013.3.008,0" transform="translate(16.304 69.529)" fill="#7052ac"/>
    <path id="パス_207" data-name="パス 207" d="M.22.022A4.964,4.964,0,0,1,1.5.817c.253.446.8,1.025.83,1.372l.1.061A4.3,4.3,0,0,1,.981,1.8c0-.241-.395-.729-.687-1.136S-.152-.094.22.022" transform="translate(10.884 61.971)" fill="#7052ac"/>
    <path id="パス_208" data-name="パス 208" d="M.15.324C-.31-.146.376-.042,1.024.24a4.268,4.268,0,0,1,1.309.894c.088.257-.159.429-.891.126A4.436,4.436,0,0,1,.15.324" transform="translate(17.367 74.758)" fill="#7052ac"/>
    <path id="パス_209" data-name="パス 209" d="M0,0,.126.1.091.09Z" transform="translate(40.292 26.172)" fill="#7052ac"/>
    <path id="パス_210" data-name="パス 210" d="M.124,0,.008.235C-.03.075.072.037.124,0" transform="translate(2.992 26.261)" fill="#7052ac"/>
    <path id="パス_211" data-name="パス 211" d="M0,.053.026,0C.035.023.021.038,0,.053" transform="translate(3.116 26.207)" fill="#7052ac"/>
    <path id="パス_212" data-name="パス 212" d="M.311.121A.74.74,0,0,1,.116.592C.091.5.024.562.005.469A.744.744,0,0,1,.091.048c.093-.086.186-.054.22.073" transform="translate(39.83 27.842)" fill="#7052ac"/>
    <path id="パス_213" data-name="パス 213" d="M.207.143C.169.234.152.364.087.4-.073.521.018.1.121,0,.177,0,.207.041.207.143" transform="translate(39.58 29.142)" fill="#7052ac"/>
    <path id="パス_214" data-name="パス 214" d="M.232.222C.17.3.027.138,0,.058.028.024.037-.023.1.012c.107.056.106.132.131.21" transform="translate(22.156 54.018)" fill="#7052ac"/>
    <path id="パス_215" data-name="パス 215" d="M.864.389C.682.268.443.453.236.329.121.278-.044.24.011.079c.32-.2.625.031.838.223L.809.283C.773.355.885.333.864.389" transform="translate(32.234 47.203)" fill="#7052ac"/>
    <path id="パス_216" data-name="パス 216" d="M1.476.853c.311.42-.346.334-.3.6-.315.01-.286.112-.609.109A1.117,1.117,0,0,1,0,.855C.182.784-.106.361.243.4L.315.146C.322.2.393.208.422.235.448.165.567.114.477.018.633.106.815.209.89,0L.98.141c.082.053.261.208.28.129.021.246.311.328.216.584" transform="translate(53.874 28.345)" fill="#7052ac"/>
    <path id="パス_217" data-name="パス 217" d="M0,.044A.336.336,0,0,1,0,0,.108.108,0,0,1,0,.044" transform="translate(55.133 28.571)" fill="#7052ac"/>
    <path id="パス_218" data-name="パス 218" d="M.346.317C.225.26-.026.211,0,.036.082-.026.191.012.282,0A.667.667,0,0,1,.6.266Z" transform="translate(30.567 47.345)" fill="#7052ac"/>
    <path id="パス_219" data-name="パス 219" d="M0,.064.04.005C.069.027.111,0,.15,0c.177,0,.307.22.391.291C.34.244.126.278,0,.064" transform="translate(30.305 46.207)" fill="#7052ac"/>
    <path id="パス_220" data-name="パス 220" d="M.086.037,0,.011C.043-.021.052.024.086.037" transform="translate(30.646 45.654)" fill="#7052ac"/>
    <path id="パス_221" data-name="パス 221" d="M0,.024C.03.007.058-.009.079.006.07.019.057.036.079.05A.461.461,0,0,1,0,.024" transform="translate(27.913 41.03)" fill="#7052ac"/>
    <path id="パス_222" data-name="パス 222" d="M.256.162C.185.226-.016.254,0,.119.014.025.141.048.215,0a.129.129,0,0,1,.04.162" transform="translate(23.788 34.483)" fill="#7052ac"/>
    <path id="パス_223" data-name="パス 223" d="M.365,0c.2-.012.246.144.3.233C.518.321.419.434.195.409.173.331-.086.311.03.185.05.038.168-.016.365,0" transform="translate(26.083 34.353)" fill="#7052ac"/>
    <path id="パス_224" data-name="パス 224" d="M.2,0c.045.028.025.065.02.1C.175.2-.012.14,0,.049A.257.257,0,0,1,.2,0" transform="translate(24.437 34.375)" fill="#7052ac"/>
    <path id="パス_225" data-name="パス 225" d="M0,0,.136.123.1.242Z" transform="translate(22.952 46.333)" fill="#7052ac"/>
    <path id="パス_226" data-name="パス 226" d="M.028.074C.137-.1.305.079.455.18a2.293,2.293,0,0,1,.649,1C.961.9.818,1.251.694.929c-.01.1-.127.042-.123.128L.532.995C.36.774-.121.447.028.074" transform="translate(21.343 45.249)" fill="#7052ac"/>
    <path id="パス_227" data-name="パス 227" d="M.1,0C.135.049.3.052.23.147.169.178.127.213.051.187A.1.1,0,0,1,.1,0" transform="translate(23.867 32.956)" fill="#7052ac"/>
    <path id="パス_228" data-name="パス 228" d="M.248.124C.176.155.181.3.063.223-.046.181.02.1.019.017A.165.165,0,0,1,.248.124" transform="translate(22.031 31.57)" fill="#7052ac"/>
    <path id="パス_229" data-name="パス 229" d="M0,.267C.045.136.114.021.245,0A1.1,1.1,0,0,1,.87.582c.167.261.294.569.461.817-.073.086-.153-.035-.226-.045-.1.117-.049.234,0,.367L1.1,1.867a3.005,3.005,0,0,1-.6-.463c-.007.063-.063.1-.026.148C.163,1.37.3.868.011.73A.8.8,0,0,0,0,.267" transform="translate(19.71 40.882)" fill="#7052ac"/>
    <path id="パス_230" data-name="パス 230" d="M0,.059c.077-.021.061-.12.389,0A.8.8,0,0,1,.656.214c.05.04.052.069.035.094C.656.358.54.4.6.46L.475.4C.438.319-.042.162,0,.059" transform="translate(34.327 34.595)" fill="#7052ac"/>
    <path id="パス_231" data-name="パス 231" d="M.059.026.031.094,0,0Z" transform="translate(30.932 32.438)" fill="#7052ac"/>
    <path id="パス_232" data-name="パス 232" d="M.23.171.068.229,0,0,.126.207C.08.158.293.145.23.171" transform="translate(29.832 31.809)" fill="#7052ac"/>
    <path id="パス_233" data-name="パス 233" d="M0,0H0" transform="translate(29.994 31.695)" fill="#7052ac"/>
    <path id="パス_234" data-name="パス 234" d="M.2.135C.172.152.194.236.118.21L.094.171,0,.193.06.135C.084.157.091.179.127.186.153.162.165.084.072,0A.867.867,0,0,1,.2.135" transform="translate(29.922 31.696)" fill="#7052ac"/>
    <path id="パス_235" data-name="パス 235" d="M.059,0A.263.263,0,0,1,.131.037C.065.034.054.066,0,.07.024.052,0-.011.059,0" transform="translate(29.862 31.658)" fill="#7052ac"/>
    <path id="パス_236" data-name="パス 236" d="M.113.007,0,.029C-.007-.015.058,0,.113.007" transform="translate(31.176 32.118)" fill="#7052ac"/>
    <path id="パス_237" data-name="パス 237" d="M.012.484C-.041.316.095.184.2.058A.2.2,0,0,1,.51.089a.392.392,0,0,1-.053.4C.3.5.19.675.012.484" transform="translate(26.799 25.93)" fill="#7052ac"/>
    <path id="パス_238" data-name="パス 238" d="M.3.223C.36.332.427.444.36.453A.73.73,0,0,1,0,.019C.007-.055.186.1.3.223" transform="translate(33.625 31.703)" fill="#7052ac"/>
    <path id="パス_239" data-name="パス 239" d="M.256,0A.494.494,0,0,1,.613.241C.75.676.462.7.256.8.272.846.335.99.188.9.177.866.187.837.138.8S.065.833.035.861A1.154,1.154,0,0,1,.04.3L0,.29Z" transform="translate(31.075 28.461)" fill="#7052ac"/>
    <path id="パス_240" data-name="パス 240" d="M.13.085C.069.058.047.142,0,.165L.071,0A.117.117,0,0,0,.13.085" transform="translate(26.339 23.757)" fill="#7052ac"/>
    <path id="パス_241" data-name="パス 241" d="M.068,0,0,.041C.016.026.032,0,.068,0" transform="translate(26.287 23.427)" fill="#7052ac"/>
    <path id="パス_242" data-name="パス 242" d="M0,.01,0,0H.006Z" transform="translate(26.408 23.747)" fill="#7052ac"/>
    <path id="パス_243" data-name="パス 243" d="M0,.292C.059.168.1-.085.319.029.4.039.392.145.431.212A.253.253,0,0,1,.144.449C.087.417.076.269,0,.292" transform="translate(31.045 26.754)" fill="#7052ac"/>
    <path id="パス_244" data-name="パス 244" d="M2.175.294A7.22,7.22,0,0,1,.105.576L.273.545C.3.506.468.443.426.4H0A6.144,6.144,0,0,1,1.465.012c.383-.06.868.114.709.282" transform="translate(30.782 0)" fill="#7052ac"/>
    <path id="パス_245" data-name="パス 245" d="M.032.063C.155.124.175-.008.292,0A.478.478,0,0,1,.609.309c.065.2.038.325-.027.4A.3.3,0,0,1,.171.752C.17.665.09.551.038.566L.072.459C-.157.273.255.34.032.063" transform="translate(33.288 26.069)" fill="#7052ac"/>
    <path id="パス_246" data-name="パス 246" d="M.048.123.006.113H0L.057,0l.05.06L.036.1Z" transform="translate(31.341 21.656)" fill="#7052ac"/>
    <path id="パス_247" data-name="パス 247" d="M.023,0,0,.047C0,.03,0,0,.023,0" transform="translate(31.317 21.771)" fill="#7052ac"/>
    <path id="パス_248" data-name="パス 248" d="M.122.116,0,.047.084,0C.072.027.077.063.122.116" transform="translate(31.482 21.543)" fill="#7052ac"/>
    <path id="パス_249" data-name="パス 249" d="M.6.1C.58.46.233.421,0,.472A.886.886,0,0,1,.159.351L.124.329C.2.3.42.4.423.168.414.094.34.076.3.027L.352,0C.4.016.555-.029.6.1" transform="translate(31.41 21.435)" fill="#7052ac"/>
    <path id="パス_250" data-name="パス 250" d="M.141,0,.146.006,0,.087C.024.032.124.019.141,0" transform="translate(31.566 21.456)" fill="#7052ac"/>
    <path id="パス_251" data-name="パス 251" d="M0,0A.744.744,0,0,0,.162.039.164.164,0,0,1,0,0" transform="translate(40.912 18.25)" fill="#7052ac"/>
    <path id="パス_252" data-name="パス 252" d="M.015.228,0,.208C.033.138.068.068.107,0Z" transform="translate(71.68 39.641)" fill="#7052ac"/>
    <path id="パス_253" data-name="パス 253" d="M.072,0A.33.33,0,0,0,0,.034.249.249,0,0,1,.041,0Z" transform="translate(52.671 52.906)" fill="#7052ac"/>
    <path id="パス_254" data-name="パス 254" d="M.025,0,0,0A.055.055,0,0,1,.025,0" transform="translate(52.743 52.903)" fill="#7052ac"/>
    <path id="パス_255" data-name="パス 255" d="M2.8.335a3.833,3.833,0,0,1-.27.291L2.7.638,2.641.646A.317.317,0,0,0,2.47.88L2.654.842l-.4.4c.16.08.04.2-.012.362l.2-.055c-.017.055-.073.14-.024.163.059-.005.118.031.183-.04l-.022.16a.445.445,0,0,0,.244-.085L2.5,2c.071.089.215-.044.33-.053l-.134.1c-.17.218-.791.578-.439.675l-.138.022a1.267,1.267,0,0,0-.657.394c-.274-.132-.8.167-.825-.263a1.266,1.266,0,0,1,.309-.763,1.53,1.53,0,0,0-.567-.041L0,1.525c.022-.127.161-.278.068-.371C.339.994.46.419.927.453c.318-.31.592-.11.951-.453L1.847.066c.025.155.146.073.241.018A.293.293,0,0,0,2,.252c.157-.02.31.016.444-.073L2.367.257c-.109.33.322.022.436.079" transform="translate(50.583 52.857)" fill="#7052ac"/>
    <path id="パス_256" data-name="パス 256" d="M.2.028C.2.057.208.113.182.134.113.19.034.088,0,0,.05.093.2.107.2.028" transform="translate(56.098 20.164)" fill="#7052ac"/>
    <path id="パス_257" data-name="パス 257" d="M.018.068A.134.134,0,0,1,0,0,.24.24,0,0,0,.018.068" transform="translate(56.081 20.096)" fill="#7052ac"/>
    <path id="パス_258" data-name="パス 258" d="M0,.263.037,0,0,.446Z" transform="translate(64.358 36.164)" fill="#7052ac"/>
    <path id="パス_259" data-name="パス 259" d="M.365.326C.46.233.583.358.638.107L.743.154C.792.246.9.16.936,0A1.582,1.582,0,0,1,.873.633L.942.593C.97.572.713.946.844.973c-.14.183-.362.322-.419.542L.031,1.494C-.1,1.284.2.737.365.326" transform="translate(66.357 48.665)" fill="#7052ac"/>
    <path id="パス_260" data-name="パス 260" d="M.21.527c.347-.775.8-.591.656-.116a2.214,2.214,0,0,1-.6.928C-.117,1.551-.041.986.21.527" transform="translate(73.794 54.283)" fill="#7052ac"/>
    <path id="パス_261" data-name="パス 261" d="M0,.56A1.692,1.692,0,0,1,.492,0L.469.106c.191-.2.146.011.166.1A1.561,1.561,0,0,1,.147.745C-.053.894.045.637,0,.56" transform="translate(66.363 53.568)" fill="#7052ac"/>
    <path id="パス_262" data-name="パス 262" d="M2.058.348,2.027.581a1.818,1.818,0,0,0,.5-.359c-.056.1-.021.134,0,.157A1.231,1.231,0,0,0,3.162,0L2.9.361c.1.213.488-.333.658-.317L3.145.511l.023.024A.956.956,0,0,0,3.512.362c-.082.079-.145.164-.234.179-.12.407-.3.759-.107.751-.157.1-.395.171-.405.379.074-.024.193-.112.211-.041l-.628.363c-.2.161,0,.217-.248.272l-.252.392L1.8,2.595c-.406.036-.849.365-1.235.293l-.038.071L0,2.582C.109,1.725,1.469,1.048,2.058.348" transform="translate(60.129 61.987)" fill="#7052ac"/>
    <path id="パス_263" data-name="パス 263" d="M.233,3.336c-.55.233.26-.395-.233-.258.145-.169.033-.231.023-.248C.145,2.678.057,2.6.2,2.43a.331.331,0,0,0,.153-.214L.34,2.222l.014-.013A1.051,1.051,0,0,1,.57,1.687C.63,1.668.7,1.718.8,1.638c-.085-.123.227-.3.269-.34.394-.076.572-.83,1.091-.74.356-.178.2-.324.492-.533.039.094-.2.368.057.306.242-.273.275-.049.457-.111,0-.068.144-.178.2-.221L3.325.09c-.029.149,0,.187.22.118.313-.191.368.2.7-.087a5.51,5.51,0,0,1-.29.47c.008.155.22.021.363-.05.151.07-.342.126-.306.36.1.067.312.024.446.039l-.47.271c-.48.462.16.35.219.366-.2.113-.258-.065-.466.183-.167.3.328-.052.27.182l-.25.047c-.552.125-.283.576-.563.691-.5-.031-.748.608-.952.657-.215.141-.578.009-.783.332L1.416,3.6a.316.316,0,0,0-.366.14c.011-.392-.867.168-.5-.376-.2.032-.31.215-.447.284.032-.058.271-.27.133-.316" transform="translate(54.289 58.988)" fill="#7052ac"/>
    <path id="パス_264" data-name="パス 264" d="M0,.017l0,0c.033-.02.025-.015,0,0" transform="translate(57.653 58.971)" fill="#7052ac"/>
    <path id="パス_265" data-name="パス 265" d="M.029.311C-.053.24.066.141.055.058.367-.087.228.083.477.093.449.208.21.413.029.311" transform="translate(47.697 58.454)" fill="#7052ac"/>
    <path id="パス_266" data-name="パス 266" d="M0,.132C.042.069.058,0,.153,0a.271.271,0,0,1,.27.127C.271.257.476.233.29.32.187.3-.029.276,0,.132" transform="translate(42.925 53.115)" fill="#7052ac"/>
    <path id="パス_267" data-name="パス 267" d="M.517,0c.2.015.154.121.2.212L.538.129C.109.308.721.243.576.355L.354.395C.126.419.1.272,0,.225.107.074.335.084.517,0" transform="translate(42.504 67.838)" fill="#7052ac"/>
    <path id="パス_268" data-name="パス 268" d="M.07.028,0,0,.012,0Z" transform="translate(41.182 62.754)" fill="#7052ac"/>
    <path id="パス_269" data-name="パス 269" d="M.786.185.841.55.719.62C.7,1.079.282.98.081.907-.119.668.107.438.174.2.275.3.368.124.426.031c.225-.142.155.26.36.154" transform="translate(57.701 44.228)" fill="#7052ac"/>
    <path id="パス_270" data-name="パス 270" d="M.359.038l-.1.074L.3.134,0,.441.288,0Z" transform="translate(57.084 46.106)" fill="#7052ac"/>
    <path id="パス_271" data-name="パス 271" d="M1.492,0,1.437.267c.073-.03.1-.087.176-.145-.007.047.01.081-.026.11.269.42.635.133,1.1.034l-.531.31C2.108.938,2.5.469,2.523.8c-.031.086-.1.073-.147.095.011.381.452.091.524.267-.2.1-.623.232-.586.557-.159.114-.369.5-.595.507L1.7,2.538c-.12-.028-.175-.234-.357-.116l.013.2c-.078-.2-.232.052-.35.077C.78,2.648.718,2.491.409,2.667.347,2.451.147,2.246.182,2.029S.045,2.112,0,1.945c.271-.247.21-.608.246-.889a1.9,1.9,0,0,1,.8-.9l.009.052A.555.555,0,0,0,1.492,0" transform="translate(54.911 46.629)" fill="#7052ac"/>
    <path id="パス_272" data-name="パス 272" d="M.082.112,0,0,.107.077Z" transform="translate(56.975 49.379)" fill="#7052ac"/>
  </g>
</svg>
