<svg xmlns="http://www.w3.org/2000/svg" width="141.624" height="23.04" viewBox="0 0 141.624 23.04">
  <path id="パス_899" data-name="パス 899" d="M7.176-16.344a12.183,12.183,0,0,1,.12-2.232H4.08a12.676,12.676,0,0,1,.1,2.208L4.2-5.232a18.084,18.084,0,0,0,.072,2.208A3.318,3.318,0,0,0,5.448-.576C6.384.144,8.04.456,11.064.456c1.464,0,4.488-.144,5.9-.288C19.512-.072,19.632-.1,20.136-.1l-.144-3.192a14.18,14.18,0,0,1-2.736.576,45.261,45.261,0,0,1-5.568.384c-2.328,0-3.7-.192-4.1-.624-.336-.336-.432-.888-.432-2.28a1.593,1.593,0,0,1,.024-.312V-8.712a40.635,40.635,0,0,0,10.248-3.312c1.272-.624,1.992-.96,2.16-1.032l-1.92-2.712C16.1-14.3,10.8-12.168,7.176-11.5Zm9.7-2.592a15.35,15.35,0,0,1,2.376,3.672l1.728-.792a15.259,15.259,0,0,0-2.4-3.648ZM23.88-17.52A14.12,14.12,0,0,0,21.528-21l-1.656.768a17.861,17.861,0,0,1,2.3,3.576Zm4.992,1.1a29.056,29.056,0,0,1,6.408,3.288l1.536-2.64a39.522,39.522,0,0,0-6.384-3.1Zm-1.9,5.832a27.857,27.857,0,0,1,6.5,3.5l1.488-2.712a37.88,37.88,0,0,0-6.384-3.264ZM41.232-18.5a16.2,16.2,0,0,1,2.52,3.576l1.68-.888a15.554,15.554,0,0,0-2.52-3.528ZM28.344.984a14.171,14.171,0,0,1,1.68-.408C38.616-1.1,43.68-5.04,46.656-12.312a11.669,11.669,0,0,1-2.5-2.136C42.432-9.336,38.832-5.4,34.44-3.864A21.321,21.321,0,0,1,27.5-2.3Zm19.944-18.36a13.879,13.879,0,0,0-2.5-3.384l-1.608.84a17.682,17.682,0,0,1,2.448,3.48ZM62.808,1.536A10.757,10.757,0,0,1,62.688-.6V-5.88c0-.216-.024-.888-.048-1.176.24.12.288.12.6.264a42.812,42.812,0,0,1,7.32,3.84l1.584-2.52A39.165,39.165,0,0,0,63.768-9.24a30.957,30.957,0,0,0,4.9-4.488A5.631,5.631,0,0,1,69.72-14.76l-1.392-1.632a5.064,5.064,0,0,1-1.632.216H62.64v-1.992a7.755,7.755,0,0,1,.12-1.68H59.544a9.908,9.908,0,0,1,.12,1.728v1.968H55.656a12.328,12.328,0,0,1-2.568-.216v2.9a17.7,17.7,0,0,1,2.544-.12c8.64-.048,8.64-.048,8.784-.072h.5a25.738,25.738,0,0,1-7.44,5.088,29.879,29.879,0,0,1-6.672,2.232A9.92,9.92,0,0,1,52.224-3.72a38,38,0,0,0,6.768-2.688,4.121,4.121,0,0,0,.72-.456V-.6a14.472,14.472,0,0,1-.144,2.136ZM96.552-1.7c-2.9-2.808-2.9-2.808-3.5-3.336a37.2,37.2,0,0,0-4.44-3.48,31.785,31.785,0,0,0,3.744-6.624,4.616,4.616,0,0,1,.768-1.3l-1.584-1.632a5.2,5.2,0,0,1-2.136.264l-8.448.12h-.576a10.5,10.5,0,0,1-2.112-.144l.1,3.072a18.914,18.914,0,0,1,2.616-.192c7.56-.12,7.56-.12,7.944-.144l-.264.624A23.133,23.133,0,0,1,80.592-4.7a19.814,19.814,0,0,1-4.8,2.64A9.628,9.628,0,0,1,77.736.6,28.521,28.521,0,0,0,86.88-6.336,46.136,46.136,0,0,1,94.248.792Zm11.184-16.128V-18.5a10.765,10.765,0,0,1,.12-1.68H105a8.423,8.423,0,0,1,.144,1.68v.672H102.7a12.974,12.974,0,0,1-2.28-.12v2.592a10.83,10.83,0,0,1,1.968-.12h7.68a10.313,10.313,0,0,1,2.016.12v-2.592a12.561,12.561,0,0,1-2.184.12Zm1.776,6.48a21.132,21.132,0,0,0,1.272-3.288l-2.472-.624a19.569,19.569,0,0,1-1.248,3.912h-4.728a15.322,15.322,0,0,1-2.424-.12v2.64a15.731,15.731,0,0,1,2.4-.12h8.04a11.192,11.192,0,0,1,1.944.12v-2.64a10.578,10.578,0,0,1-2.064.12Zm-7.536-3.384a14.5,14.5,0,0,1,1.128,3.36l2.376-.72a16.28,16.28,0,0,0-1.248-3.36ZM103.848.5h4.68V1.872h2.64a12.052,12.052,0,0,1-.1-1.8V-5.76a13.661,13.661,0,0,1,.072-1.776,12.96,12.96,0,0,1-1.752.072H103.2c-.888,0-1.368-.024-1.92-.072.048.552.072.984.072,1.968V-.36a19.488,19.488,0,0,1-.1,2.256h2.592Zm0-5.664h4.7V-1.8h-4.7ZM120.96-19.608a9.231,9.231,0,0,1-1.9.12h-4.152a16.363,16.363,0,0,1-1.968-.1,18.308,18.308,0,0,1,.1,2.016V-.7A22.707,22.707,0,0,1,112.9,2.04h2.832a16.559,16.559,0,0,1-.168-2.808V-17.112H118.9a26.476,26.476,0,0,1-2.64,6.288,9.79,9.79,0,0,1,2.5,3.12,7.1,7.1,0,0,1,.768,3.1c0,.768-.384,1.032-1.584,1.032a10.727,10.727,0,0,1-1.8-.144,5.652,5.652,0,0,1,.552,2.616,11.533,11.533,0,0,0,1.2.048,6.415,6.415,0,0,0,2.448-.312,2.912,2.912,0,0,0,1.7-3,9,9,0,0,0-.672-3.336,10.757,10.757,0,0,0-2.3-3.48,49.7,49.7,0,0,0,2.592-5.712,7.883,7.883,0,0,1,.48-1.056Zm7.248,9.072h4.3c.84,0,1.632.024,2.208.048a21.358,21.358,0,0,1-.072-2.136v-4.7c0-.936.024-1.56.072-2.232a20.279,20.279,0,0,1-2.448.1h-4.248a21.324,21.324,0,0,1-2.448-.1,26.834,26.834,0,0,1,.1,2.712v15.72a23.188,23.188,0,0,1-.144,2.976h2.832a21.05,21.05,0,0,1-.144-2.952Zm0-6.84h4.08v1.536h-4.08Zm0,3.408h4.08v1.512h-4.08Zm17.376-2.9a21.366,21.366,0,0,1,.12-2.688,22.278,22.278,0,0,1-2.5.1h-4.464a20.8,20.8,0,0,1-2.448-.1c.048.744.072,1.416.072,2.232v4.7c0,1.032-.024,1.632-.072,2.184.5-.048,1.344-.072,2.208-.072h4.512V-1.44c0,.5-.168.6-.912.6a25.9,25.9,0,0,1-3.24-.216,8.86,8.86,0,0,1,.648,2.616c.984.024,1.536.048,1.968.048,3.456,0,4.1-.432,4.1-2.736Zm-6.816-.5h4.248v1.536h-4.248Zm0,3.408h4.248v1.512h-4.248Z" transform="translate(-4.08 21)" fill="#efefef"/>
</svg>
