<svg xmlns="http://www.w3.org/2000/svg" width="271.416" height="68.944" viewBox="0 0 271.416 68.944">
  <g id="グループ_1761" data-name="グループ 1761" transform="translate(-133.688 -3472.204)">
    <path id="パス_1000" data-name="パス 1000" d="M36.576-10.608c-1.1,0-1.632.48-3.456.576-2.592.144-5.76.432-8.976.816C25.2-16.464,25.3-17.184,25.3-18.432a3.306,3.306,0,0,0-2.352-3.456,80.591,80.591,0,0,1,10.128-1.44c1.2-.048,1.968-.624,1.968-1.248,0-1.344-2.736-1.68-3.792-1.68-2.064,0-2.256,1.2-4.32,1.632-5.952,1.3-8.208,1.584-10.128,1.584a6.453,6.453,0,0,1-3.792-.864.886.886,0,0,0-.576-.24s-.288,0-.288.528c0,1.248,1.728,2.736,4.512,2.736a32.552,32.552,0,0,0,4.9-.768c1.152,1.056,1.2,4.272,1.2,5.328a69.1,69.1,0,0,1-.576,7.344C12.672-7.92,12.528-7.92,11.808-7.92A10,10,0,0,1,7.44-8.736a4.638,4.638,0,0,0-1.248-.48c-.288,0-.432.144-.432.624,0,2.4,4.32,3.216,5.712,3.216A16.315,16.315,0,0,0,14.5-5.952,87.409,87.409,0,0,1,31.1-7.824a37.907,37.907,0,0,1,8.88.912,1.969,1.969,0,0,0,.528.048c.864,0,1.632-.48,1.632-1.152C42.144-9.7,37.2-10.608,36.576-10.608ZM93.264-28.992c0-.048,0-.1-.048-.1-.1,0-.336.24-.816.768C87.648-22.8,70.272-5.856,64.512-5.856A3.435,3.435,0,0,1,61.824-7.2c-.24-.24-.384-.384-.528-.384s-.528.672-.528,1.3c0,2.064,4.176,4.272,5.616,4.272.624,0,.96-.432,1.344-.864a6.993,6.993,0,0,1,1.344-1.3C85.536-14.976,93.264-27.6,93.264-28.992Zm-32.4,2.4c-1.536,0-2.928.192-2.928.384,0,.1.144.192.48.336,3.264,1.1,5.76,1.824,8.5,4.32a2.629,2.629,0,0,0,1.632.768,1.534,1.534,0,0,0,1.392-1.68C69.936-25.3,65.088-26.592,60.864-26.592Zm65.9-3.888a1.777,1.777,0,0,0-1.008.432c-1.3.864-6.336,1.44-7.152,1.488l.1-.1a3.6,3.6,0,0,0,1.008-2.064c0-1.92-2.832-3.12-4.032-3.12-1.008,0-1.728.672-1.728,1.152,0,.192.1.336.384.384,1.056.24,1.824.72,1.824,1.584,0,1.488-6.72,11.472-14.064,16.992-.432.336-.624.528-.624.672,0,.048.048.048.144.048a1.965,1.965,0,0,0,.816-.24c5.376-2.448,9.408-6.96,14.784-13.632a1.371,1.371,0,0,0,.912.288,3.29,3.29,0,0,0,1.056-.192,28.488,28.488,0,0,1,5.76-1.152c.672,0,.96.144.96.48,0,.624-2.448,4.8-6.1,9.456a28.478,28.478,0,0,0-6.672-1.392q-.432,0-.432.144c0,.1.288.288.912.528a32.059,32.059,0,0,1,4.848,2.352c-5.472,6.576-12.336,12.192-20.016,15.36-.816.336-1.3.672-1.3.816,0,.048.048.1.24.1a4.388,4.388,0,0,0,1.248-.24c9.312-2.592,15.984-7.728,21.84-14.736a22.665,22.665,0,0,1,3.168,2.688,2.366,2.366,0,0,0,1.68.912,1.228,1.228,0,0,0,1.2-1.344c0-.768-.288-2.256-4.416-4.272,1.632-2.112,3.264-4.416,4.848-6.816,1.056-1.584,1.776-2.5,2.688-2.784.816-.24,1.152-.672,1.152-1.1C130.8-29.088,127.056-30.48,126.768-30.48Zm39.36-.48c-.864,0-1.776.672-1.776,1.056,0,.144.144.288.528.384,1.536.384,2.208,1.008,2.208,1.92,0,.48-.1,2.064-6.192,10.416-4.848-2.256-9.36-3.456-10.656-3.456-.24,0-.432.048-.432.1,0,.144.336.384,1.1.72a66.585,66.585,0,0,1,8.592,4.416C153.648-8.016,147.312-2.976,140.016,0c-.528.192-.96.48-.96.672,0,.048.048.1.24.1.336,0,11.712-1.872,22.368-14.784a25.946,25.946,0,0,1,5.088,4.176,2.972,2.972,0,0,0,2.064,1.3,1.193,1.193,0,0,0,1.152-1.344c0-2.5-4.08-4.752-6.72-6.1a91.308,91.308,0,0,0,5.568-8.256c.72-1.2,2.256-2.3,2.256-3.456C171.072-28.992,168.1-30.96,166.128-30.96ZM222.048-2.4c3.408,0,6.432-3.024,6.432-7.728,0-4.608-2.976-7.536-5.04-9.7-.912-1.008-1.392-1.632-1.392-2.448,0-1.68,3.36-7.488,4.368-9.024.576-.912.816-.96,1.2-1.1.72-.288,1.248-.72,1.248-1.2,0-.672-2.688-2.352-3.5-2.352a.616.616,0,0,0-.48.192c-.144.1-.336.336-.672.624a1.153,1.153,0,0,1-.72.288h-5.952l-.192-.144a31.157,31.157,0,0,0-4.272-1.92c-.048,0-.1.048-.1.144a.845.845,0,0,0,.048.288,58.282,58.282,0,0,1,.672,7.44c.048,3.456.1,7.3.1,11.136,0,7.2-.144,14.544-.432,20.112v.144c0,.912.48,1.3,1.056,1.3a1.81,1.81,0,0,0,1.728-1.68c0-2.832-.048-5.52-.048-8.16,0-7.92.1-15.36.1-24.384,0-2.352,0-2.352.672-2.832l.192-.144h6.384c.288,0,.48.1.48.336,0,.144-.576,2.208-2.544,8.544a8.225,8.225,0,0,0-.432,2.256c0,1.2.528,2.016,1.44,3.408,1.632,2.5,3.408,4.464,3.408,7.824,0,5.184-2.736,5.76-4.32,5.76a10.867,10.867,0,0,1-3.36-.624,3.909,3.909,0,0,0-.432-.1c-.1,0-.144,0-.144.048,0,.432,3.216,2.688,3.744,3.408a.609.609,0,0,0,.624.288ZM206.64-.1c-.192-2.832-.384-5.136-.384-6.96,0-2.352.24-2.544.912-2.928.336-.192,1.152-.528,1.152-1.1,0-.96-2.784-2.592-3.456-2.592-.432,0-.624.24-1.3,1.152a.827.827,0,0,1-.672.384h-8.064l-.24-.144a16.477,16.477,0,0,0-3.648-1.584c-.1,0-.1.048-.1.144a1.081,1.081,0,0,0,.048.336,48.086,48.086,0,0,1,.48,7.536c0,1.728-.048,3.552-.336,7.1v.144a.918.918,0,0,0,1.008.96,1.441,1.441,0,0,0,1.536-1.3c0-.768-.048-1.488-.048-2.16H204V.24a1.031,1.031,0,0,0,1.1,1.1A1.48,1.48,0,0,0,206.64,0Zm-3.264-10.752a.533.533,0,0,1,.576.528c.1,1.344.144,2.592.144,4.032,0,1.152-.048,2.4-.048,3.936h-10.56c-.048-1.2-.048-2.352-.048-3.5,0-.864,0-1.68.048-2.592.1-2.112.192-1.632,1.056-2.256l.192-.144Zm7.632-6.96c.816,0,1.056-.24,1.056-.528,0-.816-2.16-2.4-3.6-2.976-.1,0-.192-.048-.288-.048-.432,0-1.3,1.008-1.92,1.968a.986.986,0,0,1-.672.384h-5.472c1.824-2.352,3.792-5.472,4.752-6.864.336-.528.336-.72,1.056-.816.96-.1,1.344-.384,1.344-.672,0-.576-3.6-2.112-3.744-2.112a.844.844,0,0,0-.288-.048c-.144,0-.1.1-.144.48-.384,3.264-3.264,8.592-4.08,10.032h-2.3a88.753,88.753,0,0,1-10.32-.672c0,.528,1.344,2.256,2.16,2.256h.048a67.523,67.523,0,0,1,7.968-.384Zm-1.824-12.864c.768,0,.96-.336.96-.672,0-.912-1.728-2.064-3.312-2.736-.1,0-.192-.048-.336-.048-.336,0-1.2.768-1.824,1.872a.9.9,0,0,1-.624.384h-3.936c0-3.408.144-3.552,1.3-4.224.528-.336.864-.624.864-.96,0-1.152-4.8-1.584-4.9-1.584s-.1.048-.1.1a.845.845,0,0,0,.048.288,25.669,25.669,0,0,1,.432,5.616v.768a79.5,79.5,0,0,1-9.792-.672c0,.528,1.1,2.256,1.968,2.256h.048a61.73,61.73,0,0,1,7.632-.384Zm-13.056,9.12a1.636,1.636,0,0,0,1.44-1.776c0-2.928-5.376-4.848-6.432-4.848-.048,0-.1,0-.1.048s.192.192.48.48a13.633,13.633,0,0,1,3.168,4.656C195.024-21.936,195.6-21.552,196.128-21.552Zm76.944-.624c.048,5.616.144,11.76.144,15.648,0,4.9,0,6-2.88,6a42.022,42.022,0,0,1-5.376-.624,3.921,3.921,0,0,0-.672-.048c-.144,0-.24,0-.24.048,0,.384,4.656,2.112,5.424,3.168.24.336.192.624.72.624,1.968-.1,5.376-1.776,5.424-5.28,0-.48-.144-3.936-.144-4.32-.1-3.168-.336-14.4-.336-21.312,0-4.992,0-4.992,1.1-5.808.24-.192.864-.48.864-.912,0-1.056-3.456-2.352-3.6-2.352-.336,0-.912.576-1.1.816a.7.7,0,0,1-.624.336h-7.3l-.24-.192a15.632,15.632,0,0,0-3.888-1.632c-.1,0-.1,0-.1.144a1.351,1.351,0,0,0,.048.384,48.811,48.811,0,0,1,.576,8.448c0,1.968-.048,4.848-.336,8.064v.192a1.012,1.012,0,0,0,1.056,1.152,1.393,1.393,0,0,0,1.44-1.344v-.1c0-.384-.048-.72-.048-1.1ZM242.88,1.632c-.144-3.12-.192-10.128-.192-17.28v-6.528h9.456c0,.576-.048,1.056-.048,1.44v.1a.927.927,0,0,0,.912,1.056,1.589,1.589,0,0,0,1.584-1.536v-.1c-.24-6-.288-10.656-.288-11.136,0-.768.048-1.056.96-1.728.24-.192.864-.48.864-.912,0-.912-3.024-2.352-3.36-2.352-.432,0-.72.336-1.1.816a.7.7,0,0,1-.624.336h-6.672l-.288-.24a15.2,15.2,0,0,0-3.984-1.824.127.127,0,0,0-.144.144,1.653,1.653,0,0,0,.048.432,39.958,39.958,0,0,1,.48,5.856c0,1.776.048,3.7.048,5.616,0,9.744-.24,20.736-.624,28.08v.144c0,1.008.528,1.392,1.152,1.392A1.854,1.854,0,0,0,242.88,1.68Zm30.192-25.056H262.944v-5.328h10.032Zm-20.88-5.328c0,1.824,0,3.744-.048,5.328h-9.456c0-1.92,0-3.7.048-5.328ZM272.4-34.9a.392.392,0,0,1,.384.384c.048.48.1,2.16.144,4.512h-9.984c0-1.488.048-2.592.048-2.88.048-1.488,0-1.488.72-1.872L264-34.9Zm-20.784,0a.436.436,0,0,1,.432.48c.1,1.008.144,2.64.144,4.416h-9.408c0-4.176.144-4.416.816-4.8l.192-.1Z" transform="translate(128 3537.5)" fill="#485757"/>
    <path id="パス_1001" data-name="パス 1001" d="M12.576-.8A2.331,2.331,0,0,0,14.72-3.376a4.638,4.638,0,0,0-1.68-3.232c-.3-.336-.464-.544-.464-.816a11.567,11.567,0,0,1,1.456-3.008c.192-.3.272-.32.4-.368.24-.1.416-.24.416-.4,0-.224-.9-.784-1.168-.784a.205.205,0,0,0-.16.064c-.048.032-.112.112-.224.208a.384.384,0,0,1-.24.1H11.072l-.064-.048a10.386,10.386,0,0,0-1.424-.64c-.016,0-.032.016-.032.048a.282.282,0,0,0,.016.1,19.428,19.428,0,0,1,.224,2.48c.016,1.152.032,2.432.032,3.712,0,2.4-.048,4.848-.144,6.7V.784c0,.3.16.432.352.432a.6.6,0,0,0,.576-.56c0-.944-.016-1.84-.016-2.72,0-2.64.032-5.12.032-8.128,0-.784,0-.784.224-.944l.064-.048H13.04c.1,0,.16.032.16.112,0,.048-.192.736-.848,2.848a2.742,2.742,0,0,0-.144.752,2.013,2.013,0,0,0,.48,1.136,4.509,4.509,0,0,1,1.136,2.608c0,1.728-.912,1.92-1.44,1.92a3.622,3.622,0,0,1-1.12-.208,1.3,1.3,0,0,0-.144-.032c-.032,0-.048,0-.048.016,0,.144,1.072.9,1.248,1.136a.2.2,0,0,0,.208.1ZM7.44-.032c-.064-.944-.128-1.712-.128-2.32,0-.784.08-.848.3-.976C7.728-3.392,8-3.5,8-3.7c0-.32-.928-.864-1.152-.864-.144,0-.208.08-.432.384a.276.276,0,0,1-.224.128H3.5L3.424-4.1a5.492,5.492,0,0,0-1.216-.528c-.032,0-.032.016-.032.048a.36.36,0,0,0,.016.112,16.028,16.028,0,0,1,.16,2.512c0,.576-.016,1.184-.112,2.368V.464a.306.306,0,0,0,.336.32A.48.48,0,0,0,3.088.352c0-.256-.016-.5-.016-.72H6.56V.08a.344.344,0,0,0,.368.368A.493.493,0,0,0,7.44,0ZM6.352-3.616a.178.178,0,0,1,.192.176c.032.448.048.864.048,1.344,0,.384-.016.8-.016,1.312H3.056c-.016-.4-.016-.784-.016-1.168,0-.288,0-.56.016-.864.032-.7.064-.544.352-.752l.064-.048ZM8.9-5.936c.272,0,.352-.08.352-.176,0-.272-.72-.8-1.2-.992-.032,0-.064-.016-.1-.016-.144,0-.432.336-.64.656a.329.329,0,0,1-.224.128H5.264C5.872-7.12,6.528-8.16,6.848-8.624c.112-.176.112-.24.352-.272.32-.032.448-.128.448-.224,0-.192-1.2-.7-1.248-.7a.282.282,0,0,0-.1-.016c-.048,0-.032.032-.048.16A11.921,11.921,0,0,1,4.9-6.336H4.128A29.584,29.584,0,0,1,.688-6.56c0,.176.448.752.72.752h.016A22.508,22.508,0,0,1,4.08-5.936Zm-.608-4.288c.256,0,.32-.112.32-.224,0-.3-.576-.688-1.1-.912-.032,0-.064-.016-.112-.016-.112,0-.4.256-.608.624a.3.3,0,0,1-.208.128H5.264c0-1.136.048-1.184.432-1.408.176-.112.288-.208.288-.32,0-.384-1.6-.528-1.632-.528s-.032.016-.032.032a.282.282,0,0,0,.016.1A8.556,8.556,0,0,1,4.48-10.88v.256a26.5,26.5,0,0,1-3.264-.224c0,.176.368.752.656.752h.016a20.577,20.577,0,0,1,2.544-.128ZM3.936-7.184a.545.545,0,0,0,.48-.592c0-.976-1.792-1.616-2.144-1.616-.016,0-.032,0-.032.016s.064.064.16.16A4.544,4.544,0,0,1,3.456-7.664C3.568-7.312,3.76-7.184,3.936-7.184Zm25.648-.208c.016,1.872.048,3.92.048,5.216,0,1.632,0,2-.96,2A14.007,14.007,0,0,1,26.88-.384,1.307,1.307,0,0,0,26.656-.4c-.048,0-.08,0-.08.016,0,.128,1.552.7,1.808,1.056.08.112.064.208.24.208A1.908,1.908,0,0,0,30.432-.88c0-.16-.048-1.312-.048-1.44-.032-1.056-.112-4.8-.112-7.1,0-1.664,0-1.664.368-1.936.08-.064.288-.16.288-.3,0-.352-1.152-.784-1.2-.784-.112,0-.3.192-.368.272a.232.232,0,0,1-.208.112H26.72l-.08-.064a5.211,5.211,0,0,0-1.3-.544c-.032,0-.032,0-.032.048a.45.45,0,0,0,.016.128A16.271,16.271,0,0,1,25.52-9.68c0,.656-.016,1.616-.112,2.688v.064a.337.337,0,0,0,.352.384.464.464,0,0,0,.48-.448v-.032c0-.128-.016-.24-.016-.368ZM19.52.544c-.048-1.04-.064-3.376-.064-5.76V-7.392h3.152c0,.192-.016.352-.016.48v.032a.309.309,0,0,0,.3.352.53.53,0,0,0,.528-.512v-.032c-.08-2-.1-3.552-.1-3.712,0-.256.016-.352.32-.576.08-.064.288-.16.288-.3,0-.3-1.008-.784-1.12-.784-.144,0-.24.112-.368.272a.232.232,0,0,1-.208.112H20.016l-.1-.08a5.067,5.067,0,0,0-1.328-.608.042.042,0,0,0-.048.048.551.551,0,0,0,.016.144,13.319,13.319,0,0,1,.16,1.952c0,.592.016,1.232.016,1.872,0,3.248-.08,6.912-.208,9.36V.672c0,.336.176.464.384.464A.618.618,0,0,0,19.52.56ZM29.584-7.808H26.208V-9.584h3.344Zm-6.96-1.776c0,.608,0,1.248-.016,1.776H19.456c0-.64,0-1.232.016-1.776Zm6.736-2.048a.131.131,0,0,1,.128.128c.016.16.032.72.048,1.5H26.208c0-.5.016-.864.016-.96.016-.5,0-.5.24-.624l.1-.048Zm-6.928,0a.145.145,0,0,1,.144.16c.032.336.048.88.048,1.472H19.488c0-1.392.048-1.472.272-1.6l.064-.032ZM46.048-5.264a.12.12,0,0,0-.08.016c-.08.032-.224.256-.3.368a.3.3,0,0,1-.224.144H42.384a5.117,5.117,0,0,0-1.36-.64c-.016,0-.016.016-.016.032a.312.312,0,0,0,.016.112,17.762,17.762,0,0,1,.208,2.176v.576c0,.608,0,1.376-.112,3.04V.608a.332.332,0,0,0,.352.368.5.5,0,0,0,.512-.464c0-.272-.016-.512-.016-.72h3.84V.384a.353.353,0,0,0,.368.4A.47.47,0,0,0,46.688.3V.272c-.08-1.216-.128-2.1-.128-2.848,0-1.184.048-1.248.3-1.392.112-.064.384-.176.384-.384C47.248-4.752,46.16-5.264,46.048-5.264Zm.656-7.024c-.064,0-.176.064-.336.288a.265.265,0,0,1-.256.16H43.648c-.736,0-2.5-.064-3.7-.208,0,.192.464.752.72.752h.016c.352-.032,1.472-.08,2.272-.112a4.927,4.927,0,0,1-.064.768A5.7,5.7,0,0,1,39.76-6.3,3.661,3.661,0,0,0,38.08-7.7c-.032,0-.048,0-.048.016a.5.5,0,0,0,.1.192,7.5,7.5,0,0,1,.576.976c-.784.1-1.872.192-2.784.24a36.853,36.853,0,0,0,2.9-3.7.506.506,0,0,1,.368-.24c.3-.032.432-.128.432-.24,0-.272-1.248-.768-1.264-.768-.032,0-.048.032-.064.16-.176,1.184-1.888,3.7-2.7,4.8h-.336c-.32,0-.768-.016-1.136-.048-.048,0-.08-.016-.112-.016s-.032.016-.032.032a2.392,2.392,0,0,0,.5.96c.064.08.112.112.176.112.112,0,.224-.16.4-.192.32-.064,1.008-.192,1.744-.352.016.24.016.56.016.9,0,2.048-.048,3.856-.16,5.52V.72c0,.288.144.416.32.416a.561.561,0,0,0,.528-.56c-.016-1.488-.064-3.552-.064-4.8,0-1.264.016-1.28.24-1.392.128-.064.176-.144.176-.208,0-.048-.032-.1-.112-.144l1.1-.272a3.937,3.937,0,0,1,.112.464c.064.416.272.592.48.592a.563.563,0,0,0,.48-.608.906.906,0,0,0-.048-.288,5.746,5.746,0,0,0,3.824-4.48c.064-.256.032-.32.24-.4.256-.1.368-.192.368-.272,0-.064-.064-.112-.16-.144l-.144-.048h2.24c.112,0,.144.032.144.064,0,.048-.016.1-.016.144A6.3,6.3,0,0,1,45.7-7.728a1.372,1.372,0,0,1-1.184.672,4.891,4.891,0,0,1-1.424-.352.384.384,0,0,0-.16-.032c-.032,0-.032,0-.032.016,0,.128,1.088.864,1.2,1.1.032.08.128.08.192.08s.128.016.192.016A2.233,2.233,0,0,0,46.416-7.44a6.313,6.313,0,0,0,.656-3.1c.032-.56.016-.512.416-.672.224-.08.32-.176.32-.288C47.808-11.888,46.72-12.288,46.7-12.288ZM45.824-.624H41.952c-.016-.56-.016-.992-.016-1.5,0-.384,0-.816.016-1.392.016-.592.048-.512.336-.72l.08-.064H45.6a.178.178,0,0,1,.192.176c.032.5.048,1.056.048,1.744C45.84-1.872,45.84-1.312,45.824-.624ZM36.544-13.28c-.048,0-.048.016-.048.08v.176a13.875,13.875,0,0,1-1.024,3.168,3.483,3.483,0,0,0-1.152-.288c-.048,0-.08.016-.08.032,0,.032.048.08.144.16a4.256,4.256,0,0,1,1.28,1.328c.16.288.352.416.512.416a.478.478,0,0,0,.416-.528c0-.336-.208-.688-.88-1.008a21.215,21.215,0,0,0,1.44-2.24c.1-.176.144-.224.336-.256.3-.048.432-.16.432-.272C37.92-12.8,36.544-13.28,36.544-13.28Zm-1.7,8.848s-.032,0-.032.16A13.006,13.006,0,0,1,33.68.192.482.482,0,0,0,33.616.4c0,.032.016.064.048.064C33.84.464,34.8-.864,35.6-3.088c.08-.224.08-.32.336-.368.272-.064.4-.16.4-.272C36.336-4.048,35.008-4.432,34.848-4.432Zm3.216.208c-.016,0-.032,0-.032.016a.5.5,0,0,0,.1.192A7.755,7.755,0,0,1,39.072-1.9c.1.368.288.528.48.528.208,0,.416-.24.416-.576C39.968-2.96,38.288-4.224,38.064-4.224ZM55.84-5.1c0-.368-.016-.736-.016-1.088,0-.624,0-.608.4-.768.208-.08.256-.176.256-.24a.207.207,0,0,0-.1-.176,4.379,4.379,0,0,0-1.344-.336h-.1c-.048,0-.064,0-.064.048a.174.174,0,0,0,.016.08A13.1,13.1,0,0,1,55.024-5.2c0,2.256-.72,5.152-4.016,6.128-.352.112-.5.192-.5.24,0,.032.064.048.16.048,0,0,5.168-.3,5.168-6.272ZM59.584.368c-.1-2.464-.144-3.616-.144-5.072,0-.5,0-1.024.016-1.664.016-.576.032-.448.448-.7.128-.08.208-.16.208-.24,0-.32-1.52-.448-1.552-.448s-.048,0-.048.032a.281.281,0,0,0,.016.1,12.841,12.841,0,0,1,.144,2.256v1.152c0,1.664-.032,2.864-.064,4.656V.448a.369.369,0,0,0,.4.4c.272,0,.576-.192.576-.464ZM57.36-11.808c2.352,3.472,5.712,5.472,6.128,5.472a.255.255,0,0,0,.128-.048c.56-.368,1.616-.512,1.616-.624,0-.032-.064-.048-.208-.08-2.816-.528-6.256-3.392-7.456-4.96a1.142,1.142,0,0,1,.256-.064c.368-.064.5-.192.5-.3,0-.288-1.472-.88-1.488-.88-.032,0-.048.016-.064.08a4.7,4.7,0,0,1-.3,1.056A17.754,17.754,0,0,1,50.032-5.6c-.16.08-.224.144-.224.176,0,.016.016.032.08.032.784,0,4.448-1.856,7.456-6.4Z" transform="translate(133 3485.5)" fill="#485757"/>
  </g>
</svg>
