<svg xmlns="http://www.w3.org/2000/svg" width="236.152" height="78" viewBox="0 0 236.152 78">
  <g id="グループ_1762" data-name="グループ 1762" transform="translate(-133.688 -3434.4)">
    <path id="パス_1002" data-name="パス 1002" d="M11.96-27.24a20.3,20.3,0,0,1,.2-3.72H6.8a21.127,21.127,0,0,1,.16,3.68L7-8.72a30.14,30.14,0,0,0,.12,3.68A5.53,5.53,0,0,0,9.08-.96C10.64.24,13.4.76,18.44.76c2.44,0,7.48-.24,9.84-.48,4.24-.4,4.44-.44,5.28-.44l-.24-5.32a23.633,23.633,0,0,1-4.56.96,75.435,75.435,0,0,1-9.28.64c-3.88,0-6.16-.32-6.84-1.04-.56-.56-.72-1.48-.72-3.8a2.655,2.655,0,0,1,.04-.52v-5.28a67.725,67.725,0,0,0,17.08-5.52c2.12-1.04,3.32-1.6,3.6-1.72l-3.2-4.52c-2.6,2.44-11.44,6-17.48,7.12Zm16.16-4.32a25.583,25.583,0,0,1,3.96,6.12l2.88-1.32a25.432,25.432,0,0,0-4-6.08ZM39.8-29.2A23.533,23.533,0,0,0,35.88-35l-2.76,1.28a29.768,29.768,0,0,1,3.84,5.96Zm8.32,1.84A48.426,48.426,0,0,1,58.8-21.88l2.56-4.4a65.87,65.87,0,0,0-10.64-5.16Zm-3.16,9.72A46.428,46.428,0,0,1,55.8-11.8l2.48-4.52a63.133,63.133,0,0,0-10.64-5.44Zm23.76-13.2a27,27,0,0,1,4.2,5.96l2.8-1.48a25.923,25.923,0,0,0-4.2-5.88ZM47.24,1.64a23.618,23.618,0,0,1,2.8-.68C64.36-1.84,72.8-8.4,77.76-20.52a19.448,19.448,0,0,1-4.16-3.56C70.72-15.56,64.72-9,57.4-6.44a35.535,35.535,0,0,1-11.56,2.6Zm33.24-30.6a23.132,23.132,0,0,0-4.16-5.64l-2.68,1.4a29.471,29.471,0,0,1,4.08,5.8Zm24.2,31.52a17.929,17.929,0,0,1-.2-3.56V-9.8c0-.36-.04-1.48-.08-1.96.4.2.48.2,1,.44a71.354,71.354,0,0,1,12.2,6.4l2.64-4.2a65.274,65.274,0,0,0-13.96-6.28,51.6,51.6,0,0,0,8.16-7.48,9.385,9.385,0,0,1,1.76-1.72l-2.32-2.72a8.44,8.44,0,0,1-2.72.36H104.4v-3.32a12.924,12.924,0,0,1,.2-2.8H99.24a16.514,16.514,0,0,1,.2,2.88v3.28H92.76a20.548,20.548,0,0,1-4.28-.36v4.84a29.508,29.508,0,0,1,4.24-.2c14.4-.08,14.4-.08,14.64-.12h.84a42.9,42.9,0,0,1-12.4,8.48,49.8,49.8,0,0,1-11.12,3.72A16.533,16.533,0,0,1,87.04-6.2a63.339,63.339,0,0,0,11.28-4.48,6.869,6.869,0,0,0,1.2-.76V-1a24.119,24.119,0,0,1-.24,3.56Zm56.24-5.4c-4.84-4.68-4.84-4.68-5.84-5.56a62,62,0,0,0-7.4-5.8,52.975,52.975,0,0,0,6.24-11.04,7.693,7.693,0,0,1,1.28-2.16l-2.64-2.72a8.665,8.665,0,0,1-3.56.44l-14.08.2h-.96a17.5,17.5,0,0,1-3.52-.24l.16,5.12a31.523,31.523,0,0,1,4.36-.32c12.6-.2,12.6-.2,13.24-.24l-.44,1.04A38.555,38.555,0,0,1,134.32-7.84a33.024,33.024,0,0,1-8,4.4A16.046,16.046,0,0,1,129.56,1,47.535,47.535,0,0,0,144.8-10.56,76.894,76.894,0,0,1,157.08,1.32Zm18.64-26.88v-1.12a17.94,17.94,0,0,1,.2-2.8H175a14.039,14.039,0,0,1,.24,2.8v1.12h-4.08a21.624,21.624,0,0,1-3.8-.2v4.32a18.05,18.05,0,0,1,3.28-.2h12.8a17.188,17.188,0,0,1,3.36.2v-4.32a20.934,20.934,0,0,1-3.64.2Zm2.96,10.8a35.22,35.22,0,0,0,2.12-5.48l-4.12-1.04a32.616,32.616,0,0,1-2.08,6.52h-7.88a25.536,25.536,0,0,1-4.04-.2v4.4a26.219,26.219,0,0,1,4-.2h13.4a18.654,18.654,0,0,1,3.24.2v-4.4a17.63,17.63,0,0,1-3.44.2Zm-12.56-5.64a24.172,24.172,0,0,1,1.88,5.6l3.96-1.2a27.135,27.135,0,0,0-2.08-5.6ZM173.08.84h7.8V3.12h4.4a20.088,20.088,0,0,1-.16-3V-9.6a22.769,22.769,0,0,1,.12-2.96,21.6,21.6,0,0,1-2.92.12H172c-1.48,0-2.28-.04-3.2-.12.08.92.12,1.64.12,3.28V-.6a32.482,32.482,0,0,1-.16,3.76h4.32Zm0-9.44h7.84V-3h-7.84ZM201.6-32.68a15.386,15.386,0,0,1-3.16.2h-6.92a27.272,27.272,0,0,1-3.28-.16,30.515,30.515,0,0,1,.16,3.36V-1.16a37.844,37.844,0,0,1-.24,4.56h4.72a27.6,27.6,0,0,1-.28-4.68V-28.52h5.56a44.127,44.127,0,0,1-4.4,10.48,16.317,16.317,0,0,1,4.16,5.2,11.832,11.832,0,0,1,1.28,5.16c0,1.28-.64,1.72-2.64,1.72a17.878,17.878,0,0,1-3-.24,9.42,9.42,0,0,1,.92,4.36,19.221,19.221,0,0,0,2,.08,10.691,10.691,0,0,0,4.08-.52c1.8-.64,2.84-2.48,2.84-5a14.993,14.993,0,0,0-1.12-5.56,17.929,17.929,0,0,0-3.84-5.8,82.835,82.835,0,0,0,4.32-9.52,13.139,13.139,0,0,1,.8-1.76Zm12.08,15.12h7.16c1.4,0,2.72.04,3.68.08a35.6,35.6,0,0,1-.12-3.56v-7.84c0-1.56.04-2.6.12-3.72a33.8,33.8,0,0,1-4.08.16h-7.08a35.54,35.54,0,0,1-4.08-.16,44.723,44.723,0,0,1,.16,4.52v26.2a38.646,38.646,0,0,1-.24,4.96h4.72a35.085,35.085,0,0,1-.24-4.92Zm0-11.4h6.8v2.56h-6.8Zm0,5.68h6.8v2.52h-6.8Zm28.96-4.84a35.607,35.607,0,0,1,.2-4.48,37.13,37.13,0,0,1-4.16.16h-7.44a34.659,34.659,0,0,1-4.08-.16c.08,1.24.12,2.36.12,3.72v7.84c0,1.72-.04,2.72-.12,3.64.84-.08,2.24-.12,3.68-.12h7.52V-2.4c0,.84-.28,1-1.52,1a43.173,43.173,0,0,1-5.4-.36,14.766,14.766,0,0,1,1.08,4.36c1.64.04,2.56.08,3.28.08,5.76,0,6.84-.72,6.84-4.56Zm-11.36-.84h7.08v2.56h-7.08Zm0,5.68h7.08v2.52h-7.08Z" transform="translate(127 3509)" fill="#efefef"/>
    <path id="パス_1003" data-name="パス 1003" d="M5.9-11.888v-.448a7.176,7.176,0,0,1,.08-1.12H4.08a5.616,5.616,0,0,1,.1,1.12v.448H2.544a8.65,8.65,0,0,1-1.52-.08v1.728a7.22,7.22,0,0,1,1.312-.08h5.12a6.875,6.875,0,0,1,1.344.08v-1.728a8.374,8.374,0,0,1-1.456.08Zm1.184,4.32A14.088,14.088,0,0,0,7.936-9.76l-1.648-.416a13.046,13.046,0,0,1-.832,2.608H2.3a10.214,10.214,0,0,1-1.616-.08v1.76a10.487,10.487,0,0,1,1.6-.08h5.36a7.462,7.462,0,0,1,1.3.08v-1.76a7.052,7.052,0,0,1-1.376.08ZM2.064-9.824a9.669,9.669,0,0,1,.752,2.24L4.4-8.064a10.854,10.854,0,0,0-.832-2.24ZM3.312.336h3.12v.912h1.76a8.035,8.035,0,0,1-.064-1.2V-3.84a9.108,9.108,0,0,1,.048-1.184,8.64,8.64,0,0,1-1.168.048H2.88c-.592,0-.912-.016-1.28-.048.032.368.048.656.048,1.312V-.24a12.992,12.992,0,0,1-.064,1.5H3.312Zm0-3.776H6.448V-1.2H3.312ZM14.72-13.072a6.154,6.154,0,0,1-1.264.08H10.688a10.909,10.909,0,0,1-1.312-.064,12.206,12.206,0,0,1,.064,1.344V-.464a15.138,15.138,0,0,1-.1,1.824h1.888A11.039,11.039,0,0,1,11.12-.512v-10.9h2.224a17.651,17.651,0,0,1-1.76,4.192,6.527,6.527,0,0,1,1.664,2.08,4.733,4.733,0,0,1,.512,2.064c0,.512-.256.688-1.056.688a7.151,7.151,0,0,1-1.2-.1,3.768,3.768,0,0,1,.368,1.744,7.688,7.688,0,0,0,.8.032A4.276,4.276,0,0,0,14.3-.912a1.942,1.942,0,0,0,1.136-2,6,6,0,0,0-.448-2.224,7.172,7.172,0,0,0-1.536-2.32,33.133,33.133,0,0,0,1.728-3.808,5.256,5.256,0,0,1,.32-.7Zm4.832,6.048h2.864c.56,0,1.088.016,1.472.032a14.239,14.239,0,0,1-.048-1.424v-3.136c0-.624.016-1.04.048-1.488a13.519,13.519,0,0,1-1.632.064H19.424a14.216,14.216,0,0,1-1.632-.064,17.889,17.889,0,0,1,.064,1.808V-.752a15.459,15.459,0,0,1-.1,1.984h1.888a14.035,14.035,0,0,1-.1-1.968Zm0-4.56h2.72v1.024h-2.72Zm0,2.272h2.72V-8.3h-2.72Zm11.584-1.936a14.243,14.243,0,0,1,.08-1.792,14.852,14.852,0,0,1-1.664.064H26.576a13.863,13.863,0,0,1-1.632-.064c.032.5.048.944.048,1.488v3.136c0,.688-.016,1.088-.048,1.456.336-.032.9-.048,1.472-.048h3.008V-.96c0,.336-.112.4-.608.4A17.269,17.269,0,0,1,26.656-.7a5.906,5.906,0,0,1,.432,1.744c.656.016,1.024.032,1.312.032,2.3,0,2.736-.288,2.736-1.824Zm-4.544-.336h2.832v1.024H26.592Zm0,2.272h2.832V-8.3H26.592Zm7.3,4.256a6.176,6.176,0,0,1,1.12-.112c.5-.032.736-.048,1.184-.08V-.336a9.757,9.757,0,0,1-.1,1.7H37.92a9.343,9.343,0,0,1-.1-1.68V-5.392c.576-.048.576-.048,1.088-.112.08.256.112.384.208.768l1.2-.576A18.319,18.319,0,0,0,39.056-8.56l-1.072.512a13.07,13.07,0,0,1,.5,1.216c-.56.048-.624.064-1.76.112.5-.608,1.232-1.616,1.568-2.128.848-1.328,1.28-2.016,1.312-2.048l-1.472-.848a14.651,14.651,0,0,1-1.5,2.8c-.24-.32-.368-.464-.624-.8a22.894,22.894,0,0,0,1.36-2.336,3.941,3.941,0,0,1,.48-.848l-1.6-.672a10.276,10.276,0,0,1-1.232,2.72q-.312-.336-.576-.624L33.6-10.112a19.187,19.187,0,0,1,2.112,2.5,11.528,11.528,0,0,1-.7.96H34.72A7.379,7.379,0,0,1,33.7-6.7Zm8.512-6.32c-.112,1.952-.832,2.928-2.752,3.792a3.657,3.657,0,0,1,1.136,1.408,5.682,5.682,0,0,0,3.328-5.2h2.24a12.333,12.333,0,0,1-.32,2.9c-.08.288-.24.384-.688.384a8.882,8.882,0,0,1-1.632-.176,3.566,3.566,0,0,1,.416,1.712c.848.032.912.032,1.072.032,1.68,0,2.208-.256,2.448-1.216a21.112,21.112,0,0,0,.4-3.952,12.645,12.645,0,0,1,.08-1.28c-.32.032-.864.048-1.5.048h-5.04a14.952,14.952,0,0,1-1.792-.1v1.744a12.137,12.137,0,0,1,1.7-.1ZM34.256-4.528A13.481,13.481,0,0,1,33.5.048L35.04.576A20.649,20.649,0,0,0,35.7-4.272Zm3.9.288a18.511,18.511,0,0,1,.416,4l1.392-.336a22.63,22.63,0,0,0-.512-3.952ZM42.176.48h3.872v.864h1.76a12,12,0,0,1-.08-1.664V-4.176a12.77,12.77,0,0,1,.064-1.52,9.127,9.127,0,0,1-1.344.064h-4.72a9.079,9.079,0,0,1-1.3-.064,13.35,13.35,0,0,1,.064,1.5V-.368a12.46,12.46,0,0,1-.08,1.648h1.76ZM42.16-4.064h3.888v2.976H42.16Zm14.144-9.2a11.863,11.863,0,0,1-2.56,3.008A13.571,13.571,0,0,1,49.9-7.872,6.589,6.589,0,0,1,50.848-6.1a18.329,18.329,0,0,0,3.936-2.672,14.9,14.9,0,0,0,2.624-2.944,12.141,12.141,0,0,0,2.72,2.992A20.168,20.168,0,0,0,64.16-6.1a10.646,10.646,0,0,1,.912-1.872,15.488,15.488,0,0,1-5.264-3.472,8.705,8.705,0,0,1-1.424-1.824Zm-2.5,5.456A6.121,6.121,0,0,1,53.92-6.64c0,2.864-.4,4.112-1.7,5.248a6.772,6.772,0,0,1-1.984,1.2,6.7,6.7,0,0,1,1.312,1.616A7.456,7.456,0,0,0,54.816-1.6a9.791,9.791,0,0,0,.976-4.88,9.3,9.3,0,0,1,.064-1.328Zm5.088,0a11.627,11.627,0,0,1,.112,1.76V-.7A13.778,13.778,0,0,1,58.9,1.184h2.048a14.343,14.343,0,0,1-.112-1.9V-6.032a10.911,10.911,0,0,1,.1-1.776Z" transform="translate(133 3448)" fill="#efefef"/>
  </g>
</svg>
