<svg xmlns="http://www.w3.org/2000/svg" width="225.707" height="13.221" viewBox="0 0 225.707 13.221">
  <g id="グループ_564" data-name="グループ 564" transform="translate(-329.653 -4552.14)">
    <path id="パス_823" data-name="パス 823" d="M-75.075-4.3c0-.273.026-.416.026-.494s-.013-.1-.1-.1c-.065,0-.52.026-1.794.026H-83.72c-1.274,0-1.729-.026-1.807-.026s-.1.013-.1.1.026.221.026.546v.312c0,.936-.026,1.053-.026,1.131s.013.1.1.1h.572c.091,0,.1-.013.1-.1V-4.225h3.523a8.164,8.164,0,0,1-3.705,2.5,1.484,1.484,0,0,1,.377.377c.078.117.117.156.182.156a.7.7,0,0,0,.208-.065,10.61,10.61,0,0,0,2.314-1.4h3.6a8.148,8.148,0,0,1-1.937,1.612,11.193,11.193,0,0,0-1.677-1c-.078-.039-.1-.026-.195.052l-.247.221c-.13.1-.13.143-.026.195a9.176,9.176,0,0,1,1.443.91A13.469,13.469,0,0,1-84.877.351a1.51,1.51,0,0,1,.325.455c.1.221.13.221.364.182,3.406-.624,4.888-1.56,6.552-3.341a1.063,1.063,0,0,1,.351-.273c.091-.039.13-.091.13-.156s-.039-.117-.234-.312-.286-.26-.39-.26a.339.339,0,0,0-.143.039.762.762,0,0,1-.26.026h-3.081a9.591,9.591,0,0,0,.819-.936h4.6V-2.8c0,.091.013.1.1.1h.585c.091,0,.1-.013.1-.1,0-.065-.026-.195-.026-1.144Zm-1.053-2.808c0-.559.026-.728.026-.793,0-.091-.013-.1-.1-.1-.065,0-.533.026-1.846.026h-4.589c-1.313,0-1.781-.026-1.846-.026-.091,0-.1.013-.1.1,0,.065.026.234.026.793v.663c0,.572-.026.728-.026.806s.013.091.1.091c.065,0,.533-.026,1.846-.026h4.589c1.313,0,1.781.026,1.846.026.091,0,.1-.013.1-.091s-.026-.234-.026-.806Zm-.754.962h-1.9V-7.41h1.9Zm-2.626,0h-1.82V-7.41h1.82Zm-2.548,0h-1.755V-7.41h1.755Zm7.384-3.536c0-.091-.013-.1-.1-.1s-.481.026-1.7.026h-1.742a1.874,1.874,0,0,1,.065-.65A.435.435,0,0,0-78.1-10.6c0-.078-.052-.1-.13-.117-.208-.026-.507-.052-.793-.065a6.065,6.065,0,0,1,.078,1.014h-2.834a1.569,1.569,0,0,1,.078-.663.441.441,0,0,0,.065-.182c0-.065-.065-.1-.156-.117-.208-.026-.507-.052-.793-.065a5,5,0,0,1,.078,1.027h-1.677c-1.222,0-1.638-.026-1.7-.026-.091,0-.1.013-.1.1v.494c0,.091.013.1.1.1.065,0,.481-.026,1.7-.026h1.677c0,.4-.013.611-.013.676,0,.091.013.1.091.1h.572c.091,0,.1-.013.1-.1,0-.065-.026-.26-.026-.676h2.834c-.013.429-.026.624-.026.676,0,.091.013.1.1.1h.559c.1,0,.117-.013.117-.1,0-.052-.026-.247-.026-.676h1.742c1.222,0,1.625.026,1.7.026s.1-.013.1-.1Zm8.866,5.616c.949-.4,1.768-.7,2.756-1.118a3.8,3.8,0,0,1,.715-.208c.13-.026.234-.1.13-.3a3.123,3.123,0,0,0-.637-.754,3.558,3.558,0,0,1-.988.663c-.65.312-1.391.65-2.028.936A1.5,1.5,0,0,0-67.5-6.37a2.818,2.818,0,0,0-1.625.559l-.013-.026a10.9,10.9,0,0,0,1.326-1.937c1.04-.1,2.145-.247,3.172-.429.143-.026.169-.065.169-.156-.013-.208-.052-.39-.078-.572-.026-.078-.052-.078-.156-.052a24.546,24.546,0,0,1-2.743.429c.169-.39.286-.663.442-.988a1.207,1.207,0,0,1,.234-.364.161.161,0,0,0-.026-.286,4.2,4.2,0,0,0-.975-.286,1.947,1.947,0,0,1-.1.7,11.5,11.5,0,0,1-.468,1.3,26.02,26.02,0,0,1-3.016.013c.013.208.052.494.078.65.013.091.039.13.143.13.819.026,1.612.026,2.418-.026a14.275,14.275,0,0,1-3.016,3.614c-.078.078-.065.1-.026.182a4.22,4.22,0,0,0,.455.507c.065.065.117.065.195-.026.455-.481.767-.819,1.235-1.261a3.694,3.694,0,0,1,2.132-1.053c.767-.013,1.066.338,1.092,1.222-2.158,1.053-2.873,1.937-2.873,3.029,0,1.391,1.183,1.859,3,1.859A25.688,25.688,0,0,0-63.31.182c.052-.013.1-.065.1-.182a3.7,3.7,0,0,0-.078-.637.108.108,0,0,0-.143-.091,22.891,22.891,0,0,1-3.094.26c-1.508,0-2.223-.312-2.223-1.079s.7-1.443,2.132-2.158c-.013.663-.013,1.3-.013,1.872,0,.091.039.156.117.156a3.558,3.558,0,0,0,.559-.052c.117-.013.143-.052.143-.156Zm10.387-3.393c0-1.43.026-1.846.026-1.911,0-.091-.013-.1-.1-.1-.065,0-.3.026-1.092.026h-1c-.78,0-1.014-.026-1.092-.026s-.1.013-.1.1c0,.065.026.507.026,2.3v1.781c0,2.587-.026,3-.026,3.081s.013.1.1.1h.572c.091,0,.1-.013.1-.1V-3.549h1.846v.793c0,.091.013.1.1.1h.559c.091,0,.1-.013.1-.1,0-.065-.026-.455-.026-2.886Zm-.741,3.2h-1.846V-8.736h1.846Zm8.489-1.95c0-.091-.013-.1-.1-.1-.065,0-.494.026-1.768.026h-1.469v-2.73a6.189,6.189,0,0,1,.078-1.339,1.323,1.323,0,0,0,.065-.234c0-.052-.065-.1-.156-.117-.221-.026-.546-.052-.884-.065A10.394,10.394,0,0,1-51.818-9v2.7H-53c-1.274,0-1.69-.026-1.768-.026s-.1.013-.1.1V-5.6c0,.091.013.1.1.1s.494-.026,1.768-.026h1.183v4.069c0,1.534-.026,2.21-.026,2.275,0,.091.013.1.1.1h.65c.091,0,.1-.013.1-.1,0-.065-.026-.741-.026-2.288V-5.525h1.469c1.274,0,1.7.026,1.768.026.091,0,.1-.013.1-.1Zm5.889-4.251a7.094,7.094,0,0,0-.26.7.125.125,0,0,0,.078.169,18.207,18.207,0,0,0,3.3,1.066.149.149,0,0,0,.169-.091,4.623,4.623,0,0,0,.195-.6c.026-.13.013-.169-.1-.195A21.071,21.071,0,0,1-41.782-10.465Zm-2.47,4a5.506,5.506,0,0,0,.338.9c.052.1.1.156.169.156a.491.491,0,0,0,.234-.065,3.353,3.353,0,0,1,.533-.182c1.1-.234,2.2-.455,3.588-.741-1.274,1.378-2.236,2.444-3.055,3.3-.585.6-1.521,1.56-2.483,2.535a.167.167,0,0,0-.026.234,5.938,5.938,0,0,0,.507.455.157.157,0,0,0,.208-.013c.585-.689,1.352-1.6,2.015-2.236a2.254,2.254,0,0,1,1.469-.754c.6,0,.819.494,1,1.417.26,1.3.832,1.716,2.7,1.716A11.108,11.108,0,0,0-35.191.091c.117-.013.169-.052.169-.143a4.346,4.346,0,0,0-.052-.637c-.013-.117-.052-.156-.156-.13a10.731,10.731,0,0,1-1.924.195c-1.4,0-1.651-.195-1.9-1.417-.182-.936-.7-1.443-1.378-1.443A1.751,1.751,0,0,0-41.2-3.3c.923-.975,1.807-1.924,2.743-2.873A1.951,1.951,0,0,1-38-6.513a.236.236,0,0,0,.143-.208.322.322,0,0,0-.091-.195,3.553,3.553,0,0,0-.481-.416c-.065-.039-.091-.065-.143-.065a.227.227,0,0,0-.156.052,1.366,1.366,0,0,1-.4.156c-.6.143-1.378.3-2.418.468A15.091,15.091,0,0,1-44.252-6.461ZM-28.47-4.914c1.3-1.326,2.171-2.236,3.328-3.458a1.409,1.409,0,0,1,.611-.455.269.269,0,0,0,.195-.247.351.351,0,0,0-.091-.221,3.2,3.2,0,0,0-.559-.546.39.39,0,0,0-.234-.1.4.4,0,0,0-.182.091,1.357,1.357,0,0,1-.4.117c-1.144.221-2.21.364-3.237.468a4.846,4.846,0,0,1-1.144-.013,4.113,4.113,0,0,0,.312.9.23.23,0,0,0,.208.156.773.773,0,0,0,.247-.065,2.11,2.11,0,0,1,.455-.117c1.157-.221,2.171-.416,3.25-.585-1,1.183-1.781,2.015-2.535,2.834a35.4,35.4,0,0,1-2.938,2.9c-.091.078-.1.13-.052.195a6,6,0,0,0,.481.52c.091.091.156.078.26-.026A12.5,12.5,0,0,1-29.354-3.64a5.989,5.989,0,0,1,3.575-1.469A2.106,2.106,0,0,1-23.53-2.977a2.4,2.4,0,0,1-1.9,2.366,2.2,2.2,0,0,0-2.21-1.859,1.418,1.418,0,0,0-1.521,1.326c0,.832.7,1.534,2.262,1.534,2.756,0,4.29-1.4,4.29-3.341A2.761,2.761,0,0,0-25.636-5.8a5.075,5.075,0,0,0-2.8.923Zm2.249,4.485a4.717,4.717,0,0,1-.845.065c-.871,0-1.339-.364-1.339-.793,0-.4.377-.611.793-.611A1.508,1.508,0,0,1-26.221-.429ZM-15.99-5.85c-.78,0-1.586-.013-2.5-.078.013.26.052.559.078.741s.065.221.208.221c.715-.052,1.482-.078,2.171-.078h2.4a6.085,6.085,0,0,1-.533,2.47A5.245,5.245,0,0,1-16.471-.117a2.067,2.067,0,0,1,.793.338.206.206,0,0,0,.3,0,5.936,5.936,0,0,0,2.093-2.509A7.621,7.621,0,0,0-12.7-5.044h1.729c.858,0,1.651.013,2.47.039.143,0,.156-.026.156-.182a4.2,4.2,0,0,0,0-.572c0-.13-.013-.169-.143-.156-.728.039-1.651.065-2.457.065h-1.729c0-.3.013-.507.013-.845,0-.182.013-.351.026-.52a1.07,1.07,0,0,1,.091-.364c.065-.13.039-.221-.117-.26a8.251,8.251,0,0,0-1.079-.169,3.777,3.777,0,0,1,.143,1c.013.325.013.819,0,1.157Zm5.213-4.134a2.464,2.464,0,0,1-.871.468,16.06,16.06,0,0,1-2.327.637,27.2,27.2,0,0,1-3.783.494,1.741,1.741,0,0,1,.455.559.215.215,0,0,0,.234.169,31.091,31.091,0,0,0,3.38-.481c.923-.169,1.794-.4,2.717-.663.221-.065.533-.169.741-.208s.3-.091.3-.182a.435.435,0,0,0-.156-.26A4.414,4.414,0,0,0-10.777-9.984Zm9.646,5.525.689,2.665c.182.7.325,1.365.507,2.119.039.156.1.156.221.13A2.891,2.891,0,0,0,.793.3C.91.26.936.208.9.078.689-.663.507-1.313.325-2.028L-.351-4.68l3.3-.871A7.589,7.589,0,0,1,1.326-3.2a1.806,1.806,0,0,1,.624.208c.13.065.2.052.312-.078A10.912,10.912,0,0,0,3.77-5.46.8.8,0,0,1,4-5.759a.21.21,0,0,0,.026-.325,3.131,3.131,0,0,0-.546-.4c-.117-.065-.208-.091-.3,0a1.683,1.683,0,0,1-.65.286l-3.081.806-.286-1.2A1.768,1.768,0,0,1-.9-7.41c.039-.117,0-.208-.169-.221a7.879,7.879,0,0,0-1.053.052,4.048,4.048,0,0,1,.481,1.222l.312,1.2-1.105.286a16.524,16.524,0,0,1-1.781.351,6.088,6.088,0,0,0,.3.741c.078.143.13.13.3.065.351-.13.884-.312,1.417-.455ZM9.074-8.19a13.5,13.5,0,0,1,2.47,1.924c.091.091.13.078.208-.013a5.245,5.245,0,0,0,.442-.559c.065-.1.052-.156-.039-.247a11.993,11.993,0,0,0-2.34-1.729.157.157,0,0,0-.234.026C9.438-8.632,9.243-8.4,9.074-8.19Zm.312,6.825a4.88,4.88,0,0,0,.637.884.213.213,0,0,0,.351.013,4.846,4.846,0,0,1,.715-.507,27,27,0,0,0,3.9-2.535A24,24,0,0,0,18.148-6.5c.156-.182.169-.286.091-.455a3.891,3.891,0,0,1-.221-.858,20.288,20.288,0,0,1-3.51,3.5A22.067,22.067,0,0,1,10.751-1.9,7.252,7.252,0,0,1,9.386-1.365ZM24.83-8.723c-.806,0-1.378,0-2.015-.052a5.034,5.034,0,0,0,.078.832c.026.1.039.143.156.143.585-.039,1.144-.078,1.872-.078h3.913a16.342,16.342,0,0,1-2.47,3.484A16.808,16.808,0,0,1,21.58-.871a2.224,2.224,0,0,1,.676.468c.1.117.182.1.325.026A19.875,19.875,0,0,0,27.222-4,23.757,23.757,0,0,1,30.81-.7c.091.1.143.1.234.026a5.3,5.3,0,0,0,.468-.468c.1-.13.1-.169-.013-.273A26.627,26.627,0,0,0,27.768-4.68a23.616,23.616,0,0,0,1.924-2.795,1.717,1.717,0,0,1,.377-.481c.117-.1.143-.2.065-.3a3.443,3.443,0,0,0-.533-.533.223.223,0,0,0-.26-.039,1.36,1.36,0,0,1-.741.1ZM41.314-4.069c.949-.4,1.768-.7,2.756-1.118a3.8,3.8,0,0,1,.715-.208c.13-.026.234-.1.13-.3a3.123,3.123,0,0,0-.637-.754,3.558,3.558,0,0,1-.988.663c-.65.312-1.391.65-2.028.936A1.5,1.5,0,0,0,39.624-6.37,2.818,2.818,0,0,0,38-5.811l-.013-.026a10.9,10.9,0,0,0,1.326-1.937c1.04-.1,2.145-.247,3.172-.429.143-.026.169-.065.169-.156-.013-.208-.052-.39-.078-.572-.026-.078-.052-.078-.156-.052a24.546,24.546,0,0,1-2.743.429c.169-.39.286-.663.442-.988a1.207,1.207,0,0,1,.234-.364.161.161,0,0,0-.026-.286,4.2,4.2,0,0,0-.975-.286,1.947,1.947,0,0,1-.1.7,11.5,11.5,0,0,1-.468,1.3,26.02,26.02,0,0,1-3.016.013c.013.208.052.494.078.65.013.091.039.13.143.13.819.026,1.612.026,2.418-.026a14.274,14.274,0,0,1-3.016,3.614c-.078.078-.065.1-.026.182a4.22,4.22,0,0,0,.455.507c.065.065.117.065.195-.026.455-.481.767-.819,1.235-1.261a3.694,3.694,0,0,1,2.132-1.053c.767-.013,1.066.338,1.092,1.222C38.311-3.471,37.6-2.587,37.6-1.5,37.6-.1,38.779.364,40.6.364A25.688,25.688,0,0,0,43.81.182c.052-.013.1-.065.1-.182a3.7,3.7,0,0,0-.078-.637.108.108,0,0,0-.143-.091,22.891,22.891,0,0,1-3.094.26c-1.508,0-2.223-.312-2.223-1.079s.7-1.443,2.132-2.158c-.013.663-.013,1.3-.013,1.872,0,.091.039.156.117.156a3.558,3.558,0,0,0,.559-.052c.117-.013.143-.052.143-.156Zm16.393,1.43c0-.078-.013-.091-.1-.091-.065,0-.4.026-1.469.026h-.689V-4.966h.429c.936,0,1.209.026,1.287.026s.1-.013.1-.1v-.494c0-.091-.013-.1-.1-.1s-.351.026-1.287.026h-.429V-7.5h.637c1.04,0,1.352.026,1.43.026s.1-.013.1-.1V-8.1c0-.078-.013-.091-.1-.091s-.39.026-1.43.026H54.236c-1.027,0-1.339-.026-1.417-.026s-.1.013-.1.091v.52c0,.091.013.1.1.1s.39-.026,1.417-.026h.507v1.885h-.325c-.923,0-1.209-.026-1.274-.026-.1,0-.117.013-.117.1v.494c0,.091.013.1.117.1.065,0,.351-.026,1.274-.026h.325V-2.7h-.559c-1.053,0-1.378-.026-1.456-.026s-.1.013-.1.091v.52c0,.091.013.1.1.1s.4-.026,1.456-.026h1.95c1.066,0,1.4.026,1.469.026.091,0,.1-.013.1-.1Zm-1.482-1.82c-.13.065-.143.091-.091.169a5.363,5.363,0,0,1,.65,1.144c.052.1.078.1.234.026l.221-.117c.13-.065.13-.091.091-.182a5.067,5.067,0,0,0-.7-1.131c-.052-.065-.078-.065-.195-.013Zm2.743-2.522c0-2.249.026-2.99.026-3.068s-.013-.1-.1-.1-.52.026-1.82.026H53.313c-1.3,0-1.742-.026-1.82-.026s-.1.013-.1.1.026.819.026,3.432V-4c0,3.991-.026,4.732-.026,4.8,0,.091.013.1.1.1h.559c.091,0,.1-.013.1-.1V-.052h6.058V.793c0,.091.013.1.1.1h.572c.091,0,.1-.013.1-.1,0-.065-.026-.806-.026-4.81Zm-.754,6.24H52.156V-9.412h6.058ZM49.985-7.41c.676,0,.884.026.949.026.091,0,.1-.013.1-.1v-.546c0-.091-.013-.1-.1-.1-.065,0-.273.026-.949.026V-9.178a3.394,3.394,0,0,1,.078-1.131.608.608,0,0,0,.078-.247c0-.052-.065-.091-.169-.1a7.268,7.268,0,0,0-.832-.078,8.144,8.144,0,0,1,.091,1.573v1.053h-.364c-.793,0-1.014-.026-1.079-.026-.091,0-.1.013-.1.1v.546c0,.091.013.1.1.1.065,0,.286-.026,1.079-.026h.364v2.977c-.169.065-.325.117-.455.156a8.383,8.383,0,0,1-1.144.3c.078.312.143.533.221.754a.147.147,0,0,0,.13.117.246.246,0,0,0,.182-.091,1.3,1.3,0,0,1,.481-.247l.585-.221V-.637c0,.481-.117.624-.507.624a5.952,5.952,0,0,1-.9-.052,1.507,1.507,0,0,1,.234.546c.065.26.078.273.338.273.78.013,1.04-.039,1.274-.221s.338-.416.338-1.04c0-.494-.026-1.118-.026-1.963V-3.978l.845-.377c.247-.117.247-.156.247-.39a3.1,3.1,0,0,1,.013-.494c-.4.195-.78.364-1.1.507ZM65.663-3.731a21.046,21.046,0,0,0,2.223-.013c.065,0,.1-.026.117-.143.013-.156.026-.429.026-.572,0-.078-.039-.1-.156-.091a16.179,16.179,0,0,1-2.106.026c.117-.793.234-1.586.338-2.223A18.581,18.581,0,0,0,68-6.76c.078,0,.13-.026.13-.13.013-.182.013-.4.013-.6,0-.078-.026-.1-.078-.1a12.178,12.178,0,0,1-1.82.026c.078-.546.143-.923.234-1.43a1.148,1.148,0,0,1,.234-.611.3.3,0,0,0,.091-.182c0-.078-.078-.156-.195-.208a4.485,4.485,0,0,0-1.014-.312,3.94,3.94,0,0,1-.013,1.1c-.052.559-.091.871-.195,1.573a10.513,10.513,0,0,1-2.5-.507c0,.26.013.533.026.728.013.13.026.143.117.169a10.446,10.446,0,0,0,2.21.416c-.078.676-.182,1.43-.3,2.236a9.075,9.075,0,0,1-2.3-.494,4.539,4.539,0,0,0,.013.728c.013.117.052.156.117.169a12.669,12.669,0,0,0,2.067.4c-.052.546-.13,1.144-.13,1.612,0,1.716.949,2.6,2.977,2.6,1.885,0,3.367-1.066,3.367-2.821a3.228,3.228,0,0,0-1.079-2.353.257.257,0,0,0-.221-.039,3.279,3.279,0,0,1-.806.052,3.123,3.123,0,0,1,1.2,2.327c0,1.365-1.2,2-2.6,2-1.313,0-2.015-.455-2.015-1.781C65.533-2.587,65.611-3.211,65.663-3.731Zm13.286-6.682a3.71,3.71,0,0,0-.208.715c-.013.117,0,.169.039.182a15.174,15.174,0,0,0,3.549.975c.091.013.1-.039.143-.143a3.807,3.807,0,0,0,.156-.611c.013-.1-.026-.156-.13-.169A13.491,13.491,0,0,1,78.949-10.413ZM76.687-6.305a6.117,6.117,0,0,0,.416.832c.065.1.156.208.247.208.13,0,.234-.091.416-.2a10.358,10.358,0,0,1,1.17-.533,6.2,6.2,0,0,1,1.9-.455c.793,0,1.612.442,1.612,2A3.849,3.849,0,0,1,81.7-2.08,6.925,6.925,0,0,1,78.936.039a1.652,1.652,0,0,1,.65.442c.091.117.182.143.442,0a7.547,7.547,0,0,0,2.3-1.833,4.628,4.628,0,0,0,1.066-3c0-2.028-1.118-2.912-2.4-2.912a9.07,9.07,0,0,0-2.821.624A6.1,6.1,0,0,1,76.687-6.305Z" transform="translate(443 4563)" fill="#fff"/>
    <line id="線_116" data-name="線 116" x2="13" y2="12.5" transform="translate(330 4552.5)" fill="none" stroke="#f7f7f7" stroke-width="1"/>
    <line id="線_117" data-name="線 117" x1="12" y2="12.5" transform="translate(543 4552.5)" fill="none" stroke="#f7f7f7" stroke-width="1"/>
  </g>
</svg>
