<svg xmlns="http://www.w3.org/2000/svg" width="113.06" height="17.62" viewBox="0 0 113.06 17.62">
  <path id="パス_822" data-name="パス 822" d="M15.24-4.42c-.46,0-.68.2-1.44.24-1.08.06-2.4.18-3.74.34a29.971,29.971,0,0,0,.48-3.84,1.378,1.378,0,0,0-.98-1.44,33.58,33.58,0,0,1,4.22-.6c.5-.02.82-.26.82-.52,0-.56-1.14-.7-1.58-.7-.86,0-.94.5-1.8.68A20.183,20.183,0,0,1,7-9.6a2.689,2.689,0,0,1-1.58-.36.369.369,0,0,0-.24-.1s-.12,0-.12.22c0,.52.72,1.14,1.88,1.14a13.563,13.563,0,0,0,2.04-.32c.48.44.5,1.78.5,2.22a28.79,28.79,0,0,1-.24,3.06c-3.96.44-4.02.44-4.32.44A4.168,4.168,0,0,1,3.1-3.64a1.932,1.932,0,0,0-.52-.2c-.12,0-.18.06-.18.26,0,1,1.8,1.34,2.38,1.34a6.8,6.8,0,0,0,1.26-.24,36.421,36.421,0,0,1,6.92-.78,15.8,15.8,0,0,1,3.7.38.82.82,0,0,0,.22.02c.36,0,.68-.2.68-.48C17.56-4.04,15.5-4.42,15.24-4.42Zm23.62-7.66c0-.02,0-.04-.02-.04-.04,0-.14.1-.34.32-1.98,2.3-9.22,9.36-11.62,9.36A1.431,1.431,0,0,1,25.76-3c-.1-.1-.16-.16-.22-.16s-.22.28-.22.54c0,.86,1.74,1.78,2.34,1.78.26,0,.4-.18.56-.36a2.914,2.914,0,0,1,.56-.54C35.64-6.24,38.86-11.5,38.86-12.08Zm-13.5,1a2.7,2.7,0,0,0-1.22.16c0,.04.06.08.2.14a8.639,8.639,0,0,1,3.54,1.8,1.1,1.1,0,0,0,.68.32.639.639,0,0,0,.58-.7C29.14-10.54,27.12-11.08,25.36-11.08ZM52.82-12.7a.741.741,0,0,0-.42.18,10.582,10.582,0,0,1-2.98.62l.04-.04a1.5,1.5,0,0,0,.42-.86c0-.8-1.18-1.3-1.68-1.3-.42,0-.72.28-.72.48,0,.08.04.14.16.16.44.1.76.3.76.66,0,.62-2.8,4.78-5.86,7.08-.18.14-.26.22-.26.28,0,.02.02.02.06.02a.819.819,0,0,0,.34-.1c2.24-1.02,3.92-2.9,6.16-5.68a.571.571,0,0,0,.38.12,1.371,1.371,0,0,0,.44-.08,11.87,11.87,0,0,1,2.4-.48c.28,0,.4.06.4.2A17.483,17.483,0,0,1,49.92-7.5a11.866,11.866,0,0,0-2.78-.58q-.18,0-.18.06c0,.04.12.12.38.22a13.358,13.358,0,0,1,2.02.98,22.156,22.156,0,0,1-8.34,6.4c-.34.14-.54.28-.54.34,0,.02.02.04.1.04a1.828,1.828,0,0,0,.52-.1,17.67,17.67,0,0,0,9.1-6.14,9.443,9.443,0,0,1,1.32,1.12.986.986,0,0,0,.7.38.511.511,0,0,0,.5-.56c0-.32-.12-.94-1.84-1.78.68-.88,1.36-1.84,2.02-2.84.44-.66.74-1.04,1.12-1.16.34-.1.48-.28.48-.46C54.5-12.12,52.94-12.7,52.82-12.7Zm16.4-.2c-.36,0-.74.28-.74.44,0,.06.06.12.22.16.64.16.92.42.92.8,0,.2-.04.86-2.58,4.34A15.457,15.457,0,0,0,62.6-8.6c-.1,0-.18.02-.18.04,0,.06.14.16.46.3a27.744,27.744,0,0,1,3.58,1.84A19.969,19.969,0,0,1,58.34,0c-.22.08-.4.2-.4.28,0,.02.02.04.1.04.14,0,4.88-.78,9.32-6.16A10.811,10.811,0,0,1,69.48-4.1a1.238,1.238,0,0,0,.86.54.5.5,0,0,0,.48-.56c0-1.04-1.7-1.98-2.8-2.54a38.046,38.046,0,0,0,2.32-3.44c.3-.5.94-.96.94-1.44C71.28-12.08,70.04-12.9,69.22-12.9ZM92.52-1c1.42,0,2.68-1.26,2.68-3.22a5.8,5.8,0,0,0-2.1-4.04c-.38-.42-.58-.68-.58-1.02,0-.7,1.4-3.12,1.82-3.76.24-.38.34-.4.5-.46.3-.12.52-.3.52-.5,0-.28-1.12-.98-1.46-.98a.257.257,0,0,0-.2.08c-.06.04-.14.14-.28.26a.48.48,0,0,1-.3.12H90.64l-.08-.06a12.982,12.982,0,0,0-1.78-.8c-.02,0-.04.02-.04.06a.352.352,0,0,0,.02.12,24.284,24.284,0,0,1,.28,3.1c.02,1.44.04,3.04.04,4.64,0,3-.06,6.06-.18,8.38V.98c0,.38.2.54.44.54a.754.754,0,0,0,.72-.7c0-1.18-.02-2.3-.02-3.4,0-3.3.04-6.4.04-10.16,0-.98,0-.98.28-1.18l.08-.06H93.1c.12,0,.2.04.2.14,0,.06-.24.92-1.06,3.56a3.427,3.427,0,0,0-.18.94,2.516,2.516,0,0,0,.6,1.42c.68,1.04,1.42,1.86,1.42,3.26,0,2.16-1.14,2.4-1.8,2.4a4.528,4.528,0,0,1-1.4-.26,1.629,1.629,0,0,0-.18-.04c-.04,0-.06,0-.06.02,0,.18,1.34,1.12,1.56,1.42a.254.254,0,0,0,.26.12ZM86.1-.04c-.08-1.18-.16-2.14-.16-2.9,0-.98.1-1.06.38-1.22.14-.08.48-.22.48-.46,0-.4-1.16-1.08-1.44-1.08-.18,0-.26.1-.54.48a.345.345,0,0,1-.28.16H81.18l-.1-.06a6.865,6.865,0,0,0-1.52-.66c-.04,0-.04.02-.04.06a.451.451,0,0,0,.02.14,20.035,20.035,0,0,1,.2,3.14c0,.72-.02,1.48-.14,2.96V.58a.382.382,0,0,0,.42.4.6.6,0,0,0,.64-.54c0-.32-.02-.62-.02-.9H85V.1a.43.43,0,0,0,.46.46A.617.617,0,0,0,86.1,0ZM84.74-4.52a.222.222,0,0,1,.24.22c.04.56.06,1.08.06,1.68,0,.48-.02,1-.02,1.64h-4.4c-.02-.5-.02-.98-.02-1.46,0-.36,0-.7.02-1.08.04-.88.08-.68.44-.94l.08-.06Zm3.18-2.9c.34,0,.44-.1.44-.22,0-.34-.9-1-1.5-1.24-.04,0-.08-.02-.12-.02-.18,0-.54.42-.8.82a.411.411,0,0,1-.28.16H83.38c.76-.98,1.58-2.28,1.98-2.86.14-.22.14-.3.44-.34.4-.04.56-.16.56-.28,0-.24-1.5-.88-1.56-.88a.352.352,0,0,0-.12-.02c-.06,0-.04.04-.06.2a14.9,14.9,0,0,1-1.7,4.18h-.96a36.98,36.98,0,0,1-4.3-.28c0,.22.56.94.9.94h.02a28.135,28.135,0,0,1,3.32-.16Zm-.76-5.36c.32,0,.4-.14.4-.28,0-.38-.72-.86-1.38-1.14-.04,0-.08-.02-.14-.02-.14,0-.5.32-.76.78a.375.375,0,0,1-.26.16H83.38c0-1.42.06-1.48.54-1.76.22-.14.36-.26.36-.4,0-.48-2-.66-2.04-.66s-.04.02-.04.04a.352.352,0,0,0,.02.12,10.7,10.7,0,0,1,.18,2.34v.32a33.127,33.127,0,0,1-4.08-.28c0,.22.46.94.82.94h.02a25.721,25.721,0,0,1,3.18-.16Zm-5.44,3.8a.682.682,0,0,0,.6-.74c0-1.22-2.24-2.02-2.68-2.02-.02,0-.04,0-.04.02s.08.08.2.2a5.68,5.68,0,0,1,1.32,1.94C81.26-9.14,81.5-8.98,81.72-8.98Zm32.06-.26c.02,2.34.06,4.9.06,6.52,0,2.04,0,2.5-1.2,2.5a17.509,17.509,0,0,1-2.24-.26,1.634,1.634,0,0,0-.28-.02c-.06,0-.1,0-.1.02,0,.16,1.94.88,2.26,1.32.1.14.08.26.3.26a2.384,2.384,0,0,0,2.26-2.2c0-.2-.06-1.64-.06-1.8-.04-1.32-.14-6-.14-8.88,0-2.08,0-2.08.46-2.42.1-.08.36-.2.36-.38,0-.44-1.44-.98-1.5-.98-.14,0-.38.24-.46.34a.29.29,0,0,1-.26.14H110.2l-.1-.08a6.513,6.513,0,0,0-1.62-.68c-.04,0-.04,0-.04.06a.563.563,0,0,0,.02.16,20.338,20.338,0,0,1,.24,3.52c0,.82-.02,2.02-.14,3.36v.08a.421.421,0,0,0,.44.48.58.58,0,0,0,.6-.56v-.04c0-.16-.02-.3-.02-.46ZM101.2.68c-.06-1.3-.08-4.22-.08-7.2V-9.24h3.94c0,.24-.02.44-.02.6v.04a.386.386,0,0,0,.38.44.662.662,0,0,0,.66-.64v-.04c-.1-2.5-.12-4.44-.12-4.64,0-.32.02-.44.4-.72.1-.08.36-.2.36-.38,0-.38-1.26-.98-1.4-.98-.18,0-.3.14-.46.34a.29.29,0,0,1-.26.14h-2.78l-.12-.1a6.334,6.334,0,0,0-1.66-.76.053.053,0,0,0-.06.06.689.689,0,0,0,.02.18,16.648,16.648,0,0,1,.2,2.44c0,.74.02,1.54.02,2.34,0,4.06-.1,8.64-.26,11.7V.84c0,.42.22.58.48.58A.773.773,0,0,0,101.2.7ZM113.78-9.76h-4.22v-2.22h4.18Zm-8.7-2.22c0,.76,0,1.56-.02,2.22h-3.94c0-.8,0-1.54.02-2.22Zm8.42-2.56a.163.163,0,0,1,.16.16c.02.2.04.9.06,1.88h-4.16c0-.62.02-1.08.02-1.2.02-.62,0-.62.3-.78l.12-.06Zm-8.66,0a.182.182,0,0,1,.18.2c.04.42.06,1.1.06,1.84h-3.92c0-1.74.06-1.84.34-2l.08-.04Z" transform="translate(-2.4 16.1)" fill="#485757"/>
</svg>
