<svg xmlns="http://www.w3.org/2000/svg" width="191.905" height="48.792" viewBox="0 0 191.905 48.792">
  <g id="グループ_566" data-name="グループ 566" transform="translate(-54.496 -3597.704)">
    <path id="パス_825" data-name="パス 825" d="M26.24-8.608c-.512,0-1.28.448-2.112.576a15.088,15.088,0,0,1-2.336.16c-.992,0-2.912.16-5.152.384.128-1.7.448-5.44.576-5.92.16-.608.608-.96.608-1.344,0-.544-.9-1.28-1.888-1.728a55.243,55.243,0,0,1,7.1-.64h.608c.384,0,.96-.128.96-.512,0-.416-1.024-1.44-2.72-1.44a6.694,6.694,0,0,0-2.5.576c-1.664.608-9.12,1.44-10.176,1.44a7.624,7.624,0,0,1-1.984-.256,1.411,1.411,0,0,0-.448-.1c-.128,0-.192.128-.192.256a1.424,1.424,0,0,0,.288.64,2.928,2.928,0,0,0,2.208,1.344,20.777,20.777,0,0,0,2.336-.544c.448-.1,1.344-.256,2.528-.448a3.028,3.028,0,0,1,1.184,1.792,3.125,3.125,0,0,1,.032.608c0,1.44-.256,4.672-.416,6.464C10.4-6.848,5.664-6.3,5.024-6.3a4.373,4.373,0,0,1-1.44-.224,5.235,5.235,0,0,0-.9-.32.206.206,0,0,0-.192.192c0,1.184,1.984,2.432,3.456,2.432a8.176,8.176,0,0,0,2.336-.64A61.966,61.966,0,0,1,16.032-6.08c1.248-.1,2.752-.192,4.352-.192a37.363,37.363,0,0,1,7.1.608,4.651,4.651,0,0,0,.96.1c.576,0,1.088-.16,1.088-.832C29.536-7.616,26.848-8.608,26.24-8.608ZM45.5-16.544a1.173,1.173,0,0,0,1.152-1.312,2.743,2.743,0,0,0-1.216-2.112,9.31,9.31,0,0,0-5.216-1.408c-.48,0-1.472.032-1.472.288,0,.128.224.192.576.288a7.708,7.708,0,0,1,4.448,2.976C44.32-16.992,44.864-16.544,45.5-16.544Zm-6.112,12.1A3.786,3.786,0,0,0,42.656-1.5a1.993,1.993,0,0,0,1.536-.768,7.02,7.02,0,0,1,1.856-1.44,79.963,79.963,0,0,0,15.424-15.36,1.523,1.523,0,0,0,.32-.672.117.117,0,0,0-.128-.128.922.922,0,0,0-.512.352C52.512-10.24,43.936-4.7,41.76-4.7a1.759,1.759,0,0,1-1.376-.672c-.608-.608-.576-1.024-.8-1.024-.128,0-.32.352-.32.96A4.2,4.2,0,0,0,39.392-4.448Zm49.376-17.12c-.48,0-.608.192-1.6.544a23.841,23.841,0,0,1-5.28.608,1.723,1.723,0,0,1-.352-.032,9.846,9.846,0,0,0,.8-1.408c.16-.32.512-.64.512-.992,0-.7-2.048-2.24-3.072-2.24-.512,0-1.408.288-1.408.608,0,.128.1.128.352.128A1.007,1.007,0,0,1,79.84-23.2a4.5,4.5,0,0,1-.064.576c-.448,2.592-5.088,8.864-7.9,11.136-.32.256-.416.448-.416.544,0,.128.064.192.224.192a1.593,1.593,0,0,0,.544-.192c2.528-1.312,6.464-5.536,8.672-8.608a3.64,3.64,0,0,0,1.92.384,31.015,31.015,0,0,0,4.576-.576c.352,0,.512.1.512.416,0,.448-1.472,3.392-4.384,7.008A22.434,22.434,0,0,0,78.5-15.232a.971.971,0,0,0-.352-.1.146.146,0,0,0-.16.128c0,.064.032.16.192.288a20.765,20.765,0,0,1,4.288,3.872A43.956,43.956,0,0,1,68.192.032c-.416.192-.672.352-.672.48,0,.1.064.16.256.16a2.3,2.3,0,0,0,.608-.128A38.855,38.855,0,0,0,83.648-9.44a24.436,24.436,0,0,1,1.536,2.656c.32.608.768,1.184,1.312,1.184.672,0,1.088-.64,1.088-1.5,0-1.12-1.024-2.528-2.528-3.9a49.312,49.312,0,0,0,4.8-6.816c.64-1.12,1.728-.64,1.728-1.536C91.584-19.968,89.7-21.568,88.768-21.568Zm31.328-.48a5.454,5.454,0,0,0-1.312-.16c-.544,0-1.056.1-1.056.352,0,.16.192.288.416.352.384.128,1.248.576,1.248,1.408a18.976,18.976,0,0,1-2.688,6.208,20.394,20.394,0,0,0-5.152-2.432,3.372,3.372,0,0,0-.832-.16c-.16,0-.256.064-.256.16,0,.16.224.32.736.608a22.272,22.272,0,0,1,4.576,3.3A35.564,35.564,0,0,1,102.88-.7c-.224.128-.448.288-.448.448,0,.1.064.192.224.192a1.106,1.106,0,0,0,.384-.1,33.461,33.461,0,0,0,14.144-10.656A9.648,9.648,0,0,1,118.4-8.672c.7,1.76,1.344,2.336,1.92,2.336a1.149,1.149,0,0,0,1.12-1.28c0-1.664-1.216-3.392-2.976-4.928a41.377,41.377,0,0,0,2.944-4.96c.608-1.216,1.5-1.152,1.5-1.792C122.912-20.16,121.472-21.664,120.1-22.048Zm26.272-.48H142.72v-2.4l.544-.352c.16-.1.288-.192.288-.32,0-.288-.64-.608-2.752-1.248-.224-.064-.32.032-.32.224a33.652,33.652,0,0,1,.224,4.1H138.24c-1.312-.032-2.592-.1-3.9-.224-.192,0-.288.128-.192.288l.544,1.152a.239.239,0,0,0,.32.16,35.237,35.237,0,0,1,4.576-.416h9.952a.85.85,0,0,0,.768-.352.379.379,0,0,0,.032-.32,7.315,7.315,0,0,0-2.464-2.112c-.256,0-.512.48-.864.928Zm12.32-.864c-.8,2.656-2.08,6.592-2.944,8.736a.343.343,0,0,0,.1.32c2.624,2.56,3.648,5.088,3.648,7.552,0,1.344-.32,2.048-.96,2.432a1.76,1.76,0,0,1-.832.16h-2.72a.236.236,0,0,0-.256.256.28.28,0,0,0,.256.288,4,4,0,0,1,1.7.48,2.894,2.894,0,0,1,.352,1.408.236.236,0,0,0,.256.256c3.136-.256,4.256-1.76,4.256-4.736,0-2.688-1.312-5.632-5.088-8.352,1.344-2.08,3.392-6.08,4.48-8.224a2.343,2.343,0,0,0,1.248-.256.248.248,0,0,0,.064-.32,6.535,6.535,0,0,0-2.208-2.272c-.256,0-.512.352-.832.672l-.576.672H154.08l-2.432-1.248c-.192-.1-.32,0-.288.224a46.9,46.9,0,0,1,.352,6.176v12.7c-.064,4.16-.16,5.568-.352,8.32a.719.719,0,0,0,.672.64,2.28,2.28,0,0,0,1.76-.768.411.411,0,0,0,.128-.32c-.128-2.272-.192-3.584-.256-7.328V-23.392ZM143.9-13.952a40.952,40.952,0,0,0,3.264-5.472l.576-.192c.16-.064.288-.128.288-.224,0-.256-.672-.608-2.944-1.312a.216.216,0,0,0-.32.192,27.823,27.823,0,0,1-1.344,6.176l-.288.832h-5.312c-1.312-.032-2.592-.1-3.9-.224-.192,0-.288.128-.192.288l.544,1.152a.239.239,0,0,0,.32.16,35.237,35.237,0,0,1,4.576-.416H149.92a.815.815,0,0,0,.768-.352.379.379,0,0,0,.032-.32,7.524,7.524,0,0,0-2.5-2.144c-.256,0-.544.48-.9.928l-.64.928Zm-6.912-6.432a13.518,13.518,0,0,1,1.5,5.184.411.411,0,0,0,.128.32,1.184,1.184,0,0,0,.7.288c.576,0,1.056-.608,1.056-1.568,0-1.184-.768-2.88-2.944-4.512a.287.287,0,0,0-.352-.032A.2.2,0,0,0,136.992-20.384ZM138.464-.64h7.392V.224c-.064.448-.064.672-.1.928a1.089,1.089,0,0,0-.032.32c.032.256.16.48.384.48a3.214,3.214,0,0,0,1.728-.7.411.411,0,0,0,.128-.32c-.128-1.792-.16-2.88-.224-5.952V-8.192a2.4,2.4,0,0,0,1.184-.544c.1-.1.128-.192.064-.288a5.734,5.734,0,0,0-2.3-1.792c-.256,0-.448.32-.7.64l-.448.64h-6.912l-2.208-.992c-.192-.1-.288,0-.256.192a47.729,47.729,0,0,1,.352,6.208v2.176c-.064,1.856-.1,2.5-.192,3.712,0,.32.192.64.48.64a2.388,2.388,0,0,0,1.7-.672.294.294,0,0,0,.064-.32c-.032-.288-.032-.576-.1-1.248Zm0-7.968h7.392v7.04h-7.392ZM184.48-14.5H191.1V-.96c0,.576-.224.8-.9.8-.64,0-3.616-.224-4.544-.288-.16-.032-.256.064-.256.224v.032c0,.16.1.224.256.256a7.51,7.51,0,0,1,2.976.864,1.973,1.973,0,0,1,.832,1.312c.032.16.128.256.288.224,2.976-.416,3.328-1.5,3.328-3.168V-23.36A2.686,2.686,0,0,0,194.3-23.9c.1-.1.128-.192.064-.288a6.616,6.616,0,0,0-2.432-1.888c-.256,0-.448.352-.7.672l-.448.672h-6.176l-2.176-.96c-.192-.1-.288,0-.256.192a47.4,47.4,0,0,1,.352,6.208v2.144c-.064,1.824-.1,2.432-.192,3.616,0,.32.192.64.48.64.832,0,1.664-.48,1.664-.672Zm-14.016,0H176.8v.608a2.089,2.089,0,0,0-.064.352,1.137,1.137,0,0,0-.064.32c.064.256.192.48.416.48a3.217,3.217,0,0,0,1.76-.7.411.411,0,0,0,.128-.32c-.128-1.952-.16-3.1-.224-6.368v-3.36a2.041,2.041,0,0,0,.992-.448c.1-.1.128-.192.064-.288a5.026,5.026,0,0,0-2.144-1.664c-.256,0-.416.288-.672.576l-.448.576h-5.952l-2.176-1.056c-.192-.1-.32,0-.288.192a47.729,47.729,0,0,1,.352,6.208V-6.5c-.064,4.16-.16,5.568-.352,8.32a.733.733,0,0,0,.736.64,2.282,2.282,0,0,0,1.76-.864.516.516,0,0,0,.1-.288c-.128-2.3-.192-3.616-.256-7.36Zm6.336-5.632h-6.336v-3.648H176.8Zm14.3,0H184.48v-3.648H191.1Zm-20.64.928H176.8v3.808h-6.336Zm14.016,0H191.1v3.808H184.48Z" transform="translate(52 3644)" fill="#485757"/>
    <path id="パス_824" data-name="パス 824" d="M12.576-.8A2.331,2.331,0,0,0,14.72-3.376a4.638,4.638,0,0,0-1.68-3.232c-.3-.336-.464-.544-.464-.816a11.567,11.567,0,0,1,1.456-3.008c.192-.3.272-.32.4-.368.24-.1.416-.24.416-.4,0-.224-.9-.784-1.168-.784a.205.205,0,0,0-.16.064c-.048.032-.112.112-.224.208a.384.384,0,0,1-.24.1H11.072l-.064-.048a10.386,10.386,0,0,0-1.424-.64c-.016,0-.032.016-.032.048a.282.282,0,0,0,.016.1,19.428,19.428,0,0,1,.224,2.48c.016,1.152.032,2.432.032,3.712,0,2.4-.048,4.848-.144,6.7V.784c0,.3.16.432.352.432a.6.6,0,0,0,.576-.56c0-.944-.016-1.84-.016-2.72,0-2.64.032-5.12.032-8.128,0-.784,0-.784.224-.944l.064-.048H13.04c.1,0,.16.032.16.112,0,.048-.192.736-.848,2.848a2.742,2.742,0,0,0-.144.752,2.013,2.013,0,0,0,.48,1.136,4.509,4.509,0,0,1,1.136,2.608c0,1.728-.912,1.92-1.44,1.92a3.622,3.622,0,0,1-1.12-.208,1.3,1.3,0,0,0-.144-.032c-.032,0-.048,0-.048.016,0,.144,1.072.9,1.248,1.136a.2.2,0,0,0,.208.1ZM7.44-.032c-.064-.944-.128-1.712-.128-2.32,0-.784.08-.848.3-.976C7.728-3.392,8-3.5,8-3.7c0-.32-.928-.864-1.152-.864-.144,0-.208.08-.432.384a.276.276,0,0,1-.224.128H3.5L3.424-4.1a5.492,5.492,0,0,0-1.216-.528c-.032,0-.032.016-.032.048a.36.36,0,0,0,.016.112,16.028,16.028,0,0,1,.16,2.512c0,.576-.016,1.184-.112,2.368V.464a.306.306,0,0,0,.336.32A.48.48,0,0,0,3.088.352c0-.256-.016-.5-.016-.72H6.56V.08a.344.344,0,0,0,.368.368A.493.493,0,0,0,7.44,0ZM6.352-3.616a.178.178,0,0,1,.192.176c.032.448.048.864.048,1.344,0,.384-.016.8-.016,1.312H3.056c-.016-.4-.016-.784-.016-1.168,0-.288,0-.56.016-.864.032-.7.064-.544.352-.752l.064-.048ZM8.9-5.936c.272,0,.352-.08.352-.176,0-.272-.72-.8-1.2-.992-.032,0-.064-.016-.1-.016-.144,0-.432.336-.64.656a.329.329,0,0,1-.224.128H5.264C5.872-7.12,6.528-8.16,6.848-8.624c.112-.176.112-.24.352-.272.32-.032.448-.128.448-.224,0-.192-1.2-.7-1.248-.7a.282.282,0,0,0-.1-.016c-.048,0-.032.032-.048.16A11.921,11.921,0,0,1,4.9-6.336H4.128A29.584,29.584,0,0,1,.688-6.56c0,.176.448.752.72.752h.016A22.508,22.508,0,0,1,4.08-5.936Zm-.608-4.288c.256,0,.32-.112.32-.224,0-.3-.576-.688-1.1-.912-.032,0-.064-.016-.112-.016-.112,0-.4.256-.608.624a.3.3,0,0,1-.208.128H5.264c0-1.136.048-1.184.432-1.408.176-.112.288-.208.288-.32,0-.384-1.6-.528-1.632-.528s-.032.016-.032.032a.282.282,0,0,0,.016.1A8.556,8.556,0,0,1,4.48-10.88v.256a26.5,26.5,0,0,1-3.264-.224c0,.176.368.752.656.752h.016a20.577,20.577,0,0,1,2.544-.128ZM3.936-7.184a.545.545,0,0,0,.48-.592c0-.976-1.792-1.616-2.144-1.616-.016,0-.032,0-.032.016s.064.064.16.16A4.544,4.544,0,0,1,3.456-7.664C3.568-7.312,3.76-7.184,3.936-7.184Zm25.648-.208c.016,1.872.048,3.92.048,5.216,0,1.632,0,2-.96,2A14.007,14.007,0,0,1,26.88-.384,1.307,1.307,0,0,0,26.656-.4c-.048,0-.08,0-.08.016,0,.128,1.552.7,1.808,1.056.08.112.064.208.24.208A1.908,1.908,0,0,0,30.432-.88c0-.16-.048-1.312-.048-1.44-.032-1.056-.112-4.8-.112-7.1,0-1.664,0-1.664.368-1.936.08-.064.288-.16.288-.3,0-.352-1.152-.784-1.2-.784-.112,0-.3.192-.368.272a.232.232,0,0,1-.208.112H26.72l-.08-.064a5.211,5.211,0,0,0-1.3-.544c-.032,0-.032,0-.032.048a.45.45,0,0,0,.016.128A16.271,16.271,0,0,1,25.52-9.68c0,.656-.016,1.616-.112,2.688v.064a.337.337,0,0,0,.352.384.464.464,0,0,0,.48-.448v-.032c0-.128-.016-.24-.016-.368ZM19.52.544c-.048-1.04-.064-3.376-.064-5.76V-7.392h3.152c0,.192-.016.352-.016.48v.032a.309.309,0,0,0,.3.352.53.53,0,0,0,.528-.512v-.032c-.08-2-.1-3.552-.1-3.712,0-.256.016-.352.32-.576.08-.064.288-.16.288-.3,0-.3-1.008-.784-1.12-.784-.144,0-.24.112-.368.272a.232.232,0,0,1-.208.112H20.016l-.1-.08a5.067,5.067,0,0,0-1.328-.608.042.042,0,0,0-.048.048.551.551,0,0,0,.016.144,13.319,13.319,0,0,1,.16,1.952c0,.592.016,1.232.016,1.872,0,3.248-.08,6.912-.208,9.36V.672c0,.336.176.464.384.464A.618.618,0,0,0,19.52.56ZM29.584-7.808H26.208V-9.584h3.344Zm-6.96-1.776c0,.608,0,1.248-.016,1.776H19.456c0-.64,0-1.232.016-1.776Zm6.736-2.048a.131.131,0,0,1,.128.128c.016.16.032.72.048,1.5H26.208c0-.5.016-.864.016-.96.016-.5,0-.5.24-.624l.1-.048Zm-6.928,0a.145.145,0,0,1,.144.16c.032.336.048.88.048,1.472H19.488c0-1.392.048-1.472.272-1.6l.064-.032ZM46.048-5.264a.12.12,0,0,0-.08.016c-.08.032-.224.256-.3.368a.3.3,0,0,1-.224.144H42.384a5.117,5.117,0,0,0-1.36-.64c-.016,0-.016.016-.016.032a.312.312,0,0,0,.016.112,17.762,17.762,0,0,1,.208,2.176v.576c0,.608,0,1.376-.112,3.04V.608a.332.332,0,0,0,.352.368.5.5,0,0,0,.512-.464c0-.272-.016-.512-.016-.72h3.84V.384a.353.353,0,0,0,.368.4A.47.47,0,0,0,46.688.3V.272c-.08-1.216-.128-2.1-.128-2.848,0-1.184.048-1.248.3-1.392.112-.064.384-.176.384-.384C47.248-4.752,46.16-5.264,46.048-5.264Zm.656-7.024c-.064,0-.176.064-.336.288a.265.265,0,0,1-.256.16H43.648c-.736,0-2.5-.064-3.7-.208,0,.192.464.752.72.752h.016c.352-.032,1.472-.08,2.272-.112a4.927,4.927,0,0,1-.064.768A5.7,5.7,0,0,1,39.76-6.3,3.661,3.661,0,0,0,38.08-7.7c-.032,0-.048,0-.048.016a.5.5,0,0,0,.1.192,7.5,7.5,0,0,1,.576.976c-.784.1-1.872.192-2.784.24a36.853,36.853,0,0,0,2.9-3.7.506.506,0,0,1,.368-.24c.3-.032.432-.128.432-.24,0-.272-1.248-.768-1.264-.768-.032,0-.048.032-.064.16-.176,1.184-1.888,3.7-2.7,4.8h-.336c-.32,0-.768-.016-1.136-.048-.048,0-.08-.016-.112-.016s-.032.016-.032.032a2.392,2.392,0,0,0,.5.96c.064.08.112.112.176.112.112,0,.224-.16.4-.192.32-.064,1.008-.192,1.744-.352.016.24.016.56.016.9,0,2.048-.048,3.856-.16,5.52V.72c0,.288.144.416.32.416a.561.561,0,0,0,.528-.56c-.016-1.488-.064-3.552-.064-4.8,0-1.264.016-1.28.24-1.392.128-.064.176-.144.176-.208,0-.048-.032-.1-.112-.144l1.1-.272a3.937,3.937,0,0,1,.112.464c.064.416.272.592.48.592a.563.563,0,0,0,.48-.608.906.906,0,0,0-.048-.288,5.746,5.746,0,0,0,3.824-4.48c.064-.256.032-.32.24-.4.256-.1.368-.192.368-.272,0-.064-.064-.112-.16-.144l-.144-.048h2.24c.112,0,.144.032.144.064,0,.048-.016.1-.016.144A6.3,6.3,0,0,1,45.7-7.728a1.372,1.372,0,0,1-1.184.672,4.891,4.891,0,0,1-1.424-.352.384.384,0,0,0-.16-.032c-.032,0-.032,0-.032.016,0,.128,1.088.864,1.2,1.1.032.08.128.08.192.08s.128.016.192.016A2.233,2.233,0,0,0,46.416-7.44a6.313,6.313,0,0,0,.656-3.1c.032-.56.016-.512.416-.672.224-.08.32-.176.32-.288C47.808-11.888,46.72-12.288,46.7-12.288ZM45.824-.624H41.952c-.016-.56-.016-.992-.016-1.5,0-.384,0-.816.016-1.392.016-.592.048-.512.336-.72l.08-.064H45.6a.178.178,0,0,1,.192.176c.032.5.048,1.056.048,1.744C45.84-1.872,45.84-1.312,45.824-.624ZM36.544-13.28c-.048,0-.048.016-.048.08v.176a13.875,13.875,0,0,1-1.024,3.168,3.483,3.483,0,0,0-1.152-.288c-.048,0-.08.016-.08.032,0,.032.048.08.144.16a4.256,4.256,0,0,1,1.28,1.328c.16.288.352.416.512.416a.478.478,0,0,0,.416-.528c0-.336-.208-.688-.88-1.008a21.215,21.215,0,0,0,1.44-2.24c.1-.176.144-.224.336-.256.3-.048.432-.16.432-.272C37.92-12.8,36.544-13.28,36.544-13.28Zm-1.7,8.848s-.032,0-.032.16A13.006,13.006,0,0,1,33.68.192.482.482,0,0,0,33.616.4c0,.032.016.064.048.064C33.84.464,34.8-.864,35.6-3.088c.08-.224.08-.32.336-.368.272-.064.4-.16.4-.272C36.336-4.048,35.008-4.432,34.848-4.432Zm3.216.208c-.016,0-.032,0-.032.016a.5.5,0,0,0,.1.192A7.755,7.755,0,0,1,39.072-1.9c.1.368.288.528.48.528.208,0,.416-.24.416-.576C39.968-2.96,38.288-4.224,38.064-4.224ZM55.84-5.1c0-.368-.016-.736-.016-1.088,0-.624,0-.608.4-.768.208-.08.256-.176.256-.24a.207.207,0,0,0-.1-.176,4.379,4.379,0,0,0-1.344-.336h-.1c-.048,0-.064,0-.064.048a.174.174,0,0,0,.016.08A13.1,13.1,0,0,1,55.024-5.2c0,2.256-.72,5.152-4.016,6.128-.352.112-.5.192-.5.24,0,.032.064.048.16.048,0,0,5.168-.3,5.168-6.272ZM59.584.368c-.1-2.464-.144-3.616-.144-5.072,0-.5,0-1.024.016-1.664.016-.576.032-.448.448-.7.128-.08.208-.16.208-.24,0-.32-1.52-.448-1.552-.448s-.048,0-.048.032a.281.281,0,0,0,.016.1,12.841,12.841,0,0,1,.144,2.256v1.152c0,1.664-.032,2.864-.064,4.656V.448a.369.369,0,0,0,.4.4c.272,0,.576-.192.576-.464ZM57.36-11.808c2.352,3.472,5.712,5.472,6.128,5.472a.255.255,0,0,0,.128-.048c.56-.368,1.616-.512,1.616-.624,0-.032-.064-.048-.208-.08-2.816-.528-6.256-3.392-7.456-4.96a1.142,1.142,0,0,1,.256-.064c.368-.064.5-.192.5-.3,0-.288-1.472-.88-1.488-.88-.032,0-.048.016-.064.08a4.7,4.7,0,0,1-.3,1.056A17.754,17.754,0,0,1,50.032-5.6c-.16.08-.224.144-.224.176,0,.016.016.032.08.032.784,0,4.448-1.856,7.456-6.4Z" transform="translate(54 3611)" fill="#485757"/>
  </g>
</svg>
