<svg xmlns="http://www.w3.org/2000/svg" width="320" height="112" fill="none"><g clip-path="url(#a)"><path fill="#fff" d="M313.495 46.57h-63.95c2.75-.78 5.96-2.25 8.79-5.01 4.18-4.06 6.3-9.62 6.31-16.51 0-5.93-2-11.04-5.76-14.78-5.62-5.59-13.13-6.03-15.29-6.03h-69.99v8.64a18 18 0 0 0-2.17-2.61c-5.62-5.59-13.13-6.03-15.3-6.03h-69.95v15.39h69.94c.83 0 3.19.28 4.46 1.55.58.57 1.24 1.54 1.24 3.95 0 2.57-.58 4.56-1.61 5.59-1.29 1.28-3.41 1.64-4.15 1.68h-69.88v5.87h-23.96l12.1-9.5 2.36-1.85-1.85-2.36-4.89-6.24-1.85-2.36-2.36 1.85-20.5 16.07-20.5-16.09-2.36-1.85-1.85 2.36-4.89 6.24-1.85 2.36 2.36 1.85 12.11 9.5H3.505v69.51h82.81V93.34l.47.09 1.03 9.25.36 3.12 3.1-.5c1.25-.2 2.66-.37 4.46-.52 2.58-.13 16.9-1.36 20.43-1.74 2.61-.24 2.94-.27 7.34-.76.41.64.68 1.07 1.34 2.09l.2.31 1.56 2.43 2.49-1.46 7.42-4.35.58-.34c.06.84.1 1.65.04 2.24l-.31 3.29h12.84v-.84h5.55v.11l2.67.1c.6.02 1.05.05 1.4.07.49.03.83.04 1.14.04 2.66 0 5.65-.22 7.71-1.89.4-.32.74-.67 1.02-1.04.12.23.25.47.39.72l1.38 2.64 2.65-1.36c1.75-.9 2.78-1.48 4.34-2.48.34.35.67.65 1 .93l.03.03.03.03c1.9 1.52 4.53 2.42 7.03 2.42 1.42 0 3.98-.47 5.86-3.48v3.92h124.63V46.54h-3v.03Zm-65.83-15.86c-1.28 1.27-3.41 1.64-4.16 1.68h-67.25c.62-2.24.94-4.69.94-7.34 0-1.9-.23-3.7-.63-5.42h67.01c.83 0 3.19.28 4.46 1.55.57.57 1.23 1.54 1.24 3.95 0 2.57-.58 4.56-1.61 5.59v-.01Z"/><path fill="#000" d="M130.545 7.24h-41.36v9.38h41.36V7.24Zm0 28.15h-41.36v9.38h41.36v-9.38Zm25.66 9.05c1.41 0 7.72-.28 12.61-5.04 3.56-3.47 5.38-8.3 5.38-14.36 0-5.19-1.7-9.47-4.88-12.64-5.15-5.13-12.29-5.15-13.18-5.15h-21.32v9.38h21.31s4.1-.05 6.58 2.42c1.43 1.42 2.12 3.36 2.12 6.07 0 3.4-.84 6.08-2.5 7.72-2.44 2.42-6.1 2.55-6.22 2.55h-21.3v9.05h21.4Zm61.76-37.2h-41.36v9.38h41.36V7.24Zm0 28.15h-41.36v9.38h41.36v-9.38Zm25.62-28.15h-21.35v9.38h21.35s4.1-.05 6.58 2.42c1.42 1.42 2.12 3.36 2.12 6.07 0 3.4-.85 6.08-2.5 7.72-2.44 2.42-6.13 2.55-6.23 2.55h-21.33v9.05h21.37c1.41 0 7.76-.28 12.64-5.04 3.56-3.47 5.39-8.3 5.4-14.36 0-5.19-1.69-9.47-4.88-12.64-5.15-5.13-12.28-5.15-13.18-5.15h.01Z"/><path fill="#fff" d="M83.025 41.16H6.515v62.79h76.51V41.16Z"/><path fill="#E6001E" d="m53.525 41.25 18.95-14.86-4.89-6.24-22.35 17.53-22.35-17.53-4.89 6.24 18.95 14.86H6.505v63.51h76.81V41.25h-29.79Zm-6.25 7.72h25.75v16.31h-10.3v-5.15h3.86v-6.01h-5.57l-5.81 11.76-5.39-2.36 5.39-9.41h-7.93v-5.15.01Zm25.32 19.74V86.3h-24.89V68.71h24.89Zm.86 27.89h-37.9l-13.38-9.17-1.24 9.11-5.6-1.46 3.94-24.07 4.98.62-1.72 8.92 5.44 3.11V67.85h-10.73v-5.58h10.73v-4.29h-9.44v-5.15h9.44v-5.15h6.01v5.15h9.01v5.15h-9.01v4.29h9.44v5.58h-9.44v6.01h9.01v6.01h-9.01v7.74l4.9 2.99h34.58v6.01l-.01-.01Z"/><path fill="#E6001E" d="M53.385 74.17c-1.2 0-2.18.98-2.18 2.18 0 1.2.97 2.18 2.18 2.18 1.21 0 2.18-.98 2.18-2.18 0-1.2-.98-2.18-2.18-2.18Zm13-2.02c-1.2 0-2.18.98-2.18 2.18 0 1.2.98 2.18 2.18 2.18 1.2 0 2.18-.97 2.18-2.18 0-1.21-.98-2.18-2.18-2.18Zm-9.62 10.46 3.17-3.94c.16-.2.46-.2.62 0l3.17 3.94a.4.4 0 0 1-.31.65h-6.33c-.34 0-.52-.39-.31-.65h-.01Z"/><path fill="#000" d="M97.955 72.11c-2.65 1.54-4.35 2.39-7.43 3.61-1.33-3.4-2.18-5.1-3.98-7.81 4.88-1.49 7.96-2.97 12.21-5.84 4.19-2.92 6.64-5.26 8.92-8.6h8.6c2.5 3.35 4.94 5.58 8.97 8.18 4.25 2.76 8.02 4.51 12.69 5.89-1.81 3.08-2.71 5.15-3.72 8.39-3.08-1.22-4.83-2.07-7.91-3.88v3.03c-1.59-.16-2.87-.21-5.04-.21h-18.32c-1.75 0-3.45.05-4.99.21v-2.97Zm-2.39 13.22c-2.71 0-4.57.11-6.48.32v-8.12c1.86.16 4.04.27 6.48.27h33.35c2.55 0 4.51-.11 6.42-.27v8.13c-1.91-.21-3.72-.32-6.42-.32h-5.26c5.31 5.79 7.01 7.86 11.21 13.7l-7.33 4.51c-.813-1.273-1.647-2.583-2.5-3.93-4.107.46-7.133.78-9.08.96-3.51.37-17.84 1.59-20.07 1.7-1.86.16-3.34.32-4.67.53l-1.01-8.87c1.38.11 2.34.16 3.5.16.393 0 1.633-.037 3.72-.11 1.75-2.76 3.29-5.63 4.62-8.65h-6.48v-.01Zm24-17.63c-3.13-2.34-5.04-4.2-7.43-7.06-2.34 2.87-3.93 4.35-7.49 7.06h14.92Zm-8.18 17.63c-1.28 2.81-3.03 5.95-4.62 8.39 5.167-.213 9.59-.48 13.27-.8-1.49-1.81-2.23-2.66-4.51-5.1l6.27-2.5h-10.41v.01Zm45.65-16.62c-1.49-.16-1.91-.16-4.14-.16h-9.08c-2.28 0-2.76 0-3.88.16v-6.96c1.27.16 1.96.21 3.88.21h8.97c2.44 0 2.82 0 4.25-.16v6.91Zm-16.41 34.14c.16-1.75.26-3.56.26-5.2v-8.23c0-1.59-.05-2.87-.16-4.14 1.17.11 1.59.11 3.4.11h8.6c1.167 0 2.333-.037 3.5-.11-.05.9-.05 1.49-.05 4.09v8.39c0 1.65.05 2.55.11 4.25h-6.11v-1.43h-2.87v2.28h-6.69l.01-.01Zm.74-48.85c1.06.16 2.13.21 3.77.21h7.12c1.75 0 2.71-.05 3.82-.21v6.48c-1.12-.11-1.75-.16-3.82-.16h-7.12c-1.91 0-2.76.05-3.77.16V54Zm.05 16.14c1.01.11 1.54.11 3.82.11h6.69c2.23 0 2.87 0 4.03-.11v6c-1.38-.11-1.86-.11-4.03-.11h-6.69c-2.18 0-2.71 0-3.82.11v-6Zm0 7.54c1.01.11 1.75.11 3.82.11h6.69c2.23 0 2.81 0 4.03-.11v6c-1.33-.11-1.91-.11-4.03-.11h-6.69c-2.02 0-2.81.05-3.82.11v-6Zm5.89 16.78h2.92v-3.35h-2.92v3.35Zm38.44.74c.27-.8.48-1.7.64-3.5 1.54 1.38 2.6 2.07 4.46 2.92-.37 3.08-.69 4.3-1.38 5.68-.85 1.59-2.02 2.44-3.5 2.44-1.81 0-3.77-.69-5.1-1.75-.69-.58-1.38-1.33-2.39-2.55-2.97 1.96-3.88 2.5-6.16 3.66-1.27-2.44-2.18-3.77-3.66-5.47 3.34-1.27 4.19-1.7 6.74-3.24-.8-2.02-1.33-4.04-1.86-6.85h-5.04v1.65c.853-.107 2.287-.283 4.3-.53v5.1c-1.52.247-2.953.46-4.3.64v3.66c0 4.35-1.75 5.68-7.49 5.68-.48 0-1.33-.05-2.65-.11-.21-2.65-.48-3.98-1.17-6.05 1.54.21 2.34.27 3.24.27 1.12 0 1.38-.21 1.38-1.06v-1.43c-2.28.27-3.61.43-4.04.48l-.69-5.89c.37.05.64.05.8.05.58 0 1.91-.05 3.93-.21v-2.23h-1.49c-1.27 0-2.28.05-3.24.16v-6.11c1.01.11 1.59.16 3.4.16h1.33V79.6c-1.59.11-1.81.11-2.92.16-.42-1.33-.53-1.54-1.75-3.72h.58c4.57 0 8.5-.58 10.67-1.54h-6.9c-2.28 0-3.24.05-4.25.16v-5.47c1.12.16 1.81.21 4.25.21h7.28v-1.43h-5.26c-2.28 0-3.08.05-4.19.16v-4.62c1.33.11 2.5.16 4.19.16h5.26v-1.43h-6.48c-1.59 0-2.81.05-4.19.16v-5.47c1.27.16 2.34.21 4.19.21h1.33c-.58-1.17-.96-1.91-1.86-3.24l7.38-1.54c1.12 1.81 1.49 2.6 2.44 4.78h3.4c.9-1.7 1.38-2.87 2.02-4.88l7.59 1.49c-.53 1.17-.64 1.33-1.7 3.4h1.43c1.97 0 2.92-.05 4.14-.21v5.47c-1.38-.11-2.55-.16-4.14-.16h-7.91v1.43h6.11c1.75 0 2.81-.05 4.14-.16v4.62c-1.28-.11-2.55-.16-4.14-.16h-6.11v1.43h8.49c2.55 0 3.24-.05 4.35-.26v5.57c-1.27-.16-2.23-.21-4.25-.21h-.26c1.59 1.22 2.71 2.23 4.25 3.93l-3.4 2.34c2.02 0 2.65-.05 3.88-.27v6.32c-1.22-.21-2.18-.27-4.2-.27h-.74l3.93 2.81c-.213.213-1.043 1.08-2.49 2.6-.74.74-1.33 1.33-2.6 2.5.48.64 1.06 1.11 1.28 1.22.26.05.48.16.53.21.32-.247.513-.477.58-.69l-.01-.01Zm-2.07-14.44c-1.27-1.59-2.23-2.55-4.09-4.09l3.56-2.18h-13.96l3.13 3.29c-2.18.64-2.23.64-3.82 1.01v1.96h4.35l-.32-5.15 6.9-.11c-.05 1.27-.05 1.91-.05 2.28 0 .95 0 1.65.11 2.97h4.19v.02Zm-3.61 5.79c.21 1.11.32 1.59.69 2.87 1.54-1.27 1.91-1.7 2.65-2.87h-3.34Z"/><path fill="#E6001E" d="M313.945 49.45h-119.56v54.25h119.56V49.45Z"/><path fill="#fff" d="M215.555 73.1h-14.76v24.22h21.87v-6.88h-14.81V80.1h14.81V55.87h-21.87v6.94h14.76V73.1Zm13.53 24.22h21.87V55.87h-21.87v41.45Zm6.98-34.51h7.92v27.63h-7.92V62.81Zm36.06 10.29h-14.75v24.22h21.87v-6.88h-14.82V80.1h14.82V55.87h-21.87v6.94h14.75V73.1Z"/><path fill="#fff" d="M215.555 73.09h-14.76v24.22h21.87v-6.88h-14.81V80.08h14.81V55.85h-21.87v6.94h14.76v10.3Zm13.53 24.22h21.87V55.86h-21.87v41.45Zm6.98-34.51h7.92v27.63h-7.92V62.8Zm36.06 10.29h-14.75v24.22h21.87v-6.88h-14.82V80.08h14.82V55.85h-21.87v6.94h14.75v10.3Zm28.29-17.22v17.17h-7.64V55.87h-7.12v24.28h14.76v17.17h7.11V55.87h-7.11Z"/></g><defs><clipPath id="a"><path fill="#fff" d="M3.505 4.24h312.99v103.52H3.505z"/></clipPath></defs></svg>