<svg xmlns="http://www.w3.org/2000/svg" width="355.062" height="585.186"
  viewBox="0 0 355.062 585.186">
  <g id="グループ_842" data-name="グループ 842" transform="translate(5504.384 -4566.224)">
    <path id="パス_468" data-name="パス 468"
      d="M-46.764-22.545c-.54,0-1,0-1,.216s.351.27.81.486a4.364,4.364,0,0,1,2,1.809,1.254,1.254,0,0,0,.945.621.78.78,0,0,0,.837-.756C-43.173-22.059-45.819-22.545-46.764-22.545Zm-3,1.782c-.216,0-.378.054-.378.216,0,.189.324.324.648.486a4.067,4.067,0,0,1,1.917,2.187,1.2,1.2,0,0,0,1.053.675.835.835,0,0,0,.864-.918C-45.657-20.3-49.572-20.763-49.761-20.763Zm-.162,3.7c-.351,0-.621.243-1.215.594a11.156,11.156,0,0,1-3.969.621h-.4a11.348,11.348,0,0,0,.945-1.35,1.439,1.439,0,0,0,.27-.7,2.755,2.755,0,0,0-2.592-1.971,2.422,2.422,0,0,0-.918.162c-.135.054-.243.162-.243.27,0,.081.054.162.27.243.621.27.972.648.972,1.188,0,1.917-5.238,7.452-7.668,9.1-.27.189-.378.27-.378.378,0,.054.054.081.108.081a1.241,1.241,0,0,0,.351-.108c1.863-.756,5.751-3.753,8.181-6.453a4.548,4.548,0,0,0,1.458.216,14.888,14.888,0,0,0,3.456-.621,1.313,1.313,0,0,1,.378-.054c.216,0,.324.081.324.27a.979.979,0,0,1-.162.486C-55.539-6.561-60.642-2.97-66.555-.513c-.27.108-.378.189-.378.27s.054.135.243.135a1.325,1.325,0,0,0,.3-.027C-60.1-1.62-53.73-6.372-49.356-13.068c.594-.918,1.863-1.026,1.863-1.89C-47.493-15.795-49.356-17.064-49.923-17.064Zm17.928-.513a2.872,2.872,0,0,0,1.107-.216,22.005,22.005,0,0,1,5.265-.7c1.188,0,2.025.081,2.511.081.7,0,.864-.108.864-.432,0-.54-1.134-1.566-2.511-1.566-1.026,0-1.026.459-1.7.594-.648.135-2.754.513-4.023.7a6.952,6.952,0,0,1-1.215.108,4.976,4.976,0,0,1-1.323-.162,5.5,5.5,0,0,0-.81-.27.181.181,0,0,0-.162.189.622.622,0,0,0,.081.243,2.766,2.766,0,0,0,.783.972A1.628,1.628,0,0,0-31.995-17.577ZM-37.071.594a.361.361,0,0,0,.135-.027C-28.35-1.89-24.462-6.021-21.357-11.259c.594-1,1.809-1.593,1.809-2.106,0-.621-1.782-2.079-2.511-2.079-.3,0-.837.594-1.458.729-.783.162-7.155,1.134-8.1,1.242-.324.027-.621.054-.918.054a8.065,8.065,0,0,1-2.511-.351,3.274,3.274,0,0,0-.621-.27c-.162,0-.216.243-.216.459a1.56,1.56,0,0,0,.27.864,3.68,3.68,0,0,0,2.43,1.377.973.973,0,0,0,.54-.135,2.858,2.858,0,0,1,1.35-.675c1.728-.486,7.992-1.566,8.316-1.566.243,0,.351.081.351.243a1.367,1.367,0,0,1-.135.459C-25.974-6.291-30.618-2.511-36.99.3c-.108.054-.216.108-.216.189S-37.125.594-37.071.594ZM-2.916-13.959a.989.989,0,0,0,.972-1.107A2.314,2.314,0,0,0-2.97-16.848a7.855,7.855,0,0,0-4.4-1.188c-.4,0-1.242.027-1.242.243,0,.108.189.162.486.243a6.5,6.5,0,0,1,3.753,2.511C-3.915-14.337-3.456-13.959-2.916-13.959ZM-8.073-3.753A3.2,3.2,0,0,0-5.319-1.269a1.682,1.682,0,0,0,1.3-.648A5.923,5.923,0,0,1-2.457-3.132a67.469,67.469,0,0,0,13.014-12.96,1.285,1.285,0,0,0,.27-.567.1.1,0,0,0-.108-.108.778.778,0,0,0-.432.3C3-8.64-4.239-3.969-6.075-3.969a1.484,1.484,0,0,1-1.161-.567c-.513-.513-.486-.864-.675-.864-.108,0-.27.3-.27.81A3.543,3.543,0,0,0-8.073-3.753ZM38.205-17.334A2.564,2.564,0,0,0,40.77-19.9a2.564,2.564,0,0,0-2.565-2.565A2.57,2.57,0,0,0,35.613-19.9,2.57,2.57,0,0,0,38.205-17.334Zm0-.7a1.873,1.873,0,0,1-1.89-1.863,1.9,1.9,0,0,1,1.89-1.89,1.89,1.89,0,0,1,1.863,1.89A1.867,1.867,0,0,1,38.205-18.036ZM18.9.243a1.367,1.367,0,0,0,.459-.135c6.723-2.97,11.772-6.237,15.579-13.554.675-1.269,1.7-1.755,1.7-2.538,0-.81-1.944-2.241-2.565-2.241a14.574,14.574,0,0,0-2.241.756c-1.161.324-9.369.864-9.747.864a4.363,4.363,0,0,1-1.755-.351,1.718,1.718,0,0,0-.648-.189.248.248,0,0,0-.27.27,3.257,3.257,0,0,0,1,1.89,2.236,2.236,0,0,0,1.458.459,4.194,4.194,0,0,0,1.08-.162A71,71,0,0,1,33.588-16.47c.135,0,.27.027.27.243-.081,1.485-4.32,10.908-14.607,15.876-.432.216-.54.351-.54.459C18.711.189,18.792.243,18.9.243Zm30.591.972a1.3,1.3,0,0,0,.4-.108c7.56-3.132,9.909-6.993,10.206-15.552.027-.783.054-1.971.054-2.727,0-.783.459-1.269.459-1.7,0-.594-1.323-1.62-2.187-1.836a5.826,5.826,0,0,0-.756-.054c-.513,0-1.053.081-1.053.378,0,.324.378.216,1.026.783a2.314,2.314,0,0,1,.567,1.647c.054.864.108,1.863.108,2.862,0,6.75-1.161,11.718-8.505,15.849-.3.162-.459.27-.459.351C49.356,1.161,49.383,1.215,49.491,1.215ZM52.65-8.046c.594,0,.918-.756.918-1.431,0-.513-.108-1.269-.108-2.106,0-.513-.027-1.269-.027-2.106a19.773,19.773,0,0,1,.135-2.808,3.754,3.754,0,0,0,.081-.729c0-.594-.3-1.053-1.566-1.512a1.584,1.584,0,0,0-.621-.108c-.594,0-1.134.243-1.134.486,0,.189.216.3.567.486a1.559,1.559,0,0,1,.729,1.3,25.831,25.831,0,0,1,.216,3.915c0,.945-.162,2.7-.162,2.781C51.678-8.8,52.272-8.046,52.65-8.046ZM-4.806,28.821h-.351v-6.21a2.178,2.178,0,0,0,1-.4.193.193,0,0,0,.081-.27,5.028,5.028,0,0,0-1.917-1.512c-.216,0-.378.27-.621.54l-.432.54h-3.888V18.21l.432-.3a.386.386,0,0,0,.216-.27c0-.243-.513-.54-2.349-1.08-.189-.054-.27.027-.243.189a37.875,37.875,0,0,1,.27,4.752h-1.863c-1.107-.027-2.187-.081-3.267-.189-.189,0-.243.108-.162.243l.486.945a.2.2,0,0,0,.27.135,14.286,14.286,0,0,1,2.835-.351h1.7v3.888c0,.918-.027,1.782-.108,2.646h-3.348c-1.107-.027-2.187-.081-3.294-.189-.162,0-.243.108-.162.243l.459.945a.2.2,0,0,0,.27.135,29.776,29.776,0,0,1,3.807-.351h2.16c-.594,4.644-2.646,8.4-8.289,10.935-.135.081-.189.189-.108.3l.054.081a.19.19,0,0,0,.27.108c6.7-2.376,9.072-6.48,9.747-11.421h.027c1.026,5.724,3.213,9.423,7.749,11.367a.18.18,0,0,0,.27-.135A1.975,1.975,0,0,1-1.89,39.459c.108-.054.162-.081.189-.189a.223.223,0,0,0-.189-.216c-4.617-1.3-7.425-4.806-8.694-9.45h8.262a.623.623,0,0,0,.594-.3.319.319,0,0,0,.027-.27,5.679,5.679,0,0,0-1.917-1.809c-.216,0-.432.4-.7.81ZM-23.949,17.1a8.119,8.119,0,0,1,2.673,3.24.375.375,0,0,0,.189.216,1.252,1.252,0,0,0,.513.108.92.92,0,0,0,.891-1.026c0-.972-1.026-2.4-4.05-2.916a.256.256,0,0,0-.3.108A.178.178,0,0,0-23.949,17.1Zm-1.674,16.632V33.9a.236.236,0,0,0,.216.243,1.847,1.847,0,0,1,1.08.378c.378.243.567,1.215.567,2.592a21.644,21.644,0,0,1-.162,2.511.919.919,0,0,0-.027.27c.054.756.378,1.188.81,1.188.972,0,1.458-.864,1.458-2.187,0-2-.675-3.132-.675-4.293a8.754,8.754,0,0,1,.405-2.43c.4-1.3,2.619-7.83,3.807-11.5a.206.206,0,0,0-.162-.27l-.081-.027a.228.228,0,0,0-.27.162c-4.671,11.421-4.671,11.421-5.157,12.42-.216.54-.324.567-.648.567h-.945A.2.2,0,0,0-25.623,33.735Zm14.58-4.914c.054-.864.108-1.755.108-2.646V22.287h4.158v6.534Zm-14.742-5.616a7.122,7.122,0,0,1,2.565,2.97.375.375,0,0,0,.189.216,1.059,1.059,0,0,0,.486.108.9.9,0,0,0,.864-.972c0-.918-1-2.268-3.888-2.7a.28.28,0,0,0-.3.108A.2.2,0,0,0-25.785,23.205ZM19.359,38.784a29.015,29.015,0,0,1-4.617-.3V31.818h7.425a.737.737,0,0,0,.675-.3.319.319,0,0,0,.027-.27,6.478,6.478,0,0,0-2.16-1.809c-.216,0-.459.4-.756.81l-.54.783H14.742V25.8h7.452a.688.688,0,0,0,.648-.3.319.319,0,0,0,.027-.27,4.509,4.509,0,0,0-1.026-1,21.336,21.336,0,0,0,2.943-2.889,2.757,2.757,0,0,0,.864-.189.193.193,0,0,0,.081-.27,5.856,5.856,0,0,0-1.863-2c-.216,0-.432.351-.7.675l-.513.648H14.769V17.832l.459-.3a.386.386,0,0,0,.216-.27c0-.243-.54-.54-2.4-1.053-.162-.054-.243.027-.243.189a33.663,33.663,0,0,1,.216,3.807H5.751a8.32,8.32,0,0,0-.243-1.3c-.027-.135-.135-.162-.243-.162H5.211A.2.2,0,0,0,5,18.966,4.657,4.657,0,0,1,2.97,23.124a1.458,1.458,0,0,0-.7,1.134.815.815,0,0,0,.891.81,1.922,1.922,0,0,0,1.107-.405,4.361,4.361,0,0,0,1.539-3.672H22.68a21.274,21.274,0,0,1-1.188,2.97,2.6,2.6,0,0,0-.783-.432c-.216,0-.459.378-.756.756l-.567.729H8.289C7.182,24.987,6.1,24.933,5,24.825c-.162,0-.243.108-.162.243l.486.945a.2.2,0,0,0,.27.135A29.731,29.731,0,0,1,9.45,25.8h3.564V38.082a7.734,7.734,0,0,1-4.887-4.725A24.452,24.452,0,0,0,9.072,29.9l.486-.243c.135-.081.243-.135.243-.216,0-.216-.567-.459-2.484-.864-.162-.027-.27.027-.27.189a17.459,17.459,0,0,1-.864,5.265A15.245,15.245,0,0,1,2,40.647a.191.191,0,0,0-.027.3.192.192,0,0,0,.3.054A14.424,14.424,0,0,0,7.83,34.032c2.106,5.346,5.4,6.507,11.421,6.507H24.7a.236.236,0,0,0,.243-.216,1.365,1.365,0,0,1,.81-1.161.251.251,0,0,0,.189-.243.193.193,0,0,0-.216-.189C24.03,38.784,20.844,38.784,19.359,38.784Z"
      transform="translate(-5301.411 5003.031)" fill="#485757" />
    <path id="パス_465" data-name="パス 465"
      d="M-9.8-2.752l.016-.08c0-.08-.048-.112-.192-.16a.594.594,0,0,0-.144-.032.117.117,0,0,0-.112.1c-.544,1.472-.912,1.76-3.2,1.76h-1.9a11.859,11.859,0,0,1,2.4-3.344c1.872-1.84,3.056-2.464,3.056-4.24a2.856,2.856,0,0,0-3.152-3.008,3.046,3.046,0,0,0-3.232,2.816c0,.768.464,1.168.848,1.168a.794.794,0,0,0,.832-.848c0-.576-.464-.72-.464-1.312,0-.736.8-1.3,1.808-1.3a1.96,1.96,0,0,1,1.984,2.176c0,1.344-.88,2.5-2.224,4.064a15.575,15.575,0,0,0-2.944,4.56.273.273,0,0,0,0,.16l.08.176a.176.176,0,0,0,.16.1h5.6a.137.137,0,0,0,.144-.112C-10.328-.576-9.912-2.336-9.8-2.752ZM-4.44.224C-2.7.224-1.016-1.7-1.016-5.744S-2.68-11.76-4.408-11.76c-1.744,0-3.424,1.968-3.424,6.016S-6.168.224-4.44.224Zm.032-.544C-5.608-.32-6.44-2-6.44-5.744S-5.608-11.2-4.408-11.2s2,1.712,2,5.456S-3.208-.32-4.408-.32ZM7.656-2.752l.016-.08c0-.08-.048-.112-.192-.16a.594.594,0,0,0-.144-.032.117.117,0,0,0-.112.1c-.544,1.472-.912,1.76-3.2,1.76H2.12a11.859,11.859,0,0,1,2.4-3.344c1.872-1.84,3.056-2.464,3.056-4.24A2.856,2.856,0,0,0,4.424-11.76,3.046,3.046,0,0,0,1.192-8.944c0,.768.464,1.168.848,1.168a.794.794,0,0,0,.832-.848c0-.576-.464-.72-.464-1.312,0-.736.8-1.3,1.808-1.3A1.96,1.96,0,0,1,6.2-9.056c0,1.344-.88,2.5-2.224,4.064A15.575,15.575,0,0,0,1.032-.432a.273.273,0,0,0,0,.16l.08.176a.176.176,0,0,0,.16.1h5.6a.137.137,0,0,0,.144-.112C7.128-.576,7.544-2.336,7.656-2.752Zm5.808-3.392A2.767,2.767,0,0,0,16.04-8.928a2.865,2.865,0,0,0-3.056-2.832A2.781,2.781,0,0,0,10.1-9.552a.909.909,0,0,0,.928,1.008.644.644,0,0,0,.64-.688c0-.384-.24-.48-.24-.96,0-.912.96-1.024,1.344-1.024.816,0,1.888.48,1.888,2.432,0,2.3-1.5,2.368-1.92,2.368-.288,0-.512-.08-.816-.08a.371.371,0,0,0-.416.336c0,.208.176.336.416.336.288,0,.5-.064.72-.064A2.355,2.355,0,0,1,15.064-3.28C15.064-1.536,14.024-.3,12.6-.3,11.256-.3,11-1.072,11-1.536c0-.4.368-.544.368-.944a.812.812,0,0,0-.88-.768c-.352,0-.816.256-.816,1.008,0,.9.7,2.464,3.072,2.464a3.35,3.35,0,0,0,3.712-3.392C16.456-4.784,15.16-5.84,13.464-6.144ZM-19.93,24c.115,0,.161-.115.161-.322,0-.23-.023-.345-.161-.345h-.345c-1.357,0-2.507-.3-2.507-1.426V7.394c0-.161-.115-.207-.23-.092A6.424,6.424,0,0,1-27.5,8.889c-.115,0-.161.138-.161.322,0,.207.046.345.161.345h.391c2.415,0,2.484.092,2.484,1.334V21.907c0,1.058-1.127,1.426-2.507,1.426H-27.5c-.115,0-.161.115-.161.345,0,.207.046.322.161.322ZM-6.98,20.044l.023-.115c0-.115-.069-.161-.276-.23a.854.854,0,0,0-.207-.046.168.168,0,0,0-.161.138c-.782,2.116-1.311,2.53-4.6,2.53h-2.737a17.048,17.048,0,0,1,3.45-4.807C-8.8,14.869-7.1,13.972-7.1,11.419c0-1.863-.989-4.324-4.531-4.324a4.378,4.378,0,0,0-4.646,4.048c0,1.1.667,1.679,1.219,1.679a1.141,1.141,0,0,0,1.2-1.219c0-.828-.667-1.035-.667-1.886,0-1.058,1.15-1.863,2.6-1.863,2.162,0,2.852,1.725,2.852,3.128,0,1.932-1.265,3.588-3.2,5.842A22.389,22.389,0,0,0-16.5,23.379a.392.392,0,0,0,0,.23l.115.253a.253.253,0,0,0,.23.138h8.05a.2.2,0,0,0,.207-.161C-7.739,23.172-7.141,20.642-6.98,20.044ZM4.726,4.542l-.483-.23a.168.168,0,0,0-.23.092L-5.095,25.748a.168.168,0,0,0,.092.23l.506.23a.168.168,0,0,0,.23-.092L4.819,4.772A.168.168,0,0,0,4.726,4.542Zm7.521,10.626c2.576-.437,3.7-2.139,3.7-4a4.118,4.118,0,0,0-4.393-4.071c-2.6,0-4.14,2.024-4.14,3.174a1.307,1.307,0,0,0,1.334,1.449.926.926,0,0,0,.92-.989c0-.552-.345-.69-.345-1.38,0-1.311,1.38-1.472,1.932-1.472,1.173,0,2.714.69,2.714,3.5,0,3.312-2.162,3.4-2.76,3.4-.414,0-.736-.115-1.173-.115a.533.533,0,0,0-.6.483c0,.3.253.483.6.483.414,0,.713-.092,1.035-.092,2.208,0,3.473,1.564,3.473,3.749,0,2.507-1.495,4.278-3.542,4.278-1.932,0-2.3-1.1-2.3-1.771,0-.575.529-.782.529-1.357a1.167,1.167,0,0,0-1.265-1.1c-.506,0-1.173.368-1.173,1.449,0,1.288,1.012,3.542,4.416,3.542,4.347,0,5.336-3.174,5.336-4.876C16.549,17.123,14.686,15.6,12.248,15.168ZM28,24c.115,0,.161-.115.161-.322,0-.23-.023-.345-.161-.345h-.345c-1.357,0-2.507-.3-2.507-1.426V7.394c0-.161-.115-.207-.23-.092a6.424,6.424,0,0,1-4.485,1.587c-.115,0-.161.138-.161.322,0,.207.046.345.161.345h.391c2.415,0,2.484.092,2.484,1.334V21.907c0,1.058-1.127,1.426-2.507,1.426h-.368c-.115,0-.161.115-.161.345,0,.207.046.322.161.322Z"
      transform="translate(-5463.404 4787)" fill="#485757" />
    <path id="パス_464" data-name="パス 464"
      d="M-9.8-2.752l.016-.08c0-.08-.048-.112-.192-.16a.594.594,0,0,0-.144-.032.117.117,0,0,0-.112.1c-.544,1.472-.912,1.76-3.2,1.76h-1.9a11.859,11.859,0,0,1,2.4-3.344c1.872-1.84,3.056-2.464,3.056-4.24a2.856,2.856,0,0,0-3.152-3.008,3.046,3.046,0,0,0-3.232,2.816c0,.768.464,1.168.848,1.168a.794.794,0,0,0,.832-.848c0-.576-.464-.72-.464-1.312,0-.736.8-1.3,1.808-1.3a1.96,1.96,0,0,1,1.984,2.176c0,1.344-.88,2.5-2.224,4.064a15.575,15.575,0,0,0-2.944,4.56.273.273,0,0,0,0,.16l.08.176a.176.176,0,0,0,.16.1h5.6a.137.137,0,0,0,.144-.112C-10.328-.576-9.912-2.336-9.8-2.752ZM-4.44.224C-2.7.224-1.016-1.7-1.016-5.744S-2.68-11.76-4.408-11.76c-1.744,0-3.424,1.968-3.424,6.016S-6.168.224-4.44.224Zm.032-.544C-5.608-.32-6.44-2-6.44-5.744S-5.608-11.2-4.408-11.2s2,1.712,2,5.456S-3.208-.32-4.408-.32ZM7.656-2.752l.016-.08c0-.08-.048-.112-.192-.16a.594.594,0,0,0-.144-.032.117.117,0,0,0-.112.1c-.544,1.472-.912,1.76-3.2,1.76H2.12a11.859,11.859,0,0,1,2.4-3.344c1.872-1.84,3.056-2.464,3.056-4.24A2.856,2.856,0,0,0,4.424-11.76,3.046,3.046,0,0,0,1.192-8.944c0,.768.464,1.168.848,1.168a.794.794,0,0,0,.832-.848c0-.576-.464-.72-.464-1.312,0-.736.8-1.3,1.808-1.3A1.96,1.96,0,0,1,6.2-9.056c0,1.344-.88,2.5-2.224,4.064A15.575,15.575,0,0,0,1.032-.432a.273.273,0,0,0,0,.16l.08.176a.176.176,0,0,0,.16.1h5.6a.137.137,0,0,0,.144-.112C7.128-.576,7.544-2.336,7.656-2.752Zm5.808-3.392A2.767,2.767,0,0,0,16.04-8.928a2.865,2.865,0,0,0-3.056-2.832A2.781,2.781,0,0,0,10.1-9.552a.909.909,0,0,0,.928,1.008.644.644,0,0,0,.64-.688c0-.384-.24-.48-.24-.96,0-.912.96-1.024,1.344-1.024.816,0,1.888.48,1.888,2.432,0,2.3-1.5,2.368-1.92,2.368-.288,0-.512-.08-.816-.08a.371.371,0,0,0-.416.336c0,.208.176.336.416.336.288,0,.5-.064.72-.064A2.355,2.355,0,0,1,15.064-3.28C15.064-1.536,14.024-.3,12.6-.3,11.256-.3,11-1.072,11-1.536c0-.4.368-.544.368-.944a.812.812,0,0,0-.88-.768c-.352,0-.816.256-.816,1.008,0,.9.7,2.464,3.072,2.464a3.35,3.35,0,0,0,3.712-3.392C16.456-4.784,15.16-5.84,13.464-6.144ZM-27.152,24.3c.759,0,1.15-.6,1.15-1.748,0-4.692.782-7.222,5.152-14.674a.247.247,0,0,0,.023-.253l-.115-.23a.253.253,0,0,0-.23-.138h-8.648A.175.175,0,0,0-30,7.417c-.23,1.012-.759,3.473-.92,4.209a1.028,1.028,0,0,0-.046.253c0,.092.046.138.276.207a.711.711,0,0,0,.184.046c.092,0,.115,0,.184-.138.782-2.139,1.127-3.059,4.025-3.059h4.071c-1.886,2.967-6.095,9.683-6.095,13.409C-28.324,23.241-28.025,24.3-27.152,24.3ZM-9,4.542l-.483-.23a.168.168,0,0,0-.23.092l-9.108,21.344a.168.168,0,0,0,.092.23l.506.23a.168.168,0,0,0,.23-.092L-8.912,4.772A.168.168,0,0,0-9,4.542ZM1.553,24c.115,0,.161-.115.161-.322,0-.23-.023-.345-.161-.345H1.208c-1.357,0-2.507-.3-2.507-1.426V7.394c0-.161-.115-.207-.23-.092A6.424,6.424,0,0,1-6.014,8.889c-.115,0-.161.138-.161.322,0,.207.046.345.161.345h.391c2.415,0,2.484.092,2.484,1.334V21.907c0,1.058-1.127,1.426-2.507,1.426h-.368c-.115,0-.161.115-.161.345,0,.207.046.322.161.322ZM9.533,13.259a4.726,4.726,0,0,0-3.588,1.794L6.2,9.027h6.854a.2.2,0,0,0,.184-.161l.253-1.357c.023-.138-.046-.207-.161-.207H5.646c-.115,0-.184.046-.184.184L5.14,15.858a.234.234,0,0,0,.115.23l.391.253a.191.191,0,0,0,.276-.046,4.113,4.113,0,0,1,3.151-2.07c1.886,0,3.128,1.817,3.128,4.623,0,2.875-1.518,4.715-3.243,4.715-.92,0-2.116-.46-2.116-1.679,0-.483.253-.782.253-1.334A1.128,1.128,0,0,0,5.83,19.469c-.414,0-1.081.276-1.081,1.426,0,2.3,2.392,3.427,4.416,3.427a5.4,5.4,0,0,0,5.06-5.635C14.226,14.041,10.844,13.259,9.533,13.259Zm17.618,3.956a4.844,4.844,0,0,0,3.726-1.932c.046-.069.046-.069.046-.115,0-.092-.161-.184-.23-.184s-.069,0-.161.069a4.343,4.343,0,0,1-2.6.828c-1.472,0-4.761-1.725-6.417-1.725a6.033,6.033,0,0,0-4.094,2.024.127.127,0,0,0-.046.115.245.245,0,0,0,.23.207.283.283,0,0,0,.161-.046,6.376,6.376,0,0,1,2.99-.9C23.08,15.559,25.219,17.215,27.152,17.215Z"
      transform="translate(-5463.731 4579.665)" fill="#485757" />
    <path id="パス_466" data-name="パス 466"
      d="M-9.64-2.752l.016-.08c0-.08-.048-.112-.192-.16a.594.594,0,0,0-.144-.032.117.117,0,0,0-.112.1c-.544,1.472-.912,1.76-3.2,1.76h-1.9a11.859,11.859,0,0,1,2.4-3.344C-10.9-6.352-9.72-6.976-9.72-8.752a2.856,2.856,0,0,0-3.152-3.008A3.046,3.046,0,0,0-16.1-8.944c0,.768.464,1.168.848,1.168a.794.794,0,0,0,.832-.848c0-.576-.464-.72-.464-1.312,0-.736.8-1.3,1.808-1.3A1.96,1.96,0,0,1-11.1-9.056c0,1.344-.88,2.5-2.224,4.064a15.575,15.575,0,0,0-2.944,4.56.273.273,0,0,0,0,.16l.08.176a.176.176,0,0,0,.16.1h5.6a.137.137,0,0,0,.144-.112C-10.168-.576-9.752-2.336-9.64-2.752ZM-4.28.224C-2.536.224-.856-1.7-.856-5.744S-2.52-11.76-4.248-11.76c-1.744,0-3.424,1.968-3.424,6.016S-6.008.224-4.28.224Zm.032-.544C-5.448-.32-6.28-2-6.28-5.744S-5.448-11.2-4.248-11.2s2,1.712,2,5.456S-3.048-.32-4.248-.32ZM7.816-2.752l.016-.08c0-.08-.048-.112-.192-.16A.594.594,0,0,0,7.5-3.024a.117.117,0,0,0-.112.1c-.544,1.472-.912,1.76-3.2,1.76H2.28a11.859,11.859,0,0,1,2.4-3.344c1.872-1.84,3.056-2.464,3.056-4.24A2.856,2.856,0,0,0,4.584-11.76,3.046,3.046,0,0,0,1.352-8.944c0,.768.464,1.168.848,1.168a.794.794,0,0,0,.832-.848c0-.576-.464-.72-.464-1.312,0-.736.8-1.3,1.808-1.3A1.96,1.96,0,0,1,6.36-9.056c0,1.344-.88,2.5-2.224,4.064A15.575,15.575,0,0,0,1.192-.432a.273.273,0,0,0,0,.16l.08.176a.176.176,0,0,0,.16.1h5.6a.137.137,0,0,0,.144-.112C7.288-.576,7.7-2.336,7.816-2.752ZM16.7-3.3h-1.68V-11.5a.154.154,0,0,0-.112-.144l-.416-.08a.131.131,0,0,0-.16.064L9.544-3.376a.358.358,0,0,0-.048.16v.464a.118.118,0,0,0,.128.128H13.8V-1.04c0,.512-.576.576-1.1.576h-.208c-.1,0-.128.08-.128.224s.032.24.128.24h3.84c.112,0,.144-.1.144-.24s-.032-.224-.144-.224H16.12c-.528,0-1.1-.064-1.1-.576V-2.624H16.7a.118.118,0,0,0,.128-.128v-.416A.118.118,0,0,0,16.7-3.3ZM13.8-9.44V-3.3H10.264ZM-13.386,20.044l.023-.115c0-.115-.069-.161-.276-.23a.854.854,0,0,0-.207-.046.168.168,0,0,0-.161.138c-.782,2.116-1.311,2.53-4.6,2.53h-2.737a17.048,17.048,0,0,1,3.45-4.807c2.691-2.645,4.393-3.542,4.393-6.095,0-1.863-.989-4.324-4.531-4.324a4.378,4.378,0,0,0-4.646,4.048c0,1.1.667,1.679,1.219,1.679a1.141,1.141,0,0,0,1.2-1.219c0-.828-.667-1.035-.667-1.886,0-1.058,1.15-1.863,2.6-1.863,2.162,0,2.852,1.725,2.852,3.128,0,1.932-1.265,3.588-3.2,5.842a22.389,22.389,0,0,0-4.232,6.555.392.392,0,0,0,0,.23l.115.253a.253.253,0,0,0,.23.138h8.05a.2.2,0,0,0,.207-.161C-14.145,23.172-13.547,20.642-13.386,20.044Zm11.707-15.5-.483-.23a.168.168,0,0,0-.23.092L-11.5,25.748a.168.168,0,0,0,.092.23l.506.23a.168.168,0,0,0,.23-.092L-1.587,4.772A.168.168,0,0,0-1.679,4.542Zm11.615,15.5.023-.115c0-.115-.069-.161-.276-.23a.854.854,0,0,0-.207-.046.168.168,0,0,0-.161.138c-.782,2.116-1.311,2.53-4.6,2.53H1.978a17.048,17.048,0,0,1,3.45-4.807c2.691-2.645,4.393-3.542,4.393-6.095,0-1.863-.989-4.324-4.531-4.324A4.378,4.378,0,0,0,.644,11.143c0,1.1.667,1.679,1.219,1.679a1.141,1.141,0,0,0,1.2-1.219c0-.828-.667-1.035-.667-1.886,0-1.058,1.15-1.863,2.6-1.863,2.162,0,2.852,1.725,2.852,3.128,0,1.932-1.265,3.588-3.2,5.842A22.389,22.389,0,0,0,.414,23.379a.392.392,0,0,0,0,.23l.115.253A.253.253,0,0,0,.759,24h8.05a.2.2,0,0,0,.207-.161C9.177,23.172,9.775,20.642,9.936,20.044Zm8.993-5.2c1.587-.8,3.082-1.955,3.082-3.933,0-2.461-2.139-3.818-4.324-3.818a4.12,4.12,0,0,0-4.347,4.14c0,2.507,1.587,3.542,3.2,4.37-2.047,1.1-3.7,2.093-3.7,4.37,0,2.622,2.484,4.347,5.106,4.347a4.9,4.9,0,0,0,4.991-4.761C22.931,16.893,20.631,15.835,18.929,14.846Zm-4.14-4.255A2.743,2.743,0,0,1,17.5,7.854a2.857,2.857,0,0,1,2.783,3.105A4.272,4.272,0,0,1,18.4,14.547C16.353,13.328,14.789,12.431,14.789,10.591ZM17.71,23.54c-2,0-3.082-1.817-3.082-3.588a5.25,5.25,0,0,1,2.415-4.094c1.84.966,4.14,2.139,4.14,4.048A3.337,3.337,0,0,1,17.71,23.54Z"
      transform="translate(-5463.404 4892.491)" fill="#485757" />
    <path id="パス_467" data-name="パス 467"
      d="M-9.64-2.752l.016-.08c0-.08-.048-.112-.192-.16a.594.594,0,0,0-.144-.032.117.117,0,0,0-.112.1c-.544,1.472-.912,1.76-3.2,1.76h-1.9a11.859,11.859,0,0,1,2.4-3.344C-10.9-6.352-9.72-6.976-9.72-8.752a2.856,2.856,0,0,0-3.152-3.008A3.046,3.046,0,0,0-16.1-8.944c0,.768.464,1.168.848,1.168a.794.794,0,0,0,.832-.848c0-.576-.464-.72-.464-1.312,0-.736.8-1.3,1.808-1.3A1.96,1.96,0,0,1-11.1-9.056c0,1.344-.88,2.5-2.224,4.064a15.575,15.575,0,0,0-2.944,4.56.273.273,0,0,0,0,.16l.08.176a.176.176,0,0,0,.16.1h5.6a.137.137,0,0,0,.144-.112C-10.168-.576-9.752-2.336-9.64-2.752ZM-4.28.224C-2.536.224-.856-1.7-.856-5.744S-2.52-11.76-4.248-11.76c-1.744,0-3.424,1.968-3.424,6.016S-6.008.224-4.28.224Zm.032-.544C-5.448-.32-6.28-2-6.28-5.744S-5.448-11.2-4.248-11.2s2,1.712,2,5.456S-3.048-.32-4.248-.32ZM7.816-2.752l.016-.08c0-.08-.048-.112-.192-.16A.594.594,0,0,0,7.5-3.024a.117.117,0,0,0-.112.1c-.544,1.472-.912,1.76-3.2,1.76H2.28a11.859,11.859,0,0,1,2.4-3.344c1.872-1.84,3.056-2.464,3.056-4.24A2.856,2.856,0,0,0,4.584-11.76,3.046,3.046,0,0,0,1.352-8.944c0,.768.464,1.168.848,1.168a.794.794,0,0,0,.832-.848c0-.576-.464-.72-.464-1.312,0-.736.8-1.3,1.808-1.3A1.96,1.96,0,0,1,6.36-9.056c0,1.344-.88,2.5-2.224,4.064A15.575,15.575,0,0,0,1.192-.432a.273.273,0,0,0,0,.16l.08.176a.176.176,0,0,0,.16.1h5.6a.137.137,0,0,0,.144-.112C7.288-.576,7.7-2.336,7.816-2.752ZM16.7-3.3h-1.68V-11.5a.154.154,0,0,0-.112-.144l-.416-.08a.131.131,0,0,0-.16.064L9.544-3.376a.358.358,0,0,0-.048.16v.464a.118.118,0,0,0,.128.128H13.8V-1.04c0,.512-.576.576-1.1.576h-.208c-.1,0-.128.08-.128.224s.032.24.128.24h3.84c.112,0,.144-.1.144-.24s-.032-.224-.144-.224H16.12c-.528,0-1.1-.064-1.1-.576V-2.624H16.7a.118.118,0,0,0,.128-.128v-.416A.118.118,0,0,0,16.7-3.3ZM13.8-9.44V-3.3H10.264Zm-44.1,28.7h-2.415V7.463a.221.221,0,0,0-.161-.207l-.6-.115a.188.188,0,0,0-.23.092l-6.877,11.914a.514.514,0,0,0-.069.23v.667a.169.169,0,0,0,.184.184h6v2.277c0,.736-.828.828-1.587.828h-.3c-.138,0-.184.115-.184.322s.046.345.184.345h5.52c.161,0,.207-.138.207-.345s-.046-.322-.207-.322h-.3c-.759,0-1.587-.092-1.587-.828V20.228H-30.3a.169.169,0,0,0,.184-.184v-.6A.169.169,0,0,0-30.3,19.262Zm-4.163-8.832v8.832h-5.083Zm21.5,7.176v5.7c0,.391-.092.552-.575.552-.46,0-2.415-.138-3.036-.184-.115-.023-.184.046-.184.161v.023c0,.115.069.161.184.184a5.588,5.588,0,0,1,2,.6,1.6,1.6,0,0,1,.529.943c.046.115.115.184.23.161,2.07-.253,2.323-1.058,2.323-2.254V7.486a1.623,1.623,0,0,0,.851-.368c.069-.069.092-.138.046-.207a4.662,4.662,0,0,0-1.748-1.38c-.184,0-.322.253-.506.483l-.322.483h-8.165l-1.748-.759c-.138-.046-.207.023-.184.161a33.552,33.552,0,0,1,.207,3.818V13.7c0,4.6-.667,8.579-4.324,11.684-.115.069-.115.161-.023.253l.046.046a.18.18,0,0,0,.253.023,10.847,10.847,0,0,0,5.221-8.1Zm0-5.957h-8.671V7.187h8.671Zm-8.671.69h8.671v4.623h-8.832a31.184,31.184,0,0,0,.161-3.289ZM.265,4.7A13.461,13.461,0,0,1-1.966,8.429,16.937,16.937,0,0,1-3.9,10.522a.163.163,0,0,0-.023.253l.023.023a.163.163,0,0,0,.253.023A22.426,22.426,0,0,0,1.714,6.106l.414-.046c.161-.023.253-.069.253-.161,0-.115-.23-.322-.828-.6L.518,4.611A.154.154,0,0,0,.265,4.7ZM6.153,9.234A18.005,18.005,0,0,0,9.028,6.106l.414-.092c.138-.023.23-.069.23-.138,0-.184-.46-.529-1.978-1.288-.138-.046-.23-.023-.253.115A17.46,17.46,0,0,1,5.693,8.866v.023A10.736,10.736,0,0,0,3.462,7.854a.251.251,0,0,0-.253.046c-.069.069-.069.161.023.253A14.236,14.236,0,0,1,6.084,11.6a.258.258,0,0,0,.161.184.9.9,0,0,0,.414.092A.676.676,0,0,0,7.3,11.12,2.679,2.679,0,0,0,6.153,9.234Zm1.518,5.221c2.369-.3,4.347-.575,6.072-.828a7.835,7.835,0,0,1,1.012,1.932.319.319,0,0,0,.161.184.717.717,0,0,0,.46.138c.391,0,.644-.322.644-.851,0-1.035-1.058-2.852-4.278-4.278a.206.206,0,0,0-.253.023c-.069.046-.069.138.023.23A17.813,17.813,0,0,1,13.4,13.144c-2.208.115-4.324.207-6.164.253a43.426,43.426,0,0,0,5.451-5.52l.437-.023c.138,0,.23-.023.23-.115,0-.161-.437-.529-1.84-1.38-.115-.069-.207-.046-.253.069A17.769,17.769,0,0,1,9.12,10.085c-.874,1.173-1.817,2.346-2.737,3.358-1.7.046-3.1.092-4.048.092-.138,0-.184.069-.161.207l.414,1.541a.164.164,0,0,0,.23.138.805.805,0,0,0,.414-.414c1.334-.161,2.553-.3,3.7-.46a21.085,21.085,0,0,1-5.29,6.923.163.163,0,0,0-.023.253l.023.023a.184.184,0,0,0,.253.046,17.348,17.348,0,0,0,4.232-3.45,12.613,12.613,0,0,0,2.185,3.289,18.749,18.749,0,0,1-6.854,3.68.154.154,0,0,0-.115.23l.023.046c.046.092.115.161.23.115a18.77,18.77,0,0,0,7.567-3.266A16.218,16.218,0,0,0,15.192,25.7a.176.176,0,0,0,.23-.138A1.548,1.548,0,0,1,16.5,24.483c.115-.046.161-.092.161-.184s-.046-.138-.161-.161a19.3,19.3,0,0,1-6.371-2.484A13.847,13.847,0,0,0,13.1,17.7a1.591,1.591,0,0,0,.874-.184.178.178,0,0,0,.046-.23,4.031,4.031,0,0,0-1.5-1.4c-.184,0-.368.253-.621.483l-.46.483H7.326a14.743,14.743,0,0,0,.92-1.4l.437-.092c.161-.023.253-.092.253-.161C8.936,15.053,8.614,14.823,7.671,14.455Zm-8.763,4.9c-.046,2.99-.115,4-.253,5.98a.534.534,0,0,0,.552.46,1.89,1.89,0,0,0,1.219-.552.3.3,0,0,0,.092-.23C.426,23.379.38,22.436.334,19.745V14.524l.322-.138c.115-.069.207-.138.207-.23,0-.161-.207-.414-.713-.828a32.663,32.663,0,0,0,1.932-2.691l.414-.069c.138-.023.23-.069.23-.138,0-.184-.46-.529-1.932-1.288C.656,9.1.564,9.119.541,9.257A18.04,18.04,0,0,1-1.253,13.19a30.3,30.3,0,0,1-2.852,3.887.18.18,0,0,0,0,.253l.023.023a.18.18,0,0,0,.253,0,22.271,22.271,0,0,0,2.737-2.576ZM11.4,17.491a12.247,12.247,0,0,1-2.323,3.4,10.292,10.292,0,0,1-2.622-2.944c.138-.161.276-.3.391-.46Zm24.173-5.037H30.533V6.106l.368-.253a.329.329,0,0,0,.184-.23c0-.207-.46-.46-2.116-.943-.161-.046-.23.023-.207.161a39.005,39.005,0,0,1,.253,4.485v3.128H23.978c-.943-.023-1.863-.069-2.806-.161-.138,0-.207.092-.138.207l.414.805a.172.172,0,0,0,.23.115,25.326,25.326,0,0,1,3.289-.3h4.048v4.646h-6.44c-.943-.023-1.863-.069-2.806-.161-.138,0-.207.092-.138.207l.414.805a.172.172,0,0,0,.23.115,25.327,25.327,0,0,1,3.289-.3h5.451V20.9c-.046,2.231-.092,2.99-.207,4.462a.488.488,0,0,0,.506.46,1.844,1.844,0,0,0,1.311-.644.3.3,0,0,0,.069-.23c-.092-1.311-.115-2.07-.161-4.255V18.434h8.924a.57.57,0,0,0,.529-.253.209.209,0,0,0,0-.23,6.7,6.7,0,0,0-2.047-1.7c-.184,0-.414.391-.713.759l-.529.759H30.533V13.121h7.59a.654.654,0,0,0,.575-.253.272.272,0,0,0,.023-.23,6.2,6.2,0,0,0-1.978-1.633c-.184,0-.391.368-.667.736Zm-.276-7.038a21.684,21.684,0,0,1-1.748,4.439c-.3.529-.6,1.035-.874,1.449a.185.185,0,0,0,.069.253l.023.023c.092.046.184.069.253-.023a21.49,21.49,0,0,0,3.91-4.738l.437-.115c.184-.046.3-.115.3-.207,0-.138-.276-.322-.966-.552L35.523,5.3C35.409,5.232,35.316,5.278,35.293,5.416Zm-12.949.6a12.715,12.715,0,0,1,2.53,5.037.373.373,0,0,0,.115.207,1.033,1.033,0,0,0,.552.207c.437,0,.759-.437.759-1.127,0-1.15-.9-2.99-3.68-4.577a.248.248,0,0,0-.253,0C22.3,5.807,22.275,5.9,22.344,6.014Z"
      transform="translate(-5463.731 4985.031)" fill="#485757" />
    <g id="グループ_245" data-name="グループ 245" transform="translate(-5571.322 2195.224)">
      <g id="楕円形_17" data-name="楕円形 17" transform="translate(194.251 2371) rotate(90)" fill="#fff"
        stroke="#485757" strokeWidth="1">
        <circle cx="19.5" cy="19.5" r="19.5" stroke="none" />
        <circle cx="19.5" cy="19.5" r="19" fill="none" />
      </g>
      <circle id="楕円形_18" data-name="楕円形 18" cx="6.5" cy="6.5" r="6.5"
        transform="translate(181.25 2384) rotate(90)" fill="#485757" />
      <circle id="楕円形_19" data-name="楕円形 19" cx="6.5" cy="6.5" r="6.5"
        transform="translate(181.25 2592) rotate(90)" fill="#485757" />
      <line id="線_60" data-name="線 60" y2="406.176" transform="translate(174.75 2390.5)" fill="none"
        stroke="#485757" strokeWidth="1" />
      <circle id="楕円形_21" data-name="楕円形 21" cx="6.5" cy="6.5" r="6.5"
        transform="translate(181.25 2698) rotate(90)" fill="#485757" />
      <circle id="楕円形_22" data-name="楕円形 22" cx="6.5" cy="6.5" r="6.5"
        transform="translate(181.25 2790) rotate(90)" fill="#485757" />
    </g>
    <path id="パス_424" data-name="パス 424"
      d="M-63.774-4.239c0-.135-.243-.216-.4-.216-.108,0-.162.027-.189.081-.81,2.268-3,2.4-6.021,2.4-.675,0-1.188-.027-1.836-.081-.108-.054-.27-.162-.27-.324a.456.456,0,0,1,.054-.135c1.917-2.889,4.617-4.779,6.534-7.668a8.959,8.959,0,0,0,1.647-4.914,4.685,4.685,0,0,0-4.833-5.022c-4.023,0-5.751,4.671-5.751,4.941a.393.393,0,0,0,.378.4.39.39,0,0,0,.378-.243c1.728-3.159,3.861-3.24,4.509-3.24,2.295,0,3,1.458,3,3.159a9.72,9.72,0,0,1-.945,3.915c-1.674,3.564-5.805,8.694-8.5,10.233-.081.054-.135.108-.135.162,0,.27.567.594.756.594h.027c1.3-.108,2.916-.135,4.455-.135,3.1,0,6.021.135,6.021.135a.328.328,0,0,0,.216-.3c.135-.81.513-1.593.918-3.726ZM-29.214.27c-6.345-2.079-8.532-7.83-8.829-13.5l.108-.054c.27-.108.432-.243.432-.378,0-.486-2.619-.783-2.727-.783-.324,0-.324.027-.324.027,0,.027.027.054.027.081a8.685,8.685,0,0,1,.3,2.133v.081c0,6.291-3.1,12.042-11.205,13.608a1.627,1.627,0,0,0-.675.243c0,.054.081.054.3.054.54,0,12.96-.27,13.014-14.067,0-.729.108-.756.4-.837v.189c0,5.94,2.673,11.88,6.48,14.229a.162.162,0,0,0,.108.027c.081,0,.162-.081.216-.108.729-.432,2.646-.54,2.646-.783C-28.944.378-29.025.324-29.214.27ZM-32.4-17.2a.641.641,0,0,0-.324.081,3.062,3.062,0,0,1-.918.513H-41.58c.513-1.053,1-2.133,1.377-3.105.162-.459.135-.432.621-.513.405-.054.756-.189.756-.405,0-.486-2.511-1.188-2.646-1.188s-.108.081-.135.3a10.663,10.663,0,0,1-.216,1.7c-.756,2.862-3.1,8.235-4.509,9.8a.69.69,0,0,0-.189.324.072.072,0,0,0,.081.081c.567,0,2.538-2.457,4.536-6.318h8.262c.081,0,.135.054.135.162,0,.189-.216.594-1.809,3.159a.484.484,0,0,0-.108.216.094.094,0,0,0,.027.054c.054,0,.108-.054.216-.108.837-.486,2.808-2.43,3.807-2.484.729-.027,1.026-.3,1.026-.594C-30.348-16.173-31.941-17.2-32.4-17.2Zm-10.584,8.37c0-.027-.027-.054-.108-.054a.715.715,0,0,0-.27.081,76.527,76.527,0,0,1-7.992,3.186A7.39,7.39,0,0,1-53.19-5.4h-.378c-.027,0-.027,0-.027.054,0,.108,1.107,1.755,1.485,1.755.162,0,.216-.216.486-.351C-49.977-4.7-42.984-8.37-42.984-8.829Zm-8.316-8.91c-.054,0-.567,0-.567.081,0,.054.108.108.27.216a11.144,11.144,0,0,1,2.7,2.511c.432.648.864.891,1.242.891.432,0,.756-.378.756-.945C-46.9-16.767-49.491-17.739-51.3-17.739Zm44.739,6.156c.216,0,.3.054.3.162,0,.513-3.834,3.51-4.05,3.645a.2.2,0,0,0-.054.108.1.1,0,0,0,.108.108,40.6,40.6,0,0,0,4.968-2.484,3.02,3.02,0,0,1,1.863-.54c.513,0,.864-.27.864-.621,0-.594-1.809-2.16-2.3-2.16a.588.588,0,0,0-.27.108c-.189.108-.459.459-.7.648a1.105,1.105,0,0,1-.7.3H-17.28c-1.188,0-4.563-.027-8.208-.4,0,.4.783,1.323,1.3,1.323h.054c2.133-.162,2.943-.189,6.8-.189h2.673c.081.351.216,1.188.216,7.425,0,1.134,0,2.187-.027,2.619a1.468,1.468,0,0,1-1.7,1.593,23.051,23.051,0,0,1-3.294-.486,2.836,2.836,0,0,0-.351-.054c-.081,0-.108.027-.108.054,0,.243,2.727,1.4,3.078,1.917a.5.5,0,0,0,.459.27c1.89-.108,3.213-1.053,3.267-3,0-.54-.108-2.025-.108-2.43V-5.238c0-5.562,0-5.589.324-5.67.27-.054.513-.243.513-.432,0-.081-.054-.162-.189-.243Zm-3.591-7.533c.243,0,.324.081.324.162,0,.189-.783,1.08-3.321,3.618a12.261,12.261,0,0,0-4.779-1.485c-.054,0-.108,0-.108.027s.081.081.216.162A16.028,16.028,0,0,1-13.446-13.2a.925.925,0,0,0,.756.513.919.919,0,0,0,.783-1c0-.324-.135-.756-.81-1.323,1.269-.81,3-2.025,4.077-2.754a4.308,4.308,0,0,1,1.755-.621c.351-.054.729-.324.729-.648,0-.594-1.7-1.809-2.16-1.809-.108,0-.216.054-1.026.7a1.016,1.016,0,0,1-.756.3H-12.96c-1.107,0-5.67-.054-9.693-.432,0,.432.783,1.35,1.323,1.35h.027c2.268-.189,3.7-.189,8.289-.189ZM6.291-8.775c0,4.833-.054,5.346-.459,5.7A13.42,13.42,0,0,1,1.485-.324c-.162.027-.216.081-.216.135A5.6,5.6,0,0,0,3.024,1.4c.27,0,.324-.513.432-.621,1.269-1.35,2.862-3.051,3.51-3.861C8.154,1.215,13.23,1.35,16.578,1.35A75.9,75.9,0,0,0,24.327.891c.243-.054.27-.189.405-.378.594-.891,2.241-1.917,2.241-2.106,0-.027-.027-.027-.054-.027a1.758,1.758,0,0,0-.486.108,45.7,45.7,0,0,1-11.448,1.4c-3.942,0-5.049-.567-5.94-1.161a14.186,14.186,0,0,0,5.886-2.268c.243-.162.324-.189.432-.189.081,0,.189.027.378.054.216,0,.567,0,.567-.216,0-.27-.864-1.053-1.4-1.4a.233.233,0,0,0-.162-.081c-.081,0-.108.081-.189.216-.729,1.431-4.131,3.132-5.859,3.618A2.766,2.766,0,0,1,7.533-3.753c0-.432-.027-.972-.027-1.539,0-1.269.054-2.727.135-3.591.054-.648.378-.54.729-.675.3-.108.783-.324.783-.648,0-.675-2-1.431-2.079-1.431-.108,0-.162.027-.7.567a.648.648,0,0,1-.432.243H5.427A23.9,23.9,0,0,1,2.106-11.2c0,.378.729,1.431,1.161,1.431h.054a14.276,14.276,0,0,1,2.079-.3h.567a.291.291,0,0,1,.324.3ZM25.056-5.886c.432,0,.567-.162.567-.324,0-.513-1.647-1.755-2.025-1.755-.054,0-.108.027-.216.108a9.438,9.438,0,0,0-.837,1c-.108.135-.243.3-.4.3H19.413V-9.585h4.266c.459,0,.594-.135.594-.3a4.179,4.179,0,0,0-1.89-1.647.376.376,0,0,0-.243.108,6.576,6.576,0,0,0-.81.864c-.108.135-.243.324-.432.324H19.413c0-.243.027-.459.027-.648.027-1-.054-.945.378-1.107.243-.108.405-.216.405-.351,0-.351-1.593-.7-2.133-.7-.054,0-.054.027-.054.054a.475.475,0,0,0,.027.162,7.564,7.564,0,0,1,.243,2.079v.513H14.931c0-.243.027-.459.027-.648.054-1,.027-.945.378-1.107.243-.108.405-.243.405-.378,0-.4-2.079-.675-2.133-.675s-.054.027-.054.054a.475.475,0,0,0,.027.162,7.37,7.37,0,0,1,.243,2.052v.513c-1.134-.027-2.484-.135-4.131-.324,0,.3.783,1.215,1.269,1.215h.027c1.3-.135,2.106-.162,2.835-.189v.081c0,.081-.027,1.809-.054,2.916-1.593-.054-3.645-.162-5.4-.378,0,.324.864,1.3,1.35,1.3h.027a51.516,51.516,0,0,1,5.67-.243ZM22.167-17.145c0,.135-.027.243-.027.378a.467.467,0,0,0,.486.486.823.823,0,0,0,.837-.729c0-.567-.108-1.539-.108-1.89v-.135c0-.378.027-.189.459-.486.216-.135.486-.3.486-.567,0-.513-1.539-1.35-1.7-1.35s-.351.216-.648.567a.46.46,0,0,1-.351.216h-.756a28.209,28.209,0,0,1-4.023-.324c0,.3.648,1.242,1.134,1.242h.027a21.929,21.929,0,0,1,3.24-.216h.648a.3.3,0,0,1,.3.3c.027.324.027.621.027.945,0,.3,0,.594-.027.891H19.3a14.157,14.157,0,0,0-1.539-.675c-.054,0-.081-.027-.135-.027s-.081.054-.081.108v.108a6.616,6.616,0,0,1,.135,1.4c0,.378,0,1.107-.027,1.674v.189c0,1.593,1.377,1.7,2.835,1.7,1.863,0,4.833-.027,4.833-1.107a.635.635,0,0,0-.594-.567c-.189-.027-.243-1.755-.459-1.755-.027,0-.081.054-.135.189-.4,1.026-.621,1.863-1.026,1.971a10.359,10.359,0,0,1-1.917.135c-2.349,0-2.349-.135-2.349-1.134,0-1.3.027-1.323.486-1.512.027-.027.027-.027.054-.027Zm-7.965.378a.453.453,0,0,0,.486.486.791.791,0,0,0,.783-.729c0-.567-.108-1.539-.108-1.89v-.243c0-.243.027-.108.432-.378.189-.135.486-.324.486-.567,0-.54-1.431-1.35-1.674-1.35-.081,0-.189.054-.594.567a.46.46,0,0,1-.351.216h-.81a22.572,22.572,0,0,1-3.726-.324c0,.3.675,1.242,1.161,1.242h.027a17.2,17.2,0,0,1,2.916-.216h.7a.3.3,0,0,1,.3.3c.027.324.027.621.027.945,0,.3,0,.594-.027.891H11.421a7.756,7.756,0,0,0-1.647-.7c-.054,0-.081.027-.081.108v.108a6.616,6.616,0,0,1,.135,1.4c0,.378,0,1.107-.027,1.674v.189c0,1.215.675,1.7,2.808,1.7,1.188,0,4.293-.027,4.293-1.107a.664.664,0,0,0-.621-.567c-.189-.027-.27-1.836-.486-1.836-.054,0-.081.054-.135.189-.378,1.026-.621,1.944-1.053,2.052a7.212,7.212,0,0,1-1.512.108c-1.944,0-2.133-.135-2.133-.972,0-1.431.081-1.458.513-1.647.027-.027.027-.027.054-.027H14.2Zm4.1,7.29c0,.054-.054,1.863-.054,2.916H14.958c0-.756-.027-1.971-.027-3.024h3.375ZM7.425-16.74a.891.891,0,0,0,.783-.972c0-1.782-3.537-2.7-4.968-2.7q-.162,0-.162.081a.145.145,0,0,0,.081.108A9.69,9.69,0,0,1,6.372-17.5,1.359,1.359,0,0,0,7.425-16.74Zm15.5,15.066a.694.694,0,0,0,.729-.729c0-1.323-3.375-2.457-5.751-2.484-.189,0-.3.054-.3.108s.054.135.189.189a12.046,12.046,0,0,1,4,2.322A1.611,1.611,0,0,0,22.923-1.674ZM54.54-8.748a11.289,11.289,0,0,1-7.074-3.645A24.314,24.314,0,0,0,50.274-16.6c.3-.567.135-.432.675-.594.567-.162.729-.378.729-.567a3.339,3.339,0,0,0-1.917-1.3H49.68a4.269,4.269,0,0,0-.486.351.526.526,0,0,1-.4.162H44.928c.243-.459.486-.918.7-1.377.216-.432.216-.324.675-.378.3-.027.648-.162.648-.351,0-.567-2.187-1.269-2.349-1.269-.081,0-.081.081-.135.324a12.42,12.42,0,0,1-.378,1.62A30.764,30.764,0,0,1,39.474-11.5a5.308,5.308,0,0,0-2.079-1.512.058.058,0,0,0-.054.054.577.577,0,0,0,.135.324,12.658,12.658,0,0,1,.972,1.647c-1.3.162-3.159.324-4.7.405a61.642,61.642,0,0,0,4.887-6.21.854.854,0,0,1,.621-.405c.513-.054.729-.216.729-.4,0-.459-2.025-1.323-2.133-1.323-.054,0-.054.054-.081.27-.351,2.322-4.293,7.722-4.563,8.1l-.567.027c-.54,0-1.3-.027-1.917-.081-.081,0-.135-.027-.189-.027s-.054.027-.054.054c0,.135.81,1.809,1.161,1.809.189,0,.378-.27.648-.324l2.916-.621c.027.405.054.945.054,1.512,0,3.456-.081,6.48-.27,9.288v.108c0,.513.243.729.54.729A.926.926,0,0,0,36.4.972c-.027-2.376-.081-5.616-.081-7.722,0-2.538,0-2.538.378-2.727.216-.108.3-.243.3-.351,0-.081-.054-.162-.189-.243.675-.162,1.323-.3,1.836-.432a6.187,6.187,0,0,1,.189.756c.108.7.459,1,.81,1a.933.933,0,0,0,.783-1.026,2.321,2.321,0,0,0-.729-1.512,23.455,23.455,0,0,0,4.4-5.778,14.485,14.485,0,0,0,2,4.563,20.8,20.8,0,0,1-7.533,5.994A5.922,5.922,0,0,0,37.1-7.425c-.027,0-.027.027-.027.054a1.092,1.092,0,0,0,.162.3A13.326,13.326,0,0,1,38.88-3.429c.162.648.486.891.81.891.378,0,.7-.4.7-.972a4.287,4.287,0,0,0-1.539-2.727,20.8,20.8,0,0,0,7.884-5.346,12.293,12.293,0,0,0,5.157,4.158.243.243,0,0,0,.135.027.387.387,0,0,0,.27-.108c.864-.7,2.619-.972,2.619-1.134C54.918-8.694,54.81-8.721,54.54-8.748ZM34.8-22.383c-.054,0-.054.027-.054.108v.3c0,.567-.216,1.89-1.728,5.346a6.446,6.446,0,0,0-1.917-.486c-.108,0-.135.027-.135.054,0,.054.054.162.243.3a7.133,7.133,0,0,1,2.133,2.241c.27.486.567.675.864.675a.8.8,0,0,0,.7-.864c0-.7-.648-1.323-1.485-1.728a35.8,35.8,0,0,0,2.43-3.78c.162-.3.243-.378.567-.432.486-.081.7-.243.7-.432C37.125-21.573,34.857-22.383,34.8-22.383Zm11.88,9.072a16.259,16.259,0,0,1-2.3-4.239l.189-.324h4.185c.162,0,.216.027.216.081A16.176,16.176,0,0,1,46.683-13.311ZM42.12-3.78c-.081,0-.108.027-.108.081,0,.027.027.054.054.081C44.442-2.349,47.007-.972,48.438.864A1.635,1.635,0,0,0,49.6,1.62a.779.779,0,0,0,.7-.864C50.3-1.782,42.957-3.78,42.12-3.78Zm-10.152-3.7s-.054,0-.054.27A21.25,21.25,0,0,1,30.024.324a.814.814,0,0,0-.108.351c0,.054.027.108.054.108.3,0,1.917-2.241,3.267-5.967.135-.378.162-.54.567-.621.459-.108.648-.27.648-.459C34.452-6.777,32.184-7.479,31.968-7.479ZM43.983-7.83H43.9c-.135,0-.216.054-.216.108,0,.027,0,.027.054.054a11.356,11.356,0,0,1,3.915,2.484,1.388,1.388,0,0,0,.972.594.658.658,0,0,0,.621-.729C49.248-7.074,45.09-7.83,43.983-7.83Zm32.7-12.69a.819.819,0,0,0-.3.081c-.189.108-.378.351-.648.54a1.164,1.164,0,0,1-.81.324H69.309c-1.026,0-5.346-.027-9.234-.4,0,.4.756,1.323,1.269,1.323h.027c1.647-.135,2.565-.162,7.911-.162h5.589c.243,0,.324.054.324.135a20.686,20.686,0,0,1-4.077,3.7,16.2,16.2,0,0,0-1.89-.486c-.027,0-.054.027-.054.081a.527.527,0,0,0,.027.189,18.2,18.2,0,0,1,.3,3.483c.027.648.027,3.483.027,5.886,0,1.755,0,3.294-.027,3.564-.081,1.3-.81,1.728-2.106,1.728a21,21,0,0,1-3.348-.432c-.189-.027-.3-.054-.378-.054s-.108.027-.108.054c0,.243,2.808,1.431,3.159,1.971a.437.437,0,0,0,.459.27C69.228,1.188,70.821,0,70.875-2c0-.567-.108-2.079-.108-2.43,0-.459-.027-1.782-.027-3.24,0-2.052.027-4.374.054-4.914.081-1.134,0-1.08.567-1.4.243-.135.513-.324.513-.513,0-.108-.081-.216-.351-.351a37.915,37.915,0,0,0,4.644-2.4,3.255,3.255,0,0,1,2.133-.675.6.6,0,0,0,.594-.594C78.894-19.17,76.977-20.52,76.68-20.52Z"
      transform="translate(-5285.071 4909.224)" fill="#485757" />
    <path id="パス_423" data-name="パス 423"
      d="M-73.71-.189a32.755,32.755,0,0,1,3.726-.189c2.538,0,4.833.189,4.833.189.243,0,.378-.135.378-.3a.644.644,0,0,0-.3-.486C-68.175-1.3-68.094-1.7-68.2-4.914c-.027-.891-.027-2.214-.027-3.672,0-4.617.027-7.965.324-10.773v-.162c0-.378-.162-.567-.351-.567a.69.69,0,0,0-.486.3A15.063,15.063,0,0,1-73.656-17.2a.513.513,0,0,0-.243.405.376.376,0,0,0,.4.378h.027a17.675,17.675,0,0,1,2.781-.486h.027c.405,0,.486.486.486,5.7,0,2.673-.081,5.265-.135,6.345-.135,3.213.027,3.456-3.456,3.888a.766.766,0,0,0-.324.54c0,.135.081.243.3.243Zm44.5.459c-6.345-2.079-8.532-7.83-8.829-13.5l.108-.054c.27-.108.432-.243.432-.378,0-.486-2.619-.783-2.727-.783-.324,0-.324.027-.324.027,0,.027.027.054.027.081a8.685,8.685,0,0,1,.3,2.133v.081c0,6.291-3.1,12.042-11.205,13.608a1.627,1.627,0,0,0-.675.243c0,.054.081.054.3.054.54,0,12.96-.27,13.014-14.067,0-.729.108-.756.4-.837v.189c0,5.94,2.673,11.88,6.48,14.229a.162.162,0,0,0,.108.027c.081,0,.162-.081.216-.108.729-.432,2.646-.54,2.646-.783C-28.944.378-29.025.324-29.214.27ZM-32.4-17.2a.641.641,0,0,0-.324.081,3.062,3.062,0,0,1-.918.513H-41.58c.513-1.053,1-2.133,1.377-3.105.162-.459.135-.432.621-.513.405-.054.756-.189.756-.405,0-.486-2.511-1.188-2.646-1.188s-.108.081-.135.3a10.663,10.663,0,0,1-.216,1.7c-.756,2.862-3.1,8.235-4.509,9.8a.69.69,0,0,0-.189.324.072.072,0,0,0,.081.081c.567,0,2.538-2.457,4.536-6.318h8.262c.081,0,.135.054.135.162,0,.189-.216.594-1.809,3.159a.484.484,0,0,0-.108.216.094.094,0,0,0,.027.054c.054,0,.108-.054.216-.108.837-.486,2.808-2.43,3.807-2.484.729-.027,1.026-.3,1.026-.594C-30.348-16.173-31.941-17.2-32.4-17.2Zm-10.584,8.37c0-.027-.027-.054-.108-.054a.715.715,0,0,0-.27.081,76.527,76.527,0,0,1-7.992,3.186A7.39,7.39,0,0,1-53.19-5.4h-.378c-.027,0-.027,0-.027.054,0,.108,1.107,1.755,1.485,1.755.162,0,.216-.216.486-.351C-49.977-4.7-42.984-8.37-42.984-8.829Zm-8.316-8.91c-.054,0-.567,0-.567.081,0,.054.108.108.27.216a11.144,11.144,0,0,1,2.7,2.511c.432.648.864.891,1.242.891.432,0,.756-.378.756-.945C-46.9-16.767-49.491-17.739-51.3-17.739Zm44.739,6.156c.216,0,.3.054.3.162,0,.513-3.834,3.51-4.05,3.645a.2.2,0,0,0-.054.108.1.1,0,0,0,.108.108,40.6,40.6,0,0,0,4.968-2.484,3.02,3.02,0,0,1,1.863-.54c.513,0,.864-.27.864-.621,0-.594-1.809-2.16-2.3-2.16a.588.588,0,0,0-.27.108c-.189.108-.459.459-.7.648a1.105,1.105,0,0,1-.7.3H-17.28c-1.188,0-4.563-.027-8.208-.4,0,.4.783,1.323,1.3,1.323h.054c2.133-.162,2.943-.189,6.8-.189h2.673c.081.351.216,1.188.216,7.425,0,1.134,0,2.187-.027,2.619a1.468,1.468,0,0,1-1.7,1.593,23.051,23.051,0,0,1-3.294-.486,2.836,2.836,0,0,0-.351-.054c-.081,0-.108.027-.108.054,0,.243,2.727,1.4,3.078,1.917a.5.5,0,0,0,.459.27c1.89-.108,3.213-1.053,3.267-3,0-.54-.108-2.025-.108-2.43V-5.238c0-5.562,0-5.589.324-5.67.27-.054.513-.243.513-.432,0-.081-.054-.162-.189-.243Zm-3.591-7.533c.243,0,.324.081.324.162,0,.189-.783,1.08-3.321,3.618a12.261,12.261,0,0,0-4.779-1.485c-.054,0-.108,0-.108.027s.081.081.216.162A16.028,16.028,0,0,1-13.446-13.2a.925.925,0,0,0,.756.513.919.919,0,0,0,.783-1c0-.324-.135-.756-.81-1.323,1.269-.81,3-2.025,4.077-2.754a4.308,4.308,0,0,1,1.755-.621c.351-.054.729-.324.729-.648,0-.594-1.7-1.809-2.16-1.809-.108,0-.216.054-1.026.7a1.016,1.016,0,0,1-.756.3H-12.96c-1.107,0-5.67-.054-9.693-.432,0,.432.783,1.35,1.323,1.35h.027c2.268-.189,3.7-.189,8.289-.189ZM6.291-8.775c0,4.833-.054,5.346-.459,5.7A13.42,13.42,0,0,1,1.485-.324c-.162.027-.216.081-.216.135A5.6,5.6,0,0,0,3.024,1.4c.27,0,.324-.513.432-.621,1.269-1.35,2.862-3.051,3.51-3.861C8.154,1.215,13.23,1.35,16.578,1.35A75.9,75.9,0,0,0,24.327.891c.243-.054.27-.189.405-.378.594-.891,2.241-1.917,2.241-2.106,0-.027-.027-.027-.054-.027a1.758,1.758,0,0,0-.486.108,45.7,45.7,0,0,1-11.448,1.4c-3.942,0-5.049-.567-5.94-1.161a14.186,14.186,0,0,0,5.886-2.268c.243-.162.324-.189.432-.189.081,0,.189.027.378.054.216,0,.567,0,.567-.216,0-.27-.864-1.053-1.4-1.4a.233.233,0,0,0-.162-.081c-.081,0-.108.081-.189.216-.729,1.431-4.131,3.132-5.859,3.618A2.766,2.766,0,0,1,7.533-3.753c0-.432-.027-.972-.027-1.539,0-1.269.054-2.727.135-3.591.054-.648.378-.54.729-.675.3-.108.783-.324.783-.648,0-.675-2-1.431-2.079-1.431-.108,0-.162.027-.7.567a.648.648,0,0,1-.432.243H5.427A23.9,23.9,0,0,1,2.106-11.2c0,.378.729,1.431,1.161,1.431h.054a14.276,14.276,0,0,1,2.079-.3h.567a.291.291,0,0,1,.324.3ZM25.056-5.886c.432,0,.567-.162.567-.324,0-.513-1.647-1.755-2.025-1.755-.054,0-.108.027-.216.108a9.438,9.438,0,0,0-.837,1c-.108.135-.243.3-.4.3H19.413V-9.585h4.266c.459,0,.594-.135.594-.3a4.179,4.179,0,0,0-1.89-1.647.376.376,0,0,0-.243.108,6.576,6.576,0,0,0-.81.864c-.108.135-.243.324-.432.324H19.413c0-.243.027-.459.027-.648.027-1-.054-.945.378-1.107.243-.108.405-.216.405-.351,0-.351-1.593-.7-2.133-.7-.054,0-.054.027-.054.054a.475.475,0,0,0,.027.162,7.564,7.564,0,0,1,.243,2.079v.513H14.931c0-.243.027-.459.027-.648.054-1,.027-.945.378-1.107.243-.108.405-.243.405-.378,0-.4-2.079-.675-2.133-.675s-.054.027-.054.054a.475.475,0,0,0,.027.162,7.37,7.37,0,0,1,.243,2.052v.513c-1.134-.027-2.484-.135-4.131-.324,0,.3.783,1.215,1.269,1.215h.027c1.3-.135,2.106-.162,2.835-.189v.081c0,.081-.027,1.809-.054,2.916-1.593-.054-3.645-.162-5.4-.378,0,.324.864,1.3,1.35,1.3h.027a51.516,51.516,0,0,1,5.67-.243ZM22.167-17.145c0,.135-.027.243-.027.378a.467.467,0,0,0,.486.486.823.823,0,0,0,.837-.729c0-.567-.108-1.539-.108-1.89v-.135c0-.378.027-.189.459-.486.216-.135.486-.3.486-.567,0-.513-1.539-1.35-1.7-1.35s-.351.216-.648.567a.46.46,0,0,1-.351.216h-.756a28.209,28.209,0,0,1-4.023-.324c0,.3.648,1.242,1.134,1.242h.027a21.929,21.929,0,0,1,3.24-.216h.648a.3.3,0,0,1,.3.3c.027.324.027.621.027.945,0,.3,0,.594-.027.891H19.3a14.157,14.157,0,0,0-1.539-.675c-.054,0-.081-.027-.135-.027s-.081.054-.081.108v.108a6.616,6.616,0,0,1,.135,1.4c0,.378,0,1.107-.027,1.674v.189c0,1.593,1.377,1.7,2.835,1.7,1.863,0,4.833-.027,4.833-1.107a.635.635,0,0,0-.594-.567c-.189-.027-.243-1.755-.459-1.755-.027,0-.081.054-.135.189-.4,1.026-.621,1.863-1.026,1.971a10.359,10.359,0,0,1-1.917.135c-2.349,0-2.349-.135-2.349-1.134,0-1.3.027-1.323.486-1.512.027-.027.027-.027.054-.027Zm-7.965.378a.453.453,0,0,0,.486.486.791.791,0,0,0,.783-.729c0-.567-.108-1.539-.108-1.89v-.243c0-.243.027-.108.432-.378.189-.135.486-.324.486-.567,0-.54-1.431-1.35-1.674-1.35-.081,0-.189.054-.594.567a.46.46,0,0,1-.351.216h-.81a22.572,22.572,0,0,1-3.726-.324c0,.3.675,1.242,1.161,1.242h.027a17.2,17.2,0,0,1,2.916-.216h.7a.3.3,0,0,1,.3.3c.027.324.027.621.027.945,0,.3,0,.594-.027.891H11.421a7.756,7.756,0,0,0-1.647-.7c-.054,0-.081.027-.081.108v.108a6.616,6.616,0,0,1,.135,1.4c0,.378,0,1.107-.027,1.674v.189c0,1.215.675,1.7,2.808,1.7,1.188,0,4.293-.027,4.293-1.107a.664.664,0,0,0-.621-.567c-.189-.027-.27-1.836-.486-1.836-.054,0-.081.054-.135.189-.378,1.026-.621,1.944-1.053,2.052a7.212,7.212,0,0,1-1.512.108c-1.944,0-2.133-.135-2.133-.972,0-1.431.081-1.458.513-1.647.027-.027.027-.027.054-.027H14.2Zm4.1,7.29c0,.054-.054,1.863-.054,2.916H14.958c0-.756-.027-1.971-.027-3.024h3.375ZM7.425-16.74a.891.891,0,0,0,.783-.972c0-1.782-3.537-2.7-4.968-2.7q-.162,0-.162.081a.145.145,0,0,0,.081.108A9.69,9.69,0,0,1,6.372-17.5,1.359,1.359,0,0,0,7.425-16.74Zm15.5,15.066a.694.694,0,0,0,.729-.729c0-1.323-3.375-2.457-5.751-2.484-.189,0-.3.054-.3.108s.054.135.189.189a12.046,12.046,0,0,1,4,2.322A1.611,1.611,0,0,0,22.923-1.674ZM54.54-8.748a11.289,11.289,0,0,1-7.074-3.645A24.314,24.314,0,0,0,50.274-16.6c.3-.567.135-.432.675-.594.567-.162.729-.378.729-.567a3.339,3.339,0,0,0-1.917-1.3H49.68a4.269,4.269,0,0,0-.486.351.526.526,0,0,1-.4.162H44.928c.243-.459.486-.918.7-1.377.216-.432.216-.324.675-.378.3-.027.648-.162.648-.351,0-.567-2.187-1.269-2.349-1.269-.081,0-.081.081-.135.324a12.42,12.42,0,0,1-.378,1.62A30.764,30.764,0,0,1,39.474-11.5a5.308,5.308,0,0,0-2.079-1.512.058.058,0,0,0-.054.054.577.577,0,0,0,.135.324,12.658,12.658,0,0,1,.972,1.647c-1.3.162-3.159.324-4.7.405a61.642,61.642,0,0,0,4.887-6.21.854.854,0,0,1,.621-.405c.513-.054.729-.216.729-.4,0-.459-2.025-1.323-2.133-1.323-.054,0-.054.054-.081.27-.351,2.322-4.293,7.722-4.563,8.1l-.567.027c-.54,0-1.3-.027-1.917-.081-.081,0-.135-.027-.189-.027s-.054.027-.054.054c0,.135.81,1.809,1.161,1.809.189,0,.378-.27.648-.324l2.916-.621c.027.405.054.945.054,1.512,0,3.456-.081,6.48-.27,9.288v.108c0,.513.243.729.54.729A.926.926,0,0,0,36.4.972c-.027-2.376-.081-5.616-.081-7.722,0-2.538,0-2.538.378-2.727.216-.108.3-.243.3-.351,0-.081-.054-.162-.189-.243.675-.162,1.323-.3,1.836-.432a6.187,6.187,0,0,1,.189.756c.108.7.459,1,.81,1a.933.933,0,0,0,.783-1.026,2.321,2.321,0,0,0-.729-1.512,23.455,23.455,0,0,0,4.4-5.778,14.485,14.485,0,0,0,2,4.563,20.8,20.8,0,0,1-7.533,5.994A5.922,5.922,0,0,0,37.1-7.425c-.027,0-.027.027-.027.054a1.092,1.092,0,0,0,.162.3A13.326,13.326,0,0,1,38.88-3.429c.162.648.486.891.81.891.378,0,.7-.4.7-.972a4.287,4.287,0,0,0-1.539-2.727,20.8,20.8,0,0,0,7.884-5.346,12.293,12.293,0,0,0,5.157,4.158.243.243,0,0,0,.135.027.387.387,0,0,0,.27-.108c.864-.7,2.619-.972,2.619-1.134C54.918-8.694,54.81-8.721,54.54-8.748ZM34.8-22.383c-.054,0-.054.027-.054.108v.3c0,.567-.216,1.89-1.728,5.346a6.446,6.446,0,0,0-1.917-.486c-.108,0-.135.027-.135.054,0,.054.054.162.243.3a7.133,7.133,0,0,1,2.133,2.241c.27.486.567.675.864.675a.8.8,0,0,0,.7-.864c0-.7-.648-1.323-1.485-1.728a35.8,35.8,0,0,0,2.43-3.78c.162-.3.243-.378.567-.432.486-.081.7-.243.7-.432C37.125-21.573,34.857-22.383,34.8-22.383Zm11.88,9.072a16.259,16.259,0,0,1-2.3-4.239l.189-.324h4.185c.162,0,.216.027.216.081A16.176,16.176,0,0,1,46.683-13.311ZM42.12-3.78c-.081,0-.108.027-.108.081,0,.027.027.054.054.081C44.442-2.349,47.007-.972,48.438.864A1.635,1.635,0,0,0,49.6,1.62a.779.779,0,0,0,.7-.864C50.3-1.782,42.957-3.78,42.12-3.78Zm-10.152-3.7s-.054,0-.054.27A21.25,21.25,0,0,1,30.024.324a.814.814,0,0,0-.108.351c0,.054.027.108.054.108.3,0,1.917-2.241,3.267-5.967.135-.378.162-.54.567-.621.459-.108.648-.27.648-.459C34.452-6.777,32.184-7.479,31.968-7.479ZM43.983-7.83H43.9c-.135,0-.216.054-.216.108,0,.027,0,.027.054.054a11.356,11.356,0,0,1,3.915,2.484,1.388,1.388,0,0,0,.972.594.658.658,0,0,0,.621-.729C49.248-7.074,45.09-7.83,43.983-7.83Zm32.7-12.69a.819.819,0,0,0-.3.081c-.189.108-.378.351-.648.54a1.164,1.164,0,0,1-.81.324H69.309c-1.026,0-5.346-.027-9.234-.4,0,.4.756,1.323,1.269,1.323h.027c1.647-.135,2.565-.162,7.911-.162h5.589c.243,0,.324.054.324.135a20.686,20.686,0,0,1-4.077,3.7,16.2,16.2,0,0,0-1.89-.486c-.027,0-.054.027-.054.081a.527.527,0,0,0,.027.189,18.2,18.2,0,0,1,.3,3.483c.027.648.027,3.483.027,5.886,0,1.755,0,3.294-.027,3.564-.081,1.3-.81,1.728-2.106,1.728a21,21,0,0,1-3.348-.432c-.189-.027-.3-.054-.378-.054s-.108.027-.108.054c0,.243,2.808,1.431,3.159,1.971a.437.437,0,0,0,.459.27C69.228,1.188,70.821,0,70.875-2c0-.567-.108-2.079-.108-2.43,0-.459-.027-1.782-.027-3.24,0-2.052.027-4.374.054-4.914.081-1.134,0-1.08.567-1.4.243-.135.513-.324.513-.513,0-.108-.081-.216-.351-.351a37.915,37.915,0,0,0,4.644-2.4,3.255,3.255,0,0,1,2.133-.675.6.6,0,0,0,.594-.594C78.894-19.17,76.977-20.52,76.68-20.52Z"
      transform="translate(-5285.071 4805.224)" fill="#485757" />
    <path id="パス_421" data-name="パス 421"
      d="M-48.006-5.967c-.621,0-.918.27-1.944.324-1.458.081-3.24.243-5.049.459a40.461,40.461,0,0,0,.648-5.184,1.86,1.86,0,0,0-1.323-1.944,45.333,45.333,0,0,1,5.7-.81c.675-.027,1.107-.351,1.107-.7,0-.756-1.539-.945-2.133-.945-1.161,0-1.269.675-2.43.918a27.247,27.247,0,0,1-5.7.891,3.63,3.63,0,0,1-2.133-.486.5.5,0,0,0-.324-.135s-.162,0-.162.3c0,.7.972,1.539,2.538,1.539a18.31,18.31,0,0,0,2.754-.432c.648.594.675,2.4.675,3a38.866,38.866,0,0,1-.324,4.131c-5.346.594-5.427.594-5.832.594A5.627,5.627,0,0,1-64.4-4.914a2.609,2.609,0,0,0-.7-.27c-.162,0-.243.081-.243.351,0,1.35,2.43,1.809,3.213,1.809a9.177,9.177,0,0,0,1.7-.324A49.168,49.168,0,0,1-51.084-4.4a21.323,21.323,0,0,1,4.995.513,1.108,1.108,0,0,0,.3.027c.486,0,.918-.27.918-.648C-44.874-5.454-47.655-5.967-48.006-5.967Zm31.887-10.341c0-.027,0-.054-.027-.054-.054,0-.189.135-.459.432-2.673,3.1-12.447,12.636-15.687,12.636A1.932,1.932,0,0,1-33.8-4.05c-.135-.135-.216-.216-.3-.216s-.3.378-.3.729c0,1.161,2.349,2.4,3.159,2.4.351,0,.54-.243.756-.486a3.934,3.934,0,0,1,.756-.729C-20.466-8.424-16.119-15.525-16.119-16.308Zm-18.225,1.35a3.64,3.64,0,0,0-1.647.216c0,.054.081.108.27.189a11.662,11.662,0,0,1,4.779,2.43,1.479,1.479,0,0,0,.918.432.863.863,0,0,0,.783-.945C-29.241-14.229-31.968-14.958-34.344-14.958ZM5.292-10.422c-1.4-.837-3.051-.837-5.049-.837H-.216c.027-1.458.081-2.754.189-3.618.108-1.08.351-1.7.351-2.241,0-1.647-2.241-2.376-2.727-2.376a.747.747,0,0,0-.81.594c0,.189.162.3.459.3,1.458,0,1.485,2.646,1.485,6.534,0,3.105-.108,6.669-.243,7.722a9.571,9.571,0,0,1-.27,1.377,7.225,7.225,0,0,0-.162,1.4c0,.7.324,2.16,1,2.16.729,0,.783-1.647.783-2.511,0-.189-.081-3.348-.081-6.615,0-.81.027-1.647.027-2.43a11.772,11.772,0,0,1,4.779,2.3,1.639,1.639,0,0,0,.891.351A.729.729,0,0,0,6.21-9.1,1.61,1.61,0,0,0,5.292-10.422Zm21.087.513a50.287,50.287,0,0,1-.189-5.076,3.1,3.1,0,0,1,.189-1.215,1.261,1.261,0,0,0,.189-.54c0-.918-1.863-1.7-2.565-1.7-.837,0-1.134.513-1.134.594,0,.135.162.216.4.243,1.242.243,1.836.4,1.836,5.292,0,.891-.054,1.728-.162,2.916a2.471,2.471,0,0,0-.027.432c0,.945.324,1.4.648,1.4.594,0,.864-1.269.864-1.782A5.568,5.568,0,0,0,26.379-9.909ZM32.886-17.5a1.151,1.151,0,0,0,.162-.486c0-.783-2.322-2.052-3.051-2.052a.987.987,0,0,0-.864.594c0,.108.135.189.378.27.945.3,1.431.729,1.431,2.646,0,.243,0,.513-.027.81-.054,1.3-.054,2.133-.108,3.294C30.591-6.426,27.891-1.89,23.868.567c-.81.486-1.08.729-1.08.81,0,.027.027.027.081.027.7,0,9.045-2.808,9.261-13.554C32.211-16.173,32.427-16.686,32.886-17.5ZM64.692-10.53c0-.621-1.431-.675-2.106-.675-.432,0-.864.027-1.188.054-3.429.27-11.421.648-12.528.648a5.862,5.862,0,0,1-2.376-.378c-.621-.351-.648-.351-.675-.351-.108,0-.189.054-.189.216,0,.783,1.89,2.16,3.321,2.16a6.566,6.566,0,0,0,1.512-.216,26.35,26.35,0,0,1,4.131-.486c3.213-.189,6.831-.162,8.343-.216C63.99-9.8,64.692-10.152,64.692-10.53ZM-11.259,38.487c-.162-2.106-.216-3.861-.243-5.427h4.509c.405,0,.513-.135.513-.3,0-.594-1.4-1.674-1.917-1.674-.243,0-.756.648-1.026,1.053-.081.135-.162.27-.351.27H-11.5c0-1.053.027-2,.054-2.916,0-.243.027-.243.243-.3.243-.081.27-.189.27-.3H-8.1c.378,0,.486-.135.486-.3,0-.648-1.053-1.323-1.566-1.566a.2.2,0,0,0-.135-.027.292.292,0,0,0-.189.081,4.731,4.731,0,0,0-.7.918c-.081.135-.135.243-.3.243h-3.7a45.978,45.978,0,0,1-5.589-.351c0,.324.756,1.215,1.08,1.215h.027c.567-.054,1.431-.135,2.268-.162.027.324.054.729.054.945v2.457c-1.4-.054-3.078-.189-4.617-.378v.027c0,.324.837,1.323,1.269,1.323h.027c.783-.081,2.052-.162,3.24-.216a7.415,7.415,0,0,1-5.481,6.453,2.8,2.8,0,0,0-.351.108c-.081-2.025-.108-6.318-.108-10.5V25.365h5.292c0,.162-.027.3-.027.432v.054c0,.432.243.594.54.594a.893.893,0,0,0,.864-.891c-.135-2.862-.135-4.833-.135-5.076,0-.432.027-.594.54-.972.135-.108.486-.27.486-.513,0-.567-1.755-1.35-1.917-1.35-.243,0-.405.189-.621.459a.391.391,0,0,1-.351.189h-3.753l-.135-.108a9.016,9.016,0,0,0-2.268-1.026c-.054,0-.081.027-.081.108a.671.671,0,0,0,.027.216,23.368,23.368,0,0,1,.3,3.294c0,1,.027,2.079.027,3.186,0,5.562-.135,11.961-.351,16.092v.081a.686.686,0,0,0,.675.783,1.029,1.029,0,0,0,1.026-.945v-.027a7.7,7.7,0,0,0,7.02-6.885h2.673c0,1.809-.054,3.78-.189,5.589v.135c0,.459.243.648.54.648a.948.948,0,0,0,.945-.891Zm5.913-13.122c.054,3.4.108,7.4.108,9.828,0,.918,0,1.62-.027,1.971-.054,1.161-.621,1.512-1.7,1.512a23.637,23.637,0,0,1-3.024-.351,2.206,2.206,0,0,0-.378-.027c-.081,0-.135,0-.135.027,0,.216,2.7,1.188,3.132,1.782.189.216.243.351.486.351.4,0,2.943-.567,2.97-2.862,0-.189-.054-2-.054-2.079-.054-1.755-.189-8.316-.189-12.42,0-.945,0-1.782.027-2.376.027-.648,0-.81.594-1.242.135-.108.459-.27.459-.513,0-.405-1.674-1.35-2-1.35-.162,0-.513.3-.648.486a.391.391,0,0,1-.351.189h-4.1l-.135-.108a10.617,10.617,0,0,0-2.187-.918c-.054,0-.054.027-.054.081a.76.76,0,0,0,.027.216A22.3,22.3,0,0,1-12.2,21.72c0,.81-.027,1.863-.189,3.969V25.8a.588.588,0,0,0,.621.648.8.8,0,0,0,.81-.756v-.054c0-.081-.027-.189-.027-.27Zm0-.7h-5.67c-.027-.972-.027-1.863-.027-2.592H-5.4Zm-11.718-2.592c0,.891,0,1.809-.027,2.592h-5.292c0-.918,0-1.809.027-2.592Zm11.34-3.024a.254.254,0,0,1,.243.216c.027.243.027,1,.054,2.106h-5.589c0-.621.027-1.08.027-1.323.027-.7.054-.756.378-.918l.162-.081Zm-11.664,0a.245.245,0,0,1,.243.27c.054.54.081,1.269.081,2.052h-5.265c0-.486.027-.945.054-1.323.027-.675-.027-.729.378-.945l.108-.054Zm3.375,13.365c-.324,0-.7-.027-1.161-.027V29.9c.054-.486.054-.54.27-.648.243-.108.324-.189.324-.27a.1.1,0,0,0-.027-.081h1.944a4.552,4.552,0,0,1,.054.675c.027.837.054,1.809.054,2.835ZM6.723,23.745l.621-3.861c.162-1,.081-1.08.81-1.4.4-.189.567-.378.567-.594,0-.7-2.484-.972-2.673-.972-.081,0-.108.027-.108.108,0,.054.027.135.027.243a8.688,8.688,0,0,1,.027.891,32.294,32.294,0,0,1-.513,5.562,32.084,32.084,0,0,1-3.591-.243c0,.27.729,1.3,1.026,1.3h.027c.783-.135,1.674-.216,2.43-.27a55.349,55.349,0,0,1-2.16,8.964,1.06,1.06,0,0,0-.081.378.483.483,0,0,0,.54.486,1.233,1.233,0,0,0,1.134-.837c.108-.351.189-.729.3-1.161a10.885,10.885,0,0,1,2.673,1.08,12.781,12.781,0,0,1-5.049,6.642c-.513.3-.756.513-.756.594,0,.027.054.054.108.054.3,0,4.347-1.188,6.723-6.615a7.555,7.555,0,0,1,1.782,1.62,1.553,1.553,0,0,0,1.08.729c.378,0,.621-.351.621-.81,0-1.161-1.62-2.079-3-2.7A39.915,39.915,0,0,0,10.962,25.8c.135-.756.432-.594.675-.783.189-.162.648-.3.648-.621,0-.621-1.674-1.485-1.944-1.485-.108,0-.432.3-.621.513-.135.162-.243.3-.351.3ZM23.382,39.378c-.108-2.052-.189-3.645-.189-4.995,0-1.944,0-2.16.486-2.43.189-.108.621-.27.621-.621,0-.567-1.674-1.539-2-1.539-.081,0-.135,0-.162.027a1.852,1.852,0,0,0-.486.594.5.5,0,0,1-.378.243h-4.86l-.081-.081a10,10,0,0,0-2.16-1c-.027,0-.054.027-.054.108a.608.608,0,0,0,.027.189,33.066,33.066,0,0,1,.324,5.346c0,1.107-.027,2.538-.162,4.779v.054a.554.554,0,0,0,.567.621.835.835,0,0,0,.864-.783c0-.432-.027-.837-.027-1.188H21.9v.864a.6.6,0,0,0,.621.675.793.793,0,0,0,.864-.81ZM15.714,38c-.027-1.026-.027-1.863-.027-2.835,0-.7,0-1.485.027-2.457.027-1,.054-.864.513-1.215a.565.565,0,0,1,.162-.108h5.157a.3.3,0,0,1,.324.3c.054.837.081,1.863.081,3.132,0,.918,0,1.971-.027,3.186Zm-.675-12.1a3.273,3.273,0,0,1-.54.027c-.486,0-1.107-.054-1.728-.081h-.189c-.054,0-.108,0-.108.054,0,.162.972,1.782,1.269,1.782.216,0,.351-.324.675-.351,2.808-.459,7.4-1.431,9.045-1.863a11.045,11.045,0,0,1,.594,1.053c.324.648.675.891,1,.891.378,0,.675-.378.675-.945,0-2.133-4.374-4.374-4.887-4.374-.027,0-.027,0-.027.027a1.732,1.732,0,0,0,.243.3,19.416,19.416,0,0,1,2.079,2.538c-2.025.324-4.536.594-7.02.837.864-1.89,2.052-5.211,2.538-6.426.108-.3.162-.405.621-.567.405-.162.567-.324.567-.486s-.162-.3-.351-.351c-.594-.162-1.971-.594-2.133-.594a.955.955,0,0,1-.162-.027.072.072,0,0,0-.081.081c0,.054.027.108.027.216,0,.081.027.243.027.432,0,.486-.027,1.458-1.4,7.749ZM9.45,24.447c.189,0,.216.135.216.27A38.659,38.659,0,0,1,8.1,32.466a10.609,10.609,0,0,0-2.916-.459c.486-2.106,1-4.968,1.431-7.56Z"
      transform="translate(-5298.071 4596.224)" fill="#485757" />
    <rect id="長方形_137" data-name="長方形 137" width="237" height="54"
      transform="translate(-5386.322 4676.602)" fill="#cbd6d0" />
    <g id="多角形_4" data-name="多角形 4" transform="translate(-5380.997 4666.843) rotate(-22)"
      fill="#cbd6d0">
      <path
        d="M 14.24999809265137 17.5 L 0.7500029802322388 17.5 L 7.500000476837158 1.300006031990051 L 14.24999809265137 17.5 Z"
        stroke="none" />
      <path
        d="M 7.500000476837158 2.600011825561523 L 1.500005722045898 17 L 13.49999523162842 17 L 7.500000476837158 2.600011825561523 M 7.500000476837158 0 L 15 18 L 9.5367431640625e-07 18 L 7.500000476837158 0 Z"
        stroke="none" fill="#cbd6d0" />
    </g>
    <g id="グループ_244" data-name="グループ 244" transform="translate(-5504.322 2618.409)">
      <rect id="長方形_137-2" data-name="長方形 137" width="237" height="83"
        transform="translate(118 2450)" fill="#cbd6d0" />
      <g id="グループ_183" data-name="グループ 183" transform="translate(-23.5 -256)">
        <path id="パス_426" data-name="パス 426"
          d="M-27.216-5.968C-28.8-5.968-29.328-6-29.408-6c-.112,0-.128.016-.128.128v.688c0,.112.016.128.128.128.064,0,.5-.016,1.392-.032A9.926,9.926,0,0,0-25.488-1.84,18.2,18.2,0,0,1-31.632.048,2.2,2.2,0,0,1-31.216.7c.128.3.144.3.448.24a19.294,19.294,0,0,0,6.112-2.16,18.733,18.733,0,0,0,6.224,2.24c.3.064.3.064.448-.256a2.6,2.6,0,0,1,.432-.7,19.237,19.237,0,0,1-6.224-1.872A11.7,11.7,0,0,0-21.04-4.672a1.356,1.356,0,0,1,.432-.416c.1-.064.144-.112.144-.192s-.08-.208-.3-.432c-.256-.272-.352-.352-.48-.352a1.48,1.48,0,0,0-.16.048,1.185,1.185,0,0,1-.384.048Zm5.312.88A10.118,10.118,0,0,1-24.64-2.352a8.073,8.073,0,0,1-2.368-2.736ZM-18.1-7.68c0-.416.032-.64.032-.736,0-.112-.016-.128-.128-.128-.08,0-.64.032-2.192.032h-1.024a14.9,14.9,0,0,0,.944-1.616,1.743,1.743,0,0,1,.3-.448c.08-.08.16-.16.16-.256,0-.064-.064-.128-.176-.176-.224-.1-.528-.208-.864-.32a3.167,3.167,0,0,1-.208.7,13.606,13.606,0,0,1-1.168,2.112H-29.04c-1.552,0-2.1-.032-2.192-.032-.112,0-.128.016-.128.128,0,.1.032.32.032.816v.608c0,1.216-.032,1.456-.032,1.552,0,.112.016.128.128.128h.72c.112,0,.128-.016.128-.128V-7.632h11.328V-5.44c0,.112.016.128.128.128h.736c.112,0,.128-.016.128-.128,0-.1-.032-.336-.032-1.536Zm-1.152-4.64c0-.064-.032-.128-.128-.224a6.394,6.394,0,0,0-.784-.624,6.473,6.473,0,0,1-1.2.368,29.941,29.941,0,0,1-3.456.5c-2,.192-3.808.288-5.856.32a2.059,2.059,0,0,1,.336.624c.112.32.112.32.368.3,1.744-.064,3.456-.192,5.28-.368,1.984-.208,3.2-.4,4.608-.672a3.548,3.548,0,0,1,.624-.064C-19.3-12.16-19.248-12.24-19.248-12.32Zm-6.192,1.5c-.224.08-.224.112-.16.224a8.036,8.036,0,0,1,.624,1.712c.032.144.064.144.272.08l.464-.144c.192-.064.208-.08.176-.192a7.908,7.908,0,0,0-.688-1.76c-.064-.112-.1-.128-.256-.064Zm-3.488.24c-.192.08-.224.1-.144.208a6.1,6.1,0,0,1,.736,1.52c.048.144.08.16.3.08l.448-.16c.192-.08.192-.112.16-.208a7.671,7.671,0,0,0-.832-1.568c-.064-.1-.1-.112-.256-.048ZM-3.408-4.72c0-1.024.032-1.392.032-1.472,0-.112-.016-.128-.144-.128-.08,0-.656.032-2.24.032h-4.992c-1.552,0-2.112-.032-2.208-.032-.112,0-.128.016-.128.128,0,.08.032.448.032,1.472v2.128c0,1.008-.032,1.376-.032,1.472,0,.112.016.128.128.128.1,0,.656-.032,2.24-.032h4.96c1.584,0,2.16.032,2.24.032.128,0,.144-.016.144-.128,0-.1-.032-.464-.032-1.472Zm-.928,3.008h-7.792v-.9h7.792Zm0-3.024h-7.792V-5.6h7.792Zm0,1.488h-7.792V-4.1h7.792Zm2.56-7.056c0-.384.032-.608.032-.7,0-.112-.016-.128-.128-.128-.1,0-.656.032-2.208.032H-5.136c.224-.32.432-.656.576-.9a1.466,1.466,0,0,1,.272-.336c.08-.064.144-.112.144-.208,0-.064-.08-.144-.192-.176a5.277,5.277,0,0,0-.9-.256,2.726,2.726,0,0,1-.224.72A9.971,9.971,0,0,1-6.08-11.1H-7.9V-11.7a3.651,3.651,0,0,1,.08-1.152.527.527,0,0,0,.1-.3c0-.064-.08-.112-.192-.128a9.251,9.251,0,0,0-1.04-.1,6.792,6.792,0,0,1,.112,1.632v.64h-3.568c-1.552,0-2.112-.032-2.192-.032-.128,0-.144.016-.144.128,0,.1.032.32.032.8v.464c0,1.328-.032,1.52-.032,1.6,0,.112.016.128.144.128h.688c.112,0,.128-.016.128-.128v-2.192H-2.72v2.192c0,.112.016.128.128.128h.72c.112,0,.128-.016.128-.128,0-.08-.032-.272-.032-1.6Zm-2.752,1.76c0-.608.032-.752.032-.832,0-.112-.016-.128-.128-.128-.1,0-.592.032-2.048.032h-3.12c-1.456,0-1.952-.032-2.048-.032-.112,0-.128.016-.128.128,0,.08.032.224.032.832v.512c0,.592-.032.752-.032.832,0,.112.016.128.128.128.1,0,.592-.032,2.048-.032h3.12c1.456,0,1.952.032,2.048.032.112,0,.128-.016.128-.128,0-.08-.032-.24-.032-.832Zm-.88.752h-5.648v-.992h5.648ZM-9.856-.208c0-.08-.032-.128-.144-.224A4.376,4.376,0,0,0-10.672-.9a2.293,2.293,0,0,1-.656.416,12.763,12.763,0,0,1-3.824.848,1.59,1.59,0,0,1,.416.544c.144.272.144.272.464.24a13.626,13.626,0,0,0,3.7-1.024,2.787,2.787,0,0,1,.512-.176C-9.936-.08-9.856-.144-9.856-.208ZM-6.432-.4c-.144.16-.176.176-.064.24A10.7,10.7,0,0,0-2.272,1.216c.32.048.336.032.464-.24A1.635,1.635,0,0,1-1.424.432,11.16,11.16,0,0,1-5.888-.784c-.08-.048-.144-.048-.272.1Zm-6.016-12.416c-.176.1-.208.112-.112.224a5.7,5.7,0,0,1,.9,1.3c.08.144.112.144.272.048l.4-.24c.144-.08.176-.128.112-.224a8.016,8.016,0,0,0-.928-1.232c-.08-.1-.128-.16-.3-.064Zm27.728,4.8c0-.1-.016-.112-.128-.112-.08,0-.592.032-2.08.032H10.608a22.952,22.952,0,0,0,2.7-2.608c.3-.336.48-.576.688-.656a.218.218,0,0,0,.16-.176c0-.08-.032-.144-.144-.224a7.238,7.238,0,0,0-.9-.5,3.457,3.457,0,0,1-.656,1.072A17.81,17.81,0,0,1,9.248-8.1H8.08v-2.048H8.8c1.472,0,1.936.032,2.032.032.112,0,.128-.016.128-.128V-10.9c0-.112-.016-.128-.128-.128-.1,0-.56.032-2.032.032H8.08v-.448a3.936,3.936,0,0,1,.112-1.28.721.721,0,0,0,.08-.272c0-.08-.1-.128-.208-.144a8.877,8.877,0,0,0-1.056-.1A9.145,9.145,0,0,1,7.12-11.44v.448H5.472c-1.472,0-1.952-.032-2.048-.032-.112,0-.128.016-.128.128v.656c0,.112.016.128.128.128.1,0,.576-.032,2.048-.032H7.12V-8.1H3.472c-1.5,0-2-.032-2.08-.032-.112,0-.128.016-.128.112v.672c0,.112.016.128.128.128.08,0,.576-.032,2.08-.032H8.08A30.161,30.161,0,0,1,.88-4a2.439,2.439,0,0,1,.448.528c.176.288.176.288.464.176,1.12-.4,2.192-.848,3.248-1.344v2.656c0,2.416-.032,2.9-.032,2.976,0,.112.016.128.128.128h.72c.112,0,.128-.016.128-.128V.24h6v.7c0,.1.016.112.128.112h.72c.112,0,.128-.016.128-.112s-.032-.5-.032-2.912V-3.456c0-1.488.032-1.9.032-1.984,0-.128-.016-.144-.128-.144-.1,0-.7.032-2.112.032H6.832a24.959,24.959,0,0,0,2.72-1.7h3.52c1.488,0,2,.032,2.08.032.112,0,.128-.016.128-.128Zm-3.3,7.44h-6V-2.32h6Zm0-2.544h-6V-4.736h6Zm15.264-.4a8.559,8.559,0,0,0-1.68-.176c-1.36,0-2.464.72-2.464,1.9C23.1-.624,24.1.032,25.6.032c1.808,0,2.608-.752,2.672-2.16a10.422,10.422,0,0,1,2.24,1.472c.064.064.128.08.192-.016a2.983,2.983,0,0,0,.432-.7c.048-.112.048-.144-.032-.208a11.423,11.423,0,0,0-2.816-1.648c-.08-1.44-.128-2.96-.144-4.832a20.169,20.169,0,0,0,2.64-.384c.064-.016.112-.08.112-.192a4.13,4.13,0,0,0-.064-.64c-.016-.112-.032-.144-.16-.112-.832.16-1.7.288-2.528.368,0-.656,0-1.216.032-1.776a2.231,2.231,0,0,1,.128-.768.438.438,0,0,0,.064-.224c0-.08-.064-.144-.176-.192a5.329,5.329,0,0,0-1.232-.224,5.879,5.879,0,0,1,.16,1.424c0,.64-.016,1.248-.016,1.84a27.01,27.01,0,0,1-3.776,0,6.551,6.551,0,0,0,.064.848c.016.128.08.144.176.144a29.359,29.359,0,0,0,3.568-.016C27.136-6.32,27.184-4.848,27.248-3.52Zm0,1.28c0,.848-.56,1.36-1.7,1.36-.96,0-1.536-.336-1.536-.912,0-.656.592-1.024,1.488-1.024a6.262,6.262,0,0,1,1.744.272Zm-7.376-9.888a6.785,6.785,0,0,1-.08,1.584,36.066,36.066,0,0,0-.688,6A13.8,13.8,0,0,0,19.712.128c.048.128.1.16.208.128a4.251,4.251,0,0,0,.72-.208.153.153,0,0,0,.08-.208,2.778,2.778,0,0,1,.016-.72,13.873,13.873,0,0,1,.96-2.528.289.289,0,0,0-.016-.352,2.451,2.451,0,0,1-.368-.656c-.416.944-.784,1.744-1.12,2.608a20.738,20.738,0,0,1-.112-2.768,31.559,31.559,0,0,1,.768-5.9,2.573,2.573,0,0,1,.256-.8.27.27,0,0,0-.1-.432A4.036,4.036,0,0,0,19.872-12.128ZM-42.856,17.688a2.045,2.045,0,0,1,2.048-1.68,1.776,1.776,0,0,1,1.92,1.872c0,1.328-.832,2.144-2.48,2.144h-.8V21.16h.9c1.776,0,2.624.88,2.624,2.384a2.07,2.07,0,0,1-2.128,2.288,2.183,2.183,0,0,1-2.288-1.712l-1.28.48a3.393,3.393,0,0,0,3.568,2.32,3.264,3.264,0,0,0,3.5-3.392,2.876,2.876,0,0,0-2.464-2.944V20.44a2.579,2.579,0,0,0,2.208-2.672c0-1.68-1.36-2.848-3.264-2.848a3.331,3.331,0,0,0-3.344,2.336ZM-30.008,20.1c-1.552,0-2.064-.032-2.144-.032-.112,0-.128.016-.128.128v.7c0,.112.016.128.128.128.08,0,.592-.032,2.144-.032h.72a6.912,6.912,0,0,1-4.784,6.272,1.793,1.793,0,0,1,.512.528c.112.176.16.24.24.24a.755.755,0,0,0,.224-.08A7.769,7.769,0,0,0-28.28,21h3.568a29.379,29.379,0,0,1-.352,4.56c-.144.848-.48,1.2-1.232,1.2a10.044,10.044,0,0,1-1.824-.16,1.909,1.909,0,0,1,.32.752c.064.352.064.352.384.368a10.854,10.854,0,0,0,1.28.048,1.883,1.883,0,0,0,2.048-1.824,28.308,28.308,0,0,0,.384-4.032c.032-.672.032-1.2.064-1.7,0-.112-.032-.144-.144-.144-.1,0-.608.032-2.176.032Zm1.216-5.392c0-.1-.064-.176-.208-.24a6.255,6.255,0,0,0-1.024-.384,3.458,3.458,0,0,1-.256.944,12.953,12.953,0,0,1-4.992,5.584,1.923,1.923,0,0,1,.56.528c.1.144.16.208.224.208.048,0,.112-.048.24-.144a14.974,14.974,0,0,0,5.04-5.968.9.9,0,0,1,.288-.352C-28.84,14.824-28.792,14.76-28.792,14.712Zm2.16-.352c-.16.08-.208.08-.144.208A16.88,16.88,0,0,0-21.3,21.144c.112.08.176.128.224.128s.1-.08.192-.224a2.475,2.475,0,0,1,.56-.64A13.788,13.788,0,0,1-25.9,14.152c-.048-.128-.064-.144-.256-.048Zm12.912,1.9c-.992,0-1.7,0-2.48-.064a6.2,6.2,0,0,0,.1,1.024c.032.128.048.176.192.176.72-.048,1.408-.1,2.3-.1h4.816a20.113,20.113,0,0,1-3.04,4.288,20.687,20.687,0,0,1-5.888,4.336,2.737,2.737,0,0,1,.832.576c.128.144.224.128.4.032a24.462,24.462,0,0,0,5.712-4.464A29.239,29.239,0,0,1-6.36,26.136c.112.128.176.128.288.032a6.522,6.522,0,0,0,.576-.576c.128-.16.128-.208-.016-.336A32.771,32.771,0,0,0-10.1,21.24,29.066,29.066,0,0,0-7.736,17.8a2.113,2.113,0,0,1,.464-.592c.144-.128.176-.24.08-.368a4.238,4.238,0,0,0-.656-.656.274.274,0,0,0-.32-.048,1.673,1.673,0,0,1-.912.128ZM1.9,18.12a5.355,5.355,0,0,1,.176-1.92c.08-.176.144-.384-.1-.448a9.58,9.58,0,0,0-1.312-.224A14.281,14.281,0,0,1,.808,18.36v5.952c0,1.136.4,1.744,1.264,1.984a10.778,10.778,0,0,0,2.832.288,27.688,27.688,0,0,0,4.336-.272c.192-.016.256-.048.256-.224-.016-.208-.048-.512-.08-.768-.016-.144-.048-.192-.224-.16a24.061,24.061,0,0,1-4.064.352,11.666,11.666,0,0,1-2.4-.176c-.608-.128-.832-.4-.832-1.248V21.336a40.848,40.848,0,0,0,5.536-1.92A8.893,8.893,0,0,1,8.9,18.824c.208-.032.256-.24.128-.416a7.242,7.242,0,0,0-.928-.88,4.055,4.055,0,0,1-1.552,1.056A29.493,29.493,0,0,1,1.9,20.248ZM10.648,14.7a1.616,1.616,0,1,0,1.616,1.616A1.612,1.612,0,0,0,10.648,14.7Zm0,.608A1.008,1.008,0,1,1,9.64,16.312,1,1,0,0,1,10.648,15.3ZM23.064,21.64c1.072,0,2.256,0,3.456.032.192.016.24-.016.24-.192a7.215,7.215,0,0,0,0-.832c0-.176-.048-.208-.24-.192-1.216.032-2.4.048-3.5.048H18.1a29.223,29.223,0,0,1-3.536-.144,9.458,9.458,0,0,0,.16,1.216c.048.16.128.224.272.224a13.089,13.089,0,0,1,2.16-.16Zm10.9-1.84c-.96,0-1.952-.016-3.072-.1.016.32.064.688.1.912.032.208.08.272.256.272.88-.064,1.824-.1,2.672-.1h2.96a7.489,7.489,0,0,1-.656,3.04,6.455,6.455,0,0,1-2.848,3.024,2.543,2.543,0,0,1,.976.416.253.253,0,0,0,.368,0,7.306,7.306,0,0,0,2.576-3.088,9.38,9.38,0,0,0,.72-3.392h2.128c1.056,0,2.032.016,3.04.048.176,0,.192-.032.192-.224a5.163,5.163,0,0,0,0-.7c0-.16-.016-.208-.176-.192-.9.048-2.032.08-3.024.08H38.04c0-.368.016-.624.016-1.04,0-.224.016-.432.032-.64a1.317,1.317,0,0,1,.112-.448c.08-.16.048-.272-.144-.32a10.154,10.154,0,0,0-1.328-.208,4.649,4.649,0,0,1,.176,1.232c.016.4.016,1.008,0,1.424Zm6.416-5.088a3.033,3.033,0,0,1-1.072.576,19.767,19.767,0,0,1-2.864.784,33.475,33.475,0,0,1-4.656.608,2.142,2.142,0,0,1,.56.688.265.265,0,0,0,.288.208,38.266,38.266,0,0,0,4.16-.592c1.136-.208,2.208-.5,3.344-.816.272-.08.656-.208.912-.256.256-.032.368-.112.368-.224a.535.535,0,0,0-.192-.32A5.432,5.432,0,0,0,40.376,14.712Z"
          transform="translate(260.5 2740)" fill="#485757" />
      </g>
      <g id="多角形_4-2" data-name="多角形 4" transform="translate(123.325 2440.241) rotate(-22)"
        fill="#cbd6d0">
        <path
          d="M 14.24999809265137 17.5 L 0.7500029802322388 17.5 L 7.500000476837158 1.300006031990051 L 14.24999809265137 17.5 Z"
          stroke="none" />
        <path
          d="M 7.500000476837158 2.600011825561523 L 1.500005722045898 17 L 13.49999523162842 17 L 7.500000476837158 2.600011825561523 M 7.500000476837158 0 L 15 18 L 9.5367431640625e-07 18 L 7.500000476837158 0 Z"
          stroke="none" fill="#cbd6d0" />
      </g>
    </g>
    <line id="線_144" data-name="線 144" x1="20" transform="translate(-5416.571 4898.991)" fill="none"
      stroke="#707070" strokeWidth="1" />
    <g id="グループ_167" data-name="グループ 167" transform="translate(-5535.822 1969.602)">
      <path id="パス_469" data-name="パス 469"
        d="M-48.992-8.992h1.376c.944,0,1.744.016,2.768.064.16,0,.176-.048.176-.208V-9.9c0-.128-.016-.176-.16-.16-.992.032-1.808.048-2.8.048h-4.144c-1.072,0-1.776-.016-2.64-.08a7.731,7.731,0,0,0,.064.944c.032.192.048.256.192.24.752-.048,1.472-.08,2.432-.08h1.568v6.016h-2.8c-.992,0-1.888,0-2.928-.08a7.448,7.448,0,0,0,.08.944c.032.208.08.24.256.24.7-.032,1.808-.08,2.592-.08h6.768c.992,0,2.032.032,2.928.048.176,0,.224-.048.224-.208v-.736c0-.16-.064-.208-.224-.192-1.04.032-1.92.064-2.944.064h-2.784Zm10.72-1.088a16.612,16.612,0,0,1,3.04,2.368c.112.112.16.1.256-.016a6.455,6.455,0,0,0,.544-.688c.08-.128.064-.192-.048-.3a14.761,14.761,0,0,0-2.88-2.128.193.193,0,0,0-.288.032C-37.824-10.624-38.064-10.336-38.272-10.08Zm.384,8.4A6.007,6.007,0,0,0-37.1-.592a.262.262,0,0,0,.432.016,5.964,5.964,0,0,1,.88-.624,33.228,33.228,0,0,0,4.8-3.12A29.537,29.537,0,0,0-27.1-8c.192-.224.208-.352.112-.56a4.789,4.789,0,0,1-.272-1.056,24.97,24.97,0,0,1-4.32,4.3,27.159,27.159,0,0,1-4.624,2.976A8.926,8.926,0,0,1-37.888-1.68Zm20.624-8.528a6.681,6.681,0,0,1,.112-1.776c.08-.24.144-.416-.112-.48a6.6,6.6,0,0,0-1.328-.208,13.535,13.535,0,0,1,.176,2.56v7.12c0,.976-.016,2.224-.064,3.248,0,.176.048.224.224.224a6.941,6.941,0,0,0,.816,0c.176,0,.224-.048.208-.208-.016-1.04-.048-2.288-.048-3.264V-6.7A17.751,17.751,0,0,1-12.624-4.56c.144.1.208.064.3-.064a5.119,5.119,0,0,0,.384-.784c.048-.112.016-.192-.112-.256a22.566,22.566,0,0,0-5.216-2.224ZM-3.392-7.072c0,.784-.016,1.5-.032,2.192-.016.176.048.24.208.24h.752c.176,0,.24-.064.24-.256-.032-.688-.048-1.28-.048-2.112v-2.7a4.494,4.494,0,0,1,.16-1.68c.064-.144.064-.32-.144-.384a8.673,8.673,0,0,0-1.312-.256,12.3,12.3,0,0,1,.176,2.32Zm6.7-2.464a6.147,6.147,0,0,1,.16-2.1c.08-.16.08-.336-.112-.4A7.362,7.362,0,0,0,2-12.288a12.9,12.9,0,0,1,.176,2.8v2.752A6.52,6.52,0,0,1,.9-2.368,7.784,7.784,0,0,1-2.832-.176a2.814,2.814,0,0,1,.8.592A.371.371,0,0,0-1.584.5a8.309,8.309,0,0,0,3.5-2.352A7.6,7.6,0,0,0,3.312-6.832ZM18.864-5.36c1.072,0,2.256,0,3.456.032.192.016.24-.016.24-.192a7.215,7.215,0,0,0,0-.832c0-.176-.048-.208-.24-.192-1.216.032-2.4.048-3.5.048H13.9a29.223,29.223,0,0,1-3.536-.144,9.458,9.458,0,0,0,.16,1.216c.048.16.128.224.272.224a13.089,13.089,0,0,1,2.16-.16Zm20.512-5.008c0-1.552.032-2.192.032-2.288,0-.112-.016-.128-.128-.128-.08,0-.5.032-1.728.032H35.5c-1.248,0-1.648-.032-1.728-.032-.128,0-.144.016-.144.128,0,.1.032.4.032,1.376v1.856c0,.992-.032,1.3-.032,1.376,0,.112.016.128.144.128.08,0,.48-.032,1.728-.032h2.928v7.12c0,.64-.144.768-.848.768a9.881,9.881,0,0,1-1.168-.064,2.391,2.391,0,0,1,.288.7c.08.3.064.3.368.3,1.28,0,1.632-.064,1.936-.32.3-.24.416-.512.416-1.216,0-.608-.048-1.44-.048-2.32ZM38.432-8.72H34.576V-9.984h3.856Zm0-2.032H34.576v-1.216h3.856ZM32.1-11.184c0-.976.032-1.376.032-1.472,0-.112-.016-.128-.128-.128-.08,0-.48.032-1.6.032H28.464c-1.184,0-1.712-.032-1.808-.032-.112,0-.128.016-.128.128,0,.1.032,1.072.032,3.36v6.928c0,2.288-.032,3.232-.032,3.328,0,.112.016.128.128.128h.752c.112,0,.128-.016.128-.128,0-.1-.032-1.04-.032-3.328V-7.952h2.9c1.12,0,1.52.032,1.6.032.112,0,.128-.016.128-.128,0-.08-.032-.48-.032-1.472ZM31.184-8.72H27.5V-9.984h3.68Zm0-2.032H27.5v-1.216h3.68Zm6.224,7.008c0-.112-.016-.128-.128-.128-.08,0-.608.032-2.176.032H34.88v-1.9c1.376,0,1.856.032,1.936.032.1,0,.112-.016.112-.128v-.592c0-.112-.016-.128-.112-.128-.08,0-.576.032-2.08.032H31.184c-1.5,0-2-.032-2.064-.032-.128,0-.144.016-.144.128v.592c0,.112.016.128.144.128.048,0,.512-.032,1.792-.032,0,.784-.032,1.408-.048,1.9H30.7c-1.568,0-2.08-.032-2.176-.032-.112,0-.128.016-.128.128v.592c0,.112.016.128.128.128.1,0,.608-.032,2.176-.032h.1a3.921,3.921,0,0,1-.416,1.52,3.915,3.915,0,0,1-1.6,1.664,1.755,1.755,0,0,1,.56.384c.128.128.192.192.256.192.048,0,.112-.048.208-.128a4.929,4.929,0,0,0,1.424-1.808,5.8,5.8,0,0,0,.48-1.824h2.272v1.712c0,1.184-.032,1.664-.032,1.76,0,.112.016.128.128.128h.7c.112,0,.128-.016.128-.128,0-.1-.032-.576-.032-1.76V-3.056H35.1c1.568,0,2.1.032,2.176.032.112,0,.128-.016.128-.128Zm-3.424-.1H31.776c.032-.528.048-1.152.048-1.9h2.16Zm21.552.56c0-1.056.032-1.472.032-1.552,0-.112-.016-.128-.144-.128-.08,0-.528.032-1.888.032H51.024c-1.36,0-1.808-.032-1.9-.032-.112,0-.128.016-.128.128,0,.1.032.5.032,1.76v1.264c0,2.288-.032,2.656-.032,2.736,0,.112.016.128.128.128h.72c.112,0,.128-.016.128-.128v-.8h4.608V.864c0,.1.016.112.128.112h.72c.128,0,.144-.016.144-.112S55.536.4,55.536-1.872ZM54.576-.7H49.968v-3.36h4.608ZM45.216-9.76c.144-.7.256-1.424.384-2.16a1.9,1.9,0,0,1,.192-.688.521.521,0,0,0,.112-.24c0-.08-.08-.128-.192-.16a7.107,7.107,0,0,0-1.04-.128,5.164,5.164,0,0,1-.032,1.248c-.1.672-.208,1.392-.336,2.128h-.16c-1.168,0-1.52-.032-1.616-.032s-.112.016-.112.128v.672c0,.112.016.128.112.128s.448-.032,1.6-.032a33.931,33.931,0,0,1-1.5,5.168c-.048.144-.048.16.208.224l.4.128c.208.064.24.016.272-.1l.24-.688c.528.32,1.008.624,1.472.96A9.166,9.166,0,0,1,42.272-.016a1.484,1.484,0,0,1,.464.432c.112.16.176.224.24.224a.411.411,0,0,0,.192-.112,10.825,10.825,0,0,0,2.8-3.136A16.86,16.86,0,0,1,47.44-1.2c.1.1.16.08.288-.1L48-1.664c.112-.128.144-.208.048-.288-.592-.56-1.136-1.024-1.664-1.456a16.723,16.723,0,0,0,1.2-5.184c.032-.224.064-.624.144-1.024a.143.143,0,0,0-.16-.176c-.08,0-.432.032-1.616.032Zm1.5.864A15.247,15.247,0,0,1,45.6-3.968q-.744-.528-1.584-1.008A35.216,35.216,0,0,0,45.04-8.9Zm6.816-1.232c-.192.112-.208.128-.128.24A19.08,19.08,0,0,1,54.7-8c-1.376.208-2.848.384-4.352.528.624-1.36,1.1-2.64,1.632-4.144a2.369,2.369,0,0,1,.32-.64.384.384,0,0,0,.144-.256c0-.1-.048-.144-.24-.224a5.375,5.375,0,0,0-.944-.24,4.525,4.525,0,0,1-.24,1.136A45.563,45.563,0,0,1,49.36-7.392a11.261,11.261,0,0,1-1.472,0,7.431,7.431,0,0,0,.208.976c.032.128.112.192.16.192a.359.359,0,0,0,.224-.1c.064-.048.144-.1.608-.144,2.064-.208,4.192-.464,6.048-.752.208.4.4.816.592,1.248.048.112.08.112.3,0l.4-.208c.208-.112.224-.128.16-.24A17.967,17.967,0,0,0,54.16-10.3c-.08-.08-.1-.08-.24-.016Z"
        transform="translate(268 2740)" fill="#485757" />
    </g>
  </g>
</svg>