<svg id="icon_LINE" xmlns="http://www.w3.org/2000/svg" width="80.292" height="80.292"
  viewBox="0 0 80.292 80.292">
  <path id="パス_301" data-name="パス 301"
    d="M62.191,0H18.1A18.1,18.1,0,0,0,0,18.1v44.09a18.1,18.1,0,0,0,18.1,18.1h44.09a18.1,18.1,0,0,0,18.1-18.1V18.1A18.1,18.1,0,0,0,62.191,0Z"
    fill="#06c755" />
  <path id="パス_302" data-name="パス 302"
    d="M60.1,28.984c0-11.96-11.987-21.691-26.722-21.691S6.66,17.024,6.66,28.984c0,10.722,9.507,19.7,22.348,21.4.87.188,2.055.574,2.354,1.318a5.493,5.493,0,0,1,.086,2.417s-.314,1.886-.381,2.288c-.116.675-.537,2.643,2.315,1.441s15.389-9.064,21-15.518h0C58.248,38.081,60.1,33.77,60.1,28.984Z"
    transform="translate(6.708 7.346)" fill="#fff" />
  <path id="パス_303" data-name="パス 303"
    d="M32.88,27.905H25.372a.51.51,0,0,1-.51-.51V15.73a.51.51,0,0,1,.51-.51H32.88a.512.512,0,0,1,.51.51v1.9a.51.51,0,0,1-.51.51h-5.1V20.1h5.1a.512.512,0,0,1,.51.51v1.9a.51.51,0,0,1-.51.51h-5.1v1.969h5.1a.512.512,0,0,1,.51.51v1.9a.51.51,0,0,1-.51.51Z"
    transform="translate(25.043 15.331)" fill="#06c755" />
  <path id="パス_304" data-name="パス 304"
    d="M19.045,27.905a.51.51,0,0,0,.51-.51V25.5a.512.512,0,0,0-.51-.51h-5.1V15.73a.512.512,0,0,0-.51-.51h-1.9a.51.51,0,0,0-.51.51V27.395a.51.51,0,0,0,.51.51Z"
    transform="translate(11.107 15.331)" fill="#06c755" />
  <path id="パス_305" data-name="パス 305"
    d="M18.48,15.22h-1.9a.51.51,0,0,0-.51.51V27.395a.51.51,0,0,0,.51.51h1.9a.51.51,0,0,0,.51-.51V15.73A.51.51,0,0,0,18.48,15.22Z"
    transform="translate(16.192 15.331)" fill="#06c755" />
  <path id="パス_306" data-name="パス 306"
    d="M29,15.22h-1.9a.51.51,0,0,0-.51.51v6.928l-5.336-7.208a.517.517,0,0,0-.041-.053l0,0-.031-.032-.009-.009-.028-.023-.014-.01L21.11,15.3l-.016-.009-.028-.015-.016-.008-.03-.013L21,15.25l-.031-.01-.018,0-.03-.007-.022,0-.028,0h-1.93a.51.51,0,0,0-.51.51V27.4a.51.51,0,0,0,.51.51h1.9a.51.51,0,0,0,.51-.51V20.469l5.342,7.217a.518.518,0,0,0,.131.128l.006,0,.032.019.015.008.025.012.025.011.016.006.035.011.007,0a.521.521,0,0,0,.133.018H29a.51.51,0,0,0,.51-.51V15.731a.51.51,0,0,0-.51-.51Z"
    transform="translate(18.57 15.331)" fill="#06c755" />
</svg>