<svg id="tiktok-app-icon-seeklogo.com" xmlns="http://www.w3.org/2000/svg" width="80.289"
  height="81.292" viewBox="0 0 80.289 81.292">
  <path id="パス_307" data-name="パス 307"
    d="M60.546,81.292h-40.8A19.869,19.869,0,0,1,0,61.3V19.989A19.868,19.868,0,0,1,19.743,0h40.8A19.868,19.868,0,0,1,80.289,19.989V61.3A19.865,19.865,0,0,1,60.546,81.292Z"
    transform="translate(0 0)" />
  <g id="グループ_198" data-name="グループ 198" transform="translate(11.903 9.654)">
    <path id="パス_308" data-name="パス 308"
      d="M64.616,116.945v-2.427a17.88,17.88,0,0,0-2.546-.218,18.872,18.872,0,0,0-10.821,34.362,18.851,18.851,0,0,1,13.366-31.717Z"
      transform="translate(-43.156 -92.427)" fill="#25f4ee" />
    <path id="パス_309" data-name="パス 309"
      d="M104.349,87a8.631,8.631,0,0,0,8.611-8.253V37.6h7.516a13.984,13.984,0,0,1-.218-2.6h-10.28V76.1a8.633,8.633,0,0,1-8.611,8.313,8.763,8.763,0,0,1-3.977-.993A8.627,8.627,0,0,0,104.349,87Zm30.164-35.438V49.277a14.048,14.048,0,0,1-7.775-2.347,14.241,14.241,0,0,0,7.775,4.634Z"
      transform="translate(-82.431 -35)" fill="#25f4ee" />
  </g>
  <path id="パス_310" data-name="パス 310"
    d="M114.581,53.718a14.15,14.15,0,0,1-3.52-9.348h-2.744A14.223,14.223,0,0,0,114.581,53.718Zm-25.4,20.223a8.631,8.631,0,0,0-3.977,16.268A8.609,8.609,0,0,1,92.19,76.548a9.054,9.054,0,0,1,2.546.4V66.485a17.861,17.861,0,0,0-2.546-.2h-.458v7.955A8.723,8.723,0,0,0,89.186,73.941Z"
    transform="translate(-58.368 -32.132)" fill="#fe2c55" />
  <path id="パス_311" data-name="パス 311"
    d="M116.5,95.05V103a24.4,24.4,0,0,1-14.257-4.634v20.9a18.911,18.911,0,0,1-18.91,18.872,18.7,18.7,0,0,1-10.818-3.42A18.872,18.872,0,0,0,105.2,121.877V101.035a24.451,24.451,0,0,0,14.277,4.573V95.37A14.666,14.666,0,0,1,116.5,95.05Z"
    transform="translate(-52.51 -68.833)" fill="#fe2c55" />
  <path id="パス_312" data-name="パス 312"
    d="M88.609,82.571v-20.9a24.412,24.412,0,0,0,14.277,4.573V58.291a14.268,14.268,0,0,1-7.795-4.573,14.242,14.242,0,0,1-6.264-9.348H81.311V85.534A8.631,8.631,0,0,1,65.7,90.248a8.629,8.629,0,0,1,3.977-16.265,8.855,8.855,0,0,1,2.546.4V66.306A18.939,18.939,0,0,0,58.859,98.244a18.71,18.71,0,0,0,10.837,3.2A18.916,18.916,0,0,0,88.609,82.571Z"
    transform="translate(-38.881 -32.132)" fill="#fff" />
</svg>