<svg xmlns="http://www.w3.org/2000/svg" xmlns:xlink="http://www.w3.org/1999/xlink" width="81"
  height="81" viewBox="0 0 81 81">
  <defs>
    <linearGradient id="linear-gradient" x1="0.162" y1="-0.076" x2="0.734" y2="1.02"
      gradientUnits="objectBoundingBox">
      <stop offset="0" stop-color="#4d64d4" />
      <stop offset="0.404" stop-color="#cf2f93" />
      <stop offset="0.744" stop-color="#f16939" />
      <stop offset="1" stop-color="#fedd83" />
    </linearGradient>
  </defs>
  <g id="グループ_718" data-name="グループ 718" transform="translate(-2126 -10750)">
    <rect id="長方形_460" data-name="長方形 460" width="81" height="81" rx="17"
      transform="translate(2126 10750)" fill="url(#linear-gradient)" />
    <rect id="長方形_153" data-name="長方形 153" width="80.154" height="80.154"
      transform="translate(2126.258 10750.292)" fill="none" />
    <path id="パス_314" data-name="パス 314"
      d="M109.1,126.417H84.514A17.332,17.332,0,0,1,67.2,109.1V84.515A17.332,17.332,0,0,1,84.514,67.2H109.1a17.332,17.332,0,0,1,17.313,17.313V109.1A17.332,17.332,0,0,1,109.1,126.417m-24.589-53.7A11.806,11.806,0,0,0,72.721,84.515V109.1A11.806,11.806,0,0,0,84.514,120.9H109.1A11.806,11.806,0,0,0,120.9,109.1V84.515A11.806,11.806,0,0,0,109.1,72.722Z"
      transform="translate(2069.596 10693.493)" fill="#fff" />
    <path id="パス_315" data-name="パス 315"
      d="M340.743,135.465a3.69,3.69,0,1,1-3.69-3.69,3.69,3.69,0,0,1,3.69,3.69"
      transform="translate(1845.173 10639.046)" fill="#fff" />
    <path id="パス_316" data-name="パス 316"
      d="M173.707,189.013a15.306,15.306,0,1,1,15.306-15.306,15.323,15.323,0,0,1-15.306,15.306m0-25.092a9.786,9.786,0,1,0,9.785,9.786,9.8,9.8,0,0,0-9.785-9.786"
      transform="translate(1992.698 10616.596)" fill="#fff" />
    <rect id="長方形_154" data-name="長方形 154" width="80.154" height="80.154"
      transform="translate(2126.258 10750.292)" fill="none" />
  </g>
</svg>