<svg xmlns="http://www.w3.org/2000/svg" width="80" height="81" viewBox="0 0 80 81">
  <g id="グループ_717" data-name="グループ 717" transform="translate(-29 -8071)">
    <rect id="長方形_242" data-name="長方形 242" width="80" height="81" rx="17"
      transform="translate(29 8071)" fill="#1d9bf0" />
    <path id="icon_twitter"
      d="M15.487,39.49c18.639,0,28.831-15.2,28.831-28.366,0-.434,0-.868-.021-1.282a20.579,20.579,0,0,0,5.064-5.169,20.83,20.83,0,0,1-5.821,1.571A9.994,9.994,0,0,0,48,.724a20.725,20.725,0,0,1-6.43,2.419A10.162,10.162,0,0,0,34.169,0,10.053,10.053,0,0,0,24.04,9.965a8.995,8.995,0,0,0,.273,2.274A28.9,28.9,0,0,1,3.425,1.819,9.86,9.86,0,0,0,6.577,15.114,10.079,10.079,0,0,1,2,13.873V14a10.023,10.023,0,0,0,8.132,9.779,10.255,10.255,0,0,1-2.669.351,9.832,9.832,0,0,1-1.912-.186A10.1,10.1,0,0,0,15,30.868,20.582,20.582,0,0,1,2.417,35.127,18.743,18.743,0,0,1,0,34.983,28.567,28.567,0,0,0,15.487,39.49Z"
      transform="translate(44.319 8090.755)" fill="#fff" />
  </g>
</svg>