<svg id="グループ_4557" data-name="グループ 4557" xmlns="http://www.w3.org/2000/svg" width="45.01" height="47.143" viewBox="0 0 45.01 47.143">
  <g id="グループ_4555" data-name="グループ 4555" transform="translate(3.285)">
    <path id="パス_1371" data-name="パス 1371" d="M154.4,110.83c-.251-.169-.5-.326-.76-.48a17.377,17.377,0,0,0-20.6,2.042c-.274.249-.54.5-.8.766a17.639,17.639,0,0,0-1.922,2.333c-.171.249-.338.506-.5.766a17.315,17.315,0,0,0-1.21,2.333c-.023.059-.05.118-.072.173a17.049,17.049,0,0,0-.76,2.268c-.068.253-.129.511-.182.766a17.688,17.688,0,0,0-.4,3.753c0,.3.008.6.023.906.012.257.03.514.058.766,0,.05.008.1.015.15v0c.034.357.08.707.141,1.061a17.677,17.677,0,0,0,4.628,9.321c.175.184.358.368.544.549a17.388,17.388,0,0,0,21.037,2.452c.259-.157.51-.315.76-.483a17.746,17.746,0,0,0,6.77-8.642c.088-.236.167-.476.243-.714a17.755,17.755,0,0,0-7.015-20.093Zm-23.963,5.43h4.543v2.333h-5.8a17.362,17.362,0,0,1,1.255-2.333ZM128.13,121.8H146.8v3.369h-3.975l2.059-2.644H131.068l-2.059,2.644h-1.286a16.676,16.676,0,0,1,.407-3.369Zm13.734,3.369H129.976l1.462-1.876h11.888Zm-14.126,1.292c-.008-.173-.015-.345-.019-.522h.693l-.409.522-.247.315C127.749,126.671,127.746,126.568,127.738,126.463Zm4.646,10.883a17.162,17.162,0,0,1-4.513-9.471l.5-.644.6-.766.409-.522h11.888l-.409.522-.6.766Zm28.495-6.474-.27.766a17.223,17.223,0,0,1-6.21,8.005l-.76.5-.038.023a16.846,16.846,0,0,1-20.674-2.274l8.3-10.664.6-.766.409-.522h4.57v.906h.76v-.907h3.449v-.766h-3.449v-4.137H128.316a16.5,16.5,0,0,1,.548-1.673h17.687v-3.868H130.96a17.082,17.082,0,0,1,2.024-2.333h1.994v1.389h.76v-1.389h4.905v1.389h.76v-1.389h9.848v-.766h-9.845v-.837h-.76v.837h-4.905v-.837h-.76v.837h-1.145a16.851,16.851,0,0,1,19.8-1.42l.76.5a17.212,17.212,0,0,1,6.481,19.4ZM135.742,118.6v-2.333h4.9V118.6Zm5.666,0v-2.333h4.38V118.6Zm1.606,9.951v9.609h6.317v-10h-5.7c-.279,0-.621,0-.621.384Zm.76.384h4.794v8.458h-4.794Z" transform="translate(-126.065 -104.787)" fill="#fff"/>
    <path id="パス_1372" data-name="パス 1372" d="M146.418,101.287c-.27-.18-.537-.345-.811-.51a18.509,18.509,0,0,0-21.927,2.171c-.292.269-.578.537-.849.817a18.485,18.485,0,0,0-2.046,2.482c-.182.269-.361.541-.533.817a18.646,18.646,0,0,0-1.286,2.482c-.027.059-.053.123-.076.184a17.427,17.427,0,0,0-.811,2.412c-.076.269-.141.544-.194.817a18.66,18.66,0,0,0-.426,3.993c0,.322.008.641.023.963.011.272.034.549.058.817,0,.054.008.107.015.161v0c.038.379.088.755.152,1.124a18.834,18.834,0,0,0,4.924,9.919c.187.2.381.391.578.583a18.521,18.521,0,0,0,22.391,2.608c.274-.169.54-.334.811-.514a18.878,18.878,0,0,0,7.2-9.192c.1-.253.179-.506.259-.76a18.886,18.886,0,0,0-7.463-21.376Zm6.9,21.319q-.132.412-.285.817a18.328,18.328,0,0,1-6.61,8.515c-.267.184-.537.364-.811.53a17.952,17.952,0,0,1-22.046-2.394c-.2-.188-.388-.384-.575-.583a18.27,18.27,0,0,1-4.806-10.076c-.03-.23-.058-.456-.08-.686-.015-.157-.027-.315-.042-.476v-.008c-.008-.107-.012-.219-.019-.334-.008-.184-.015-.368-.019-.556,0-.134,0-.272,0-.407s0-.272.008-.407a17.411,17.411,0,0,1,.434-3.586c.058-.272.126-.549.2-.817a17.7,17.7,0,0,1,.585-1.78c.106-.276.221-.544.335-.817a18.735,18.735,0,0,1,1.339-2.482c.175-.276.361-.549.555-.817a18.316,18.316,0,0,1,2.158-2.482c.289-.28.593-.556.9-.817a17.949,17.949,0,0,1,21.079-1.507c.274.165.544.345.811.53a18.31,18.31,0,0,1,6.9,20.636Z" transform="translate(-117.459 -96.184)" fill="#fff"/>
    <path id="パス_1373" data-name="パス 1373" d="M299.5,107.611q-5.074-.412-10.169-.392.151-13.032-.354-26.061-.508,13.027-.354,26.068-4.388.038-8.772.385,4.383.353,8.783.385.087,6.658.343,13.311.261-6.651.343-13.306Q294.416,108.018,299.5,107.611Z" transform="translate(-261.064 -81.158)" fill="#fff"/>
    <path id="パス_1374" data-name="パス 1374" d="M318.417,306.138v-1.346" transform="translate(-295.151 -278.706)" fill="#fff"/>
    <line id="線_100" data-name="線 100" x1="0.27" y2="0.762" transform="translate(34.543 26.086)" fill="none"/>
    <path id="パス_1375" data-name="パス 1375" d="M355.3,380.463l.038-.023.761-.495" transform="translate(-327.765 -345.062)" fill="#fff"/>
    <line id="線_101" data-name="線 101" x1="0.762" y1="0.495" transform="translate(27.573 6.162)" fill="none"/>
  </g>
  <g id="グループ_4556" data-name="グループ 4556" transform="translate(0 42.914)">
    <path id="パス_1376" data-name="パス 1376" d="M93.058,450.231H92.25v.082c0,.1-.046.15-.176.15s-.176-.05-.176-.15v-.082H90.378v.082c0,.1-.046.15-.176.15s-.176-.05-.176-.15v-.082h-.813c-.087,0-.128-.036-.128-.15s.041-.151.128-.151h.813v-.078c0-.1.041-.155.176-.155s.176.054.176.155v.078H91.9v-.078c0-.1.041-.155.176-.155s.176.054.176.155v.078h.809c.087,0,.132.041.132.151S93.144,450.231,93.058,450.231Zm-.046,2.188c-.137,0-.176-.05-.176-.151v-.279H90.774a.243.243,0,0,1,.137.169c0,.036-.023.064-.064.091l-.137.087h1.567a.256.256,0,0,1,.27.234.184.184,0,0,1-.073.146l-1.366,1.115a.175.175,0,0,1-.105.046.251.251,0,0,1-.192-.187.126.126,0,0,1,.059-.1l.187-.151-.662-.342c-.05-.027-.073-.055-.073-.1,0-.073.087-.191.164-.191a.185.185,0,0,1,.077.023l.761.389.717-.58h-1.8l-.845.535a.185.185,0,0,1-.087.032c-.077,0-.169-.128-.169-.2a.122.122,0,0,1,.073-.1l1.43-.9a.256.256,0,0,1,.036-.018H89.436v.275c0,.105-.046.155-.183.155s-.176-.05-.176-.155v-.279a.278.278,0,0,1,.315-.292h3.485a.278.278,0,0,1,.315.292v.283c0,.1-.049.148-.183.148Zm-.215-.968H89.468a.238.238,0,0,1-.265-.265v-.37a.239.239,0,0,1,.265-.265H92.8a.239.239,0,0,1,.265.265v.37a.239.239,0,0,1-.265.268Zm-2.42-.635h-.823v.37h.823Zm1.165,0h-.823v.37h.822Zm1.165,0h-.819v.37h.819Z" transform="translate(-89.077 -449.648)" fill="#fff"/>
    <path id="パス_1377" data-name="パス 1377" d="M130.722,453.5h-.781a.317.317,0,0,1-.315-.343v-2.808a.317.317,0,0,1,.315-.342h.781a.317.317,0,0,1,.315.342v2.808a.317.317,0,0,1-.315.343Zm-.037-3.133h-.708v2.772h.708Zm2.75,1.251h-.8v2.028c0,.11-.05.164-.2.164s-.192-.054-.192-.164v-2.028h-.786c-.117,0-.175-.05-.175-.2s.054-.205.175-.205h.786v-1.346c0-.109.046-.169.192-.169s.2.059.2.169v1.346h.8c.117,0,.176.055.176.205s-.057.2-.176.2Z" transform="translate(-124.929 -449.649)" fill="#fff"/>
    <path id="パス_1378" data-name="パス 1378" d="M172.289,455.321H171.9a.527.527,0,0,1-.4-.183l-.932-1-1.141,1.018a.6.6,0,0,1-.42.164h-.452c-.077,0-.109-.032-.109-.187s.027-.182.117-.182h.4a.4.4,0,0,0,.265-.1l2.156-1.955c.032-.028.046-.05.046-.069s-.028-.037-.087-.037h-2.722c-.091,0-.132-.041-.132-.187s.036-.187.132-.187h3.174a.218.218,0,0,1,.228.215v.109a.194.194,0,0,1-.068.16l-1.105.991.868.946a.343.343,0,0,0,.256.117h.319c.109,0,.132.023.132.183S172.4,455.321,172.289,455.321Zm-.356-3.485h-2.978c-.091,0-.137-.041-.137-.183s.041-.183.137-.183h2.978c.091,0,.132.041.132.183s-.041.185-.132.185Z" transform="translate(-159.257 -451.216)" fill="#fff"/>
    <path id="パス_1379" data-name="パス 1379" d="M211.759,455.8h-2.192a.639.639,0,0,1-.731-.662v-.452a.576.576,0,0,1,.626-.589h.27a.5.5,0,0,1,.484.206l.576.731a.1.1,0,0,1,.014.046c0,.069-.151.16-.21.16a.091.091,0,0,1-.082-.05l-.539-.667a.251.251,0,0,0-.228-.1h-.192a.321.321,0,0,0-.356.356v.228c0,.278.15.42.493.42h1.989a.517.517,0,0,0,.576-.557v-.662a.532.532,0,0,0-.612-.6h-1.165c-.117,0-.164-.05-.164-.117a.127.127,0,0,1,.018-.064l.475-.913a.072.072,0,0,0,.014-.037c0-.027-.023-.046-.064-.046h-1.306c-.091,0-.133-.036-.133-.187s.037-.187.133-.187h1.557c.156,0,.256.082.256.2a.239.239,0,0,1-.027.1l-.415.872h.886a.819.819,0,0,1,.927.863v.855a.772.772,0,0,1-.876.852Z" transform="translate(-194.973 -451.737)" fill="#fff"/>
    <path id="パス_1380" data-name="パス 1380" d="M252.764,449.916h-.443a.362.362,0,0,1,.109.3v1.411a.621.621,0,0,1-.146.475l-.713.959a.434.434,0,0,1-.443.215h-1.822c-.091,0-.137-.041-.137-.183s.041-.187.137-.187h1.731a.242.242,0,0,0,.228-.105l.685-.918a.443.443,0,0,0,.1-.334v-1.2a.136.136,0,0,0-.151-.155h-2.768c-.105,0-.137-.046-.137-.187s.032-.183.142-.183h2.814a.915.915,0,0,1,.242.028.171.171,0,0,1-.036-.1v-.324a.164.164,0,0,1,.164-.165h.443a.167.167,0,0,1,.164.165v.324A.167.167,0,0,1,252.764,449.916Zm-.058-.425a.034.034,0,0,0-.032-.032h-.26a.031.031,0,0,0-.023.009.031.031,0,0,0-.009.023v.2a.032.032,0,0,0,.032.032h.26a.035.035,0,0,0,.032-.032Z" transform="translate(-230.484 -449.264)" fill="#fff"/>
    <path id="パス_1381" data-name="パス 1381" d="M292.056,457.768h-2.772a.327.327,0,0,1-.37-.37v-2.685a.327.327,0,0,1,.37-.37h2.772a.328.328,0,0,1,.374.37V457.4a.328.328,0,0,1-.374.37Zm0-2.9a.136.136,0,0,0-.156-.155h-2.448a.136.136,0,0,0-.155.155v2.371a.137.137,0,0,0,.155.156H291.9a.136.136,0,0,0,.156-.156Z" transform="translate(-265.78 -453.757)" fill="#fff"/>
    <path id="パス_1382" data-name="パス 1382" d="M331.422,452.623l-.761,1.028a.461.461,0,0,1-.457.219h-2.028c-.087,0-.132-.041-.132-.182s.041-.187.132-.187h1.951a.254.254,0,0,0,.237-.117l.717-.968a.444.444,0,0,0,.1-.334v-1.466c0-.091.037-.142.192-.142.132,0,.187.037.187.137v1.535A.622.622,0,0,1,331.422,452.623Zm-1.781-1.763h-1.457c-.091,0-.133-.041-.133-.187s.037-.187.133-.187h1.457c.091,0,.137.041.137.187s-.04.188-.136.188Zm0,1.229h-1.457c-.091,0-.133-.041-.133-.187s.037-.187.133-.187h1.457c.091,0,.137.041.137.187s-.04.188-.136.188Zm1.535-1.814h-.169a.091.091,0,0,1-.091-.091v-.16a.091.091,0,0,1,.091-.091h.169a.089.089,0,0,1,.091.091v.16a.089.089,0,0,1-.089.092Zm.6,0H331.6a.089.089,0,0,1-.091-.091v-.16a.089.089,0,0,1,.091-.091h.169a.091.091,0,0,1,.091.091v.16a.091.091,0,0,1-.091.092Z" transform="translate(-300.383 -449.856)" fill="#fff"/>
    <path id="パス_1383" data-name="パス 1383" d="M372.9,462.9h-2.777c-.068,0-.105-.046-.105-.16s.032-.164.105-.164h1.206v-1.989h-1.053c-.073,0-.105-.046-.105-.164s.032-.164.105-.164h2.475c.073,0,.11.046.11.164s-.032.164-.109.164h-1.087v1.989H372.9c.073,0,.105.046.105.164S372.976,462.9,372.9,462.9Z" transform="translate(-337.497 -458.988)" fill="#fff"/>
    <path id="パス_1384" data-name="パス 1384" d="M409.235,455.3l-.794,1.037a.482.482,0,0,1-.457.219h-1.6c-.087,0-.132-.041-.132-.182s.041-.187.132-.187h1.526a.252.252,0,0,0,.234-.109l.761-.991a.438.438,0,0,0,.1-.334V453.5a.14.14,0,0,0-.156-.156h-1.658a.161.161,0,0,0-.146.058l-.708.878a.268.268,0,0,1-.2.1h-.315c-.091,0-.132-.032-.132-.187s.032-.187.132-.187h.21c.05,0,.068,0,.117-.069l.7-.872a.293.293,0,0,1,.228-.1h1.931a.33.33,0,0,1,.37.379v1.463A.648.648,0,0,1,409.235,455.3Z" transform="translate(-369.037 -452.538)" fill="#fff"/>
    <path id="パス_1385" data-name="パス 1385" d="M453.213,454.605h-.521a.5.5,0,0,1-.228-.041l-1.946-.854v2.05c0,.091-.041.132-.192.132s-.187-.036-.187-.132v-3.449c0-.091.041-.132.187-.132s.192.037.192.132v.995l2.055.9a.356.356,0,0,0,.137.032h.5c.091,0,.137.037.137.192S453.309,454.605,453.213,454.605Z" transform="translate(-408.339 -451.843)" fill="#fff"/>
  </g>
</svg>
