<svg id="グループ_4557" data-name="グループ 4557" xmlns="http://www.w3.org/2000/svg" width="50.124"
  height="52.5" viewBox="0 0 50.124 52.5">
  <g id="グループ_4555" data-name="グループ 4555" transform="translate(3.658)">
    <path id="パス_1371" data-name="パス 1371"
      d="M157.49,111.165c-.28-.188-.559-.363-.846-.534A19.351,19.351,0,0,0,133.7,112.9c-.305.278-.6.56-.886.853a19.643,19.643,0,0,0-2.14,2.6c-.191.278-.377.564-.555.853a19.282,19.282,0,0,0-1.348,2.6c-.025.066-.055.131-.081.192a18.987,18.987,0,0,0-.846,2.526c-.076.282-.144.569-.2.853a19.7,19.7,0,0,0-.445,4.179c0,.337.008.671.025,1.008.013.286.034.572.065.853,0,.056.008.111.017.167v0c.038.4.089.788.157,1.182a19.686,19.686,0,0,0,5.153,10.38c.2.2.4.41.606.611a19.364,19.364,0,0,0,23.427,2.731c.288-.175.568-.351.846-.538a19.762,19.762,0,0,0,7.539-9.624c.1-.263.186-.53.271-.8a19.772,19.772,0,0,0-7.812-22.376ZM130.8,117.212h5.06v2.6h-6.458a19.334,19.334,0,0,1,1.4-2.6Zm-2.568,6.171h20.795v3.752H144.6l2.293-2.944H131.508l-2.293,2.944h-1.432a18.571,18.571,0,0,1,.453-3.752Zm15.294,3.752H130.292l1.628-2.09h13.239ZM127.8,128.574c-.008-.192-.017-.385-.021-.581h.771l-.456.581-.275.351C127.812,128.806,127.808,128.691,127.8,128.574Zm5.174,12.12a19.112,19.112,0,0,1-5.026-10.547l.559-.718.665-.853.456-.581h13.239l-.456.581-.665.853Zm31.732-7.209-.3.853a19.18,19.18,0,0,1-6.916,8.915l-.846.555-.042.026a18.76,18.76,0,0,1-23.022-2.532l9.244-11.876.665-.853.456-.581h5.09V129h.846v-1.01h3.841v-.853H149.88v-4.607H128.443a18.37,18.37,0,0,1,.61-1.863h19.7v-4.307H131.388a19.023,19.023,0,0,1,2.254-2.6h2.221v1.547h.846V113.76h5.463v1.547h.846V113.76h10.967v-.853H143.022v-.932h-.846v.932h-5.463v-.932h-.846v.932h-1.275a18.766,18.766,0,0,1,22.054-1.582l.846.555a19.168,19.168,0,0,1,7.217,21.6Zm-27.994-13.671v-2.6h5.459v2.6Zm6.31,0v-2.6H147.9v2.6Zm1.788,11.081v10.7h7.035V130.464H145.5c-.311,0-.692,0-.692.427Zm.846.427H151v9.419h-5.338Z"
      transform="translate(-125.936 -104.435)" fill="#111" />
    <path id="パス_1372" data-name="パス 1372"
      d="M149.708,101.643c-.3-.2-.6-.385-.9-.568a20.612,20.612,0,0,0-24.418,2.418c-.326.3-.644.6-.945.91a20.586,20.586,0,0,0-2.279,2.764c-.2.3-.4.6-.593.91a20.764,20.764,0,0,0-1.432,2.764c-.03.066-.059.136-.085.2a19.408,19.408,0,0,0-.9,2.686c-.085.3-.157.606-.216.91a20.781,20.781,0,0,0-.475,4.447c0,.359.008.713.025,1.072.012.3.038.611.065.91,0,.06.008.119.017.179v0c.042.423.1.841.169,1.251a20.974,20.974,0,0,0,5.484,11.046c.208.218.424.436.644.65a20.626,20.626,0,0,0,24.935,2.9c.305-.188.6-.371.9-.572a21.023,21.023,0,0,0,8.022-10.237c.106-.282.2-.564.288-.846a21.031,21.031,0,0,0-8.311-23.805Zm7.682,23.741q-.147.459-.318.91a20.411,20.411,0,0,1-7.361,9.483c-.3.2-.6.406-.9.591a19.992,19.992,0,0,1-24.551-2.665c-.221-.209-.432-.427-.64-.649a20.346,20.346,0,0,1-5.352-11.221c-.034-.256-.065-.508-.089-.764-.017-.175-.03-.35-.046-.53v-.009c-.008-.119-.013-.243-.021-.371-.008-.2-.017-.41-.021-.619,0-.15,0-.3,0-.453s0-.3.008-.453a19.389,19.389,0,0,1,.483-3.994c.065-.3.14-.611.221-.91a19.718,19.718,0,0,1,.651-1.982c.118-.308.246-.606.373-.91a20.865,20.865,0,0,1,1.492-2.764c.2-.308.4-.611.618-.91a20.4,20.4,0,0,1,2.4-2.764c.322-.312.661-.619,1-.91a19.988,19.988,0,0,1,23.474-1.679c.305.184.606.385.9.591a20.391,20.391,0,0,1,7.682,22.981Z"
      transform="translate(-117.459 -95.961)" fill="#111" />
    <path id="パス_1373" data-name="パス 1373"
      d="M301.733,110.617q-5.651-.459-11.324-.437.168-14.513-.394-29.022-.565,14.507-.394,29.03-4.886.043-9.769.429,4.881.394,9.781.429.1,7.415.382,14.823.291-7.406.382-14.818Q296.071,111.07,301.733,110.617Z"
      transform="translate(-258.929 -81.158)" fill="#111" />
    <path id="パス_1374" data-name="パス 1374" d="M318.417,306.291v-1.5"
      transform="translate(-292.508 -275.742)" fill="#111" />
    <line id="線_100" data-name="線 100" x1="0.301" y2="0.848" transform="translate(38.468 29.05)"
      fill="none" />
    <path id="パス_1375" data-name="パス 1375" d="M355.3,380.522l.042-.025.847-.551"
      transform="translate(-324.637 -341.099)" fill="#111" />
    <line id="線_101" data-name="線 101" x1="0.848" y1="0.551" transform="translate(30.706 6.862)"
      fill="none" />
  </g>
  <g id="グループ_4556" data-name="グループ 4556" transform="translate(0 47.79)">
    <path id="パス_1376" data-name="パス 1376"
      d="M93.51,450.292h-.9v.092c0,.112-.051.167-.2.167s-.2-.056-.2-.167v-.092H90.525v.092c0,.112-.051.167-.2.167s-.2-.056-.2-.167v-.092h-.906c-.1,0-.143-.04-.143-.167s.046-.168.143-.168h.906v-.087c0-.112.046-.173.2-.173s.2.061.2.173v.087h1.694v-.087c0-.112.046-.173.2-.173s.2.061.2.173v.087h.9c.1,0,.147.046.147.168S93.606,450.292,93.51,450.292Zm-.051,2.437c-.152,0-.2-.056-.2-.168v-.31h-2.3a.271.271,0,0,1,.152.188c0,.04-.025.071-.071.1l-.152.1H92.64a.285.285,0,0,1,.3.261.2.2,0,0,1-.081.163L91.338,454.3a.2.2,0,0,1-.117.051.279.279,0,0,1-.214-.208.141.141,0,0,1,.065-.112l.209-.168-.738-.381c-.056-.031-.081-.061-.081-.107,0-.081.1-.213.183-.213a.205.205,0,0,1,.086.025l.847.433.8-.646h-2.01l-.941.6a.206.206,0,0,1-.1.036c-.086,0-.188-.143-.188-.224a.136.136,0,0,1,.081-.112l1.592-1a.288.288,0,0,1,.04-.02H89.476v.306c0,.117-.051.173-.2.173s-.2-.056-.2-.173v-.31a.31.31,0,0,1,.351-.326H93.31a.31.31,0,0,1,.351.326v.315c0,.109-.055.165-.2.165Zm-.239-1.078H89.512a.266.266,0,0,1-.3-.3v-.412a.266.266,0,0,1,.3-.295H93.22a.266.266,0,0,1,.3.295v.412a.266.266,0,0,1-.3.3Zm-2.695-.707h-.917v.412h.917Zm1.3,0h-.917v.412h.915Zm1.3,0h-.912v.412h.912Z"
      transform="translate(-89.077 -449.642)" fill="#111" />
    <path id="パス_1377" data-name="パス 1377"
      d="M130.846,453.935h-.87a.353.353,0,0,1-.351-.382v-3.127a.353.353,0,0,1,.351-.381h.87a.353.353,0,0,1,.351.381v3.127a.353.353,0,0,1-.351.382Zm-.041-3.489h-.788v3.087h.788Zm3.062,1.393h-.891V454.1c0,.122-.056.183-.219.183s-.214-.061-.214-.183v-2.259h-.875c-.13,0-.2-.056-.2-.223s.061-.229.2-.229h.875v-1.5c0-.122.051-.188.214-.188s.219.065.219.188v1.5h.89c.13,0,.2.061.2.229s-.063.223-.2.223Z"
      transform="translate(-124.396 -449.643)" fill="#111" />
    <path id="パス_1378" data-name="パス 1378"
      d="M172.726,455.759h-.433a.587.587,0,0,1-.448-.2l-1.038-1.114-1.271,1.134a.671.671,0,0,1-.468.183h-.5c-.086,0-.122-.036-.122-.209s.031-.2.13-.2h.442a.443.443,0,0,0,.3-.112l2.4-2.177c.036-.031.051-.056.051-.076s-.031-.041-.1-.041h-3.031c-.1,0-.147-.046-.147-.209s.04-.208.147-.208h3.535a.242.242,0,0,1,.254.239v.122a.217.217,0,0,1-.076.178l-1.231,1.1.966,1.053a.382.382,0,0,0,.285.13h.356c.122,0,.147.025.147.2S172.846,455.759,172.726,455.759Zm-.4-3.881h-3.316c-.1,0-.152-.046-.152-.2s.046-.2.152-.2h3.316c.1,0,.147.046.147.2s-.046.207-.147.207Z"
      transform="translate(-158.213 -451.188)" fill="#111" />
    <path id="パス_1379" data-name="パス 1379"
      d="M212.091,456.226H209.65a.712.712,0,0,1-.814-.737v-.5a.642.642,0,0,1,.7-.656h.3a.554.554,0,0,1,.539.229l.641.814a.113.113,0,0,1,.016.051c0,.076-.168.178-.234.178a.1.1,0,0,1-.091-.056l-.6-.743a.28.28,0,0,0-.254-.107h-.214a.357.357,0,0,0-.4.4v.254c0,.31.167.468.549.468H212a.576.576,0,0,0,.641-.62v-.738a.593.593,0,0,0-.682-.671h-1.3c-.13,0-.183-.056-.183-.13a.141.141,0,0,1,.02-.071l.529-1.017a.08.08,0,0,0,.016-.041c0-.031-.025-.051-.071-.051h-1.455c-.1,0-.148-.04-.148-.209s.041-.209.148-.209h1.734c.173,0,.285.091.285.219a.266.266,0,0,1-.031.117l-.463.971h.986a.912.912,0,0,1,1.033.961v.952a.86.86,0,0,1-.975.949Z"
      transform="translate(-193.398 -451.701)" fill="#111" />
    <path id="パス_1380" data-name="パス 1380"
      d="M253.192,449.99H252.7a.4.4,0,0,1,.122.336V451.9a.691.691,0,0,1-.163.529l-.794,1.068a.483.483,0,0,1-.493.239h-2.03c-.1,0-.152-.046-.152-.2s.046-.209.152-.209h1.928a.269.269,0,0,0,.254-.117l.763-1.022a.493.493,0,0,0,.112-.371v-1.332a.152.152,0,0,0-.168-.173h-3.082c-.117,0-.152-.051-.152-.208s.035-.2.158-.2h3.133a1.018,1.018,0,0,1,.27.031.19.19,0,0,1-.04-.117v-.361a.182.182,0,0,1,.183-.183h.493a.186.186,0,0,1,.183.183v.361A.186.186,0,0,1,253.192,449.99Zm-.065-.473a.038.038,0,0,0-.036-.036h-.29a.035.035,0,0,0-.026.01.034.034,0,0,0-.01.026v.219a.035.035,0,0,0,.036.036h.29a.038.038,0,0,0,.036-.036Z"
      transform="translate(-228.381 -449.264)" fill="#111" />
    <path id="パス_1381" data-name="パス 1381"
      d="M292.413,458.158h-3.087a.364.364,0,0,1-.412-.412v-2.991a.364.364,0,0,1,.412-.412h3.087a.365.365,0,0,1,.417.412v2.991a.365.365,0,0,1-.417.412Zm-.005-3.225a.152.152,0,0,0-.173-.173h-2.726a.151.151,0,0,0-.173.173v2.64a.152.152,0,0,0,.173.173h2.726a.152.152,0,0,0,.173-.173Z"
      transform="translate(-263.152 -453.691)" fill="#111" />
    <path id="パス_1382" data-name="パス 1382"
      d="M331.806,452.928l-.847,1.145a.513.513,0,0,1-.509.244h-2.258c-.1,0-.147-.046-.147-.2s.046-.209.147-.209h2.172a.283.283,0,0,0,.264-.13l.8-1.078a.5.5,0,0,0,.112-.372v-1.633c0-.1.041-.158.214-.158.147,0,.208.041.208.152V452.4A.692.692,0,0,1,331.806,452.928Zm-1.984-1.964H328.2c-.1,0-.148-.046-.148-.209s.041-.208.148-.208h1.622c.1,0,.152.046.152.208s-.045.209-.152.209Zm0,1.368H328.2c-.1,0-.148-.046-.148-.208s.041-.209.148-.209h1.622c.1,0,.152.046.152.209s-.045.209-.152.209Zm1.709-2.02h-.188a.1.1,0,0,1-.1-.1v-.178a.1.1,0,0,1,.1-.1h.188a.1.1,0,0,1,.1.1v.178a.1.1,0,0,1-.1.1Zm.667,0h-.188a.1.1,0,0,1-.1-.1v-.178a.1.1,0,0,1,.029-.073.1.1,0,0,1,.073-.029h.188a.1.1,0,0,1,.1.1v.178a.1.1,0,0,1-.1.1Z"
      transform="translate(-297.24 -449.847)" fill="#111" />
    <path id="パス_1383" data-name="パス 1383"
      d="M373.23,463.2h-3.093c-.076,0-.117-.051-.117-.178s.036-.183.117-.183h1.343v-2.215h-1.173c-.081,0-.117-.051-.117-.183s.036-.183.117-.183h2.757c.081,0,.122.051.122.183s-.036.183-.122.183h-1.211v2.215h1.379c.081,0,.117.051.117.183S373.311,463.2,373.23,463.2Z"
      transform="translate(-333.802 -458.843)" fill="#111" />
    <path id="パス_1384" data-name="パス 1384"
      d="M409.638,455.561l-.885,1.154a.537.537,0,0,1-.509.244h-1.78c-.1,0-.147-.046-.147-.2s.046-.209.147-.209h1.7a.281.281,0,0,0,.26-.122l.847-1.1a.487.487,0,0,0,.107-.371v-1.394a.156.156,0,0,0-.173-.173h-1.846a.179.179,0,0,0-.163.065l-.788.977a.3.3,0,0,1-.219.112h-.351c-.1,0-.147-.036-.147-.208s.036-.208.147-.208h.234c.056,0,.076-.005.13-.076l.778-.971a.326.326,0,0,1,.254-.107h2.15a.367.367,0,0,1,.412.422v1.629A.721.721,0,0,1,409.638,455.561Z"
      transform="translate(-364.872 -452.49)" fill="#111" />
    <path id="パス_1385" data-name="パス 1385"
      d="M453.562,454.881h-.58a.553.553,0,0,1-.254-.046l-2.167-.951v2.283c0,.1-.046.147-.214.147s-.209-.04-.209-.147v-3.841c0-.1.046-.147.209-.147s.214.041.214.147v1.108l2.289,1a.4.4,0,0,0,.152.036h.56c.1,0,.152.041.152.214S453.669,454.881,453.562,454.881Z"
      transform="translate(-403.59 -451.804)" fill="#111" />
  </g>
</svg>