<svg xmlns="http://www.w3.org/2000/svg" width="19.997" height="19.997" viewBox="0 0 19.997 19.997">
  <g id="グループ_726" data-name="グループ 726" transform="translate(-6388 -3044)">
    <path id="長方形_462" data-name="長方形 462"
      d="M4.555-1h8.888A5.561,5.561,0,0,1,19,4.555v8.888A5.561,5.561,0,0,1,13.442,19H4.555A5.561,5.561,0,0,1-1,13.442V4.555A5.561,5.561,0,0,1,4.555-1Zm8.888,17.775a3.337,3.337,0,0,0,3.333-3.333V4.555a3.337,3.337,0,0,0-3.333-3.333H4.555A3.337,3.337,0,0,0,1.222,4.555v8.888a3.337,3.337,0,0,0,3.333,3.333Z"
      transform="translate(6389 3045)" fill="#485757" />
    <path id="楕円形_32" data-name="楕円形 32"
      d="M3.444-1A4.444,4.444,0,1,1-1,3.444,4.449,4.449,0,0,1,3.444-1Zm0,6.666A2.222,2.222,0,1,0,1.222,3.444,2.224,2.224,0,0,0,3.444,5.666Z"
      transform="translate(6394.555 3050.555)" fill="#485757" />
    <path id="線_144" data-name="線 144"
      d="M.111,1.223A1.111,1.111,0,1,1,1.222.111h0A1.111,1.111,0,0,1,.111,1.223Z"
      transform="translate(6402.887 3048.888)" fill="#485757" />
  </g>
</svg>