<svg xmlns="http://www.w3.org/2000/svg" width="19.997" height="16.258" viewBox="0 0 19.997 16.258">
  <path id="icon_twitter"
    d="M17.95,4.047c.012.176.012.353.012.531A11.6,11.6,0,0,1,6.289,16.258v0A11.61,11.61,0,0,1,0,14.414a8.343,8.343,0,0,0,.976.059,8.235,8.235,0,0,0,5.1-1.761A4.108,4.108,0,0,1,2.239,9.862a4.088,4.088,0,0,0,1.852-.071A4.1,4.1,0,0,1,.8,5.768V5.716a4.075,4.075,0,0,0,1.862.514A4.111,4.111,0,0,1,1.392.749,11.642,11.642,0,0,0,9.848,5.037a4.107,4.107,0,0,1,6.991-3.744,8.23,8.23,0,0,0,2.605-1,4.12,4.12,0,0,1-1.8,2.27A8.155,8.155,0,0,0,20,1.921,8.337,8.337,0,0,1,17.95,4.047Z"
    fill="#485757" />
</svg>