<svg xmlns="http://www.w3.org/2000/svg" width="310.785" height="193.943" viewBox="0 0 310.785 193.943">
  <g id="グループ_2253" data-name="グループ 2253" transform="translate(-83 -450.864)">
    <path id="パス_1224" data-name="パス 1224" d="M33.974-20.017A9.6,9.6,0,0,0,39.28-28.8c0-6.219-5.135-10.384-15.119-10.384H4.648V.75H25.3c10.5,0,15.975-3.994,15.975-10.9A9.863,9.863,0,0,0,33.974-20.017ZM23.019-32.227c4.507,0,6.961,1.54,6.961,4.678s-2.453,4.735-6.961,4.735H13.834v-9.414Zm1.6,26.016H13.834v-9.87H24.617c4.793,0,7.36,1.6,7.36,4.964C31.977-7.694,29.409-6.21,24.617-6.21ZM67.749,1.435c11.354,0,18.086-6.5,18.086-18.257V-39.187H76.707v22.023c0,7.588-3.252,10.726-8.9,10.726-5.591,0-8.9-3.138-8.9-10.726V-39.187H49.663v22.365C49.663-5.069,56.4,1.435,67.749,1.435Zm42.049,0c11.411,0,16.945-5.705,16.945-12.381,0-14.663-23.221-9.585-23.221-16.945,0-2.51,2.111-4.564,7.588-4.564a22.556,22.556,0,0,1,11.068,3.138l2.853-7.018a26.79,26.79,0,0,0-13.864-3.537c-11.354,0-16.831,5.648-16.831,12.438,0,14.834,23.221,9.7,23.221,17.173,0,2.453-2.225,4.279-7.7,4.279a23.491,23.491,0,0,1-13.179-4.165L93.538-3.187C97.075-.448,103.465,1.435,109.8,1.435ZM134.787.75h9.243V-39.187h-9.243Zm47.925-39.938V-14.94L162.858-39.187h-7.645V.75h9.129V-23.5L184.253.75h7.588V-39.187Zm29.5,32.521v-9.243h18.542V-23.1H212.209V-31.77h21v-7.417H203.023V.75h30.923V-6.667Zm43.931,8.1c11.411,0,16.945-5.705,16.945-12.381,0-14.663-23.221-9.585-23.221-16.945,0-2.51,2.111-4.564,7.588-4.564a22.556,22.556,0,0,1,11.068,3.138l2.853-7.018a26.79,26.79,0,0,0-13.864-3.537c-11.354,0-16.831,5.648-16.831,12.438,0,14.834,23.221,9.7,23.221,17.173,0,2.453-2.225,4.279-7.7,4.279a23.491,23.491,0,0,1-13.179-4.165L239.88-3.187C243.417-.448,249.807,1.435,256.14,1.435Zm38.112,0c11.411,0,16.945-5.705,16.945-12.381,0-14.663-23.221-9.585-23.221-16.945,0-2.51,2.111-4.564,7.588-4.564a22.556,22.556,0,0,1,11.068,3.138l2.853-7.018a26.79,26.79,0,0,0-13.864-3.537c-11.354,0-16.831,5.648-16.831,12.438,0,14.834,23.221,9.7,23.221,17.173,0,2.453-2.225,4.279-7.7,4.279a23.491,23.491,0,0,1-13.179-4.165l-3.138,6.961C281.529-.448,287.919,1.435,294.252,1.435Z" transform="translate(78.379 524.406)" fill="#fff"/>
    <path id="パス_1225" data-name="パス 1225" d="M25.938.563h7.274L19.819-29.391H12.973L-.378.563h7.1L9.378-5.856H23.285ZM11.6-11.119l4.75-11.468L21.1-11.119Zm63.03-18.271L67.658-8.167,60.812-29.391H54.393L47.333-8.338,40.572-29.391H33.383L43.225.563h7.4l6.8-20.283L64.021.563h7.445l9.8-29.953ZM107.8.563h7.274L101.677-29.391H94.83L81.48.563h7.1l2.653-6.419h13.907ZM93.461-11.119l4.75-11.468,4.75,11.468ZM146.007.563l-6.718-9.628a9.738,9.738,0,0,0,6.162-9.457c0-6.718-5.006-10.869-13.008-10.869H119.477V.563h6.932V-7.781h6.376L138.562.563Zm-7.574-19.084c0,3.252-2.139,5.22-6.376,5.22h-5.648V-23.742h5.648C136.294-23.742,138.433-21.817,138.433-18.522ZM152.212.563h13.607c9.8,0,16.517-5.905,16.517-14.977s-6.718-14.977-16.517-14.977H152.212Zm6.932-5.691V-23.7h6.333c5.948,0,9.842,3.552,9.842,9.285s-3.894,9.285-9.842,9.285Zm50.706.043,6.889-6.5c4.193-3.894,5.006-6.547,5.006-9.457,0-5.434-4.45-8.858-11.125-8.858-5.392,0-9.585,2.182-11.9,5.563l5.049,3.252a7.324,7.324,0,0,1,6.2-3c3.166,0,4.793,1.369,4.793,3.723,0,1.455-.471,3-3.124,5.52L200.094-3.93V.563H222.73V-5.086Zm29.782,6.162c7.4,0,12.837-5.606,12.837-15.49S247.035-29.9,239.632-29.9c-7.36,0-12.837,5.606-12.837,15.49S232.272,1.076,239.632,1.076Zm0-5.862c-3.423,0-5.819-2.824-5.819-9.628s2.4-9.628,5.819-9.628c3.466,0,5.862,2.824,5.862,9.628S243.1-4.786,239.632-4.786Zm26.744-.3,6.889-6.5c4.193-3.894,5.006-6.547,5.006-9.457,0-5.434-4.45-8.858-11.125-8.858-5.392,0-9.585,2.182-11.9,5.563l5.049,3.252a7.324,7.324,0,0,1,6.2-3c3.166,0,4.792,1.369,4.792,3.723,0,1.455-.471,3-3.124,5.52L256.62-3.93V.563h22.636V-5.086Zm44.031-6.29h-4.878v-5.606h-6.547v5.606h-8.045l13.094-18.015h-7.274l-14.121,19v4.664h16.132V.563h6.761v-6.29h4.878Z" transform="translate(83.378 571.458)" fill="#fff"/>
    <path id="パス_1281" data-name="パス 1281" d="M18.171-17.757v-1.284h-3.8V-20H12.751v.963H6.6V-20H4.972v.963h-3.8v1.284h3.8v.793H6.6v-.793h6.156v.793h1.624v-.793Zm-.51,4.929V-16.51H1.7v3.682Zm.51,4.268v-3H1.176v3H2.724v-1.794H7.275A7.869,7.869,0,0,1,1.7-7.5V-6.03A11.29,11.29,0,0,0,6.6-7.881h7.61A9.357,9.357,0,0,1,9.428-5.086L7.8-6.9H5.972L7.823-4.727a28.874,28.874,0,0,1-5.042.378v1.341c6.59,0,10.8-1.454,13.313-4.891V-9.07H8.012a6.692,6.692,0,0,0,1-1.284H16.6v1.794Zm-2.153-5.287H12.789v-1.586h3.229Zm-4.721,0H8.031v-1.586H11.3Zm-4.74,0H3.291v-1.586H6.558Zm31.082,1.36V-14.15H33.466V-20H31.729v5.854H27.65v1.662h4.079v9.479h1.737v-9.479ZM27.027-4.048V-19.664H21.154V-4.048Zm-1.492-1.53H22.608V-18.116h2.927ZM55.408-17.322v-1.586H46.873a18.817,18.817,0,0,1-4.8-.548v1.662a21.866,21.866,0,0,0,4.777.472Zm1.171,13.8V-5.181H53.407c-1.832,0-2.058-.245-2.058-1.662V-8.58c0-1.02-.132-1.605-1.7-1.718a54.777,54.777,0,0,1,5.759-3.72v-1.36H40.887v1.624h11.1a98.334,98.334,0,0,0-11.33,8.271v2.115C42.7-5.105,45.4-7.2,48.025-9.127c1.4.038,1.681.283,1.681,1.133V-6.2c0,2.058.453,2.681,3.3,2.681ZM76.142-9.713c0-3.191-2.4-5.287-6.156-5.287a8.478,8.478,0,0,0-2.058.3l5.948-3.078v-1.4H60.488v1.624h10.2l-11.179,5.91v1.945l4.022-2.323a10.876,10.876,0,0,1,5.589-1.662c3.361,0,5.174,1.624,5.174,3.928,0,2.474-1.907,4.7-6.345,4.7-2.549,0-4.1-.736-4.1-1.983,0-.831.888-1.7,2.606-1.7A4.393,4.393,0,0,1,69.722-7.05V-8.919a5.3,5.3,0,0,0-3.38-1.19c-2.681,0-4.362,1.454-4.362,3.116,0,2.19,2.1,3.55,6.08,3.55C73.65-3.443,76.142-6.37,76.142-9.713Zm20.073-8.573a1.837,1.837,0,0,0-1.832-1.851,1.858,1.858,0,0,0-1.869,1.851,1.858,1.858,0,0,0,1.869,1.851A1.837,1.837,0,0,0,96.215-18.285Zm-4.532,1.378v-1.681H79.957v1.681Zm3.323,3v-1.737H93.326v1.681c0,6.364-2.889,8.781-9.442,8.781H80.6V-3.5h3.323C91.645-3.5,95.006-6.786,95.006-13.9Zm.321-4.381a.963.963,0,0,1-.944.963.98.98,0,0,1-.963-.963.951.951,0,0,1,.963-.944A.935.935,0,0,1,95.327-18.285ZM114.418-4.01V-18.644h-14.9V-4.01Zm-1.7-1.681h-11.5V-16.945h11.5Zm22.225-11.1v-3.04h-1.057v3.04Zm-2,0v-3.04h-1.057v3.04Zm-6.194-.264v-1.586h-7.893v1.586Zm7.383,2v-.869h-1.7v.661c0,5.759-1.416,10.046-8.705,10.046h-5.25v1.7H123.6C132.433-3.519,134.132-8.617,134.132-15.056Zm-7.383,3.55v-1.605h-7.893v1.605Zm25.7,7.742V-5.218h-5.892v-9.2h5.608v-1.454h-12.6v1.454h5.552v9.2h-5.835v1.454Zm20.6-8.762v-6.043H160.04c0,3.229-.755,4.947-2.719,5.91v1.813c2.889-1.02,4.041-3.323,4.173-6.061h9.857v4.249c0,5.042-3.04,7.5-8.969,7.5h-3.644v1.681h3.7C169.821-3.481,173.05-6.974,173.05-12.526ZM192.16-9.9V-11.62c-4.532,0-9.064-.774-11.953-2.266v-5.571h-1.756V-3.481h1.756V-12A30.768,30.768,0,0,0,192.16-9.9Z" transform="translate(82.749 471)" fill="#fff"/>
    <path id="パス_1282" data-name="パス 1282" d="M18.185-14.414V-16.1c-3.21-.4-6.5-2.058-7.478-3.909H8.649c-.982,1.851-4.305,3.512-7.5,3.909v1.681c3.21-.3,6.8-2,8.516-4.343C11.387-16.416,14.974-14.717,18.185-14.414Zm0,11.179V-4.69H10.5v-3.1h6.647V-9.2H10.5v-3.1h6.1v-1.492H2.738V-12.3h6.1v3.1H2.191v1.416H8.837v3.1H1.152v1.454Zm18.94.019V-19.664H21.149V-3.217ZM35.557-4.708H22.7V-18.191H35.557ZM34.273-6.5V-7.881h-.888l-.623-2.266h-1.1l.6,2.266h-2.36v-3.04h3.833V-12.3H29.911v-2.681h4.362v-1.36H24v1.36h4.324V-12.3H24.51v1.378h3.814v3.04H24V-6.5Zm22.792-7.232v-3.72H54.516L55.441-20H53.76L52.8-17.455H49.266A8.47,8.47,0,0,0,48.549-20H46.906a8.355,8.355,0,0,1,.755,2.549H44.055A8.84,8.84,0,0,0,43.3-20H41.656a8.2,8.2,0,0,1,.755,2.549h-2.36v3.7h1.567v-2.172H55.5v2.19Zm0,5.948v-1.53H49.531v-.85a11.5,11.5,0,0,0,4.589-2.549v-1.416H43V-12.7h9.045a10.467,10.467,0,0,1-4.192,1.851v1.53h-7.8v1.53h7.8V-5.35a.814.814,0,0,1-.793.812h-3.04v1.53h3.512a1.888,1.888,0,0,0,2-1.983V-7.786Zm19.45,4.551V-4.8H69.471V-9.41h6V-11h-6v-4.589h6.552v-1.567H69.471V-20h-1.7v2.851H63.183a15.159,15.159,0,0,0,.491-2.511h-1.7a14.329,14.329,0,0,1-2.625,6.855h1.907a13.086,13.086,0,0,0,1.416-2.776h5.1V-11H61.049V-9.41h6.722V-4.8H60.03v1.567Zm19-.019V-5.5L91.3-9.165a12.932,12.932,0,0,0,2.719-8.29v-1.209H80.046v1.718H92.207c-.094,7.176-6,10.952-12.671,11.708v1.7A17.693,17.693,0,0,0,90.092-7.862Zm19.28-8.309v-7.1H101.27c0,3.191-.869,5.174-2.36,6.137v1.945c2.455-1.209,3.607-3.531,3.833-6.4H113.11v6c-2.587-1.039-5.816-1.586-11.368-1.586v1.624c5.571,0,8.214.4,11.141,1.567-.623,2.474-2.606,4.192-7.855,4.192H100.5v1.662H105.1C112.525-3.519,114.791-6.974,114.791-11.563Zm18.94,1.171v-1.794h-14.71v1.794Zm19.525.491V-11.62c-4.532,0-9.064-.774-11.953-2.266v-5.571h-1.756V-3.481H141.3V-12A30.768,30.768,0,0,0,153.256-9.9Zm20.016-5.608v-3.3H157.3v1.681h14.219v1.718c0,3.663-2.323,5.382-6.307,5.382V-8.3C170.156-8.372,173.272-10.789,173.272-15.51ZM164.7-11.544v-2.285H163v2.153c0,3.512-1.851,6.231-5.7,6.534v1.737A7.746,7.746,0,0,0,164.7-11.544Zm20.432,2.663-.661-7.346h-1.435l.585,7.346Zm6.08-3.172V-16.3h-1.454v4.06c0,4.777-2.587,7.289-8.479,7.289H179.2v1.435h2.077C188.152-3.519,191.211-6.54,191.211-12.054ZM180.5-8.882l-.661-7.346h-1.435l.623,7.346Zm32.4-9.4a1.838,1.838,0,0,0-1.832-1.851,1.858,1.858,0,0,0-1.869,1.851,1.858,1.858,0,0,0,1.869,1.851A1.838,1.838,0,0,0,212.908-18.285Zm-4.532,1.378v-1.681H196.649v1.681Zm3.323,3v-1.737h-1.681v1.681c0,6.364-2.889,8.781-9.442,8.781h-3.286V-3.5h3.323C208.338-3.5,211.7-6.786,211.7-13.9Zm.321-4.381a.963.963,0,0,1-.944.963.98.98,0,0,1-.963-.963.951.951,0,0,1,.963-.944A.935.935,0,0,1,212.02-18.285Zm20.092,4.551v-1.322a2.678,2.678,0,0,1-1.662.51h-2.115a.476.476,0,0,1-.472-.453v-1h3.777v-3.663h-5.212v1.133h3.739v1.4h-3.739v2.342a1.384,1.384,0,0,0,1.435,1.416h2.757A2.693,2.693,0,0,0,232.112-13.735Zm-6.458,0v-1.322a2.659,2.659,0,0,1-1.681.51h-2.058a.441.441,0,0,1-.472-.453v-1h3.739v-3.663H219.97v1.133h3.758v1.4H219.97v2.342a1.389,1.389,0,0,0,1.454,1.416h2.719A2.68,2.68,0,0,0,225.654-13.735Zm6.458,6.194V-8.749h-2.568v-2h2.039v-1.227h-2.039v-.963H228v.963h-3.909v-.963h-1.567v.963H220.5v1.227h2.021v2H219.97v1.209h2.323a6.614,6.614,0,0,1-1.775,1.813h1.869a7.657,7.657,0,0,0,1.53-1.813h4.475l1.567,1.813h1.7l-1.586-1.813Zm-13.445-8.894v-1.737l-3.588-1.794v1.681Zm13.445,13.2V-4.746H221.481c-1.813,0-2.417-.529-2.738-1.435V-12.9H215.1V-11.3h2.1v5.136L215.1-4.8v1.775l2.681-1.681c.6.982,1.3,1.473,3.342,1.473ZM228-8.749h-3.909v-2H228Zm23.566.359V-9.92h-7.667v-2.946h7.157V-14.4h-7.157v-3.172a44.486,44.486,0,0,0,6.7-.888V-20c-4.419,1-8.63,1.1-15.088,1.1V-17.4c2.549,0,4.74,0,6.7-.094v3.1h-7.138v1.53h7.138V-9.92h-7.667v1.53h7.667v2.625c0,.812-.17,1.171-1.152,1.171h-3.04v1.586H241.5c1.945,0,2.4-.869,2.4-2.417V-8.391ZM271.03-3.236v-1.19h-3.361V-6.106h3.021V-7.3h-3.021V-8.976h3.021v-1.19h-3.021v-1.681h3.361v-1.19h-3.21l.548-1.341h-1.53l-.548,1.341h-2.228a11.054,11.054,0,0,0,1.246-2h5.722v-1.378h-5.155a10.04,10.04,0,0,0,.415-1.605h4.23v-1.322h-7.61c.057-.227.094-.434.132-.661h-1.4a6.47,6.47,0,0,1-1.36,3.3H261.8a3.8,3.8,0,0,0,.755-1.322h2.228a7.841,7.841,0,0,1-.472,1.605h-4.117v1.378h3.456a7.928,7.928,0,0,1-3.55,3.323V-9.9a9.819,9.819,0,0,0,1.171-.6v7.27ZM259.474-9.9v-2.266l-1.888-2.417V-16.3H259.4v-1.548h-1.813V-20h-1.53v2.153h-2.039V-16.3h2.039v1a11.841,11.841,0,0,1-2.039,6.175v2.4a13.814,13.814,0,0,0,2.039-3.475v7.194h1.53v-9.442Zm6.7-.264h-3.342V-11.7c.038-.057.094-.094.132-.151h3.21Zm0,2.87h-3.342V-8.976h3.342Zm0,2.87h-3.342V-6.106h3.342Zm24.284,1.416V-4.784a10.725,10.725,0,0,1-7.516-9.442h7.516v-1.718h-7.629V-20h-1.756v4.06h-7.61v1.718h7.572a10.343,10.343,0,0,1-7.572,9.442v1.775a11.755,11.755,0,0,0,8.592-7.761A12.279,12.279,0,0,0,290.461-3.009Zm19.45-10.8v-1.643A9.653,9.653,0,0,1,302.527-20H300.3c-1.454,2.53-4.154,4.022-7.4,4.551v1.643c3.682-.6,6.685-2.209,8.5-4.872A12.081,12.081,0,0,0,309.91-13.81Zm-1.605,1.378v-1.511H294.54v1.511Zm1.605,9.423L307.72-7.73h-1.832l.925,2c-2.511.869-5.174.925-10.254.925l1.662-3.512H309.91V-9.807H292.9v1.492h3.38L294.634-4.8c-.566,0-1.133-.019-1.737-.019v1.605h4.211c4.91,0,7.78-.094,10.348-1.152l.623,1.36Z" transform="translate(82.754 606.329)" fill="#fff"/>
    <g id="グループ_2198" data-name="グループ 2198" transform="translate(83 622.726)">
      <text id="_2024." data-name="2024." transform="translate(0 19.559)" fill="#fff" font-size="12" font-family="VDL-LogoG-Regular, VDL-LogoG" letter-spacing="0.03em"><tspan x="0" y="0">2024.</tspan></text>
      <path id="パス_1284" data-name="パス 1284" d="M5.648-1.921A11.253,11.253,0,0,1,3.856-7.887a11.261,11.261,0,0,1,1.792-6.006H4.337A12.075,12.075,0,0,0,2.652-7.887,11.932,11.932,0,0,0,4.337-1.921ZM18.783-3.58V-13.852h-9.9v6.781a4.483,4.483,0,0,1-1.19,3.464v1.552A5.256,5.256,0,0,0,10-6h7.611v2.314a.534.534,0,0,1-.522.535H15.091v1.1h2.22A1.5,1.5,0,0,0,18.783-3.58Zm-1.177-6.875H10.049v-2.327h7.557Zm0,3.4H10.049V-9.4h7.557Zm7.2-.829a11.967,11.967,0,0,0-1.7-6.019h-1.3a11.243,11.243,0,0,1,1.779,6.019,11.346,11.346,0,0,1-1.779,5.992h1.3A11.909,11.909,0,0,0,24.8-7.887Z" transform="translate(127.683 23.975)" fill="#fff"/>
      <path id="パス_1283" data-name="パス 1283" d="M18.653-9.446V-10.6c0-1.561-.781-3.273-3.223-4.23a3.867,3.867,0,0,0,2.9-3.777v-1.083c0-3.626-2.87-5.01-7.5-5.01H8.405C4.05-24.7,1.33-22.74,1.33-19.089v.579H3.546v-.579c0-2.065,1.586-3.449,4.859-3.449h2.367c3.525,0,5.287.781,5.287,2.87v1.057c0,1.687-1.561,2.82-5.111,2.82H7.1v1.863h3.475c4.482,0,5.866,1.46,5.866,3.374v1.007c0,1.762-1.41,3.172-5.489,3.172H8.556c-3.147,0-5.111-1.083-5.111-3.525v-.655H1.28V-9.9c0,3.55,2.392,5.665,7.276,5.665H11C16.135-4.235,18.653-6.073,18.653-9.446Zm7.6,5.212V-7.029h-3.6v2.795Zm21.1-14.376c0-3.726-2.19-6.093-7.05-6.093H37.46c-4.381,0-6.8,2.568-6.8,6.244v.7H32.9v-.7c0-2.392,1.586-4.079,4.557-4.079h2.82c3.6,0,4.834,1.737,4.834,3.9,0,2.618-2.165,3.525-6.949,4.507-6.5,1.309-7.553,3.852-7.553,9.895H47.229v-2.14H33c.277-3.877,1.611-4.834,5.665-5.74C44.56-13.424,47.355-14.683,47.355-18.611Zm20.318-3.8V-24.7H50.6v2.165H64.652a28.913,28.913,0,0,0-9.517,18.3H57.35C58.408-11.36,61.958-18.586,67.673-22.413Z" transform="translate(53.229 24.704)" fill="#fff"/>
    </g>
    <g id="グループ_2197" data-name="グループ 2197" transform="translate(83 611.871)">
      <path id="線_40" data-name="線 40" d="M239.973.287H0V-.5H239.973Z" transform="translate(0 0.5)" fill="#fff"/>
    </g>
  </g>
</svg>
