<svg id="グループ_20" data-name="グループ 20" xmlns="http://www.w3.org/2000/svg" xmlns:xlink="http://www.w3.org/1999/xlink" width="70.029" height="75.247" viewBox="0 0 70.029 75.247">
  <defs>
    <clipPath id="clip-path">
      <rect id="長方形_3" data-name="長方形 3" width="70.029" height="75.247" fill="#7052ac"/>
    </clipPath>
  </defs>
  <g id="グループ_1" data-name="グループ 1" transform="translate(0)" clip-path="url(#clip-path)">
    <path id="パス_1" data-name="パス 1" d="M.487.026.579.117A1.248,1.248,0,0,1,.017.546C-.044.4.063.22.317.007.386-.029.41.09.487.026" transform="translate(57.743 57.541)" fill="#7052ac"/>
    <path id="パス_2" data-name="パス 2" d="M.242,0C.293.022.355.018.406.039.363.124.069.376,0,.3A.391.391,0,0,1,.242,0" transform="translate(54.659 59.935)" fill="#7052ac"/>
    <path id="パス_3" data-name="パス 3" d="M.491.012C.437.089.473.165.416.241.243.368.189.288.026.372-.11.221.325-.062.491.012" transform="translate(51.603 64.785)" fill="#7052ac"/>
    <path id="パス_4" data-name="パス 4" d="M.245,0C.5.1.3.359.037.346-.063.194.052.089.245,0" transform="translate(47.153 57.341)" fill="#7052ac"/>
    <path id="パス_5" data-name="パス 5" d="M.455,0C.626.2.116.394,0,.279-.012.169.292,0,.455,0" transform="translate(48.075 63.293)" fill="#7052ac"/>
    <path id="パス_6" data-name="パス 6" d="M.32.273A.464.464,0,0,1,0,.248.139.139,0,0,0,.019.07c.358-.165.537-.015.3.2" transform="translate(44.948 57.443)" fill="#7052ac"/>
    <path id="パス_7" data-name="パス 7" d="M0,.165C.033.021.495-.1.49.114.415.231.024.32,0,.165" transform="translate(41.907 63.042)" fill="#7052ac"/>
    <path id="パス_8" data-name="パス 8" d="M0,.229A4.764,4.764,0,0,1,1.44,0,8.337,8.337,0,0,1,0,.229" transform="translate(40.666 63.955)" fill="#7052ac"/>
    <path id="パス_9" data-name="パス 9" d="M0,.1C.277.1.333.132.482,0,.545,0,.588.026.595.081a1.281,1.281,0,0,1-.47.167C.1.19-.022.21,0,.1" transform="translate(40.684 63.23)" fill="#7052ac"/>
    <path id="パス_10" data-name="パス 10" d="M4.242.127A15,15,0,0,1,0,0C1.413.181,2.923.058,4.242.127" transform="translate(34.967 64.132)" fill="#7052ac"/>
    <path id="パス_11" data-name="パス 11" d="M0,0C1.035.026,2.386.042,3.266.124A13.134,13.134,0,0,1,0,0" transform="translate(34.21 66.293)" fill="#7052ac"/>
    <path id="パス_12" data-name="パス 12" d="M1.379.09C.948.131.336.427,0,.166A3.71,3.71,0,0,0,1.224,0c.007.061.169.015.155.09" transform="translate(35.895 64.849)" fill="#7052ac"/>
    <path id="パス_13" data-name="パス 13" d="M.6.08C.559.259-.161.192.033,0,.184.123.527-.044.6.08" transform="translate(35.98 58.784)" fill="#7052ac"/>
    <path id="パス_14" data-name="パス 14" d="M.714.087A3.479,3.479,0,0,1,0,.1C0-.079.619.028.714.087" transform="translate(35.799 67.08)" fill="#7052ac"/>
    <path id="パス_15" data-name="パス 15" d="M0,.039A2.663,2.663,0,0,1,1.173.092C.7,0,.243.288,0,.039" transform="translate(35.089 63.614)" fill="#7052ac"/>
    <path id="パス_16" data-name="パス 16" d="M.013.009c.2.05.216-.059.5.021C.606.244-.1.237.013.009" transform="translate(35.341 67.309)" fill="#7052ac"/>
    <path id="パス_17" data-name="パス 17" d="M.4.28C.277.179.036.147,0,0,.2-.027.545.325.865.14c.075.041.209.05.254.108C.8.2.7.317.4.28" transform="translate(34.516 64.917)" fill="#7052ac"/>
    <path id="パス_18" data-name="パス 18" d="M1.936.153A10.873,10.873,0,0,1,0,.075,4.245,4.245,0,0,1,1.936.153" transform="translate(33.307 67.192)" fill="#7052ac"/>
    <path id="パス_19" data-name="パス 19" d="M1.427.821C1.111,1.458-.271.76.047.169.187-.117.858,0,1.115.228a.994.994,0,0,1,.312.592" transform="translate(33.597 53.877)" fill="#7052ac"/>
    <path id="パス_20" data-name="パス 20" d="M.7.222C.568.116.025.179,0,.027.163-.042.765.02.7.222" transform="translate(32.218 67.025)" fill="#7052ac"/>
    <path id="パス_21" data-name="パス 21" d="M0,0C.239.017.483.036.7.033c.041.232-.5,0-.609.11C.14.061-.008.064,0,0" transform="translate(32.241 66.077)" fill="#7052ac"/>
    <path id="パス_22" data-name="パス 22" d="M.921.185A2.439,2.439,0,0,1,0,.021,1.475,1.475,0,0,1,.921.185" transform="translate(31.754 66.768)" fill="#7052ac"/>
    <path id="パス_23" data-name="パス 23" d="M.04,0C.3.147.922.186,1.1.286A3.754,3.754,0,0,1,.006.191C.022.071-.035.092.04,0" transform="translate(31.267 64.896)" fill="#7052ac"/>
    <path id="パス_24" data-name="パス 24" d="M1.283.431A6.5,6.5,0,0,1,0,0C.45.043,1.141.276,1.572.31,1.344.3,1.427.441,1.283.431" transform="translate(30.519 65.68)" fill="#7052ac"/>
    <path id="パス_25" data-name="パス 25" d="M.915.095C1.3.169,1.736.251,2.1.288L2.067.48C1.27.186,1.052.4,0,.05A1.618,1.618,0,0,1,.915.095" transform="translate(29.409 66.661)" fill="#7052ac"/>
    <path id="パス_26" data-name="パス 26" d="M6.831,1.752c-.058.113.074.1.041.2-.178-.072-.685-.222-.823.04-.081.124.259.236.065.246A9.379,9.379,0,0,0,3.185,1.9c-.109.034-.014.147-.1.171-.2.02-.527-.183-.669-.062-.107.222.419.211.387.408C2.031,2.011.625,1.754,0,1.1.085,1.02.138.871.232.814c.156.007.243.141.4.22C.665.986.669.872.758.949a2.062,2.062,0,0,1,.51.343,5.18,5.18,0,0,1,1.492.019c.5-.346,1.477.278,2.227.252.1.086-.127.142-.048.188.181-.089.327.08.535.131-.032-.133.2-.1.114-.172-.157.014-.56.074-.557-.17.1-.041.313.086.4.032C5.067,1.48,4.686,1.4,4.3,1.331,3.92,1.23,3.543,1.109,3.169,1A5.336,5.336,0,0,1,1.206.018c.181.1.239-.095.427.02-.038.07-.071.139,0,.177A16.217,16.217,0,0,0,4.2,1.166l1.311.3.653.168.668.119" transform="translate(26.323 54.311)" fill="#7052ac"/>
    <path id="パス_27" data-name="パス 27" d="M0,0C.114-.01.668.011.662.136.577.2-.047.166,0,0" transform="translate(30.552 67.227)" fill="#7052ac"/>
    <path id="パス_28" data-name="パス 28" d="M.009,0C.283.06.553.14.83.18.806.389-.1.242.009,0" transform="translate(29.67 67.041)" fill="#7052ac"/>
    <path id="パス_29" data-name="パス 29" d="M0,0C.394.128.853.043,1.111.253.694.165.172.317,0,0" transform="translate(29.837 64.589)" fill="#7052ac"/>
    <path id="パス_30" data-name="パス 30" d="M.083,0C.4.095.673.2.945.308A2.384,2.384,0,0,1,0,.113C.221.165.14.071.083,0" transform="translate(29.138 65.369)" fill="#7052ac"/>
    <path id="パス_31" data-name="パス 31" d="M0,0C.234.121.5-.071.575.106.52.068.394.129.483.15c.159-.03.334.167.6.178a.6.6,0,0,0,.093.289L.79.524C.8.413.928.457.981.4A.209.209,0,0,1,.875.345.854.854,0,0,1,0,0" transform="translate(30.127 57.05)" fill="#7052ac"/>
    <path id="パス_32" data-name="パス 32" d="M1.226.245A3.24,3.24,0,0,1,0,.041C.182-.084.9.1,1.226.245" transform="translate(27.838 66.715)" fill="#7052ac"/>
    <path id="パス_33" data-name="パス 33" d="M.039,0C.146.007.181.057.253.085.224.127.251.256.183.234.2.164.052.188,0,.156Z" transform="translate(31.883 53.732)" fill="#7052ac"/>
    <path id="パス_34" data-name="パス 34" d="M.532.061c.006.065.14.1.065.183C.373.135.286.189,0,.078.067-.037.265-.009.532.061" transform="translate(27.123 66.516)" fill="#7052ac"/>
    <path id="パス_35" data-name="パス 35" d="M.788.316A1.716,1.716,0,0,1,0,.027c.205-.12.513.191.788.289" transform="translate(26.74 66.096)" fill="#7052ac"/>
    <path id="パス_36" data-name="パス 36" d="M0,0C.181-.012.421.2.647.19.678.415-.057.123,0,0" transform="translate(25.902 65.799)" fill="#7052ac"/>
    <path id="パス_37" data-name="パス 37" d="M.009,0A2.109,2.109,0,0,1,.476.2C.443.253.512.289.485.341.195.25-.051.151.009,0" transform="translate(24.95 65.773)" fill="#7052ac"/>
    <path id="パス_38" data-name="パス 38" d="M.7.34A4.423,4.423,0,0,0,0,0C.152-.029.719.162.7.34" transform="translate(28.339 55.095)" fill="#7052ac"/>
    <path id="パス_39" data-name="パス 39" d="M.006,0C.259.081.83.229.745.426.471.468-.062.2.006,0" transform="translate(24.138 65.388)" fill="#7052ac"/>
    <path id="パス_40" data-name="パス 40" d="M.861.322C.915.551.338.328,0,.177L.08,0C.385.186.716.206.861.322" transform="translate(23.167 65.049)" fill="#7052ac"/>
    <path id="パス_41" data-name="パス 41" d="M.24,0c.372.13.3.293.607.428C.758.3.924.288,1.107.406c-.044.051.146.174.046.306C.781.525.108.368,0,.1A.323.323,0,0,0,.24,0" transform="translate(21.86 64.443)" fill="#7052ac"/>
    <path id="パス_42" data-name="パス 42" d="M0,0A2.913,2.913,0,0,1,.843.457C.579.385.094.2,0,0" transform="translate(27.401 53.101)" fill="#7052ac"/>
    <path id="パス_43" data-name="パス 43" d="M.125,0c.211.111.221.23.46.335L.645.221A1.873,1.873,0,0,1,1.008.5C.927.516.825.5.781.572.477.407.29.367.017.2A.136.136,0,0,1,.125,0" transform="translate(20.947 63.981)" fill="#7052ac"/>
    <path id="パス_44" data-name="パス 44" d="M.071,0a3.154,3.154,0,0,0,.6.314c.075.1.035.207-.043.311C.418.523-.209.189.071,0" transform="translate(20.222 63.525)" fill="#7052ac"/>
    <path id="パス_45" data-name="パス 45" d="M0,0A17.542,17.542,0,0,1,1.6,1.028,4.307,4.307,0,0,1,0,0" transform="translate(24.634 53.033)" fill="#7052ac"/>
    <path id="パス_46" data-name="パス 46" d="M.547.121A.519.519,0,0,1,.386.513c-.23.031-.6-.154-.224-.5A.434.434,0,0,1,.547.121" transform="translate(30.021 45.585)" fill="#7052ac"/>
    <path id="パス_47" data-name="パス 47" d="M0,0C.238.027.651.412.4.427.378.287-.03.139,0,0" transform="translate(19.612 63.123)" fill="#7052ac"/>
    <path id="パス_48" data-name="パス 48" d="M.773.463A.972.972,0,0,1,0,0,6.791,6.791,0,0,1,.773.463" transform="translate(25.048 52.94)" fill="#7052ac"/>
    <path id="パス_49" data-name="パス 49" d="M0,0C.59.415,1.152.9,1.654,1.261A4.356,4.356,0,0,1,0,0" transform="translate(24.571 51.143)" fill="#7052ac"/>
    <path id="パス_50" data-name="パス 50" d="M.526.543C.294.47.174.163,0,0,.332.084.747.478.526.543" transform="translate(18.872 62.714)" fill="#7052ac"/>
    <path id="パス_51" data-name="パス 51" d="M.9.687C.689.493-.044.344,0,0A6.292,6.292,0,0,1,.9.687" transform="translate(24.079 53.307)" fill="#7052ac"/>
    <path id="パス_52" data-name="パス 52" d="M.323.07A13.342,13.342,0,0,1,1.941,1.494c.629.552,1.369.76,1.663,1.359a.05.05,0,0,1-.007.076A7.356,7.356,0,0,1,1.832,1.667c-.154-.148-.309-.295-.462-.442l-.1.007A.262.262,0,0,1,1.183,1.2a.68.68,0,0,1,.2.4A6.1,6.1,0,0,0,.567.827,2.12,2.12,0,0,1,0,0,10.7,10.7,0,0,0,1.084,1.089a.163.163,0,0,1,.005-.14A6.9,6.9,0,0,1,.323.07" transform="translate(20.124 50.754)" fill="#7052ac"/>
    <path id="パス_53" data-name="パス 53" d="M.564.454C.455.209.019.243,0,0,.18-.013.613.248.564.454" transform="translate(23.838 52.087)" fill="#7052ac"/>
    <path id="パス_54" data-name="パス 54" d="M1.238.892C1,.94.767.677.509.478.271.315-.089.128.02,0A5.988,5.988,0,0,1,1.238.892" transform="translate(22.593 52.311)" fill="#7052ac"/>
    <path id="パス_55" data-name="パス 55" d="M.4.483A.549.549,0,0,1,0,0C.144.16.455.329.4.483" transform="translate(23.09 51.349)" fill="#7052ac"/>
    <path id="パス_56" data-name="パス 56" d="M.007,0C.211.079.521.326.5.53.3.342-.055.239.007,0" transform="translate(22.174 50.528)" fill="#7052ac"/>
    <path id="パス_57" data-name="パス 57" d="M.744.823A3.408,3.408,0,0,1,0,0C.252.248.653.532.744.823" transform="translate(21.496 50.495)" fill="#7052ac"/>
    <path id="パス_58" data-name="パス 58" d="M.575.6C.385.443-.019.215,0,0c.124.208.54.35.574.6" transform="translate(22.577 49.673)" fill="#7052ac"/>
    <path id="パス_59" data-name="パス 59" d="M.065,0C.254.292.5.457.421.681.273.462-.164.195.065,0" transform="translate(19.367 48.839)" fill="#7052ac"/>
    <path id="パス_60" data-name="パス 60" d="M0,.105.163,0C.2.069.261.146.248.2c-.126.1-.2.025-.248-.1" transform="translate(23.314 44.13)" fill="#7052ac"/>
    <path id="パス_61" data-name="パス 61" d="M.188.485C.061.4-.087.108.064.012c.159-.051.269.07.376.2C.389.3.353.492.188.485" transform="translate(21.285 45.012)" fill="#7052ac"/>
    <path id="パス_62" data-name="パス 62" d="M.682.837a4.062,4.062,0,0,0,.054.473C.5.926.023.433,0,0,.231.25.419.8.682.837" transform="translate(16.456 46.263)" fill="#7052ac"/>
    <path id="パス_63" data-name="パス 63" d="M0,.2C.044.123.038.013.159,0,.3.246.218.327.236.482.16.347.074.358,0,.2" transform="translate(5.291 48.836)" fill="#7052ac"/>
    <path id="パス_64" data-name="パス 64" d="M0,.113C.032.093.031.067.038.038A.248.248,0,0,1,.281.027C.457.243.059.337,0,.113" transform="translate(21.806 41.664)" fill="#7052ac"/>
    <path id="パス_65" data-name="パス 65" d="M0,0A8.453,8.453,0,0,1,.406,1.132c.153.437.293.9.388,1.26A8.021,8.021,0,0,1,0,0" transform="translate(2.537 44.738)" fill="#7052ac"/>
    <path id="パス_66" data-name="パス 66" d="M.123.089c.1.559.237,1.056.049,1.283C.011.843.133.57,0,0,.022.1.065.125.123.089" transform="translate(3.935 44.737)" fill="#7052ac"/>
    <path id="パス_67" data-name="パス 67" d="M.089,0a.96.96,0,0,1-.05.615C.01.38-.052.127.089,0" transform="translate(18.439 39.994)" fill="#7052ac"/>
    <path id="パス_68" data-name="パス 68" d="M1.013.516C1.057.979.975,1.682.7,1.483c0,.227-.011.475-.089.5A1.256,1.256,0,0,1,.376,1.02.447.447,0,0,1,.429.979C.417.832.41.691.4.577A.818.818,0,0,1,0,.5C-.031-.278.611-.04.684.49A.2.2,0,0,0,.506.626c.008.109.017.22.025.33.058.017.116.1.165.306,0,.046,0,.1,0,.153C.8,1.3.685.891.747.72.876.626.882.847.963.874c.045-.08-.046-.347.05-.358" transform="translate(2.227 38.617)" fill="#7052ac"/>
    <path id="パス_69" data-name="パス 69" d="M.449,0c0,.094,0,.178.1.154C.538.484.317.617.078.764A.742.742,0,0,0,0,.471C.313.462.138.022.449,0" transform="translate(17.547 37.294)" fill="#7052ac"/>
    <path id="パス_70" data-name="パス 70" d="M0,.325C.071.293-.024-.023.08,0A1.968,1.968,0,0,1,.24.56C.132.545.071.425,0,.325" transform="translate(0.244 38.089)" fill="#7052ac"/>
    <path id="パス_71" data-name="パス 71" d="M.307,0C.218.133.17.306,0,.372.064.211.071,0,.307,0" transform="translate(18.185 36.81)" fill="#7052ac"/>
    <path id="パス_72" data-name="パス 72" d="M.288.577C.1.589.018.356,0,0,.156.069.23.3.288.577" transform="translate(2.491 37.475)" fill="#7052ac"/>
    <path id="パス_73" data-name="パス 73" d="M.337.315C.176.4.235.691,0,.717A1.629,1.629,0,0,1,.223,0C.182.19.345.161.337.315" transform="translate(18.078 36.214)" fill="#7052ac"/>
    <path id="パス_74" data-name="パス 74" d="M.283.44C.239.328.112.4.05.326.056.172-.015.191,0,.01c.155-.064.463.2.28.431" transform="translate(0.063 37.458)" fill="#7052ac"/>
    <path id="パス_75" data-name="パス 75" d="M.129.3C.226.1.544.267.6,0,.662.722.368,1.327,0,1.015A1.091,1.091,0,0,0,.129.3" transform="translate(2.884 36.559)" fill="#7052ac"/>
    <path id="パス_76" data-name="パス 76" d="M.113,0C.09.238.241.316.3.473.068.592-.134.071.113,0" transform="translate(21.12 36.065)" fill="#7052ac"/>
    <path id="パス_77" data-name="パス 77" d="M.118.413C.022.34-.07.1.077,0c0,.131.2.314.041.413" transform="translate(21.68 35.409)" fill="#7052ac"/>
    <path id="パス_78" data-name="パス 78" d="M.233.059A.483.483,0,0,0,.209.414C-.022.429-.053.118.075,0c-.039.092.1.046.158.059" transform="translate(20.685 35.329)" fill="#7052ac"/>
    <path id="パス_79" data-name="パス 79" d="M0,.046C.1.055.115-.047.195.027c-.12.094-.006.4-.19.44C-.018.374.048.182,0,.046" transform="translate(21.508 35.199)" fill="#7052ac"/>
    <path id="パス_80" data-name="パス 80" d="M.041,0c.451.03.7.2.753.5C.454.683.447.372.224.271.14.277.123.344.027.34.014.246-.034.08.041,0" transform="translate(21.551 34.802)" fill="#7052ac"/>
    <path id="パス_81" data-name="パス 81" d="M.31.009C.213.133.183.337,0,.371,0,.154.164-.044.31.009" transform="translate(21.081 33.168)" fill="#7052ac"/>
    <path id="パス_82" data-name="パス 82" d="M.238.364A.352.352,0,0,1,0,0C.116.1.442.046.417.239.294.2.268.282.238.364" transform="translate(18.751 32.274)" fill="#7052ac"/>
    <path id="パス_83" data-name="パス 83" d="M.113,1.01A6.008,6.008,0,0,0,0,0C.3.229.283.616.322.963Z" transform="translate(20.172 31.654)" fill="#7052ac"/>
    <path id="パス_84" data-name="パス 84" d="M.8.006c-.305.2-.53.659-.8.881C.148.442.393-.061.8.006" transform="translate(20.476 28.811)" fill="#7052ac"/>
    <path id="パス_85" data-name="パス 85" d="M.268,0C.223.172.225.51,0,.5.131.335.078.032.268,0" transform="translate(21.38 29.238)" fill="#7052ac"/>
    <path id="パス_86" data-name="パス 86" d="M.261.861C.172.771.164.62,0,.585A3.782,3.782,0,0,1,.244,0,1.835,1.835,0,0,1,.261.861" transform="translate(4.513 18.66)" fill="#7052ac"/>
    <path id="パス_87" data-name="パス 87" d="M.324.443C.125.408-.1.2.045.02c.092-.042.206,0,.3-.015C.192.182.438.278.324.443" transform="translate(21.928 26.481)" fill="#7052ac"/>
    <path id="パス_88" data-name="パス 88" d="M0,1.254A3.323,3.323,0,0,1,.291,0,1.717,1.717,0,0,1,0,1.254" transform="translate(6.103 15.188)" fill="#7052ac"/>
    <path id="パス_89" data-name="パス 89" d="M1.111.452C.973.729.652,1.094.68,1.293L.939.948c.034.133.062.268.107.4l-.219.294C.49,1.2.373,2.007,0,2.324A13.342,13.342,0,0,1,1.244,0C1.1.187.93.392,1.111.452" transform="translate(7.883 13.065)" fill="#7052ac"/>
    <path id="パス_90" data-name="パス 90" d="M.125,0C.256.122.306.245.183.367A.164.164,0,0,0,.09.325c0-.139.1-.191-.09-.236A.185.185,0,0,1,.125,0" transform="translate(23.722 24.55)" fill="#7052ac"/>
    <path id="パス_91" data-name="パス 91" d="M.005.253C.221.1.332.235.576,0,.648.28-.067.5.005.253" transform="translate(13.589 10.191)" fill="#7052ac"/>
    <path id="パス_92" data-name="パス 92" d="M1.257.374l.078.1C1.068.448.975.853.756.826.834.786.762.731.712.679a.912.912,0,0,1-.3.251C.457.762.1.771.272.545.15.483.092.58.11.7.129.7.155.714.172.68L.2.712.16.753.129.721A.487.487,0,0,1,.149.8C.063.817.054.713,0,.706L.143.53.114.5A.053.053,0,0,0,.1.5.916.916,0,0,0,.409.272.4.4,0,0,1,.73.337.326.326,0,0,1,.766.551,2.3,2.3,0,0,1,1.819,0c-.127.152-.361.19-.562.374" transform="translate(24.612 21.468)" fill="#7052ac"/>
    <path id="パス_93" data-name="パス 93" d="M.025.012c.17-.06.361.108.24.271A.189.189,0,0,1,.025.012" transform="translate(27.061 20.598)" fill="#7052ac"/>
    <path id="パス_94" data-name="パス 94" d="M.583,0C.66.118.391.134.477.253.49.2.552.165.619.13.654.273.6.41.776.412c-.1.1-.246.05-.284.171.124-.02.192.21.3.275C.894.822.889.751.973.707c.068.3.195.619-.036.813C.852,1.284.7,1.394.566,1.4.771,1.033.29.731,0,.647.386.521.2-.019.583,0" transform="translate(27.316 20.278)" fill="#7052ac"/>
    <path id="パス_95" data-name="パス 95" d="M0,.214C.075.079.294.141.378,0,.42.133.3.206.173.276.134.066.048.37,0,.214" transform="translate(28.645 18.257)" fill="#7052ac"/>
    <path id="パス_96" data-name="パス 96" d="M1,.05a4.423,4.423,0,0,0-.556.2C.263.325.106.38,0,.264.3.2.772-.121,1,.05" transform="translate(29.302 18.896)" fill="#7052ac"/>
    <path id="パス_97" data-name="パス 97" d="M0,.219A.841.841,0,0,1,.424,0L.511.243A.474.474,0,0,1,0,.219" transform="translate(24.53 4.09)" fill="#7052ac"/>
    <path id="パス_98" data-name="パス 98" d="M.154.311C.132.251-.01.326,0,.229.25.084.623-.1.751.069.492.14.425.243.154.311" transform="translate(25.129 4.176)" fill="#7052ac"/>
    <path id="パス_99" data-name="パス 99" d="M0,.168C.222.206.622-.144.758.07.551.036.027.413,0,.168" transform="translate(30.636 18.593)" fill="#7052ac"/>
    <path id="パス_100" data-name="パス 100" d="M0,.24A3.607,3.607,0,0,1,1.344.022,9.744,9.744,0,0,1,.072.454Z" transform="translate(25.21 2.393)" fill="#7052ac"/>
    <path id="パス_101" data-name="パス 101" d="M0,0C.222.012.456,0,.582.163.4.229.3.064.158.2.11.124.036.093,0,0" transform="translate(31.153 17.958)" fill="#7052ac"/>
    <path id="パス_102" data-name="パス 102" d="M0,.367A1.919,1.919,0,0,1,1.282.028C.789.087.289.445,0,.367" transform="translate(28.2 2.098)" fill="#7052ac"/>
    <path id="パス_103" data-name="パス 103" d="M.43.321A1.628,1.628,0,0,1,.014.352C-.044.2.09.1.242,0,.254.144.6.136.43.321" transform="translate(29.196 2.501)" fill="#7052ac"/>
    <path id="パス_104" data-name="パス 104" d="M1.121.092C.787.121.24.372,0,.114.37.045.831-.092,1.121.092" transform="translate(34.586 16.98)" fill="#7052ac"/>
    <path id="パス_105" data-name="パス 105" d="M1.132.186C.785.318.457.09.193.264.245.12-.013.169,0,.048L.947,0C.9.127,1.1.108,1.132.186" transform="translate(33.989 2.013)" fill="#7052ac"/>
    <path id="パス_106" data-name="パス 106" d="M.5.145C.31.15.084.19,0,.1l0-.1C.235-.006.47-.018.5.145" transform="translate(35.397 12.328)" fill="#7052ac"/>
    <path id="パス_107" data-name="パス 107" d="M0,.078C.07.048.11-.011.229,0L.234.2C.1.219.032.168,0,.078" transform="translate(35.737 16.927)" fill="#7052ac"/>
    <path id="パス_108" data-name="パス 108" d="M.172.286C.353.225.006.158,0,.085.21.111.15-.023.36,0,.55.078.507.456.172.286" transform="translate(37.424 1.742)" fill="#7052ac"/>
    <path id="パス_109" data-name="パス 109" d="M2.24.376C1.482.226.62.326,0,.152.152.156.1.037.187,0A3.394,3.394,0,0,0,1.224.153,2.714,2.714,0,0,1,2.24.376" transform="translate(38.31 1.813)" fill="#7052ac"/>
    <path id="パス_110" data-name="パス 110" d="M0,.012c.248-.06.544.132.775.073C.821.312.021.127,0,.012" transform="translate(40.055 1.784)" fill="#7052ac"/>
    <path id="パス_111" data-name="パス 111" d="M0,.255C.11-.267.831.18,1.245.142c.021.168-.174.065-.176.2.249.011.658-.176.783-.033C1.821.362,1.74.339,1.7.374a6.38,6.38,0,0,1,2.715.73C4.045,1.039,3.627.915,3.189.862A3.375,3.375,0,0,1,2,.482,4.585,4.585,0,0,1,.713.393C.6.293.86.258.775.206.508.127.567.449.269.328.251.217.477.218.4.151.209-.067.216.3,0,.255" transform="translate(38.601 15.969)" fill="#7052ac"/>
    <path id="パス_112" data-name="パス 112" d="M0,0C.246.1.778.018.806.245.541.177.511.284.269.233.419.065,0,.112,0,0" transform="translate(40.684 2.077)" fill="#7052ac"/>
    <path id="パス_113" data-name="パス 113" d="M0,.116.013.02C.207.045.252-.039.5.024.5.193.181.181,0,.116" transform="translate(40.995 1.875)" fill="#7052ac"/>
    <path id="パス_114" data-name="パス 114" d="M0,0C.25.006.768.023.838.188.528.131.107.191,0,0" transform="translate(40.687 5.501)" fill="#7052ac"/>
    <path id="パス_115" data-name="パス 115" d="M0,0C.378.069.556-.013.961.08.873.25.072.231,0,0" transform="translate(41.67 1.924)" fill="#7052ac"/>
    <path id="パス_116" data-name="パス 116" d="M0,0C.338.156,1.055.081,1.219.337.842.3.142.218,0,0" transform="translate(42.81 2.032)" fill="#7052ac"/>
    <path id="パス_117" data-name="パス 117" d="M.36.156C.211.088,0,.189,0,0,.144.088.386-.044.36.156" transform="translate(40.362 17.857)" fill="#7052ac"/>
    <path id="パス_118" data-name="パス 118" d="M0,.013C.289-.06.588.207.894.2.726.359.126.207,0,.013" transform="translate(43.842 6.099)" fill="#7052ac"/>
    <path id="パス_119" data-name="パス 119" d="M2.706.911A9.124,9.124,0,0,1,0,0,16.334,16.334,0,0,1,2.706.911" transform="translate(41.65 18.034)" fill="#7052ac"/>
    <path id="パス_120" data-name="パス 120" d="M.671.375A3.535,3.535,0,0,1,0,.186L.055,0C.18.2.736.148.671.375" transform="translate(45.082 6.268)" fill="#7052ac"/>
    <path id="パス_121" data-name="パス 121" d="M.038.111C.047.07-.023.045.008,0A.642.642,0,0,1,.551.284,1.033,1.033,0,0,1,.038.111" transform="translate(46.215 2.781)" fill="#7052ac"/>
    <path id="パス_122" data-name="パス 122" d="M1.565.855C.963.576.718.635.542.734.3.64.64.449.489.339.29.261.3.408.112.346-.009.255-.059.048.1,0c.14.174,1.06.561.9.313.431.105.4.282.742.4a.577.577,0,0,1-.181.141" transform="translate(46.871 3.409)" fill="#7052ac"/>
    <path id="パス_123" data-name="パス 123" d="M14.573,9.613C13.98,8.965,13.406,8.3,12.783,7.7A28.581,28.581,0,0,0,8.828,4.529c-.062-.075.1-.12-.068-.209A5.668,5.668,0,0,1,7.4,3.526,17.01,17.01,0,0,0,5.733,2.494,52.291,52.291,0,0,0,0,.092L.031,0C.4.2.46.054.641.043A2.949,2.949,0,0,0,1.5.28C1.4.2,1.314.118,1.413.009c.171.078.236.036.36.062l-.084.21c.572.525,1.694.75,2.413,1.268-.069-.186.283-.175.2-.405.374.133.2.291.451.429-.021.115-.3-.027-.2.121.353.276,1.018.655,1.3.576-.247-.2-.477-.393-.493-.585.108.036.552.147.518.3.147.158-.22-.076-.254-.035.636.3.671.591,1.133.891.143-.037-.164-.279.084-.138.322.185.475.51.815.6.01-.1-.33-.223-.218-.321.758.266.8.8,1.476,1.212.054-.06-.017-.136,0-.2.488.3.324.418.749.591.091.137-.141.227.081.382.085.072.127.049.209.116.1-.051-.092-.146,0-.2.522.362.5.635.981,1.042.046-.066.094-.125.17-.108.222.177-.039.245.182.422.036-.07.01-.153.1-.21.4.318.384.538.552.8.346.361.766.708,1.181,1.088l1.235,1.2A13.491,13.491,0,0,1,15.5,10.363a6.079,6.079,0,0,1,.725,1.316,20.088,20.088,0,0,0-1.655-2.066" transform="translate(47.26 4.134)" fill="#7052ac"/>
    <path id="パス_124" data-name="パス 124" d="M.95.5C.92.392.644.342.694.493.339.337-.011.184,0,0,.277.273,1.112.248.95.5" transform="translate(49.449 4.445)" fill="#7052ac"/>
    <path id="パス_125" data-name="パス 125" d="M.609.424C.355.385-.06.147.007,0c.281.137.665.27.6.424" transform="translate(50.988 4.512)" fill="#7052ac"/>
    <path id="パス_126" data-name="パス 126" d="M.013,0,.906.519C.791.579.9.776.779.744.692.541.272.341,0,.141A.137.137,0,0,0,.013,0" transform="translate(50.875 8.354)" fill="#7052ac"/>
    <path id="パス_127" data-name="パス 127" d="M.421.4C.24.288.209.091,0,.059.029-.167.684.319.421.4" transform="translate(53.819 10.067)" fill="#7052ac"/>
    <path id="パス_128" data-name="パス 128" d="M2.634,2.349C1.761,1.468.715.817,0,0A14.778,14.778,0,0,1,2.634,2.349" transform="translate(57.166 9.946)" fill="#7052ac"/>
    <path id="パス_129" data-name="パス 129" d="M0,0A.835.835,0,0,1,.414.5C.283.427-.032.148,0,0" transform="translate(51.671 18.646)" fill="#7052ac"/>
    <path id="パス_130" data-name="パス 130" d="M0,0C.3.149,1.037.8.71.867.817.656.149.269,0,0" transform="translate(57.907 12.224)" fill="#7052ac"/>
    <path id="パス_131" data-name="パス 131" d="M0,0C.39.609.955,1.246,1.379,1.979a17.907,17.907,0,0,1,1.156,2.1C2.149,3.384,1.64,2.658,1.18,1.954A11.507,11.507,0,0,1,0,0" transform="translate(63.644 15.698)" fill="#7052ac"/>
    <path id="パス_132" data-name="パス 132" d="M.868,1A3.558,3.558,0,0,1,1.4,2.143C1,1.36.3.666,0,0A7.712,7.712,0,0,1,.868,1" transform="translate(62.696 16.753)" fill="#7052ac"/>
    <path id="パス_133" data-name="パス 133" d="M.889,1.216c-.01.095-.087.014-.166.1A.434.434,0,0,1,.8,1.643,4.515,4.515,0,0,1,0,0a7.909,7.909,0,0,1,.89,1.216" transform="translate(55.512 22.625)" fill="#7052ac"/>
    <path id="パス_134" data-name="パス 134" d="M.048.288C-.051.144.017.074.128,0A1.086,1.086,0,0,1,.237.164C.127.174.165.224.048.288" transform="translate(55.06 23.328)" fill="#7052ac"/>
    <path id="パス_135" data-name="パス 135" d="M.178,0C.244.13.166.177.256.32.072.474-.076.127.043.015.077.074.13.019.178,0" transform="translate(59.839 24.193)" fill="#7052ac"/>
    <path id="パス_136" data-name="パス 136" d="M.456,1.156A2.577,2.577,0,0,1,0,0C.169.383.427.45.588.881.679.835.731.933.83.864c.067.186.166.228.206.424.015-.018.084-.139.12-.047-.125.351.1.907-.138,1.174A7.121,7.121,0,0,0,.456,1.156" transform="translate(56.29 26.285)" fill="#7052ac"/>
    <path id="パス_137" data-name="パス 137" d="M0,.1C.112.1.079.048.2,0A1.088,1.088,0,0,0,.671.622C.568.635.581.706.51.736.456.607.409.454.291.572.18.451.3.3.187.271.176.386.236.536.174.625.051.529.192.227,0,.1" transform="translate(56.772 26)" fill="#7052ac"/>
    <path id="パス_138" data-name="パス 138" d="M.025.267A.276.276,0,0,1,.043,0C.17.18.518.54.3.712A5.29,5.29,0,0,1,.127.181C.076.227.12.314.025.267" transform="translate(57.35 26.818)" fill="#7052ac"/>
    <path id="パス_139" data-name="パス 139" d="M.1,0C.2.292.38.652.23.744L0,.1C.061.086.046.015.1,0" transform="translate(64.496 24.715)" fill="#7052ac"/>
    <path id="パス_140" data-name="パス 140" d="M0,.1A.153.153,0,0,1,.134,0C.213.215.293.432.167.483.125.294.042.292,0,.1" transform="translate(64.093 25.696)" fill="#7052ac"/>
    <path id="パス_141" data-name="パス 141" d="M.074,0C.16.1.318.493.187.521.1.491.066.211,0,.082.043.069.059.035.074,0" transform="translate(64.883 25.826)" fill="#7052ac"/>
    <path id="パス_142" data-name="パス 142" d="M.1,0A.267.267,0,0,1,.1.409C.069.282-.024.12.006.032Z" transform="translate(57.446 28.495)" fill="#7052ac"/>
    <path id="パス_143" data-name="パス 143" d="M.082,0A.674.674,0,0,1,.07.549C.029.339-.071.09.082,0" transform="translate(58.047 28.505)" fill="#7052ac"/>
    <path id="パス_144" data-name="パス 144" d="M.064,0c.06.257.2.246.241.529C.131.63-.119.083.064,0" transform="translate(64.897 26.825)" fill="#7052ac"/>
    <path id="パス_145" data-name="パス 145" d="M.311.782C.089.672-.173-.008.153,0,.014.233.381.521.311.782" transform="translate(60.682 29.185)" fill="#7052ac"/>
    <path id="パス_146" data-name="パス 146" d="M.179,0C.222.168.267.338.137.374.055.352.029.215,0,.085.1.089.076,0,.179,0" transform="translate(58.028 30.261)" fill="#7052ac"/>
    <path id="パス_147" data-name="パス 147" d="M.083,0C.11.193.365.453.176.524A1.113,1.113,0,0,1,0,.069C.039.057.029,0,.083,0" transform="translate(63.236 29.418)" fill="#7052ac"/>
    <path id="パス_148" data-name="パス 148" d="M.118.627C.106.339-.09.138.05,0,.1.2.294.548.118.627" transform="translate(63.427 30.076)" fill="#7052ac"/>
    <path id="パス_149" data-name="パス 149" d="M0,.03C.1.042.065.049.158,0,.194.193.407.271.329.5.226.592.289.36.215.391.177.464.185.584.119.629-.037.506.145.23,0,.03" transform="translate(60.892 31.036)" fill="#7052ac"/>
    <path id="パス_150" data-name="パス 150" d="M.016.017.111,0C.141.2.19.422.046.451.034.3-.029.107.016.017" transform="translate(60.78 31.509)" fill="#7052ac"/>
    <path id="パス_151" data-name="パス 151" d="M.186,0C.259.311.123.336.012.38A.3.3,0,0,1,.186,0" transform="translate(60.972 31.774)" fill="#7052ac"/>
    <path id="パス_152" data-name="パス 152" d="M.006,0A5.881,5.881,0,0,1,.067,2.981C.1,2.053-.029.811.006,0" transform="translate(65.171 32.51)" fill="#7052ac"/>
    <path id="パス_153" data-name="パス 153" d="M.015.449C-.048.305.1.095.183,0A.489.489,0,0,1,.266.3C.1.248.112.415.015.449" transform="translate(60.975 33.36)" fill="#7052ac"/>
    <path id="パス_154" data-name="パス 154" d="M.1,1.018C.026.759-.1.068.147,0,.137.346.266.883.1,1.018" transform="translate(63.848 33.811)" fill="#7052ac"/>
    <path id="パス_155" data-name="パス 155" d="M.058.588C.137.462-.02.293,0,.1.048.082.053.019.094,0,.106.237.277.671.058.588" transform="translate(62.008 34.082)" fill="#7052ac"/>
    <path id="パス_156" data-name="パス 156" d="M.262.321C.188.382.151.492.01.464-.044.3.126.114.215,0A1.057,1.057,0,0,1,.262.321" transform="translate(62.472 34.827)" fill="#7052ac"/>
    <path id="パス_157" data-name="パス 157" d="M.04,1.529A2.782,2.782,0,0,1,.185,0,3.024,3.024,0,0,1,.04,1.529" transform="translate(61.986 34.846)" fill="#7052ac"/>
    <path id="パス_158" data-name="パス 158" d="M.278,1.153c-.062.133-.028.415-.15.452C.178,1.239.033,1.128,0,.874.215.888.179.559.142.33.193.191.247.454.271.33.274.243.23.229.23.147.393.161.4-.03.579,0,.573.4.48.74.469,1.2c-.1.031-.091-.082-.191-.051" transform="translate(62.293 35.326)" fill="#7052ac"/>
    <path id="パス_159" data-name="パス 159" d="M0,.654C.034.341-.064.081.161,0,.169.226.242.667,0,.654" transform="translate(59.838 36.205)" fill="#7052ac"/>
    <path id="パス_160" data-name="パス 160" d="M.17,0C.163.3.14.576.008.675,0,.4-.045.042.17,0" transform="translate(62.309 37.071)" fill="#7052ac"/>
    <path id="パス_161" data-name="パス 161" d="M0,.494C.109.405.023-.028.2,0,.179.212.129.652,0,.494" transform="translate(60.545 38.356)" fill="#7052ac"/>
    <path id="パス_162" data-name="パス 162" d="M.18.011C.253.157.173.391,0,.361.022.23.025.061.084,0Z" transform="translate(62.524 38.785)" fill="#7052ac"/>
    <path id="パス_163" data-name="パス 163" d="M.062,0C.1.011.154.005.152.054.051.108.218.386.093.462A.384.384,0,0,1,.062,0" transform="translate(59.62 38.948)" fill="#7052ac"/>
    <path id="パス_164" data-name="パス 164" d="M2.863,15.574l-.084.106c-.442.549-.852.961-1.128,1a2.178,2.178,0,0,0,.039-.233.5.5,0,0,1,0-.2c-.049-.355-.408-.145-.57-.319a3.747,3.747,0,0,1-.14.474c-.032-.4.244-1.342-.029-1.579-.38.106-.67,1.286-.953,1.791.128-.776.846-1.717.919-2.654-.061-.033-.033-.742-.212-.32a4.391,4.391,0,0,0,.234-1.37c-.122-.138-.272.031-.41.164L.5,12.5l-.022-.008a.328.328,0,0,1-.112.071.837.837,0,0,0,.1-.075c-.114-.043-.267-.162-.123-.3a.131.131,0,0,0,.1.115q.047-.24.212-.191a.837.837,0,0,1-.1.291,5.514,5.514,0,0,0,.816-2.142c.1-.33-.094-.275-.145-.492.251-.08.375-.447.552-.722A.743.743,0,0,1,1.9,8.528l.009-.036c0,.007,0,.014,0,.021.169-.3.4-.6.139-.973a2.721,2.721,0,0,0,1.276-.53c.1.168.164.473.264.634.027-.059.055-.115.084-.169.023-.085.047-.167.074-.245,0,.04-.007.082-.012.125a1.517,1.517,0,0,0,.159-.5c.075-.144.182.014.166.163.324-.155.259-.946.38-1.273v.066a.842.842,0,0,0-.035.274c.018-.081.123-.035.087-.2-.06-1.07-.071-2.046-.194-3.011-.064-.014-.183.1-.175-.081-.063-.415.121-.538.056-.956-.111,0-.016.236-.168.187A1.082,1.082,0,0,1,4,1.29c.118-.137.192.185.206.067A1.155,1.155,0,0,0,3.975.763a.329.329,0,0,1,0,.267C3.936.634,3.86.2,4.024,0a24.991,24.991,0,0,1,.485,3.691L4.7,3.671c-.4.562.044,1.705-.09,2.585,0,.018,0,.036,0,.054a.538.538,0,0,0,.119.189l.014-.005c.2-.051.327-.444.327-.785-.01.246,0,.494-.03.739.072.346.165.668.414.311.09.322-.161.678-.063.906l.1-.209c-.039.216-.169.42-.1.653.116.2.283-.193.426-.239l-.317.5.093.122C5.326,9.048,5.222,9.67,5,10.2a.7.7,0,0,0-.152.354c-.029-.006-.066-.045-.116.039-.005.239-.188.463-.333.463a20.276,20.276,0,0,1-.386,2.817l-.56.918c-.139.193-.279.384-.419.567a2.632,2.632,0,0,1-.317.559c.054-.108.1-.223.148-.34M4.45,6.385c-.013-.072-.025-.143-.041-.214a1.191,1.191,0,0,0,.041.214" transform="translate(61.62 28.868)" fill="#7052ac"/>
    <path id="パス_165" data-name="パス 165" d="M0,.379C.051.185.069-.017.2,0,.177.182.162.472,0,.379" transform="translate(61.886 40.563)" fill="#7052ac"/>
    <path id="パス_166" data-name="パス 166" d="M.157,0c.03.206.085.1.189.043C.4.3.1.163.1.5-.112.53.064.034.157,0" transform="translate(61.715 41.545)" fill="#7052ac"/>
    <path id="パス_167" data-name="パス 167" d="M.46.007C.493.025.5.068.5.111c-.25.1-.206.979-.5.956A6.741,6.741,0,0,0,.25.049C.339.083.371-.028.46.007" transform="translate(61.418 42.058)" fill="#7052ac"/>
    <path id="パス_168" data-name="パス 168" d="M.558,0C.476.408.271,1.058,0,1.112.238.779.253.185.558,0" transform="translate(60.899 43.232)" fill="#7052ac"/>
    <path id="パス_169" data-name="パス 169" d="M.134,0,.226.031.073.469C-.073.45.027.111.134,0" transform="translate(64.053 45.112)" fill="#7052ac"/>
    <path id="パス_170" data-name="パス 170" d="M.313.009C.295.15.133.582,0,.6L.205.025C.245.036.269-.022.313.009" transform="translate(63.65 45.841)" fill="#7052ac"/>
    <path id="パス_171" data-name="パス 171" d="M.31.01A2.233,2.233,0,0,0,.078.6C-.131.546.126-.085.31.01" transform="translate(60.363 45.173)" fill="#7052ac"/>
    <path id="パス_172" data-name="パス 172" d="M.613,0A2.847,2.847,0,0,1,0,1.007,2.953,2.953,0,0,1,.613,0" transform="translate(62.323 47.921)" fill="#7052ac"/>
    <path id="パス_173" data-name="パス 173" d="M0,.418A.739.739,0,0,1,.195,0L.281.043C.194.2.134.485,0,.418" transform="translate(57.632 46.503)" fill="#7052ac"/>
    <path id="パス_174" data-name="パス 174" d="M.313,0C.248.164.153.428,0,.342.039.22.184-.011.313,0" transform="translate(58.828 47.918)" fill="#7052ac"/>
    <path id="パス_175" data-name="パス 175" d="M10.739,53.272a6.232,6.232,0,0,1-.658-.785c-.017.073.03.2-.1.14a28.244,28.244,0,0,1-2.176-3.57c-.326-.613-.578-1.263-.86-1.894-.2-.468-.408-.93-.584-1.4a.2.2,0,0,1-.045-.022,1.184,1.184,0,0,1-.287-.9h.027l-.514-1.577c-.219-.656-.34-1.339-.515-2.009-.367-1.339-.546-2.717-.8-4.1.074-.069.176.154.193-.021a7.143,7.143,0,0,1-.174-1.457c-.237-.006-.238-.481-.447-.546.037.446-.077.652-.253.763a10.065,10.065,0,0,0-.014-2.71c-.022.155.008.7-.048.576-.026-.157.054-.457-.019-.519-.054.082-.037.3-.14.288-.028-.316-.1-.112-.187-.176,0-.232.086-.291.085-.523a5.94,5.94,0,0,0-.375.864,4.924,4.924,0,0,0-.161,1.13c-.362-.776-.193-2.557-.62-2.868a41.12,41.12,0,0,0-.062,5.132c.041-.017.136-.339.153-.076a2.325,2.325,0,0,1-.047,1.1c-.019.505.123.889.124,1.517.06.145.157.179.192.4.015.116-.14-.081-.108.144.046.118.109.224.168.339-.29-.048.012.821-.1.832a1.019,1.019,0,0,0-.126-.537,6.241,6.241,0,0,0,.029,1.508c-.185-.33-.449-.112-.671-.026-.126-.365.119-.3.009-.648-.108.1-.11-.4-.169-.155a3.222,3.222,0,0,1,.393-2.037,31.754,31.754,0,0,1-.442-6.419c-.113.075-.28.039-.362.179A4.866,4.866,0,0,0,1.1,32.03a.206.206,0,0,0,.267-.172,1.747,1.747,0,0,0,.049-.922q.124,0,.143-.234c.05-.794.194-1.581.3-2.371-.021-.792-.649-.423-.943-.464.022-.359.155-.379.178-.736C1,26.9.611,27.059.648,26.659c.19-.2.274.315.43.148.045-.791-.466-.153-.706-.531A1.354,1.354,0,0,0,0,26.6l.029-.127c.423-.688.857-1.33,1.506-1.048a2.4,2.4,0,0,0-.114.619c.078-.164.243.019.293-.256.08-.326-.221-.4-.073-.661.147.123.142.42.305.522A3.2,3.2,0,0,0,2.8,23.956c-.288-.551-.826-.654-.955-1.269.246.058.505-.567.7-.24-.109.307-.224.42-.149.741a3.567,3.567,0,0,1,.568-.337c.065-.073.134-.145.2-.237a.739.739,0,0,0,.052-.138c.006-.247-.294.324-.2,0a1.247,1.247,0,0,0,0-.473L3,22.014,3.011,22a1.192,1.192,0,0,1,.022-.373c.042-.2.262-.167.216-.319a1.361,1.361,0,0,1-.642.166c.068-.3.071-.543-.081-.638a4.426,4.426,0,0,1,.342-.754c.086.145.1.354.2.488.1.023.237-.34.266-.165a1.007,1.007,0,0,1-.171.471c.079-.059.157-.117.253-.036a2.134,2.134,0,0,1-.049.711c.051-.254-.125-.032-.183.131h.01l.007-.013v.012c.233-.027.015.285,0,.42l.069-.138-.036.1-.035.06a.042.042,0,0,0,.021.037c.194-.115.3-.867.492-1a1.656,1.656,0,0,1-.006-.828,1.852,1.852,0,0,0,.056-.826c.077-.008.164.181.23-.036.147.066-.064.413.058.5.151-.745-.028-1.235.082-1.952.12-.136.237-.387.357-.526-.079.386.5.275.446.641l-.031.04v0c-.081.126-.137.277-.2.29,0,0,0-.007,0-.01a1.844,1.844,0,0,0-.337,1.515,6.7,6.7,0,0,0,.4-.961c-.148.11-.268.69-.426.617a8.078,8.078,0,0,0,.485-1.2c.143-.148.141.2.259.057A2.546,2.546,0,0,0,5.211,16.8c-.176.2-.123.552-.3.547.093-.351.322-.738.227-.943.15-.314.276-.125.424-.408.154-.391-.08-.72.359-1.176.023.337.237.554.319.852-.094.158-.179.138-.272.271.216.146-.044.767.048.877a28.176,28.176,0,0,1,6.247-7.706,37.392,37.392,0,0,0-6,7.983c.093.093.193-.048.292-.183.151-.27.005-.359.2-.653A3.2,3.2,0,0,0,7.8,15.053,18.6,18.6,0,0,1,8.99,13.409c.105-.211-.224-.034-.074-.28s.224.036.359-.106a12.09,12.09,0,0,1,1.7-1.9A22.345,22.345,0,0,1,12.7,9.635c-.84.825-1.781,1.907-2.528,2.73-.166.211-.529.478-.447.7.266-.054.513-.491.826-.877s.62-.785.9-.828c-.264.358-.728.63-.794.938a2.177,2.177,0,0,0,.876-.788.353.353,0,0,1-.2.131c.376-.875,1.79-1.763,2.076-2.3-.414.349-.825.747-1.155,1a2.864,2.864,0,0,1,1.2-1.039c.111-.135.174-.408.3-.451,0,.109-.169.407-.042.387.4-.456,1.016-.759,1.434-1.286-.3.123-.515,0-.842.187a2.058,2.058,0,0,1,.2-.957c.123-.008.152.233.344.041-.165-.2-.473-.017-.616-.274.053-.147.375-.194.468-.387.065.348.564.273.895.257-.041-.184.076-.392.082-.584-.072-.027-.277.231-.3.1.069-.059.186-.125.174-.17-.258.076-.591.316-.792.27.063-.144-.224-.229.065-.412.149-.063-.15.372.159.2-.049-.258.28-.705.811-.963.181-.088.177.2.369.091-.054-.151-.4-.32-.725.051a.206.206,0,0,0-.212-.285c-.273.218.019.344,0,.52-.249.25-.7.488-.823.253.057-.186.373-.163.4-.3-.068-.043-.273.1-.2-.053.37-.19.335-.652.936-1.053-.158-.1-.022-.25-.1-.363-.04.287-.817.668-.927.883-.147-.022-.064-.107-.157-.2a4.914,4.914,0,0,0,1.435-1.291c.576-.381,1.264-.755,1.929-1.148.205.018.328.166.62.046-.179.122-.294.343-.159.356.308-.146.641-.331,1-.545.009.035,0,.314.342.1.1-.056-.159-.084-.038-.2.8-.493,1.011-.08,1.244.234.014.067-.193.126-.178.192.266.045.2.547.687.281-.154-.1.028-.408.188-.588.136.079.43-.1.638-.225.119-.03.061.17.191.126.318-.2.633-.025,1-.135a1.052,1.052,0,0,1,.964-.856c-.23.108.017.367-.09.444.206-.084.154-.207.478-.274.036.195-.006.488.346.426-.354.184-.4.414-.724.6.179.084.621-.13.624.154-.02.128-.31-.011-.33.118,0,.106.129.055.124.161a10.216,10.216,0,0,1,1.42-.328c-.042-.051-.22.049-.205-.066.246-.042.113-.153.234-.218.173.136.576-.022,1-.183A2.062,2.062,0,0,1,28.2,1.819c.024-.1-.1-.062-.1-.142a11.019,11.019,0,0,0,1.522-.368c-1.29.158-2.723.666-3.726.718a12.58,12.58,0,0,0,1.205-.464c-.1-.144-.368-.118-.728.028.118.018.212.088.058.185-.373.019-.438-.3-.553-.562.33-.116.559-.136.919-.272a.217.217,0,0,0,.188.218A2.476,2.476,0,0,0,28.27.639c.038.176-.124.3-.193.447A20.213,20.213,0,0,0,30.394.66c-.068-.2-.625.013-.641-.209a1.785,1.785,0,0,1,.882-.122l.061.35c.534.058.621-.279,1.13-.4.2.252-.288.44-.208.617.364-.04.659-.055.72-.33C32.2.53,32.055.5,32.073.347c.181-.042.237.038.35-.049-.016.218-.02.389.227.425.282.044.556-.207.679-.216.276-.021.255.124.471.037-.076-.1-.066-.251-.257-.276-.423.019-.811.093-.951-.058.461-.2.963.067,1.349-.126.054.163-.29.258-.088.393A9.362,9.362,0,0,0,36.18.143c.231.172.888.053,1.231.027C37.388.107,37.287.084,37.3,0c.355.06.836-.1.939.107-.245.015-.721-.108-.709.064a4.072,4.072,0,0,1,1.639.114c.2-.069.626-.211.766,0-.1,0-.338-.084-.353-.008.437.188.645-.214,1.068-.025.224.061-.208.091-.016.128a2.526,2.526,0,0,1,.645.059c.132.031.059.139.151.185.9.02,1.309.235,2.031.293C43.316.852,43.118.8,43.083.7A.124.124,0,0,1,43,.814c-.334-.06-.191-.254-.543-.292-.036.056.045.2-.145.141a3.373,3.373,0,0,1-.857-.226,2.2,2.2,0,0,0,.6-.009c-.068-.015-.167-.02-.17-.058.4.007.505-.213.884-.224.117.087-.093.082-.094.181a1.236,1.236,0,0,1,.608-.01c-.023.1-.53-.015-.386.111.415.215.791.1,1.228.221.035.213.63.521.785.291-.059-.114-.321.008-.272-.134.372.018.728.17.7.373-.208.073-.334-.253-.458-.115a16.612,16.612,0,0,1,1.628.724c-.019-.24.374-.037.571-.043-.068.156.223.371.033.455-.987-.839-3.077-.685-4.209-1.178-1.137.135-2.473.12-3.535.345a7.348,7.348,0,0,1,1.586.138c.038.215.6.56.869.323-.337-.07-.638-.152-.634-.355.577.1,1.2.093,1.783.186a4.433,4.433,0,0,1,1.571.485c-.047-.1-.195-.131-.063-.215a2.957,2.957,0,0,1,1.29.291.646.646,0,0,1,.188.368c.275.091.515.431.789.338-.442-.123-.718-.413-.477-.573.274.054.1.193.277.265.585-.228,1.494.446,2.21.644a1.865,1.865,0,0,1,.288.056c.64.313,1.133,1.156,1.74.908a1.755,1.755,0,0,1-.965-.52c.731.27,1.846.567,2.149,1.109-.341-.178-.761-.431-.909-.5.009.083-.048.171.069.247a9.457,9.457,0,0,1,1.966.943c.227-.276-.775-.406-.734-.692a3.541,3.541,0,0,1,1.131.7,3.286,3.286,0,0,1,1.829,1.109c-.224-.171-.425-.289-.484-.111.575.163.77.876,1.258.717.055-.163-.5-.264-.456-.455a3.651,3.651,0,0,1,.786.5c-.03.117-.144.048-.183.146a9.35,9.35,0,0,0,.73.747c.059-.039-.15-.317.056-.16.563.339.9,1.15,1.515,1.237.237.636,1.481,1.348,1.868,2.109-.052.107-.187-.144-.234-.016-.626-.675-1.253-1.48-1.977-2.14a13.312,13.312,0,0,0-1.1-.866c-.412-.256-.834-.509-1.234-.787-.649-.433-1.242-.907-1.9-1.271s-1.29-.739-1.94-1.09c-.93-.506-1.964-.772-2.78-1.173-.46-.241-1.227-.729-1.583-.457.536.026.97.66,1.377.5-.086-.049-.316-.03-.245-.146.521.265,1.149.492,1.765.742.308.125.612.256.9.4a4.716,4.716,0,0,1,.739.527,6.576,6.576,0,0,1,2.168,1.094A17.881,17.881,0,0,0,56.494,8.22c-.159-.124-.381-.255-.305-.348.49.687,2.211,1.764,2.714,2.5a7.76,7.76,0,0,1,1.83,1.64l.91,1.048.827,1.117c-.073.165-.2-.06-.282,0,.125.168.22.323.132.4a28.17,28.17,0,0,0-3.139-3.742,30.291,30.291,0,0,0-3.752-3.074c-.578-.394-1.3-1.037-1.833-1,.184.14.273.107.449.234.115.174-.259.061-.172.16.168.085.4.334.517.327.007-.1-.268-.324-.054-.318,1.015.728,1.307,1.687,2.39,2.2-.585-.523-1.391-.979-1.192-1.37a12.968,12.968,0,0,0,1.036,1.068c.371.4.783.809,1.208,1.223s.881.812,1.269,1.255.768.869,1.1,1.273c.1-.026.011-.113.084-.148.277.208.072.411.211.477l.1-.084a1.987,1.987,0,0,0,.588,1.161c.091-.151-.431-.541-.381-.684.68.064.4,1.1.886,1.2a.536.536,0,0,1-.2-.543A24.01,24.01,0,0,1,63.5,17.278l.856,1.581c.254.534.464,1.083.681,1.617a29.666,29.666,0,0,0-7.539-9.51c-.159-.136-.006-.208-.194-.351-.058.063-.105.161-.21.071-.021-.567-1.436-1.04-1.492-1.6-.492-.349-1.024-.672-1.516-1.074a8.161,8.161,0,0,0-.945-.854c-.34-.212-.8-.265-1.185-.478-.336-.187-.661-.469-.991-.692a1.621,1.621,0,0,0-1.017-.3,22.936,22.936,0,0,0-10.1-2.546c.058.188.707.12.659.353a4.493,4.493,0,0,0-1.1-.158,6.865,6.865,0,0,1-1.024-.021c.057,0,.136-.008.055-.029-.243.067-.953-.151-1.174.009.14.007.334-.015.262.109-.223.093-.463-.218-.688-.127.019.145-.414.217-.531.087.048-.049.431-.03.265-.1-.563.173-1.766-.052-2.277.222.341.047.8-.192.9.02a1.2,1.2,0,0,0-.733.133c.813.022,1.618-.018,2.417.058l2.391.207,2.374.373c.8.105,1.574.34,2.376.5a14.791,14.791,0,0,1,2.119.583,13.691,13.691,0,0,1,2.01.78c.773.4,1.311.911,2.023,1.227.663.347,1.392.611,2.171,1.044a26.355,26.355,0,0,1,2.229,1.559,14.973,14.973,0,0,1,1.652,1.287c.532.465,1.1.911,1.608,1.419a27.84,27.84,0,0,1,2.868,3.288,26.361,26.361,0,0,1,2.306,3.67c.3.642.574,1.292.839,1.929a12.379,12.379,0,0,1,.65,1.921c.079.149.094.389,0,.11l-.416-1.071a2.53,2.53,0,0,0-.534-.794c.169.581.741,1.374.5,1.753-.151-.262-.293-.551-.437-.856-.166-.3-.33-.612-.494-.939-.178-.337-.338-.7-.506-1.059-.017.123-.035.236-.058.336l.665,1.356c.348.689.574,1.423.862,2.132a.861.861,0,0,0,.126.763q-.1-.219.057-.231A13.3,13.3,0,0,1,65,28.272c.326.435.192,1.326.382,1.952a.462.462,0,0,0-.281.084,17.345,17.345,0,0,0-.5-3.166l-.393-1.475c-.141-.483-.344-.944-.517-1.413l-.547-1.4-.669-1.374c-.027-.053-.052-.107-.078-.161a.385.385,0,0,1-.368.088,3.837,3.837,0,0,1-.614-.978,2.458,2.458,0,0,1-.142-1.275l-.292-.525c-.145.017-.286-.043-.424-.269,0-.228.266.184.268.009-.173-.346-.353-.141-.528-.437-.029-.177.251.085.216-.083-.119-.067-.254-.317-.38-.473-.122-.086-.056.168-.165-.008-.458-.656-.9-1.14-1.37-1.793,0,.042-.015.162-.108.024a5.164,5.164,0,0,0-.751-.763.4.4,0,0,1-.365.213,34.129,34.129,0,0,1,4.554,7.239,16.084,16.084,0,0,1,.987,2.419,15.414,15.414,0,0,1,.675,2.486,15.719,15.719,0,0,1,.4,2.045,5.427,5.427,0,0,1-.024,1.884c-.072-.585-.141-1.178-.188-1.777l-.073-.9c-.038-.3-.1-.593-.146-.889-.105-.591-.223-1.178-.372-1.747a10.138,10.138,0,0,0-.69-1.594c.063.577.66,1.366.423,1.748a7.019,7.019,0,0,0-.43-1.181c.1.393.233.787.333,1.2l.27,1.252.279,1.271.172,1.295.153,1.283.017,1.261c0,.413-.008.817-.025,1.209a11.312,11.312,0,0,1-.164,1.134c.028-1.9.192-3.993-.419-5.523-.021.083-.128.073-.177.125a21.127,21.127,0,0,1,.19,3.029c0,.5.007,1-.018,1.477l-.148,1.382c-.022.191-.125,1.429-.131.689a1.4,1.4,0,0,1,.018-.371l.087-1.686c0-.543-.028-1.073-.038-1.613a31.343,31.343,0,0,0-.31-3.511,19.815,19.815,0,0,0-4.306-9.3,13.694,13.694,0,0,0,.966,1.847,18.465,18.465,0,0,1,1,2.016c.118-.012.085-.112.188-.132.245.569.143.906.525,1.371.04-.059-.023-.191.1-.187.4.779.41,1.383.086,1.713-.12-.421.141-1.143-.282-1.2.068.2,0,.331.135.483-.347.064.031.643-.116.845-.015-.254-.227-.139-.26-.059-.09-.338-.121-.749-.4-.754-.1.19.076.274.175.5a1.813,1.813,0,0,0,.069,1.352c-.012-.2.05-.525.217-.47-.16.109-.052.436-.072.658-.1.044-.095-.175-.218-.078a.787.787,0,0,0-.043.369c.068-.037.038-.207.136-.124.025.227.378.325.271.428-.03.166-.163-.159-.2,0,.007.253.112.586-.109.644a15.032,15.032,0,0,0-.853-3.017,20.054,20.054,0,0,0-1.69-3.078l-.923-1.368-.456-.685-.5-.613c-.114-.006-.111.126-.271.016l-.062-.07c.011.2-.032.376-.179.438a.316.316,0,0,1-.25-.062,3.362,3.362,0,0,1,.227.264c-.172.141-.415-.258-.385-.416a1.7,1.7,0,0,0-.3-.3c.146.181.314.374.231.537a1.515,1.515,0,0,1-.315-.585c-.013-.006-.025-.013-.039-.018.063-.694-.679-.464-.779-1.078.149.034.033-.288.068-.234l.061.013c.03-.1-.042-.268.058-.309l.133.124c.227.012.317.385.535.3l-.037-.058c.161.019.29.405.385.3l-.138-.17-1.148-1.17c-.193-.192-.377-.393-.576-.577l-.63-.518c-.421-.342-.834-.689-1.259-1.014L50,14.4c-.227-.137-.446-.285-.68-.407l-.718-.334a.655.655,0,0,1,.251.523c-.123-.036-.258-.108-.347-.054.029.054.113.1.087.163-.171-.045-.152-.245-.294-.211.175.142-.113.009-.118.118.128.137.664.249.446.412-.055-.125-.265-.04-.392-.118-.07.053-.081.275-.2.18-.244-.064-.01-.184-.051-.218a.931.931,0,0,1-.353-.1c-.048-.125.088,0,.132-.072a1.764,1.764,0,0,0-.81-.64,9.06,9.06,0,0,1-1.116-.434c-.066-.052-.058-.124-.059-.194a5.239,5.239,0,0,0-.712-.289.169.169,0,0,1-.028.145c-.174-.108-.389-.3-.605-.293.472.272,1.015.619,1.568.922.275.155.547.31.8.468a5.569,5.569,0,0,1,.634.569c-.042-.019-.092-.061-.116-.031.275.185.494.373.749.535-.021-.082-.038-.165-.051-.251a1.839,1.839,0,0,1,.2.069l-.041-.178a2.461,2.461,0,0,1,1.641.969c-.007.278-.34.213-.545.075-.017.05.044.162-.049.2-.01.133-.322.147-.552.051a1.649,1.649,0,0,1-.256-.239c-.146.253-.242.574-.529.561.089.1-.082.225.1.313-.13.137-.316.017-.433.2.143.245.531.273.6.491-.077.178-.228-.019-.318.086,0,.081.18.139.046.235-.159.019-.043-.2-.241-.259-.081.028-.133.2-.229.151.046-.119-.068-.218-.112-.326-.1-.017-.171.049-.267.032.067-.147-.016-.263-.177-.364-.057.033-.143-.036-.174.085.065.029.342.058.267.156.079.15-.222.144-.168.2.17.148.292.092.421.1.185.492,1.2.866,1.046,1.372-.124.106-.271.069-.321.246-.4-.151-.931-.314-1.113-.74,0,.037-.007.144-.08.061s.16-.088.082-.181a.989.989,0,0,0-.228-.074.488.488,0,0,1-.152.5,4.811,4.811,0,0,0-.794-.193c.211-.266-.5-.037-.422-.39a.513.513,0,0,1,.134-.7,7.093,7.093,0,0,0-.894-.325c.007-.06.145-.081.07-.145-.2-.157-.581-.246-.617-.466-.4-.089-.8-.349-1.108-.325-.09-.1-.163-.446-.362-.264.063.047.262.031.2.138-.112.085-.344-.074-.516-.115-.067-.068.077-.14.018-.165a15.589,15.589,0,0,0-3.3-.68.192.192,0,0,1-.093.091c-.086-.007-.167-.01-.243-.021h0c0-.029.017-.064.021-.1l-.256-.019a.62.62,0,0,0,.081.081.406.406,0,0,1-.136-.085c-.662-.045-1.325-.058-1.991-.047-.019-.039.1-.229.1-.361a2.835,2.835,0,0,0,.637.087c-.017.118-.065.163.061.2.091,0,.084-.148.039-.192.2.045.233-.091.407-.077.016.047-.048.165.025.163a.207.207,0,0,0,.043-.16c.671.23,1.32-.139,2.023.121a.152.152,0,0,1,.114-.082c-.041-.034-.062-.072-.035-.118a.5.5,0,0,1,.4-.009.665.665,0,0,1-.007.117c.053.076-.039.118-.046.215.211-.257.788.109,1.078-.013.053.033-.039.149.028.173.728-.176,1.82.528,2.456.287a5.4,5.4,0,0,0,.749.7c.079-.268.136-.006.243-.207.1.148.363.275.462.072-.031-.118-.268-.42-.465-.322.167.088.409.151.356.308a1.308,1.308,0,0,1-.578-.234c.094-.053.114-.273.141-.326-.22-.037-.374-.319-.526-.2-.011.1.249.112.165.245-.265-.129-.751-.09-.919-.333.157-.1.457.176.563.092a11.11,11.11,0,0,0-1.864-.686c-.682-.133-1.351-.35-1.975-.444-.511-.093-1.065-.236-1.419.021-.095.067.027.132.011.23-.343-.008-.1-.342-.1-.407-.035.087-.287-.042-.322.049.093,0,.208-.01.2.073a1.778,1.778,0,0,0-1.086.049c.141.039.226-.069.313.015-.007.054.1.21-.045.192-.1.125-.061-.131-.168-.105a4.639,4.639,0,0,1-.819.091l-.833.1a11.63,11.63,0,0,0-1.763.478c-.434.107-.9.137-1.337.266l-1.241.351a8.807,8.807,0,0,1-1.454.323c-.245.037-.5.06-.742.114a5.5,5.5,0,0,0-.707.257,1.787,1.787,0,0,0,.243.848c-.167-.059-.031.2-.05.273.273-.084.532-.135.709.024a1.384,1.384,0,0,0-.973.238,1.145,1.145,0,0,0-1.274.41c.222-.119.453.168.4.365a2.634,2.634,0,0,0-.9.377c-.3.192-.576.382-.835.33-.552.706-1.791.92-2.052,1.752.14-.135.313-.349.495-.224-.112.122-.217.056-.331.208.084-.025.079.133,0,.089a2.835,2.835,0,0,0-.877,1.223c.049-.067.1-.093.157-.029a5.666,5.666,0,0,1-1.056,1.472c.049-.059.093-.118.085-.169-.067-.037-.116.035-.179.024-.036-.086.1-.317-.007-.318-.192.289-.4.57-.626.847-.183.3-.377.6-.573.9a8.585,8.585,0,0,0-.971,1.858c-.226.471-.068,1.065-.416,1.467.033-.065.032-.114-.019-.14a2.653,2.653,0,0,0-.364.718,1.439,1.439,0,0,0,0,.755.238.238,0,0,0-.225.108c.08.412-.32.825-.235,1.287.3.028.158.208.134.439.2.022.272.136.466.16-.129-.2-.407-.3-.369-.624.167.128.265-.035.426-.021-.014.251.466.3.568.371a1.429,1.429,0,0,0,.094-.466c-.1-.017-.116-.086-.179-.125-.053.113.056.233-.062.233a1.181,1.181,0,0,1-.266-.766c.084.018.181.057.2-.017-.015-.218-.353-.392-.445-.486a.292.292,0,0,0,.121.318.3.3,0,0,0-.021.344c-.318-.069-.139-.321-.342-.493.194-.041.233-.276.3-.413-.02.11.106.268.175.238a1,1,0,0,0-.187-.469c-.081-.019-.073.108-.154.089a5.75,5.75,0,0,1,.153-.682c.123.244.047.653.27.859-.031-.051,0-.1.06-.112.016.06.082.092.173.11-.119.273.06.377.214.491.018.1-.144.123-.075.167.3.16.29.473.382.744-.085.016-.14-.118-.19-.036-.007.175-.1.409.07.459.109-.091.1-.329.356-.232.044.184-.155.076-.129.24.149.085.249.2.384.291.1-.131.119-.355.282-.406-.155.332-.442.795.133.909.067.322-.372.333-.3.715.088.006.154-.1.193.014-.084.315-.5.323-.488.753.1.023.067-.075.165-.052-.067.165-.037.454-.084.613-.049-.088-.036-.22-.132-.252-.082.131-.289.224-.39.171-.049.058.017.214-.048.261a2.11,2.11,0,0,0-1.388.028c.186-.177.139-.61.074-.876-.069.137-.225.183-.187.437-.339.141-.4.519-.713.686.131-.305-.271-.025-.214-.358.134-.174.272.133.391.06.072-.134-.045-.182-.049-.325a.657.657,0,0,1-.226.033c.029-.135.031-.506-.1-.6-.3.548.226,1.417-.1,1.865a2.388,2.388,0,0,0-.259-1.268c0,.853.036,1.841.116,2.669.154.013.087-.149.241-.135.127.252-.174.361-.211.577a3.535,3.535,0,0,0,.146.974c.1-.025-.027-.2.116-.2.1.168-.129.489.1.669.089.016.084-.183.125-.03a2.587,2.587,0,0,0,.368,1.431c-.043.09-.219.111-.273.2a3.318,3.318,0,0,1,.429,1.226c-.251-.325-.305-1.071-.655-1.187a4.016,4.016,0,0,0,.494,1.554,9.16,9.16,0,0,1,.732,1.532c-.3-.377-.5-.991-.81-1.348a3.915,3.915,0,0,1,.517,1.424,4.67,4.67,0,0,1,1.335,1.98c-.353-.24-.545-.884-.877-1.024.116.277.205.548.295.822a8.041,8.041,0,0,0,.371.785,13.1,13.1,0,0,1-2.4-4.012.623.623,0,0,0-.5-.112c.227.581.5,1.13.759,1.7a17.143,17.143,0,0,0,1,1.661,15.715,15.715,0,0,0,1.1,1.428c.375.526.813,1,1.108,1.423.049.073.179.2-.024.022a7.645,7.645,0,0,1-1.116-1.233,17.507,17.507,0,0,1-2.369-3.457c-.12-.018-.207-.161-.316-.222l-.443-.99-.357-1.028a8.749,8.749,0,0,0-.407-.939,4.128,4.128,0,0,0-.411-.8,4.922,4.922,0,0,0,.15.871l.335.86a10.437,10.437,0,0,1,.524,1.633c-.189-.378-.328-.769-.474-1.12A3.518,3.518,0,0,0,15.4,40.4a9.517,9.517,0,0,0,.389,1.875,8.766,8.766,0,0,1,.5,1.827c-.465-.782-.53-1.841-1.092-2.215a24.808,24.808,0,0,0,.994,2.582,39.618,39.618,0,0,0,3.921,5.272c.513.552,1.1,1.016,1.634,1.507s1.14.865,1.632,1.354a11.159,11.159,0,0,0,1.414,1.418,6.576,6.576,0,0,0,1.849.9l.931.352c.308.11.619.2.911.322-.635-.876,1.073-1.192,1.578-.438-.106-.017-.281-.143-.343-.087a1.213,1.213,0,0,1,.619,1.017,21.22,21.22,0,0,0,2.619.433l1.343.166c.451.021.9.053,1.345.1a.3.3,0,0,0-.124.059.585.585,0,0,1,.444.151c.409-.008.834-.029,1.268-.06.032-.1-.251-.1-.378-.125.347-.107-.16-.157.058-.266-.092-.282.177-.351.55-.6a2.045,2.045,0,0,1,.993.064.635.635,0,0,1,.16.277c.062.028.125.062.186.086-.055.026-.111.043-.166.064l.133.064-.224.206.068.025c-.1.02-.247-.006-.289.057,0,.015,0,.031,0,.047a43.941,43.941,0,0,0,4.344-.706c-.474.16-.978.309-1.481.46s-1.022.216-1.505.348a9.756,9.756,0,0,0-2.167.742c.108.127.25.251.025.369.125.161.2.358.479.383a8.308,8.308,0,0,0,2.213-.182c.836-.1,1.656-.331,2.271-.418a1.925,1.925,0,0,0,1.524-.389,12.924,12.924,0,0,0,2.9-.855c.475-.207.965-.4,1.421-.648s.893-.537,1.325-.812c1.548-1.033,3.234-1.492,3.989-2.925.1.12.3-.425.526-.476a10.171,10.171,0,0,1-1.166,1.608,8.43,8.43,0,0,1-1.726,1.416,12.855,12.855,0,0,1-1.227.593c-.3.177-.628.494-.941.706a10.959,10.959,0,0,1-2.319.988,9.509,9.509,0,0,1-1.1.5c-.588.185-1.173.395-1.652.578-.891.314-1.842.266-2.6.468-.5.106-1.139.221-1.352.6a23.03,23.03,0,0,0,8.407-2.374c.068-.035.017.245.188.161A16.9,16.9,0,0,1,51,55.526a17.1,17.1,0,0,1-2.519,1.73c-.3.113-.616.112-.868.226-.4.183-.757.54-1.184.76a8.494,8.494,0,0,1-1.413.463c-.946.2-2.4.639-3.642.884-.707.081-1.4.191-2.074.312s-1.32.153-1.914.24c.161-.066.51-.014.5-.186a1.09,1.09,0,0,0-.129-.045,5.519,5.519,0,0,0-1.427.575c-.085-.155-.477.01-.7-.069a.224.224,0,0,0-.016.02c.2.012.4.017.417.147a1.011,1.011,0,0,0-.436-.027c.031.07.105.112-.124.189l.1-.063a1.075,1.075,0,0,0-.122-.1,4.376,4.376,0,0,0-.414.144c-.88-.274-2.739-.03-3.2-.675.415.054.842.1,1.264.139l.079-.018.11.033-.1-.007c.5.051.994.106,1.446.185a.1.1,0,0,1,.009-.028c-.193-.022-.414-.047-.678-.1l.208-.02a1.492,1.492,0,0,0-.958-.521,1.786,1.786,0,0,0,.169-.227c-.136-.024-.27-.05-.4-.077-.529-.106-1.041-.212-1.543-.337l-.154-.049a.233.233,0,0,0,.089.083c-.082.005-.4.044-.279.183,0,.153.314.174.5.243l-.429.025s0,.005,0,.008c.032.008.064.018.1.024a.171.171,0,0,0-.1.024c.025.056.148.1.207.153l-.477-.056c-.094.1-.017.167.076.227.243.038.476.068.689.083a1.636,1.636,0,0,1-.579-.01l.025.018-.255-.03a.33.33,0,0,0-.147.027c.042,0,.087,0,.136,0a.705.705,0,0,0-.174.079c.012.065.083.13.007.1a.222.222,0,0,0-.058-.044c-.011.029,0,.06.038.095.393.275.516-.007.84.128l-.328.209a15.444,15.444,0,0,0,3.339.362c.116-.007-.037.145.137.1a16.84,16.84,0,0,0,2.665-.105c.884-.1,1.772-.145,2.685-.258a28.194,28.194,0,0,1-3.377.555c-1.133.067-2.263.176-3.323.213.32.241,1.071-.033,1.46.183-.559.046-1.178.032-1.685.046.477.291.944.065,1.377.132-.1.009-.213,0-.205.086.133.027.4-.021.444.055-.35.012-.7.032-1,.072-.014-.058.081-.072.009-.1-.556,0-1.1-.246-1.572-.255-.152,0-.267.08-.415.069a3.05,3.05,0,0,1-.53-.076c-.09.033-.176.068-.261.1.241.049.472.1.66.149a.153.153,0,0,0-.16.041c.177.03.339.066.383.155-.364-.068-.757-.15-1.137-.237a3.147,3.147,0,0,1-1.711.221l.015-.031a5.674,5.674,0,0,1-.822-.193l-.171-.038a3.651,3.651,0,0,0-1.175-.192,13.147,13.147,0,0,0,1.391.4c.5.094,1.025.188,1.53.308-.013.157-.484.053-.414.165a14.078,14.078,0,0,0,1.347.441c.469.11.958.173,1.448.246l1.481.192,1.482.089a35.449,35.449,0,0,0,5.02.041.465.465,0,0,1,.273-.159,10.533,10.533,0,0,1,1.759-.484c.01.046.019.09.118.1.317-.2.208.037.466.016.536-.232.507.2,1.041.059a.144.144,0,0,0,0,.02c.7-.131,1.4-.286,2.074-.47.88-.23-.559.2-.708.239q-.669.165-1.353.309c.078.133.435.152.494.265a.155.155,0,0,0-.115.068c.419.037,0,.381.626.281-.2.153-.46-.044-.684.148l.281.157c-.1.028-.191.054-.234.019l-.284.239c-.174.126.1.129.151.179-.228.063-.559,0-.717.2l.075.028-.3.063.017.074c-.231.081-.4-.089-.575.072.1.009.082.061.088.091a1.768,1.768,0,0,0-.84-.057c-.129.055-.018.1-.039.161l-.256-.075-.15.107c-.249-.034-.23-.318-.676-.145a.076.076,0,0,0-.047-.1,4.083,4.083,0,0,1-1.275.228c-.514.008-1.027-.011-1.383.014a6.865,6.865,0,0,1,1.344-.2c.254-.019.509-.044.749-.061a.452.452,0,0,1-.053-.007.835.835,0,0,0-.559-.433l.144-.2c-.375-.187.181-.316.311-.494a30.374,30.374,0,0,1-3.115.151,32.353,32.353,0,0,1-8.5-1.236c-.011.041.082.051.085.088-.726-.03-1.155-.547-1.978-.606-.137-.118.163-.011.032-.091-.731-.436-1.423-.141-1.755-.6.1-.01.433.272.558.177a33.235,33.235,0,0,1-7.918-4.6c.049.119.053.214-.005.265a33.29,33.29,0,0,0,9.821,5.349c.545.174.725.273.345.152l-2.45-.792a30.008,30.008,0,0,1-8.131-4.727,5.938,5.938,0,0,1-1.4-1.1c.1.051.153.062.18.05a28.986,28.986,0,0,1-3.341-3.608,26.979,26.979,0,0,1-2.128-3.11L9.3,48.107c-.25-.49-.461-1.006-.7-1.54a19.914,19.914,0,0,1-1-2.986c-.076.061-.156.153-.26.009a26.645,26.645,0,0,0,5.386,10.357c.657.746,1.256,1.56,1.972,2.264s1.414,1.439,2.193,2.081A24.217,24.217,0,0,0,20.206,60.6c.588.334,1.17.683,1.775.985l1.859.823a16.135,16.135,0,0,0,1.9.716c.642.211,1.279.438,1.924.632,1.311.305,2.6.722,3.925.928-.4-.038-.8-.069-1.2-.119l-1.2-.222c.051.062.044.094-.03.126a2.306,2.306,0,0,1-.547-.1c-.02-.188.432.081.469-.051a19.828,19.828,0,0,1-4.449-1.189c-.064.085.068.159-.072.18-1.022-.436-2.088-.9-3.126-1.383-1-.55-2.015-1.062-2.911-1.605-.989-.658-2.145-1.744-2.734-1.986.378.412.863.75,1.207,1.111l.1-.129a9.875,9.875,0,0,1,1.921,1.594,4.477,4.477,0,0,1-1.744-1.263c-.037.077-.1.1-.214,0a14.074,14.074,0,0,1-3.344-2.891c.024.08-.029.137-.132.053-.921-1.237-2.688-2.377-2.835-3.544M1.99,39.485l.1-.016-.159-1.087c-.141.146.026.716.064,1.1m-.4-4.808c.048.875.035,1.9.142,2.744l.024.182c.039-.026.036-.112.08-.132-.129-1.3-.1-2.541-.152-3.892-.212.162-.109.7-.095,1.1m.127-1.948c.058.117.04-.487.062-.667-.058-.118-.042.487-.062.667M44.451,1.06a2.923,2.923,0,0,0-1.241-.4,2.609,2.609,0,0,0,1.241.4M54.783,6.286a5.321,5.321,0,0,0-1-.585c-.012.1.424.22.411.322-.018.161-.332-.2-.4-.126.1.148.922.66.984.389M53.6,5.779c0-.056-.031-.113-.032-.169-.107,0-.155.108-.364-.066l-.05.083a.889.889,0,0,0,.445.152M48.12,3.311a7.1,7.1,0,0,0-.937-.434c-.018.155.457.223.344.395.252.076.352-.024.593.04M53.159,6.6c.013-.22-.786-.74-1.286-.908.347.3.994.605,1.286.908m-2.47-1.421c.207.077.069.18.179.263.245.119-.094-.15.124-.12.333.181.408.414.74.624.037-.183-.208-.417-.571-.618s-.834-.386-1.2-.564c-.071.21.55.534.732.415m7.964,9.823a.119.119,0,0,1-.04.1c.112.219.366.329.532.546.075-.167-.315-.593-.492-.646m3.772,4.539c-.324-.557-.664-1.118-.97-1.571a1.646,1.646,0,0,0,.687,1.16c.023.041.046.082.069.124l.006-.067,0,.069c.354.638.655,1.311,1,1.886-.23-.451-.448-1.052-.788-1.6m-1.006-.626a1.551,1.551,0,0,1,.17-.162c-.216-.362-.433-.715-.651-1.048a9.656,9.656,0,0,0-1.313-1.465,27.606,27.606,0,0,1,1.794,2.674M55.708,13a.607.607,0,0,0-.135-.027l-.088.095c.064.059.126.121.189.18.072-.039.072-.13.033-.249m4.348,12.847-.123.041c.077.187.255.227.25.422.1-.076-.006-.41-.127-.462M15.09,5.981c.079.1.311-.12.5-.252-.11-.036-.3.09-.5.252M16.339,5.3l.075.105c.182-.29.329-.053.535-.188a.659.659,0,0,0-.609.082m3.2-.113.854-.5c-.054-.047-.007-.095-.012-.142-.126-.081-.358.013-.567.069-.118.193-.418.39-.275.574M17.428,2.647c-.233.02-.3.271-.154.356.163-.116.237-.089.361-.141.044.074.129.144-.007.23.172,0,.236-.244.384-.342L17.9,2.556c-.095-.034-.618.333-.468.091m2.888,1.3c-.089.227-.656.292-.6.5A7.471,7.471,0,0,1,20.547,4c-.062-.042-.157-.03-.231-.053m1.737-.221c.087.121.441-.159.41-.227-.1-.033-.428.157-.41.227m.359-1.341a3.062,3.062,0,0,1-.684.246c.029.148.506.075.6.291.023.068-.223.118-.31.179.093.082.279.037.458,0a.352.352,0,0,0,.095-.222c.051.026.21-.091.242-.04a.88.88,0,0,1,.074-.424c-.254.116-.412.106-.474-.032m11.7-1.6c-.155,0-.23-.124-.351-.045.073.1.325.084.584.065,0-.1-.16-.1-.131-.22-.115-.093.006.187-.1.2M35.084.64A1.925,1.925,0,0,0,36.125.564,4.5,4.5,0,0,0,35.084.64m4.5.808c.112.1.361.191.194.319.175.029.2-.06.4-.011.057-.105-.069-.135-.03-.232Zm4.566.6a.13.13,0,0,0-.086.112.74.74,0,0,1,.465.247c.114-.071-.166-.282-.379-.359M44.9,2.1c-.043.07.083.093.013.17.224.1.564-.034.608.154.266-.118-.315-.261-.621-.324m2.161,1.108c-.036.121.192.192.383.272.049-.122-.15-.2-.383-.272m1.8,1.409c.007-.038.034-.048.076-.036.07-.1-.041-.185-.064-.278-.168-.042.025.106,0,.142-.066.05-.289-.118-.419-.154-.013.044-.026.088-.087.067a2.123,2.123,0,0,0,.493.259M48.213,4.3c.005-.126-.287-.122-.418-.15.075-.1.227-.11.477,0-.172-.22-.7-.265-1.04-.405a1.577,1.577,0,0,0,.98.555m-1.056-.343c-.045-.177-.517-.405-.85-.433a1.774,1.774,0,0,0,.85.433m-2.2-.779a3.15,3.15,0,0,0-1.239-.306c.269.23.843.2,1.239.306m-1.813-.809c.964.145,2.609.618,3.545.879a6.441,6.441,0,0,0-1.1-.515,12.977,12.977,0,0,0-1.285-.3,14.291,14.291,0,0,0-2.429-.273,9.644,9.644,0,0,0,1.251.3c-.012-.051-.656-.193.02-.095m-.561.233a9.8,9.8,0,0,1-1.1-.142c.1.267,1.283.273,1.1.142m-1.99-.6c.05-.121-.3-.08-.436-.126-.01.087.319.191.436.126m.105.471c-.128-.183-.453-.036-.71-.1.178.125.452.027.71.1M39.394,1.66c-.129-.134-.226-.469-.275-.08.106.02.094.1.275.08m-.95.756c-.175-.129-.434-.023-.766-.069a1.547,1.547,0,0,0,.766.069M32.8,1.582c.117-.008.031.139.13.145.692-.083,1.214-.141,1.848-.2.027-.068.266-.021.108-.1.246-.037.444.067.621-.028.085-.119-.193-.011-.173-.089a13.275,13.275,0,0,0,3.812-.114c-.073-.068-.348-.037-.451-.09.924-.179,2.2.081,2.967-.115a13.755,13.755,0,0,0-2.6-.221L37.41.777A14.1,14.1,0,0,0,35.6.854a14.4,14.4,0,0,0-2.77.4,1.123,1.123,0,0,0-.337.171.134.134,0,0,1,.035.09c.2-.049.137-.073.181.18.067-.023.11-.057.1-.112m1.228,1.892c-.153-.089-.341.065-.471.091.073.131.452.047.644.094.012-.113-.455-.088-.173-.184M46.806,13.486l.1-.2c-.2-.046-.11-.16-.249-.221-.054.089.1.131.125.2-.031.075-.1.065-.167.065-.153-.048-.108-.144-.261-.192-.089.23.341.2.449.35m-.7-.287c-.049-.117-.061-.243-.194-.34-.058.145.036.251.194.34m1.718,2.738c.085-.274-.332-.089-.332-.306-.068-.052-.084.059-.146.026,0,.162.353.256.477.28M43.939,13.15c.229.091.466.176.7.254l.681.286a4.417,4.417,0,0,0-.687-.476c-.261-.129-.542-.252-.835-.372l-.911-.35c-.314-.109-.648-.166-.975-.251a.048.048,0,0,0,.022.072.526.526,0,0,0,.333.141L42.4,12.4l-.026-.04.262.113a.587.587,0,0,1,.452.186c-.09.047-.163-.042-.26-.095a1.1,1.1,0,0,1,.094.089,7.25,7.25,0,0,0,1.022.494m.551,3.322c-.081.151.165.186.143.315.156-.017-.149-.2.038-.231.018-.07-.15-.1-.181-.083m.884-.27a.538.538,0,0,0-.409-.258c.034.136.245.214.152.389a1.287,1.287,0,0,1,.662.271c.153.075-.032-.1.048-.159.048.026.1.081.133.042.016.271.382.544.726.655-.069-.143-.461-.214-.359-.4.065-.087.254.066.236.14.079.019-.015-.122.024-.173-.423-.21-.875-.64-1.215-.509M33.588,2.69a7.322,7.322,0,0,0-1.4.217,9.519,9.519,0,0,0,1.4-.217m-1.815-.735a.619.619,0,0,1,0-.079A2.081,2.081,0,0,0,31.01,2l-.02-.137c-.421.122-.052-.163-.457-.1l.2-.1c-.42.09-.853.194-1.257.307.017.136.13.183.179.289a4.136,4.136,0,0,1-.946-.071A31.132,31.132,0,0,0,24.376,3.56c-.2.079-.061.216-.242.31-.492.274-.748-.007-1.2.371.547.159,1.6-.372,2.383-.435.143-.034-.4.058-.48,0,.209-.123.5-.231.58-.378-.018-.094-.155-.051-.173-.144.875-.327,1.348-.225,2.217-.511a.93.93,0,0,0,.786.1c-.049-.115-.317-.165-.2-.316,0-.048.161-.052.148-.1.878.176,2.319-.468,3.58-.5m4.653,8.415c.107-.009.134.05.121.133.1-.133.4-.074.611-.035-.606-.436-1.846-.32-2.875-.222.006.151-.182.183-.172.342a12.069,12.069,0,0,0,2.315-.219m-3.232.417-.442.064.015.1c.147-.1.374.01.426-.159m-.586.182c-.025-.136-.255-.051-.418-.038.3-.355,1.292-.319,1.9-.5-.124-.23-.83.037-1.014.147a8.859,8.859,0,0,0-1.174.176c-.118.074.146,0,.207-.005.067.119-.048.135-.039.22a.393.393,0,0,1,.07-.011l-.061.025a1.23,1.23,0,0,0,.524-.012M21.932,5.031c0-.122-.182.031-.285.064a1.461,1.461,0,0,1,.482-.3c-.09-.358-.833.174-1.264.4a.127.127,0,0,1,.111.084,3.608,3.608,0,0,1-1.125.885c.083-.148.493-.364.209-.424-.056.343-.576.36-.76.715a10.728,10.728,0,0,0,2.63-1.424m-5.3-1.052c.049-.036.017-.061.015-.09l-.036-.054c-.088.051-.071.088-.135.136l-.144-.214c-.319.164.036.229-.268.391.01.105.12.017.143.1.087-.149.283-.307.425-.265M17.3,5.522c-.057-.1.058-.219,0-.319a1.351,1.351,0,0,1-.6.713l.056.079c.243-.175.278-.379.543-.473M27.12,17.17c.034-.032-.016-.085-.035-.13.21-.208.71-.318.643-.575-.531-.146-.91.391-1.32.751.193.158.469,0,.711-.046m-.779-.065c.091-.059.091-.138.2-.194-.088-.034-.231.122-.34.163.035.05.109-.038.139.031m.168.275c-.05-.085-.126-.071-.188-.114-.191.075-.182.194-.345.274a4.1,4.1,0,0,0,.533-.16m-.752.79a7.987,7.987,0,0,0-1.265.849c.423.028.91-.575,1.265-.849M8.745,14.621c.315-.215.259-.518.32-.715a3.148,3.148,0,0,0-.576.683c.117-.045.334-.228.256.032m-.437.275c-.14.052-.278.407-.409.584.182,0,.351-.072.563-.41-.106,0-.173-.041-.154-.174M2.226,25.586c.114-.018.215-.083.259-.38-.118,0-.2.153-.259.38M2.3,27.97c.156-.933.449-1.864.7-2.823-.5.347-.6,1.972-.7,2.823m15.3,4.993c.144-.037.045-.344.088-.493-.2-.019-.238.42-.088.493M3.759,25.034a4.5,4.5,0,0,1,.173-.814c0-.189-.091.241-.119.336-.066.082-.09-.185-.2.006-.067-.058.064-.272.1-.281-.137-.187-.368.839-.384,1.135.133-.166.237-.445.427-.383m-.139,3.51c-.016.091-.017.222-.065.226.035.189.134-.117.185-.149,0-.079-.073-.06-.119-.077m-.478-4.363a8.655,8.655,0,0,0-.3.926,9.882,9.882,0,0,0,.47-.94.137.137,0,0,1-.17.014m1.289-3.015a4.612,4.612,0,0,0,.6-1.715c-.335.385-.746,1.422-.6,1.715m1.026-3.609c.271-.13.135-.509.275-.758a.986.986,0,0,0-.275.758M18.892,31.864c-.059-.244-.345-.327-.326-.639-.254.286-.024,1.041.326.639m-1.12,1.6c.187-.028.133-.317.249-.418-.007-.117-.138-.121-.15-.234a2.861,2.861,0,0,0,.319-.662c.116-.046.162.121.192.048-.05-.216.03-.493-.024-.675-.068.013-.044.146-.121.148-.052-.035-.056-.107-.035-.2-.144.182.017.351-.008.549-.212.011-.058-.27-.155-.34-.271.4-.186,1.168-.268,1.783M2.088,26.878c-.333.062-.383.827-.209,1.084a9.76,9.76,0,0,0,.209-1.084M37.437,59.857a1.079,1.079,0,0,0,.276.044,1.715,1.715,0,0,0-.276-.044M22.93,59.87a1.732,1.732,0,0,0-.334-.36c-.016.056.042.11.148.16l-.03.057c-.248-.1-.232-.213-.355-.319-.019.079-.115.014-.122.115l.694.346m-6.572-4.923a11.2,11.2,0,0,0-1.57-1.679.177.177,0,0,1-.079,0c.083.145.2.175.312.3-.189-.182-.308-.242-.389-.239a21.977,21.977,0,0,0,1.726,1.617m-.8.911a.052.052,0,0,1,.021-.014c.059.006.119.01.182.018q-.783-.68-1.516-1.39.628.722,1.313,1.386m5.592,2.466c-.156-.054-.347-.179-.358-.1l-3.987-2.781a6.651,6.651,0,0,0,1.08,1.154,8.773,8.773,0,0,0,1.373.876c.565.655,2.24,1.838,2.951,1.776l.047-.085c-.317-.052-.362-.278-.667-.28-.048-.054.066-.062.038-.165-.154-.036-.679-.345-.476-.4m5.181-1.214-.013,0,.01.014ZM4.138,35.341l.1,0c.017-.2-.058-.215-.051-.394-.086.026-.121.275-.046.4m3.005,7.231c-.008-.012-.016-.024-.024-.039,0,.027.011.053.016.08l.008-.041M24,62.9c-.964-.574-2.162-.908-3.145-1.56C21.5,62.09,23.018,62.47,24,62.9m-4.139-2.072a4.345,4.345,0,0,0-.91-.547,2.8,2.8,0,0,0,.91.547m-4.478-2.8c.04-.126-.308-.333-.459-.5-.081.161.29.345.459.5m-.9-.854c-.046-.153-.632-.541-.872-.718.028.136.355.332.408.469a1.051,1.051,0,0,1,.463.249m-3.452-3.556c-.075.112.035.3.181.509a.6.6,0,0,0-.181-.509" transform="translate(0 2.109)" fill="#7052ac"/>
    <path id="パス_176" data-name="パス 176" d="M.154,0c.123.063,0,.308.074.407C.115.365.029.491,0,.43.117.315-.1.012.154,0" transform="translate(20.943 35.068)" fill="#7052ac"/>
    <path id="パス_177" data-name="パス 177" d="M.551.265.057.552C.121.407.209.353,0,.324A1.353,1.353,0,0,0,.623,0,.335.335,0,0,0,.551.265" transform="translate(18.468 3.93)" fill="#7052ac"/>
    <path id="パス_178" data-name="パス 178" d="M0,.244C.163.17,0,.056.11.013A3.327,3.327,0,0,0,1.294,0C1.242.249.187.165,0,.244" transform="translate(35.179 1.952)" fill="#7052ac"/>
    <path id="パス_179" data-name="パス 179" d="M.081.229C.142.136-.089.022.04,0,.189.263.86-.132.857.23.518.154.422.277.081.229" transform="translate(39.125 1.687)" fill="#7052ac"/>
    <path id="パス_180" data-name="パス 180" d="M.294.433C-.129.387.02.058.049,0,.331.127.336.294.294.433" transform="translate(45.784 3.048)" fill="#7052ac"/>
    <path id="パス_181" data-name="パス 181" d="M.046,0C.151.333.23.83.1.849.112.592-.087.161.046,0" transform="translate(64.425 26.49)" fill="#7052ac"/>
    <path id="パス_182" data-name="パス 182" d="M.066,0C.153.023.254.019.309.1a.264.264,0,0,0-.123.28A.955.955,0,0,1,.043,1.746C.2,1.406.467.656,0,.447.138.417-.053.051.066,0" transform="translate(61.032 32.49)" fill="#7052ac"/>
    <path id="パス_183" data-name="パス 183" d="M1.206,6.991C1.1,6.53,1.025,6.047.9,5.6c-.062,0-.064.057-.122.057.011-.642-.215-1.479-.2-2.093-.037.2-.184.251-.272.066a1.668,1.668,0,0,1-.087-.7l.2.2a.733.733,0,0,0-.059-.279.655.655,0,0,0,.158.106.844.844,0,0,1,.039.316.791.791,0,0,1,.026.164.884.884,0,0,1,.167-.481c.061.016.048.211.117.21C.857,2.845.715,2.424.513,2.35a1.06,1.06,0,0,0-.028-.794c-.057.054-.077.214-.166.137A1.9,1.9,0,0,0,.245.72C.306.922.2.988.137,1.083A1.966,1.966,0,0,0,0,.6C.081.421.207.7.262.571A.686.686,0,0,1,.235,0,1.98,1.98,0,0,1,.513,1.264c.055-.035.054-.118.133-.132a12.8,12.8,0,0,1,.405,2.558c.251,0,.274.34.252.614C.993,4.295.987,3.683.84,3.355c-.223,0-.174.446-.143.58.111.035.176-.171.255-.042-.082.259.183.518.112.771a.146.146,0,0,1-.135-.028c.082.129.192.206.276.334-.054-.187.129-.118.166-.207.021.268.158.664-.031.7-.017-.121-.02-.271-.1-.266a1.051,1.051,0,0,0,.013.322L1.41,5.5a1.669,1.669,0,0,0,.094.966c-.117.11.024.551-.132.607.026-.272-.1-.148-.166-.085" transform="translate(61.277 27.616)" fill="#7052ac"/>
    <path id="パス_184" data-name="パス 184" d="M.125.788C-.051.605.055.3,0,.029L.27,0A.5.5,0,0,1,.514.6C.276.494.335.784.125.788" transform="translate(42.803 26.808)" fill="#7052ac"/>
    <path id="パス_185" data-name="パス 185" d="M1.01.969c-.13.005-.186.2-.423,0S-.11.432.024.174C.117.026.282-.094.585.1c.223.252.736.786.425.866" transform="translate(52.125 19.534)" fill="#7052ac"/>
    <path id="パス_186" data-name="パス 186" d="M1.19.574a.828.828,0,0,1,.258.586c-.013.818-.634-.406-.622.514-.319-.1-.628.216-.811-.5C.039.8-.08.3.109.142c.12-.3.323-.071.537.173s.375.525.545.259" transform="translate(54.34 28.959)" fill="#7052ac"/>
    <path id="パス_187" data-name="パス 187" d="M1.284.48c.016.008.03.017.045.026a.26.26,0,0,1-.02-.1c.094.1.432.4.319.51.056.157.092.33.14.489a.239.239,0,0,1-.175.1c.092.209.255.451.157.568-.025-.174-.158.086-.183-.087.125-.129-.14-.339-.051-.481a.576.576,0,0,1-.091-.02.108.108,0,0,1-.056.072.366.366,0,0,0-.041-.106l-.008,0a2.044,2.044,0,0,1-.3-.484C.965.905.9.842.842.775A.251.251,0,0,1,.82.959C.774,1.148.5,1.1.3.875.167.62-.025.426,0,.173c0-.241.28-.222.509,0l0,0A.368.368,0,0,1,.521.09C.57.2.662.169.671.09A1.723,1.723,0,0,0,.912.615C.91.6.907.592.905.58c.158-.057.166-.274.379-.1" transform="translate(55.076 23.912)" fill="#7052ac"/>
    <path id="パス_188" data-name="パス 188" d="M.41.167A1.046,1.046,0,0,1,.44.914C.3.9.144,1.129.044.727-.112.173.177-.247.41.167" transform="translate(57.207 33.308)" fill="#7052ac"/>
    <path id="パス_189" data-name="パス 189" d="M.02,0c.014.015.034-.02.038.014L0,.07C0,.037,0,0,.02,0" transform="translate(37.854 44.03)" fill="#7052ac"/>
    <path id="パス_190" data-name="パス 190" d="M3.079,27.828v-.176A15.019,15.019,0,0,0,1.4,28.9c0-.2.228-.156.242-.325a5.926,5.926,0,0,0-1.33-.29c.2-.539-.272-.795-.314-.983a.52.52,0,0,0,.376-.173c.388-.34.429-.664.236-.718a2.78,2.78,0,0,0,.781-.978,1.989,1.989,0,0,1,.878-.852c.613-.538,0-.815-.072-1.186.315.006.248.781.763.5l.051-.259c.357-.115.707-.3.917-.054l.043-.075.071-.345c.015.039.029.09.045.143.369-.63.779-1.264,1.108-1.916a.249.249,0,0,1,.028-.292.864.864,0,0,0,.425-.534c-.031-.086-.039-.014-.117-.054.107-.179.252-.22.349-.444a.137.137,0,0,1-.178-.076c.094-.165.234-.167.331-.327-.133-.05-.252-.109-.176-.28.114-.092.043.169.185.157a.864.864,0,0,0,.2-.384c-.031.021-.213.028-.138-.094.224-.052.181-.762.444-.879a1.817,1.817,0,0,1,.129-.62,1.834,1.834,0,0,1,.256-.573,5.473,5.473,0,0,1-.445,1.754c.015-.039.019-.1-.017-.048a1.936,1.936,0,0,0-.022.454,5.737,5.737,0,0,0,.64-2.119c.116-.112.327-.556.128-.66-.038.2.091.486-.153.491.088-.238.063-.469-.054-.459.807-1.3.876-3.284.829-5.166a.525.525,0,0,1-.208.235c-.337.123-.47.078-.706-.289.1-.239-.27-.474-.029-.722-.157-.612.294-.5.2-.888l.029.047c.033-.178.215-.129.217-.379.106.232.11-.2.154-.043.083.164.122.119.162.048-.231-.419.051-1.218-.28-1.674a1.027,1.027,0,0,0-.019-.6c-.075-.211-.194-.378-.282-.343-.046-.158.108-.164.133-.269L7.089,6.4c.052-.245.148-.776-.161-.929.059.18-.078.213-.164.285C6.7,5.27,6.47,4.829,6.4,4.444c.082.2.211.151.285.032.062.106-.015.126.048.232.3-.184.387.4.574.244-.007-.195-.256-.322-.137-.461.035.126.1.171.19.152A.765.765,0,0,1,7.3,4.282c.122.092.164.061.253.134.082.2-.061.255-.039.435.177.13.194.619.379.74.339-.254.3-.7.115-1.166-.158-.335-.378-.68-.547-.988.045.256.057.471-.157.463-.142-.494-.539-.652-.64-1.175a.663.663,0,0,1,.056-.258.567.567,0,0,1-.05-.2l.089-.037c.017.042.041.088.063.133a.277.277,0,0,1,.157-.016,1.385,1.385,0,0,1,.406.544,1.046,1.046,0,0,0,.007.141c.056-.039.111-.079.1-.163a7.385,7.385,0,0,1-.7-1.361,2.215,2.215,0,0,0-.053.546c-.022-.012-.045-.025-.067-.039a.242.242,0,0,1-.03.179A.539.539,0,0,1,6.505,1.9c-.121-.1-.248-.224-.38-.355-.238-.31-.3-.774-.139-.86.18-.057.426.205.644.441-.053-.14-.1-.275-.145-.4C6.408.8,6.441.782,6.34.8,6.395.516,5.953.162,6.267,0A6.013,6.013,0,0,1,7,1.452c.436,1.022.9,1.536,1.287,2.429A3.819,3.819,0,0,1,8.5,4.83c.122.631.361,1.241.525,1.8A2.276,2.276,0,0,1,8.961,8.12c-.061.021-.072-.047-.108-.07.044.256.035.46-.121.517-.081-.447.033-1.008-.221-1.3.053-.034.15.1.16-.027.006-.322-.308-.064-.261-.457.082-.046.075.069.139.058C8.3,6.651,8.36,6.272,8.3,5.915c-.1.027-.263-.117-.281-.061C8,6.217,8,6.574,7.958,6.927c-.056.356-.118.7-.2,1.03.024.091.155,0,.151.14-.063.359.03.8,0,1.224a.07.07,0,0,0,.062-.063l.047.181c.049.018.09.031.112.07l.024-.01c.013.117-.036.282.04.4A.1.1,0,0,0,8.3,9.837a1.233,1.233,0,0,1-.1.512c.115.1.055.186-.013.263,0,.214,0,.443,0,.665a2.694,2.694,0,0,0,.027.814c.135-1.4.481-3.368-.246-4.532.212-.148.016-.686.236-.825.179.341.144,1.033.409,1.223a4.169,4.169,0,0,0,.072.947c0,.755-.287,1.113.163,1.229-.1.3.014.848-.141,1.074-.174-.156.123-.629-.133-.734a8.927,8.927,0,0,0-.08,1.182,5.373,5.373,0,0,1-.411,1.154c.072.151.3-.156.29.02-.011.2-.193.159-.271.263.157.309-.1.812-.091,1.079.22-.107.173-.68.4-.769.089.742-.547.969-.52,1.6.011-.048.023-.093.075-.069-.062.2.04.241.007.41-.209-.135-.276.2-.135.262.019-.116.043-.222.155-.176-.257.712-.54,1.5-.836,2.154.071.037.085-.052.165.006A13.471,13.471,0,0,1,6.5,19.3c-.142.236-.566.513-.406.69.076-.119.109-.366.233-.289-.073.412-.649,1.205-.779,1.695-.107.025.017-.186-.07-.079-.373.726-.875,1.445-1.287,2.209.079.082.2.074.426-.189.249-.085.3.159.332.409s.028.5.261.463c-.028.117-.173.36-.3.631-.071.424.343.052.5.154l-.5.239c-.45.53-.106.912-.173,1.054-.11.087-.236-.11-.441.139-.1.168-.228.375-.372.58-.006.017-.012.035-.017.052l-.042.031a2.289,2.289,0,0,1-.791.741M7.749,6.946c.071-.124-.017-.351-.064-.559-.2,0-.14.2-.35.2a.518.518,0,0,0,.415.363M5.95,20.227c-.14-.049-.134.228-.133.286.15.009.11-.194.133-.286" transform="translate(51.151 24.544)" fill="#7052ac"/>
    <path id="パス_191" data-name="パス 191" d="M.121.261.089.276C.08.179-.056.134.027,0Z" transform="translate(53.911 47.705)" fill="#7052ac"/>
    <path id="パス_192" data-name="パス 192" d="M.1.159C.011.21.026.091,0,.069.132-.079.118.039.1.159" transform="translate(56.029 47.556)" fill="#7052ac"/>
    <path id="パス_193" data-name="パス 193" d="M.46.786C.247.749.055.268,0,0,.187.229.561.471.46.786" transform="translate(64.403 19.337)" fill="#7052ac"/>
    <path id="パス_194" data-name="パス 194" d="M.12.005A1.378,1.378,0,0,1,0,.174L.017.1C.061.044.093-.019.12.005" transform="translate(56.277 48.305)" fill="#7052ac"/>
    <path id="パス_195" data-name="パス 195" d="M.195.012C.2.137.08.067,0,.115.048.073.123-.037.195.012" transform="translate(51.17 51.086)" fill="#7052ac"/>
    <path id="パス_196" data-name="パス 196" d="M.116.012l-.1.135c-.035,0,0-.062.017-.1C.082.016.1-.019.116.012" transform="translate(49.492 52.296)" fill="#7052ac"/>
    <path id="パス_197" data-name="パス 197" d="M.215,0,0,.154.036.086A.239.239,0,0,1,.215,0" transform="translate(50.716 53.225)" fill="#7052ac"/>
    <path id="パス_198" data-name="パス 198" d="M.052,0C.035,0,.017.008,0,.011A.091.091,0,0,1,.052,0" transform="translate(47.005 56.432)" fill="#7052ac"/>
    <path id="パス_199" data-name="パス 199" d="M2.409,0c-.2.429.419.2.058.71-.457.645-1.377.752-2.1.963l.371-.21c0-.128-.342-.306-.74-.1.2-.281.153.041.508-.2C.876.959.621.8.488.795c.523-.109,1-.7,1.318-.577.2-.234.347.149.6-.217" transform="translate(46.569 55.637)" fill="#7052ac"/>
    <path id="パス_200" data-name="パス 200" d="M.13.167C.574-.221.6.149.184.458-.034.564-.066.367.13.167" transform="translate(56.055 54.446)" fill="#7052ac"/>
    <path id="パス_201" data-name="パス 201" d="M.247,0C.289.039.385.024.482.009.48.134.317.3.048.284-.1.192.135.074.247,0" transform="translate(44.811 56.015)" fill="#7052ac"/>
    <path id="パス_202" data-name="パス 202" d="M.418.237C.174.317.028.223,0,.14A.9.9,0,0,1,.444,0C.594.06.584.161.418.237" transform="translate(38.569 62.445)" fill="#7052ac"/>
    <path id="パス_203" data-name="パス 203" d="M.516,0,.052.286,0,.283.462,0Z" transform="translate(47.582 70.779)" fill="#7052ac"/>
    <path id="パス_204" data-name="パス 204" d="M.011.012c.2-.033.614,0,.3.121-.2,0-.353-.06-.3-.121" transform="translate(43.973 70.55)" fill="#7052ac"/>
    <path id="パス_205" data-name="パス 205" d="M.006.131C.612.1.714.038,1.182,0c.568.233,1.61.293,1.929.643,0,.121.29.291.114.389A5.136,5.136,0,0,1,.735.756C.814.516-.078.372.006.131" transform="translate(26.109 74.143)" fill="#7052ac"/>
    <path id="パス_206" data-name="パス 206" d="M.008,0C.233.085.344.063.622.166A7.578,7.578,0,0,1,2.059,1.3c.217.214-.058.261-.1.372-.287.058-.784-.343-1.094-.49C-.064.521-.012.279.008,0" transform="translate(15.286 65.192)" fill="#7052ac"/>
    <path id="パス_207" data-name="パス 207" d="M.206.021A4.655,4.655,0,0,1,1.4.766c.237.418.754.961.778,1.287l.1.057A4.033,4.033,0,0,1,.919,1.691c0-.226-.37-.684-.644-1.065S-.143-.088.206.021" transform="translate(10.205 58.105)" fill="#7052ac"/>
    <path id="パス_208" data-name="パス 208" d="M.141.3C-.291-.137.352-.039.96.225a4,4,0,0,1,1.227.838c.082.241-.149.4-.836.118A4.159,4.159,0,0,1,.141.3" transform="translate(16.283 70.094)" fill="#7052ac"/>
    <path id="パス_209" data-name="パス 209" d="M0,0,.118.092.085.085Z" transform="translate(37.778 24.539)" fill="#7052ac"/>
    <path id="パス_210" data-name="パス 210" d="M.117,0,.008.22C-.028.07.068.035.117,0" transform="translate(2.805 24.623)" fill="#7052ac"/>
    <path id="パス_211" data-name="パス 211" d="M0,.05.025,0C.032.022.02.036,0,.05" transform="translate(2.922 24.572)" fill="#7052ac"/>
    <path id="パス_212" data-name="パス 212" d="M.292.113A.694.694,0,0,1,.109.555C.085.467.022.527,0,.439A.7.7,0,0,1,.086.045C.173-.035.26-.006.292.113" transform="translate(37.345 26.105)" fill="#7052ac"/>
    <path id="パス_213" data-name="パス 213" d="M.194.134C.159.219.142.341.081.37-.069.488.017.1.114,0,.166,0,.194.039.194.134" transform="translate(37.111 27.324)" fill="#7052ac"/>
    <path id="パス_214" data-name="パス 214" d="M.218.208C.16.28.025.129,0,.054.026.023.034-.021.095.012c.1.052.1.123.123.2" transform="translate(20.774 50.648)" fill="#7052ac"/>
    <path id="パス_215" data-name="パス 215" d="M.81.365C.64.251.416.425.221.308.113.26-.041.225.01.074.31-.117.6.1.8.283L.759.265C.725.332.83.313.81.365" transform="translate(30.223 44.258)" fill="#7052ac"/>
    <path id="パス_216" data-name="パス 216" d="M1.384.8c.292.394-.324.313-.278.564-.3.009-.269.1-.571.1A1.047,1.047,0,0,1,0,.8C.171.735-.1.339.228.378L.3.137C.3.189.369.195.4.22.42.154.531.107.447.017.593.1.764.2.835,0L.919.132c.077.05.244.195.262.121.02.23.292.308.2.547" transform="translate(50.513 26.577)" fill="#7052ac"/>
    <path id="パス_217" data-name="パス 217" d="M0,.041A.315.315,0,0,1,0,0,.1.1,0,0,1,0,.041" transform="translate(51.693 26.788)" fill="#7052ac"/>
    <path id="パス_218" data-name="パス 218" d="M.324.3C.211.244-.025.2,0,.034.077-.024.179.012.264,0a.626.626,0,0,1,.3.245Z" transform="translate(28.66 44.392)" fill="#7052ac"/>
    <path id="パス_219" data-name="パス 219" d="M0,.06.037.005C.065.025.1,0,.141,0,.307,0,.428.207.508.273.319.229.119.261,0,.06" transform="translate(28.415 43.325)" fill="#7052ac"/>
    <path id="パス_220" data-name="パス 220" d="M.081.035,0,.011c.04-.03.049.012.081.024" transform="translate(28.734 42.806)" fill="#7052ac"/>
    <path id="パス_221" data-name="パス 221" d="M0,.023C.028.007.055-.008.074.005.066.018.053.034.074.046A.432.432,0,0,1,0,.023" transform="translate(26.172 38.47)" fill="#7052ac"/>
    <path id="パス_222" data-name="パス 222" d="M.24.152C.174.212-.015.238,0,.112.013.024.133.045.2,0A.121.121,0,0,1,.24.152" transform="translate(22.304 32.332)" fill="#7052ac"/>
    <path id="パス_223" data-name="パス 223" d="M.342,0c.185-.012.231.135.28.219C.486.3.393.407.183.383.162.31-.081.292.028.173.047.036.158-.015.342,0" transform="translate(24.456 32.21)" fill="#7052ac"/>
    <path id="パス_224" data-name="パス 224" d="M.189,0C.232.028.213.063.208.1.164.191-.011.131,0,.046A.241.241,0,0,1,.189,0" transform="translate(22.912 32.23)" fill="#7052ac"/>
    <path id="パス_225" data-name="パス 225" d="M0,0,.127.116.1.226Z" transform="translate(21.52 43.442)" fill="#7052ac"/>
    <path id="パス_226" data-name="パス 226" d="M.026.069c.1-.165.26.005.4.1a2.15,2.15,0,0,1,.608.94C.9.846.767,1.173.651.871.642.961.531.91.536.992L.5.933C.338.726-.113.419.026.069" transform="translate(20.011 42.426)" fill="#7052ac"/>
    <path id="パス_227" data-name="パス 227" d="M.089,0C.126.046.282.049.216.138.158.167.119.2.048.175A.093.093,0,0,1,.089,0" transform="translate(22.378 30.899)" fill="#7052ac"/>
    <path id="パス_228" data-name="パス 228" d="M.232.116C.165.145.17.281.059.209-.043.169.018.094.018.016a.155.155,0,0,1,.215.1" transform="translate(20.656 29.6)" fill="#7052ac"/>
    <path id="パス_229" data-name="パス 229" d="M0,.25C.042.128.107.02.229,0A1.03,1.03,0,0,1,.816.546c.156.245.276.534.432.766-.068.08-.144-.033-.212-.042-.089.109-.046.219,0,.344l-.012.136a2.818,2.818,0,0,1-.566-.434c-.007.059-.059.1-.024.139C.153,1.284.277.814.01.685A.748.748,0,0,0,0,.25" transform="translate(18.48 38.331)" fill="#7052ac"/>
    <path id="パス_230" data-name="パス 230" d="M0,.055c.072-.02.057-.113.365,0A.75.75,0,0,1,.615.2C.662.238.664.265.648.289.615.336.506.375.565.431L.445.374C.411.3-.04.152,0,.055" transform="translate(32.185 32.436)" fill="#7052ac"/>
    <path id="パス_231" data-name="パス 231" d="M.055.025.029.088,0,0Z" transform="translate(29.002 30.414)" fill="#7052ac"/>
    <path id="パス_232" data-name="パス 232" d="M.215.16.064.215,0,0,.118.194C.075.148.275.136.215.16" transform="translate(27.971 29.824)" fill="#7052ac"/>
    <path id="パス_233" data-name="パス 233" d="M0,0H0" transform="translate(28.122 29.718)" fill="#7052ac"/>
    <path id="パス_234" data-name="パス 234" d="M.183.126C.162.143.182.222.11.2L.088.16,0,.181.057.127c.023.02.029.041.062.048C.143.152.154.078.068,0A.813.813,0,0,1,.183.126" transform="translate(28.056 29.718)" fill="#7052ac"/>
    <path id="パス_235" data-name="パス 235" d="M.056,0A.247.247,0,0,1,.123.035C.061.032.051.062,0,.065.023.048,0-.01.056,0" transform="translate(27.999 29.683)" fill="#7052ac"/>
    <path id="パス_236" data-name="パス 236" d="M.106.007,0,.027C-.007-.014.055,0,.106.007" transform="translate(29.231 30.114)" fill="#7052ac"/>
    <path id="パス_237" data-name="パス 237" d="M.011.454C-.039.3.089.172.188.054a.19.19,0,0,1,.29.029.368.368,0,0,1-.05.371C.282.473.178.633.011.454" transform="translate(25.127 24.312)" fill="#7052ac"/>
    <path id="パス_238" data-name="パス 238" d="M.284.209C.338.311.4.416.338.425A.685.685,0,0,1,0,.018C.006-.051.174.1.284.209" transform="translate(31.527 29.725)" fill="#7052ac"/>
    <path id="パス_239" data-name="パス 239" d="M.24,0A.463.463,0,0,1,.575.226C.7.634.433.66.24.75.255.793.314.928.176.84.166.812.175.784.129.75S.061.781.033.808a1.082,1.082,0,0,1,0-.53L0,.272Z" transform="translate(29.136 26.685)" fill="#7052ac"/>
    <path id="パス_240" data-name="パス 240" d="M.122.079C.065.054.044.133,0,.155L.066,0A.11.11,0,0,0,.122.079" transform="translate(24.696 22.275)" fill="#7052ac"/>
    <path id="パス_241" data-name="パス 241" d="M.064,0,0,.038C.015.024.03,0,.064,0" transform="translate(24.647 21.965)" fill="#7052ac"/>
    <path id="パス_242" data-name="パス 242" d="M0,.009,0,0H.006Z" transform="translate(24.76 22.265)" fill="#7052ac"/>
    <path id="パス_243" data-name="パス 243" d="M0,.273C.055.157.1-.08.3.027.373.036.368.136.4.2A.237.237,0,0,1,.135.421C.081.391.071.252,0,.273" transform="translate(29.108 25.085)" fill="#7052ac"/>
    <path id="パス_244" data-name="パス 244" d="M2.039.276A6.769,6.769,0,0,1,.1.54L.256.511C.286.474.439.415.4.373H0A5.76,5.76,0,0,1,1.374.011c.359-.056.814.107.665.264" transform="translate(28.862 0)" fill="#7052ac"/>
    <path id="パス_245" data-name="パス 245" d="M.03.059C.146.116.164-.008.273,0a.448.448,0,0,1,.3.29c.061.188.036.3-.026.371A.281.281,0,0,1,.16.705C.159.623.085.517.036.531l.031-.1C-.147.256.239.318.03.059" transform="translate(31.212 24.443)" fill="#7052ac"/>
    <path id="パス_246" data-name="パス 246" d="M.045.115.006.106H0L.054,0,.1.056.034.091Z" transform="translate(29.385 20.305)" fill="#7052ac"/>
    <path id="パス_247" data-name="パス 247" d="M.022,0,0,.044C0,.028,0,0,.022,0" transform="translate(29.364 20.413)" fill="#7052ac"/>
    <path id="パス_248" data-name="パス 248" d="M.114.109,0,.044.079,0C.068.025.072.059.114.109" transform="translate(29.518 20.199)" fill="#7052ac"/>
    <path id="パス_249" data-name="パス 249" d="M.559.095C.544.432.218.395,0,.443A.831.831,0,0,1,.149.329L.117.308C.189.282.394.374.4.157.389.088.319.071.284.026L.33,0c.042.015.19-.027.229.095" transform="translate(29.45 20.097)" fill="#7052ac"/>
    <path id="パス_250" data-name="パス 250" d="M.132,0l0,.006L0,.082C.022.03.116.017.132,0" transform="translate(29.597 20.117)" fill="#7052ac"/>
    <path id="パス_251" data-name="パス 251" d="M0,0A.7.7,0,0,0,.152.037.154.154,0,0,1,0,0" transform="translate(38.359 17.111)" fill="#7052ac"/>
    <path id="パス_252" data-name="パス 252" d="M.014.214,0,.2C.031.129.064.064.1,0Z" transform="translate(67.208 37.168)" fill="#7052ac"/>
    <path id="パス_253" data-name="パス 253" d="M.068,0A.31.31,0,0,0,0,.032.234.234,0,0,1,.039,0Z" transform="translate(49.385 49.605)" fill="#7052ac"/>
    <path id="パス_254" data-name="パス 254" d="M.023,0,0,0A.051.051,0,0,1,.023,0" transform="translate(49.453 49.602)" fill="#7052ac"/>
    <path id="パス_255" data-name="パス 255" d="M2.628.315a3.594,3.594,0,0,1-.253.273L2.529.6,2.476.606a.3.3,0,0,0-.16.219L2.488.789l-.378.374c.15.075.038.183-.011.339l.189-.052c-.016.052-.068.131-.022.152.055-.005.111.029.171-.037l-.021.15a.417.417,0,0,0,.229-.08l-.306.24c.066.083.2-.041.31-.05l-.125.1c-.16.2-.742.542-.411.633l-.129.02a1.188,1.188,0,0,0-.616.37C1.111,2.823.619,3.1.594,2.7a1.187,1.187,0,0,1,.29-.715,1.434,1.434,0,0,0-.532-.038L0,1.43c.02-.119.151-.26.064-.348C.318.932.431.393.87.425c.3-.291.555-.1.892-.425l-.03.062c.024.145.137.068.226.017a.274.274,0,0,0-.078.158C2.026.217,2.17.251,2.3.168L2.219.241c-.1.31.3.02.409.074" transform="translate(47.428 49.559)" fill="#7052ac"/>
    <path id="パス_256" data-name="パス 256" d="M.189.026c0,.028.006.08-.018.1C.106.178.032.083,0,0,.046.087.184.1.189.026" transform="translate(52.598 18.906)" fill="#7052ac"/>
    <path id="パス_257" data-name="パス 257" d="M.016.064A.126.126,0,0,1,0,0,.225.225,0,0,0,.016.064" transform="translate(52.582 18.842)" fill="#7052ac"/>
    <path id="パス_258" data-name="パス 258" d="M0,.246.034,0,0,.418Z" transform="translate(60.343 33.908)" fill="#7052ac"/>
    <path id="パス_259" data-name="パス 259" d="M.342.305C.431.219.547.336.6.1L.7.145C.742.231.845.15.878,0a1.484,1.484,0,0,1-.06.594L.883.556C.909.536.668.887.792.912c-.131.171-.339.3-.393.508L.029,1.4C-.091,1.2.191.691.342.305" transform="translate(62.217 45.629)" fill="#7052ac"/>
    <path id="パス_260" data-name="パス 260" d="M.2.494C.522-.232.95-.06.812.385a2.075,2.075,0,0,1-.565.87C-.109,1.454-.039.924.2.494" transform="translate(69.19 50.896)" fill="#7052ac"/>
    <path id="パス_261" data-name="パス 261" d="M0,.525A1.586,1.586,0,0,1,.461,0L.439.1C.619-.088.576.11.595.2A1.464,1.464,0,0,1,.138.7C-.05.838.042.6,0,.525" transform="translate(62.223 50.226)" fill="#7052ac"/>
    <path id="パス_262" data-name="パス 262" d="M1.929.326,1.9.544A1.7,1.7,0,0,0,2.369.208c-.052.091-.02.126,0,.147A1.154,1.154,0,0,0,2.965,0L2.721.339c.1.2.457-.312.617-.3L2.949.479,2.97.5A.9.9,0,0,0,3.293.34c-.077.074-.136.154-.219.168-.113.382-.285.711-.1.7-.147.1-.37.16-.38.356.07-.022.181-.1.2-.039L2.2,1.87c-.186.151,0,.2-.232.255l-.236.368-.05-.06c-.381.034-.8.342-1.158.275L.49,2.774,0,2.421C.1,1.617,1.378.983,1.929.326" transform="translate(56.378 58.12)" fill="#7052ac"/>
    <path id="パス_263" data-name="パス 263" d="M.219,3.128C-.3,3.347.462,2.758,0,2.886c.136-.158.031-.217.022-.232.114-.143.031-.218.164-.376a.31.31,0,0,0,.143-.2l-.011.006.013-.012a.986.986,0,0,1,.2-.49c.056-.018.123.029.211-.046C.666,1.421.959,1.258,1,1.217c.37-.071.537-.779,1.023-.693.334-.167.19-.3.462-.5.037.088-.192.345.053.287.227-.256.258-.046.428-.1,0-.064.135-.167.19-.207L3.118.084c-.028.14,0,.175.207.11.294-.179.345.183.653-.082a5.166,5.166,0,0,1-.272.44c.008.145.206.02.34-.046.142.065-.32.118-.287.337.092.063.292.023.418.037l-.441.255c-.451.433.15.328.206.344-.184.106-.242-.061-.437.171-.157.282.307-.048.253.171l-.235.044c-.517.117-.265.54-.528.648-.47-.029-.7.57-.893.616-.2.132-.542.008-.734.311l-.042-.063a.3.3,0,0,0-.343.131c.01-.367-.813.158-.471-.352-.192.03-.291.2-.419.266.03-.055.254-.253.124-.3" transform="translate(50.902 55.308)" fill="#7052ac"/>
    <path id="パス_264" data-name="パス 264" d="M0,.016l0,0C.033-.007.025,0,0,.016" transform="translate(54.056 55.292)" fill="#7052ac"/>
    <path id="パス_265" data-name="パス 265" d="M.027.292C-.05.225.062.132.052.055.344-.081.214.078.447.087c-.026.107-.25.3-.42.2" transform="translate(44.721 54.807)" fill="#7052ac"/>
    <path id="パス_266" data-name="パス 266" d="M0,.123C.039.065.055,0,.144,0A.254.254,0,0,1,.4.121C.254.241.446.218.272.3.176.279-.027.259,0,.123" transform="translate(40.247 49.801)" fill="#7052ac"/>
    <path id="パス_267" data-name="パス 267" d="M.485,0C.668.014.629.113.671.2L.5.121C.1.289.676.227.54.332L.332.37C.118.393.1.255,0,.211.1.069.314.078.485,0" transform="translate(39.853 63.605)" fill="#7052ac"/>
    <path id="パス_268" data-name="パス 268" d="M.066.026,0,0,.011,0Z" transform="translate(38.613 58.839)" fill="#7052ac"/>
    <path id="パス_269" data-name="パス 269" d="M.737.173.788.516.674.581c-.018.43-.41.338-.6.27C-.112.627.1.411.163.192.257.28.345.117.4.029.61-.1.545.272.737.173" transform="translate(54.102 41.469)" fill="#7052ac"/>
    <path id="パス_270" data-name="パス 270" d="M.337.036.247.1.286.126,0,.413.27,0Z" transform="translate(53.522 43.23)" fill="#7052ac"/>
    <path id="パス_271" data-name="パス 271" d="M1.4,0,1.347.25c.068-.028.1-.082.165-.136-.006.044.009.076-.024.1.252.393.6.124,1.034.032l-.5.291c-.048.338.32-.1.341.205-.03.081-.092.068-.137.089.011.357.424.086.491.25-.184.094-.584.217-.549.522-.149.106-.346.466-.558.475l-.022.3c-.112-.026-.164-.219-.335-.108l.012.192c-.073-.184-.218.049-.328.072C.731,2.483.673,2.335.384,2.5.325,2.3.138,2.106.17,1.9S.042,1.98,0,1.824c.254-.232.2-.57.231-.833A1.785,1.785,0,0,1,.985.147L.993.2A.52.52,0,0,0,1.4,0" transform="translate(51.485 43.72)" fill="#7052ac"/>
    <path id="パス_272" data-name="パス 272" d="M.077.105,0,0,.1.072Z" transform="translate(53.42 46.299)" fill="#7052ac"/>
  </g>
</svg>
